<svg xmlns="http://www.w3.org/2000/svg" width="100%" viewBox="0 0 145 171" fill="none" class="alim-deco"><path d="M105.111 146.995L100.245 128.431C97.9769 120.917 95.6988 113.403 93.4306 105.889C90.7828 97.1266 87.6454 88.3139 85.4173 79.4912C83.4489 71.6977 81.3806 64.2639 78.3431 57.0898C76.8644 53.5927 75.1458 50.1555 73.1075 46.7584C69.2607 40.3736 62.4363 34.7783 55.8418 30.7716C57.2206 29.7724 57.95 28.8132 57.7202 28.0738L55.7019 21.4093C55.1723 19.6708 49.6169 19.8107 43.2822 21.7191C36.9574 23.6475 32.2513 26.605 32.7809 28.3536L34.7992 35.0181C35.009 35.6975 35.9882 36.0872 37.487 36.1971C34.8691 41.8424 33.0407 48.0873 32.3113 54.1922C31.0723 64.5736 34.0598 75.0949 37.6269 84.7369C40.5145 92.5404 42.7226 100.594 45.1306 108.567C49.3771 122.636 53.6336 136.704 57.8801 150.762C58.2298 151.931 58.5895 153.1 58.9392 154.269C59.0091 154.489 59.0891 154.689 59.169 154.899C59.199 155.079 59.239 155.259 59.2889 155.428C60.7977 160.424 72.1583 161.413 84.6579 157.637C87.1259 156.887 89.4639 156.008 91.6022 155.049L102.014 149.234" fill="black"></path><path d="M111.875 130.469C108.388 118.949 104.911 107.428 101.434 95.8977C98.7863 87.135 95.6588 78.3223 93.4207 69.4996C91.4523 61.706 89.384 54.2722 86.3466 47.0981C84.8678 43.601 83.1492 40.1639 81.1109 36.7667C76.8344 29.6726 68.891 23.5476 61.667 19.511L54.9526 21.5393L53.204 22.0689L46.4996 24.0972C43.3322 30.2721 41.114 37.3262 40.2947 44.2005C39.0557 54.5719 42.0432 65.1032 45.6003 74.7452C48.4879 82.5488 50.6961 90.6021 53.1041 98.5755C57.3506 112.644 61.607 126.712 65.8535 140.771C66.2032 141.94 66.5629 143.109 66.9126 144.278C66.9726 144.497 67.0525 144.697 67.1425 144.907C67.1724 145.087 67.2024 145.267 67.2624 145.437C68.7711 150.433 80.1317 151.422 92.6314 147.645C105.131 143.868 114.044 136.754 112.535 131.758C112.395 131.288 112.165 130.859 111.855 130.459" fill="#F2F2F0"></path><path d="M111.875 130.469C108.388 118.949 104.911 107.428 101.434 95.8977C98.7863 87.135 95.6588 78.3223 93.4207 69.4996C91.4523 61.706 89.384 54.2722 86.3466 47.0981C84.8678 43.601 83.1492 40.1639 81.1109 36.7667C76.8344 29.6726 68.891 23.5476 61.667 19.511L54.9526 21.5393L53.204 22.0689L46.4996 24.0972C43.3322 30.2721 41.114 37.3262 40.2947 44.2005C39.0557 54.5719 42.0432 65.1032 45.6003 74.7452C48.4879 82.5488 50.6961 90.6021 53.1041 98.5755C57.3506 112.644 61.607 126.712 65.8535 140.771C66.2032 141.94 66.5629 143.109 66.9126 144.278C66.9726 144.497 67.0525 144.697 67.1425 144.907C67.1724 145.087 67.2024 145.267 67.2624 145.437C68.7711 150.433 80.1317 151.422 92.6314 147.645C105.131 143.868 114.044 136.754 112.535 131.758C112.395 131.288 112.165 130.859 111.855 130.459L111.875 130.469Z" stroke="black" stroke-width="1.59868" stroke-linecap="round" stroke-linejoin="round"></path><path d="M92.7011 95.0783L62.5861 104.181C60.6577 104.76 58.6194 103.671 58.0298 101.743L48.6876 70.8184C48.1081 68.89 49.1972 66.8517 51.1256 66.2622L81.2406 57.1598C83.169 56.5802 85.2073 57.6693 85.7969 59.5977L95.1391 90.5221C95.7186 92.4505 94.6295 94.4888 92.7011 95.0783Z" fill="#00D989"></path><path d="M92.7011 95.0783L62.5861 104.181C60.6577 104.76 58.6194 103.671 58.0298 101.743L48.6876 70.8184C48.1081 68.89 49.1972 66.8517 51.1256 66.2622L81.2406 57.1598C83.169 56.5802 85.2073 57.6693 85.7969 59.5977L95.1391 90.5221C95.7186 92.4505 94.6295 94.4888 92.7011 95.0783Z" stroke="black" stroke-width="1.52873" stroke-linecap="round" stroke-linejoin="round"></path><path d="M51.2855 11.7374C44.9507 13.6558 40.2446 16.6134 40.7642 18.3519L42.7825 25.0164C43.3121 26.755 48.8675 26.6151 55.2022 24.7067C61.537 22.7882 66.2431 19.8307 65.7235 18.0921L63.7052 11.4277C63.1756 9.6891 57.6202 9.82898 51.2855 11.7374Z" fill="#9E4CFF"></path><path d="M51.2855 11.7374C44.9507 13.6558 40.2446 16.6134 40.7642 18.3519L42.7825 25.0164C43.3121 26.755 48.8675 26.6151 55.2022 24.7067C61.537 22.7882 66.2431 19.8307 65.7235 18.0921L63.7052 11.4277C63.1756 9.6891 57.6202 9.82898 51.2855 11.7374Z" stroke="black" stroke-width="1.59868" stroke-linecap="round" stroke-linejoin="round"></path><path d="M43.2722 19.2611C49.9567 19.9905 56.7011 17.9621 61.9568 13.7856C62.856 13.0662 61.5871 11.8072 60.6878 12.5166C55.7919 16.3934 49.4571 18.132 43.2722 17.4626C42.1232 17.3427 42.1332 19.1312 43.2722 19.2611Z" fill="black"></path></svg>