<svg xmlns="http://www.w3.org/2000/svg" width="100%" viewBox="0 0 207 135" fill="none" class="alim-deco"><path d="M136.316 15.2893L109.236 25.6793L90.9256 11.2393L8.91564 23.4293L27.4156 37.7393L27.9156 38.5293L0.715637 55.9893L28.1756 66.7093L28.1756 115.659L85.1156 134.189L166.926 122.189L166.216 69.3293L190.156 64.6493L165.876 43.9093L197.526 32.5693L136.316 15.2893Z" fill="black"></path><path d="M136.316 15.2893L109.236 25.6793L90.9256 11.2393L8.91564 23.4293L27.4156 37.7393L27.9156 38.5293L0.715637 55.9893L28.1756 66.7093L28.1756 115.659L85.1156 134.189L166.926 122.189L166.216 69.3293L190.156 64.6493L165.876 43.9093L197.526 32.5693L136.316 15.2893Z" fill="black"></path><path d="M173.876 33.9092L117.236 43.3892V15.6792L173.876 33.9092Z" fill="#9E4CFF"></path><path d="M117.236 15.6692V43.3892L93.1156 47.4192L36.1756 28.3592L117.236 15.6692Z" fill="#9E4CFF"></path><path d="M36.1756 28.3593L35.9156 28.5293L35.4156 27.7393L16.9056 13.4293L98.9256 1.23926L117.236 15.6693L36.1756 28.3593Z" fill="#00D989"></path><path d="M205.526 22.5693L173.876 33.9093L117.236 15.6693L144.316 5.28931L205.526 22.5693Z" fill="#F2F2F0"></path><path d="M198.156 54.6492L174.216 59.3292L123.596 69.2292L93.1155 47.4192L117.236 43.3892L173.876 33.9092L198.156 54.6492Z" fill="#F2F2F0"></path><path d="M93.1256 47.4191L62.6556 67.0591L36.1756 56.7091L8.71564 45.9891L35.9156 28.5291L36.1756 28.3591L93.1256 47.4191Z" fill="#F2F2F0"></path><path d="M174.216 59.3292L174.926 112.189L93.1255 124.189V47.4192L123.596 69.2292L174.216 59.3292Z" fill="#00D989"></path><path d="M93.1256 47.4192V124.189L36.1756 105.659V56.7092L62.6556 67.0592L93.1256 47.4192Z" fill="#F2F2F0"></path><path d="M93.1256 124.189L36.1756 105.659V56.7092" stroke="black" stroke-width="1.6" stroke-linecap="round" stroke-linejoin="round"></path><path d="M36.1756 28.3591L93.1156 47.4191" stroke="black" stroke-width="1.6" stroke-linecap="round" stroke-linejoin="round"></path><path d="M174.216 59.3292L174.926 112.189L93.1255 124.189V47.4192L117.236 43.3892L173.876 33.9092" stroke="black" stroke-width="1.6" stroke-linecap="round" stroke-linejoin="round"></path><path d="M173.876 33.9092L117.236 15.6792L36.1756 28.3592L35.9156 28.5292L8.71564 45.9892L36.1756 56.7092L62.6556 67.0592L93.1156 47.4192L123.596 69.2292L174.216 59.3292L198.156 54.6492L173.876 33.9092Z" stroke="black" stroke-width="1.6" stroke-linecap="round" stroke-linejoin="round"></path><path d="M117.236 43.3893V15.6693L144.316 5.28931L205.526 22.5693L173.876 33.9093" stroke="black" stroke-width="1.6" stroke-linecap="round" stroke-linejoin="round"></path><path d="M117.236 15.6693L98.9256 1.23926L16.9056 13.4293L35.4156 27.7393" stroke="black" stroke-width="1.6" stroke-linecap="round" stroke-linejoin="round"></path></svg>