<svg xmlns="http://www.w3.org/2000/svg" width="100%" viewBox="0 0 152 133" fill="none" class="alim-deco"><path d="M131.486 92.4245C132.506 91.9145 133.386 90.7945 133.346 89.5945C133.296 87.9845 131.776 87.0945 130.446 86.5045C128.796 85.7645 127.146 85.0245 125.496 84.2845C125.536 84.2845 125.576 84.2845 125.606 84.2745C126.616 84.1445 127.526 83.6045 128.106 82.7645C128.116 82.7445 128.126 82.7345 128.136 82.7145C129.296 81.0145 128.796 78.6945 127.026 77.6445C124.906 76.3845 122.986 74.7345 121.306 72.8245C116.896 67.8145 114.006 61.1045 114.696 54.3445C114.796 53.3345 114.966 52.2545 115.196 51.1345C115.656 48.9345 114.016 46.8745 111.766 46.8345C106.446 46.7445 100.996 45.2445 96.3455 43.0545C89.4555 39.8145 84.2955 33.7345 82.5155 26.2645C82.2755 25.2745 82.0855 24.0645 81.9655 22.7545C81.8155 21.1145 80.5355 19.7845 78.9055 19.5745C55.4355 16.5245 34.4655 25.6245 29.0155 42.6845C28.0555 45.6845 27.6355 48.7645 27.7055 51.8545L14.3555 54.2545C12.9955 54.5045 11.2855 55.1045 11.0855 56.6045C10.8655 58.1545 12.4855 59.0545 13.8355 59.4245C15.5155 59.8845 17.2255 60.2345 18.9555 60.4845C18.5455 61.0745 18.2155 61.7045 18.0055 62.3845C17.0055 65.5145 18.3355 69.1945 21.5055 73.0545C19.5455 86.9445 38.1155 104.264 64.7855 112.784C92.9455 121.784 119.466 117.554 124.006 103.334C124.296 102.424 124.486 101.494 124.586 100.544C125.686 99.5745 126.466 98.4445 126.866 97.1645C127.296 95.8045 127.286 94.3445 126.886 92.8045C127.336 92.8445 127.786 92.8845 128.226 92.8945C129.316 92.9445 130.446 92.9245 131.476 92.4145" fill="black"></path><path d="M131.016 99.3344C126.476 113.554 99.9563 117.784 71.7963 108.784C43.6363 99.7844 24.4863 80.9644 29.0263 66.7444C33.5663 52.5244 60.0863 48.2944 88.2463 57.2944C116.406 66.2944 135.556 85.1144 131.016 99.3344Z" fill="#00D989"></path><path d="M131.016 99.3344C126.476 113.554 99.9563 117.784 71.7963 108.784C43.6363 99.7844 24.4863 80.9644 29.0263 66.7444C33.5663 52.5244 60.0863 48.2944 88.2463 57.2944C116.406 66.2944 135.556 85.1144 131.016 99.3344Z" fill="#F2F2F0" stroke="black" stroke-width="1.53" stroke-linecap="round" stroke-linejoin="round"></path><path d="M133.886 93.1644C130.606 103.444 103.566 103.984 73.5061 94.3744C43.4461 84.7644 21.7361 68.6544 25.0161 58.3744C28.2961 48.1044 55.3361 47.5544 85.3961 57.1644C115.456 66.7744 137.166 82.8844 133.886 93.1644Z" fill="#9E4CFF"></path><path d="M133.886 93.1644C130.606 103.444 103.566 103.984 73.5061 94.3744C43.4461 84.7644 21.7361 68.6544 25.0161 58.3744C28.2961 48.1044 55.3361 47.5544 85.3961 57.1644C115.456 66.7744 137.166 82.8844 133.886 93.1644Z" stroke="black" stroke-width="1.33" stroke-linecap="round" stroke-linejoin="round"></path><path d="M38.2054 47.2246C32.5954 48.2346 26.9854 49.2446 21.3854 50.2446C20.0254 50.4846 18.3154 51.0946 18.1054 52.5946C17.8954 54.1546 19.5054 55.0446 20.8554 55.4146C25.5754 56.7046 30.5354 57.1746 35.4954 56.8046C37.1954 56.6746 39.0254 56.4846 40.4254 57.4446C43.5754 59.6146 42.3954 66.0346 45.7154 67.8846C48.3854 69.3746 51.6854 66.6646 54.7654 66.6046C61.3754 66.4546 63.6454 77.7646 70.2254 77.9946C73.3154 78.1046 76.1654 75.6146 79.2554 75.1446C86.7254 74.0046 91.7354 84.5346 99.2254 83.6646C102.275 83.3046 105.025 81.0546 108.065 80.4646C112.865 79.5446 117.095 82.8446 121.315 85.1046C125.605 87.4046 130.375 88.7046 135.255 88.9046C136.345 88.9546 137.475 88.9346 138.495 88.4246C139.515 87.9146 140.395 86.7946 140.355 85.5946C140.305 83.9846 138.785 83.1046 137.455 82.5046C132.175 80.1346 126.905 77.7546 121.625 75.3846" fill="#00D989"></path><path d="M38.2054 47.2246C32.5954 48.2346 26.9854 49.2446 21.3854 50.2446C20.0254 50.4846 18.3154 51.0946 18.1054 52.5946C17.8954 54.1546 19.5054 55.0446 20.8554 55.4146C25.5754 56.7046 30.5354 57.1746 35.4954 56.8046C37.1954 56.6746 39.0254 56.4846 40.4254 57.4446C43.5754 59.6146 42.3954 66.0346 45.7154 67.8846C48.3854 69.3746 51.6854 66.6646 54.7654 66.6046C61.3754 66.4546 63.6454 77.7646 70.2254 77.9946C73.3154 78.1046 76.1654 75.6146 79.2554 75.1446C86.7254 74.0046 91.7354 84.5346 99.2254 83.6646C102.275 83.3046 105.025 81.0546 108.065 80.4646C112.865 79.5446 117.095 82.8446 121.315 85.1046C125.605 87.4046 130.375 88.7046 135.255 88.9046C136.345 88.9546 137.475 88.9346 138.495 88.4246C139.515 87.9146 140.395 86.7946 140.355 85.5946C140.305 83.9846 138.785 83.1046 137.455 82.5046C132.175 80.1346 126.905 77.7546 121.625 75.3846" fill="#00D989"></path><path d="M38.2054 47.2246C32.5954 48.2346 26.9854 49.2446 21.3854 50.2446C20.0254 50.4846 18.3154 51.0946 18.1054 52.5946C17.8954 54.1546 19.5054 55.0446 20.8554 55.4146C25.5754 56.7046 30.5354 57.1746 35.4954 56.8046C37.1954 56.6746 39.0254 56.4846 40.4254 57.4446C43.5754 59.6146 42.3954 66.0346 45.7154 67.8846C48.3854 69.3746 51.6854 66.6646 54.7654 66.6046C61.3754 66.4546 63.6454 77.7646 70.2254 77.9946C73.3154 78.1046 76.1654 75.6146 79.2554 75.1446C86.7254 74.0046 91.7354 84.5346 99.2254 83.6646C102.275 83.3046 105.025 81.0546 108.065 80.4646C112.865 79.5446 117.095 82.8446 121.315 85.1046C125.605 87.4046 130.375 88.7046 135.255 88.9046C136.345 88.9546 137.475 88.9346 138.495 88.4246C139.515 87.9146 140.395 86.7946 140.355 85.5946C140.305 83.9846 138.785 83.1046 137.455 82.5046C132.175 80.1346 126.905 77.7546 121.625 75.3846" stroke="black" stroke-width="1.37" stroke-linecap="round" stroke-linejoin="round"></path><path d="M128.326 68.8247C123.916 63.8147 121.026 57.1047 121.716 50.3447C121.816 49.3447 121.986 48.2547 122.216 47.1247C122.676 44.9247 121.036 42.8547 118.786 42.8247C113.466 42.7347 108.016 41.2347 103.366 39.0447C96.476 35.8047 91.316 29.7247 89.536 22.2547C89.296 21.2647 89.106 20.0547 88.986 18.7447C88.836 17.1047 87.556 15.7747 85.926 15.5647C62.466 12.5247 41.496 21.6147 36.036 38.6847C35.056 41.7647 34.626 44.9247 34.726 48.1047C34.756 49.1047 35.226 50.0447 35.986 50.6947C46.596 59.7647 62.046 68.1747 80.126 73.9547C99.556 80.1647 118.266 82.1347 132.616 80.2747C133.626 80.1447 134.536 79.6047 135.116 78.7647C135.126 78.7447 135.136 78.7347 135.146 78.7147C136.296 77.0147 135.796 74.6947 134.036 73.6447C131.916 72.3747 129.996 70.7347 128.316 68.8247" fill="#F2F2F0"></path><path d="M128.326 68.8247C123.916 63.8147 121.026 57.1047 121.716 50.3447C121.816 49.3447 121.986 48.2547 122.216 47.1247C122.676 44.9247 121.036 42.8547 118.786 42.8247C113.466 42.7347 108.016 41.2347 103.366 39.0447C96.476 35.8047 91.316 29.7247 89.536 22.2547C89.296 21.2647 89.106 20.0547 88.986 18.7447C88.836 17.1047 87.556 15.7747 85.926 15.5647C62.466 12.5247 41.496 21.6147 36.036 38.6847C35.056 41.7647 34.626 44.9247 34.726 48.1047C34.756 49.1047 35.226 50.0447 35.986 50.6947C46.596 59.7647 62.046 68.1747 80.126 73.9547C99.556 80.1647 118.266 82.1347 132.616 80.2747C133.626 80.1447 134.536 79.6047 135.116 78.7647C135.126 78.7447 135.136 78.7347 135.146 78.7147C136.296 77.0147 135.796 74.6947 134.036 73.6447C131.916 72.3747 129.996 70.7347 128.316 68.8247H128.326Z" stroke="black" stroke-width="1.53" stroke-linecap="round" stroke-linejoin="round"></path><path d="M65.1259 39.8947C66.4759 38.7147 67.8359 37.5347 69.1859 36.3647" stroke="black" stroke-width="1.53" stroke-linecap="round" stroke-linejoin="round"></path><path d="M109.616 51.4747C108.396 50.1647 107.166 48.8547 105.946 47.5347" stroke="black" stroke-width="1.53" stroke-linecap="round" stroke-linejoin="round"></path><path d="M91.3954 47.4646C92.6754 46.8046 93.9454 46.1446 95.2254 45.4946" stroke="black" stroke-width="1.53" stroke-linecap="round" stroke-linejoin="round"></path><path d="M59.0658 46.9048C57.5558 47.6848 56.0558 48.4548 54.5458 49.2348" stroke="black" stroke-width="1.53" stroke-linecap="round" stroke-linejoin="round"></path><path d="M96.806 64.0645C95.296 64.8445 93.796 65.6145 92.286 66.3945" stroke="black" stroke-width="1.53" stroke-linecap="round" stroke-linejoin="round"></path><path d="M50.3954 37.0645C50.9454 38.1445 51.5054 39.2145 52.0654 40.2945" stroke="black" stroke-width="1.53" stroke-linecap="round" stroke-linejoin="round"></path><path d="M79.1855 37.1348C79.7355 38.2148 80.2955 39.2848 80.8555 40.3648" stroke="black" stroke-width="1.53" stroke-linecap="round" stroke-linejoin="round"></path><path d="M119.076 69.8345C117.996 70.3945 116.926 70.9445 115.846 71.5045" stroke="black" stroke-width="1.53" stroke-linecap="round" stroke-linejoin="round"></path><path d="M68.5058 56.7446C69.0558 57.8246 69.6158 58.8946 70.1758 59.9746" stroke="black" stroke-width="1.53" stroke-linecap="round" stroke-linejoin="round"></path><path d="M106.546 60.2646C107.096 61.3446 107.656 62.4146 108.216 63.4946" stroke="black" stroke-width="1.53" stroke-linecap="round" stroke-linejoin="round"></path><path d="M81.706 52.7944C82.266 53.8744 82.816 54.9444 83.376 56.0244" stroke="black" stroke-width="1.53" stroke-linecap="round" stroke-linejoin="round"></path></svg>