<svg xmlns="http://www.w3.org/2000/svg" width="100%" viewBox="0 0 1920 191" fill="none" class="bslider-deco_bottom"><g clip-path="url(#clip0_2007_2897)"><path fill-rule="evenodd" clip-rule="evenodd" d="M0 165.887V191H959.371C956.02 190.62 955.313 190.307 951.66 188.367C951.394 188.226 951.128 188.085 950.862 187.944C949.527 187.237 948.194 186.531 946.91 185.797C945.73 185.117 944.53 184.677 942.66 184.657C941.1 184.637 939.44 184.287 938.11 183.817C936.64 183.297 935.17 183.137 933.47 183.127C930.62 183.117 928.05 182.467 926.07 181.417C922.66 179.617 918.7 178.317 914.49 177.337C913.528 177.112 912.971 176.711 912.445 176.333C912.014 176.023 911.604 175.728 911.01 175.557C909.52 175.137 908.15 174.697 907 174.017C906.13 173.497 904.99 173.597 903.93 173.807C903.357 173.92 902.791 174.069 902.227 174.218C901.245 174.476 900.267 174.734 899.27 174.797C899.032 174.811 898.79 174.828 898.545 174.845C896.365 174.997 894.011 175.161 893.04 173.497C891.292 173.246 890.06 172.584 888.824 171.919C888.483 171.735 888.142 171.552 887.79 171.377C887.724 171.345 887.657 171.311 887.589 171.277C887.028 170.997 886.4 170.683 885.74 170.647C881.298 170.385 877.871 169.028 874.444 167.672C873.69 167.373 872.935 167.074 872.17 166.787C871.2 166.417 870.25 166.287 869.11 166.317C867.09 166.367 865.77 166.067 864.63 164.867C863.205 163.356 861.496 161.946 859.787 160.536C858.715 159.652 857.643 158.767 856.64 157.857C855.802 157.096 854.514 156.835 853.277 156.585C853.052 156.54 852.828 156.495 852.61 156.447C852.383 156.396 852.151 156.348 851.919 156.3C850.553 156.016 849.19 155.732 848.72 154.937C847.88 153.5 845.952 152.943 843.919 152.354C843.773 152.312 843.627 152.27 843.48 152.227C842.335 151.89 841.117 151.627 839.898 151.363C837.102 150.759 834.302 150.154 832.38 148.657C832.03 148.387 830.87 148.397 830.08 148.417L830.067 148.417C828.672 148.457 827.336 148.495 826.18 147.957C825.81 147.787 825.19 147.687 824.71 147.717C824.154 147.759 823.67 147.952 823.186 148.145C822.504 148.417 821.823 148.689 820.94 148.537C820.695 148.494 820.47 148.436 820.249 148.38C819.598 148.213 818.986 148.056 818 148.317C817.311 148.502 816.544 148.389 815.763 148.273C814.514 148.089 813.226 147.899 812.15 148.907C812.01 149.037 811.04 149.027 810.6 148.907C810.242 148.81 809.876 148.716 809.51 148.623C806.911 147.959 804.3 147.292 804.37 145.127C802.94 144.695 802.012 143.947 801.086 143.2C799.977 142.307 798.871 141.416 796.91 141.067C795.829 140.876 795.305 140.442 794.766 139.995C794.572 139.834 794.375 139.671 794.15 139.517C793.578 139.123 793.688 138.671 793.795 138.23C793.91 137.754 794.023 137.291 793.27 136.927C792.23 136.427 791.21 135.867 790.5 135.217C790.101 134.847 789.86 134.418 789.617 133.985C789.439 133.67 789.261 133.353 789.02 133.057C788.84 132.847 787.96 132.617 787.74 132.707C786.464 133.215 785.155 133.083 783.839 132.951C782.535 132.821 781.224 132.689 779.93 133.177C779.596 133.303 779.266 133.44 778.935 133.578C777.711 134.089 776.461 134.611 774.84 134.587C774.313 133.931 773.253 133.674 772.18 133.413C771.013 133.131 769.831 132.844 769.3 132.037C768.25 130.433 765.457 130.114 762.944 129.828C762.825 129.814 762.707 129.801 762.59 129.787C760.8 129.577 758.71 129.657 757.18 130.687C755.52 131.817 753.61 132.317 751.3 131.517C751.263 131.504 751.223 131.49 751.182 131.475C750.961 131.394 750.688 131.295 750.57 131.337C746.57 132.737 743.79 132.187 742.11 129.817C740.067 129.405 738.524 128.595 736.983 127.785C736.73 127.652 736.476 127.519 736.22 127.387C735.133 126.831 733.761 126.849 732.392 126.866C730.976 126.884 729.563 126.902 728.47 126.287C728.421 126.327 728.364 126.366 728.307 126.405C728.179 126.494 728.049 126.583 728 126.687C727.5 127.717 726.66 128.037 725.28 127.217C724.816 126.939 724.324 126.677 723.832 126.415C722.36 125.633 720.889 124.851 720.2 123.637C719.72 122.787 718.62 122.697 717.17 123.577C716.092 124.231 714.758 124.453 713.433 124.674C712.35 124.854 711.273 125.033 710.35 125.447C710.14 125.537 709.32 125.327 709.01 125.137C707.75 124.357 706.7 124.467 704.81 124.837C702.57 125.267 700.74 125.827 699.06 126.737C698.55 127.017 697.97 126.957 697.82 126.537C697.415 125.407 696.049 125.429 694.672 125.452C694.416 125.456 694.16 125.46 693.91 125.457C693.794 125.453 693.667 125.469 693.542 125.484C693.377 125.505 693.216 125.526 693.09 125.497C692.218 125.295 691.501 125.809 690.781 126.324C689.685 127.108 688.584 127.896 686.93 126.157C686.92 126.137 686.03 126.357 685.67 126.537C685.253 126.752 684.842 127.023 684.433 127.291C683.59 127.846 682.759 128.393 681.91 128.427C681.242 128.456 680.53 128.332 679.785 128.202C678.969 128.06 678.113 127.911 677.23 127.947C676.195 127.292 675.031 127.516 673.815 127.749C672.693 127.964 671.527 128.188 670.38 127.737C669.059 127.216 667.28 127.067 665.511 126.919C664.802 126.859 664.095 126.8 663.42 126.717C663.002 126.662 662.553 126.675 662.112 126.688C661.994 126.692 661.876 126.695 661.76 126.697C660.59 126.727 659.63 126.527 658.81 126.057C658.727 126.01 658.645 125.962 658.562 125.915C656.726 124.859 654.883 123.799 651.84 124.057C649.427 123.258 647.021 122.453 644.611 121.646C644.004 121.443 643.397 121.24 642.79 121.037C642.61 119.903 641.494 120.074 640.422 120.238C639.943 120.312 639.474 120.383 639.1 120.337C635.39 119.867 631.65 119.597 627.96 121.087C626.66 121.617 624.67 121.597 623.13 121.187C620.337 120.455 617.424 120.651 614.516 120.848C613.572 120.912 612.629 120.975 611.69 121.007C610.73 121.047 609.62 121.497 608.84 121.927C606.41 123.257 604.16 123.177 601.23 122.577C601.032 122.538 600.831 122.496 600.626 122.453C598.503 122.013 596.025 121.5 593.48 122.567C592.76 122.867 591.22 122.747 590.27 122.527C589.625 122.379 589.059 122.125 588.489 121.87C587.981 121.642 587.471 121.413 586.9 121.257C586.518 121.154 586.123 121.247 585.695 121.347C585.172 121.47 584.6 121.605 583.94 121.407C581.4 120.647 580.89 120.697 579.07 121.247L578.972 121.277C577.296 121.789 577.164 121.829 574.26 120.897C573.63 120.69 573.046 120.824 572.474 120.955C571.829 121.102 571.198 121.247 570.53 120.897C569.931 120.582 569.203 120.351 568.473 120.12C568.019 119.976 567.565 119.832 567.14 119.667C566.561 119.443 566.006 119.197 565.451 118.95C564.941 118.724 564.431 118.498 563.9 118.287C562.91 117.887 561.79 117.887 560.94 118.467C559.36 119.537 557.53 120.177 555.11 120.177C553.13 120.177 551.43 120.697 549.64 121.267C548.656 121.581 547.64 121.858 546.625 122.135C543.858 122.89 541.101 123.642 539.03 125.127C538.61 125.427 537.45 125.617 536.8 125.517C536.568 125.483 536.35 125.434 536.137 125.386C535.423 125.225 534.775 125.079 533.92 125.557C530.918 127.243 527.408 128.484 523.897 129.725C521.162 130.692 518.426 131.659 515.93 132.837C515.829 132.887 515.721 132.918 515.612 132.949C515.548 132.967 515.483 132.985 515.42 133.007C515.11 132.907 514.79 132.807 514.5 132.697C513.921 132.473 513.366 132.227 512.81 131.98C512.301 131.754 511.791 131.528 511.26 131.317C510.27 130.917 509.15 130.917 508.3 131.497C506.72 132.567 504.89 133.207 502.47 133.207C500.49 133.207 498.79 133.727 497 134.297C496.031 134.603 495.033 134.875 494.035 135.147C491.254 135.905 488.48 136.66 486.39 138.147C485.97 138.447 484.81 138.637 484.16 138.537C483.928 138.503 483.71 138.453 483.497 138.406C482.783 138.245 482.135 138.099 481.28 138.577C478.247 140.288 474.689 141.543 471.138 142.796L471.08 142.817C469.28 142.957 467.81 143.457 466.8 144.407L466.669 144.458C465.522 144.901 464.369 145.347 463.29 145.857C461.745 146.587 460.038 146.605 458.341 146.624C457.852 146.629 457.363 146.635 456.88 146.657C455.02 146.747 454.09 147.197 453.02 148.167C451.15 149.857 448.6 151.127 444.69 150.477C444.141 150.387 443.404 150.62 442.672 150.851C442.352 150.953 442.032 151.054 441.73 151.127C441.248 151.245 440.77 151.379 440.294 151.513C439.238 151.808 438.185 152.103 437.09 152.227C436.649 152.276 436.199 152.309 435.754 152.342C433.742 152.491 431.805 152.634 431.06 154.197C430.354 154.364 429.685 154.589 429.017 154.814C427.515 155.32 426.013 155.826 424.09 155.667C423.344 155.605 422.563 155.657 421.778 155.709C421.163 155.749 420.546 155.79 419.94 155.777C417.18 155.717 414.95 156.267 413.72 157.797C412.83 158.897 411.41 159.557 409.76 160.267C405.37 162.167 401.5 164.387 400.55 167.707C400.31 168.557 399.63 169.247 398.63 169.857C398.359 170.022 398.045 170.175 397.731 170.328C397.133 170.62 396.539 170.91 396.25 171.277C394.58 173.365 391.552 174.532 388.527 175.698C387.64 176.04 386.753 176.382 385.9 176.747C384.88 176.797 383.9 176.937 382.95 177.147C382.55 177.137 382.17 177.227 381.82 177.407C381.61 177.457 381.39 177.507 381.18 177.557C380.743 177.651 380.326 177.77 379.927 177.885C379.431 178.027 378.963 178.161 378.52 178.227C378.33 178.207 378.15 178.187 377.95 178.147C377.78 178.107 377.56 178.127 377.31 178.177C376.86 178.037 376.45 177.747 376.09 177.157C375.93 176.887 375.29 177.037 375.11 177.477C374.83 178.163 374.261 178.147 373.553 178.128C373.301 178.121 373.031 178.113 372.75 178.137C371.24 178.257 369.51 178.807 368.42 179.477C365.4 181.327 362 181.477 358.55 180.667C356.58 180.197 355.46 180.607 354.18 181.337L354.107 181.378C352.885 182.063 351.743 182.703 349.87 182.007C349.05 181.707 347.74 181.637 346.73 181.757C345.746 181.867 344.777 182.048 343.809 182.227C342.672 182.439 341.536 182.65 340.38 182.747C339.51 182.817 338.743 182.61 337.954 182.397C337.039 182.15 336.096 181.896 334.93 182.057C333.581 182.244 332.205 182.294 330.825 182.344C328.369 182.433 325.9 182.523 323.55 183.387C322.642 183.721 321.386 183.722 320.14 183.723C319.63 183.723 319.122 183.724 318.64 183.747C317.748 183.787 316.851 183.796 315.954 183.806C313.264 183.834 310.575 183.862 308.01 184.717C307.66 184.827 306.97 184.767 306.58 184.637C304.23 183.877 302.37 184.377 300.71 185.517C300.53 185.647 300.29 185.747 300.06 185.847C298.23 186.647 296.48 186.617 294.72 185.897C293.947 185.577 293.11 185.32 292.274 185.064C292.169 185.031 292.064 184.999 291.96 184.967C291.75 184.907 291.32 184.907 291.15 184.987C289.955 185.573 288.779 185.397 287.606 185.221C286.698 185.085 285.792 184.949 284.88 185.167C284.848 185.175 284.814 185.183 284.779 185.191C284.542 185.246 284.26 185.311 284.19 185.407C282.832 187.276 281.366 186.569 279.882 185.853C279.738 185.784 279.594 185.714 279.45 185.647C279.25 185.547 278.93 185.437 278.73 185.477C278.08 185.597 277.435 185.734 276.79 185.872C275.877 186.066 274.962 186.261 274.03 186.407C273.421 186.504 272.871 186.36 272.306 186.212C271.468 185.994 270.596 185.766 269.45 186.297L269.353 186.342C268.228 186.866 266.808 187.528 265.01 187.207C263.814 186.994 262.545 186.902 261.275 186.81C258.785 186.63 256.29 186.45 254.33 185.357C253.56 184.917 252.74 184.507 251.88 184.127C251.51 183.957 250.71 183.747 250.55 183.837C249.717 184.304 248.629 184.424 247.542 184.543C246.163 184.695 244.786 184.846 243.93 185.707C243.27 186.377 242.29 186.457 241.17 186.067C240.754 185.919 240.143 185.907 239.607 185.897L239.59 185.897C238.341 185.868 237.25 186.195 236.154 186.523C234.986 186.873 233.813 187.225 232.44 187.147C229.81 186.997 227.56 187.807 225.42 188.607C223.07 189.487 220.78 189.687 218.36 189.067C216.47 188.577 214.65 188.627 212.87 189.407C212.84 189.419 212.808 189.433 212.775 189.447C212.561 189.537 212.288 189.652 212.15 189.617C209.17 188.917 206.47 188.937 204.3 190.747C204.267 190.776 204.09 190.728 203.864 190.667C203.544 190.58 203.126 190.466 202.88 190.507C201.305 190.774 199.775 190.662 198.244 190.55C196.908 190.451 195.57 190.353 194.2 190.507C193.11 190.637 192.29 190.237 191.59 189.647C191.103 189.234 190.434 188.901 189.761 188.566C189.246 188.31 188.728 188.052 188.29 187.757L188.273 187.746C187.724 187.373 187.41 187.16 186.44 187.427C183.879 188.125 181.208 188.156 178.541 188.187C177.615 188.198 176.69 188.208 175.77 188.247C174.11 188.317 173.41 187.747 173.06 186.867C172.89 186.447 172.43 185.797 171.92 185.747C171.451 185.699 171.05 185.539 170.65 185.379C169.96 185.102 169.272 184.827 168.24 185.137C167.012 185.505 166.685 185.078 166.359 184.652C166.136 184.361 165.913 184.07 165.4 184.037C165.306 184.031 165.212 184.025 165.117 184.019C162.449 183.853 159.618 183.676 157.58 185.047C156.571 185.732 155.311 185.942 154.07 186.15C153.208 186.295 152.354 186.438 151.6 186.737C150.553 187.148 150.224 186.783 149.863 186.383L149.84 186.357C148.86 185.257 147.3 185.417 145.61 185.807C145.404 185.856 145.197 185.945 144.988 186.035C144.477 186.253 143.958 186.475 143.44 186.127C142.301 185.353 140.675 185.113 139.046 184.873C137.286 184.613 135.523 184.352 134.37 183.417C133.67 182.857 132.09 183.047 131.27 183.387C130.344 183.771 129.406 183.772 128.487 183.774C127.898 183.775 127.316 183.776 126.75 183.877C126.675 183.891 126.601 183.906 126.528 183.92C125.787 184.067 125.175 184.188 124.82 183.687C124.39 183.067 123.88 182.507 122.55 182.617C120.04 182.827 117.63 182.977 115.39 182.097C114.884 181.897 114.205 182.127 113.566 182.343C112.829 182.592 112.145 182.823 111.84 182.357C111.294 181.524 109.999 181.347 108.729 181.173C107.348 180.984 105.998 180.799 105.68 179.777C105.63 179.637 104.74 179.507 104.25 179.537C101.35 179.717 99.53 179.287 99.32 177.337C99.252 176.676 97.7015 176.818 96.6046 176.918L96.51 176.927C95.3649 177.025 94.5399 177.48 93.7101 177.937C92.685 178.502 91.6525 179.071 90 178.977C87.76 178.847 85.68 179.247 83.69 180.077C82.4 180.617 80.63 180.237 79.69 179.237C78.5 177.977 76.92 177.527 74.34 177.707C71.35 177.917 68.43 177.937 65.4 177.377C62.73 176.877 60.33 176.377 58.44 175.217C57.47 174.617 56.68 174.817 55.64 175.257C54.59 175.707 53.52 175.487 52.67 175.027C50.9 174.067 49.13 173.097 47.41 172.107C47.3674 172.083 47.3248 172.058 47.2823 172.034C45.5885 171.059 43.9509 170.117 41.2 170.117C39.7841 170.127 38.8903 169.479 38.0337 168.859L37.99 168.827C36.56 167.777 34.36 167.357 32.56 167.827C31.6343 168.069 30.7483 168.361 29.8625 168.653C29.0259 168.928 28.1895 169.204 27.32 169.437C24.55 170.177 21.91 170.217 19.81 168.817C19.4336 168.564 18.9801 168.32 18.5261 168.075C17.5087 167.527 16.489 166.977 16.33 166.327C15.88 164.467 14.08 164.447 11.72 164.587C11.3027 164.613 10.8802 164.629 10.457 164.644C8.92319 164.701 7.38024 164.758 6.04 165.307C4.24 166.037 2.06 166.147 0.419998 165.937C0.279684 165.919 0.139689 165.902 0 165.887ZM964.75 191H973.051C972.142 190.912 971.141 190.801 970.01 190.667C968.35 190.477 966.7 190.537 965.12 190.907C964.992 190.937 964.869 190.969 964.75 191ZM980.939 191C982.554 190.798 984.384 190.465 986.82 189.987C988.71 189.617 990.67 189.417 992.43 190.047C993.68 190.487 995.19 190.727 996.33 190.267C998.627 189.321 1001.08 189.252 1003.56 189.181C1003.83 189.174 1004.11 189.166 1004.38 189.157C1005.85 189.107 1007.11 188.777 1008.1 188.137C1009.16 187.447 1010.03 187.377 1011.62 187.657C1011.86 187.701 1012.11 187.747 1012.36 187.794C1014.8 188.254 1017.49 188.759 1019.74 187.017C1019.8 186.971 1020.03 187.016 1020.3 187.069C1020.61 187.13 1020.98 187.201 1021.18 187.147C1022.44 186.784 1023.73 186.925 1025.03 187.068C1026.63 187.242 1028.24 187.418 1029.79 186.657C1029.83 186.636 1030.14 186.825 1030.51 187.047C1031.01 187.354 1031.62 187.724 1031.75 187.677C1033.52 187.013 1034.98 187.303 1036.54 187.614C1036.76 187.659 1036.99 187.704 1037.22 187.747C1038.11 187.917 1039.46 187.707 1040.37 187.407C1041.76 186.937 1042.12 187.257 1042.7 187.887C1044.78 190.179 1102.8 177.665 1126.04 172.651C1130.79 171.627 1134.09 170.916 1135.16 170.707C1151.57 167.526 1167.45 159.201 1183.48 150.8C1205.84 139.081 1228.48 127.211 1253.25 128.947C1256.57 129.177 1259.25 128.217 1261.62 127.047C1263.61 126.057 1265.72 125.247 1268.01 124.627C1269.23 124.294 1270.21 123.784 1271.18 123.271C1272.09 122.798 1272.99 122.322 1274.11 121.977C1276.32 121.297 1277.63 121.337 1279.17 122.227C1279.22 122.255 1279.27 122.284 1279.32 122.314C1279.8 122.598 1280.39 122.943 1281.22 122.617C1282.03 122.302 1282.88 122.041 1283.73 121.78C1285.32 121.294 1286.91 120.806 1288.24 119.967C1291.14 118.137 1295.52 117.297 1298.59 117.617C1305.25 118.297 1305.87 118.237 1312.02 116.377C1312.3 116.292 1312.6 116.236 1312.9 116.18C1313.13 116.137 1313.36 116.094 1313.58 116.037C1314.6 115.771 1315.63 115.513 1316.66 115.255C1320.5 114.29 1324.36 113.324 1327.79 111.927C1330.01 111.027 1331.98 110.387 1334.59 110.267C1338.05 110.117 1342.56 109.037 1345.98 107.657C1346.04 107.634 1346.09 107.61 1346.15 107.587C1346.79 107.326 1347.3 107.117 1348.06 107.457C1349.26 107.977 1350.86 107.967 1351.98 107.547C1355.42 106.247 1358.68 106.377 1362.26 107.007C1364.55 107.417 1367.13 107.407 1369.51 106.567C1370.22 106.317 1371.07 106.107 1371.86 106.077C1372.12 106.071 1372.39 106.052 1372.65 106.033C1372.84 106.019 1373.03 106.006 1373.22 105.997C1373.28 105.945 1373.34 105.896 1373.39 105.848C1373.48 105.774 1373.57 105.701 1373.65 105.617C1375.29 103.907 1377.45 102.517 1381.11 102.007C1383.75 101.647 1386.01 100.727 1387.47 99.0771C1388.17 98.2926 1389.25 97.6521 1390.34 97.0054C1391.66 96.2259 1392.99 95.4374 1393.68 94.3771C1393.84 94.1371 1394.53 93.8371 1394.97 93.8171C1395.89 93.7921 1396.78 93.5173 1397.66 93.2417C1399.26 92.7451 1400.87 92.2455 1402.72 93.1971C1403.16 93.4271 1404.33 93.0971 1404.75 92.5971C1406.17 90.9171 1407.94 89.6471 1411.39 89.1071C1414.15 88.6771 1416.35 87.2871 1416.49 85.5271C1416.62 83.9271 1417.73 82.8571 1419.52 81.6571C1420.36 81.0975 1421.07 80.4754 1421.78 79.8536C1423.25 78.5642 1424.72 77.2757 1427.31 76.5471C1428.65 74.8625 1430.82 73.5573 1433 72.2515C1434.79 71.1776 1436.58 70.1032 1437.91 68.8171C1438.32 68.4271 1438.95 67.8571 1439.53 67.8171C1441.63 67.6652 1442.45 66.8504 1443.34 65.9723C1443.44 65.8678 1443.55 65.7624 1443.66 65.6571C1444.07 65.263 1444.85 64.9825 1445.62 64.7092C1445.85 64.6288 1446.07 64.549 1446.28 64.4671C1449.8 63.0871 1453.63 62.7971 1457.4 63.4571C1460.71 64.0371 1463.61 63.8771 1466.93 62.9871C1467.69 62.785 1468.46 62.5902 1469.22 62.3952C1471 61.9439 1472.77 61.4918 1474.49 60.9471C1475.44 60.6471 1476.6 60.4371 1477.65 60.4271C1478.1 60.4226 1478.58 60.5389 1479.05 60.6504C1479.62 60.7875 1480.16 60.9174 1480.57 60.8071C1480.69 60.7758 1480.81 60.7443 1480.93 60.713C1481.99 60.4336 1483.01 60.1641 1484.16 60.1371C1484.65 59.8334 1485.15 59.5344 1485.64 59.2356C1487.44 58.1566 1489.23 57.0792 1490.57 55.7871C1490.98 55.3971 1491.61 54.8271 1492.19 54.7871C1494.3 54.6346 1495.12 53.8148 1496.01 52.9261C1496.11 52.8237 1496.21 52.7204 1496.32 52.6171C1496.73 52.223 1497.52 51.9424 1498.28 51.6691C1498.51 51.5887 1498.73 51.5089 1498.94 51.4271C1502.46 50.0471 1506.29 49.7571 1510.06 50.4171C1513.37 50.9971 1516.27 50.8371 1519.59 49.9471C1520.35 49.745 1521.12 49.5502 1521.88 49.3553C1523.66 48.9039 1525.43 48.4518 1527.15 47.9071C1528.1 47.6071 1529.26 47.3971 1530.31 47.3871C1530.76 47.3826 1531.24 47.4989 1531.71 47.6104C1532.28 47.7475 1532.82 47.8774 1533.23 47.7671C1533.41 47.7201 1533.58 47.6722 1533.76 47.6246C1534.84 47.3274 1535.88 47.0413 1537.1 47.0671C1539.09 48.6671 1539.16 48.6771 1541.79 47.8571C1543.04 47.4671 1544.69 47.4071 1546.93 47.5871C1547.76 47.6494 1548.63 47.6268 1549.49 47.6044C1549.73 47.598 1549.98 47.5916 1550.22 47.5871C1551.2 47.5671 1551.75 47.8871 1552.03 48.3471C1552.58 49.264 1553.86 49.2516 1555.16 49.2391L1555.39 49.2371C1556.8 49.2171 1558.21 49.1271 1559.12 48.3671C1559.47 48.0748 1559.76 47.7552 1560.04 47.4351C1560.27 47.1746 1560.5 46.9138 1560.77 46.6671C1561.38 46.0971 1562.77 46.0371 1563.57 46.5571C1564 46.8331 1564.38 47.1306 1564.76 47.4282C1565.02 47.6266 1565.27 47.8251 1565.54 48.0171C1566.93 48.9971 1569.09 49.1071 1570.25 47.9971C1571.35 46.9471 1572.08 46.5371 1574.03 47.1271C1574.23 47.1879 1574.44 47.2521 1574.65 47.3175C1576.15 47.7793 1577.84 48.3023 1579.23 48.1271C1579.42 48.1026 1579.61 48.0773 1579.79 48.0525C1581.17 47.8649 1582.33 47.7077 1583.63 48.1671C1585.32 48.7671 1587.08 48.5371 1588.93 48.1271C1589.72 47.9571 1590.32 48.3271 1590.54 48.8171C1590.95 48.8294 1591.38 48.8275 1591.8 48.8257C1592.76 48.8216 1593.71 48.8175 1594.56 48.9771C1596.51 49.3487 1598.39 49.8297 1600.27 50.3109C1600.87 50.4641 1601.47 50.6174 1602.07 50.7671C1602.63 50.9076 1603.23 51.0197 1603.82 51.1317C1605.71 51.4901 1607.59 51.8471 1608.55 53.1271C1609.12 53.8771 1610.77 53.9271 1612.2 53.8871C1614.41 53.8171 1616.52 53.7571 1618.56 54.4571C1620.56 55.1371 1622.6 55.7671 1625.34 54.5971C1625.95 54.3388 1626.73 54.4952 1627.58 54.6659C1628.77 54.9051 1630.1 55.1723 1631.3 54.3671C1632.57 54.6345 1633.85 54.8895 1635.13 55.1445C1638.15 55.7478 1641.18 56.3509 1644.06 57.1171C1648.96 58.4171 1651.87 59.0571 1656.3 58.9771C1658.28 58.9371 1660.12 58.9971 1661.86 59.5771C1662.46 59.7771 1663.72 59.7771 1664.23 59.5371C1665.82 58.7846 1667.71 58.6425 1669.6 58.501C1671.6 58.3511 1673.58 58.2018 1675.2 57.3271C1675.98 57.2978 1676.77 57.2371 1677.56 57.1763C1678.66 57.0917 1679.76 57.0071 1680.84 57.0071C1681.02 56.8371 1681.17 56.6571 1681.27 56.4471C1682.15 54.701 1684.14 53.3763 1686.12 52.0545C1687.07 51.4233 1688.02 50.7926 1688.84 50.1171C1690.27 48.9471 1692.72 48.9371 1693.6 50.1171C1694.62 51.4871 1696.13 52.5771 1698.06 53.4171C1699.43 54.0171 1700.63 54.6971 1701.77 55.4171C1702.24 55.2728 1702.7 55.1118 1703.16 54.9504C1704.81 54.3738 1706.47 53.793 1708.53 53.9571C1709.55 53.653 1710.62 53.4209 1711.7 53.1887C1714.24 52.6421 1716.78 52.0951 1718.53 50.6071C1719.5 49.7852 1720.94 49.182 1722.37 48.5766C1722.56 48.497 1722.75 48.4173 1722.94 48.3371C1723.26 48.2003 1723.75 48.1188 1724.26 48.0335C1725.57 47.8132 1727.03 47.5672 1726.28 46.2771C1726.9 45.3776 1728.02 45.3992 1729.14 45.4208C1729.86 45.4346 1730.57 45.4483 1731.15 45.2271C1732.36 44.7771 1733.49 44.2771 1733.92 43.4271C1734.79 41.6811 1736.78 40.3565 1738.77 39.0348C1739.72 38.4034 1740.67 37.7727 1741.49 37.0971C1742.92 35.9271 1745.37 35.9171 1746.25 37.0971C1747.27 38.4671 1748.78 39.5471 1750.71 40.3971C1754.35 41.9728 1757 44.0753 1759.62 46.1609L1759.79 46.2971C1759.9 46.3868 1760.01 46.4758 1760.12 46.5633C1761.11 47.3731 1761.94 48.0591 1764.02 48.0771C1764.95 48.0871 1766.16 48.5671 1766.62 49.0471C1767.66 50.1372 1769.34 50.7735 1771.03 51.4081C1772.25 51.8679 1773.46 52.3269 1774.43 52.9571C1774.75 53.1671 1775.39 53.2971 1775.9 53.2871C1776.4 53.278 1776.9 53.2768 1777.4 53.2757C1779.65 53.2705 1781.89 53.2653 1784.03 52.5371C1784.73 52.299 1785.45 52.0811 1786.18 51.8633C1787.21 51.5507 1788.25 51.2385 1789.22 50.8671C1790.74 50.2871 1791.93 50.1871 1793.74 50.5171C1795.71 50.8771 1798.15 50.8371 1800.22 50.1371C1801.49 49.7003 1802.68 49.9079 1803.86 50.1151C1804.97 50.3112 1806.09 50.5071 1807.28 50.1571L1807.63 50.0522C1809 49.643 1810.41 49.2213 1811.86 49.0371C1819.72 48.0371 1821.82 47.4871 1829.24 44.1271C1829.29 44.1028 1829.34 44.0791 1829.39 44.0564C1829.8 43.8548 1830.06 43.7294 1830.63 43.9271C1831.08 44.0871 1831.6 44.2171 1832.13 44.2571C1834.51 44.4471 1835.07 44.1371 1835.81 42.4071C1835.84 42.3334 1835.86 42.2368 1835.87 42.1348C1835.94 41.738 1836.02 41.2598 1837.01 41.7371C1839.27 42.8271 1841.42 43.5271 1844.4 42.3671C1844.69 42.2471 1845.63 42.3671 1845.79 42.5371C1846.35 43.1505 1847.42 43.1894 1848.5 43.2289C1849.73 43.2737 1850.98 43.3191 1851.52 44.2071C1851.86 44.7571 1853.68 44.6671 1854.54 44.3171C1857.39 43.1571 1859.2 44.1071 1860.52 45.2071C1861.56 46.0671 1862.34 46.2071 1863.74 45.6071C1864.52 45.2771 1865.2 45.2871 1865.88 45.6471C1866.03 45.7221 1866.17 45.8013 1866.32 45.8813C1867.2 46.3561 1868.13 46.8612 1869.36 46.7071C1870.95 46.5172 1872.52 46.6767 1874.09 46.8366C1876.41 47.0724 1878.73 47.3091 1881.16 46.4271C1882.44 45.9571 1884.38 46.0171 1885.78 46.7871C1886.95 47.4371 1888.28 48.0371 1890.07 47.9971C1891.6 47.9616 1892.1 48.5442 1892.6 49.1237C1892.94 49.525 1893.29 49.9248 1893.97 50.1171C1894.14 50.167 1894.31 50.2409 1894.48 50.3142C1894.78 50.4465 1895.08 50.5764 1895.37 50.5571C1898.23 50.3743 1899.91 51.3159 1901.6 52.2623C1902.04 52.5067 1902.47 52.7514 1902.93 52.9771C1903.32 53.1666 1903.7 53.3832 1904.08 53.6011C1905.12 54.1883 1906.18 54.785 1907.38 54.8871C1909.41 55.0504 1910.75 55.6542 1912.13 56.2695C1912.61 56.4833 1913.09 56.6985 1913.6 56.8971C1916.01 57.8302 1917.66 59.1263 1919.32 60.4223C1919.54 60.6003 1919.77 60.7783 1920 60.9553V191H980.939Z" fill="white"></path></g></svg>