<svg xmlns="http://www.w3.org/2000/svg" width="100%" viewBox="0 0 1917 177" fill="none" class="divisor_evsus"><g clip-path="url(#clip0_2026_471)"><path d="M1986.2 0.630005L1988.16 49.46C1987.95 49.42 1987.76 49.4 1987.62 49.43C1985.87 49.92 1984.08 49.57 1982.32 49.75C1978.41 50.15 1974.51 50.92 1970.36 50.26C1968.73 50 1966.54 50.05 1964.72 50.74C1962.99 51.39 1960.95 51.24 1959.02 51.3C1956.66 51.38 1954.85 51.3 1954.46 49.43C1954.26 48.49 1952.25 47.7 1951.05 46.84C1948.99 45.38 1946.35 45.35 1943.56 46.01C1941.76 46.43 1940.09 47.05 1938.28 47.47C1937.1 47.74 1935.78 47.6 1934.6 47.19L1935.15 60.98C1934.94 60.94 1934.75 60.92 1934.62 60.96C1932.87 61.45 1931.08 61.1 1929.32 61.28C1925.41 61.68 1921.5 62.45 1917.36 61.79C1915.72 61.53 1913.54 61.58 1911.72 62.26C1909.99 62.91 1907.95 62.76 1906.02 62.82C1903.66 62.9 1901.86 62.82 1901.46 60.96C1901.26 60.02 1899.25 59.23 1898.05 58.37C1895.99 56.91 1893.35 56.88 1890.56 57.54C1888.76 57.96 1887.09 58.58 1885.28 59C1883.47 59.42 1881.28 58.93 1879.88 57.85C1879.03 57.19 1878.14 56.5 1876.71 56.47C1873.89 56.4 1872.27 55.36 1870.56 54.31C1868.87 53.27 1867.13 52.25 1865.38 51.24C1864.55 50.76 1863.48 50.51 1862.42 50.92C1861.37 51.33 1860.58 51.51 1859.62 50.88C1857.77 49.67 1855.38 49.1 1852.72 48.53C1849.7 47.89 1846.79 47.82 1843.79 47.94C1841.21 48.05 1839.64 47.55 1838.48 46.26C1837.57 45.23 1835.81 44.8 1834.51 45.31C1832.5 46.09 1830.41 46.42 1828.17 46.23C1825.19 45.98 1824.17 47.95 1821.6 48.1C1820.49 48.17 1818.86 48.29 1818.8 47.61C1818.65 45.65 1816.84 45.17 1813.93 45.28C1813.44 45.3 1812.55 45.14 1812.51 45C1811.96 43.02 1807.52 44.02 1806.42 42.24C1805.87 41.36 1803.94 42.86 1802.86 42.4C1800.65 41.45 1798.23 41.54 1795.71 41.67C1794.38 41.74 1793.89 41.17 1793.47 40.54C1793.09 39.98 1792.39 40.16 1791.55 40.29C1790.09 40.51 1788.56 40.06 1787.02 40.65C1786.2 40.97 1784.61 41.12 1783.93 40.53C1781.76 38.67 1777.26 39.24 1774.94 37.56C1774.23 37.05 1773.48 37.67 1772.76 37.82C1771.06 38.16 1769.5 38.28 1768.54 37.15C1768.19 36.73 1767.87 36.33 1766.79 36.72C1764.93 37.39 1762.5 37.13 1760.76 38.24C1758.61 39.6 1755.66 39.28 1752.91 39.03C1751.66 38.91 1752.19 37.29 1750.1 37.85C1748.45 38.29 1747.71 37.31 1746.43 37.14C1745.92 37.07 1745.48 36.42 1745.33 35.99C1745.01 35.1 1744.33 34.51 1742.66 34.53C1739.08 34.58 1735.45 34.2 1731.97 35.05C1730.98 35.29 1730.68 35.06 1730.13 34.67C1729.14 33.97 1727.72 33.44 1726.89 32.69C1726.21 32.08 1725.4 31.66 1724.31 31.75C1721.36 32 1718.59 31.09 1715.64 31.51C1715.21 31.57 1714.31 31.16 1714.23 31.23C1712.01 32.98 1709.31 32.92 1706.35 32.13C1706.19 32.09 1705.85 32.23 1705.63 32.32C1703.83 33.05 1702.01 33.04 1700.13 32.5C1697.73 31.81 1695.43 31.95 1693.06 32.76C1690.9 33.5 1688.63 34.24 1686 34.02C1683.35 33.8 1681.39 35.2 1678.82 35.07C1678.28 35.04 1677.67 35.02 1677.24 34.86C1676.13 34.44 1675.15 34.49 1674.47 35.15C1672.9 36.65 1669.72 35.83 1667.79 36.83C1667.63 36.91 1666.84 36.68 1666.47 36.51C1665.62 36.11 1664.82 35.67 1664.05 35.21C1661.14 33.48 1656.95 33.79 1653.42 33.06C1651.58 32.68 1650.11 33.34 1648.96 33.84C1647.01 34.68 1645.9 33.4 1644.39 33.6C1642.8 33.8 1641.25 34.15 1639.66 34.4C1639.46 34.43 1639.14 34.31 1638.95 34.21C1637.34 33.41 1635.75 32.31 1634.2 34.32C1634.12 34.43 1633.76 34.49 1633.51 34.54C1631.41 34.98 1629.38 33.57 1627.24 34.54C1627.07 34.62 1626.64 34.61 1626.43 34.54C1625.5 34.23 1624.55 33.91 1623.7 33.53C1621.96 32.76 1620.21 32.68 1618.36 33.43C1618.13 33.52 1617.89 33.62 1617.7 33.74C1616 34.83 1614.14 35.28 1611.81 34.46C1611.43 34.32 1610.74 34.24 1610.38 34.34C1606.93 35.38 1603.3 34.95 1599.73 35C1598.07 35.03 1596.11 34.79 1594.82 35.22C1591.11 36.46 1587.17 35.81 1583.41 36.23C1581.24 36.47 1579.87 35.29 1577.99 35.39C1575.85 35.51 1573.76 36.02 1571.62 36.2C1570.6 36.29 1569.29 36.18 1568.49 35.86C1566.6 35.1 1565.43 35.74 1564.17 36.41C1562.87 37.1 1561.73 37.48 1559.78 36.96C1556.35 36.05 1552.95 36.11 1549.88 37.87C1548.77 38.51 1547.03 39.01 1545.52 39.09C1544.45 39.14 1543.55 38.77 1543.14 39.68C1542.95 40.12 1542.31 40.24 1542.15 39.97C1541.81 39.37 1541.4 39.07 1540.95 38.92C1540.7 38.96 1540.48 38.98 1540.3 38.93C1540.1 38.88 1539.92 38.86 1539.73 38.83C1538.93 38.93 1538.03 39.24 1537.05 39.43C1536.84 39.47 1536.62 39.52 1536.4 39.56C1536.04 39.73 1535.66 39.81 1535.27 39.78C1534.32 39.96 1533.33 40.07 1532.31 40.1C1528.51 41.6 1524.04 42.63 1521.81 45.27C1521.35 45.81 1520.19 46.16 1519.39 46.62C1518.37 47.21 1517.68 47.87 1517.41 48.72C1516.37 52.01 1512.44 54.12 1508 55.9C1506.33 56.57 1504.9 57.18 1503.97 58.26C1502.7 59.75 1500.45 60.24 1497.7 60.11C1496.33 60.04 1494.88 60.25 1493.55 60.11C1490.78 59.8 1488.84 60.91 1486.54 61.38C1485.58 63.26 1482.89 62.97 1480.46 63.18C1478.87 63.31 1477.35 63.81 1475.79 64.14C1474.79 64.35 1473.6 64.86 1472.82 64.71C1468.92 63.95 1466.34 65.15 1464.43 66.78C1463.34 67.71 1462.39 68.14 1460.52 68.18C1458.36 68.22 1456.11 67.92 1454.09 68.8C1452.95 69.3 1451.75 69.73 1450.54 70.16C1449.5 71.08 1448.02 71.54 1446.21 71.63C1442.6 72.79 1439 73.95 1435.89 75.58C1434.76 76.17 1434.01 75.71 1433.01 75.54C1432.37 75.43 1431.19 75.58 1430.77 75.87C1427.88 77.81 1423.75 78.37 1420.05 79.42C1418.24 79.94 1416.53 80.41 1414.55 80.35C1412.13 80.28 1410.28 80.87 1408.67 81.89C1407.8 82.45 1406.69 82.41 1405.7 81.99C1404.61 81.52 1403.6 80.98 1402.5 80.52C1402.21 80.4 1401.89 80.3 1401.59 80.19C1401.42 80.25 1401.24 80.27 1401.08 80.34C1395.31 82.87 1388.31 84.26 1382.89 87.11C1381.76 87.7 1381.01 87.25 1380.01 87.07C1379.37 86.95 1378.19 87.11 1377.77 87.39C1374.88 89.34 1370.76 89.88 1367.05 90.94C1365.24 91.46 1363.53 91.93 1361.55 91.87C1359.13 91.8 1357.28 92.39 1355.67 93.42C1354.8 93.97 1353.69 93.94 1352.7 93.52C1351.61 93.05 1350.6 92.51 1349.5 92.05C1348.41 91.59 1347.1 91.26 1346.14 90.73C1344.9 90.04 1343.74 91.1 1342.41 90.63C1339.48 89.59 1339.39 89.65 1337.61 90.14C1335.78 90.64 1335.26 90.67 1332.75 89.85C1331.56 89.46 1330.63 90.17 1329.79 89.92C1328.59 89.56 1327.67 88.87 1326.45 88.56C1325.51 88.32 1323.97 88.15 1323.24 88.43C1320.42 89.52 1317.73 88.72 1315.49 88.2C1312.57 87.51 1310.33 87.38 1307.86 88.64C1307.07 89.04 1305.95 89.47 1304.99 89.48C1301.16 89.51 1297.23 90.05 1293.56 88.97C1292.03 88.52 1290.05 88.44 1288.73 88.93C1285 90.32 1281.27 89.94 1277.57 89.37C1276.36 89.18 1274.12 90.21 1273.9 88.56C1270.91 87.47 1267.93 86.37 1264.94 85.28C1261.75 85.46 1259.92 84.24 1258.03 83.08C1257.23 82.59 1256.26 82.36 1255.1 82.35C1254.55 82.35 1253.97 82.37 1253.44 82.28C1251.09 81.92 1248.34 81.85 1246.51 81.07C1244.15 80.06 1241.62 81.98 1239.67 80.66C1237.97 80.69 1236.4 80.03 1235 80.04C1233.74 80.06 1232.48 81.2 1231.19 81.82C1230.82 81.99 1229.93 82.18 1229.92 82.17C1227.26 79.21 1225.93 83.23 1223.75 82.65C1223.53 82.59 1223.2 82.68 1222.93 82.67C1221.34 82.6 1219.49 82.83 1219.05 81.48C1218.91 81.06 1218.34 80.98 1217.82 81.24C1216.12 82.1 1214.27 82.61 1212.01 82.98C1210.11 83.29 1209.05 83.37 1207.82 82.56C1207.51 82.36 1206.7 82.12 1206.49 82.21C1204.41 83.07 1201.62 82.75 1199.63 83.89C1198.16 84.73 1197.06 84.61 1196.6 83.75C1195.72 82.1 1193.44 81.19 1191.62 80.03C1190.27 79.17 1189.42 79.47 1188.89 80.49C1188.81 80.63 1188.57 80.75 1188.41 80.88C1186.29 79.61 1182.87 80.75 1180.7 79.56C1178.91 78.58 1177.24 77.51 1174.89 76.97C1173.28 74.55 1170.52 73.92 1166.47 75.21C1166.33 75.25 1165.97 75.09 1165.75 75.01C1163.46 74.14 1161.54 74.59 1159.85 75.67C1158.29 76.66 1156.2 76.68 1154.41 76.41C1151.82 76.03 1148.82 75.68 1147.76 73.97C1146.79 72.39 1143.36 72.66 1142.29 71.26C1140.24 71.17 1138.74 71.98 1137.17 72.52C1134.55 73.42 1131.92 71.83 1129.35 72.77C1129.13 72.85 1128.25 72.59 1128.08 72.38C1127.53 71.67 1127.34 70.84 1126.66 70.18C1125.97 69.51 1124.96 68.92 1123.95 68.39C1122.52 67.65 1124.31 66.63 1123.15 65.78C1122.32 65.17 1121.89 64.45 1120.44 64.15C1116.86 63.41 1116.21 60.92 1113.1 59.88C1113.25 57.42 1109.86 56.79 1106.98 55.93C1106.55 55.8 1105.58 55.76 1105.43 55.89C1103.64 57.48 1101.37 55.89 1099.57 56.32C1098.24 56.63 1097.6 56.21 1096.64 56.02C1095.14 55.72 1094.19 56.67 1092.85 56.73C1092.37 56.75 1091.75 56.63 1091.39 56.45C1090.24 55.87 1088.91 55.88 1087.5 55.88C1086.71 55.88 1085.55 55.86 1085.21 55.57C1082.52 53.34 1077.96 52.9 1074.22 51.69C1072.05 50.99 1069.92 50.4 1069.06 48.84C1068.54 47.89 1066.78 47.62 1065.22 47.23C1063.81 46.88 1062.19 46.63 1061.24 45.71C1058.71 43.27 1055.7 41 1053.45 38.48C1052.35 37.25 1051.03 36.91 1049.01 36.91C1047.87 36.91 1046.93 36.75 1045.97 36.35C1041.78 34.64 1037.92 32.58 1032.52 32.1C1031.78 32.03 1031.1 31.63 1030.5 31.32C1028.89 30.47 1027.53 29.44 1025.32 29.05C1024.3 27.17 1021.49 27.5 1019.13 27.58C1017.56 27.63 1016.03 28.18 1014.45 28.44C1013.38 28.61 1012.25 28.68 1011.39 28.15C1010.26 27.44 1008.9 26.96 1007.43 26.49C1006.12 26.07 1005.74 25.07 1004 24.62C999.82 23.52 995.9 22.11 992.54 20.21C990.59 19.11 988.05 18.38 985.2 18.29C983.5 18.23 982.04 18.03 980.58 17.47C979.27 16.96 977.62 16.56 976.05 16.5C974.18 16.42 973 15.95 971.83 15.24C970.32 14.31 968.73 13.43 967.16 12.54C962.73 10.03 962.7 10.1 956.71 9.31C955.43 9.14 954.75 9.42 953.78 9.62C952.19 9.95 950.54 9.96 948.89 9.72C941.38 8.62 939.64 8.66 932.06 9.92C930.16 10.24 928.2 10.38 926.46 9.7C925.23 9.22 923.72 8.94 922.57 9.37C919.99 10.35 917.25 10.24 914.49 10.25C913.02 10.25 911.75 10.56 910.74 11.17C909.66 11.83 908.78 11.88 907.2 11.55C904.59 11 901.6 10.11 899.06 11.96C898.93 12.06 898 11.7 897.62 11.79C894.8 12.52 891.85 10.73 889 12.03C888.9 12.08 887.29 10.88 887.07 10.96C885.03 11.66 883.42 11.12 881.6 10.73C880.71 10.54 879.36 10.7 878.45 10.98C877.05 11.41 876.7 11.08 876.13 10.43C873.7 7.59999 789.6 23.93 783.22 24.98C743.71 31.48 706.42 67.56 663.99 63.37C660.68 63.04 657.97 63.93 655.56 65.04C653.55 65.97 651.41 66.72 649.11 67.28C646.74 67.86 645.29 69.11 642.93 69.76C640.7 70.38 639.4 70.3 637.88 69.37C637.38 69.07 636.77 68.59 635.84 68.93C633.51 69.77 630.82 70.15 628.75 71.38C625.8 73.12 621.39 73.84 618.33 73.44C611.69 72.57 611.07 72.61 604.87 74.3C604.38 74.44 603.81 74.48 603.3 74.6C598.44 75.72 593.37 76.66 588.97 78.3C586.72 79.14 584.74 79.72 582.13 79.76C578.67 79.82 574.13 80.77 570.67 82.04C569.95 82.31 569.41 82.58 568.58 82.19C567.4 81.64 565.8 81.6 564.67 81.99C561.19 83.2 557.94 82.97 554.38 82.24C552.1 81.77 549.52 81.71 547.12 82.47C546.41 82.7 545.55 82.89 544.76 82.89C544.3 82.89 543.85 82.92 543.39 82.93C543.25 83.06 543.09 83.16 542.95 83.3C541.26 84.96 539.07 86.29 535.39 86.7C532.75 86.99 530.46 87.84 528.94 89.45C527.35 91.14 523.92 92.07 522.6 93.97C522.43 94.21 521.74 94.49 521.3 94.49C518.72 94.49 516.37 96.45 513.53 94.89C513.1 94.65 511.92 94.94 511.48 95.43C510.01 97.07 508.2 98.29 504.74 98.73C501.97 99.08 499.73 100.4 499.54 102.16C499.37 103.75 498.22 104.8 496.4 105.94C493.78 107.58 492.33 109.85 488.46 110.82C485.93 113.82 480.66 115.48 477.64 118.25C477.22 118.63 476.57 119.18 475.99 119.21C473.64 119.31 472.86 120.29 471.8 121.25C471.25 121.75 470.08 122.03 469.15 122.37C465.59 123.65 461.76 123.83 458 123.06C454.71 122.39 451.81 122.46 448.46 123.26C445.93 123.86 443.32 124.37 440.84 125.09C439.88 125.37 438.72 125.54 437.66 125.52C436.67 125.5 435.5 124.88 434.76 125.05C433.56 125.33 432.44 125.63 431.15 125.62C428.86 126.95 426.37 128.19 424.62 129.79C424.2 130.17 423.55 130.72 422.97 130.75C420.62 130.85 419.84 131.83 418.78 132.8C418.23 133.3 417.06 133.58 416.13 133.91C412.57 135.18 408.74 135.37 404.98 134.6C401.68 133.93 398.78 134 395.44 134.8C392.91 135.4 390.3 135.91 387.83 136.63C386.87 136.91 385.71 137.08 384.65 137.06C383.65 137.05 382.49 136.42 381.75 136.59C380.46 136.89 379.27 137.25 377.86 137.18C375.91 135.52 375.85 135.51 373.19 136.26C371.93 136.61 370.28 136.63 368.04 136.39C366.97 136.28 365.85 136.31 364.75 136.3C363.77 136.3 363.23 135.96 362.97 135.49C362.42 134.5 361.02 134.53 359.64 134.5C358.23 134.48 356.82 134.53 355.88 135.27C355.23 135.78 354.8 136.39 354.19 136.92C353.56 137.47 352.18 137.49 351.39 136.95C350.69 136.47 350.12 135.93 349.46 135.43C348.1 134.41 345.94 134.24 344.75 135.32C343.62 136.34 342.87 136.73 340.94 136.09C339.32 135.55 337.37 134.79 335.77 134.95C334.12 135.11 332.83 135.34 331.38 134.78C329.7 134.13 327.94 134.31 326.08 134.67C325.29 134.82 324.7 134.43 324.49 133.94C323.14 133.86 321.69 133.94 320.47 133.66C317.91 133.09 315.48 132.34 313.01 131.66C310.66 131 307.81 130.83 306.6 129.12C306.05 128.35 304.4 128.25 302.97 128.26C300.76 128.27 298.65 128.26 296.63 127.51C294.65 126.77 292.63 126.09 289.85 127.17C288.37 127.75 285.98 125.91 283.88 127.23C279.64 126.2 275.27 125.33 271.2 124.12C266.34 122.68 263.44 121.96 259.02 121.91C257.04 121.89 255.21 121.78 253.48 121.15C252.89 120.93 251.62 120.9 251.11 121.12C247.79 122.58 243.27 121.41 240.08 123.02C238.21 123.04 236.29 123.23 234.43 123.18C234.25 123.34 234.09 123.52 233.98 123.73C232.61 126.28 228.84 127.82 226.23 129.85C224.77 130.98 222.31 130.92 221.47 129.72C220.49 128.32 219.02 127.19 217.11 126.3C215.75 125.66 214.57 124.95 213.45 124.2C211.29 124.8 209.29 125.75 206.66 125.47C203.22 126.4 199.12 126.49 196.57 128.53C195.44 129.43 193.73 130.03 192.1 130.68C190.93 131.14 187.72 130.83 188.7 132.64C187.65 134.08 185.32 133.03 183.8 133.55C182.58 133.97 181.43 134.43 180.98 135.27C179.61 137.82 175.84 139.36 173.23 141.39C171.77 142.52 169.32 142.46 168.47 141.26C167.49 139.86 166.01 138.73 164.11 137.84C160.44 136.12 157.82 133.89 155.2 131.68C154.08 130.73 153.32 129.87 151.03 129.78C150.1 129.74 148.9 129.23 148.46 128.73C146.72 126.8 143.02 126.17 140.77 124.6C140.46 124.39 139.81 124.23 139.31 124.23C136.57 124.2 133.8 123.93 131.16 124.75C129.44 125.28 127.59 125.69 125.92 126.27C124.38 126.8 123.19 126.87 121.4 126.49C119.44 126.07 117 126.05 114.91 126.69C112.4 127.47 110.32 125.82 107.85 126.47C106.36 126.87 104.82 127.31 103.24 127.46C95.3604 128.24 93.2404 128.73 85.7304 131.88C85.2104 132.1 84.9604 132.28 84.3404 132.04C83.8904 131.87 83.3704 131.72 82.8504 131.66C80.4804 131.41 79.9104 131.7 79.1204 133.41C78.9604 133.76 79.1204 134.68 77.9004 134.05C75.6804 132.89 73.5404 132.13 70.5304 133.21C70.2304 133.32 69.3004 133.17 69.1504 133C67.9904 131.65 64.4404 132.86 63.4604 131.17C63.1404 130.61 61.3104 130.65 60.4504 130.97C57.5704 132.05 55.7804 131.05 54.4904 129.92C53.4804 129.03 52.7004 128.87 51.2804 129.43C50.4904 129.74 49.8104 129.7 49.1404 129.33C48.1504 128.78 47.1404 128.04 45.6904 128.17C41.7404 128.53 38.0004 126.75 33.8904 128.12C32.6004 128.55 30.6604 128.44 29.2904 127.63C28.1404 126.95 26.8204 126.31 25.0304 126.3C22.4404 126.29 22.8504 124.59 21.2004 124.07C20.7204 123.92 20.2604 123.58 19.8104 123.59C16.2104 123.72 14.5204 122.12 12.3204 120.96C10.9104 120.22 9.57043 119.11 7.92043 118.93C5.20043 118.63 3.73042 117.57 1.76042 116.74C-1.68958 115.29 -3.52958 113.13 -6.08958 111.29C-7.86958 110.01 -7.77958 109.96 -10.7996 110.12C-12.3196 110.2 -13.3796 109.98 -14.0596 109.09C-14.5496 108.44 -15.6496 108.29 -16.7896 108.75C-17.2496 108.93 -17.6396 109.17 -18.0996 109.36C-21.2496 110.66 -22.8696 110.61 -25.2596 109.14C-25.6396 108.91 -26.1996 108.71 -26.3496 108.43C-27.1196 106.98 -28.7096 106.43 -31.3396 106.6C-32.9896 106.71 -34.5896 106.42 -36.1396 106.01C-37.0596 105.77 -38.6296 105.58 -39.2596 105.86C-41.1296 106.7 -42.0396 105.97 -43.4896 105.52C-46.5896 104.57 -49.8896 103.82 -53.1896 103.05L-54.8196 192.37L1989.04 229.72L1993.24 0C1991.46 0.49 1989.64 0.760001 1987.69 0.610001C1987.11 0.570001 1986.65 0.659996 1986.18 0.729996" fill="#00D989"></path><path d="M1969.64 27.4202L1971.11 76.2702C1970.9 76.2302 1970.71 76.2102 1970.57 76.2402C1968.82 76.7102 1967.03 76.3502 1965.26 76.5102C1961.35 76.8702 1957.43 77.5902 1953.29 76.8902C1951.66 76.6102 1949.48 76.6402 1947.65 77.3102C1945.92 77.9402 1943.88 77.7702 1941.95 77.8102C1939.59 77.8602 1937.79 77.7702 1937.41 75.9002C1937.22 74.9602 1935.22 74.1402 1934.03 73.2802C1931.99 71.8002 1929.35 71.7402 1926.55 72.3702C1924.74 72.7802 1923.07 73.3802 1921.26 73.7802C1920.08 74.0402 1918.76 73.8902 1917.58 73.4602L1917.99 87.2602C1917.78 87.2202 1917.59 87.1902 1917.45 87.2302C1915.7 87.7002 1913.91 87.3302 1912.14 87.5002C1908.23 87.8602 1904.31 88.5901 1900.18 87.8901C1898.55 87.6101 1896.36 87.6402 1894.54 88.3102C1892.81 88.9402 1890.77 88.7702 1888.84 88.8102C1886.48 88.8602 1884.67 88.7702 1884.3 86.9002C1884.11 85.9502 1882.11 85.1402 1880.92 84.2802C1878.88 82.8002 1876.24 82.7402 1873.44 83.3702C1871.63 83.7802 1869.95 84.3802 1868.15 84.7802C1866.34 85.1802 1864.15 84.6702 1862.76 83.5702C1861.92 82.9102 1861.04 82.2102 1859.6 82.1502C1856.78 82.0502 1855.17 80.9902 1853.47 79.9302C1851.79 78.8702 1850.06 77.8402 1848.32 76.8102C1847.49 76.3202 1846.43 76.0602 1845.36 76.4602C1844.3 76.8602 1843.51 77.0302 1842.56 76.3902C1840.72 75.1602 1838.34 74.5602 1835.69 73.9702C1832.68 73.3002 1829.77 73.2002 1826.77 73.2902C1824.19 73.3702 1822.62 72.8602 1821.48 71.5502C1820.58 70.5102 1818.82 70.0602 1817.52 70.5502C1815.5 71.3102 1813.41 71.6202 1811.17 71.4102C1808.19 71.1302 1807.15 73.0902 1804.59 73.2102C1803.48 73.2602 1801.85 73.3702 1801.8 72.6902C1801.67 70.7302 1799.87 70.2302 1796.96 70.3102C1796.47 70.3202 1795.58 70.1602 1795.54 70.0102C1795.01 68.0202 1790.56 68.9702 1789.48 67.1902C1788.94 66.3002 1787 67.7902 1785.92 67.3102C1783.72 66.3402 1781.3 66.4102 1778.78 66.5102C1777.45 66.5702 1776.96 65.9902 1776.55 65.3602C1776.18 64.8002 1775.47 64.9702 1774.63 65.0902C1773.17 65.3002 1771.64 64.8302 1770.1 65.4102C1769.27 65.7202 1767.68 65.8502 1767.01 65.2602C1764.86 63.3702 1760.35 63.9002 1758.05 62.2002C1757.34 61.6802 1756.59 62.2902 1755.87 62.4302C1754.17 62.7602 1752.6 62.8502 1751.66 61.7202C1751.31 61.3002 1751 60.8902 1749.91 61.2702C1748.04 61.9302 1745.62 61.6402 1743.87 62.7302C1741.71 64.0702 1738.76 63.7202 1736.01 63.4402C1734.76 63.3102 1735.3 61.7002 1733.21 62.2302C1731.56 62.6502 1730.83 61.6602 1729.55 61.4802C1729.04 61.4102 1728.61 60.7502 1728.46 60.3202C1728.15 59.4302 1727.47 58.8302 1725.8 58.8402C1722.23 58.8402 1718.59 58.4402 1715.11 59.2502C1714.12 59.4802 1713.82 59.2502 1713.27 58.8502C1712.29 58.1402 1710.88 57.6002 1710.05 56.8402C1709.37 56.2202 1708.57 55.8002 1707.48 55.8802C1704.53 56.1002 1701.77 55.1602 1698.81 55.5502C1698.38 55.6002 1697.48 55.1902 1697.4 55.2502C1695.16 56.9802 1692.46 56.8902 1689.51 56.0702C1689.36 56.0302 1689.01 56.1702 1688.78 56.2502C1686.97 56.9602 1685.16 56.9402 1683.28 56.3802C1680.89 55.6602 1678.59 55.7802 1676.21 56.5702C1674.04 57.2902 1671.76 58.0102 1669.14 57.7602C1666.49 57.5102 1664.52 58.8902 1661.95 58.7402C1661.41 58.7102 1660.79 58.6802 1660.37 58.5102C1659.27 58.0802 1658.29 58.1202 1657.6 58.7702C1656.01 60.2502 1652.84 59.4002 1650.91 60.3802C1650.75 60.4602 1649.96 60.2202 1649.59 60.0402C1648.74 59.6302 1647.95 59.1802 1647.19 58.7202C1644.3 56.9602 1640.11 57.2302 1636.59 56.4602C1634.76 56.0602 1633.27 56.7102 1632.12 57.2002C1630.17 58.0202 1629.06 56.7302 1627.55 56.9102C1625.95 57.1002 1624.4 57.4302 1622.82 57.6602C1622.62 57.6902 1622.3 57.5602 1622.11 57.4602C1620.51 56.6402 1618.93 55.5302 1617.36 57.5202C1617.27 57.6302 1616.91 57.6802 1616.66 57.7302C1614.56 58.1502 1612.54 56.7202 1610.39 57.6702C1610.22 57.7502 1609.79 57.7302 1609.58 57.6602C1608.65 57.3402 1607.71 57.0102 1606.86 56.6302C1605.13 55.8402 1603.38 55.7502 1601.52 56.4802C1601.29 56.5702 1601.05 56.6602 1600.86 56.7802C1599.15 57.8502 1597.28 58.2902 1594.96 57.4402C1594.58 57.3002 1593.89 57.2002 1593.53 57.3102C1590.07 58.3202 1586.44 57.8402 1582.87 57.8702C1581.21 57.8802 1579.25 57.6202 1577.95 58.0402C1574.23 59.2502 1570.3 58.5502 1566.53 58.9302C1564.35 59.1502 1563 57.9502 1561.11 58.0402C1558.97 58.1402 1556.88 58.6302 1554.73 58.7902C1553.71 58.8702 1552.4 58.7502 1551.6 58.4102C1549.72 57.6302 1548.54 58.2602 1547.27 58.9202C1545.96 59.6002 1544.82 59.9602 1542.88 59.4202C1539.46 58.4802 1536.06 58.5002 1532.97 60.2302C1531.86 60.8602 1530.11 61.3402 1528.59 61.4002C1527.52 61.4402 1526.63 61.0602 1526.21 61.9702C1526.01 62.4002 1525.37 62.5202 1525.22 62.2502C1524.88 61.6502 1524.48 61.3402 1524.04 61.1902C1523.79 61.2302 1523.57 61.2402 1523.39 61.1902C1523.19 61.1402 1523.01 61.1202 1522.82 61.0802C1522.02 61.1702 1521.12 61.4702 1520.14 61.6502C1519.93 61.6902 1519.71 61.7302 1519.49 61.7702C1519.13 61.9402 1518.75 62.0102 1518.35 61.9802C1517.39 62.1502 1516.4 62.2502 1515.38 62.2702C1511.56 63.7302 1507.09 64.7202 1504.83 67.3402C1504.36 67.8802 1503.2 68.2102 1502.4 68.6602C1501.38 69.2402 1500.68 69.8902 1500.4 70.7402C1499.32 74.0202 1495.38 76.0902 1490.91 77.8202C1489.23 78.4702 1487.79 79.0702 1486.86 80.1402C1485.57 81.6202 1483.32 82.0802 1480.57 81.9202C1479.2 81.8402 1477.74 82.0302 1476.42 81.8702C1473.65 81.5302 1471.71 82.6202 1469.39 83.0702C1468.41 84.9402 1465.73 84.6302 1463.29 84.8102C1461.69 84.9202 1460.17 85.4102 1458.61 85.7302C1457.61 85.9302 1456.41 86.4302 1455.63 86.2702C1451.74 85.4702 1449.15 86.6402 1447.22 88.2602C1446.12 89.1802 1445.17 89.6002 1443.3 89.6202C1441.14 89.6402 1438.89 89.3102 1436.86 90.1802C1435.72 90.6602 1434.51 91.0802 1433.3 91.5002C1432.25 92.4202 1430.77 92.8602 1428.96 92.9302C1425.34 94.0502 1421.72 95.1801 1418.61 96.7701C1417.48 97.3501 1416.73 96.8902 1415.73 96.7002C1415.09 96.5802 1413.91 96.7202 1413.49 97.0002C1410.58 98.9102 1406.45 99.4202 1402.74 100.44C1400.93 100.94 1399.21 101.39 1397.23 101.32C1394.81 101.23 1392.96 101.79 1391.34 102.8C1390.47 103.35 1389.35 103.3 1388.37 102.87C1387.28 102.39 1386.28 101.84 1385.18 101.36C1384.89 101.24 1384.58 101.13 1384.27 101.02C1384.1 101.08 1383.92 101.1 1383.75 101.17C1377.95 103.64 1370.94 104.96 1365.49 107.75C1364.36 108.33 1363.61 107.87 1362.61 107.68C1361.97 107.56 1360.79 107.7 1360.37 107.98C1357.46 109.9 1353.33 110.4 1349.62 111.43C1347.81 111.93 1346.09 112.39 1344.11 112.31C1341.69 112.22 1339.84 112.78 1338.22 113.8C1337.35 114.35 1336.23 114.3 1335.25 113.87C1334.16 113.39 1333.16 112.84 1332.06 112.36C1330.97 111.89 1329.67 111.55 1328.72 111.01C1327.49 110.3 1326.32 111.35 1325 110.87C1322.08 109.8 1321.99 109.86 1320.2 110.33C1318.36 110.81 1317.85 110.84 1315.34 109.99C1314.15 109.59 1313.22 110.29 1312.38 110.02C1311.18 109.65 1310.28 108.95 1309.06 108.62C1308.12 108.37 1306.58 108.19 1305.85 108.46C1303.02 109.52 1300.33 108.69 1298.1 108.15C1295.19 107.44 1292.95 107.28 1290.47 108.51C1289.67 108.91 1288.55 109.32 1287.59 109.32C1283.76 109.31 1279.82 109.81 1276.17 108.7C1274.64 108.23 1272.66 108.13 1271.34 108.61C1267.6 109.96 1263.87 109.55 1260.17 108.93C1258.97 108.73 1256.71 109.73 1256.51 108.08C1253.53 106.96 1250.56 105.84 1247.58 104.71C1244.39 104.86 1242.57 103.61 1240.69 102.44C1239.89 101.94 1238.93 101.7 1237.77 101.68C1237.21 101.68 1236.64 101.68 1236.11 101.6C1233.76 101.22 1231.02 101.12 1229.19 100.32C1226.83 99.2902 1224.29 101.18 1222.35 99.8402C1220.65 99.8402 1219.09 99.1702 1217.69 99.1802C1216.43 99.1802 1215.16 100.32 1213.86 100.92C1213.49 101.09 1212.6 101.27 1212.59 101.25C1209.96 98.2702 1208.59 102.27 1206.41 101.67C1206.19 101.61 1205.86 101.7 1205.59 101.68C1204 101.6 1202.15 101.81 1201.72 100.45C1201.59 100.03 1201.01 99.9402 1200.49 100.2C1198.78 101.05 1196.93 101.53 1194.67 101.88C1192.77 102.17 1191.71 102.24 1190.48 101.42C1190.18 101.21 1189.36 100.97 1189.15 101.06C1187.06 101.9 1184.27 101.55 1182.27 102.67C1180.79 103.5 1179.69 103.37 1179.24 102.49C1178.38 100.84 1176.11 99.9002 1174.3 98.7202C1172.96 97.8402 1172.1 98.1402 1171.56 99.1502C1171.48 99.2902 1171.24 99.4102 1171.08 99.5302C1168.98 98.2402 1165.55 99.3501 1163.38 98.1401C1161.6 97.1501 1159.94 96.0602 1157.59 95.4902C1156.01 93.0602 1153.25 92.4002 1149.19 93.6502C1149.05 93.6902 1148.69 93.5302 1148.47 93.4402C1146.19 92.5502 1144.27 92.9802 1142.56 94.0402C1140.99 95.0102 1138.9 95.0102 1137.11 94.7302C1134.52 94.3302 1131.52 93.9502 1130.49 92.2202C1129.53 90.6302 1126.1 90.8702 1125.05 89.4502C1123 89.3402 1121.5 90.1302 1119.91 90.6602C1117.28 91.5402 1114.67 89.9201 1112.09 90.8301C1111.87 90.9101 1110.99 90.6402 1110.83 90.4302C1110.28 89.7102 1110.1 88.8802 1109.43 88.2102C1108.75 87.5302 1107.75 86.9302 1106.73 86.3902C1105.31 85.6302 1107.11 84.6302 1105.95 83.7702C1105.12 83.1502 1104.71 82.4302 1103.25 82.1102C1099.68 81.3302 1099.05 78.8402 1095.95 77.7702C1096.12 75.3102 1092.74 74.6502 1089.87 73.7602C1089.44 73.6202 1088.47 73.5702 1088.32 73.7002C1086.51 75.2702 1084.26 73.6602 1082.46 74.0702C1081.13 74.3702 1080.49 73.9502 1079.53 73.7402C1078.03 73.4202 1077.08 74.3702 1075.73 74.4202C1075.25 74.4402 1074.64 74.3102 1074.27 74.1202C1073.13 73.5302 1071.8 73.5202 1070.39 73.5102C1069.6 73.5102 1068.44 73.4702 1068.1 73.1802C1065.43 70.9202 1060.87 70.4402 1057.15 69.1902C1054.99 68.4702 1052.86 67.8602 1052.01 66.2802C1051.5 65.3302 1049.74 65.0302 1048.18 64.6302C1046.78 64.2702 1045.16 64.0002 1044.21 63.0702C1041.71 60.6102 1038.72 58.3002 1036.49 55.7602C1035.4 54.5102 1034.09 54.1602 1032.07 54.1402C1030.93 54.1302 1029.99 53.9602 1029.03 53.5502C1024.86 51.8002 1021.02 49.7002 1015.62 49.1702C1014.88 49.1002 1014.2 48.6902 1013.6 48.3702C1012 47.5002 1010.65 46.4602 1008.44 46.0502C1007.44 44.1602 1004.62 44.4602 1002.26 44.5102C1000.69 44.5502 999.151 45.0802 997.571 45.3202C996.501 45.4802 995.36 45.5402 994.51 44.9902C993.38 44.2702 992.031 43.7802 990.571 43.2902C989.261 42.8602 988.891 41.8602 987.161 41.3802C982.991 40.2402 979.09 38.7902 975.75 36.8502C973.81 35.7302 971.271 34.9802 968.421 34.8502C966.721 34.7702 965.261 34.5602 963.811 33.9802C962.501 33.4602 960.851 33.0402 959.291 32.9602C957.431 32.8702 956.241 32.3802 955.091 31.6502C953.591 30.7102 952.01 29.8102 950.44 28.9002C946.04 26.3402 946 26.4202 940.02 25.5602C938.74 25.3802 938.061 25.6502 937.081 25.8402C935.481 26.1502 933.84 26.1502 932.19 25.8902C924.69 24.7102 922.95 24.7402 915.36 25.9202C913.45 26.2202 911.49 26.3402 909.76 25.6502C908.53 25.1602 907.03 24.8602 905.87 25.2802C903.28 26.2302 900.55 26.1002 897.78 26.0802C896.31 26.0802 895.04 26.3602 894.02 26.9602C892.93 27.6002 892.06 27.6402 890.48 27.3002C887.87 26.7302 884.89 25.8102 882.34 27.6302C882.21 27.7302 881.28 27.3602 880.91 27.4502C878.08 28.1502 875.15 26.3402 872.29 27.6102C872.19 27.6502 870.59 26.4402 870.37 26.5202C868.33 27.2002 866.72 26.6502 864.91 26.2402C864.03 26.0402 862.67 26.1902 861.75 26.4502C860.34 26.8602 860 26.5402 859.44 25.8802C857.03 23.0302 772.77 38.5002 766.38 39.4902C726.81 45.5902 689.15 81.2902 646.77 76.6702C643.46 76.3102 640.741 77.1702 638.331 78.2502C636.311 79.1602 634.16 79.8902 631.85 80.4202C629.48 80.9702 628.01 82.2102 625.65 82.8402C623.41 83.4402 622.11 83.3402 620.6 82.4002C620.11 82.0902 619.5 81.6102 618.57 81.9402C616.23 82.7502 613.54 83.1102 611.46 84.3202C608.5 86.0302 604.08 86.7002 601.02 86.2702C594.39 85.3302 593.77 85.3702 587.55 87.0002C587.05 87.1302 586.49 87.1702 585.98 87.2802C581.1 88.3502 576.03 89.2402 571.62 90.8402C569.36 91.6602 567.38 92.2202 564.76 92.2302C561.29 92.2502 556.75 93.1601 553.28 94.3901C552.55 94.6501 552.01 94.9102 551.19 94.5102C550.01 93.9402 548.41 93.8901 547.28 94.2701C543.79 95.4401 540.54 95.1802 536.99 94.4102C534.72 93.9202 532.14 93.8302 529.73 94.5702C529.01 94.7902 528.15 94.9702 527.37 94.9702C526.91 94.9702 526.46 94.9902 526 95.0002C525.86 95.1202 525.7 95.2301 525.56 95.3601C523.85 97.0101 521.65 98.3102 517.97 98.6802C515.32 98.9402 513.03 99.7701 511.5 101.36C509.9 103.03 506.45 103.93 505.12 105.82C504.95 106.06 504.25 106.33 503.81 106.33C501.23 106.3 498.86 108.24 496.04 106.65C495.61 106.4 494.43 106.69 493.99 107.17C492.5 108.8 490.68 110 487.21 110.4C484.43 110.72 482.18 112.02 481.98 113.78C481.79 115.37 480.63 116.4 478.8 117.53C476.17 119.15 474.7 121.4 470.82 122.33C468.26 125.3 462.98 126.91 459.93 129.65C459.51 130.03 458.85 130.57 458.27 130.59C455.92 130.67 455.13 131.64 454.05 132.59C453.5 133.08 452.331 133.35 451.391 133.68C447.821 134.92 443.98 135.07 440.24 134.26C436.95 133.55 434.051 133.6 430.701 134.36C428.161 134.93 425.55 135.42 423.07 136.11C422.11 136.38 420.941 136.54 419.891 136.51C418.891 136.48 417.741 135.85 416.991 136.01C415.791 136.28 414.66 136.56 413.38 136.54C411.08 137.85 408.581 139.06 406.811 140.64C406.391 141.02 405.731 141.56 405.151 141.58C402.801 141.66 402.011 142.63 400.941 143.58C400.391 144.07 399.221 144.34 398.281 144.67C394.711 145.91 390.87 146.06 387.13 145.25C383.84 144.54 380.941 144.59 377.591 145.35C375.051 145.92 372.441 146.41 369.961 147.1C369.001 147.37 367.831 147.53 366.781 147.5C365.781 147.48 364.63 146.84 363.88 147.01C362.59 147.3 361.4 147.64 359.98 147.56C358.05 145.88 357.981 145.88 355.331 146.59C354.071 146.93 352.421 146.93 350.181 146.67C349.111 146.55 347.991 146.56 346.891 146.55C345.911 146.53 345.371 146.19 345.111 145.72C344.571 144.73 343.17 144.74 341.79 144.7C340.38 144.66 338.971 144.7 338.031 145.43C337.371 145.94 336.94 146.54 336.32 147.06C335.69 147.6 334.301 147.61 333.521 147.06C332.831 146.58 332.261 146.03 331.611 145.53C330.261 144.5 328.1 144.31 326.91 145.37C325.77 146.38 325.02 146.76 323.1 146.1C321.49 145.55 319.541 144.76 317.941 144.91C316.291 145.06 314.991 145.27 313.551 144.7C311.881 144.03 310.121 144.19 308.251 144.54C307.461 144.68 306.871 144.28 306.671 143.79C305.321 143.7 303.87 143.75 302.66 143.47C300.11 142.88 297.69 142.1 295.23 141.39C292.88 140.71 290.041 140.51 288.841 138.78C288.301 138 286.651 137.89 285.221 137.88C283.011 137.87 280.901 137.84 278.891 137.07C276.911 136.31 274.901 135.61 272.121 136.67C270.631 137.24 268.261 135.37 266.151 136.67C261.921 135.6 257.561 134.68 253.501 133.43C248.651 131.94 245.771 131.2 241.341 131.1C239.361 131.06 237.531 130.93 235.811 130.29C235.221 130.07 233.961 130.02 233.441 130.24C230.101 131.67 225.601 130.45 222.391 132.03C220.521 132.03 218.601 132.2 216.741 132.13C216.561 132.29 216.4 132.47 216.29 132.67C214.9 135.2 211.11 136.71 208.48 138.71C207.01 139.83 204.561 139.74 203.721 138.53C202.751 137.12 201.291 135.98 199.391 135.06C198.041 134.41 196.871 133.68 195.751 132.92C193.581 133.5 191.571 134.43 188.941 134.12C185.501 135.01 181.39 135.06 178.82 137.08C177.68 137.97 175.97 138.55 174.33 139.18C173.16 139.63 169.94 139.28 170.91 141.1C169.84 142.53 167.53 141.45 166 141.96C164.78 142.37 163.62 142.82 163.16 143.65C161.77 146.18 157.98 147.69 155.35 149.69C153.88 150.81 151.43 150.72 150.59 149.51C149.62 148.1 148.16 146.96 146.26 146.05C142.6 144.29 140.01 142.04 137.42 139.8C136.31 138.84 135.56 137.97 133.26 137.86C132.33 137.81 131.14 137.29 130.7 136.79C128.98 134.85 125.29 134.17 123.05 132.58C122.74 132.36 122.1 132.2 121.6 132.19C118.86 132.13 116.09 131.84 113.45 132.62C111.72 133.14 109.87 133.52 108.2 134.09C106.66 134.61 105.46 134.66 103.67 134.26C101.72 133.82 99.2805 133.77 97.1805 134.39C94.6605 135.14 92.6005 133.47 90.1205 134.1C88.6205 134.48 87.0805 134.9 85.5005 135.04C77.6105 135.74 75.4905 136.2 67.9505 139.28C67.4305 139.5 67.1805 139.67 66.5605 139.43C66.1105 139.26 65.6005 139.1 65.0705 139.04C62.7005 138.76 62.1305 139.04 61.3205 140.75C61.1505 141.1 61.3105 142.02 60.1005 141.38C57.8905 140.2 55.7605 139.42 52.7405 140.47C52.4405 140.58 51.5105 140.42 51.3605 140.25C50.2105 138.89 46.6505 140.07 45.6905 138.36C45.3805 137.8 43.5505 137.81 42.6805 138.13C39.7905 139.18 38.0105 138.16 36.7305 137.02C35.7305 136.12 34.9505 135.95 33.5205 136.5C32.7305 136.8 32.0505 136.76 31.3805 136.38C30.4005 135.82 29.3905 135.07 27.9405 135.18C23.9905 135.5 20.2605 133.68 16.1405 135.01C14.8405 135.43 12.9005 135.29 11.5405 134.47C10.3905 133.78 9.0905 133.13 7.3005 133.1C4.7105 133.06 5.1305 131.37 3.4905 130.83C3.0105 130.67 2.5605 130.33 2.1105 130.34C-1.4895 130.43 -3.1595 128.81 -5.3495 127.63C-6.7495 126.87 -8.0795 125.75 -9.7295 125.55C-12.4495 125.23 -13.9095 124.15 -15.8695 123.3C-19.2995 121.82 -21.1195 119.63 -23.6695 117.77C-25.4395 116.47 -25.3495 116.42 -28.3695 116.55C-29.8895 116.61 -30.9495 116.38 -31.6195 115.49C-32.1095 114.84 -33.1995 114.67 -34.3395 115.12C-34.7995 115.3 -35.1995 115.54 -35.6595 115.72C-38.8195 116.99 -40.4395 116.92 -42.8195 115.43C-43.1995 115.2 -43.7495 114.99 -43.8995 114.71C-44.6495 113.25 -46.2395 112.69 -48.8695 112.83C-50.5195 112.92 -52.1195 112.62 -53.6695 112.19C-54.5895 111.94 -56.1495 111.73 -56.7895 112.01C-58.6695 112.83 -59.5695 112.09 -61.0195 111.63C-64.1095 110.64 -67.3995 109.86 -70.6995 109.06L-73.2395 198.36L1970.14 256.37L1976.66 26.7002C1974.88 27.1702 1973.05 27.4202 1971.11 27.2602C1970.53 27.2102 1970.07 27.2902 1969.6 27.3702" fill="black"></path><path d="M-54.6395 362.95L-56.1096 314.1C-55.8996 314.14 -55.7096 314.16 -55.5696 314.13C-53.8196 313.66 -52.0295 314.02 -50.2595 313.86C-46.3495 313.5 -42.4295 312.78 -38.2895 313.48C-36.6595 313.76 -34.4795 313.73 -32.6495 313.06C-30.9195 312.43 -28.8796 312.6 -26.9496 312.56C-24.5896 312.51 -22.7895 312.6 -22.4095 314.47C-22.2195 315.41 -20.2195 316.23 -19.0295 317.09C-16.9895 318.57 -14.3496 318.63 -11.5496 318C-9.73956 317.59 -8.06952 316.99 -6.25952 316.59C-5.07952 316.33 -3.75959 316.481 -2.57959 316.911L-2.9895 303.11C-2.7795 303.15 -2.58958 303.18 -2.44958 303.14C-0.699581 302.67 1.09048 303.04 2.86048 302.87C6.77048 302.51 10.6904 301.781 14.8204 302.481C16.4504 302.761 18.6405 302.731 20.4605 302.061C22.1905 301.431 24.2304 301.601 26.1604 301.561C28.5204 301.511 30.3304 301.601 30.7004 303.471C30.8904 304.421 32.8905 305.23 34.0805 306.09C36.1205 307.571 38.7604 307.631 41.5604 307.001C43.3704 306.591 45.0505 305.99 46.8505 305.59C48.6605 305.191 50.8505 305.701 52.2405 306.801C53.0805 307.461 53.9604 308.161 55.4004 308.221C58.2204 308.321 59.8304 309.381 61.5304 310.441C63.2104 311.501 64.9404 312.531 66.6804 313.561C67.5104 314.051 68.5704 314.311 69.6404 313.911C70.7004 313.511 71.4904 313.34 72.4404 313.98C74.2804 315.21 76.6604 315.81 79.3104 316.4C82.3204 317.07 85.2305 317.171 88.2305 317.081C90.8105 317.001 92.3804 317.51 93.5204 318.82C94.4204 319.86 96.1805 320.31 97.4805 319.82C99.5005 319.06 101.59 318.75 103.83 318.96C106.81 319.24 107.85 317.281 110.41 317.161C111.52 317.111 113.15 317 113.2 317.68C113.33 319.64 115.13 320.141 118.04 320.061C118.53 320.051 119.42 320.211 119.46 320.361C119.99 322.351 124.44 321.4 125.52 323.18C126.06 324.07 128 322.581 129.08 323.061C131.28 324.031 133.7 323.961 136.22 323.861C137.55 323.801 138.04 324.38 138.45 325.01C138.82 325.57 139.53 325.401 140.37 325.281C141.83 325.071 143.36 325.54 144.9 324.96C145.73 324.65 147.32 324.521 147.99 325.111C150.14 327.001 154.65 326.471 156.95 328.171C157.66 328.691 158.41 328.081 159.13 327.941C160.83 327.611 162.4 327.521 163.34 328.651C163.69 329.071 164 329.481 165.09 329.101C166.96 328.441 169.38 328.731 171.13 327.641C173.29 326.301 176.24 326.651 178.99 326.931C180.24 327.061 179.7 328.671 181.79 328.141C183.44 327.721 184.17 328.711 185.45 328.891C185.96 328.961 186.39 329.621 186.54 330.051C186.85 330.941 187.53 331.541 189.2 331.531C192.77 331.531 196.41 331.931 199.89 331.121C200.88 330.891 201.18 331.121 201.73 331.521C202.71 332.231 204.12 332.771 204.95 333.531C205.63 334.151 206.43 334.571 207.52 334.491C210.47 334.271 213.23 335.211 216.19 334.821C216.62 334.771 217.52 335.181 217.6 335.121C219.84 333.391 222.54 333.481 225.49 334.301C225.64 334.341 225.99 334.201 226.22 334.121C228.03 333.411 229.84 333.431 231.72 333.991C234.11 334.711 236.41 334.591 238.79 333.801C240.96 333.081 243.24 332.361 245.86 332.611C248.51 332.861 250.48 331.481 253.05 331.631C253.59 331.661 254.21 331.691 254.63 331.861C255.73 332.291 256.71 332.251 257.4 331.601C258.99 330.121 262.16 330.971 264.09 329.991C264.25 329.911 265.04 330.151 265.41 330.331C266.26 330.741 267.05 331.191 267.81 331.651C270.7 333.411 274.89 333.141 278.41 333.911C280.24 334.311 281.73 333.661 282.88 333.171C284.83 332.351 285.94 333.641 287.45 333.461C289.05 333.271 290.6 332.941 292.18 332.711C292.38 332.681 292.7 332.811 292.89 332.911C294.49 333.731 296.07 334.841 297.64 332.851C297.73 332.741 298.09 332.691 298.34 332.641C300.44 332.221 302.46 333.651 304.61 332.701C304.78 332.621 305.21 332.641 305.42 332.711C306.35 333.031 307.29 333.361 308.14 333.741C309.87 334.531 311.62 334.621 313.48 333.891C313.71 333.801 313.95 333.711 314.14 333.591C315.85 332.521 317.72 332.081 320.04 332.931C320.42 333.071 321.11 333.171 321.47 333.061C324.93 332.051 328.56 332.531 332.13 332.501C333.79 332.491 335.75 332.751 337.05 332.331C340.77 331.121 344.7 331.821 348.47 331.441C350.65 331.221 352 332.421 353.89 332.331C356.03 332.231 358.12 331.741 360.27 331.581C361.29 331.501 362.6 331.621 363.4 331.961C365.28 332.741 366.46 332.111 367.73 331.451C369.04 330.771 370.18 330.411 372.12 330.951C375.54 331.891 378.94 331.871 382.03 330.141C383.14 329.511 384.89 329.031 386.41 328.971C387.48 328.931 388.37 329.311 388.79 328.401C388.99 327.971 389.63 327.851 389.78 328.121C390.12 328.721 390.52 329.031 390.96 329.181C391.21 329.141 391.43 329.131 391.61 329.181C391.81 329.231 391.99 329.251 392.18 329.291C392.98 329.201 393.88 328.901 394.86 328.721C395.07 328.681 395.29 328.641 395.51 328.601C395.87 328.431 396.25 328.361 396.65 328.391C397.61 328.221 398.6 328.121 399.62 328.101C403.44 326.641 407.91 325.651 410.17 323.031C410.64 322.491 411.8 322.161 412.6 321.711C413.62 321.131 414.32 320.481 414.6 319.631C415.68 316.351 419.62 314.281 424.09 312.551C425.77 311.901 427.21 311.301 428.14 310.231C429.43 308.751 431.68 308.291 434.43 308.451C435.8 308.531 437.26 308.341 438.58 308.501C441.35 308.841 443.29 307.751 445.61 307.301C446.59 305.431 449.27 305.741 451.71 305.561C453.31 305.451 454.83 304.961 456.39 304.641C457.39 304.441 458.59 303.941 459.37 304.101C463.26 304.901 465.85 303.731 467.78 302.111C468.88 301.191 469.83 300.771 471.7 300.751C473.86 300.731 476.11 301.061 478.14 300.191C479.28 299.711 480.49 299.291 481.7 298.871C482.75 297.951 484.23 297.511 486.04 297.441C489.66 296.321 493.28 295.191 496.39 293.601C497.52 293.021 498.27 293.481 499.27 293.671C499.91 293.791 501.09 293.651 501.51 293.371C504.42 291.461 508.55 290.951 512.26 289.931C514.07 289.431 515.79 288.981 517.77 289.051C520.19 289.141 522.04 288.581 523.66 287.571C524.53 287.021 525.65 287.071 526.63 287.501C527.72 287.981 528.72 288.531 529.82 289.011C530.11 289.131 530.42 289.241 530.73 289.351C530.9 289.291 531.08 289.271 531.25 289.201C537.05 286.731 544.06 285.411 549.51 282.621C550.64 282.041 551.39 282.501 552.39 282.691C553.03 282.811 554.21 282.671 554.63 282.391C557.54 280.471 561.67 279.971 565.38 278.941C567.19 278.441 568.91 277.981 570.89 278.061C573.31 278.151 575.16 277.591 576.78 276.571C577.65 276.021 578.77 276.071 579.75 276.501C580.84 276.981 581.84 277.531 582.94 278.011C584.03 278.481 585.33 278.821 586.28 279.361C587.51 280.071 588.68 279.021 590 279.501C592.92 280.571 593.01 280.511 594.8 280.041C596.64 279.561 597.15 279.531 599.66 280.381C600.85 280.781 601.78 280.081 602.62 280.351C603.82 280.721 604.72 281.421 605.94 281.751C606.88 282.001 608.42 282.181 609.15 281.911C611.98 280.851 614.67 281.681 616.9 282.221C619.81 282.931 622.05 283.091 624.53 281.861C625.33 281.461 626.45 281.051 627.41 281.051C631.24 281.061 635.18 280.561 638.83 281.671C640.36 282.141 642.34 282.241 643.66 281.761C647.4 280.411 651.13 280.821 654.83 281.441C656.03 281.641 658.29 280.641 658.49 282.291C661.47 283.411 664.44 284.531 667.42 285.661C670.61 285.511 672.43 286.761 674.31 287.931C675.11 288.431 676.07 288.671 677.23 288.691C677.79 288.691 678.36 288.691 678.89 288.771C681.24 289.151 683.98 289.251 685.81 290.051C688.17 291.081 690.71 289.191 692.65 290.531C694.35 290.531 695.91 291.201 697.31 291.191C698.57 291.191 699.84 290.051 701.14 289.451C701.51 289.281 702.4 289.101 702.41 289.121C705.04 292.101 706.41 288.101 708.59 288.701C708.81 288.761 709.14 288.671 709.41 288.691C711 288.771 712.85 288.561 713.28 289.921C713.41 290.341 713.99 290.431 714.51 290.171C716.22 289.321 718.07 288.841 720.33 288.491C722.23 288.201 723.29 288.131 724.52 288.951C724.82 289.161 725.64 289.401 725.85 289.311C727.94 288.471 730.73 288.821 732.73 287.701C734.21 286.871 735.31 287.001 735.76 287.881C736.62 289.531 738.89 290.471 740.7 291.651C742.04 292.531 742.9 292.231 743.44 291.221C743.52 291.081 743.76 290.961 743.92 290.841C746.02 292.131 749.45 291.021 751.62 292.231C753.4 293.221 755.06 294.311 757.41 294.881C758.99 297.311 761.75 297.971 765.81 296.721C765.95 296.681 766.31 296.841 766.53 296.931C768.81 297.821 770.73 297.391 772.44 296.331C774.01 295.361 776.1 295.361 777.89 295.641C780.48 296.041 783.48 296.421 784.51 298.151C785.47 299.741 788.9 299.501 789.95 300.921C792 301.031 793.5 300.241 795.09 299.711C797.72 298.831 800.33 300.451 802.91 299.541C803.13 299.461 804.01 299.731 804.17 299.941C804.72 300.661 804.9 301.491 805.57 302.161C806.25 302.841 807.25 303.441 808.27 303.981C809.69 304.741 807.89 305.741 809.05 306.601C809.88 307.221 810.29 307.941 811.75 308.261C815.32 309.041 815.95 311.531 819.05 312.601C818.88 315.061 822.26 315.721 825.13 316.611C825.56 316.751 826.53 316.801 826.68 316.671C828.49 315.101 830.74 316.711 832.54 316.301C833.87 316.001 834.51 316.421 835.47 316.631C836.97 316.951 837.92 316.001 839.27 315.951C839.75 315.931 840.36 316.061 840.73 316.251C841.87 316.841 843.2 316.851 844.61 316.861C845.4 316.861 846.56 316.901 846.9 317.191C849.57 319.451 854.13 319.931 857.85 321.181C860.01 321.901 862.14 322.511 862.99 324.091C863.5 325.041 865.26 325.341 866.82 325.741C868.22 326.101 869.84 326.371 870.79 327.301C873.29 329.761 876.28 332.071 878.51 334.611C879.6 335.861 880.91 336.211 882.93 336.231C884.07 336.241 885.01 336.411 885.97 336.821C890.14 338.571 893.98 340.671 899.38 341.201C900.12 341.271 900.8 341.681 901.4 342.001C903 342.871 904.35 343.911 906.56 344.321C907.56 346.211 910.38 345.911 912.74 345.861C914.31 345.821 915.85 345.291 917.43 345.051C918.5 344.891 919.64 344.831 920.49 345.381C921.62 346.101 922.97 346.591 924.43 347.081C925.74 347.511 926.11 348.511 927.84 348.991C932.01 350.131 935.91 351.581 939.25 353.521C941.19 354.641 943.73 355.391 946.58 355.521C948.28 355.601 949.74 355.811 951.19 356.391C952.5 356.911 954.15 357.331 955.71 357.411C957.57 357.501 958.76 357.991 959.91 358.721C961.41 359.661 962.991 360.561 964.561 361.471C968.961 364.031 969 363.951 974.98 364.811C976.26 364.991 976.94 364.721 977.92 364.531C979.52 364.221 981.16 364.221 982.81 364.481C990.31 365.661 992.051 365.631 999.641 364.451C1001.55 364.151 1003.51 364.031 1005.24 364.721C1006.47 365.211 1007.97 365.511 1009.13 365.091C1011.72 364.141 1014.45 364.271 1017.22 364.291C1018.69 364.291 1019.96 364.011 1020.98 363.411C1022.07 362.771 1022.94 362.731 1024.52 363.071C1027.13 363.641 1030.11 364.561 1032.66 362.741C1032.79 362.641 1033.72 363.011 1034.09 362.921C1036.92 362.221 1039.85 364.031 1042.71 362.761C1042.81 362.721 1044.41 363.931 1044.63 363.851C1046.67 363.171 1048.28 363.721 1050.09 364.131C1050.97 364.331 1052.33 364.181 1053.25 363.921C1054.66 363.511 1055 363.831 1055.56 364.491C1057.97 367.341 1142.23 351.871 1148.62 350.881C1188.19 344.781 1225.85 309.081 1268.23 313.701C1271.54 314.061 1274.26 313.201 1276.67 312.121C1278.69 311.211 1280.84 310.481 1283.15 309.951C1285.52 309.401 1286.99 308.161 1289.35 307.531C1291.59 306.931 1292.89 307.031 1294.4 307.971C1294.89 308.281 1295.5 308.761 1296.43 308.431C1298.77 307.621 1301.46 307.261 1303.54 306.051C1306.5 304.341 1310.92 303.671 1313.98 304.101C1320.61 305.041 1321.23 305.001 1327.45 303.371C1327.95 303.241 1328.51 303.201 1329.02 303.091C1333.9 302.021 1338.97 301.131 1343.38 299.531C1345.64 298.711 1347.62 298.151 1350.24 298.141C1353.71 298.121 1358.25 297.211 1361.72 295.981C1362.45 295.721 1362.99 295.461 1363.81 295.861C1364.99 296.431 1366.59 296.481 1367.72 296.101C1371.21 294.931 1374.46 295.191 1378.01 295.961C1380.28 296.451 1382.86 296.541 1385.27 295.801C1385.99 295.581 1386.85 295.401 1387.63 295.401C1388.09 295.401 1388.54 295.381 1389 295.371C1389.14 295.251 1389.3 295.141 1389.44 295.011C1391.15 293.361 1393.35 292.061 1397.03 291.691C1399.68 291.431 1401.97 290.601 1403.5 289.011C1405.1 287.341 1408.55 286.441 1409.88 284.551C1410.05 284.311 1410.75 284.041 1411.19 284.041C1413.77 284.071 1416.14 282.131 1418.96 283.721C1419.39 283.971 1420.57 283.681 1421.01 283.201C1422.5 281.571 1424.32 280.371 1427.79 279.971C1430.57 279.651 1432.82 278.351 1433.02 276.591C1433.21 275.001 1434.37 273.971 1436.2 272.841C1438.83 271.221 1440.3 268.971 1444.18 268.041C1446.74 265.071 1452.02 263.461 1455.07 260.721C1455.49 260.341 1456.15 259.801 1456.73 259.781C1459.08 259.701 1459.87 258.731 1460.95 257.781C1461.5 257.291 1462.67 257.021 1463.61 256.691C1467.18 255.451 1471.02 255.301 1474.76 256.111C1478.05 256.821 1480.95 256.771 1484.3 256.011C1486.84 255.441 1489.45 254.951 1491.93 254.261C1492.89 253.991 1494.06 253.831 1495.11 253.861C1496.11 253.891 1497.26 254.521 1498.01 254.361C1499.21 254.091 1500.34 253.811 1501.62 253.831C1503.92 252.521 1506.42 251.311 1508.19 249.731C1508.61 249.351 1509.27 248.811 1509.85 248.791C1512.2 248.711 1512.99 247.741 1514.06 246.791C1514.61 246.301 1515.78 246.031 1516.72 245.701C1520.29 244.461 1524.13 244.311 1527.87 245.121C1531.16 245.831 1534.06 245.781 1537.41 245.021C1539.95 244.451 1542.56 243.961 1545.04 243.271C1546 243.001 1547.17 242.841 1548.22 242.871C1549.22 242.891 1550.37 243.531 1551.12 243.361C1552.41 243.071 1553.6 242.731 1555.02 242.811C1556.95 244.491 1557.02 244.491 1559.67 243.781C1560.93 243.441 1562.58 243.441 1564.82 243.701C1565.89 243.821 1567.01 243.811 1568.11 243.821C1569.09 243.841 1569.63 244.181 1569.89 244.651C1570.43 245.641 1571.83 245.631 1573.21 245.671C1574.62 245.711 1576.03 245.671 1576.97 244.941C1577.63 244.431 1578.06 243.831 1578.68 243.311C1579.31 242.771 1580.7 242.761 1581.48 243.311C1582.17 243.791 1582.74 244.341 1583.39 244.841C1584.74 245.871 1586.9 246.061 1588.09 245.001C1589.23 243.991 1589.98 243.611 1591.9 244.271C1593.51 244.821 1595.46 245.611 1597.06 245.461C1598.71 245.311 1600.01 245.101 1601.45 245.671C1603.12 246.341 1604.88 246.181 1606.75 245.831C1607.54 245.691 1608.13 246.091 1608.33 246.581C1609.68 246.671 1611.13 246.621 1612.34 246.901C1614.89 247.491 1617.31 248.271 1619.77 248.981C1622.12 249.661 1624.96 249.861 1626.16 251.591C1626.7 252.371 1628.35 252.481 1629.78 252.491C1631.99 252.501 1634.1 252.531 1636.11 253.301C1638.09 254.061 1640.1 254.761 1642.88 253.701C1644.37 253.131 1646.74 255.001 1648.85 253.701C1653.08 254.771 1657.44 255.691 1661.5 256.941C1666.35 258.431 1669.23 259.171 1673.66 259.271C1675.64 259.311 1677.47 259.441 1679.19 260.081C1679.78 260.301 1681.04 260.351 1681.56 260.131C1684.9 258.701 1689.4 259.921 1692.61 258.341C1694.48 258.341 1696.4 258.171 1698.26 258.241C1698.44 258.081 1698.6 257.901 1698.71 257.701C1700.1 255.171 1703.89 253.661 1706.52 251.661C1707.99 250.541 1710.44 250.631 1711.28 251.841C1712.25 253.251 1713.71 254.391 1715.61 255.311C1716.96 255.961 1718.13 256.691 1719.25 257.451C1721.42 256.871 1723.43 255.941 1726.06 256.251C1729.5 255.361 1733.61 255.311 1736.18 253.291C1737.32 252.401 1739.03 251.821 1740.67 251.191C1741.84 250.741 1745.06 251.091 1744.09 249.271C1745.16 247.841 1747.47 248.921 1749 248.411C1750.22 248.001 1751.38 247.551 1751.84 246.721C1753.23 244.191 1757.02 242.681 1759.65 240.681C1761.12 239.561 1763.57 239.651 1764.41 240.861C1765.38 242.271 1766.84 243.411 1768.74 244.321C1772.4 246.081 1774.99 248.331 1777.58 250.571C1778.69 251.531 1779.44 252.401 1781.74 252.511C1782.67 252.561 1783.86 253.081 1784.3 253.581C1786.02 255.521 1789.71 256.201 1791.95 257.791C1792.26 258.011 1792.9 258.171 1793.4 258.181C1796.14 258.241 1798.91 258.531 1801.55 257.751C1803.28 257.231 1805.13 256.851 1806.8 256.281C1808.34 255.761 1809.54 255.711 1811.33 256.111C1813.28 256.551 1815.72 256.601 1817.82 255.981C1820.34 255.231 1822.4 256.901 1824.88 256.271C1826.38 255.891 1827.92 255.471 1829.5 255.331C1837.39 254.631 1839.51 254.171 1847.05 251.091C1847.57 250.871 1847.82 250.701 1848.44 250.941C1848.89 251.111 1849.4 251.271 1849.93 251.331C1852.3 251.611 1852.87 251.331 1853.68 249.621C1853.85 249.271 1853.69 248.351 1854.9 248.991C1857.11 250.171 1859.24 250.951 1862.26 249.901C1862.56 249.791 1863.49 249.951 1863.64 250.121C1864.79 251.481 1868.35 250.301 1869.31 252.011C1869.62 252.571 1871.45 252.561 1872.32 252.241C1875.21 251.191 1876.99 252.211 1878.27 253.351C1879.27 254.251 1880.05 254.421 1881.48 253.871C1882.27 253.571 1882.95 253.611 1883.62 253.991C1884.6 254.551 1885.61 255.301 1887.06 255.191C1891.01 254.871 1894.74 256.691 1898.86 255.361C1900.16 254.941 1902.1 255.081 1903.46 255.901C1904.61 256.591 1905.91 257.241 1907.7 257.271C1910.29 257.311 1909.87 259.001 1911.51 259.541C1911.99 259.701 1912.44 260.041 1912.89 260.031C1916.49 259.941 1918.16 261.561 1920.35 262.741C1921.75 263.501 1923.08 264.621 1924.73 264.821C1927.45 265.141 1928.91 266.221 1930.87 267.071C1934.3 268.551 1936.12 270.741 1938.67 272.601C1940.44 273.901 1940.35 273.951 1943.37 273.821C1944.89 273.761 1945.95 273.991 1946.62 274.881C1947.11 275.531 1948.2 275.701 1949.34 275.251C1949.8 275.071 1950.2 274.831 1950.66 274.651C1953.82 273.381 1955.44 273.451 1957.82 274.941C1958.2 275.171 1958.75 275.381 1958.9 275.661C1959.65 277.121 1961.24 277.681 1963.87 277.541C1965.52 277.451 1967.12 277.751 1968.67 278.181C1969.59 278.431 1971.15 278.641 1971.79 278.361C1973.67 277.541 1974.57 278.281 1976.02 278.741C1979.11 279.731 1982.4 280.511 1985.7 281.311L1988.24 192.011L-55.1395 134L-61.6597 363.67C-59.8797 363.2 -58.0496 362.95 -56.1096 363.11C-55.5296 363.16 -55.0696 363.08 -54.5996 363" fill="black"></path><path d="M246.468 150.895C246.202 150.917 245.867 150.85 245.67 150.977C243.625 152.333 241.413 153.308 239.148 154.244C237.24 155.039 235.324 155.9 233.629 157.137C232.618 157.871 231.477 158.396 230.299 158.875C228.71 159.527 227.228 160.426 225.632 161.078C224.294 161.625 223.032 162.292 221.793 163.012C220.546 163.731 219.117 164.136 217.992 165.095C217.376 165.619 216.502 165.604 215.787 166.069C214.678 166.796 213.249 167.051 212.139 167.785C211.067 168.489 209.987 169.044 208.771 169.449C207.927 169.733 207.16 170.258 206.369 170.7C206.057 170.88 205.806 171.18 205.48 171.322C204.24 171.869 202.963 172.326 201.747 172.911C200.614 173.45 199.581 174.192 198.44 174.709C197.049 175.338 195.514 175.593 194.123 176.238C193.879 176.35 193.575 176.35 193.362 176.492C191.987 177.392 190.443 177.414 188.893 177.347C187.828 177.302 186.969 176.897 186.498 175.878C186.384 175.631 186.278 175.383 186.133 175.159C185.092 173.51 185.784 172.011 186.726 170.692C187.502 169.606 188.581 168.737 189.318 167.583C189.645 167.066 190.155 166.601 190.687 166.286C191.637 165.717 192.511 165.125 192.952 164.053C193.043 163.828 193.286 163.604 193.514 163.491C194.928 162.772 195.909 161.58 196.988 160.486C197.429 160.037 197.863 159.527 198.41 159.227C199.391 158.68 200.082 157.849 200.888 157.129C203.663 154.679 206.475 152.266 209.182 149.748C209.957 149.021 210.755 148.332 211.553 147.627C212.914 146.429 214.465 145.507 215.848 144.36C216.472 143.843 217.087 143.296 217.635 142.704C217.848 142.472 217.87 142.06 217.984 141.73C218.745 141.805 219.254 141.258 219.847 140.958C220.044 140.861 220.029 140.366 220.113 140.052C220.273 139.977 220.683 140.089 220.409 139.677C220.326 139.812 220.242 139.954 220.158 140.089C219.687 140.299 219.185 140.464 218.767 140.741C218.425 140.966 218.19 141.333 217.901 141.64C216.631 141.573 215.628 142.172 214.716 142.944C214.229 143.356 213.788 143.753 213.096 143.881C212.694 143.956 212.314 144.3 211.971 144.585C211.485 144.997 211.014 145.349 210.345 145.507C209.463 145.709 208.665 146.174 208.034 146.863C207.798 147.125 207.471 147.41 207.152 147.478C205.647 147.762 204.56 148.714 203.427 149.613C202.439 150.408 201.23 150.827 200.113 151.404C198.349 152.318 196.791 153.585 194.928 154.342C194.594 154.477 194.252 154.641 193.978 154.874C192.017 156.5 189.744 157.624 187.517 158.83C187.121 159.048 186.741 159.287 186.354 159.52C185.282 160.164 184.354 161.003 183.077 161.356C182.325 161.558 181.648 162.127 181.017 162.629C179.314 163.986 177.338 164.907 175.491 166.032C174.267 166.773 173.035 167.485 171.713 168.07C170.314 168.699 169.022 169.553 167.661 170.265C166.376 170.94 165.061 171.554 163.761 172.191C162.545 172.783 161.314 173.33 160.021 173.78C159.018 174.125 158.06 174.117 157.064 174.057C156.372 174.02 155.81 173.075 156.061 172.416C156.35 171.659 156.699 170.925 157.315 170.355C158.174 169.561 158.881 168.587 160.014 168.115C162.173 165.897 165 164.548 167.433 162.674C169.425 161.146 171.546 159.767 173.568 158.253C174.639 157.451 175.901 156.889 177.064 156.2C178.387 155.421 179.755 154.709 180.911 153.667C181.116 153.487 181.306 153.27 181.549 153.165C183.556 152.296 185.289 150.962 187.175 149.891C188.748 148.999 190.329 148.13 191.888 147.2C192.275 146.968 192.716 146.796 193.036 146.496C193.773 145.799 194.64 145.349 195.544 144.9C196.829 144.255 198.228 143.761 199.216 142.629C199.436 142.375 199.824 142.225 200.158 142.112C202.849 141.206 205.069 139.46 207.509 138.111C210.596 136.41 213.621 134.611 216.776 133.03C219.763 131.539 222.659 129.868 225.495 128.092C227.099 127.08 228.802 126.211 230.444 125.259C231.926 124.398 233.401 123.513 234.868 122.637C235.02 122.547 235.157 122.382 235.324 122.344C237.498 121.82 239.178 120.411 241.01 119.28C241.162 119.182 241.329 119.1 241.496 119.032C243.283 118.365 244.955 117.541 246.46 116.342C247.54 115.48 248.855 115.653 250.124 115.945C250.649 116.065 251.166 116.245 251.675 116.409C252.739 116.747 253.294 117.564 253.507 118.553C253.804 119.931 253.545 121.25 252.565 122.329C252.086 122.861 251.493 123.304 250.938 123.761C250.733 123.933 250.375 124 250.269 124.203C249.676 125.387 248.52 125.971 247.555 126.766C245.746 128.249 243.997 129.808 242.059 131.134C241.094 131.801 240.311 132.678 239.353 133.382C237.612 134.671 236.175 136.372 234.381 137.556C232.169 139.017 230.702 141.31 228.33 142.539C228.095 142.659 227.927 142.899 227.73 143.086C227.008 143.776 226.247 144.428 225.586 145.17C224.993 145.837 224.165 146.181 223.61 146.976C223.085 147.732 221.922 148.025 221.23 148.714C219.702 150.235 217.954 151.509 216.479 153.075C215.43 154.192 214.29 155.196 213.02 156.095C211.85 156.919 210.93 158.088 209.904 159.108C209.858 159.152 209.858 159.31 209.873 159.317C210.033 159.385 210.193 159.437 210.36 159.467C210.436 159.482 210.527 159.422 210.611 159.385C212.754 158.208 214.898 157.024 217.034 155.848C217.346 155.675 217.62 155.376 217.954 155.293C219.657 154.904 221.101 154.004 222.599 153.173C223.861 152.476 225.252 152.019 226.567 151.412C228.536 150.505 230.618 149.816 232.336 148.429C232.61 148.204 232.952 148.047 233.287 147.897C234.275 147.448 235.248 146.931 236.274 146.586C237.247 146.264 237.901 145.447 238.859 145.14C240.767 144.533 242.363 143.251 244.203 142.562C245.822 141.955 247.35 141.198 248.908 140.479C249.722 140.096 250.406 139.34 251.249 139.137C252.223 138.905 252.785 138.223 253.538 137.759C254.457 137.197 255.453 136.747 256.457 136.342C258.304 135.593 260.151 134.874 261.664 133.51C262.12 133.098 262.751 132.873 263.306 132.566C264.416 131.959 265.526 131.352 266.635 130.745C266.795 130.655 266.924 130.497 267.091 130.452C269.623 129.823 271.531 128.084 273.72 126.863C274.351 126.511 274.914 126.046 275.552 125.724C276.776 125.117 277.894 124.428 278.943 123.521C280.022 122.592 281.345 121.932 282.599 121.22C283.8 120.546 285.054 121.048 286.217 121.355C287.259 121.625 288.239 122.172 288.65 123.334C288.977 124.255 289.669 125.012 289.76 126.054C289.927 127.957 288.855 129.283 287.647 130.49C286.955 131.179 286.126 131.884 285.222 132.191C283.982 132.61 283.009 133.39 281.884 133.959C280.204 134.814 278.342 135.293 276.791 136.425C276.51 136.627 276.115 136.672 275.788 136.814C274.792 137.249 273.72 137.579 272.846 138.178C271.858 138.86 270.93 139.505 269.668 139.557C269.342 139.572 268.999 139.804 268.711 139.999C267.274 140.936 265.837 141.872 264.271 142.607C263.382 143.026 262.538 143.581 261.755 144.188C260.326 145.289 258.958 146.481 257.559 147.627C257.072 148.025 256.556 148.392 256.069 148.789C253.69 150.73 251.09 152.408 248.946 154.626C248.863 154.716 248.825 154.986 248.878 155.031C248.999 155.136 249.205 155.203 249.364 155.188C249.623 155.158 249.927 155.106 250.124 154.956C252.017 153.487 254.343 152.925 256.487 151.974C256.73 151.861 257.072 151.876 257.24 151.711C258.882 150.07 261.398 149.92 263.07 148.362C264.91 148.025 266.324 146.848 267.928 146.031C268.726 145.627 269.562 145.207 270.429 145.027C271.44 144.81 272.329 144.375 273.173 143.881C274.344 143.199 275.583 142.697 276.814 142.157C277.802 141.73 278.791 141.333 279.726 140.741C280.691 140.134 281.77 139.654 282.987 139.46C284.135 139.28 285.168 138.62 286.141 137.946C286.734 137.541 287.365 137.084 288.042 136.927C290.087 136.447 291.919 135.443 293.766 134.566C295.712 133.645 297.764 132.918 299.589 131.749C300.349 131.262 301.2 130.984 302.082 130.73C303.017 130.452 303.929 130.108 304.758 129.486C305.442 128.969 306.408 128.796 307.259 128.527C307.647 128.407 308.141 128.527 308.468 128.347C309.806 127.575 311.303 127.185 312.671 126.481C314.336 125.627 315.925 124.615 317.764 124.083C318.89 123.761 319.939 123.214 321.018 122.756C322.014 122.337 322.934 121.79 324.021 121.535C325.435 121.198 326.636 120.396 327.837 119.602C328.741 119.01 329.676 118.388 330.687 118.058C331.736 117.721 332.717 117.286 333.675 116.792C335.362 115.922 337.118 115.196 338.897 114.529C339.901 114.146 340.828 113.652 341.733 113.022C342.812 112.273 344.15 111.831 345.427 111.419C348.468 110.445 351.288 109.066 353.971 107.372C354.572 106.998 355.294 106.803 355.955 106.526C357.195 106.001 358.555 105.754 359.711 105.012C359.939 104.869 360.228 104.817 360.448 104.675C361.216 104.188 362.219 104.532 362.995 103.843C363.565 103.333 364.424 103.116 365.192 102.861C366.043 102.576 366.94 102.449 367.791 102.164C368.734 101.85 369.661 101.482 370.551 101.04C372.193 100.216 373.782 99.6165 375.378 99.5716C376.245 99.5491 376.974 99.2569 377.712 98.9271C378.943 98.3876 380.053 97.6158 381.436 97.3385C382.66 97.0912 383.793 96.4618 385.002 96.1021C386.218 95.7349 387.358 95.2029 388.521 94.7083C389.433 94.3186 390.346 93.8091 391.303 93.6892C392.444 93.5468 393.341 92.9623 394.352 92.5951C395.287 92.2579 396.237 91.9806 397.187 91.6959C397.621 91.5685 398.061 91.4486 398.502 91.3962C400.038 91.2388 401.11 91.7858 401.725 93.277C402.029 94.0039 402.121 94.5734 401.794 95.3078C401.003 97.1062 399.84 98.4925 398.054 99.4217C396.936 99.9987 395.925 100.778 394.907 101.52C394.458 101.842 394.04 102.127 393.47 102.224C393.037 102.299 392.626 102.539 392.223 102.741C390.855 103.446 389.479 104.135 388.134 104.884C386.879 105.589 385.427 105.881 384.302 106.87C383.854 107.26 383.162 107.38 382.569 107.612C381.216 108.144 379.848 108.631 378.821 109.733C378.251 110.347 377.461 110.602 376.67 110.842C375.089 111.314 373.645 112.063 372.284 112.962C371.22 113.659 370.087 114.191 368.901 114.656C367.807 115.076 366.735 115.585 365.739 116.185C364.34 117.024 363.018 117.968 361.254 117.893C360.843 117.878 360.425 118.215 360 118.365C359.407 118.575 358.814 118.837 358.206 118.927C357.628 119.01 357.172 119.22 356.776 119.617C355.925 120.471 354.952 121.063 353.683 121.16C353.166 121.205 352.641 121.453 352.162 121.692C349.334 123.124 346.393 124.27 343.359 125.192C342.386 125.492 341.581 126.031 340.699 126.458C339.809 126.893 338.859 127.193 337.947 127.597C336.792 128.107 335.636 128.616 334.336 128.639C333.675 128.646 333.059 128.841 332.55 129.216C331.075 130.302 329.281 130.692 327.647 131.419C325.914 132.191 324.211 133.053 322.485 133.847C321.748 134.184 320.98 134.446 320.22 134.731C318.783 135.271 317.369 135.863 315.978 136.522C314.275 137.324 312.542 138.111 310.649 138.44C310.216 138.515 309.745 138.688 309.41 138.957C308.042 140.052 306.385 140.554 304.796 141.191C302.873 141.962 300.965 142.772 299.041 143.544C298.122 143.918 297.187 144.255 296.259 144.608C295.507 144.9 294.686 145.012 294.07 145.634C293.766 145.941 293.31 146.151 292.876 146.271C291.197 146.743 289.676 147.5 288.255 148.512C287.685 148.916 286.962 149.089 286.233 149.254C284.841 149.568 283.397 149.861 282.249 150.85C281.991 151.074 281.626 151.194 281.299 151.344C280.144 151.869 278.988 152.378 277.84 152.895C277.506 153.045 277.194 153.345 276.86 153.353C275.309 153.397 274.207 154.409 272.922 155.016C271.782 155.556 270.55 155.953 269.463 156.53C268.414 157.092 267.35 157.504 266.248 157.871C266.164 157.901 266.035 157.871 265.982 157.931C264.53 159.317 262.553 159.437 260.774 160.044C260.265 160.224 259.771 160.449 259.269 160.666C257.529 161.423 255.795 162.195 254.047 162.944C253.72 163.087 253.363 163.176 253.013 163.244C251.675 163.506 250.413 163.971 249.182 164.555C247.715 165.252 246.24 165.927 244.552 165.987C243.944 166.009 243.313 166.256 242.743 166.511C241.002 167.283 239.178 167.156 237.369 166.968C236.685 166.901 235.978 166.541 235.392 166.159C234.701 165.702 234.267 165.027 234.29 164.106C234.313 163.184 234.48 162.397 235.065 161.603C235.985 160.351 236.913 159.175 238.266 158.358C238.494 158.223 238.714 158.051 238.912 157.864C241.056 155.78 243.237 153.742 245.579 151.876C245.913 151.614 246.096 151.172 246.354 150.82C246.491 150.722 246.947 150.842 246.62 150.438C246.544 150.572 246.46 150.715 246.384 150.85" fill="#9E4CFF"></path></g></svg>