<svg xmlns:xlink="http://www.w3.org/1999/xlink" xmlns="http://www.w3.org/2000/svg" width="194" viewBox="0 0 194 211" fill="none" class="num-deco-2" height="211"><g clip-path="url(#clip0_37_596)" fill="none"><path d="M180.376 161.755C177.559 151.363 172.078 141.719 164.611 133.964C163.174 132.484 161.582 131.003 159.596 130.425C157.849 129.918 156.017 130.157 154.186 130.369C153.481 130.397 152.763 130.411 152.058 130.411C152.1 130.411 152.143 130.411 152.185 130.383C152.044 130.411 151.889 130.383 151.748 130.411C151.311 130.411 150.875 130.383 150.424 130.341C148.691 129.974 146.817 129.17 144.788 128.423C142.238 127.112 139.688 125.631 136.857 125.674C136.828 125.674 136.786 125.674 136.758 125.674C136.448 125.674 136.124 125.702 135.8 125.758C134.067 126.012 132.545 126.929 131.137 128.014L101.255 124.334C100.973 124.052 100.691 123.77 100.381 123.516C100.015 122.981 99.6204 122.473 99.1837 121.994C95.5629 117.989 89.9838 116.382 83.7285 116.946L87.786 106.442C90.2374 100.111 90.8009 93.1881 89.4625 86.3215L88.9835 83.8541C88.0396 79.5255 88.0255 75.1405 88.9131 70.9247L96.0137 37.4663C99.1696 34.3785 104.072 28.9924 101.903 24.1703C100.522 21.0966 96.0278 18.9394 92.6043 17.5576C89.1526 16.2746 84.3765 14.8505 81.277 16.19C76.4306 18.2908 76.4306 25.5662 76.6842 29.9935L59.4256 59.5181C57.256 63.2263 54.2833 66.4552 50.6766 69.0354L48.6479 70.53C43.0406 74.6894 38.7999 80.2023 36.3626 86.533L1.2679 177.377C-0.183229 181.128 10.031 188.6 24.2746 194.325C38.6449 199.697 51.2402 201.05 52.6913 197.3L60.116 178.082C60.595 179.125 61.0881 180.155 61.6798 181.142C65.3288 187.134 72.3026 190.024 78.3889 193.521C88.5468 199.344 97.7889 207.931 109.412 209.299C115.597 210.032 121.81 208.594 127.882 207.17C138.843 204.603 149.832 202.023 160.525 198.541C163.569 197.554 166.668 196.44 169.091 194.339C171.345 192.379 172.825 189.728 174.05 186.965C174.107 186.894 174.149 186.824 174.22 186.753C175.22 185.611 176.699 184.92 177.714 183.722C178.474 182.819 179.066 181.804 179.587 180.747C180.531 179.083 181.193 177.236 181.532 175.248C182.292 170.778 181.574 166.154 180.39 161.783" fill="#0A0A0A"></path><path d="M180.376 161.755C177.559 151.363 172.078 141.719 164.611 133.964C163.174 132.484 161.582 131.003 159.596 130.425C157.849 129.918 156.017 130.157 154.186 130.369C153.481 130.397 152.763 130.411 152.058 130.411C152.1 130.411 152.143 130.411 152.185 130.383C152.044 130.411 151.889 130.383 151.748 130.411C151.311 130.411 150.875 130.383 150.424 130.341C148.691 129.974 146.817 129.17 144.788 128.423C142.238 127.112 139.688 125.631 136.857 125.674C136.828 125.674 136.786 125.674 136.758 125.674C136.448 125.674 136.124 125.702 135.8 125.758C134.067 126.012 132.545 126.929 131.137 128.014L101.255 124.334C100.973 124.052 100.691 123.77 100.381 123.516C100.015 122.981 99.6204 122.473 99.1837 121.994C95.5629 117.989 89.9838 116.382 83.7285 116.946L87.786 106.442C90.2374 100.111 90.8009 93.1881 89.4625 86.3216L88.9835 83.8541C88.0396 79.5255 88.0255 75.1405 88.9131 70.9247L96.0137 37.4663C99.1696 34.3785 104.072 28.9924 101.903 24.1703C100.522 21.0966 96.0278 18.9394 92.6043 17.5576C89.1526 16.2746 84.3765 14.8505 81.277 16.19C76.4306 18.2908 76.4306 25.5662 76.6842 29.9935L59.4256 59.5181C57.256 63.2263 54.2833 66.4552 50.6766 69.0354L48.6479 70.53C43.0406 74.6893 38.7999 80.2023 36.3626 86.533L1.2679 177.377C-0.183229 181.128 10.031 188.6 24.2746 194.325C38.6449 199.697 51.2402 201.05 52.6913 197.3L60.116 178.082C60.595 179.125 61.0881 180.155 61.6798 181.142C65.3288 187.134 72.3026 190.024 78.3889 193.521C88.5468 199.344 97.7889 207.931 109.412 209.299C115.597 210.032 121.81 208.594 127.882 207.17C138.843 204.603 149.832 202.023 160.525 198.541C163.569 197.554 166.668 196.44 169.091 194.339C171.345 192.379 172.825 189.728 174.05 186.965C174.107 186.894 174.149 186.824 174.22 186.753C175.22 185.611 176.699 184.92 177.714 183.722C178.474 182.819 179.066 181.804 179.587 180.747C180.531 179.083 181.193 177.236 181.532 175.248C182.292 170.778 181.574 166.154 180.39 161.783L180.376 161.755Z" stroke="#0A0A0A" stroke-width="1.6px" stroke-linecap="round" stroke-linejoin="round" fill="none"></path><path d="M100.748 72.2218L100.255 69.7543C99.3106 65.4257 99.2965 61.0407 100.184 56.825L107.271 23.3665C110.426 20.2787 115.329 14.8926 113.16 10.0706C111.779 6.98274 107.285 4.83959 103.861 3.45783C100.409 2.17476 95.6334 0.736598 92.534 2.09016C87.6875 4.19101 87.6875 11.4664 87.9411 15.8937L70.6825 45.4184C68.5129 49.1266 65.5402 52.3554 61.9335 54.9356L59.9188 56.4302C54.3116 60.5896 50.0709 66.1025 47.6336 72.4333L12.5389 163.277C11.0878 167.028 21.302 174.501 35.5456 180.211C49.9159 185.583 62.5112 186.936 63.9623 183.186L99.0852 92.3279C101.537 85.9971 102.114 79.0742 100.762 72.2077" fill="#FF7F4D"></path><path d="M100.748 72.2218L100.255 69.7543C99.3106 65.4257 99.2965 61.0407 100.184 56.825L107.271 23.3665C110.426 20.2787 115.329 14.8926 113.16 10.0706C111.779 6.98274 107.285 4.83959 103.861 3.45783C100.409 2.17476 95.6334 0.736598 92.534 2.09016C87.6875 4.19101 87.6875 11.4664 87.9411 15.8937L70.6825 45.4183C68.5129 49.1266 65.5402 52.3554 61.9335 54.9356L59.9188 56.4302C54.3116 60.5896 50.0709 66.1025 47.6336 72.4332L12.5389 163.277C11.0878 167.028 21.302 174.501 35.5456 180.211C49.9159 185.583 62.5112 186.936 63.9623 183.186L99.0852 92.3278C101.537 85.9971 102.114 79.0742 100.762 72.2077L100.748 72.2218Z" stroke="#0A0A0A" stroke-width="1.33px" stroke-linecap="round" stroke-linejoin="round" fill="none"></path><path d="M93.1115 7.88535C97.2676 11.1847 102.354 13.074 107.665 13.2432C108.806 13.2855 108.806 11.509 107.665 11.4667C102.861 11.3116 98.127 9.61961 94.3513 6.63049C93.4637 5.9255 92.2098 7.18037 93.0974 7.88535" fill="#0A0A0A"></path><path d="M59.7498 67.851C68.8088 74.7881 80.0233 78.5527 91.435 78.5386C92.5762 78.5386 92.5762 76.762 91.435 76.762C80.3191 76.762 69.485 73.082 60.6515 66.3142C59.7498 65.6233 58.8622 67.1602 59.7639 67.851" fill="#0A0A0A"></path><path d="M161.667 116.255C165.189 116.593 168.767 115.606 172.149 117.115C174.769 118.285 176.615 120.654 178.319 122.966C185.462 132.723 192.042 143.636 192.718 155.72C192.901 159.09 192.605 162.558 191.337 165.688C190.76 167.112 189.971 168.452 188.984 169.622C187.97 170.821 186.491 171.511 185.49 172.668C183.476 174.98 182.856 178.082 180.362 180.253C177.953 182.354 174.854 183.454 171.796 184.455C161.089 187.938 150.114 190.518 139.153 193.084C133.095 194.508 126.868 195.946 120.683 195.213C109.046 193.831 99.8036 185.259 89.6598 179.421C83.5736 175.925 76.5997 173.034 72.9508 167.042C71.6969 164.983 70.922 162.671 69.6963 160.598C69.3159 159.964 68.8792 159.343 68.4001 158.779C77.4169 163.136 91.6041 159.499 103.016 149.135C116.597 136.812 121.106 119.625 113.075 110.756C112.991 110.657 112.906 110.573 112.807 110.474C117.809 112.801 122.275 116.311 125.684 120.654C126.826 122.106 128.164 123.812 130.01 123.798C131.348 123.784 132.475 122.825 133.475 121.923C135.758 119.864 138.04 117.792 140.322 115.733C142.309 113.943 144.45 112.067 147.099 111.673C151.509 111.01 155.228 114.366 159.159 115.733C159.99 116.029 160.835 116.184 161.681 116.269" fill="#F2F2F0"></path><path d="M163.47 116.297C162.864 116.396 162.244 116.495 161.638 116.593C161.85 116.509 162.075 116.424 162.287 116.354C162.681 116.368 163.075 116.354 163.47 116.297Z" fill="#FF7F4D"></path><path d="M113.061 110.756C121.092 119.625 116.583 136.812 103.002 149.136C91.59 159.485 77.4028 163.122 68.3861 158.78C67.3858 157.595 66.1319 156.651 64.6808 156.27C64.3849 155.988 64.1172 155.72 63.8355 155.41C63.3987 154.931 62.9902 154.423 62.6379 153.873C71.1756 161.078 87.5466 157.934 100.409 146.273C112.906 134.937 117.724 119.498 112.173 110.192C112.385 110.277 112.582 110.376 112.793 110.474C112.892 110.573 112.977 110.658 113.061 110.756Z" fill="#FF7F4D"></path><path d="M112.793 110.474C112.596 110.376 112.385 110.277 112.174 110.192C112.019 109.925 111.849 109.671 111.68 109.417C112.075 109.741 112.455 110.094 112.793 110.474Z" fill="#FF7F4D"></path><path d="M112.173 110.192C117.724 119.498 112.906 134.937 100.409 146.273C87.5465 157.934 71.1755 161.078 62.6378 153.873C56.3402 144.666 61.0599 128.677 73.9087 117.017C86.7575 105.356 103.143 102.212 111.666 109.417C111.835 109.671 112.004 109.924 112.173 110.192Z" fill="#F2F2F0"></path><path d="M110.469 107.894C110.906 108.374 111.3 108.881 111.666 109.417C103.143 102.212 86.7576 105.356 73.9088 117.017C61.06 128.677 56.3263 144.666 62.638 153.873C62.159 153.464 61.694 153.027 61.2573 152.548C53.2268 143.679 57.721 126.492 71.3165 114.169C84.912 101.845 102.438 99.0396 110.469 107.908" fill="#F2F2F0"></path><path d="M102.086 118.102C102.199 121.049 99.6345 123.319 97.2676 125.067C95.436 126.407 93.5764 127.704 91.6744 128.959C91.2658 129.227 90.815 129.509 90.3219 129.509C90.0824 129.509 89.702 129.227 89.2652 128.804C89.2652 128.705 89.2652 128.621 89.2652 128.536C89.068 125.335 87.8 124.151 86.0671 124.123C85.6867 122.036 87.8564 118.793 88.9835 117.242C90.6882 114.93 93.2946 113.097 96.1687 113.069C99.0286 113.04 101.973 115.254 102.086 118.13" fill="#F2F2F0"></path><path d="M64.6807 156.256C66.1318 156.637 67.3716 157.595 68.386 158.78C67.0335 158.131 65.7796 157.285 64.6807 156.256Z" fill="#FF7F4D"></path><path d="M111.666 109.417C112.061 109.741 112.441 110.094 112.779 110.474C112.878 110.573 112.962 110.658 113.047 110.756C121.077 119.625 116.569 136.798 102.988 149.136C91.5758 159.485 77.3886 163.137 68.3719 158.78C67.0194 158.131 65.7655 157.285 64.6666 156.27C64.3708 156.002 64.089 155.72 63.8213 155.41C63.3846 154.931 62.976 154.423 62.6238 153.873" stroke="#0A0A0A" stroke-width="1.26px" stroke-linecap="round" stroke-linejoin="round" fill="none"></path><path d="M112.173 110.192C112.385 110.277 112.582 110.376 112.793 110.474C117.795 112.801 122.261 116.312 125.67 120.654C126.825 122.107 128.15 123.813 129.995 123.799C131.334 123.784 132.461 122.826 133.461 121.923C135.744 119.865 138.026 117.792 140.308 115.734C142.295 113.943 144.436 112.068 147.085 111.673C152.396 110.869 157.102 116.241 162.272 116.382" stroke="#0A0A0A" stroke-width="1.26px" stroke-linecap="round" stroke-linejoin="round" fill="none"></path><path d="M64.6807 156.256C66.1318 156.636 67.3716 157.595 68.386 158.779C68.865 159.343 69.3158 159.964 69.6821 160.598C70.9078 162.671 71.6968 164.983 72.9366 167.042C76.5855 173.034 83.5594 175.925 89.6457 179.421C99.8035 185.244 109.046 193.831 120.669 195.213C126.854 195.946 133.067 194.508 139.139 193.084C150.1 190.518 161.089 187.938 171.782 184.455C174.825 183.468 177.925 182.354 180.348 180.253C182.912 178.011 184.462 174.895 185.814 171.751C189.759 169.495 192.027 165.632 192.788 161.148C193.563 156.665 192.831 152.054 191.647 147.683C188.829 137.292 183.349 127.647 175.882 119.893C174.445 118.398 172.853 116.932 170.866 116.354C168.626 115.705 166.245 116.283 163.921 116.466C161.596 116.65 158.947 115.423 156.031 114.337" stroke="#0A0A0A" stroke-width="1.26px" stroke-linecap="round" stroke-linejoin="round" fill="none"></path><path d="M62.638 153.859C62.159 153.45 61.694 153.013 61.2573 152.534C53.2268 143.665 57.721 126.477 71.3165 114.154C84.912 101.831 102.438 99.0254 110.469 107.894C110.906 108.374 111.3 108.881 111.666 109.417C111.835 109.671 112.004 109.924 112.159 110.192C117.71 119.498 112.892 134.937 100.395 146.273C87.5325 157.934 71.1616 161.078 62.6239 153.873L62.638 153.859Z" stroke="#0A0A0A" stroke-width="1.11px" stroke-linecap="round" stroke-linejoin="round" fill="none"></path><path d="M126.671 130.524C129.432 143.453 129.672 156.905 127.389 169.933C127.192 171.061 126.981 172.245 127.361 173.331C127.741 174.402 128.981 175.276 130.038 174.825C130.503 174.628 130.855 174.219 131.165 173.824C142.647 159.555 148.353 140.746 146.747 122.487" stroke="#0A0A0A" stroke-width="1.26px" stroke-linecap="round" stroke-linejoin="round" fill="none"></path><path d="M60.7079 151.899C56.2277 142.509 61.1305 127.873 73.1058 117.017C86.7013 104.694 104.228 101.888 112.258 110.756C112.455 110.968 112.653 111.208 112.822 111.433" stroke="#0A0A0A" stroke-width="1.11px" stroke-linecap="round" stroke-linejoin="round" fill="none"></path><path d="M87.8001 131.849C87.7015 130.933 86.9266 130.185 85.2642 129.438C83.7567 128.761 82.5028 127.323 80.7981 127.055C78.2903 126.66 73.8383 132.047 72.4717 133.851C70.9361 135.896 69.6963 138.687 70.9361 140.915C71.9082 142.649 74.1623 143.369 76.1207 143.044C78.0931 142.72 79.8119 141.564 81.3475 140.295C83.2636 138.702 85.0528 136.967 86.4899 134.923C87.3775 133.668 87.8565 132.681 87.7719 131.849" fill="#0A0A0A"></path><path d="M82.827 125.209C83.9963 120.358 87.3776 116.185 91.9282 114.098C94.2105 113.055 98.2117 112.406 99.2543 115.508C100.114 118.06 98.0286 120.922 96.5915 122.826C94.6473 125.406 92.2381 127.634 89.5613 129.438C88.6174 130.073 89.505 131.61 90.463 130.975C93.2666 129.1 95.7462 126.802 97.8031 124.137C99.6487 121.754 101.692 118.723 101.086 115.55C100.452 112.195 96.8451 111.024 93.8583 111.602C90.9138 112.166 88.1243 113.985 86.0251 116.072C83.63 118.441 81.9112 121.458 81.1363 124.729C80.8686 125.843 82.5734 126.308 82.841 125.194" fill="#0A0A0A"></path><path d="M87.8423 122.233C88.3072 121.599 88.8003 120.978 89.3639 120.428C89.8711 119.935 90.5332 119.441 91.1109 119.258C91.6744 119.075 92.2098 119.061 92.731 119.202C93.2805 119.343 93.6468 119.597 93.9145 120.104C94.4358 121.119 95.9714 120.217 95.4501 119.202C94.6048 117.566 92.5338 117.059 90.8432 117.496C88.8426 118.017 87.5183 119.766 86.3348 121.331C86.053 121.711 86.2785 122.318 86.6589 122.543C87.1097 122.811 87.5887 122.614 87.8705 122.219" fill="#0A0A0A"></path></g></svg>