<svg xmlns:xlink="http://www.w3.org/1999/xlink" xmlns="http://www.w3.org/2000/svg" width="159" viewBox="0 0 159 165" fill="none" class="num-deco-1" height="165"><g clip-path="url(#clip0_37_569)" fill="none"><path d="M44.7452 83.6556L13.5616 103.016L1.96997 138.72L3.35025 141.254L94.0734 163.537L138.564 125.125L142.088 100.656H142.169L147.221 76.2144L118.423 24.9577L25.5151 15.0898L5.21295 33.0826L44.906 83.3472M142.115 100.415L142.088 100.549L142.048 100.469L142.115 100.415Z" fill="#0A0A0A"></path><path d="M44.7452 83.6556L13.5616 103.016L1.96997 138.72L3.35025 141.254L94.0734 163.537L138.564 125.125L142.088 100.656H142.169L147.221 76.2144L118.423 24.9577L25.5151 15.0898L5.21295 33.0826L44.906 83.3472M142.115 100.415L142.088 100.549L142.048 100.469L142.115 100.415Z" stroke="#0A0A0A" stroke-width="1.6px" stroke-linecap="round" stroke-linejoin="round" fill="none"></path><path d="M46.983 23.6439L68.0624 51.0085L55.6131 69.9264L15.92 19.6753L46.983 23.6439Z" fill="#F2F2F0"></path><path d="M50.9363 24.1401L55.2513 19.729L75.0576 21.8206L73.2753 26.9958L120.245 32.9756L138.443 63.2362L68.0624 51.0086L46.983 23.644L50.9363 24.1401Z" fill="#F2F2F0"></path><path d="M138.443 63.2359L152.715 86.9805L111.628 79.9014L55.6132 69.9262L68.0625 51.0083L138.443 63.2359Z" fill="#F2F2F0"></path><path d="M152.594 87.2085L131.086 104.678L60.7322 92.2631L55.4657 70.248L111.628 79.9014L152.594 87.2085Z" fill="#F2F2F0"></path><path d="M31.6124 110.846L60.7323 92.2632L131.086 104.678L103.709 126.948L57.5027 116.625L57.4223 122.108L38.0716 117.335L35.512 111.704L31.6124 110.846Z" fill="#F2F2F0"></path><path d="M55.4657 70.248L60.7322 92.2631L31.6124 110.846L1.07202 104.021L55.4657 70.248Z" fill="#F2F2F0"></path><path d="M46.983 23.644L15.92 19.6754L36.2356 1.68262L129.13 11.5639L120.245 32.9756L73.2753 26.9959L75.071 21.8206L55.2513 19.7291L50.9362 24.1401L46.983 23.644Z" fill="#FF7F4D"></path><path d="M157.941 62.807L152.889 87.2622L152.809 87.1415L152.836 86.994L152.715 86.9806L138.443 63.236L120.245 32.9754L129.13 11.5503L157.941 62.807Z" fill="#FF7F4D"></path><path d="M152.594 87.2085L152.809 87.2487L149.284 111.704L104.794 150.13L103.708 126.948L131.086 104.678L152.594 87.2085Z" fill="#FF7F4D"></path><path d="M103.708 126.948L104.794 150.13L14.0708 127.847L1.07202 104.021L31.6124 110.846L35.512 111.704L38.0715 117.335L57.4222 122.095L57.5026 116.624L103.708 126.948Z" fill="#FF7F4D"></path><path d="M57.5026 116.624L103.708 126.948L131.086 104.678L152.594 87.2085L152.769 87.061L152.836 87.0074L152.715 86.9806L111.628 79.9014L55.4657 70.248L1.07202 104.021L31.6124 110.846L35.512 111.704" stroke="#0A0A0A" stroke-width="1.6px" stroke-linecap="round" stroke-linejoin="round" fill="none"></path><path d="M31.6124 110.846L60.7323 92.2632L131.086 104.678" stroke="#0A0A0A" stroke-width="1.6px" stroke-linecap="round" stroke-linejoin="round" fill="none"></path><path d="M149.284 111.704L104.794 150.13L14.0708 127.847" stroke="#0A0A0A" stroke-width="1.6px" stroke-linecap="round" stroke-linejoin="round" fill="none"></path><path d="M103.708 126.948L104.794 150.13" stroke="#0A0A0A" stroke-width="1.6px" stroke-linecap="round" stroke-linejoin="round" fill="none"></path><path d="M60.7322 92.2631L55.4657 70.248" stroke="#0A0A0A" stroke-width="1.6px" stroke-linecap="round" stroke-linejoin="round" fill="none"></path><path d="M57.5026 116.625L57.4222 122.108L38.0715 117.335L35.512 111.704" stroke="#0A0A0A" stroke-width="1.6px" stroke-linecap="round" stroke-linejoin="round" fill="none"></path><path d="M50.9362 24.14L46.983 23.6439L15.92 19.6753L55.6131 69.9264L111.628 79.9016L152.594 87.2086L152.809 87.2489L152.889 87.2623L152.809 87.1416L152.769 87.0612L152.715 86.9807L138.443 63.2361L120.245 32.9755L73.2753 26.9958" stroke="#0A0A0A" stroke-width="1.6px" stroke-linecap="round" stroke-linejoin="round" fill="none"></path><path d="M138.443 63.236L68.0624 51.0084L46.983 23.6438L46.9696 23.6304" stroke="#0A0A0A" stroke-width="1.6px" stroke-linecap="round" stroke-linejoin="round" fill="none"></path><path d="M36.2356 1.68262L129.13 11.5639L157.941 62.8072" stroke="#0A0A0A" stroke-width="1.6px" stroke-linecap="round" stroke-linejoin="round" fill="none"></path><path d="M158 62.9819L153 86.9819L149.5 111.482" stroke="#0A0A0A" stroke-width="1.6px" stroke-linecap="round" fill="none"></path><path d="M1 103.982L14 127.482" stroke="#0A0A0A" stroke-width="1.6px" stroke-linecap="round" fill="none"></path><path d="M15.92 19.662L36.2356 1.68262" stroke="#0A0A0A" stroke-width="1.6px" stroke-linecap="round" stroke-linejoin="round" fill="none"></path><path d="M120.245 32.9757L129.13 11.564" stroke="#0A0A0A" stroke-width="1.6px" stroke-linecap="round" stroke-linejoin="round" fill="none"></path><path d="M68.0625 51.0083L55.6132 69.9262" stroke="#0A0A0A" stroke-width="1.6px" stroke-linecap="round" stroke-linejoin="round" fill="none"></path><path d="M50.9363 24.1401L55.2513 19.729L75.0576 21.8206L73.2753 26.9958" stroke="#0A0A0A" stroke-width="1.6px" stroke-linecap="round" stroke-linejoin="round" fill="none"></path></g></svg>