<svg xmlns:xlink="http://www.w3.org/1999/xlink" xmlns="http://www.w3.org/2000/svg" width="576" height="152" viewBox="0 0 576 152" fill="none">
<path d="M60.2388 31.3186L70.8276 38.7964L72.3943 37.963C70.2276 39.2408 69.761 39.5741 69.761 39.5741C69.761 39.5741 65.2054 43.0741 67.8054 47.8852L83.1721 76.3186C83.1721 76.3186 87.5388 80.7408 94.4054 76.1852C101.272 71.6297 102.239 71.3519 102.239 71.3519C102.239 71.3519 105.539 66.963 103.028 62.8852C100.528 58.8186 88.7165 36.6519 88.7165 36.6519C88.7165 36.6519 85.2499 32.2186 79.6165 34.0852C79.6721 33.1964 80.4832 19.3964 76.3832 17.1297C72.1499 14.7852 69.8388 21.8519 67.4943 23.9075C65.1499 25.963 60.2276 23.5075 57.8165 26.5519C55.4165 29.5964 60.2165 31.3186 60.2165 31.3186H60.2388Z" fill="#08CC84"></path>
<path d="M75.272 33.2521L64.6831 25.7743C64.6831 25.7743 59.8831 24.0521 62.2831 21.0076C64.6831 17.9632 69.6053 20.4187 71.9609 18.3632C74.3053 16.3076 76.6164 9.22985 80.8497 11.5854C85.0831 13.9298 84.072 28.5854 84.072 28.5854" fill="black"></path>
<path d="M75.272 33.2521L64.6831 25.7743C64.6831 25.7743 59.8831 24.0521 62.2831 21.0076C64.6831 17.9632 69.6053 20.4187 71.9609 18.3632C74.3053 16.3076 76.6164 9.22985 80.8497 11.5854C85.0831 13.9298 84.072 28.5854 84.072 28.5854" stroke="#FF7F4D" stroke-width="2.22222" stroke-linejoin="round"></path>
<path d="M105.294 67.4744L115.883 74.9521C115.883 74.9521 120.683 76.6744 118.283 79.7188C115.883 82.7633 110.961 80.3077 108.605 82.3633C106.25 84.4188 103.95 91.4966 99.7163 89.141C95.483 86.7855 96.4941 72.141 96.4941 72.141" fill="black"></path>
<path d="M105.294 67.4744L115.883 74.9521C115.883 74.9521 120.683 76.6744 118.283 79.7188C115.883 82.7633 110.961 80.3077 108.605 82.3633C106.25 84.4188 103.95 91.4966 99.7163 89.141C95.483 86.7855 96.4941 72.141 96.4941 72.141" stroke="#FF7F4D" stroke-width="2.22222" stroke-linejoin="round"></path>
<path d="M72.2609 42.341L87.6275 70.7743C87.6275 70.7743 91.9942 75.1966 98.8609 70.641C105.728 66.0855 106.694 65.8077 106.694 65.8077C106.694 65.8077 109.994 61.4188 107.483 57.341C104.983 53.2743 93.172 31.1077 93.172 31.1077C93.172 31.1077 88.8831 25.5855 82.072 29.4188C75.272 33.2521 74.2053 34.041 74.2053 34.041C74.2053 34.041 69.6498 37.541 72.2498 42.3521L72.2609 42.341Z" fill="black" stroke="#FF7F4D" stroke-width="2.22222" stroke-linejoin="round"></path>
<path d="M102.194 59.141L95.9941 48.1633" stroke="#FF7F4D" stroke-width="2.22222" stroke-linejoin="round"></path>
<path d="M93.2499 43.5299L91.7832 39.8077" stroke="#FF7F4D" stroke-width="2.22222" stroke-linejoin="round"></path>
<path d="M1.54154 124.004H8.19154V125.46H3.23554V128.12H7.91154V129.59H3.23554V132.544H8.45754L8.26154 134H1.54154V124.004ZM10.0591 124.004H11.6271L16.2191 131.228V124.004H17.8711V134H16.3031L11.6971 126.804V134H10.0591V124.004ZM20.9786 124.004L23.7226 131.704L26.5086 124.004H28.3146L24.5206 134H22.8966L19.0886 124.004H20.9786ZM33.4034 134.252C32.6847 134.252 32.036 134.135 31.4574 133.902C30.888 133.659 30.398 133.314 29.9874 132.866C29.5767 132.418 29.2594 131.872 29.0354 131.228C28.8207 130.575 28.7134 129.837 28.7134 129.016C28.7134 128.195 28.8254 127.457 29.0494 126.804C29.2734 126.151 29.5907 125.6 30.0014 125.152C30.412 124.695 30.9067 124.349 31.4854 124.116C32.064 123.873 32.7034 123.752 33.4034 123.752C34.1127 123.752 34.7567 123.873 35.3354 124.116C35.914 124.349 36.404 124.69 36.8054 125.138C37.2067 125.586 37.5147 126.137 37.7294 126.79C37.9534 127.434 38.0654 128.167 38.0654 128.988C38.0654 129.819 37.958 130.561 37.7434 131.214C37.5287 131.858 37.2207 132.409 36.8194 132.866C36.418 133.314 35.928 133.659 35.3494 133.902C34.78 134.135 34.1314 134.252 33.4034 134.252ZM33.3894 132.796C34.3507 132.796 35.0787 132.46 35.5734 131.788C36.068 131.107 36.3154 130.178 36.3154 129.002C36.3154 128.414 36.25 127.887 36.1194 127.42C35.998 126.953 35.816 126.557 35.5734 126.23C35.3307 125.903 35.0274 125.651 34.6634 125.474C34.2994 125.297 33.8747 125.208 33.3894 125.208C32.904 125.208 32.4794 125.297 32.1154 125.474C31.7514 125.651 31.4434 125.903 31.1914 126.23C30.9487 126.557 30.7667 126.953 30.6454 127.42C30.524 127.887 30.4634 128.414 30.4634 129.002C30.4634 130.178 30.706 131.107 31.1914 131.788C31.686 132.46 32.4187 132.796 33.3894 132.796ZM41.5578 124.004V132.53H46.5138L46.3038 134H39.8638V124.004H41.5578ZM48.7103 125.474H45.5463V124.004H53.5543V125.474H50.4043V134H48.7103V125.474ZM58.751 134.252C58.0323 134.252 57.3837 134.135 56.805 133.902C56.2357 133.659 55.7457 133.314 55.335 132.866C54.9243 132.418 54.607 131.872 54.383 131.228C54.1683 130.575 54.061 129.837 54.061 129.016C54.061 128.195 54.173 127.457 54.397 126.804C54.621 126.151 54.9383 125.6 55.349 125.152C55.7597 124.695 56.2543 124.349 56.833 124.116C57.4117 123.873 58.051 123.752 58.751 123.752C59.4603 123.752 60.1043 123.873 60.683 124.116C61.2617 124.349 61.7517 124.69 62.153 125.138C62.5543 125.586 62.8623 126.137 63.077 126.79C63.301 127.434 63.413 128.167 63.413 128.988C63.413 129.819 63.3057 130.561 63.091 131.214C62.8763 131.858 62.5683 132.409 62.167 132.866C61.7657 133.314 61.2757 133.659 60.697 133.902C60.1277 134.135 59.479 134.252 58.751 134.252ZM58.737 132.796C59.6983 132.796 60.4263 132.46 60.921 131.788C61.4157 131.107 61.663 130.178 61.663 129.002C61.663 128.414 61.5977 127.887 61.467 127.42C61.3457 126.953 61.1637 126.557 60.921 126.23C60.6783 125.903 60.375 125.651 60.011 125.474C59.647 125.297 59.2223 125.208 58.737 125.208C58.2517 125.208 57.827 125.297 57.463 125.474C57.099 125.651 56.791 125.903 56.539 126.23C56.2963 126.557 56.1143 126.953 55.993 127.42C55.8717 127.887 55.811 128.414 55.811 129.002C55.811 130.178 56.0537 131.107 56.539 131.788C57.0337 132.46 57.7663 132.796 58.737 132.796ZM68.7535 128.624C69.1361 128.624 69.4535 128.587 69.7055 128.512C69.9575 128.428 70.1535 128.316 70.2935 128.176C70.4428 128.027 70.5455 127.849 70.6015 127.644C70.6668 127.439 70.6995 127.21 70.6995 126.958C70.6995 126.725 70.6621 126.515 70.5875 126.328C70.5221 126.132 70.4055 125.969 70.2375 125.838C70.0788 125.698 69.8641 125.591 69.5935 125.516C69.3228 125.441 68.9868 125.404 68.5855 125.404H66.8775V128.624H68.7535ZM68.6275 124.004C69.3835 124.004 70.0041 124.093 70.4895 124.27C70.9841 124.447 71.3715 124.681 71.6515 124.97C71.9408 125.25 72.1415 125.563 72.2535 125.908C72.3655 126.253 72.4215 126.594 72.4215 126.93C72.4215 127.583 72.2908 128.129 72.0295 128.568C71.7775 129.007 71.3668 129.361 70.7975 129.632L72.8695 134H71.0215L69.2295 130.024C69.1455 130.033 69.0568 130.043 68.9635 130.052C68.8701 130.052 68.7721 130.052 68.6695 130.052H66.8775V134H65.2115V124.004H68.6275ZM74.2076 124.004H75.9016V134H74.2076V124.004ZM82.376 134.252C81.6573 134.252 81.0087 134.135 80.43 133.902C79.8607 133.659 79.3707 133.314 78.96 132.866C78.5493 132.418 78.232 131.872 78.008 131.228C77.7933 130.575 77.686 129.837 77.686 129.016C77.686 128.195 77.798 127.457 78.022 126.804C78.246 126.151 78.5633 125.6 78.974 125.152C79.3847 124.695 79.8793 124.349 80.458 124.116C81.0367 123.873 81.676 123.752 82.376 123.752C83.0853 123.752 83.7293 123.873 84.308 124.116C84.8867 124.349 85.3767 124.69 85.778 125.138C86.1793 125.586 86.4873 126.137 86.702 126.79C86.926 127.434 87.038 128.167 87.038 128.988C87.038 129.819 86.9307 130.561 86.716 131.214C86.5013 131.858 86.1933 132.409 85.792 132.866C85.3907 133.314 84.9007 133.659 84.322 133.902C83.7527 134.135 83.104 134.252 82.376 134.252ZM82.362 132.796C83.3233 132.796 84.0513 132.46 84.546 131.788C85.0407 131.107 85.288 130.178 85.288 129.002C85.288 128.414 85.2227 127.887 85.092 127.42C84.9707 126.953 84.7887 126.557 84.546 126.23C84.3033 125.903 84 125.651 83.636 125.474C83.272 125.297 82.8473 125.208 82.362 125.208C81.8767 125.208 81.452 125.297 81.088 125.474C80.724 125.651 80.416 125.903 80.164 126.23C79.9213 126.557 79.7393 126.953 79.618 127.42C79.4967 127.887 79.436 128.414 79.436 129.002C79.436 130.178 79.6787 131.107 80.164 131.788C80.6587 132.46 81.3913 132.796 82.362 132.796ZM89.9425 130.948C90.0171 131.601 90.2505 132.077 90.6425 132.376C91.0438 132.675 91.6365 132.824 92.4205 132.824C92.8031 132.824 93.1251 132.782 93.3865 132.698C93.6478 132.614 93.8578 132.502 94.0165 132.362C94.1751 132.222 94.2871 132.059 94.3525 131.872C94.4178 131.676 94.4505 131.471 94.4505 131.256C94.4505 131.097 94.4271 130.943 94.3805 130.794C94.3338 130.635 94.2498 130.491 94.1285 130.36C94.0071 130.229 93.8438 130.117 93.6385 130.024C93.4331 129.921 93.1718 129.842 92.8545 129.786L91.5805 129.548C91.0765 129.455 90.6285 129.338 90.2365 129.198C89.8445 129.058 89.5131 128.876 89.2425 128.652C88.9811 128.419 88.7805 128.139 88.6405 127.812C88.5098 127.476 88.4445 127.07 88.4445 126.594C88.4445 126.118 88.5378 125.703 88.7245 125.348C88.9205 124.993 89.1865 124.699 89.5225 124.466C89.8585 124.223 90.2551 124.046 90.7125 123.934C91.1791 123.813 91.6831 123.752 92.2245 123.752C92.9151 123.752 93.4938 123.831 93.9605 123.99C94.4271 124.149 94.8051 124.359 95.0945 124.62C95.3838 124.872 95.6031 125.166 95.7525 125.502C95.9018 125.838 96.0045 126.188 96.0605 126.552L94.4645 126.804C94.3338 126.244 94.1051 125.829 93.7785 125.558C93.4611 125.287 92.9525 125.152 92.2525 125.152C91.8511 125.152 91.5151 125.189 91.2445 125.264C90.9831 125.329 90.7685 125.427 90.6005 125.558C90.4418 125.679 90.3251 125.824 90.2505 125.992C90.1851 126.151 90.1525 126.319 90.1525 126.496C90.1525 126.935 90.2691 127.261 90.5025 127.476C90.7451 127.691 91.1651 127.859 91.7625 127.98L93.1485 128.246C94.2031 128.442 94.9778 128.778 95.4725 129.254C95.9671 129.721 96.2145 130.397 96.2145 131.284C96.2145 131.704 96.1351 132.096 95.9765 132.46C95.8271 132.815 95.5938 133.127 95.2765 133.398C94.9591 133.659 94.5625 133.865 94.0865 134.014C93.6198 134.173 93.0738 134.252 92.4485 134.252C91.1698 134.252 90.1665 133.986 89.4385 133.454C88.7105 132.913 88.3091 132.077 88.2345 130.948H89.9425ZM100.963 124.004H104.421C105.177 124.004 105.798 124.088 106.283 124.256C106.778 124.424 107.165 124.648 107.445 124.928C107.725 125.208 107.921 125.535 108.033 125.908C108.145 126.272 108.201 126.655 108.201 127.056C108.201 127.485 108.145 127.896 108.033 128.288C107.921 128.68 107.721 129.025 107.431 129.324C107.151 129.613 106.769 129.847 106.283 130.024C105.798 130.192 105.187 130.276 104.449 130.276H102.629V134H100.963V124.004ZM104.407 128.862C104.837 128.862 105.187 128.82 105.457 128.736C105.737 128.652 105.957 128.535 106.115 128.386C106.274 128.227 106.381 128.041 106.437 127.826C106.503 127.611 106.535 127.369 106.535 127.098C106.535 126.818 106.503 126.575 106.437 126.37C106.372 126.155 106.255 125.978 106.087 125.838C105.929 125.698 105.709 125.591 105.429 125.516C105.159 125.441 104.813 125.404 104.393 125.404H102.629V128.862H104.407ZM111.517 124.004V132.53H116.473L116.263 134H109.823V124.004H111.517ZM121.02 124.004H122.7L126.508 134H124.702L123.764 131.452H119.886L118.962 134H117.212L121.02 124.004ZM123.302 130.038L121.818 125.922L120.348 130.038H123.302ZM124.282 121.232L122.196 123.178H120.67L122.392 121.232H124.282ZM128.552 130.948C128.627 131.601 128.86 132.077 129.252 132.376C129.653 132.675 130.246 132.824 131.03 132.824C131.413 132.824 131.735 132.782 131.996 132.698C132.257 132.614 132.467 132.502 132.626 132.362C132.785 132.222 132.897 132.059 132.962 131.872C133.027 131.676 133.06 131.471 133.06 131.256C133.06 131.097 133.037 130.943 132.99 130.794C132.943 130.635 132.859 130.491 132.738 130.36C132.617 130.229 132.453 130.117 132.248 130.024C132.043 129.921 131.781 129.842 131.464 129.786L130.19 129.548C129.686 129.455 129.238 129.338 128.846 129.198C128.454 129.058 128.123 128.876 127.852 128.652C127.591 128.419 127.39 128.139 127.25 127.812C127.119 127.476 127.054 127.07 127.054 126.594C127.054 126.118 127.147 125.703 127.334 125.348C127.53 124.993 127.796 124.699 128.132 124.466C128.468 124.223 128.865 124.046 129.322 123.934C129.789 123.813 130.293 123.752 130.834 123.752C131.525 123.752 132.103 123.831 132.57 123.99C133.037 124.149 133.415 124.359 133.704 124.62C133.993 124.872 134.213 125.166 134.362 125.502C134.511 125.838 134.614 126.188 134.67 126.552L133.074 126.804C132.943 126.244 132.715 125.829 132.388 125.558C132.071 125.287 131.562 125.152 130.862 125.152C130.461 125.152 130.125 125.189 129.854 125.264C129.593 125.329 129.378 125.427 129.21 125.558C129.051 125.679 128.935 125.824 128.86 125.992C128.795 126.151 128.762 126.319 128.762 126.496C128.762 126.935 128.879 127.261 129.112 127.476C129.355 127.691 129.775 127.859 130.372 127.98L131.758 128.246C132.813 128.442 133.587 128.778 134.082 129.254C134.577 129.721 134.824 130.397 134.824 131.284C134.824 131.704 134.745 132.096 134.586 132.46C134.437 132.815 134.203 133.127 133.886 133.398C133.569 133.659 133.172 133.865 132.696 134.014C132.229 134.173 131.683 134.252 131.058 134.252C129.779 134.252 128.776 133.986 128.048 133.454C127.32 132.913 126.919 132.077 126.844 130.948H128.552ZM138.685 125.474H135.521V124.004H143.529V125.474H140.379V134H138.685V125.474ZM144.864 124.004H146.558V134H144.864V124.004ZM157.05 130.626C156.994 131.149 156.868 131.629 156.672 132.068C156.476 132.507 156.206 132.889 155.86 133.216C155.515 133.543 155.095 133.799 154.6 133.986C154.106 134.163 153.532 134.252 152.878 134.252C152.16 134.252 151.516 134.131 150.946 133.888C150.386 133.645 149.91 133.3 149.518 132.852C149.136 132.395 148.842 131.844 148.636 131.2C148.44 130.547 148.342 129.819 148.342 129.016C148.342 128.195 148.45 127.457 148.664 126.804C148.888 126.151 149.201 125.6 149.602 125.152C150.004 124.695 150.484 124.349 151.044 124.116C151.604 123.873 152.22 123.752 152.892 123.752C153.518 123.752 154.059 123.831 154.516 123.99C154.974 124.149 155.361 124.377 155.678 124.676C156.005 124.965 156.262 125.315 156.448 125.726C156.644 126.137 156.789 126.594 156.882 127.098L155.216 127.336C155.142 127 155.048 126.701 154.936 126.44C154.824 126.179 154.675 125.959 154.488 125.782C154.311 125.595 154.092 125.455 153.83 125.362C153.569 125.259 153.256 125.208 152.892 125.208C152.444 125.208 152.048 125.297 151.702 125.474C151.357 125.651 151.063 125.908 150.82 126.244C150.587 126.571 150.41 126.967 150.288 127.434C150.167 127.901 150.106 128.423 150.106 129.002C150.106 129.59 150.167 130.117 150.288 130.584C150.419 131.051 150.606 131.452 150.848 131.788C151.091 132.115 151.38 132.367 151.716 132.544C152.062 132.712 152.454 132.796 152.892 132.796C153.284 132.796 153.616 132.745 153.886 132.642C154.166 132.539 154.4 132.395 154.586 132.208C154.773 132.021 154.918 131.797 155.02 131.536C155.132 131.265 155.212 130.962 155.258 130.626H157.05ZM162.999 134.252C162.28 134.252 161.632 134.135 161.053 133.902C160.484 133.659 159.994 133.314 159.583 132.866C159.172 132.418 158.855 131.872 158.631 131.228C158.416 130.575 158.309 129.837 158.309 129.016C158.309 128.195 158.421 127.457 158.645 126.804C158.869 126.151 159.186 125.6 159.597 125.152C160.008 124.695 160.502 124.349 161.081 124.116C161.66 123.873 162.299 123.752 162.999 123.752C163.708 123.752 164.352 123.873 164.931 124.116C165.51 124.349 166 124.69 166.401 125.138C166.802 125.586 167.11 126.137 167.325 126.79C167.549 127.434 167.661 128.167 167.661 128.988C167.661 129.819 167.554 130.561 167.339 131.214C167.124 131.858 166.816 132.409 166.415 132.866C166.014 133.314 165.524 133.659 164.945 133.902C164.376 134.135 163.727 134.252 162.999 134.252ZM162.985 132.796C163.946 132.796 164.674 132.46 165.169 131.788C165.664 131.107 165.911 130.178 165.911 129.002C165.911 128.414 165.846 127.887 165.715 127.42C165.594 126.953 165.412 126.557 165.169 126.23C164.926 125.903 164.623 125.651 164.259 125.474C163.895 125.297 163.47 125.208 162.985 125.208C162.5 125.208 162.075 125.297 161.711 125.474C161.347 125.651 161.039 125.903 160.787 126.23C160.544 126.557 160.362 126.953 160.241 127.42C160.12 127.887 160.059 128.414 160.059 129.002C160.059 130.178 160.302 131.107 160.787 131.788C161.282 132.46 162.014 132.796 162.985 132.796ZM170.566 130.948C170.64 131.601 170.874 132.077 171.266 132.376C171.667 132.675 172.26 132.824 173.044 132.824C173.426 132.824 173.748 132.782 174.01 132.698C174.271 132.614 174.481 132.502 174.64 132.362C174.798 132.222 174.91 132.059 174.976 131.872C175.041 131.676 175.074 131.471 175.074 131.256C175.074 131.097 175.05 130.943 175.004 130.794C174.957 130.635 174.873 130.491 174.752 130.36C174.63 130.229 174.467 130.117 174.262 130.024C174.056 129.921 173.795 129.842 173.478 129.786L172.204 129.548C171.7 129.455 171.252 129.338 170.86 129.198C170.468 129.058 170.136 128.876 169.866 128.652C169.604 128.419 169.404 128.139 169.264 127.812C169.133 127.476 169.068 127.07 169.068 126.594C169.068 126.118 169.161 125.703 169.348 125.348C169.544 124.993 169.81 124.699 170.146 124.466C170.482 124.223 170.878 124.046 171.336 123.934C171.802 123.813 172.306 123.752 172.848 123.752C173.538 123.752 174.117 123.831 174.584 123.99C175.05 124.149 175.428 124.359 175.718 124.62C176.007 124.872 176.226 125.166 176.376 125.502C176.525 125.838 176.628 126.188 176.684 126.552L175.088 126.804C174.957 126.244 174.728 125.829 174.402 125.558C174.084 125.287 173.576 125.152 172.876 125.152C172.474 125.152 172.138 125.189 171.868 125.264C171.606 125.329 171.392 125.427 171.224 125.558C171.065 125.679 170.948 125.824 170.874 125.992C170.808 126.151 170.776 126.319 170.776 126.496C170.776 126.935 170.892 127.261 171.126 127.476C171.368 127.691 171.788 127.859 172.386 127.98L173.772 128.246C174.826 128.442 175.601 128.778 176.096 129.254C176.59 129.721 176.838 130.397 176.838 131.284C176.838 131.704 176.758 132.096 176.6 132.46C176.45 132.815 176.217 133.127 175.9 133.398C175.582 133.659 175.186 133.865 174.71 134.014C174.243 134.173 173.697 134.252 173.072 134.252C171.793 134.252 170.79 133.986 170.062 133.454C169.334 132.913 168.932 132.077 168.858 130.948H170.566ZM19.0649 149.558C19.6529 149.558 20.1523 149.474 20.5629 149.306C20.9829 149.138 21.3236 148.895 21.5849 148.578C21.8556 148.261 22.0516 147.883 22.1729 147.444C22.2943 147.005 22.3549 146.511 22.3549 145.96C22.3549 144.859 22.1216 144 21.6549 143.384C21.1883 142.759 20.4229 142.446 19.3589 142.446H17.4269V149.558H19.0649ZM19.3449 141.004C20.0823 141.004 20.7449 141.107 21.3329 141.312C21.9209 141.508 22.4203 141.811 22.8309 142.222C23.2416 142.633 23.5543 143.151 23.7689 143.776C23.9929 144.392 24.1049 145.115 24.1049 145.946C24.1049 146.777 23.9883 147.509 23.7549 148.144C23.5216 148.769 23.1856 149.297 22.7469 149.726C22.3083 150.146 21.7716 150.463 21.1369 150.678C20.5116 150.893 19.8023 151 19.0089 151H15.7329V141.004H19.3449ZM25.8911 141.004H32.5411V142.46H27.5851V145.12H32.2611V146.59H27.5851V149.544H32.8071L32.6111 151H25.8911V141.004ZM40.2872 141.004H41.9672L45.7752 151H43.9692L43.0312 148.452H39.1532L38.2292 151H36.4792L40.2872 141.004ZM42.5692 147.038L41.0852 142.922L39.6152 147.038H42.5692ZM48.6809 141.004V149.53H53.6369L53.4269 151H46.9869V141.004H48.6809ZM55.0122 141.004H56.7062V151H55.0122V141.004ZM58.8267 141.004H60.8847L63.7267 148.956L66.6527 141.004H68.6407V151H67.0867V143.734L64.3427 151H62.9987L60.3527 143.748V151H58.8267V141.004ZM70.7622 141.004H77.4122V142.46H72.4562V145.12H77.1322V146.59H72.4562V149.544H77.6782L77.4822 151H70.7622V141.004ZM79.2798 141.004H80.8478L85.4398 148.228V141.004H87.0918V151H85.5238L80.9178 143.804V151H79.2798V141.004ZM91.5853 142.474H88.4213V141.004H96.4293V142.474H93.2793V151H91.5853V142.474ZM101.626 151.252C100.907 151.252 100.259 151.135 99.68 150.902C99.1107 150.659 98.6207 150.314 98.21 149.866C97.7993 149.418 97.482 148.872 97.258 148.228C97.0433 147.575 96.936 146.837 96.936 146.016C96.936 145.195 97.048 144.457 97.272 143.804C97.496 143.151 97.8133 142.6 98.224 142.152C98.6347 141.695 99.1293 141.349 99.708 141.116C100.287 140.873 100.926 140.752 101.626 140.752C102.335 140.752 102.979 140.873 103.558 141.116C104.137 141.349 104.627 141.69 105.028 142.138C105.429 142.586 105.737 143.137 105.952 143.79C106.176 144.434 106.288 145.167 106.288 145.988C106.288 146.819 106.181 147.561 105.966 148.214C105.751 148.858 105.443 149.409 105.042 149.866C104.641 150.314 104.151 150.659 103.572 150.902C103.003 151.135 102.354 151.252 101.626 151.252ZM101.612 149.796C102.573 149.796 103.301 149.46 103.796 148.788C104.291 148.107 104.538 147.178 104.538 146.002C104.538 145.414 104.473 144.887 104.342 144.42C104.221 143.953 104.039 143.557 103.796 143.23C103.553 142.903 103.25 142.651 102.886 142.474C102.522 142.297 102.097 142.208 101.612 142.208C101.127 142.208 100.702 142.297 100.338 142.474C99.974 142.651 99.666 142.903 99.414 143.23C99.1713 143.557 98.9893 143.953 98.868 144.42C98.7467 144.887 98.686 145.414 98.686 146.002C98.686 147.178 98.9287 148.107 99.414 148.788C99.9087 149.46 100.641 149.796 101.612 149.796ZM109.192 147.948C109.267 148.601 109.5 149.077 109.892 149.376C110.294 149.675 110.886 149.824 111.67 149.824C112.053 149.824 112.375 149.782 112.636 149.698C112.898 149.614 113.108 149.502 113.266 149.362C113.425 149.222 113.537 149.059 113.602 148.872C113.668 148.676 113.7 148.471 113.7 148.256C113.7 148.097 113.677 147.943 113.63 147.794C113.584 147.635 113.5 147.491 113.378 147.36C113.257 147.229 113.094 147.117 112.888 147.024C112.683 146.921 112.422 146.842 112.104 146.786L110.83 146.548C110.326 146.455 109.878 146.338 109.486 146.198C109.094 146.058 108.763 145.876 108.492 145.652C108.231 145.419 108.03 145.139 107.89 144.812C107.76 144.476 107.694 144.07 107.694 143.594C107.694 143.118 107.788 142.703 107.974 142.348C108.17 141.993 108.436 141.699 108.772 141.466C109.108 141.223 109.505 141.046 109.962 140.934C110.429 140.813 110.933 140.752 111.474 140.752C112.165 140.752 112.744 140.831 113.21 140.99C113.677 141.149 114.055 141.359 114.344 141.62C114.634 141.872 114.853 142.166 115.002 142.502C115.152 142.838 115.254 143.188 115.31 143.552L113.714 143.804C113.584 143.244 113.355 142.829 113.028 142.558C112.711 142.287 112.202 142.152 111.502 142.152C111.101 142.152 110.765 142.189 110.494 142.264C110.233 142.329 110.018 142.427 109.85 142.558C109.692 142.679 109.575 142.824 109.5 142.992C109.435 143.151 109.402 143.319 109.402 143.496C109.402 143.935 109.519 144.261 109.752 144.476C109.995 144.691 110.415 144.859 111.012 144.98L112.398 145.246C113.453 145.442 114.228 145.778 114.722 146.254C115.217 146.721 115.464 147.397 115.464 148.284C115.464 148.704 115.385 149.096 115.226 149.46C115.077 149.815 114.844 150.127 114.526 150.398C114.209 150.659 113.812 150.865 113.336 151.014C112.87 151.173 112.324 151.252 111.698 151.252C110.42 151.252 109.416 150.986 108.688 150.454C107.96 149.913 107.559 149.077 107.484 147.948H109.192ZM121.319 147.948C121.394 148.601 121.627 149.077 122.019 149.376C122.421 149.675 123.013 149.824 123.797 149.824C124.18 149.824 124.502 149.782 124.763 149.698C125.025 149.614 125.235 149.502 125.393 149.362C125.552 149.222 125.664 149.059 125.729 148.872C125.795 148.676 125.827 148.471 125.827 148.256C125.827 148.097 125.804 147.943 125.757 147.794C125.711 147.635 125.627 147.491 125.505 147.36C125.384 147.229 125.221 147.117 125.015 147.024C124.81 146.921 124.549 146.842 124.231 146.786L122.957 146.548C122.453 146.455 122.005 146.338 121.613 146.198C121.221 146.058 120.89 145.876 120.619 145.652C120.358 145.419 120.157 145.139 120.017 144.812C119.887 144.476 119.821 144.07 119.821 143.594C119.821 143.118 119.915 142.703 120.101 142.348C120.297 141.993 120.563 141.699 120.899 141.466C121.235 141.223 121.632 141.046 122.089 140.934C122.556 140.813 123.06 140.752 123.601 140.752C124.292 140.752 124.871 140.831 125.337 140.99C125.804 141.149 126.182 141.359 126.471 141.62C126.761 141.872 126.98 142.166 127.129 142.502C127.279 142.838 127.381 143.188 127.437 143.552L125.841 143.804C125.711 143.244 125.482 142.829 125.155 142.558C124.838 142.287 124.329 142.152 123.629 142.152C123.228 142.152 122.892 142.189 122.621 142.264C122.36 142.329 122.145 142.427 121.977 142.558C121.819 142.679 121.702 142.824 121.627 142.992C121.562 143.151 121.529 143.319 121.529 143.496C121.529 143.935 121.646 144.261 121.879 144.476C122.122 144.691 122.542 144.859 123.139 144.98L124.525 145.246C125.58 145.442 126.355 145.778 126.849 146.254C127.344 146.721 127.591 147.397 127.591 148.284C127.591 148.704 127.512 149.096 127.353 149.46C127.204 149.815 126.971 150.127 126.653 150.398C126.336 150.659 125.939 150.865 125.463 151.014C124.997 151.173 124.451 151.252 123.825 151.252C122.547 151.252 121.543 150.986 120.815 150.454C120.087 149.913 119.686 149.077 119.611 147.948H121.319ZM129.223 141.004H135.873V142.46H130.917V145.12H135.593V146.59H130.917V149.544H136.139L135.943 151H129.223V141.004ZM145.976 147.626C145.92 148.149 145.794 148.629 145.598 149.068C145.402 149.507 145.131 149.889 144.786 150.216C144.441 150.543 144.021 150.799 143.526 150.986C143.031 151.163 142.457 151.252 141.804 151.252C141.085 151.252 140.441 151.131 139.872 150.888C139.312 150.645 138.836 150.3 138.444 149.852C138.061 149.395 137.767 148.844 137.562 148.2C137.366 147.547 137.268 146.819 137.268 146.016C137.268 145.195 137.375 144.457 137.59 143.804C137.814 143.151 138.127 142.6 138.528 142.152C138.929 141.695 139.41 141.349 139.97 141.116C140.53 140.873 141.146 140.752 141.818 140.752C142.443 140.752 142.985 140.831 143.442 140.99C143.899 141.149 144.287 141.377 144.604 141.676C144.931 141.965 145.187 142.315 145.374 142.726C145.57 143.137 145.715 143.594 145.808 144.098L144.142 144.336C144.067 144 143.974 143.701 143.862 143.44C143.75 143.179 143.601 142.959 143.414 142.782C143.237 142.595 143.017 142.455 142.756 142.362C142.495 142.259 142.182 142.208 141.818 142.208C141.37 142.208 140.973 142.297 140.628 142.474C140.283 142.651 139.989 142.908 139.746 143.244C139.513 143.571 139.335 143.967 139.214 144.434C139.093 144.901 139.032 145.423 139.032 146.002C139.032 146.59 139.093 147.117 139.214 147.584C139.345 148.051 139.531 148.452 139.774 148.788C140.017 149.115 140.306 149.367 140.642 149.544C140.987 149.712 141.379 149.796 141.818 149.796C142.21 149.796 142.541 149.745 142.812 149.642C143.092 149.539 143.325 149.395 143.512 149.208C143.699 149.021 143.843 148.797 143.946 148.536C144.058 148.265 144.137 147.962 144.184 147.626H145.976ZM151.925 151.252C151.206 151.252 150.558 151.135 149.979 150.902C149.41 150.659 148.92 150.314 148.509 149.866C148.098 149.418 147.781 148.872 147.557 148.228C147.342 147.575 147.235 146.837 147.235 146.016C147.235 145.195 147.347 144.457 147.571 143.804C147.795 143.151 148.112 142.6 148.523 142.152C148.934 141.695 149.428 141.349 150.007 141.116C150.586 140.873 151.225 140.752 151.925 140.752C152.634 140.752 153.278 140.873 153.857 141.116C154.436 141.349 154.926 141.69 155.327 142.138C155.728 142.586 156.036 143.137 156.251 143.79C156.475 144.434 156.587 145.167 156.587 145.988C156.587 146.819 156.48 147.561 156.265 148.214C156.05 148.858 155.742 149.409 155.341 149.866C154.94 150.314 154.45 150.659 153.871 150.902C153.302 151.135 152.653 151.252 151.925 151.252ZM151.911 149.796C152.872 149.796 153.6 149.46 154.095 148.788C154.59 148.107 154.837 147.178 154.837 146.002C154.837 145.414 154.772 144.887 154.641 144.42C154.52 143.953 154.338 143.557 154.095 143.23C153.852 142.903 153.549 142.651 153.185 142.474C152.821 142.297 152.396 142.208 151.911 142.208C151.426 142.208 151.001 142.297 150.637 142.474C150.273 142.651 149.965 142.903 149.713 143.23C149.47 143.557 149.288 143.953 149.167 144.42C149.046 144.887 148.985 145.414 148.985 146.002C148.985 147.178 149.228 148.107 149.713 148.788C150.208 149.46 150.94 149.796 151.911 149.796ZM159.491 147.948C159.566 148.601 159.799 149.077 160.191 149.376C160.593 149.675 161.185 149.824 161.969 149.824C162.352 149.824 162.674 149.782 162.935 149.698C163.197 149.614 163.407 149.502 163.565 149.362C163.724 149.222 163.836 149.059 163.901 148.872C163.967 148.676 163.999 148.471 163.999 148.256C163.999 148.097 163.976 147.943 163.929 147.794C163.883 147.635 163.799 147.491 163.677 147.36C163.556 147.229 163.393 147.117 163.187 147.024C162.982 146.921 162.721 146.842 162.403 146.786L161.129 146.548C160.625 146.455 160.177 146.338 159.785 146.198C159.393 146.058 159.062 145.876 158.791 145.652C158.53 145.419 158.329 145.139 158.189 144.812C158.059 144.476 157.993 144.07 157.993 143.594C157.993 143.118 158.087 142.703 158.273 142.348C158.469 141.993 158.735 141.699 159.071 141.466C159.407 141.223 159.804 141.046 160.261 140.934C160.728 140.813 161.232 140.752 161.773 140.752C162.464 140.752 163.043 140.831 163.509 140.99C163.976 141.149 164.354 141.359 164.643 141.62C164.933 141.872 165.152 142.166 165.301 142.502C165.451 142.838 165.553 143.188 165.609 143.552L164.013 143.804C163.883 143.244 163.654 142.829 163.327 142.558C163.01 142.287 162.501 142.152 161.801 142.152C161.4 142.152 161.064 142.189 160.793 142.264C160.532 142.329 160.317 142.427 160.149 142.558C159.991 142.679 159.874 142.824 159.799 142.992C159.734 143.151 159.701 143.319 159.701 143.496C159.701 143.935 159.818 144.261 160.051 144.476C160.294 144.691 160.714 144.859 161.311 144.98L162.697 145.246C163.752 145.442 164.527 145.778 165.021 146.254C165.516 146.721 165.763 147.397 165.763 148.284C165.763 148.704 165.684 149.096 165.525 149.46C165.376 149.815 165.143 150.127 164.825 150.398C164.508 150.659 164.111 150.865 163.635 151.014C163.169 151.173 162.623 151.252 161.997 151.252C160.719 151.252 159.715 150.986 158.987 150.454C158.259 149.913 157.858 149.077 157.783 147.948H159.491Z" fill="#F2F2F0"></path>
<g clip-path="url(#clip0_2003_2066)">
<path d="M267.033 11.1111L261 80.6333L311.767 85.0333L311.311 90.2666C325.289 99.5666 338.433 94.2222 340.567 92.4889L346.756 21.1222C343.567 18.4666 335.9 16.7555 329.1 16.4889L267.033 11.1111Z" fill="#08CC84"></path>
<path d="M333.555 10.9444L271.478 5.55554L265.444 75.0778L316.211 79.4778L315.755 84.7111C329.733 94.0111 342.878 88.6666 345.011 86.9333L351.2 15.5667C348.011 12.9111 340.344 11.2 333.544 10.9333L333.555 10.9444Z" fill="black" stroke="#FF7F4D" stroke-width="2.22222" stroke-linejoin="round"></path>
<path d="M275.864 10.1145L270.703 69.5798L316.409 73.5464L321.57 14.0811L275.864 10.1145Z" fill="black"></path>
<path d="M276.867 11.3111L320.367 15.0889L315.4 72.3334L271.9 68.5556L276.867 11.3111ZM274.844 8.91113L269.489 70.5889L317.411 74.7445L322.767 13.0667L274.844 8.91113Z" fill="#FF7F4D"></path>
<path d="M327.322 16.5556C327.766 16.5556 335.878 11.2444 345.744 18.7111C345.878 18.7333 334.711 21.6556 327.322 16.5556Z" fill="black" stroke="#FF7F4D" stroke-width="2.22222" stroke-linejoin="round"></path>
<path d="M326.689 21C326.689 21 336.744 24.7889 345.722 22.6556L341.055 76.4222C341.055 76.4222 329.744 77.5111 322.055 74.3778L326.689 21Z" fill="black" stroke="#FF7F4D" stroke-width="2.22222" stroke-linejoin="round"></path>
<path d="M321.744 79.7778L340.467 81.4001L340.289 83.4889C333.333 86.1223 327.4 85.4778 321.567 81.8667L321.744 79.7778Z" stroke="#FF7F4D" stroke-width="2.22222" stroke-linejoin="round"></path>
</g>
<path d="M268.819 124.004H272.277C273.033 124.004 273.654 124.088 274.139 124.256C274.634 124.424 275.021 124.648 275.301 124.928C275.581 125.208 275.777 125.535 275.889 125.908C276.001 126.272 276.057 126.655 276.057 127.056C276.057 127.485 276.001 127.896 275.889 128.288C275.777 128.68 275.576 129.025 275.287 129.324C275.007 129.613 274.624 129.847 274.139 130.024C273.654 130.192 273.042 130.276 272.305 130.276H270.485V134H268.819V124.004ZM272.263 128.862C272.692 128.862 273.042 128.82 273.313 128.736C273.593 128.652 273.812 128.535 273.971 128.386C274.13 128.227 274.237 128.041 274.293 127.826C274.358 127.611 274.391 127.369 274.391 127.098C274.391 126.818 274.358 126.575 274.293 126.37C274.228 126.155 274.111 125.978 273.943 125.838C273.784 125.698 273.565 125.591 273.285 125.516C273.014 125.441 272.669 125.404 272.249 125.404H270.485V128.862H272.263ZM279.387 124.004H281.067L284.875 134H283.069L282.131 131.452H278.253L277.329 134H275.579L279.387 124.004ZM281.669 130.038L280.185 125.922L278.715 130.038H281.669ZM286.086 124.004H289.544C290.3 124.004 290.921 124.088 291.406 124.256C291.901 124.424 292.288 124.648 292.568 124.928C292.848 125.208 293.044 125.535 293.156 125.908C293.268 126.272 293.324 126.655 293.324 127.056C293.324 127.485 293.268 127.896 293.156 128.288C293.044 128.68 292.844 129.025 292.554 129.324C292.274 129.613 291.892 129.847 291.406 130.024C290.921 130.192 290.31 130.276 289.572 130.276H287.752V134H286.086V124.004ZM289.53 128.862C289.96 128.862 290.31 128.82 290.58 128.736C290.86 128.652 291.08 128.535 291.238 128.386C291.397 128.227 291.504 128.041 291.56 127.826C291.626 127.611 291.658 127.369 291.658 127.098C291.658 126.818 291.626 126.575 291.56 126.37C291.495 126.155 291.378 125.978 291.21 125.838C291.052 125.698 290.832 125.591 290.552 125.516C290.282 125.441 289.936 125.404 289.516 125.404H287.752V128.862H289.53ZM294.946 124.004H301.596V125.46H296.64V128.12H301.316V129.59H296.64V132.544H301.862L301.666 134H294.946V124.004ZM305.157 124.004V132.53H310.113L309.903 134H303.463V124.004H305.157ZM320.99 124.004V125.46H316.3V128.288H320.71V129.758H316.3V134H314.606V124.004H320.99ZM322.645 124.004H324.339V134H322.645V124.004ZM328.154 124.004V132.53H333.11L332.9 134H326.46V124.004H328.154ZM334.485 124.004H336.543L339.385 131.956L342.311 124.004H344.299V134H342.745V126.734L340.001 134H338.657L336.011 126.748V134H334.485V124.004Z" fill="#F2F2F0"></path>
<g clip-path="url(#clip1_2003_2066)">
<path d="M496.622 94.0556L524.844 87.2333C532.267 85.4444 536.822 77.9667 535.033 70.5556L520.922 12.2222L508.422 15.2445L512.622 32.9111C513.589 36.9778 511.078 41.0667 507.011 42.0556L490.633 46.0111C486.555 47 482.455 44.5 481.467 40.4222L477.167 22.8L465.833 25.5445L479.933 83.8667C481.722 91.2889 489.2 95.8444 496.611 94.0556H496.622Z" fill="#08CC84"></path>
<path d="M529.289 81.6778L501.066 88.5C493.644 90.2889 486.178 85.7334 484.389 78.3111L470.278 19.9889L481.611 17.2445L485.911 34.8667C486.9 38.9334 491.011 41.4334 495.078 40.4556L511.455 36.5C515.522 35.5111 518.033 31.4334 517.066 27.3556L512.866 9.68891L525.366 6.66669L539.466 64.9889C541.255 72.4111 536.7 79.8778 529.278 81.6667L529.289 81.6778Z" fill="black" stroke="#FF7F4D" stroke-width="2.22222" stroke-linejoin="round"></path>
</g>
<path d="M433.513 124.004H436.971C437.699 124.004 438.296 124.074 438.763 124.214C439.23 124.345 439.598 124.531 439.869 124.774C440.149 125.007 440.34 125.287 440.443 125.614C440.546 125.931 440.597 126.272 440.597 126.636C440.597 127.056 440.504 127.448 440.317 127.812C440.13 128.167 439.79 128.461 439.295 128.694C439.612 128.834 439.874 128.993 440.079 129.17C440.284 129.347 440.448 129.539 440.569 129.744C440.69 129.94 440.774 130.15 440.821 130.374C440.868 130.589 440.891 130.808 440.891 131.032C440.891 131.443 440.826 131.83 440.695 132.194C440.574 132.558 440.368 132.875 440.079 133.146C439.79 133.407 439.412 133.617 438.945 133.776C438.478 133.925 437.904 134 437.223 134H433.513V124.004ZM437.167 128.106C437.83 128.106 438.292 127.985 438.553 127.742C438.814 127.499 438.945 127.149 438.945 126.692C438.945 126.216 438.791 125.875 438.483 125.67C438.184 125.455 437.662 125.348 436.915 125.348H435.151V128.106H437.167ZM437.167 132.642C437.568 132.642 437.9 132.605 438.161 132.53C438.432 132.455 438.642 132.348 438.791 132.208C438.95 132.068 439.062 131.9 439.127 131.704C439.192 131.508 439.225 131.289 439.225 131.046C439.225 130.542 439.08 130.159 438.791 129.898C438.511 129.627 438.021 129.492 437.321 129.492H435.151V132.642H437.167ZM446.822 134.252C446.103 134.252 445.455 134.135 444.876 133.902C444.307 133.659 443.817 133.314 443.406 132.866C442.995 132.418 442.678 131.872 442.454 131.228C442.239 130.575 442.132 129.837 442.132 129.016C442.132 128.195 442.244 127.457 442.468 126.804C442.692 126.151 443.009 125.6 443.42 125.152C443.831 124.695 444.325 124.349 444.904 124.116C445.483 123.873 446.122 123.752 446.822 123.752C447.531 123.752 448.175 123.873 448.754 124.116C449.333 124.349 449.823 124.69 450.224 125.138C450.625 125.586 450.933 126.137 451.148 126.79C451.372 127.434 451.484 128.167 451.484 128.988C451.484 129.819 451.377 130.561 451.162 131.214C450.947 131.858 450.639 132.409 450.238 132.866C449.837 133.314 449.347 133.659 448.768 133.902C448.199 134.135 447.55 134.252 446.822 134.252ZM446.808 132.796C447.769 132.796 448.497 132.46 448.992 131.788C449.487 131.107 449.734 130.178 449.734 129.002C449.734 128.414 449.669 127.887 449.538 127.42C449.417 126.953 449.235 126.557 448.992 126.23C448.749 125.903 448.446 125.651 448.082 125.474C447.718 125.297 447.293 125.208 446.808 125.208C446.323 125.208 445.898 125.297 445.534 125.474C445.17 125.651 444.862 125.903 444.61 126.23C444.367 126.557 444.185 126.953 444.064 127.42C443.943 127.887 443.882 128.414 443.882 129.002C443.882 130.178 444.125 131.107 444.61 131.788C445.105 132.46 445.837 132.796 446.808 132.796ZM454.977 124.004V132.53H459.933L459.723 134H453.283V124.004H454.977ZM462.414 130.948C462.489 131.601 462.722 132.077 463.114 132.376C463.515 132.675 464.108 132.824 464.892 132.824C465.275 132.824 465.597 132.782 465.858 132.698C466.119 132.614 466.329 132.502 466.488 132.362C466.647 132.222 466.759 132.059 466.824 131.872C466.889 131.676 466.922 131.471 466.922 131.256C466.922 131.097 466.899 130.943 466.852 130.794C466.805 130.635 466.721 130.491 466.6 130.36C466.479 130.229 466.315 130.117 466.11 130.024C465.905 129.921 465.643 129.842 465.326 129.786L464.052 129.548C463.548 129.455 463.1 129.338 462.708 129.198C462.316 129.058 461.985 128.876 461.714 128.652C461.453 128.419 461.252 128.139 461.112 127.812C460.981 127.476 460.916 127.07 460.916 126.594C460.916 126.118 461.009 125.703 461.196 125.348C461.392 124.993 461.658 124.699 461.994 124.466C462.33 124.223 462.727 124.046 463.184 123.934C463.651 123.813 464.155 123.752 464.696 123.752C465.387 123.752 465.965 123.831 466.432 123.99C466.899 124.149 467.277 124.359 467.566 124.62C467.855 124.872 468.075 125.166 468.224 125.502C468.373 125.838 468.476 126.188 468.532 126.552L466.936 126.804C466.805 126.244 466.577 125.829 466.25 125.558C465.933 125.287 465.424 125.152 464.724 125.152C464.323 125.152 463.987 125.189 463.716 125.264C463.455 125.329 463.24 125.427 463.072 125.558C462.913 125.679 462.797 125.824 462.722 125.992C462.657 126.151 462.624 126.319 462.624 126.496C462.624 126.935 462.741 127.261 462.974 127.476C463.217 127.691 463.637 127.859 464.234 127.98L465.62 128.246C466.675 128.442 467.449 128.778 467.944 129.254C468.439 129.721 468.686 130.397 468.686 131.284C468.686 131.704 468.607 132.096 468.448 132.46C468.299 132.815 468.065 133.127 467.748 133.398C467.431 133.659 467.034 133.865 466.558 134.014C466.091 134.173 465.545 134.252 464.92 134.252C463.641 134.252 462.638 133.986 461.91 133.454C461.182 132.913 460.781 132.077 460.706 130.948H462.414ZM473.216 124.004H474.896L478.704 134H476.898L475.96 131.452H472.082L471.158 134H469.408L473.216 124.004ZM475.498 130.038L474.014 125.922L472.544 130.038H475.498ZM480.748 130.948C480.823 131.601 481.056 132.077 481.448 132.376C481.849 132.675 482.442 132.824 483.226 132.824C483.609 132.824 483.931 132.782 484.192 132.698C484.453 132.614 484.663 132.502 484.822 132.362C484.981 132.222 485.093 132.059 485.158 131.872C485.223 131.676 485.256 131.471 485.256 131.256C485.256 131.097 485.233 130.943 485.186 130.794C485.139 130.635 485.055 130.491 484.934 130.36C484.813 130.229 484.649 130.117 484.444 130.024C484.239 129.921 483.977 129.842 483.66 129.786L482.386 129.548C481.882 129.455 481.434 129.338 481.042 129.198C480.65 129.058 480.319 128.876 480.048 128.652C479.787 128.419 479.586 128.139 479.446 127.812C479.315 127.476 479.25 127.07 479.25 126.594C479.25 126.118 479.343 125.703 479.53 125.348C479.726 124.993 479.992 124.699 480.328 124.466C480.664 124.223 481.061 124.046 481.518 123.934C481.985 123.813 482.489 123.752 483.03 123.752C483.721 123.752 484.299 123.831 484.766 123.99C485.233 124.149 485.611 124.359 485.9 124.62C486.189 124.872 486.409 125.166 486.558 125.502C486.707 125.838 486.81 126.188 486.866 126.552L485.27 126.804C485.139 126.244 484.911 125.829 484.584 125.558C484.267 125.287 483.758 125.152 483.058 125.152C482.657 125.152 482.321 125.189 482.05 125.264C481.789 125.329 481.574 125.427 481.406 125.558C481.247 125.679 481.131 125.824 481.056 125.992C480.991 126.151 480.958 126.319 480.958 126.496C480.958 126.935 481.075 127.261 481.308 127.476C481.551 127.691 481.971 127.859 482.568 127.98L483.954 128.246C485.009 128.442 485.783 128.778 486.278 129.254C486.773 129.721 487.02 130.397 487.02 131.284C487.02 131.704 486.941 132.096 486.782 132.46C486.633 132.815 486.399 133.127 486.082 133.398C485.765 133.659 485.368 133.865 484.892 134.014C484.425 134.173 483.879 134.252 483.254 134.252C481.975 134.252 480.972 133.986 480.244 133.454C479.516 132.913 479.115 132.077 479.04 130.948H480.748ZM491.769 124.004H495.227C495.983 124.004 496.604 124.088 497.089 124.256C497.584 124.424 497.971 124.648 498.251 124.928C498.531 125.208 498.727 125.535 498.839 125.908C498.951 126.272 499.007 126.655 499.007 127.056C499.007 127.485 498.951 127.896 498.839 128.288C498.727 128.68 498.526 129.025 498.237 129.324C497.957 129.613 497.574 129.847 497.089 130.024C496.604 130.192 495.992 130.276 495.255 130.276H493.435V134H491.769V124.004ZM495.213 128.862C495.642 128.862 495.992 128.82 496.263 128.736C496.543 128.652 496.762 128.535 496.921 128.386C497.08 128.227 497.187 128.041 497.243 127.826C497.308 127.611 497.341 127.369 497.341 127.098C497.341 126.818 497.308 126.575 497.243 126.37C497.178 126.155 497.061 125.978 496.893 125.838C496.734 125.698 496.515 125.591 496.235 125.516C495.964 125.441 495.619 125.404 495.199 125.404H493.435V128.862H495.213ZM502.322 124.004V132.53H507.278L507.068 134H500.628V124.004H502.322ZM511.825 124.004H513.505L517.313 134H515.507L514.569 131.452H510.691L509.767 134H508.017L511.825 124.004ZM514.107 130.038L512.623 125.922L511.153 130.038H514.107ZM515.087 121.232L513.001 123.178H511.475L513.197 121.232H515.087ZM519.357 130.948C519.432 131.601 519.665 132.077 520.057 132.376C520.459 132.675 521.051 132.824 521.835 132.824C522.218 132.824 522.54 132.782 522.801 132.698C523.063 132.614 523.273 132.502 523.431 132.362C523.59 132.222 523.702 132.059 523.767 131.872C523.833 131.676 523.865 131.471 523.865 131.256C523.865 131.097 523.842 130.943 523.795 130.794C523.749 130.635 523.665 130.491 523.543 130.36C523.422 130.229 523.259 130.117 523.053 130.024C522.848 129.921 522.587 129.842 522.269 129.786L520.995 129.548C520.491 129.455 520.043 129.338 519.651 129.198C519.259 129.058 518.928 128.876 518.657 128.652C518.396 128.419 518.195 128.139 518.055 127.812C517.925 127.476 517.859 127.07 517.859 126.594C517.859 126.118 517.953 125.703 518.139 125.348C518.335 124.993 518.601 124.699 518.937 124.466C519.273 124.223 519.67 124.046 520.127 123.934C520.594 123.813 521.098 123.752 521.639 123.752C522.33 123.752 522.909 123.831 523.375 123.99C523.842 124.149 524.22 124.359 524.509 124.62C524.799 124.872 525.018 125.166 525.167 125.502C525.317 125.838 525.419 126.188 525.475 126.552L523.879 126.804C523.749 126.244 523.52 125.829 523.193 125.558C522.876 125.287 522.367 125.152 521.667 125.152C521.266 125.152 520.93 125.189 520.659 125.264C520.398 125.329 520.183 125.427 520.015 125.558C519.857 125.679 519.74 125.824 519.665 125.992C519.6 126.151 519.567 126.319 519.567 126.496C519.567 126.935 519.684 127.261 519.917 127.476C520.16 127.691 520.58 127.859 521.177 127.98L522.563 128.246C523.618 128.442 524.393 128.778 524.887 129.254C525.382 129.721 525.629 130.397 525.629 131.284C525.629 131.704 525.55 132.096 525.391 132.46C525.242 132.815 525.009 133.127 524.691 133.398C524.374 133.659 523.977 133.865 523.501 134.014C523.035 134.173 522.489 134.252 521.863 134.252C520.585 134.252 519.581 133.986 518.853 133.454C518.125 132.913 517.724 132.077 517.649 130.948H519.357ZM529.49 125.474H526.326V124.004H534.334V125.474H531.184V134H529.49V125.474ZM535.669 124.004H537.363V134H535.669V124.004ZM547.856 130.626C547.8 131.149 547.674 131.629 547.478 132.068C547.282 132.507 547.011 132.889 546.666 133.216C546.32 133.543 545.9 133.799 545.406 133.986C544.911 134.163 544.337 134.252 543.684 134.252C542.965 134.252 542.321 134.131 541.752 133.888C541.192 133.645 540.716 133.3 540.324 132.852C539.941 132.395 539.647 131.844 539.442 131.2C539.246 130.547 539.148 129.819 539.148 129.016C539.148 128.195 539.255 127.457 539.47 126.804C539.694 126.151 540.006 125.6 540.408 125.152C540.809 124.695 541.29 124.349 541.85 124.116C542.41 123.873 543.026 123.752 543.698 123.752C544.323 123.752 544.864 123.831 545.322 123.99C545.779 124.149 546.166 124.377 546.484 124.676C546.81 124.965 547.067 125.315 547.254 125.726C547.45 126.137 547.594 126.594 547.688 127.098L546.022 127.336C545.947 127 545.854 126.701 545.742 126.44C545.63 126.179 545.48 125.959 545.294 125.782C545.116 125.595 544.897 125.455 544.636 125.362C544.374 125.259 544.062 125.208 543.698 125.208C543.25 125.208 542.853 125.297 542.508 125.474C542.162 125.651 541.868 125.908 541.626 126.244C541.392 126.571 541.215 126.967 541.094 127.434C540.972 127.901 540.912 128.423 540.912 129.002C540.912 129.59 540.972 130.117 541.094 130.584C541.224 131.051 541.411 131.452 541.654 131.788C541.896 132.115 542.186 132.367 542.522 132.544C542.867 132.712 543.259 132.796 543.698 132.796C544.09 132.796 544.421 132.745 544.692 132.642C544.972 132.539 545.205 132.395 545.392 132.208C545.578 132.021 545.723 131.797 545.826 131.536C545.938 131.265 546.017 130.962 546.064 130.626H547.856ZM552.143 124.004H553.823L557.631 134H555.825L554.887 131.452H551.009L550.085 134H548.335L552.143 124.004ZM554.425 130.038L552.941 125.922L551.471 130.038H554.425ZM559.676 130.948C559.75 131.601 559.984 132.077 560.376 132.376C560.777 132.675 561.37 132.824 562.154 132.824C562.536 132.824 562.858 132.782 563.12 132.698C563.381 132.614 563.591 132.502 563.75 132.362C563.908 132.222 564.02 132.059 564.086 131.872C564.151 131.676 564.184 131.471 564.184 131.256C564.184 131.097 564.16 130.943 564.114 130.794C564.067 130.635 563.983 130.491 563.862 130.36C563.74 130.229 563.577 130.117 563.372 130.024C563.166 129.921 562.905 129.842 562.588 129.786L561.314 129.548C560.81 129.455 560.362 129.338 559.97 129.198C559.578 129.058 559.246 128.876 558.976 128.652C558.714 128.419 558.514 128.139 558.374 127.812C558.243 127.476 558.178 127.07 558.178 126.594C558.178 126.118 558.271 125.703 558.458 125.348C558.654 124.993 558.92 124.699 559.256 124.466C559.592 124.223 559.988 124.046 560.446 123.934C560.912 123.813 561.416 123.752 561.958 123.752C562.648 123.752 563.227 123.831 563.694 123.99C564.16 124.149 564.538 124.359 564.828 124.62C565.117 124.872 565.336 125.166 565.486 125.502C565.635 125.838 565.738 126.188 565.794 126.552L564.198 126.804C564.067 126.244 563.838 125.829 563.512 125.558C563.194 125.287 562.686 125.152 561.986 125.152C561.584 125.152 561.248 125.189 560.978 125.264C560.716 125.329 560.502 125.427 560.334 125.558C560.175 125.679 560.058 125.824 559.984 125.992C559.918 126.151 559.886 126.319 559.886 126.496C559.886 126.935 560.002 127.261 560.236 127.476C560.478 127.691 560.898 127.859 561.496 127.98L562.882 128.246C563.936 128.442 564.711 128.778 565.206 129.254C565.7 129.721 565.948 130.397 565.948 131.284C565.948 131.704 565.868 132.096 565.71 132.46C565.56 132.815 565.327 133.127 565.01 133.398C564.692 133.659 564.296 133.865 563.82 134.014C563.353 134.173 562.807 134.252 562.182 134.252C560.903 134.252 559.9 133.986 559.172 133.454C558.444 132.913 558.042 132.077 557.968 130.948H559.676ZM566.75 134L569.956 123.724H571.552L568.346 134H566.75ZM455.27 147.948C455.345 148.601 455.578 149.077 455.97 149.376C456.372 149.675 456.964 149.824 457.748 149.824C458.131 149.824 458.453 149.782 458.714 149.698C458.976 149.614 459.186 149.502 459.344 149.362C459.503 149.222 459.615 149.059 459.68 148.872C459.746 148.676 459.778 148.471 459.778 148.256C459.778 148.097 459.755 147.943 459.708 147.794C459.662 147.635 459.578 147.491 459.456 147.36C459.335 147.229 459.172 147.117 458.966 147.024C458.761 146.921 458.5 146.842 458.182 146.786L456.908 146.548C456.404 146.455 455.956 146.338 455.564 146.198C455.172 146.058 454.841 145.876 454.57 145.652C454.309 145.419 454.108 145.139 453.968 144.812C453.838 144.476 453.772 144.07 453.772 143.594C453.772 143.118 453.866 142.703 454.052 142.348C454.248 141.993 454.514 141.699 454.85 141.466C455.186 141.223 455.583 141.046 456.04 140.934C456.507 140.813 457.011 140.752 457.552 140.752C458.243 140.752 458.822 140.831 459.288 140.99C459.755 141.149 460.133 141.359 460.422 141.62C460.712 141.872 460.931 142.166 461.08 142.502C461.23 142.838 461.332 143.188 461.388 143.552L459.792 143.804C459.662 143.244 459.433 142.829 459.106 142.558C458.789 142.287 458.28 142.152 457.58 142.152C457.179 142.152 456.843 142.189 456.572 142.264C456.311 142.329 456.096 142.427 455.928 142.558C455.77 142.679 455.653 142.824 455.578 142.992C455.513 143.151 455.48 143.319 455.48 143.496C455.48 143.935 455.597 144.261 455.83 144.476C456.073 144.691 456.493 144.859 457.09 144.98L458.476 145.246C459.531 145.442 460.306 145.778 460.8 146.254C461.295 146.721 461.542 147.397 461.542 148.284C461.542 148.704 461.463 149.096 461.304 149.46C461.155 149.815 460.922 150.127 460.604 150.398C460.287 150.659 459.89 150.865 459.414 151.014C458.948 151.173 458.402 151.252 457.776 151.252C456.498 151.252 455.494 150.986 454.766 150.454C454.038 149.913 453.637 149.077 453.562 147.948H455.27ZM463.174 141.004H469.824V142.46H464.868V145.12H469.544V146.59H464.868V149.544H470.09L469.894 151H463.174V141.004ZM471.692 141.004H475.15C475.906 141.004 476.526 141.088 477.012 141.256C477.506 141.424 477.894 141.648 478.174 141.928C478.454 142.208 478.65 142.535 478.762 142.908C478.874 143.272 478.93 143.655 478.93 144.056C478.93 144.485 478.874 144.896 478.762 145.288C478.65 145.68 478.449 146.025 478.16 146.324C477.88 146.613 477.497 146.847 477.012 147.024C476.526 147.192 475.915 147.276 475.178 147.276H473.358V151H471.692V141.004ZM475.136 145.862C475.565 145.862 475.915 145.82 476.186 145.736C476.466 145.652 476.685 145.535 476.844 145.386C477.002 145.227 477.11 145.041 477.166 144.826C477.231 144.611 477.264 144.369 477.264 144.098C477.264 143.818 477.231 143.575 477.166 143.37C477.1 143.155 476.984 142.978 476.816 142.838C476.657 142.698 476.438 142.591 476.158 142.516C475.887 142.441 475.542 142.404 475.122 142.404H473.358V145.862H475.136ZM482.26 141.004H483.94L487.748 151H485.942L485.004 148.452H481.126L480.202 151H478.452L482.26 141.004ZM484.542 147.038L483.058 142.922L481.588 147.038H484.542ZM492.501 145.624C492.884 145.624 493.201 145.587 493.453 145.512C493.705 145.428 493.901 145.316 494.041 145.176C494.191 145.027 494.293 144.849 494.349 144.644C494.415 144.439 494.447 144.21 494.447 143.958C494.447 143.725 494.41 143.515 494.335 143.328C494.27 143.132 494.153 142.969 493.985 142.838C493.827 142.698 493.612 142.591 493.341 142.516C493.071 142.441 492.735 142.404 492.333 142.404H490.625V145.624H492.501ZM492.375 141.004C493.131 141.004 493.752 141.093 494.237 141.27C494.732 141.447 495.119 141.681 495.399 141.97C495.689 142.25 495.889 142.563 496.001 142.908C496.113 143.253 496.169 143.594 496.169 143.93C496.169 144.583 496.039 145.129 495.777 145.568C495.525 146.007 495.115 146.361 494.545 146.632L496.617 151H494.769L492.977 147.024C492.893 147.033 492.805 147.043 492.711 147.052C492.618 147.052 492.52 147.052 492.417 147.052H490.625V151H488.959V141.004H492.375ZM501.127 141.004H502.807L506.615 151H504.809L503.871 148.452H499.993L499.069 151H497.319L501.127 141.004ZM503.409 147.038L501.925 142.922L500.455 147.038H503.409ZM511.158 149.558C511.746 149.558 512.246 149.474 512.656 149.306C513.076 149.138 513.417 148.895 513.678 148.578C513.949 148.261 514.145 147.883 514.266 147.444C514.388 147.005 514.448 146.511 514.448 145.96C514.448 144.859 514.215 144 513.748 143.384C513.282 142.759 512.516 142.446 511.452 142.446H509.52V149.558H511.158ZM511.438 141.004C512.176 141.004 512.838 141.107 513.426 141.312C514.014 141.508 514.514 141.811 514.924 142.222C515.335 142.633 515.648 143.151 515.862 143.776C516.086 144.392 516.198 145.115 516.198 145.946C516.198 146.777 516.082 147.509 515.848 148.144C515.615 148.769 515.279 149.297 514.84 149.726C514.402 150.146 513.865 150.463 513.23 150.678C512.605 150.893 511.896 151 511.102 151H507.826V141.004H511.438ZM522.339 151.252C521.62 151.252 520.971 151.135 520.393 150.902C519.823 150.659 519.333 150.314 518.923 149.866C518.512 149.418 518.195 148.872 517.971 148.228C517.756 147.575 517.649 146.837 517.649 146.016C517.649 145.195 517.761 144.457 517.985 143.804C518.209 143.151 518.526 142.6 518.937 142.152C519.347 141.695 519.842 141.349 520.421 141.116C520.999 140.873 521.639 140.752 522.339 140.752C523.048 140.752 523.692 140.873 524.271 141.116C524.849 141.349 525.339 141.69 525.741 142.138C526.142 142.586 526.45 143.137 526.665 143.79C526.889 144.434 527.001 145.167 527.001 145.988C527.001 146.819 526.893 147.561 526.679 148.214C526.464 148.858 526.156 149.409 525.755 149.866C525.353 150.314 524.863 150.659 524.285 150.902C523.715 151.135 523.067 151.252 522.339 151.252ZM522.325 149.796C523.286 149.796 524.014 149.46 524.509 148.788C525.003 148.107 525.251 147.178 525.251 146.002C525.251 145.414 525.185 144.887 525.055 144.42C524.933 143.953 524.751 143.557 524.509 143.23C524.266 142.903 523.963 142.651 523.599 142.474C523.235 142.297 522.81 142.208 522.325 142.208C521.839 142.208 521.415 142.297 521.051 142.474C520.687 142.651 520.379 142.903 520.127 143.23C519.884 143.557 519.702 143.953 519.581 144.42C519.459 144.887 519.399 145.414 519.399 146.002C519.399 147.178 519.641 148.107 520.127 148.788C520.621 149.46 521.354 149.796 522.325 149.796ZM532.341 145.624C532.724 145.624 533.041 145.587 533.293 145.512C533.545 145.428 533.741 145.316 533.881 145.176C534.03 145.027 534.133 144.849 534.189 144.644C534.254 144.439 534.287 144.21 534.287 143.958C534.287 143.725 534.25 143.515 534.175 143.328C534.11 143.132 533.993 142.969 533.825 142.838C533.666 142.698 533.452 142.591 533.181 142.516C532.91 142.441 532.574 142.404 532.173 142.404H530.465V145.624H532.341ZM532.215 141.004C532.971 141.004 533.592 141.093 534.077 141.27C534.572 141.447 534.959 141.681 535.239 141.97C535.528 142.25 535.729 142.563 535.841 142.908C535.953 143.253 536.009 143.594 536.009 143.93C536.009 144.583 535.878 145.129 535.617 145.568C535.365 146.007 534.954 146.361 534.385 146.632L536.457 151H534.609L532.817 147.024C532.733 147.033 532.644 147.043 532.551 147.052C532.458 147.052 532.36 147.052 532.257 147.052H530.465V151H528.799V141.004H532.215ZM537.795 141.004H544.445V142.46H539.489V145.12H544.165V146.59H539.489V149.544H544.711L544.515 151H537.795V141.004ZM547.282 147.948C547.357 148.601 547.59 149.077 547.982 149.376C548.383 149.675 548.976 149.824 549.76 149.824C550.143 149.824 550.465 149.782 550.726 149.698C550.987 149.614 551.197 149.502 551.356 149.362C551.515 149.222 551.627 149.059 551.692 148.872C551.757 148.676 551.79 148.471 551.79 148.256C551.79 148.097 551.767 147.943 551.72 147.794C551.673 147.635 551.589 147.491 551.468 147.36C551.347 147.229 551.183 147.117 550.978 147.024C550.773 146.921 550.511 146.842 550.194 146.786L548.92 146.548C548.416 146.455 547.968 146.338 547.576 146.198C547.184 146.058 546.853 145.876 546.582 145.652C546.321 145.419 546.12 145.139 545.98 144.812C545.849 144.476 545.784 144.07 545.784 143.594C545.784 143.118 545.877 142.703 546.064 142.348C546.26 141.993 546.526 141.699 546.862 141.466C547.198 141.223 547.595 141.046 548.052 140.934C548.519 140.813 549.023 140.752 549.564 140.752C550.255 140.752 550.833 140.831 551.3 140.99C551.767 141.149 552.145 141.359 552.434 141.62C552.723 141.872 552.943 142.166 553.092 142.502C553.241 142.838 553.344 143.188 553.4 143.552L551.804 143.804C551.673 143.244 551.445 142.829 551.118 142.558C550.801 142.287 550.292 142.152 549.592 142.152C549.191 142.152 548.855 142.189 548.584 142.264C548.323 142.329 548.108 142.427 547.94 142.558C547.781 142.679 547.665 142.824 547.59 142.992C547.525 143.151 547.492 143.319 547.492 143.496C547.492 143.935 547.609 144.261 547.842 144.476C548.085 144.691 548.505 144.859 549.102 144.98L550.488 145.246C551.543 145.442 552.317 145.778 552.812 146.254C553.307 146.721 553.554 147.397 553.554 148.284C553.554 148.704 553.475 149.096 553.316 149.46C553.167 149.815 552.933 150.127 552.616 150.398C552.299 150.659 551.902 150.865 551.426 151.014C550.959 151.173 550.413 151.252 549.788 151.252C548.509 151.252 547.506 150.986 546.778 150.454C546.05 149.913 545.649 149.077 545.574 147.948H547.282Z" fill="#F2F2F0"></path>
<defs>
<clipPath id="clip0_2003_2066">
<rect width="91.3222" height="91.1556" fill="white" transform="translate(261 4.44446)"></rect>
</clipPath>
<clipPath id="clip1_2003_2066">
<rect width="75.1444" height="88.8889" fill="white" transform="translate(465.833 5.55554)"></rect>
</clipPath>
</defs>
</svg>