<svg xmlns:xlink="http://www.w3.org/1999/xlink" xmlns="http://www.w3.org/2000/svg" width="350" height="153" viewBox="0 0 350 153" fill="none">
<g clip-path="url(#clip0_2004_2154)">
<path d="M46.4777 17.1224C35.0333 26.0113 38.8 38.3668 38.0111 55.4668C37.2 73.1779 22.1333 78.2668 22.1333 78.2668L61.5444 90.6113C62.1222 90.789 62.7555 90.8002 63.3333 90.6113C85.4778 83.189 79.3444 53.7002 80.5555 43.4557C81.7778 33.0668 88.9 29.2002 88.9 29.2002L49.2111 16.6224C48.2777 16.3224 47.2555 16.5224 46.4777 17.1224Z" fill="#08CC84"></path>
<path d="M103.167 19.2224H98.8778C98.3194 19.2224 97.8667 19.675 97.8667 20.2335V87.6335C97.8667 88.1919 98.3194 88.6446 98.8778 88.6446H103.167C103.725 88.6446 104.178 88.1919 104.178 87.6335V20.2335C104.178 19.675 103.725 19.2224 103.167 19.2224Z" fill="#08CC84"></path>
<path d="M53.6554 11.0668L93.3554 23.6446C93.3554 23.6446 86.2332 27.5113 85.011 37.9002C83.811 48.1446 89.9332 77.6335 67.7887 85.0557C67.211 85.2446 66.5776 85.2446 65.9999 85.0557L26.5776 72.7113C26.5776 72.7113 41.6443 67.6224 42.4554 49.9113C43.2443 32.8224 39.4776 20.4668 50.9221 11.5668C51.6999 10.9668 52.7221 10.7668 53.6554 11.0668Z" fill="black" stroke="#FF7F4D" stroke-width="2.22222" stroke-linejoin="round"></path>
<path d="M107.611 13.6668H103.322C102.764 13.6668 102.311 14.1195 102.311 14.6779V82.0779C102.311 82.6363 102.764 83.089 103.322 83.089H107.611C108.169 83.089 108.622 82.6363 108.622 82.0779V14.6779C108.622 14.1195 108.169 13.6668 107.611 13.6668Z" fill="black" stroke="#FF7F4D" stroke-width="2.22222" stroke-linejoin="round"></path>
</g>
<path d="M1.2183 124.004H4.6763C5.4323 124.004 6.05296 124.088 6.5383 124.256C7.03296 124.424 7.4203 124.648 7.7003 124.928C7.9803 125.208 8.1763 125.535 8.2883 125.908C8.4003 126.272 8.4563 126.655 8.4563 127.056C8.4563 127.485 8.4003 127.896 8.2883 128.288C8.1763 128.68 7.97563 129.025 7.6863 129.324C7.4063 129.613 7.02363 129.847 6.5383 130.024C6.05296 130.192 5.44163 130.276 4.7043 130.276H2.8843V134H1.2183V124.004ZM4.6623 128.862C5.09163 128.862 5.44163 128.82 5.7123 128.736C5.9923 128.652 6.21163 128.535 6.3703 128.386C6.52896 128.227 6.6363 128.041 6.6923 127.826C6.75763 127.611 6.7903 127.369 6.7903 127.098C6.7903 126.818 6.75763 126.575 6.6923 126.37C6.62696 126.155 6.5103 125.978 6.3423 125.838C6.18363 125.698 5.9643 125.591 5.6843 125.516C5.41363 125.441 5.0683 125.404 4.6483 125.404H2.8843V128.862H4.6623ZM11.7862 124.004H13.4662L17.2742 134H15.4682L14.5302 131.452H10.6522L9.72822 134H7.97822L11.7862 124.004ZM14.0682 130.038L12.5842 125.922L11.1142 130.038H14.0682ZM18.4859 124.004H21.9439C22.6999 124.004 23.3205 124.088 23.8059 124.256C24.3005 124.424 24.6879 124.648 24.9679 124.928C25.2479 125.208 25.4439 125.535 25.5559 125.908C25.6679 126.272 25.7239 126.655 25.7239 127.056C25.7239 127.485 25.6679 127.896 25.5559 128.288C25.4439 128.68 25.2432 129.025 24.9539 129.324C24.6739 129.613 24.2912 129.847 23.8059 130.024C23.3205 130.192 22.7092 130.276 21.9719 130.276H20.1519V134H18.4859V124.004ZM21.9299 128.862C22.3592 128.862 22.7092 128.82 22.9799 128.736C23.2599 128.652 23.4792 128.535 23.6379 128.386C23.7965 128.227 23.9039 128.041 23.9599 127.826C24.0252 127.611 24.0579 127.369 24.0579 127.098C24.0579 126.818 24.0252 126.575 23.9599 126.37C23.8945 126.155 23.7779 125.978 23.6099 125.838C23.4512 125.698 23.2319 125.591 22.9519 125.516C22.6812 125.441 22.3359 125.404 21.9159 125.404H20.1519V128.862H21.9299ZM27.3453 124.004H33.9952V125.46H29.0393V128.12H33.7153V129.59H29.0393V132.544H34.2613L34.0653 134H27.3453V124.004ZM37.5568 124.004V132.53H42.5128L42.3028 134H35.8628V124.004H37.5568ZM45.5089 132.04L44.6969 135.33H43.4649L43.9129 132.04H45.5089ZM52.7484 125.474H49.5844V124.004H57.5924V125.474H54.4424V134H52.7484V125.474ZM58.9273 124.004H65.5773V125.46H60.6213V128.12H65.2973V129.59H60.6213V132.544H65.8433L65.6473 134H58.9273V124.004ZM69.1389 124.004V132.53H74.0949L73.8849 134H67.4449V124.004H69.1389ZM83.1153 128.694V132.81C82.602 133.286 81.9953 133.645 81.2953 133.888C80.5953 134.131 79.8907 134.252 79.1813 134.252C78.4067 134.252 77.7253 134.131 77.1373 133.888C76.5587 133.636 76.0733 133.286 75.6813 132.838C75.2893 132.381 74.9953 131.83 74.7993 131.186C74.6033 130.542 74.5053 129.819 74.5053 129.016C74.5053 128.204 74.6127 127.476 74.8273 126.832C75.042 126.179 75.3453 125.623 75.7373 125.166C76.1293 124.709 76.6053 124.359 77.1653 124.116C77.7253 123.873 78.3507 123.752 79.0413 123.752C79.648 123.752 80.1753 123.831 80.6233 123.99C81.0807 124.139 81.4633 124.349 81.7713 124.62C82.0887 124.891 82.3407 125.208 82.5273 125.572C82.7233 125.927 82.8633 126.309 82.9473 126.72L81.2813 126.958C81.2067 126.678 81.1133 126.431 81.0013 126.216C80.8987 125.992 80.7587 125.805 80.5813 125.656C80.4133 125.507 80.2033 125.395 79.9513 125.32C79.6993 125.236 79.396 125.194 79.0413 125.194C78.5747 125.194 78.164 125.287 77.8093 125.474C77.464 125.651 77.1747 125.908 76.9413 126.244C76.708 126.58 76.5353 126.981 76.4233 127.448C76.3113 127.915 76.2553 128.433 76.2553 129.002C76.2553 129.59 76.3113 130.117 76.4233 130.584C76.5353 131.051 76.7127 131.452 76.9553 131.788C77.198 132.115 77.5013 132.367 77.8653 132.544C78.2387 132.721 78.6867 132.81 79.2093 132.81C79.676 132.81 80.096 132.763 80.4693 132.67C80.8427 132.567 81.202 132.395 81.5473 132.152V130.122H79.3353V128.694H83.1153ZM89.2852 134.252C88.5665 134.252 87.9179 134.135 87.3392 133.902C86.7699 133.659 86.2799 133.314 85.8692 132.866C85.4585 132.418 85.1412 131.872 84.9172 131.228C84.7025 130.575 84.5952 129.837 84.5952 129.016C84.5952 128.195 84.7072 127.457 84.9312 126.804C85.1552 126.151 85.4725 125.6 85.8832 125.152C86.2939 124.695 86.7885 124.349 87.3672 124.116C87.9459 123.873 88.5852 123.752 89.2852 123.752C89.9945 123.752 90.6385 123.873 91.2172 124.116C91.7959 124.349 92.2859 124.69 92.6872 125.138C93.0885 125.586 93.3965 126.137 93.6112 126.79C93.8352 127.434 93.9472 128.167 93.9472 128.988C93.9472 129.819 93.8399 130.561 93.6252 131.214C93.4105 131.858 93.1025 132.409 92.7012 132.866C92.2999 133.314 91.8099 133.659 91.2312 133.902C90.6619 134.135 90.0132 134.252 89.2852 134.252ZM89.2712 132.796C90.2325 132.796 90.9605 132.46 91.4552 131.788C91.9499 131.107 92.1972 130.178 92.1972 129.002C92.1972 128.414 92.1319 127.887 92.0012 127.42C91.8799 126.953 91.6979 126.557 91.4552 126.23C91.2125 125.903 90.9092 125.651 90.5452 125.474C90.1812 125.297 89.7565 125.208 89.2712 125.208C88.7859 125.208 88.3612 125.297 87.9972 125.474C87.6332 125.651 87.3252 125.903 87.0732 126.23C86.8305 126.557 86.6485 126.953 86.5272 127.42C86.4059 127.887 86.3452 128.414 86.3452 129.002C86.3452 130.178 86.5879 131.107 87.0732 131.788C87.5679 132.46 88.3005 132.796 89.2712 132.796ZM95.7456 124.004H99.2036C99.9596 124.004 100.58 124.088 101.066 124.256C101.56 124.424 101.948 124.648 102.228 124.928C102.508 125.208 102.704 125.535 102.816 125.908C102.928 126.272 102.984 126.655 102.984 127.056C102.984 127.485 102.928 127.896 102.816 128.288C102.704 128.68 102.503 129.025 102.214 129.324C101.934 129.613 101.551 129.847 101.066 130.024C100.58 130.192 99.969 130.276 99.2316 130.276H97.4116V134H95.7456V124.004ZM99.1896 128.862C99.619 128.862 99.969 128.82 100.24 128.736C100.52 128.652 100.739 128.535 100.898 128.386C101.056 128.227 101.164 128.041 101.22 127.826C101.285 127.611 101.318 127.369 101.318 127.098C101.318 126.818 101.285 126.575 101.22 126.37C101.154 126.155 101.038 125.978 100.87 125.838C100.711 125.698 100.492 125.591 100.212 125.516C99.941 125.441 99.5956 125.404 99.1756 125.404H97.4116V128.862H99.1896ZM108.822 134.252C108.104 134.252 107.455 134.135 106.876 133.902C106.307 133.659 105.817 133.314 105.406 132.866C104.996 132.418 104.678 131.872 104.454 131.228C104.24 130.575 104.132 129.837 104.132 129.016C104.132 128.195 104.244 127.457 104.468 126.804C104.692 126.151 105.01 125.6 105.42 125.152C105.831 124.695 106.326 124.349 106.904 124.116C107.483 123.873 108.122 123.752 108.822 123.752C109.532 123.752 110.176 123.873 110.754 124.116C111.333 124.349 111.823 124.69 112.224 125.138C112.626 125.586 112.934 126.137 113.148 126.79C113.372 127.434 113.484 128.167 113.484 128.988C113.484 129.819 113.377 130.561 113.162 131.214C112.948 131.858 112.64 132.409 112.238 132.866C111.837 133.314 111.347 133.659 110.768 133.902C110.199 134.135 109.55 134.252 108.822 134.252ZM108.808 132.796C109.77 132.796 110.498 132.46 110.992 131.788C111.487 131.107 111.734 130.178 111.734 129.002C111.734 128.414 111.669 127.887 111.538 127.42C111.417 126.953 111.235 126.557 110.992 126.23C110.75 125.903 110.446 125.651 110.082 125.474C109.718 125.297 109.294 125.208 108.808 125.208C108.323 125.208 107.898 125.297 107.534 125.474C107.17 125.651 106.862 125.903 106.61 126.23C106.368 126.557 106.186 126.953 106.064 127.42C105.943 127.887 105.882 128.414 105.882 129.002C105.882 130.178 106.125 131.107 106.61 131.788C107.105 132.46 107.838 132.796 108.808 132.796ZM118.825 128.624C119.207 128.624 119.525 128.587 119.777 128.512C120.029 128.428 120.225 128.316 120.365 128.176C120.514 128.027 120.617 127.849 120.673 127.644C120.738 127.439 120.771 127.21 120.771 126.958C120.771 126.725 120.733 126.515 120.659 126.328C120.593 126.132 120.477 125.969 120.309 125.838C120.15 125.698 119.935 125.591 119.665 125.516C119.394 125.441 119.058 125.404 118.657 125.404H116.949V128.624H118.825ZM118.699 124.004C119.455 124.004 120.075 124.093 120.561 124.27C121.055 124.447 121.443 124.681 121.723 124.97C122.012 125.25 122.213 125.563 122.325 125.908C122.437 126.253 122.493 126.594 122.493 126.93C122.493 127.583 122.362 128.129 122.101 128.568C121.849 129.007 121.438 129.361 120.869 129.632L122.941 134H121.093L119.301 130.024C119.217 130.033 119.128 130.043 119.035 130.052C118.941 130.052 118.843 130.052 118.741 130.052H116.949V134H115.283V124.004H118.699ZM126.036 132.04L125.224 135.33H123.992L124.44 132.04H126.036ZM20.0971 147.626C20.0411 148.149 19.9151 148.629 19.7191 149.068C19.5231 149.507 19.2525 149.889 18.9071 150.216C18.5618 150.543 18.1418 150.799 17.6471 150.986C17.1525 151.163 16.5785 151.252 15.9251 151.252C15.2065 151.252 14.5625 151.131 13.9931 150.888C13.4331 150.645 12.9571 150.3 12.5651 149.852C12.1825 149.395 11.8885 148.844 11.6831 148.2C11.4871 147.547 11.3891 146.819 11.3891 146.016C11.3891 145.195 11.4965 144.457 11.7111 143.804C11.9351 143.151 12.2478 142.6 12.6491 142.152C13.0505 141.695 13.5311 141.349 14.0911 141.116C14.6511 140.873 15.2671 140.752 15.9391 140.752C16.5645 140.752 17.1058 140.831 17.5631 140.99C18.0205 141.149 18.4078 141.377 18.7251 141.676C19.0518 141.965 19.3085 142.315 19.4951 142.726C19.6911 143.137 19.8358 143.594 19.9291 144.098L18.2631 144.336C18.1885 144 18.0951 143.701 17.9831 143.44C17.8711 143.179 17.7218 142.959 17.5351 142.782C17.3578 142.595 17.1385 142.455 16.8771 142.362C16.6158 142.259 16.3031 142.208 15.9391 142.208C15.4911 142.208 15.0945 142.297 14.7491 142.474C14.4038 142.651 14.1098 142.908 13.8671 143.244C13.6338 143.571 13.4565 143.967 13.3351 144.434C13.2138 144.901 13.1531 145.423 13.1531 146.002C13.1531 146.59 13.2138 147.117 13.3351 147.584C13.4658 148.051 13.6525 148.452 13.8951 148.788C14.1378 149.115 14.4271 149.367 14.7631 149.544C15.1085 149.712 15.5005 149.796 15.9391 149.796C16.3311 149.796 16.6625 149.745 16.9331 149.642C17.2131 149.539 17.4465 149.395 17.6331 149.208C17.8198 149.021 17.9645 148.797 18.0671 148.536C18.1791 148.265 18.2585 147.962 18.3051 147.626H20.0971ZM24.3849 141.004H26.0649L29.8729 151H28.0669L27.1289 148.452H23.2509L22.3269 151H20.5769L24.3849 141.004ZM26.6669 147.038L25.1829 142.922L23.7129 147.038H26.6669ZM34.6265 145.624C35.0092 145.624 35.3265 145.587 35.5785 145.512C35.8305 145.428 36.0265 145.316 36.1665 145.176C36.3158 145.027 36.4185 144.849 36.4745 144.644C36.5398 144.439 36.5725 144.21 36.5725 143.958C36.5725 143.725 36.5352 143.515 36.4605 143.328C36.3952 143.132 36.2785 142.969 36.1105 142.838C35.9518 142.698 35.7372 142.591 35.4665 142.516C35.1958 142.441 34.8598 142.404 34.4585 142.404H32.7505V145.624H34.6265ZM34.5005 141.004C35.2565 141.004 35.8772 141.093 36.3625 141.27C36.8572 141.447 37.2445 141.681 37.5245 141.97C37.8138 142.25 38.0145 142.563 38.1265 142.908C38.2385 143.253 38.2945 143.594 38.2945 143.93C38.2945 144.583 38.1638 145.129 37.9025 145.568C37.6505 146.007 37.2398 146.361 36.6705 146.632L38.7425 151H36.8945L35.1025 147.024C35.0185 147.033 34.9298 147.043 34.8365 147.052C34.7432 147.052 34.6452 147.052 34.5425 147.052H32.7505V151H31.0845V141.004H34.5005ZM42.3099 142.474H39.1459V141.004H47.1539V142.474H44.0039V151H42.3099V142.474ZM52.3506 151.252C51.632 151.252 50.9833 151.135 50.4046 150.902C49.8353 150.659 49.3453 150.314 48.9346 149.866C48.524 149.418 48.2066 148.872 47.9826 148.228C47.768 147.575 47.6606 146.837 47.6606 146.016C47.6606 145.195 47.7726 144.457 47.9966 143.804C48.2206 143.151 48.538 142.6 48.9486 142.152C49.3593 141.695 49.854 141.349 50.4326 141.116C51.0113 140.873 51.6506 140.752 52.3506 140.752C53.06 140.752 53.704 140.873 54.2826 141.116C54.8613 141.349 55.3513 141.69 55.7526 142.138C56.154 142.586 56.462 143.137 56.6766 143.79C56.9006 144.434 57.0126 145.167 57.0126 145.988C57.0126 146.819 56.9053 147.561 56.6906 148.214C56.476 148.858 56.168 149.409 55.7666 149.866C55.3653 150.314 54.8753 150.659 54.2966 150.902C53.7273 151.135 53.0786 151.252 52.3506 151.252ZM52.3366 149.796C53.298 149.796 54.026 149.46 54.5206 148.788C55.0153 148.107 55.2626 147.178 55.2626 146.002C55.2626 145.414 55.1973 144.887 55.0666 144.42C54.9453 143.953 54.7633 143.557 54.5206 143.23C54.278 142.903 53.9746 142.651 53.6106 142.474C53.2466 142.297 52.822 142.208 52.3366 142.208C51.8513 142.208 51.4266 142.297 51.0626 142.474C50.6986 142.651 50.3906 142.903 50.1386 143.23C49.896 143.557 49.714 143.953 49.5926 144.42C49.4713 144.887 49.4106 145.414 49.4106 146.002C49.4106 147.178 49.6533 148.107 50.1386 148.788C50.6333 149.46 51.366 149.796 52.3366 149.796ZM54.6466 138.232L52.5606 140.178H51.0346L52.7566 138.232H54.6466ZM58.8111 141.004H60.3791L64.9711 148.228V141.004H66.6231V151H65.0551L60.4491 143.804V151H58.8111V141.004ZM70.2345 149.04L69.4225 152.33H68.1905L68.6385 149.04H70.2345ZM75.1079 141.004H77.1659L80.0079 148.956L82.9339 141.004H84.9219V151H83.3679V143.734L80.6239 151H79.2799L76.6339 143.748V151H75.1079V141.004ZM87.0435 141.004H93.6935V142.46H88.7375V145.12H93.4135V146.59H88.7375V149.544H93.9595L93.7635 151H87.0435V141.004ZM97.9271 142.474H94.7631V141.004H102.771V142.474H99.6211V151H97.9271V142.474ZM105.678 141.004H107.358L111.166 151H109.36L108.422 148.452H104.544L103.62 151H101.87L105.678 141.004ZM107.96 147.038L106.476 142.922L105.006 147.038H107.96ZM114.071 141.004V149.53H119.027L118.817 151H112.377V141.004H114.071Z" fill="#F2F2F0"></path>
<g clip-path="url(#clip1_2004_2154)">
<path d="M292.842 61.4744C284.413 54.7918 282.133 47.1367 282.133 47.1367L268.193 33.1964L275.398 25.991C276.444 24.9452 276.444 23.2406 275.398 22.1948L275.241 22.0379C274.195 20.9922 272.491 20.9922 271.445 22.0379L264.24 29.2434L263.027 28.0303L273.171 17.8862C274.216 16.8404 274.216 15.1358 273.171 14.09L272.972 13.8913C271.926 12.8455 270.222 12.8455 269.176 13.8913L254.137 28.9296L252.997 27.7897L264.982 15.8051C266.028 14.7593 266.028 13.0547 264.982 12.0089C263.895 10.9213 262.117 10.9213 261.029 12.0089L249.128 23.9099H249.118C248.72 23.4916 248.229 23.2406 247.706 23.136L252.809 18.0326C253.855 16.9868 253.855 15.2822 252.809 14.2364C251.763 13.1906 250.059 13.1906 249.013 14.2364L238.074 25.1753C237.75 25.3112 237.447 25.4995 237.185 25.7714L236.987 25.9701C236.725 26.2315 236.526 26.5348 236.39 26.859L228.014 35.2357C228.014 35.2357 225.734 42.8908 217.305 49.5734C217.305 49.5734 219.815 63.2522 233.692 65.2287L238.283 62.4051C238.283 62.4051 238.702 62.0809 239.381 61.6835C239.015 62.2064 238.806 62.8339 238.806 63.5136C238.806 65.2601 240.208 66.6928 241.954 66.7347L254.859 67.0275C254.859 67.0275 263.006 72.3505 266.059 72.225C269.113 72.0995 271.884 74.2747 271.884 74.2747L276.475 77.0984C290.363 75.1114 292.863 61.443 292.863 61.443L292.842 61.4744ZM259.419 41.9601L259.9 42.4411C260.213 42.7549 260.213 43.2673 259.9 43.581C259.586 43.8948 259.073 43.8948 258.76 43.581L258.279 43.1L259.419 41.9601ZM264.606 37.2018C265.045 37.641 264.982 38.0907 264.689 38.3835C264.397 38.6763 263.936 38.7286 263.508 38.2998L263.288 38.0802L264.386 36.9822L264.606 37.2018ZM259.22 31.8265L260.433 33.0396L259.335 34.1376L258.122 32.9245L259.22 31.8265ZM253.949 60.324H244.757C247.026 59.9789 250.916 57.8246 253.269 56.4128L254.89 58.0337C255.737 58.8808 255.141 60.324 253.939 60.324H253.949Z" fill="#08CC84"></path>
<path d="M318.861 22.5608C309.48 21.8183 299.42 27.0995 297.862 43.1941C296.439 57.7827 307.577 65.4588 309.658 66.766C308.466 67.7804 306.991 69.3909 307.995 70.5308C309.062 71.7544 310.683 70.5726 311.614 69.7046C312.137 70.855 313.14 72.4237 314.542 71.7544C315.807 71.1478 315.305 69.3909 314.678 68.0314C317.909 67.9582 333.617 66.6928 337.622 49.2596C342.088 29.7976 328.262 23.3033 318.882 22.5608H318.861Z" fill="#08CC84"></path>
<path d="M249.703 20.0927L256.982 12.8141C258.028 11.7683 258.028 10.0637 256.982 9.01792C255.936 7.97214 254.232 7.97214 253.186 9.01792L232.176 30.0172C232.176 30.0172 229.896 37.6723 221.467 44.3549C221.467 44.3549 223.977 58.0337 237.855 60.0103L242.446 57.1866C242.446 57.1866 245.217 55.0114 248.271 55.1369C251.324 55.2624 259.471 49.9394 259.471 49.9394L272.376 49.6466C274.122 49.6047 275.524 48.1825 275.524 46.4255C275.524 44.6477 274.081 43.2045 272.303 43.2045H260.36C259.168 43.2045 258.572 41.7614 259.408 40.9143L279.571 20.7516C280.617 19.7058 280.617 18.0012 279.571 16.9554L279.414 16.7985C278.368 15.7528 276.664 15.7528 275.618 16.7985L260.58 31.8369C260.266 32.1506 259.753 32.1506 259.44 31.8369L259.366 31.7637C259.053 31.4499 259.053 30.9375 259.366 30.6238L277.343 12.6572C278.389 11.6115 278.389 9.90683 277.343 8.86105L277.145 8.66235C276.099 7.61657 274.394 7.61657 273.349 8.66235L255.549 26.4616C255.236 26.7753 254.723 26.7753 254.409 26.4616C254.096 26.1478 254.096 25.6354 254.409 25.3217L269.155 10.5761C270.201 9.53035 270.201 7.82573 269.155 6.77994C268.067 5.69233 266.29 5.69233 265.202 6.77994L250.801 21.1804C250.373 21.6091 249.913 21.5568 249.62 21.264C249.327 20.9712 249.264 20.5215 249.703 20.0823V20.0927Z" fill="black" stroke="#FF7F4D" stroke-width="2.21706" stroke-linejoin="round"></path>
<path d="M268.789 31.9729L261.51 24.6942C260.464 23.6485 260.464 21.9438 261.51 20.898C262.556 19.8523 264.261 19.8523 265.306 20.898L286.306 41.8973C286.306 41.8973 288.585 49.5525 297.014 56.235C297.014 56.235 294.505 69.9139 280.627 71.8904L276.036 69.0668C276.036 69.0668 273.265 66.8915 270.211 67.017C267.157 67.1425 259.011 61.8195 259.011 61.8195L246.106 61.5267C244.359 61.4848 242.958 60.0626 242.958 58.3057C242.958 56.5278 244.401 55.0847 246.179 55.0847H258.122C259.314 55.0847 259.91 53.6415 259.073 52.7944L238.911 32.6317C237.865 31.5859 237.865 29.8813 238.911 28.8355L239.068 28.6787C240.113 27.6329 241.818 27.6329 242.864 28.6787L257.902 43.717C258.216 44.0307 258.728 44.0307 259.042 43.717L259.115 43.6438C259.429 43.3301 259.429 42.8176 259.115 42.5039L241.149 24.5374C240.103 23.4916 240.103 21.787 241.149 20.7412L241.347 20.5425C242.393 19.4967 244.098 19.4967 245.144 20.5425L262.943 38.3417C263.257 38.6554 263.769 38.6554 264.083 38.3417C264.397 38.028 264.397 37.5155 264.083 37.2018L249.337 22.4563C248.291 21.4105 248.291 19.7059 249.337 18.6601C250.425 17.5725 252.203 17.5725 253.29 18.6601L267.691 33.0605C268.119 33.4893 268.58 33.437 268.872 33.1442C269.165 32.8513 269.228 32.4016 268.789 31.9624V31.9729Z" fill="black" stroke="#FF7F4D" stroke-width="2.21706" stroke-linejoin="round"></path>
<path d="M312.701 67.728C312.701 67.728 309.794 73.4903 308.717 76.0734C307.64 78.6564 306.542 81.731 304.157 82.1284C301.773 82.5258 299.734 82.7455 296.209 86.3011C294.986 87.5351 292.214 91.1954 290.353 91.8647C286.484 93.2556 282.112 88.7901 280.418 94.5419" stroke="#08CC84" stroke-width="2.21706" stroke-linejoin="round"></path>
<path d="M323.044 17.3318C313.663 16.5893 303.603 21.8705 302.045 37.9651C300.622 52.5538 311.76 60.2298 313.841 61.5371C312.649 62.5515 311.174 64.162 312.178 65.3019C313.245 66.5254 314.866 65.3437 315.797 64.4757C316.32 65.6261 317.324 67.1947 318.725 66.5254C319.99 65.9189 319.488 64.162 318.861 62.8024C322.092 62.7292 337.8 61.4638 341.805 44.0307C346.271 24.5687 332.446 18.0743 323.065 17.3318H323.044Z" fill="black" stroke="#FF7F4D" stroke-width="2.21706" stroke-linejoin="round"></path>
<path d="M315.838 64.5908C315.838 64.5908 312.931 70.3531 311.854 72.9362C310.777 75.5192 309.679 78.5938 307.294 78.9912C304.91 79.3886 302.871 79.6082 299.346 83.1639C298.123 84.3979 295.352 88.0582 293.49 88.7275C289.621 90.1184 285.249 85.6529 283.555 91.4047" stroke="#FF7F4D" stroke-width="2.21706" stroke-linejoin="round"></path>
</g>
<path d="M219.769 128.694V132.81C219.255 133.286 218.649 133.645 217.949 133.888C217.249 134.131 216.544 134.252 215.835 134.252C215.06 134.252 214.379 134.131 213.791 133.888C213.212 133.636 212.727 133.286 212.335 132.838C211.943 132.381 211.649 131.83 211.453 131.186C211.257 130.542 211.159 129.819 211.159 129.016C211.159 128.204 211.266 127.476 211.481 126.832C211.695 126.179 211.999 125.623 212.391 125.166C212.783 124.709 213.259 124.359 213.819 124.116C214.379 123.873 215.004 123.752 215.695 123.752C216.301 123.752 216.829 123.831 217.277 123.99C217.734 124.139 218.117 124.349 218.425 124.62C218.742 124.891 218.994 125.208 219.181 125.572C219.377 125.927 219.517 126.309 219.601 126.72L217.935 126.958C217.86 126.678 217.767 126.431 217.655 126.216C217.552 125.992 217.412 125.805 217.235 125.656C217.067 125.507 216.857 125.395 216.605 125.32C216.353 125.236 216.049 125.194 215.695 125.194C215.228 125.194 214.817 125.287 214.463 125.474C214.117 125.651 213.828 125.908 213.595 126.244C213.361 126.58 213.189 126.981 213.077 127.448C212.965 127.915 212.909 128.433 212.909 129.002C212.909 129.59 212.965 130.117 213.077 130.584C213.189 131.051 213.366 131.452 213.609 131.788C213.851 132.115 214.155 132.367 214.519 132.544C214.892 132.721 215.34 132.81 215.863 132.81C216.329 132.81 216.749 132.763 217.123 132.67C217.496 132.567 217.855 132.395 218.201 132.152V130.122H215.989V128.694H219.769ZM223.111 124.004V129.996C223.111 130.939 223.279 131.643 223.615 132.11C223.96 132.567 224.539 132.796 225.351 132.796C226.153 132.796 226.718 132.567 227.045 132.11C227.381 131.643 227.549 130.939 227.549 129.996V124.004H229.243V129.996C229.243 130.771 229.149 131.429 228.963 131.97C228.776 132.502 228.51 132.941 228.165 133.286C227.819 133.622 227.409 133.865 226.933 134.014C226.457 134.173 225.925 134.252 225.337 134.252C224.058 134.252 223.087 133.911 222.425 133.23C221.762 132.539 221.431 131.447 221.431 129.954V124.004H223.111ZM233.697 124.004H235.377L239.185 134H237.379L236.441 131.452H232.563L231.639 134H229.889L233.697 124.004ZM235.979 130.038L234.495 125.922L233.025 130.038H235.979ZM240.397 124.004H241.965L246.557 131.228V124.004H248.209V134H246.641L242.035 126.804V134H240.397V124.004ZM252.702 125.474H249.538V124.004H257.546V125.474H254.396V134H252.702V125.474ZM258.881 124.004H265.531V125.46H260.575V128.12H265.251V129.59H260.575V132.544H265.797L265.601 134H258.881V124.004ZM268.368 130.948C268.443 131.601 268.676 132.077 269.068 132.376C269.47 132.675 270.062 132.824 270.846 132.824C271.229 132.824 271.551 132.782 271.812 132.698C272.074 132.614 272.284 132.502 272.442 132.362C272.601 132.222 272.713 132.059 272.778 131.872C272.844 131.676 272.876 131.471 272.876 131.256C272.876 131.097 272.853 130.943 272.806 130.794C272.76 130.635 272.676 130.491 272.554 130.36C272.433 130.229 272.27 130.117 272.064 130.024C271.859 129.921 271.598 129.842 271.28 129.786L270.006 129.548C269.502 129.455 269.054 129.338 268.662 129.198C268.27 129.058 267.939 128.876 267.668 128.652C267.407 128.419 267.206 128.139 267.066 127.812C266.936 127.476 266.87 127.07 266.87 126.594C266.87 126.118 266.964 125.703 267.15 125.348C267.346 124.993 267.612 124.699 267.948 124.466C268.284 124.223 268.681 124.046 269.138 123.934C269.605 123.813 270.109 123.752 270.65 123.752C271.341 123.752 271.92 123.831 272.386 123.99C272.853 124.149 273.231 124.359 273.52 124.62C273.81 124.872 274.029 125.166 274.178 125.502C274.328 125.838 274.43 126.188 274.486 126.552L272.89 126.804C272.76 126.244 272.531 125.829 272.204 125.558C271.887 125.287 271.378 125.152 270.678 125.152C270.277 125.152 269.941 125.189 269.67 125.264C269.409 125.329 269.194 125.427 269.026 125.558C268.868 125.679 268.751 125.824 268.676 125.992C268.611 126.151 268.578 126.319 268.578 126.496C268.578 126.935 268.695 127.261 268.928 127.476C269.171 127.691 269.591 127.859 270.188 127.98L271.574 128.246C272.629 128.442 273.404 128.778 273.898 129.254C274.393 129.721 274.64 130.397 274.64 131.284C274.64 131.704 274.561 132.096 274.402 132.46C274.253 132.815 274.02 133.127 273.702 133.398C273.385 133.659 272.988 133.865 272.512 134.014C272.046 134.173 271.5 134.252 270.874 134.252C269.596 134.252 268.592 133.986 267.864 133.454C267.136 132.913 266.735 132.077 266.66 130.948H268.368ZM282.721 132.558C283.309 132.558 283.809 132.474 284.219 132.306C284.639 132.138 284.98 131.895 285.241 131.578C285.512 131.261 285.708 130.883 285.829 130.444C285.951 130.005 286.011 129.511 286.011 128.96C286.011 127.859 285.778 127 285.311 126.384C284.845 125.759 284.079 125.446 283.015 125.446H281.083V132.558H282.721ZM283.001 124.004C283.739 124.004 284.401 124.107 284.989 124.312C285.577 124.508 286.077 124.811 286.487 125.222C286.898 125.633 287.211 126.151 287.425 126.776C287.649 127.392 287.761 128.115 287.761 128.946C287.761 129.777 287.645 130.509 287.411 131.144C287.178 131.769 286.842 132.297 286.403 132.726C285.965 133.146 285.428 133.463 284.793 133.678C284.168 133.893 283.459 134 282.665 134H279.389V124.004H283.001ZM289.547 124.004H296.197V125.46H291.241V128.12H295.917V129.59H291.241V132.544H296.463L296.267 134H289.547V124.004ZM302.739 124.004V132.53H307.695L307.485 134H301.045V124.004H302.739ZM312.242 124.004H313.922L317.73 134H315.924L314.986 131.452H311.108L310.184 134H308.434L312.242 124.004ZM314.524 130.038L313.04 125.922L311.57 130.038H314.524ZM319.982 125.474H316.818V124.004H324.826V125.474H321.676V134H319.982V125.474ZM326.161 124.004H332.811V125.46H327.855V128.12H332.531V129.59H327.855V132.544H333.077L332.881 134H326.161V124.004ZM337.309 128.722L334.061 124.004H335.993L338.289 127.504L340.613 124.004H342.433L339.213 128.792L342.825 134H340.879L338.219 130.052L335.643 134H333.809L337.309 128.722ZM345.76 132.04L344.948 135.33H343.716L344.164 132.04H345.76ZM260.798 145.694V149.81C260.285 150.286 259.678 150.645 258.978 150.888C258.278 151.131 257.573 151.252 256.864 151.252C256.089 151.252 255.408 151.131 254.82 150.888C254.241 150.636 253.756 150.286 253.364 149.838C252.972 149.381 252.678 148.83 252.482 148.186C252.286 147.542 252.188 146.819 252.188 146.016C252.188 145.204 252.295 144.476 252.51 143.832C252.725 143.179 253.028 142.623 253.42 142.166C253.812 141.709 254.288 141.359 254.848 141.116C255.408 140.873 256.033 140.752 256.724 140.752C257.331 140.752 257.858 140.831 258.306 140.99C258.763 141.139 259.146 141.349 259.454 141.62C259.771 141.891 260.023 142.208 260.21 142.572C260.406 142.927 260.546 143.309 260.63 143.72L258.964 143.958C258.889 143.678 258.796 143.431 258.684 143.216C258.581 142.992 258.441 142.805 258.264 142.656C258.096 142.507 257.886 142.395 257.634 142.32C257.382 142.236 257.079 142.194 256.724 142.194C256.257 142.194 255.847 142.287 255.492 142.474C255.147 142.651 254.857 142.908 254.624 143.244C254.391 143.58 254.218 143.981 254.106 144.448C253.994 144.915 253.938 145.433 253.938 146.002C253.938 146.59 253.994 147.117 254.106 147.584C254.218 148.051 254.395 148.452 254.638 148.788C254.881 149.115 255.184 149.367 255.548 149.544C255.921 149.721 256.369 149.81 256.892 149.81C257.359 149.81 257.779 149.763 258.152 149.67C258.525 149.567 258.885 149.395 259.23 149.152V147.122H257.018V145.694H260.798ZM264.308 141.004V149.53H269.264L269.054 151H262.614V141.004H264.308ZM274.364 151.252C273.646 151.252 272.997 151.135 272.418 150.902C271.849 150.659 271.359 150.314 270.948 149.866C270.538 149.418 270.22 148.872 269.996 148.228C269.782 147.575 269.674 146.837 269.674 146.016C269.674 145.195 269.786 144.457 270.01 143.804C270.234 143.151 270.552 142.6 270.962 142.152C271.373 141.695 271.868 141.349 272.446 141.116C273.025 140.873 273.664 140.752 274.364 140.752C275.074 140.752 275.718 140.873 276.296 141.116C276.875 141.349 277.365 141.69 277.766 142.138C278.168 142.586 278.476 143.137 278.69 143.79C278.914 144.434 279.026 145.167 279.026 145.988C279.026 146.819 278.919 147.561 278.704 148.214C278.49 148.858 278.182 149.409 277.78 149.866C277.379 150.314 276.889 150.659 276.31 150.902C275.741 151.135 275.092 151.252 274.364 151.252ZM274.35 149.796C275.312 149.796 276.04 149.46 276.534 148.788C277.029 148.107 277.276 147.178 277.276 146.002C277.276 145.414 277.211 144.887 277.08 144.42C276.959 143.953 276.777 143.557 276.534 143.23C276.292 142.903 275.988 142.651 275.624 142.474C275.26 142.297 274.836 142.208 274.35 142.208C273.865 142.208 273.44 142.297 273.076 142.474C272.712 142.651 272.404 142.903 272.152 143.23C271.91 143.557 271.728 143.953 271.606 144.42C271.485 144.887 271.424 145.414 271.424 146.002C271.424 147.178 271.667 148.107 272.152 148.788C272.647 149.46 273.38 149.796 274.35 149.796ZM280.825 141.004H284.283C285.011 141.004 285.608 141.074 286.075 141.214C286.541 141.345 286.91 141.531 287.181 141.774C287.461 142.007 287.652 142.287 287.755 142.614C287.857 142.931 287.909 143.272 287.909 143.636C287.909 144.056 287.815 144.448 287.629 144.812C287.442 145.167 287.101 145.461 286.607 145.694C286.924 145.834 287.185 145.993 287.391 146.17C287.596 146.347 287.759 146.539 287.881 146.744C288.002 146.94 288.086 147.15 288.133 147.374C288.179 147.589 288.203 147.808 288.203 148.032C288.203 148.443 288.137 148.83 288.007 149.194C287.885 149.558 287.68 149.875 287.391 150.146C287.101 150.407 286.723 150.617 286.257 150.776C285.79 150.925 285.216 151 284.535 151H280.825V141.004ZM284.479 145.106C285.141 145.106 285.603 144.985 285.865 144.742C286.126 144.499 286.257 144.149 286.257 143.692C286.257 143.216 286.103 142.875 285.795 142.67C285.496 142.455 284.973 142.348 284.227 142.348H282.463V145.106H284.479ZM284.479 149.642C284.88 149.642 285.211 149.605 285.473 149.53C285.743 149.455 285.953 149.348 286.103 149.208C286.261 149.068 286.373 148.9 286.439 148.704C286.504 148.508 286.537 148.289 286.537 148.046C286.537 147.542 286.392 147.159 286.103 146.898C285.823 146.627 285.333 146.492 284.633 146.492H282.463V149.642H284.479ZM294.134 151.252C293.415 151.252 292.766 151.135 292.188 150.902C291.618 150.659 291.128 150.314 290.718 149.866C290.307 149.418 289.99 148.872 289.766 148.228C289.551 147.575 289.444 146.837 289.444 146.016C289.444 145.195 289.556 144.457 289.78 143.804C290.004 143.151 290.321 142.6 290.732 142.152C291.142 141.695 291.637 141.349 292.216 141.116C292.794 140.873 293.434 140.752 294.134 140.752C294.843 140.752 295.487 140.873 296.066 141.116C296.644 141.349 297.134 141.69 297.536 142.138C297.937 142.586 298.245 143.137 298.46 143.79C298.684 144.434 298.796 145.167 298.796 145.988C298.796 146.819 298.688 147.561 298.474 148.214C298.259 148.858 297.951 149.409 297.55 149.866C297.148 150.314 296.658 150.659 296.08 150.902C295.51 151.135 294.862 151.252 294.134 151.252ZM294.12 149.796C295.081 149.796 295.809 149.46 296.304 148.788C296.798 148.107 297.046 147.178 297.046 146.002C297.046 145.414 296.98 144.887 296.85 144.42C296.728 143.953 296.546 143.557 296.304 143.23C296.061 142.903 295.758 142.651 295.394 142.474C295.03 142.297 294.605 142.208 294.12 142.208C293.634 142.208 293.21 142.297 292.846 142.474C292.482 142.651 292.174 142.903 291.922 143.23C291.679 143.557 291.497 143.953 291.376 144.42C291.254 144.887 291.194 145.414 291.194 146.002C291.194 147.178 291.436 148.107 291.922 148.788C292.416 149.46 293.149 149.796 294.12 149.796ZM301.7 147.948C301.775 148.601 302.008 149.077 302.4 149.376C302.802 149.675 303.394 149.824 304.178 149.824C304.561 149.824 304.883 149.782 305.144 149.698C305.406 149.614 305.616 149.502 305.774 149.362C305.933 149.222 306.045 149.059 306.11 148.872C306.176 148.676 306.208 148.471 306.208 148.256C306.208 148.097 306.185 147.943 306.138 147.794C306.092 147.635 306.008 147.491 305.886 147.36C305.765 147.229 305.602 147.117 305.396 147.024C305.191 146.921 304.93 146.842 304.612 146.786L303.338 146.548C302.834 146.455 302.386 146.338 301.994 146.198C301.602 146.058 301.271 145.876 301 145.652C300.739 145.419 300.538 145.139 300.398 144.812C300.268 144.476 300.202 144.07 300.202 143.594C300.202 143.118 300.296 142.703 300.482 142.348C300.678 141.993 300.944 141.699 301.28 141.466C301.616 141.223 302.013 141.046 302.47 140.934C302.937 140.813 303.441 140.752 303.982 140.752C304.673 140.752 305.252 140.831 305.718 140.99C306.185 141.149 306.563 141.359 306.852 141.62C307.142 141.872 307.361 142.166 307.51 142.502C307.66 142.838 307.762 143.188 307.818 143.552L306.222 143.804C306.092 143.244 305.863 142.829 305.536 142.558C305.219 142.287 304.71 142.152 304.01 142.152C303.609 142.152 303.273 142.189 303.002 142.264C302.741 142.329 302.526 142.427 302.358 142.558C302.2 142.679 302.083 142.824 302.008 142.992C301.943 143.151 301.91 143.319 301.91 143.496C301.91 143.935 302.027 144.261 302.26 144.476C302.503 144.691 302.923 144.859 303.52 144.98L304.906 145.246C305.961 145.442 306.736 145.778 307.23 146.254C307.725 146.721 307.972 147.397 307.972 148.284C307.972 148.704 307.893 149.096 307.734 149.46C307.585 149.815 307.352 150.127 307.034 150.398C306.717 150.659 306.32 150.865 305.844 151.014C305.378 151.173 304.832 151.252 304.206 151.252C302.928 151.252 301.924 150.986 301.196 150.454C300.468 149.913 300.067 149.077 299.992 147.948H301.7Z" fill="#F2F2F0"></path>
<defs>
<clipPath id="clip0_2004_2154">
<rect width="87.6" height="80.9333" fill="white" transform="translate(22.1333 9.82233)"></rect>
</clipPath>
<clipPath id="clip1_2004_2154">
<rect width="126.487" height="90" fill="white" transform="translate(217.284 4.85571)"></rect>
</clipPath>
</defs>
</svg>