<svg xmlns:xlink="http://www.w3.org/1999/xlink" xmlns="http://www.w3.org/2000/svg" width="298" height="152" viewBox="0 0 298 152" fill="none">
<g clip-path="url(#clip0_2004_2155)">
<path d="M88.8703 28.8188L90.956 26.7331C91.1428 26.5463 91.1428 26.2557 90.956 26.069L87.5317 22.6447C87.3449 22.4579 87.0544 22.4579 86.8676 22.6447L84.7819 24.7304L86.8469 26.7953L81.4406 21.3891C80.7246 20.6731 79.5625 20.6731 78.8569 21.3891L49.5844 50.6616C48.8684 51.3776 48.8684 52.5398 49.5844 53.2454L60.3034 63.9541C61.0194 64.6701 62.1816 64.6701 62.8872 63.9541L92.1493 34.692C92.8653 33.976 92.8653 32.8138 92.1493 32.1082L88.8703 28.8292V28.8188Z" fill="#08CC84"></path>
<path d="M88.0298 76.0013H20.7269C20.0277 76.0013 19.4609 76.5681 19.4609 77.2673V84.4064C19.4609 85.1056 20.0277 85.6723 20.7269 85.6723H88.0298C88.7289 85.6723 89.2957 85.1056 89.2957 84.4064V77.2673C89.2957 76.5681 88.7289 76.0013 88.0298 76.0013Z" fill="#08CC84"></path>
<path d="M53.7347 45.4733L83.0072 16.2008C83.7232 15.4848 84.8854 15.4848 85.591 16.2008L96.2997 26.9095C97.0157 27.6255 97.0157 28.7877 96.2997 29.4933L67.0376 58.7554C66.3216 59.4714 65.1698 59.4714 64.4538 58.7554L53.7347 48.0467C53.0188 47.3307 53.0188 46.1685 53.7347 45.4629V45.4733Z" fill="black" stroke="#FF7F4D" stroke-width="2.19985" stroke-linejoin="round"></path>
<path d="M88.9321 19.5422L91.0178 17.4565C91.2046 17.2697 91.4952 17.2697 91.6819 17.4565L95.1062 20.8808C95.293 21.0675 95.293 21.3581 95.1062 21.5449L93.0205 23.6306" fill="black"></path>
<path d="M88.9321 19.5422L91.0178 17.4565C91.2046 17.2697 91.4952 17.2697 91.6819 17.4565L95.1062 20.8808C95.293 21.0675 95.293 21.3581 95.1062 21.5449L93.0205 23.6306" stroke="#FF7F4D" stroke-width="2.19985" stroke-linejoin="round"></path>
<path d="M87.8011 24.8755L83.4014 29.2856" stroke="#FF7F4D" stroke-width="2.19985" stroke-linejoin="round"></path>
<path d="M83.4014 24.8755L87.8011 29.2856" stroke="#FF7F4D" stroke-width="2.19985" stroke-linejoin="round"></path>
<path d="M60.8325 47.4344L65.2426 51.8445" stroke="#FF7F4D" stroke-width="2.19985" stroke-linejoin="round"></path>
<path d="M92.1802 70.813H24.8773C24.1781 70.813 23.6113 71.3798 23.6113 72.079V79.2181C23.6113 79.9173 24.1781 80.484 24.8773 80.484H92.1802C92.8793 80.484 93.4461 79.9173 93.4461 79.2181V72.079C93.4461 71.3798 92.8793 70.813 92.1802 70.813Z" fill="black" stroke="#FF7F4D" stroke-width="2.19985" stroke-linejoin="round"></path>
<path d="M31.0513 70.813V80.484" stroke="#FF7F4D" stroke-width="2.19985" stroke-linejoin="round"></path>
<path d="M35.3267 70.813V80.484" stroke="#FF7F4D" stroke-width="2.19985" stroke-linejoin="round"></path>
<path d="M59.1201 70.813V80.484" stroke="#FF7F4D" stroke-width="2.19985" stroke-linejoin="round"></path>
<path d="M29.4639 65.3965C29.4639 65.3965 31.9335 60.6544 31.5496 58.0914C31.1656 55.5283 31.5496 49.5618 32.9712 46.9987C34.3928 44.4357 43.877 41.4991 45.4854 36.1863" stroke="#08CC84" stroke-width="2.19985" stroke-linejoin="round"></path>
<path d="M24.8877 52.7576C24.8877 52.7576 23.3208 45.3176 26.8074 42.4017C30.2939 39.4859 38.3981 37.9605 40.3904 27.0443" stroke="#08CC84" stroke-width="2.19985" stroke-linejoin="round"></path>
<path d="M32.5767 62.2835C32.5767 62.2835 35.0463 57.5413 34.6624 54.9783C34.2784 52.4153 34.6624 46.4487 36.084 43.8857C37.5056 41.3226 46.9898 38.3861 48.5982 33.0732" stroke="#FF7F4D" stroke-width="2.19985" stroke-linejoin="round"></path>
<path d="M28.0005 49.6448C28.0005 49.6448 26.4336 42.2048 29.9202 39.2889C33.4067 36.3731 41.5109 34.8477 43.5032 23.9315" stroke="#FF7F4D" stroke-width="2.19985" stroke-linejoin="round"></path>
</g>
<path d="M1.14994 124.004H4.60794C5.36394 124.004 5.9846 124.088 6.46994 124.256C6.9646 124.424 7.35194 124.648 7.63194 124.928C7.91194 125.208 8.10794 125.535 8.21994 125.908C8.33194 126.272 8.38794 126.655 8.38794 127.056C8.38794 127.485 8.33194 127.896 8.21994 128.288C8.10794 128.68 7.90727 129.025 7.61794 129.324C7.33794 129.613 6.95527 129.847 6.46994 130.024C5.9846 130.192 5.37327 130.276 4.63594 130.276H2.81594V134H1.14994V124.004ZM4.59394 128.862C5.02327 128.862 5.37327 128.82 5.64394 128.736C5.92394 128.652 6.14327 128.535 6.30194 128.386C6.4606 128.227 6.56794 128.041 6.62394 127.826C6.68927 127.611 6.72194 127.369 6.72194 127.098C6.72194 126.818 6.68927 126.575 6.62394 126.37C6.5586 126.155 6.44194 125.978 6.27394 125.838C6.11527 125.698 5.89594 125.591 5.61594 125.516C5.34527 125.441 4.99994 125.404 4.57994 125.404H2.81594V128.862H4.59394ZM10.0093 124.004H11.7033V134H10.0093V124.004ZM15.5178 124.004V132.53H20.4738L20.2638 134H13.8238V124.004H15.5178ZM25.0206 124.004H26.7006L30.5086 134H28.7026L27.7646 131.452H23.8866L22.9626 134H21.2126L25.0206 124.004ZM27.3026 130.038L25.8186 125.922L24.3486 130.038H27.3026ZM32.5528 130.948C32.6275 131.601 32.8608 132.077 33.2528 132.376C33.6541 132.675 34.2468 132.824 35.0308 132.824C35.4135 132.824 35.7355 132.782 35.9968 132.698C36.2581 132.614 36.4681 132.502 36.6268 132.362C36.7855 132.222 36.8975 132.059 36.9628 131.872C37.0281 131.676 37.0608 131.471 37.0608 131.256C37.0608 131.097 37.0375 130.943 36.9908 130.794C36.9441 130.635 36.8601 130.491 36.7388 130.36C36.6175 130.229 36.4541 130.117 36.2488 130.024C36.0435 129.921 35.7821 129.842 35.4648 129.786L34.1908 129.548C33.6868 129.455 33.2388 129.338 32.8468 129.198C32.4548 129.058 32.1235 128.876 31.8528 128.652C31.5915 128.419 31.3908 128.139 31.2508 127.812C31.1201 127.476 31.0548 127.07 31.0548 126.594C31.0548 126.118 31.1481 125.703 31.3348 125.348C31.5308 124.993 31.7968 124.699 32.1328 124.466C32.4688 124.223 32.8655 124.046 33.3228 123.934C33.7895 123.813 34.2935 123.752 34.8348 123.752C35.5255 123.752 36.1041 123.831 36.5708 123.99C37.0375 124.149 37.4155 124.359 37.7048 124.62C37.9941 124.872 38.2135 125.166 38.3628 125.502C38.5121 125.838 38.6148 126.188 38.6708 126.552L37.0748 126.804C36.9441 126.244 36.7155 125.829 36.3888 125.558C36.0715 125.287 35.5628 125.152 34.8628 125.152C34.4615 125.152 34.1255 125.189 33.8548 125.264C33.5935 125.329 33.3788 125.427 33.2108 125.558C33.0521 125.679 32.9355 125.824 32.8608 125.992C32.7955 126.151 32.7628 126.319 32.7628 126.496C32.7628 126.935 32.8795 127.261 33.1128 127.476C33.3555 127.691 33.7755 127.859 34.3728 127.98L35.7588 128.246C36.8135 128.442 37.5881 128.778 38.0828 129.254C38.5775 129.721 38.8248 130.397 38.8248 131.284C38.8248 131.704 38.7455 132.096 38.5868 132.46C38.4375 132.815 38.2041 133.127 37.8868 133.398C37.5695 133.659 37.1728 133.865 36.6968 134.014C36.2301 134.173 35.6841 134.252 35.0588 134.252C33.7801 134.252 32.7768 133.986 32.0488 133.454C31.3208 132.913 30.9195 132.077 30.8448 130.948H32.5528ZM39.6273 134L42.8333 123.724H44.4293L41.2233 134H39.6273ZM45.5972 124.004H49.0552C49.7832 124.004 50.3805 124.074 50.8472 124.214C51.3139 124.345 51.6825 124.531 51.9532 124.774C52.2332 125.007 52.4245 125.287 52.5272 125.614C52.6299 125.931 52.6812 126.272 52.6812 126.636C52.6812 127.056 52.5879 127.448 52.4012 127.812C52.2145 128.167 51.8739 128.461 51.3792 128.694C51.6965 128.834 51.9579 128.993 52.1632 129.17C52.3685 129.347 52.5319 129.539 52.6532 129.744C52.7745 129.94 52.8585 130.15 52.9052 130.374C52.9519 130.589 52.9752 130.808 52.9752 131.032C52.9752 131.443 52.9099 131.83 52.7792 132.194C52.6579 132.558 52.4525 132.875 52.1632 133.146C51.8739 133.407 51.4959 133.617 51.0292 133.776C50.5625 133.925 49.9885 134 49.3072 134H45.5972V124.004ZM49.2512 128.106C49.9139 128.106 50.3759 127.985 50.6372 127.742C50.8985 127.499 51.0292 127.149 51.0292 126.692C51.0292 126.216 50.8752 125.875 50.5672 125.67C50.2685 125.455 49.7459 125.348 48.9992 125.348H47.2352V128.106H49.2512ZM49.2512 132.642C49.6525 132.642 49.9839 132.605 50.2452 132.53C50.5159 132.455 50.7259 132.348 50.8752 132.208C51.0339 132.068 51.1459 131.9 51.2112 131.704C51.2765 131.508 51.3092 131.289 51.3092 131.046C51.3092 130.542 51.1645 130.159 50.8752 129.898C50.5952 129.627 50.1052 129.492 49.4052 129.492H47.2352V132.642H49.2512ZM57.3136 124.004H58.9936L62.8016 134H60.9956L60.0576 131.452H56.1796L55.2556 134H53.5056L57.3136 124.004ZM59.5956 130.038L58.1116 125.922L56.6416 130.038H59.5956ZM65.053 125.474H61.889V124.004H69.897V125.474H66.747V134H65.053V125.474ZM71.232 124.004H77.882V125.46H72.926V128.12H77.602V129.59H72.926V132.544H78.148L77.952 134H71.232V124.004ZM83.2915 128.624C83.6742 128.624 83.9915 128.587 84.2435 128.512C84.4955 128.428 84.6915 128.316 84.8315 128.176C84.9809 128.027 85.0835 127.849 85.1395 127.644C85.2049 127.439 85.2375 127.21 85.2375 126.958C85.2375 126.725 85.2002 126.515 85.1255 126.328C85.0602 126.132 84.9435 125.969 84.7755 125.838C84.6169 125.698 84.4022 125.591 84.1315 125.516C83.8609 125.441 83.5249 125.404 83.1235 125.404H81.4155V128.624H83.2915ZM83.1655 124.004C83.9215 124.004 84.5422 124.093 85.0275 124.27C85.5222 124.447 85.9095 124.681 86.1895 124.97C86.4789 125.25 86.6795 125.563 86.7915 125.908C86.9035 126.253 86.9595 126.594 86.9595 126.93C86.9595 127.583 86.8289 128.129 86.5675 128.568C86.3155 129.007 85.9049 129.361 85.3355 129.632L87.4075 134H85.5595L83.7675 130.024C83.6835 130.033 83.5949 130.043 83.5015 130.052C83.4082 130.052 83.3102 130.052 83.2075 130.052H81.4155V134H79.7495V124.004H83.1655ZM88.7456 124.004H90.4396V134H88.7456V124.004ZM92.0356 121.232L89.9496 123.178H88.4236L90.1456 121.232H92.0356ZM95.4581 124.004H97.1381L100.946 134H99.1401L98.2021 131.452H94.3241L93.4001 134H91.6501L95.4581 124.004ZM97.7401 130.038L96.2561 125.922L94.7861 130.038H97.7401ZM102.99 130.948C103.065 131.601 103.298 132.077 103.69 132.376C104.092 132.675 104.684 132.824 105.468 132.824C105.851 132.824 106.173 132.782 106.434 132.698C106.696 132.614 106.906 132.502 107.064 132.362C107.223 132.222 107.335 132.059 107.4 131.872C107.466 131.676 107.498 131.471 107.498 131.256C107.498 131.097 107.475 130.943 107.428 130.794C107.382 130.635 107.298 130.491 107.176 130.36C107.055 130.229 106.892 130.117 106.686 130.024C106.481 129.921 106.22 129.842 105.902 129.786L104.628 129.548C104.124 129.455 103.676 129.338 103.284 129.198C102.892 129.058 102.561 128.876 102.29 128.652C102.029 128.419 101.828 128.139 101.688 127.812C101.558 127.476 101.492 127.07 101.492 126.594C101.492 126.118 101.586 125.703 101.772 125.348C101.968 124.993 102.234 124.699 102.57 124.466C102.906 124.223 103.303 124.046 103.76 123.934C104.227 123.813 104.731 123.752 105.272 123.752C105.963 123.752 106.542 123.831 107.008 123.99C107.475 124.149 107.853 124.359 108.142 124.62C108.432 124.872 108.651 125.166 108.8 125.502C108.95 125.838 109.052 126.188 109.108 126.552L107.512 126.804C107.382 126.244 107.153 125.829 106.826 125.558C106.509 125.287 106 125.152 105.3 125.152C104.899 125.152 104.563 125.189 104.292 125.264C104.031 125.329 103.816 125.427 103.648 125.558C103.49 125.679 103.373 125.824 103.298 125.992C103.233 126.151 103.2 126.319 103.2 126.496C103.2 126.935 103.317 127.261 103.55 127.476C103.793 127.691 104.213 127.859 104.81 127.98L106.196 128.246C107.251 128.442 108.026 128.778 108.52 129.254C109.015 129.721 109.262 130.397 109.262 131.284C109.262 131.704 109.183 132.096 109.024 132.46C108.875 132.815 108.642 133.127 108.324 133.398C108.007 133.659 107.61 133.865 107.134 134.014C106.668 134.173 106.122 134.252 105.496 134.252C104.218 134.252 103.214 133.986 102.486 133.454C101.758 132.913 101.357 132.077 101.282 130.948H102.99ZM112.105 132.04L111.293 135.33H110.061L110.509 132.04H112.105ZM22.1753 147.626C22.1193 148.149 21.9933 148.629 21.7973 149.068C21.6013 149.507 21.3306 149.889 20.9853 150.216C20.6399 150.543 20.2199 150.799 19.7253 150.986C19.2306 151.163 18.6566 151.252 18.0033 151.252C17.2846 151.252 16.6406 151.131 16.0713 150.888C15.5113 150.645 15.0353 150.3 14.6433 149.852C14.2606 149.395 13.9666 148.844 13.7613 148.2C13.5653 147.547 13.4673 146.819 13.4673 146.016C13.4673 145.195 13.5746 144.457 13.7893 143.804C14.0133 143.151 14.3259 142.6 14.7273 142.152C15.1286 141.695 15.6093 141.349 16.1693 141.116C16.7293 140.873 17.3453 140.752 18.0173 140.752C18.6426 140.752 19.1839 140.831 19.6413 140.99C20.0986 141.149 20.4859 141.377 20.8033 141.676C21.1299 141.965 21.3866 142.315 21.5733 142.726C21.7693 143.137 21.9139 143.594 22.0073 144.098L20.3413 144.336C20.2666 144 20.1733 143.701 20.0613 143.44C19.9493 143.179 19.7999 142.959 19.6133 142.782C19.4359 142.595 19.2166 142.455 18.9553 142.362C18.6939 142.259 18.3813 142.208 18.0173 142.208C17.5693 142.208 17.1726 142.297 16.8273 142.474C16.4819 142.651 16.1879 142.908 15.9453 143.244C15.7119 143.571 15.5346 143.967 15.4133 144.434C15.2919 144.901 15.2313 145.423 15.2313 146.002C15.2313 146.59 15.2919 147.117 15.4133 147.584C15.5439 148.051 15.7306 148.452 15.9733 148.788C16.2159 149.115 16.5053 149.367 16.8413 149.544C17.1866 149.712 17.5786 149.796 18.0173 149.796C18.4093 149.796 18.7406 149.745 19.0113 149.642C19.2913 149.539 19.5246 149.395 19.7113 149.208C19.8979 149.021 20.0426 148.797 20.1453 148.536C20.2573 148.265 20.3366 147.962 20.3833 147.626H22.1753ZM23.7701 141.004H25.4641V151H23.7701V141.004ZM35.8585 145.694V149.81C35.3452 150.286 34.7385 150.645 34.0385 150.888C33.3385 151.131 32.6338 151.252 31.9245 151.252C31.1498 151.252 30.4685 151.131 29.8805 150.888C29.3018 150.636 28.8165 150.286 28.4245 149.838C28.0325 149.381 27.7385 148.83 27.5425 148.186C27.3465 147.542 27.2485 146.819 27.2485 146.016C27.2485 145.204 27.3558 144.476 27.5705 143.832C27.7852 143.179 28.0885 142.623 28.4805 142.166C28.8725 141.709 29.3485 141.359 29.9085 141.116C30.4685 140.873 31.0938 140.752 31.7845 140.752C32.3912 140.752 32.9185 140.831 33.3665 140.99C33.8238 141.139 34.2065 141.349 34.5145 141.62C34.8318 141.891 35.0838 142.208 35.2705 142.572C35.4665 142.927 35.6065 143.309 35.6905 143.72L34.0245 143.958C33.9498 143.678 33.8565 143.431 33.7445 143.216C33.6418 142.992 33.5018 142.805 33.3245 142.656C33.1565 142.507 32.9465 142.395 32.6945 142.32C32.4425 142.236 32.1392 142.194 31.7845 142.194C31.3178 142.194 30.9072 142.287 30.5525 142.474C30.2072 142.651 29.9178 142.908 29.6845 143.244C29.4512 143.58 29.2785 143.981 29.1665 144.448C29.0545 144.915 28.9985 145.433 28.9985 146.002C28.9985 146.59 29.0545 147.117 29.1665 147.584C29.2785 148.051 29.4558 148.452 29.6985 148.788C29.9412 149.115 30.2445 149.367 30.6085 149.544C30.9818 149.721 31.4298 149.81 31.9525 149.81C32.4192 149.81 32.8392 149.763 33.2125 149.67C33.5858 149.567 33.9452 149.395 34.2905 149.152V147.122H32.0785V145.694H35.8585ZM40.5724 141.004H42.2524L46.0604 151H44.2544L43.3164 148.452H39.4384L38.5144 151H36.7644L40.5724 141.004ZM42.8544 147.038L41.3704 142.922L39.9004 147.038H42.8544ZM50.814 145.624C51.1967 145.624 51.514 145.587 51.766 145.512C52.018 145.428 52.214 145.316 52.354 145.176C52.5033 145.027 52.606 144.849 52.662 144.644C52.7273 144.439 52.76 144.21 52.76 143.958C52.76 143.725 52.7227 143.515 52.648 143.328C52.5827 143.132 52.466 142.969 52.298 142.838C52.1393 142.698 51.9247 142.591 51.654 142.516C51.3833 142.441 51.0473 142.404 50.646 142.404H48.938V145.624H50.814ZM50.688 141.004C51.444 141.004 52.0647 141.093 52.55 141.27C53.0447 141.447 53.432 141.681 53.712 141.97C54.0013 142.25 54.202 142.563 54.314 142.908C54.426 143.253 54.482 143.594 54.482 143.93C54.482 144.583 54.3513 145.129 54.09 145.568C53.838 146.007 53.4273 146.361 52.858 146.632L54.93 151H53.082L51.29 147.024C51.206 147.033 51.1173 147.043 51.024 147.052C50.9307 147.052 50.8327 147.052 50.73 147.052H48.938V151H47.272V141.004H50.688ZM59.8101 145.624C60.1928 145.624 60.5101 145.587 60.7621 145.512C61.0141 145.428 61.2101 145.316 61.3501 145.176C61.4994 145.027 61.6021 144.849 61.6581 144.644C61.7234 144.439 61.7561 144.21 61.7561 143.958C61.7561 143.725 61.7188 143.515 61.6441 143.328C61.5788 143.132 61.4621 142.969 61.2941 142.838C61.1354 142.698 60.9208 142.591 60.6501 142.516C60.3794 142.441 60.0434 142.404 59.6421 142.404H57.9341V145.624H59.8101ZM59.6841 141.004C60.4401 141.004 61.0608 141.093 61.5461 141.27C62.0408 141.447 62.4281 141.681 62.7081 141.97C62.9974 142.25 63.1981 142.563 63.3101 142.908C63.4221 143.253 63.4781 143.594 63.4781 143.93C63.4781 144.583 63.3474 145.129 63.0861 145.568C62.8341 146.007 62.4234 146.361 61.8541 146.632L63.9261 151H62.0781L60.2861 147.024C60.2021 147.033 60.1134 147.043 60.0201 147.052C59.9268 147.052 59.8288 147.052 59.7261 147.052H57.9341V151H56.2681V141.004H59.6841ZM65.2642 141.004H66.9582V151H65.2642V141.004ZM70.7726 141.004V149.53H75.7286L75.5186 151H69.0786V141.004H70.7726ZM78.798 141.004V149.53H83.754L83.544 151H77.104V141.004H78.798ZM88.8545 151.252C88.1359 151.252 87.4872 151.135 86.9085 150.902C86.3392 150.659 85.8492 150.314 85.4385 149.866C85.0279 149.418 84.7105 148.872 84.4865 148.228C84.2719 147.575 84.1645 146.837 84.1645 146.016C84.1645 145.195 84.2765 144.457 84.5005 143.804C84.7245 143.151 85.0419 142.6 85.4525 142.152C85.8632 141.695 86.3579 141.349 86.9365 141.116C87.5152 140.873 88.1545 140.752 88.8545 140.752C89.5639 140.752 90.2079 140.873 90.7865 141.116C91.3652 141.349 91.8552 141.69 92.2565 142.138C92.6579 142.586 92.9659 143.137 93.1805 143.79C93.4045 144.434 93.5165 145.167 93.5165 145.988C93.5165 146.819 93.4092 147.561 93.1945 148.214C92.9799 148.858 92.6719 149.409 92.2705 149.866C91.8692 150.314 91.3792 150.659 90.8005 150.902C90.2312 151.135 89.5825 151.252 88.8545 151.252ZM88.8405 149.796C89.8019 149.796 90.5299 149.46 91.0245 148.788C91.5192 148.107 91.7665 147.178 91.7665 146.002C91.7665 145.414 91.7012 144.887 91.5705 144.42C91.4492 143.953 91.2672 143.557 91.0245 143.23C90.7819 142.903 90.4785 142.651 90.1145 142.474C89.7505 142.297 89.3259 142.208 88.8405 142.208C88.3552 142.208 87.9305 142.297 87.5665 142.474C87.2025 142.651 86.8945 142.903 86.6425 143.23C86.3999 143.557 86.2179 143.953 86.0965 144.42C85.9752 144.887 85.9145 145.414 85.9145 146.002C85.9145 147.178 86.1572 148.107 86.6425 148.788C87.1372 149.46 87.8699 149.796 88.8405 149.796ZM96.421 147.948C96.4956 148.601 96.729 149.077 97.121 149.376C97.5223 149.675 98.115 149.824 98.899 149.824C99.2816 149.824 99.6036 149.782 99.865 149.698C100.126 149.614 100.336 149.502 100.495 149.362C100.654 149.222 100.766 149.059 100.831 148.872C100.896 148.676 100.929 148.471 100.929 148.256C100.929 148.097 100.906 147.943 100.859 147.794C100.812 147.635 100.728 147.491 100.607 147.36C100.486 147.229 100.322 147.117 100.117 147.024C99.9116 146.921 99.6503 146.842 99.333 146.786L98.059 146.548C97.555 146.455 97.107 146.338 96.715 146.198C96.323 146.058 95.9916 145.876 95.721 145.652C95.4596 145.419 95.259 145.139 95.119 144.812C94.9883 144.476 94.923 144.07 94.923 143.594C94.923 143.118 95.0163 142.703 95.203 142.348C95.399 141.993 95.665 141.699 96.001 141.466C96.337 141.223 96.7336 141.046 97.191 140.934C97.6576 140.813 98.1616 140.752 98.703 140.752C99.3936 140.752 99.9723 140.831 100.439 140.99C100.906 141.149 101.284 141.359 101.573 141.62C101.862 141.872 102.082 142.166 102.231 142.502C102.38 142.838 102.483 143.188 102.539 143.552L100.943 143.804C100.812 143.244 100.584 142.829 100.257 142.558C99.9396 142.287 99.431 142.152 98.731 142.152C98.3296 142.152 97.9936 142.189 97.723 142.264C97.4616 142.329 97.247 142.427 97.079 142.558C96.9203 142.679 96.8036 142.824 96.729 142.992C96.6636 143.151 96.631 143.319 96.631 143.496C96.631 143.935 96.7476 144.261 96.981 144.476C97.2236 144.691 97.6436 144.859 98.241 144.98L99.627 145.246C100.682 145.442 101.456 145.778 101.951 146.254C102.446 146.721 102.693 147.397 102.693 148.284C102.693 148.704 102.614 149.096 102.455 149.46C102.306 149.815 102.072 150.127 101.755 150.398C101.438 150.659 101.041 150.865 100.565 151.014C100.098 151.173 99.5523 151.252 98.927 151.252C97.6483 151.252 96.645 150.986 95.917 150.454C95.189 149.913 94.7876 149.077 94.713 147.948H96.421Z" fill="#F2F2F0"></path>
<g clip-path="url(#clip1_2004_2155)">
<path d="M275.033 72.089C278.433 62.3001 269.545 63.0001 269.545 63.0001C266.345 50.2112 255.556 55.1112 255.556 55.1112C255.556 55.1112 254.656 49.6223 245.767 48.1223C236.878 46.6223 236.278 56.2112 236.278 56.2112C236.278 56.2112 233.478 49.4223 223.689 53.3112C213.9 57.2112 217.4 66.3001 217.4 66.3001C217.4 66.3001 207.411 69.9001 207.011 79.589C206.611 89.2779 218.7 90.6779 218.7 90.6779H274.533C274.533 90.6779 281.222 89.6334 282.022 81.6334C282.822 73.6445 275.033 72.089 275.033 72.089Z" fill="#08CC84"></path>
<path d="M222.966 23.3779C222.966 23.3779 221.089 26.9779 221.844 30.3446C222.6 33.7112 226.489 39.189 223.789 44.8001" stroke="#08CC84" stroke-width="2.22222" stroke-linejoin="round"></path>
<path d="M263.933 23.3779C263.933 23.3779 262.056 26.9779 262.811 30.3446C263.567 33.7112 267.456 39.189 264.756 44.8001" stroke="#08CC84" stroke-width="2.22222" stroke-linejoin="round"></path>
<path d="M242.811 13.0779C242.811 13.0779 240.444 17.6223 241.389 21.889C242.333 26.1445 247.256 33.0668 243.856 40.1668" stroke="#08CC84" stroke-width="2.22222" stroke-linejoin="round"></path>
<path d="M278.978 85.1113H223.144C223.144 85.1113 211.056 83.7113 211.456 74.0224C211.856 64.3335 221.844 60.7335 221.844 60.7335C221.844 60.7335 218.344 51.6446 228.133 47.7446C237.922 43.8446 240.722 50.6446 240.722 50.6446C240.722 50.6446 241.322 41.0558 250.211 42.5558C259.1 44.0558 260 49.5446 260 49.5446C260 49.5446 270.789 44.6446 273.989 57.4335C273.989 57.4335 282.878 56.7335 279.478 66.5224C279.478 66.5224 287.267 68.0669 286.467 76.0669C285.667 84.0558 278.978 85.1113 278.978 85.1113Z" fill="black" stroke="#FF7F4D" stroke-width="2.22222" stroke-linejoin="round"></path>
<path d="M224.689 76.8222C224.689 76.8222 222.289 70.2334 228.689 69.5334C235.078 68.8334 235.578 73.1778 235.578 73.1778C235.578 73.1778 234.578 67.2334 240.278 66.8334C245.978 66.4334 245.867 70.3334 245.867 70.3334" stroke="#FF7F4D" stroke-width="2.22222" stroke-linejoin="round"></path>
<path d="M262.544 69.0445C262.544 69.0445 266.678 63.5223 261.811 61.0445C256.944 58.5667 255.089 62.5112 255.089 62.5112C255.089 62.5112 257.878 57.2001 253.478 55.2001C249.067 53.2001 247.844 56.9001 247.844 56.9001" stroke="#FF7F4D" stroke-width="2.22222" stroke-linejoin="round"></path>
<path d="M250.267 79.1224C250.267 79.1224 249.867 75.0224 253.967 73.7335C258.067 72.4335 260.056 76.4335 260.056 76.4335" stroke="#FF7F4D" stroke-width="2.22222" stroke-linejoin="round"></path>
<path d="M271.922 77.0447C271.922 77.0447 271.478 73.378 276.3 73.1891" stroke="#FF7F4D" stroke-width="2.22222" stroke-linejoin="round"></path>
<path d="M230.944 57.0779C230.944 57.0779 233.989 55.0779 236.089 58.3779" stroke="#FF7F4D" stroke-width="2.22222" stroke-linejoin="round"></path>
<path d="M226.3 20.0446C226.3 20.0446 224.422 23.6446 225.178 27.0113C225.933 30.3779 229.822 35.8557 227.122 41.4668" stroke="#FF7F4D" stroke-width="2.22222" stroke-linejoin="round"></path>
<path d="M267.267 20.0446C267.267 20.0446 265.389 23.6446 266.144 27.0113C266.9 30.3779 270.789 35.8557 268.089 41.4668" stroke="#FF7F4D" stroke-width="2.22222" stroke-linejoin="round"></path>
<path d="M246.144 9.74457C246.144 9.74457 243.778 14.289 244.722 18.5557C245.667 22.8112 250.589 29.7335 247.189 36.8335" stroke="#FF7F4D" stroke-width="2.22222" stroke-linejoin="round"></path>
</g>
<path d="M200.342 124.004H202.022L205.83 134H204.024L203.086 131.452H199.208L198.284 134H196.534L200.342 124.004ZM202.624 130.038L201.14 125.922L199.67 130.038H202.624ZM210.584 128.624C210.966 128.624 211.284 128.587 211.536 128.512C211.788 128.428 211.984 128.316 212.124 128.176C212.273 128.027 212.376 127.849 212.432 127.644C212.497 127.439 212.53 127.21 212.53 126.958C212.53 126.725 212.492 126.515 212.418 126.328C212.352 126.132 212.236 125.969 212.068 125.838C211.909 125.698 211.694 125.591 211.424 125.516C211.153 125.441 210.817 125.404 210.416 125.404H208.708V128.624H210.584ZM210.458 124.004C211.214 124.004 211.834 124.093 212.32 124.27C212.814 124.447 213.202 124.681 213.482 124.97C213.771 125.25 213.972 125.563 214.084 125.908C214.196 126.253 214.252 126.594 214.252 126.93C214.252 127.583 214.121 128.129 213.86 128.568C213.608 129.007 213.197 129.361 212.628 129.632L214.7 134H212.852L211.06 130.024C210.976 130.033 210.887 130.043 210.794 130.052C210.7 130.052 210.602 130.052 210.5 130.052H208.708V134H207.042V124.004H210.458ZM216.038 124.004H222.688V125.46H217.732V128.12H222.408V129.59H217.732V132.544H222.954L222.758 134H216.038V124.004ZM224.555 124.004H226.123L230.715 131.228V124.004H232.367V134H230.799L226.193 126.804V134H224.555V124.004ZM237.393 124.004H239.073L242.881 134H241.075L240.137 131.452H236.259L235.335 134H233.585L237.393 124.004ZM239.675 130.038L238.191 125.922L236.721 130.038H239.675ZM243.619 134L246.825 123.724H248.421L245.215 134H243.619ZM252.31 125.474H249.146V124.004H257.154V125.474H254.004V134H252.31V125.474ZM258.489 124.004H260.183V134H258.489V124.004ZM262.303 124.004H268.953V125.46H263.997V128.12H268.673V129.59H263.997V132.544H269.219L269.023 134H262.303V124.004ZM274.363 128.624C274.746 128.624 275.063 128.587 275.315 128.512C275.567 128.428 275.763 128.316 275.903 128.176C276.052 128.027 276.155 127.849 276.211 127.644C276.276 127.439 276.309 127.21 276.309 126.958C276.309 126.725 276.272 126.515 276.197 126.328C276.132 126.132 276.015 125.969 275.847 125.838C275.688 125.698 275.474 125.591 275.203 125.516C274.932 125.441 274.596 125.404 274.195 125.404H272.487V128.624H274.363ZM274.237 124.004C274.993 124.004 275.614 124.093 276.099 124.27C276.594 124.447 276.981 124.681 277.261 124.97C277.55 125.25 277.751 125.563 277.863 125.908C277.975 126.253 278.031 126.594 278.031 126.93C278.031 127.583 277.9 128.129 277.639 128.568C277.387 129.007 276.976 129.361 276.407 129.632L278.479 134H276.631L274.839 130.024C274.755 130.033 274.666 130.043 274.573 130.052C274.48 130.052 274.382 130.052 274.279 130.052H272.487V134H270.821V124.004H274.237ZM283.359 128.624C283.742 128.624 284.059 128.587 284.311 128.512C284.563 128.428 284.759 128.316 284.899 128.176C285.048 128.027 285.151 127.849 285.207 127.644C285.272 127.439 285.305 127.21 285.305 126.958C285.305 126.725 285.268 126.515 285.193 126.328C285.128 126.132 285.011 125.969 284.843 125.838C284.684 125.698 284.47 125.591 284.199 125.516C283.928 125.441 283.592 125.404 283.191 125.404H281.483V128.624H283.359ZM283.233 124.004C283.989 124.004 284.61 124.093 285.095 124.27C285.59 124.447 285.977 124.681 286.257 124.97C286.546 125.25 286.747 125.563 286.859 125.908C286.971 126.253 287.027 126.594 287.027 126.93C287.027 127.583 286.896 128.129 286.635 128.568C286.383 129.007 285.972 129.361 285.403 129.632L287.475 134H285.627L283.835 130.024C283.751 130.033 283.662 130.043 283.569 130.052C283.476 130.052 283.378 130.052 283.275 130.052H281.483V134H279.817V124.004H283.233ZM291.984 124.004H293.664L297.472 134H295.666L294.728 131.452H290.85L289.926 134H288.176L291.984 124.004ZM294.266 130.038L292.782 125.922L291.312 130.038H294.266Z" fill="#F2F2F0"></path>
<defs>
<clipPath id="clip0_2004_2155">
<rect width="78.4785" height="71.1111" fill="white" transform="translate(19.4609 14.5611)"></rect>
</clipPath>
<clipPath id="clip1_2004_2155">
<rect width="80.6444" height="81.4333" fill="white" transform="translate(207 9.2334)"></rect>
</clipPath>
</defs>
</svg>