<svg xmlns:xlink="http://www.w3.org/1999/xlink" xmlns="http://www.w3.org/2000/svg" width="562" height="152" viewBox="0 0 562 152" fill="none">
<path d="M75.1779 28.2666L76.1113 23.3778C76.1113 23.3778 57.6668 19.8444 52.7891 18.9111C47.9557 17.9889 29.4335 14.4444 29.4335 14.4444L28.5002 19.3333L27.5668 24.2222L28.1557 24.3333L29.3557 32.0444L26.0557 49.3L22.7557 66.5555L18.8002 73.2778C18.4224 73.2111 18.2113 73.1666 18.2113 73.1666L16.3335 82.9444L40.8335 87.6333L38.5224 87.1889L63.0224 91.8778L63.9557 86.9889L64.8891 82.1C64.8891 82.1 62.4557 81.6333 59.1335 81L64.3002 81.9889L63.1002 74.2778L66.4002 57.0222L69.7002 39.7666L73.6557 33.0444L51.2891 28.7666L49.7446 28.4666L74.2446 33.1555L75.1779 28.2666ZM34.3224 76.2555C33.8113 76.1555 33.2891 76.0555 32.7557 75.9555L34.3224 76.2555ZM30.7002 75.5555C30.3113 75.4778 29.9335 75.4111 29.5446 75.3333L30.7002 75.5555ZM36.3891 76.6444L37.0557 76.7778C36.8335 76.7333 36.6113 76.6889 36.3891 76.6444ZM38.9779 77.1444L40.3668 77.4111C39.9446 77.3333 39.4779 77.2444 38.9779 77.1444ZM41.4113 77.6111L41.9113 77.7111C41.7891 77.6889 41.6557 77.6666 41.5446 77.6444C41.5002 77.6444 41.4557 77.6222 41.4113 77.6222V77.6111ZM55.2224 80.2555L57.7224 80.7333C56.9224 80.5778 56.0779 80.4222 55.2224 80.2555ZM42.0668 77.7333L43.1335 77.9333C42.7446 77.8555 42.3891 77.7889 42.0668 77.7333ZM43.7446 78.0555L44.0113 78.1111C43.9224 78.0889 43.8335 78.0778 43.7446 78.0555ZM46.6891 78.6222L47.8335 78.8444C47.4446 78.7666 47.0557 78.7 46.6891 78.6222ZM48.5779 78.9778L54.6891 80.1444C52.6557 79.7555 50.5446 79.3555 48.5779 78.9778Z" fill="#08CC84"></path>
<path d="M56.5002 23.3555L32.0002 18.6666L33.878 8.88882C33.878 8.88882 52.4114 12.4333 57.2336 13.3555C62.1114 14.2888 80.5558 17.8222 80.5558 17.8222L78.678 27.5999L54.178 22.911" fill="black"></path>
<path d="M56.5002 23.3555L32.0002 18.6666L33.878 8.88882C33.878 8.88882 52.4114 12.4333 57.2336 13.3555C62.1114 14.2888 80.5558 17.8222 80.5558 17.8222L78.678 27.5999L54.178 22.911" stroke="#FF7F4D" stroke-width="2.22222" stroke-linejoin="round"></path>
<path d="M68.7334 76.4332L67.5334 68.7221L70.8334 51.4665L74.1334 34.211L78.1001 27.4887L32.6001 18.7776L33.789 26.4887L30.489 43.7443L27.189 60.9998L23.2334 67.7221L68.7334 76.4332Z" fill="black" stroke="#FF7F4D" stroke-width="2.22222" stroke-linejoin="round"></path>
<path d="M37.7114 23.4556L40.367 32.9556L38.0336 45.189L35.6892 57.4223L29.7114 65.2667" stroke="#FF7F4D" stroke-width="2.22222" stroke-linejoin="round"></path>
<path d="M32.9446 13.7776C32.9446 13.7776 51.4779 17.3221 56.3001 18.2443C61.1779 19.1776 79.6224 22.711 79.6224 22.711" fill="#F2F2F0"></path>
<path d="M32.9446 13.7776C32.9446 13.7776 51.4779 17.3221 56.3001 18.2443C61.1779 19.1776 79.6224 22.711 79.6224 22.711" stroke="#FF7F4D" stroke-width="2.22222" stroke-linejoin="round"></path>
<path d="M45.2668 82.0778L20.7668 77.3889L22.6446 67.6112L45.9891 72.0778C50.8557 73.0112 69.3224 76.5445 69.3224 76.5445L67.4446 86.3223L42.9446 81.6334" fill="black"></path>
<path d="M45.2668 82.0778L20.7668 77.3889L22.6446 67.6112L45.9891 72.0778C50.8557 73.0112 69.3224 76.5445 69.3224 76.5445L67.4446 86.3223L42.9446 81.6334" stroke="#FF7F4D" stroke-width="2.22222" stroke-linejoin="round"></path>
<path d="M21.7002 72.4999C21.7002 72.4999 40.2002 76.0444 45.0446 76.9666C49.9002 77.8999 68.378 81.4333 68.378 81.4333" fill="#F2F2F0"></path>
<path d="M21.7002 72.4999C21.7002 72.4999 40.2002 76.0444 45.0446 76.9666C49.9002 77.8999 68.378 81.4333 68.378 81.4333" stroke="#FF7F4D" stroke-width="2.22222" stroke-linejoin="round"></path>
<path d="M71.6114 29.9443L65.6336 37.7888L63.3003 50.0221L60.9558 62.2554L63.6114 71.7554" stroke="#FF7F4D" stroke-width="2.22222" stroke-linejoin="round"></path>
<path d="M1.46732 124.004H8.11732V125.46H3.16132V128.12H7.83732V129.59H3.16132V132.544H8.38332L8.18732 134H1.46732V124.004ZM9.9849 124.004H11.5529L16.1449 131.228V124.004H17.7969V134H16.2289L11.6229 126.804V134H9.9849V124.004ZM20.9044 124.004L23.6484 131.704L26.4344 124.004H28.2404L24.4464 134H22.8224L19.0144 124.004H20.9044ZM33.3291 134.252C32.6105 134.252 31.9618 134.135 31.3831 133.902C30.8138 133.659 30.3238 133.314 29.9131 132.866C29.5025 132.418 29.1851 131.872 28.9611 131.228C28.7465 130.575 28.6391 129.837 28.6391 129.016C28.6391 128.195 28.7511 127.457 28.9751 126.804C29.1991 126.151 29.5165 125.6 29.9271 125.152C30.3378 124.695 30.8325 124.349 31.4111 124.116C31.9898 123.873 32.6291 123.752 33.3291 123.752C34.0385 123.752 34.6825 123.873 35.2611 124.116C35.8398 124.349 36.3298 124.69 36.7311 125.138C37.1325 125.586 37.4405 126.137 37.6551 126.79C37.8791 127.434 37.9911 128.167 37.9911 128.988C37.9911 129.819 37.8838 130.561 37.6691 131.214C37.4545 131.858 37.1465 132.409 36.7451 132.866C36.3438 133.314 35.8538 133.659 35.2751 133.902C34.7058 134.135 34.0571 134.252 33.3291 134.252ZM33.3151 132.796C34.2765 132.796 35.0045 132.46 35.4991 131.788C35.9938 131.107 36.2411 130.178 36.2411 129.002C36.2411 128.414 36.1758 127.887 36.0451 127.42C35.9238 126.953 35.7418 126.557 35.4991 126.23C35.2565 125.903 34.9531 125.651 34.5891 125.474C34.2251 125.297 33.8005 125.208 33.3151 125.208C32.8298 125.208 32.4051 125.297 32.0411 125.474C31.6771 125.651 31.3691 125.903 31.1171 126.23C30.8745 126.557 30.6925 126.953 30.5711 127.42C30.4498 127.887 30.3891 128.414 30.3891 129.002C30.3891 130.178 30.6318 131.107 31.1171 131.788C31.6118 132.46 32.3445 132.796 33.3151 132.796ZM41.4836 124.004V132.53H46.4396L46.2296 134H39.7896V124.004H41.4836ZM48.6361 125.474H45.4721V124.004H53.4801V125.474H50.3301V134H48.6361V125.474ZM58.6768 134.252C57.9581 134.252 57.3095 134.135 56.7308 133.902C56.1615 133.659 55.6715 133.314 55.2608 132.866C54.8501 132.418 54.5328 131.872 54.3088 131.228C54.0941 130.575 53.9868 129.837 53.9868 129.016C53.9868 128.195 54.0988 127.457 54.3228 126.804C54.5468 126.151 54.8641 125.6 55.2748 125.152C55.6855 124.695 56.1801 124.349 56.7588 124.116C57.3375 123.873 57.9768 123.752 58.6768 123.752C59.3861 123.752 60.0301 123.873 60.6088 124.116C61.1875 124.349 61.6775 124.69 62.0788 125.138C62.4801 125.586 62.7881 126.137 63.0028 126.79C63.2268 127.434 63.3388 128.167 63.3388 128.988C63.3388 129.819 63.2315 130.561 63.0168 131.214C62.8021 131.858 62.4941 132.409 62.0928 132.866C61.6915 133.314 61.2015 133.659 60.6228 133.902C60.0535 134.135 59.4048 134.252 58.6768 134.252ZM58.6628 132.796C59.6241 132.796 60.3521 132.46 60.8468 131.788C61.3415 131.107 61.5888 130.178 61.5888 129.002C61.5888 128.414 61.5235 127.887 61.3928 127.42C61.2715 126.953 61.0895 126.557 60.8468 126.23C60.6041 125.903 60.3008 125.651 59.9368 125.474C59.5728 125.297 59.1481 125.208 58.6628 125.208C58.1775 125.208 57.7528 125.297 57.3888 125.474C57.0248 125.651 56.7168 125.903 56.4648 126.23C56.2221 126.557 56.0401 126.953 55.9188 127.42C55.7975 127.887 55.7368 128.414 55.7368 129.002C55.7368 130.178 55.9795 131.107 56.4648 131.788C56.9595 132.46 57.6921 132.796 58.6628 132.796ZM68.6792 128.624C69.0619 128.624 69.3792 128.587 69.6312 128.512C69.8832 128.428 70.0792 128.316 70.2192 128.176C70.3686 128.027 70.4712 127.849 70.5272 127.644C70.5926 127.439 70.6252 127.21 70.6252 126.958C70.6252 126.725 70.5879 126.515 70.5132 126.328C70.4479 126.132 70.3312 125.969 70.1632 125.838C70.0046 125.698 69.7899 125.591 69.5192 125.516C69.2486 125.441 68.9126 125.404 68.5112 125.404H66.8032V128.624H68.6792ZM68.5532 124.004C69.3092 124.004 69.9299 124.093 70.4152 124.27C70.9099 124.447 71.2972 124.681 71.5772 124.97C71.8666 125.25 72.0672 125.563 72.1792 125.908C72.2912 126.253 72.3472 126.594 72.3472 126.93C72.3472 127.583 72.2166 128.129 71.9552 128.568C71.7032 129.007 71.2926 129.361 70.7232 129.632L72.7952 134H70.9472L69.1552 130.024C69.0712 130.033 68.9826 130.043 68.8892 130.052C68.7959 130.052 68.6979 130.052 68.5952 130.052H66.8032V134H65.1372V124.004H68.5532ZM74.1333 124.004H75.8273V134H74.1333V124.004ZM82.3018 134.252C81.5831 134.252 80.9345 134.135 80.3558 133.902C79.7865 133.659 79.2965 133.314 78.8858 132.866C78.4751 132.418 78.1578 131.872 77.9338 131.228C77.7191 130.575 77.6118 129.837 77.6118 129.016C77.6118 128.195 77.7238 127.457 77.9478 126.804C78.1718 126.151 78.4891 125.6 78.8998 125.152C79.3105 124.695 79.8051 124.349 80.3838 124.116C80.9625 123.873 81.6018 123.752 82.3018 123.752C83.0111 123.752 83.6551 123.873 84.2338 124.116C84.8125 124.349 85.3025 124.69 85.7038 125.138C86.1051 125.586 86.4131 126.137 86.6278 126.79C86.8518 127.434 86.9638 128.167 86.9638 128.988C86.9638 129.819 86.8565 130.561 86.6418 131.214C86.4271 131.858 86.1191 132.409 85.7178 132.866C85.3165 133.314 84.8265 133.659 84.2478 133.902C83.6785 134.135 83.0298 134.252 82.3018 134.252ZM82.2878 132.796C83.2491 132.796 83.9771 132.46 84.4718 131.788C84.9665 131.107 85.2138 130.178 85.2138 129.002C85.2138 128.414 85.1485 127.887 85.0178 127.42C84.8965 126.953 84.7145 126.557 84.4718 126.23C84.2291 125.903 83.9258 125.651 83.5618 125.474C83.1978 125.297 82.7731 125.208 82.2878 125.208C81.8025 125.208 81.3778 125.297 81.0138 125.474C80.6498 125.651 80.3418 125.903 80.0898 126.23C79.8471 126.557 79.6651 126.953 79.5438 127.42C79.4225 127.887 79.3618 128.414 79.3618 129.002C79.3618 130.178 79.6045 131.107 80.0898 131.788C80.5845 132.46 81.3171 132.796 82.2878 132.796ZM89.8682 130.948C89.9429 131.601 90.1762 132.077 90.5682 132.376C90.9696 132.675 91.5622 132.824 92.3462 132.824C92.7289 132.824 93.0509 132.782 93.3122 132.698C93.5736 132.614 93.7836 132.502 93.9422 132.362C94.1009 132.222 94.2129 132.059 94.2782 131.872C94.3436 131.676 94.3762 131.471 94.3762 131.256C94.3762 131.097 94.3529 130.943 94.3062 130.794C94.2596 130.635 94.1756 130.491 94.0542 130.36C93.9329 130.229 93.7696 130.117 93.5642 130.024C93.3589 129.921 93.0976 129.842 92.7802 129.786L91.5062 129.548C91.0022 129.455 90.5542 129.338 90.1622 129.198C89.7702 129.058 89.4389 128.876 89.1682 128.652C88.9069 128.419 88.7062 128.139 88.5662 127.812C88.4356 127.476 88.3702 127.07 88.3702 126.594C88.3702 126.118 88.4636 125.703 88.6502 125.348C88.8462 124.993 89.1122 124.699 89.4482 124.466C89.7842 124.223 90.1809 124.046 90.6382 123.934C91.1049 123.813 91.6089 123.752 92.1502 123.752C92.8409 123.752 93.4196 123.831 93.8862 123.99C94.3529 124.149 94.7309 124.359 95.0202 124.62C95.3096 124.872 95.5289 125.166 95.6782 125.502C95.8276 125.838 95.9302 126.188 95.9862 126.552L94.3902 126.804C94.2596 126.244 94.0309 125.829 93.7042 125.558C93.3869 125.287 92.8782 125.152 92.1782 125.152C91.7769 125.152 91.4409 125.189 91.1702 125.264C90.9089 125.329 90.6942 125.427 90.5262 125.558C90.3676 125.679 90.2509 125.824 90.1762 125.992C90.1109 126.151 90.0782 126.319 90.0782 126.496C90.0782 126.935 90.1949 127.261 90.4282 127.476C90.6709 127.691 91.0909 127.859 91.6882 127.98L93.0742 128.246C94.1289 128.442 94.9036 128.778 95.3982 129.254C95.8929 129.721 96.1402 130.397 96.1402 131.284C96.1402 131.704 96.0609 132.096 95.9022 132.46C95.7529 132.815 95.5196 133.127 95.2022 133.398C94.8849 133.659 94.4882 133.865 94.0122 134.014C93.5456 134.173 92.9996 134.252 92.3742 134.252C91.0956 134.252 90.0922 133.986 89.3642 133.454C88.6362 132.913 88.2349 132.077 88.1602 130.948H89.8682ZM10.8667 141.004H14.3247C15.0807 141.004 15.7014 141.088 16.1867 141.256C16.6814 141.424 17.0687 141.648 17.3487 141.928C17.6287 142.208 17.8247 142.535 17.9367 142.908C18.0487 143.272 18.1047 143.655 18.1047 144.056C18.1047 144.485 18.0487 144.896 17.9367 145.288C17.8247 145.68 17.6241 146.025 17.3347 146.324C17.0547 146.613 16.6721 146.847 16.1867 147.024C15.7014 147.192 15.0901 147.276 14.3527 147.276H12.5327V151H10.8667V141.004ZM14.3107 145.862C14.7401 145.862 15.0901 145.82 15.3607 145.736C15.6407 145.652 15.8601 145.535 16.0187 145.386C16.1774 145.227 16.2847 145.041 16.3407 144.826C16.4061 144.611 16.4387 144.369 16.4387 144.098C16.4387 143.818 16.4061 143.575 16.3407 143.37C16.2754 143.155 16.1587 142.978 15.9907 142.838C15.8321 142.698 15.6127 142.591 15.3327 142.516C15.0621 142.441 14.7167 142.404 14.2967 142.404H12.5327V145.862H14.3107ZM21.4201 141.004V149.53H26.3761L26.1661 151H19.7261V141.004H21.4201ZM30.9229 141.004H32.6029L36.4109 151H34.6049L33.6669 148.452H29.7889L28.8649 151H27.1149L30.9229 141.004ZM33.2049 147.038L31.7209 142.922L30.2509 147.038H33.2049ZM34.1849 138.232L32.0989 140.178H30.5729L32.2949 138.232H34.1849ZM38.4552 147.948C38.5298 148.601 38.7632 149.077 39.1552 149.376C39.5565 149.675 40.1492 149.824 40.9332 149.824C41.3158 149.824 41.6378 149.782 41.8992 149.698C42.1605 149.614 42.3705 149.502 42.5292 149.362C42.6878 149.222 42.7998 149.059 42.8652 148.872C42.9305 148.676 42.9632 148.471 42.9632 148.256C42.9632 148.097 42.9398 147.943 42.8932 147.794C42.8465 147.635 42.7625 147.491 42.6412 147.36C42.5198 147.229 42.3565 147.117 42.1512 147.024C41.9458 146.921 41.6845 146.842 41.3672 146.786L40.0932 146.548C39.5892 146.455 39.1412 146.338 38.7492 146.198C38.3572 146.058 38.0258 145.876 37.7552 145.652C37.4938 145.419 37.2932 145.139 37.1532 144.812C37.0225 144.476 36.9572 144.07 36.9572 143.594C36.9572 143.118 37.0505 142.703 37.2372 142.348C37.4332 141.993 37.6992 141.699 38.0352 141.466C38.3712 141.223 38.7678 141.046 39.2252 140.934C39.6918 140.813 40.1958 140.752 40.7372 140.752C41.4278 140.752 42.0065 140.831 42.4732 140.99C42.9398 141.149 43.3178 141.359 43.6072 141.62C43.8965 141.872 44.1158 142.166 44.2652 142.502C44.4145 142.838 44.5172 143.188 44.5732 143.552L42.9772 143.804C42.8465 143.244 42.6178 142.829 42.2912 142.558C41.9738 142.287 41.4652 142.152 40.7652 142.152C40.3638 142.152 40.0278 142.189 39.7572 142.264C39.4958 142.329 39.2812 142.427 39.1132 142.558C38.9545 142.679 38.8378 142.824 38.7632 142.992C38.6978 143.151 38.6652 143.319 38.6652 143.496C38.6652 143.935 38.7818 144.261 39.0152 144.476C39.2578 144.691 39.6778 144.859 40.2752 144.98L41.6612 145.246C42.7158 145.442 43.4905 145.778 43.9852 146.254C44.4798 146.721 44.7272 147.397 44.7272 148.284C44.7272 148.704 44.6478 149.096 44.4892 149.46C44.3398 149.815 44.1065 150.127 43.7892 150.398C43.4718 150.659 43.0752 150.865 42.5992 151.014C42.1325 151.173 41.5865 151.252 40.9612 151.252C39.6825 151.252 38.6792 150.986 37.9512 150.454C37.2232 149.913 36.8218 149.077 36.7472 147.948H38.4552ZM48.5882 142.474H45.4242V141.004H53.4322V142.474H50.2822V151H48.5882V142.474ZM54.7671 141.004H56.4611V151H54.7671V141.004ZM66.9536 147.626C66.8976 148.149 66.7716 148.629 66.5756 149.068C66.3796 149.507 66.1089 149.889 65.7636 150.216C65.4182 150.543 64.9982 150.799 64.5036 150.986C64.0089 151.163 63.4349 151.252 62.7816 151.252C62.0629 151.252 61.4189 151.131 60.8496 150.888C60.2896 150.645 59.8136 150.3 59.4216 149.852C59.0389 149.395 58.7449 148.844 58.5396 148.2C58.3436 147.547 58.2456 146.819 58.2456 146.016C58.2456 145.195 58.3529 144.457 58.5676 143.804C58.7916 143.151 59.1042 142.6 59.5056 142.152C59.9069 141.695 60.3876 141.349 60.9476 141.116C61.5076 140.873 62.1236 140.752 62.7956 140.752C63.4209 140.752 63.9622 140.831 64.4196 140.99C64.8769 141.149 65.2642 141.377 65.5816 141.676C65.9082 141.965 66.1649 142.315 66.3516 142.726C66.5476 143.137 66.6922 143.594 66.7856 144.098L65.1196 144.336C65.0449 144 64.9516 143.701 64.8396 143.44C64.7276 143.179 64.5782 142.959 64.3916 142.782C64.2142 142.595 63.9949 142.455 63.7336 142.362C63.4722 142.259 63.1596 142.208 62.7956 142.208C62.3476 142.208 61.9509 142.297 61.6056 142.474C61.2602 142.651 60.9662 142.908 60.7236 143.244C60.4902 143.571 60.3129 143.967 60.1916 144.434C60.0702 144.901 60.0096 145.423 60.0096 146.002C60.0096 146.59 60.0702 147.117 60.1916 147.584C60.3222 148.051 60.5089 148.452 60.7516 148.788C60.9942 149.115 61.2836 149.367 61.6196 149.544C61.9649 149.712 62.3569 149.796 62.7956 149.796C63.1876 149.796 63.5189 149.745 63.7896 149.642C64.0696 149.539 64.3029 149.395 64.4896 149.208C64.6762 149.021 64.8209 148.797 64.9236 148.536C65.0356 148.265 65.1149 147.962 65.1616 147.626H66.9536ZM72.9024 151.252C72.1837 151.252 71.535 151.135 70.9564 150.902C70.387 150.659 69.897 150.314 69.4864 149.866C69.0757 149.418 68.7584 148.872 68.5344 148.228C68.3197 147.575 68.2124 146.837 68.2124 146.016C68.2124 145.195 68.3244 144.457 68.5484 143.804C68.7724 143.151 69.0897 142.6 69.5004 142.152C69.911 141.695 70.4057 141.349 70.9844 141.116C71.563 140.873 72.2024 140.752 72.9024 140.752C73.6117 140.752 74.2557 140.873 74.8344 141.116C75.413 141.349 75.903 141.69 76.3044 142.138C76.7057 142.586 77.0137 143.137 77.2284 143.79C77.4524 144.434 77.5644 145.167 77.5644 145.988C77.5644 146.819 77.457 147.561 77.2424 148.214C77.0277 148.858 76.7197 149.409 76.3184 149.866C75.917 150.314 75.427 150.659 74.8484 150.902C74.279 151.135 73.6304 151.252 72.9024 151.252ZM72.8884 149.796C73.8497 149.796 74.5777 149.46 75.0724 148.788C75.567 148.107 75.8144 147.178 75.8144 146.002C75.8144 145.414 75.749 144.887 75.6184 144.42C75.497 143.953 75.315 143.557 75.0724 143.23C74.8297 142.903 74.5264 142.651 74.1624 142.474C73.7984 142.297 73.3737 142.208 72.8884 142.208C72.403 142.208 71.9784 142.297 71.6144 142.474C71.2504 142.651 70.9424 142.903 70.6904 143.23C70.4477 143.557 70.2657 143.953 70.1444 144.42C70.023 144.887 69.9624 145.414 69.9624 146.002C69.9624 147.178 70.205 148.107 70.6904 148.788C71.185 149.46 71.9177 149.796 72.8884 149.796ZM80.4688 147.948C80.5435 148.601 80.7768 149.077 81.1688 149.376C81.5702 149.675 82.1628 149.824 82.9468 149.824C83.3295 149.824 83.6515 149.782 83.9128 149.698C84.1742 149.614 84.3842 149.502 84.5428 149.362C84.7015 149.222 84.8135 149.059 84.8788 148.872C84.9442 148.676 84.9768 148.471 84.9768 148.256C84.9768 148.097 84.9535 147.943 84.9068 147.794C84.8602 147.635 84.7762 147.491 84.6548 147.36C84.5335 147.229 84.3702 147.117 84.1648 147.024C83.9595 146.921 83.6982 146.842 83.3808 146.786L82.1068 146.548C81.6028 146.455 81.1548 146.338 80.7628 146.198C80.3708 146.058 80.0395 145.876 79.7688 145.652C79.5075 145.419 79.3068 145.139 79.1668 144.812C79.0362 144.476 78.9708 144.07 78.9708 143.594C78.9708 143.118 79.0642 142.703 79.2508 142.348C79.4468 141.993 79.7128 141.699 80.0488 141.466C80.3848 141.223 80.7815 141.046 81.2388 140.934C81.7055 140.813 82.2095 140.752 82.7508 140.752C83.4415 140.752 84.0202 140.831 84.4868 140.99C84.9535 141.149 85.3315 141.359 85.6208 141.62C85.9102 141.872 86.1295 142.166 86.2788 142.502C86.4282 142.838 86.5308 143.188 86.5868 143.552L84.9908 143.804C84.8602 143.244 84.6315 142.829 84.3048 142.558C83.9875 142.287 83.4788 142.152 82.7788 142.152C82.3775 142.152 82.0415 142.189 81.7708 142.264C81.5095 142.329 81.2948 142.427 81.1268 142.558C80.9682 142.679 80.8515 142.824 80.7768 142.992C80.7115 143.151 80.6788 143.319 80.6788 143.496C80.6788 143.935 80.7955 144.261 81.0288 144.476C81.2715 144.691 81.6915 144.859 82.2888 144.98L83.6748 145.246C84.7295 145.442 85.5042 145.778 85.9988 146.254C86.4935 146.721 86.7408 147.397 86.7408 148.284C86.7408 148.704 86.6615 149.096 86.5028 149.46C86.3535 149.815 86.1202 150.127 85.8028 150.398C85.4855 150.659 85.0888 150.865 84.6128 151.014C84.1462 151.173 83.6002 151.252 82.9748 151.252C81.6962 151.252 80.6928 150.986 79.9648 150.454C79.2368 149.913 78.8355 149.077 78.7608 147.948H80.4688Z" fill="#F2F2F0"></path>
<g clip-path="url(#clip0_2003_2099)">
<path d="M288.067 74.7444C288.067 74.7444 288.845 73.9666 289.4 72.5777C289.956 71.1888 288.145 65.7777 288.056 60.3444C287.956 54.9111 286.8 52.0555 286.8 52.0555C288.078 49.1555 287.822 47.1111 287.245 45.5333C286.767 44.2222 286.056 43.2333 285.789 42.3444C285.2 40.3777 284.856 37.8444 284.611 36.2222C284.367 34.6 281.011 27.8111 280.045 25.2666C279.078 22.7222 277.478 18.5222 275.522 18.4666C273.567 18.4111 274.133 20.0444 273.311 21.9111C272.556 23.6555 273.967 35.2888 273.5 37.1222L273.356 37.3777C272.522 37.5888 268.445 36.5888 266.878 35.7444C265.611 35.0555 262.078 35.7111 260.778 35.9888C259.222 30.4666 250.445 26.3222 250.445 26.3222L250.245 26.3444L249.122 15.5555L241.422 16.3555L242.589 27.5555C236.678 31.4333 235.1 37.8888 235.1 37.8888L234.911 36.0888L232.678 36.3222L232.233 32.0333L227.2 32.5555L227.645 36.8444L225.411 37.0777L225.956 42.2888C225.133 42.3333 222.611 42.7555 222.911 46.4666C223.267 50.9 223.533 58.4444 222.733 63.7222C221.933 69 222.333 85.3111 227.556 91.1555L243.789 89.4666L262.645 87.5111C264.289 87.2111 265.067 86.2222 265.433 85.3111L265.633 87.2L289.367 84.7333C289.367 84.7333 290.556 84.2222 291.156 80.4999C291.756 76.7777 288.1 74.7444 288.1 74.7444H288.067ZM235.433 41.3222L235.078 37.8777L235.656 41.3L235.433 41.3222Z" fill="#08CC84"></path>
<path d="M264.733 30.5444C264.733 30.5444 269.745 29.3444 271.322 30.2C272.9 31.0555 276.967 32.0555 277.8 31.8333C278.633 31.6111 276.933 18.2444 277.745 16.3666C278.556 14.4889 278 12.8666 279.956 12.9222C281.911 12.9777 283.511 17.1777 284.478 19.7222C285.445 22.2666 288.8 29.0555 289.045 30.6777C289.289 32.3 289.633 34.8444 290.222 36.8C290.811 38.7555 293.567 41.2 291.233 46.5111C291.233 46.5111 292.389 49.3777 292.489 54.8C292.589 60.2333 294.4 65.6444 293.833 67.0333C293.278 68.4111 292.5 69.2 292.5 69.2C292.5 69.2 296.156 71.2333 295.556 74.9555C294.956 78.6777 293.767 79.1889 293.767 79.1889L270.033 81.6555" fill="black"></path>
<path d="M264.733 30.5444C264.733 30.5444 269.745 29.3444 271.322 30.2C272.9 31.0555 276.967 32.0555 277.8 31.8333C278.633 31.6111 276.933 18.2444 277.745 16.3666C278.556 14.4889 278 12.8666 279.956 12.9222C281.911 12.9777 283.511 17.1777 284.478 19.7222C285.445 22.2666 288.8 29.0555 289.045 30.6777C289.289 32.3 289.633 34.8444 290.222 36.8C290.811 38.7555 293.567 41.2 291.233 46.5111C291.233 46.5111 292.389 49.3777 292.489 54.8C292.589 60.2333 294.4 65.6444 293.833 67.0333C293.278 68.4111 292.5 69.2 292.5 69.2C292.5 69.2 296.156 71.2333 295.556 74.9555C294.956 78.6777 293.767 79.1889 293.767 79.1889L270.033 81.6555" stroke="#FF7F4D" stroke-width="2.22222" stroke-linejoin="round"></path>
<path d="M292.511 69.1891C292.511 69.1891 291.322 71.9557 285.089 72.6891C278.856 73.4224 270.722 76.6668 270.722 76.6668" stroke="#FF7F4D" stroke-width="2.22222" stroke-linejoin="round"></path>
<path d="M268.978 71.3222C268.978 71.3222 278.478 66.8333 280 66.4333C281.522 66.0333 287.656 56.2111 287.656 56.2111" stroke="#FF7F4D" stroke-width="2.22222" stroke-linejoin="round"></path>
<path d="M268.156 58.2445L280.233 56.0668" stroke="#FF7F4D" stroke-width="2.22222" stroke-linejoin="round"></path>
<path d="M275.367 51.1111C275.367 51.1111 287.144 44.5889 291.244 46.5" stroke="#FF7F4D" stroke-width="2.22222" stroke-linejoin="round"></path>
<path d="M278.2 42.4779C278.2 42.4779 287.533 42.4223 291.689 39.9779Z" fill="#F2F2F0"></path>
<path d="M278.2 42.4779C278.2 42.4779 287.533 42.4223 291.689 39.9779" stroke="#FF7F4D" stroke-width="2.22222" stroke-linejoin="round"></path>
<path d="M272.544 30.7223C272.544 30.7223 268.056 33.2111 269.789 37.1667C271.522 41.1223 274.3 46.9 274.3 46.9" stroke="#FF7F4D" stroke-width="2.22222" stroke-linejoin="round"></path>
<path d="M277.8 31.8335C277.8 31.8335 279.511 34.0224 281.689 33.3224C283.878 32.6224 282.267 23.9224 282.267 23.9224" stroke="#FF7F4D" stroke-width="2.22222" stroke-linejoin="round"></path>
<path d="M240.289 35.7333L230.633 36.7333C230.633 36.7333 226.978 36.4889 227.333 40.9222C227.689 45.3555 227.956 52.9 227.156 58.1778C226.356 63.4555 226.756 79.7666 231.978 85.6111L248.211 83.9222C248.211 83.9222 253.1 76.9777 250.144 67.5222C247.189 58.0666 244.844 49.4889 243.933 44.7C243.022 39.9111 244.778 35.8889 240.3 35.7333H240.289Z" fill="black" stroke="#FF7F4D" stroke-width="2.22222" stroke-linejoin="round"></path>
<path d="M239.341 30.53L229.837 31.5189L230.382 36.7573L239.886 35.7684L239.341 30.53Z" fill="black" stroke="#FF7F4D" stroke-width="2.22222" stroke-linejoin="round"></path>
<path d="M236.658 26.4815L231.629 27.0047L232.078 31.3148L237.106 30.7916L236.658 26.4815Z" fill="black" stroke="#FF7F4D" stroke-width="2.22222" stroke-linejoin="round"></path>
<path d="M227.467 42.8668L236.055 41.9779" stroke="#FF7F4D" stroke-width="2.22222" stroke-linejoin="round"></path>
<path d="M239.522 32.3333C239.522 32.3333 241.233 25.3 247.789 21.5L254.878 20.7667C254.878 20.7667 263.722 24.9333 265.233 30.4889L270.178 78.0556C270.178 78.0556 270.311 81.3667 267.056 81.9667L248.2 83.9222L239.511 32.3333H239.522Z" fill="black" stroke="#FF7F4D" stroke-width="2.22222" stroke-linejoin="round"></path>
<path d="M248.667 37.9223L265.822 36.1334" stroke="#FF7F4D" stroke-width="2.22222" stroke-linejoin="round"></path>
<path d="M260.9 40.6999L264.167 72.1333" stroke="#FF7F4D" stroke-width="2.22222" stroke-linejoin="round"></path>
<path d="M256.367 77.0001L269.933 75.589" stroke="#FF7F4D" stroke-width="2.22222" stroke-linejoin="round"></path>
<path d="M253.549 9.99341L245.846 10.7949L247.011 21.99L254.714 21.1885L253.549 9.99341Z" fill="black" stroke="#FF7F4D" stroke-width="2.22222" stroke-linejoin="round"></path>
</g>
<path d="M179.42 130.948C179.495 131.601 179.728 132.077 180.12 132.376C180.521 132.675 181.114 132.824 181.898 132.824C182.281 132.824 182.603 132.782 182.864 132.698C183.125 132.614 183.335 132.502 183.494 132.362C183.653 132.222 183.765 132.059 183.83 131.872C183.895 131.676 183.928 131.471 183.928 131.256C183.928 131.097 183.905 130.943 183.858 130.794C183.811 130.635 183.727 130.491 183.606 130.36C183.485 130.229 183.321 130.117 183.116 130.024C182.911 129.921 182.649 129.842 182.332 129.786L181.058 129.548C180.554 129.455 180.106 129.338 179.714 129.198C179.322 129.058 178.991 128.876 178.72 128.652C178.459 128.419 178.258 128.139 178.118 127.812C177.987 127.476 177.922 127.07 177.922 126.594C177.922 126.118 178.015 125.703 178.202 125.348C178.398 124.993 178.664 124.699 179 124.466C179.336 124.223 179.733 124.046 180.19 123.934C180.657 123.813 181.161 123.752 181.702 123.752C182.393 123.752 182.971 123.831 183.438 123.99C183.905 124.149 184.283 124.359 184.572 124.62C184.861 124.872 185.081 125.166 185.23 125.502C185.379 125.838 185.482 126.188 185.538 126.552L183.942 126.804C183.811 126.244 183.583 125.829 183.256 125.558C182.939 125.287 182.43 125.152 181.73 125.152C181.329 125.152 180.993 125.189 180.722 125.264C180.461 125.329 180.246 125.427 180.078 125.558C179.919 125.679 179.803 125.824 179.728 125.992C179.663 126.151 179.63 126.319 179.63 126.496C179.63 126.935 179.747 127.261 179.98 127.476C180.223 127.691 180.643 127.859 181.24 127.98L182.626 128.246C183.681 128.442 184.455 128.778 184.95 129.254C185.445 129.721 185.692 130.397 185.692 131.284C185.692 131.704 185.613 132.096 185.454 132.46C185.305 132.815 185.071 133.127 184.754 133.398C184.437 133.659 184.04 133.865 183.564 134.014C183.097 134.173 182.551 134.252 181.926 134.252C180.647 134.252 179.644 133.986 178.916 133.454C178.188 132.913 177.787 132.077 177.712 130.948H179.42ZM190.222 124.004H191.902L195.71 134H193.904L192.966 131.452H189.088L188.164 134H186.414L190.222 124.004ZM192.504 130.038L191.02 125.922L189.55 130.038H192.504ZM204.733 130.626C204.677 131.149 204.551 131.629 204.355 132.068C204.159 132.507 203.888 132.889 203.543 133.216C203.198 133.543 202.778 133.799 202.283 133.986C201.788 134.163 201.214 134.252 200.561 134.252C199.842 134.252 199.198 134.131 198.629 133.888C198.069 133.645 197.593 133.3 197.201 132.852C196.818 132.395 196.524 131.844 196.319 131.2C196.123 130.547 196.025 129.819 196.025 129.016C196.025 128.195 196.132 127.457 196.347 126.804C196.571 126.151 196.884 125.6 197.285 125.152C197.686 124.695 198.167 124.349 198.727 124.116C199.287 123.873 199.903 123.752 200.575 123.752C201.2 123.752 201.742 123.831 202.199 123.99C202.656 124.149 203.044 124.377 203.361 124.676C203.688 124.965 203.944 125.315 204.131 125.726C204.327 126.137 204.472 126.594 204.565 127.098L202.899 127.336C202.824 127 202.731 126.701 202.619 126.44C202.507 126.179 202.358 125.959 202.171 125.782C201.994 125.595 201.774 125.455 201.513 125.362C201.252 125.259 200.939 125.208 200.575 125.208C200.127 125.208 199.73 125.297 199.385 125.474C199.04 125.651 198.746 125.908 198.503 126.244C198.27 126.571 198.092 126.967 197.971 127.434C197.85 127.901 197.789 128.423 197.789 129.002C197.789 129.59 197.85 130.117 197.971 130.584C198.102 131.051 198.288 131.452 198.531 131.788C198.774 132.115 199.063 132.367 199.399 132.544C199.744 132.712 200.136 132.796 200.575 132.796C200.967 132.796 201.298 132.745 201.569 132.642C201.849 132.539 202.082 132.395 202.269 132.208C202.456 132.021 202.6 131.797 202.703 131.536C202.815 131.265 202.894 130.962 202.941 130.626H204.733ZM206.328 124.004H208.022V128.05H212.516V124.004H214.21V134H212.516V129.618H208.022V134H206.328V124.004ZM216.335 124.004H222.985V125.46H218.029V128.12H222.705V129.59H218.029V132.544H223.251L223.055 134H216.335V124.004ZM227.219 125.474H224.055V124.004H232.063V125.474H228.913V134H227.219V125.474ZM234.641 130.948C234.715 131.601 234.949 132.077 235.341 132.376C235.742 132.675 236.335 132.824 237.119 132.824C237.501 132.824 237.823 132.782 238.085 132.698C238.346 132.614 238.556 132.502 238.715 132.362C238.873 132.222 238.985 132.059 239.051 131.872C239.116 131.676 239.149 131.471 239.149 131.256C239.149 131.097 239.125 130.943 239.079 130.794C239.032 130.635 238.948 130.491 238.827 130.36C238.705 130.229 238.542 130.117 238.337 130.024C238.131 129.921 237.87 129.842 237.553 129.786L236.279 129.548C235.775 129.455 235.327 129.338 234.935 129.198C234.543 129.058 234.211 128.876 233.941 128.652C233.679 128.419 233.479 128.139 233.339 127.812C233.208 127.476 233.143 127.07 233.143 126.594C233.143 126.118 233.236 125.703 233.423 125.348C233.619 124.993 233.885 124.699 234.221 124.466C234.557 124.223 234.953 124.046 235.411 123.934C235.877 123.813 236.381 123.752 236.923 123.752C237.613 123.752 238.192 123.831 238.659 123.99C239.125 124.149 239.503 124.359 239.793 124.62C240.082 124.872 240.301 125.166 240.451 125.502C240.6 125.838 240.703 126.188 240.759 126.552L239.163 126.804C239.032 126.244 238.803 125.829 238.477 125.558C238.159 125.287 237.651 125.152 236.951 125.152C236.549 125.152 236.213 125.189 235.943 125.264C235.681 125.329 235.467 125.427 235.299 125.558C235.14 125.679 235.023 125.824 234.949 125.992C234.883 126.151 234.851 126.319 234.851 126.496C234.851 126.935 234.967 127.261 235.201 127.476C235.443 127.691 235.863 127.859 236.461 127.98L237.847 128.246C238.901 128.442 239.676 128.778 240.171 129.254C240.665 129.721 240.913 130.397 240.913 131.284C240.913 131.704 240.833 132.096 240.675 132.46C240.525 132.815 240.292 133.127 239.975 133.398C239.657 133.659 239.261 133.865 238.785 134.014C238.318 134.173 237.772 134.252 237.147 134.252C235.868 134.252 234.865 133.986 234.137 133.454C233.409 132.913 233.007 132.077 232.933 130.948H234.641ZM248.238 129.842L244.766 124.004H246.656L249.064 128.344L251.528 124.004H253.32L249.918 129.842V134H248.238V129.842ZM261.208 128.624C261.59 128.624 261.908 128.587 262.16 128.512C262.412 128.428 262.608 128.316 262.748 128.176C262.897 128.027 263 127.849 263.056 127.644C263.121 127.439 263.154 127.21 263.154 126.958C263.154 126.725 263.116 126.515 263.042 126.328C262.976 126.132 262.86 125.969 262.692 125.838C262.533 125.698 262.318 125.591 262.048 125.516C261.777 125.441 261.441 125.404 261.04 125.404H259.332V128.624H261.208ZM261.082 124.004C261.838 124.004 262.458 124.093 262.944 124.27C263.438 124.447 263.826 124.681 264.106 124.97C264.395 125.25 264.596 125.563 264.708 125.908C264.82 126.253 264.876 126.594 264.876 126.93C264.876 127.583 264.745 128.129 264.484 128.568C264.232 129.007 263.821 129.361 263.252 129.632L265.324 134H263.476L261.684 130.024C261.6 130.033 261.511 130.043 261.418 130.052C261.324 130.052 261.226 130.052 261.124 130.052H259.332V134H257.666V124.004H261.082ZM266.662 124.004H273.312V125.46H268.356V128.12H273.032V129.59H268.356V132.544H273.578L273.382 134H266.662V124.004ZM275.179 124.004H278.637C279.393 124.004 280.014 124.088 280.499 124.256C280.994 124.424 281.381 124.648 281.661 124.928C281.941 125.208 282.137 125.535 282.249 125.908C282.361 126.272 282.417 126.655 282.417 127.056C282.417 127.485 282.361 127.896 282.249 128.288C282.137 128.68 281.937 129.025 281.647 129.324C281.367 129.613 280.985 129.847 280.499 130.024C280.014 130.192 279.403 130.276 278.665 130.276H276.845V134H275.179V124.004ZM278.623 128.862C279.053 128.862 279.403 128.82 279.673 128.736C279.953 128.652 280.173 128.535 280.331 128.386C280.49 128.227 280.597 128.041 280.653 127.826C280.719 127.611 280.751 127.369 280.751 127.098C280.751 126.818 280.719 126.575 280.653 126.37C280.588 126.155 280.471 125.978 280.303 125.838C280.145 125.698 279.925 125.591 279.645 125.516C279.375 125.441 279.029 125.404 278.609 125.404H276.845V128.862H278.623ZM285.565 124.004V129.996C285.565 130.939 285.733 131.643 286.069 132.11C286.414 132.567 286.993 132.796 287.805 132.796C288.607 132.796 289.172 132.567 289.499 132.11C289.835 131.643 290.003 130.939 290.003 129.996V124.004H291.697V129.996C291.697 130.771 291.603 131.429 291.417 131.97C291.23 132.502 290.964 132.941 290.619 133.286C290.273 133.622 289.863 133.865 289.387 134.014C288.911 134.173 288.379 134.252 287.791 134.252C286.512 134.252 285.541 133.911 284.879 133.23C284.216 132.539 283.885 131.447 283.885 129.954V124.004H285.565ZM293.677 124.004H300.327V125.46H295.371V128.12H300.047V129.59H295.371V132.544H300.593L300.397 134H293.677V124.004ZM303.164 130.948C303.239 131.601 303.472 132.077 303.864 132.376C304.265 132.675 304.858 132.824 305.642 132.824C306.025 132.824 306.347 132.782 306.608 132.698C306.869 132.614 307.079 132.502 307.238 132.362C307.397 132.222 307.509 132.059 307.574 131.872C307.639 131.676 307.672 131.471 307.672 131.256C307.672 131.097 307.649 130.943 307.602 130.794C307.555 130.635 307.471 130.491 307.35 130.36C307.229 130.229 307.065 130.117 306.86 130.024C306.655 129.921 306.393 129.842 306.076 129.786L304.802 129.548C304.298 129.455 303.85 129.338 303.458 129.198C303.066 129.058 302.735 128.876 302.464 128.652C302.203 128.419 302.002 128.139 301.862 127.812C301.731 127.476 301.666 127.07 301.666 126.594C301.666 126.118 301.759 125.703 301.946 125.348C302.142 124.993 302.408 124.699 302.744 124.466C303.08 124.223 303.477 124.046 303.934 123.934C304.401 123.813 304.905 123.752 305.446 123.752C306.137 123.752 306.715 123.831 307.182 123.99C307.649 124.149 308.027 124.359 308.316 124.62C308.605 124.872 308.825 125.166 308.974 125.502C309.123 125.838 309.226 126.188 309.282 126.552L307.686 126.804C307.555 126.244 307.327 125.829 307 125.558C306.683 125.287 306.174 125.152 305.474 125.152C305.073 125.152 304.737 125.189 304.466 125.264C304.205 125.329 303.99 125.427 303.822 125.558C303.663 125.679 303.547 125.824 303.472 125.992C303.407 126.151 303.374 126.319 303.374 126.496C303.374 126.935 303.491 127.261 303.724 127.476C303.967 127.691 304.387 127.859 304.984 127.98L306.37 128.246C307.425 128.442 308.199 128.778 308.694 129.254C309.189 129.721 309.436 130.397 309.436 131.284C309.436 131.704 309.357 132.096 309.198 132.46C309.049 132.815 308.815 133.127 308.498 133.398C308.181 133.659 307.784 133.865 307.308 134.014C306.841 134.173 306.295 134.252 305.67 134.252C304.391 134.252 303.388 133.986 302.66 133.454C301.932 132.913 301.531 132.077 301.456 130.948H303.164ZM313.297 125.474H310.133V124.004H318.141V125.474H314.991V134H313.297V125.474ZM323.338 134.252C322.619 134.252 321.971 134.135 321.392 133.902C320.823 133.659 320.333 133.314 319.922 132.866C319.511 132.418 319.194 131.872 318.97 131.228C318.755 130.575 318.648 129.837 318.648 129.016C318.648 128.195 318.76 127.457 318.984 126.804C319.208 126.151 319.525 125.6 319.936 125.152C320.347 124.695 320.841 124.349 321.42 124.116C321.999 123.873 322.638 123.752 323.338 123.752C324.047 123.752 324.691 123.873 325.27 124.116C325.849 124.349 326.339 124.69 326.74 125.138C327.141 125.586 327.449 126.137 327.664 126.79C327.888 127.434 328 128.167 328 128.988C328 129.819 327.893 130.561 327.678 131.214C327.463 131.858 327.155 132.409 326.754 132.866C326.353 133.314 325.863 133.659 325.284 133.902C324.715 134.135 324.066 134.252 323.338 134.252ZM323.324 132.796C324.285 132.796 325.013 132.46 325.508 131.788C326.003 131.107 326.25 130.178 326.25 129.002C326.25 128.414 326.185 127.887 326.054 127.42C325.933 126.953 325.751 126.557 325.508 126.23C325.265 125.903 324.962 125.651 324.598 125.474C324.234 125.297 323.809 125.208 323.324 125.208C322.839 125.208 322.414 125.297 322.05 125.474C321.686 125.651 321.378 125.903 321.126 126.23C320.883 126.557 320.701 126.953 320.58 127.42C320.459 127.887 320.398 128.414 320.398 129.002C320.398 130.178 320.641 131.107 321.126 131.788C321.621 132.46 322.353 132.796 323.324 132.796ZM330.904 130.948C330.979 131.601 331.212 132.077 331.604 132.376C332.006 132.675 332.598 132.824 333.382 132.824C333.765 132.824 334.087 132.782 334.348 132.698C334.61 132.614 334.82 132.502 334.978 132.362C335.137 132.222 335.249 132.059 335.314 131.872C335.38 131.676 335.412 131.471 335.412 131.256C335.412 131.097 335.389 130.943 335.342 130.794C335.296 130.635 335.212 130.491 335.09 130.36C334.969 130.229 334.806 130.117 334.6 130.024C334.395 129.921 334.134 129.842 333.816 129.786L332.542 129.548C332.038 129.455 331.59 129.338 331.198 129.198C330.806 129.058 330.475 128.876 330.204 128.652C329.943 128.419 329.742 128.139 329.602 127.812C329.472 127.476 329.406 127.07 329.406 126.594C329.406 126.118 329.5 125.703 329.686 125.348C329.882 124.993 330.148 124.699 330.484 124.466C330.82 124.223 331.217 124.046 331.674 123.934C332.141 123.813 332.645 123.752 333.186 123.752C333.877 123.752 334.456 123.831 334.922 123.99C335.389 124.149 335.767 124.359 336.056 124.62C336.346 124.872 336.565 125.166 336.714 125.502C336.864 125.838 336.966 126.188 337.022 126.552L335.426 126.804C335.296 126.244 335.067 125.829 334.74 125.558C334.423 125.287 333.914 125.152 333.214 125.152C332.813 125.152 332.477 125.189 332.206 125.264C331.945 125.329 331.73 125.427 331.562 125.558C331.404 125.679 331.287 125.824 331.212 125.992C331.147 126.151 331.114 126.319 331.114 126.496C331.114 126.935 331.231 127.261 331.464 127.476C331.707 127.691 332.127 127.859 332.724 127.98L334.11 128.246C335.165 128.442 335.94 128.778 336.434 129.254C336.929 129.721 337.176 130.397 337.176 131.284C337.176 131.704 337.097 132.096 336.938 132.46C336.789 132.815 336.556 133.127 336.238 133.398C335.921 133.659 335.524 133.865 335.048 134.014C334.582 134.173 334.036 134.252 333.41 134.252C332.132 134.252 331.128 133.986 330.4 133.454C329.672 132.913 329.271 132.077 329.196 130.948H330.904ZM212.391 141.004H219.041V142.46H214.085V145.12H218.761V146.59H214.085V149.544H219.307L219.111 151H212.391V141.004ZM229.144 147.626C229.088 148.149 228.962 148.629 228.766 149.068C228.57 149.507 228.299 149.889 227.954 150.216C227.609 150.543 227.189 150.799 226.694 150.986C226.199 151.163 225.625 151.252 224.972 151.252C224.253 151.252 223.609 151.131 223.04 150.888C222.48 150.645 222.004 150.3 221.612 149.852C221.229 149.395 220.935 148.844 220.73 148.2C220.534 147.547 220.436 146.819 220.436 146.016C220.436 145.195 220.543 144.457 220.758 143.804C220.982 143.151 221.295 142.6 221.696 142.152C222.097 141.695 222.578 141.349 223.138 141.116C223.698 140.873 224.314 140.752 224.986 140.752C225.611 140.752 226.153 140.831 226.61 140.99C227.067 141.149 227.455 141.377 227.772 141.676C228.099 141.965 228.355 142.315 228.542 142.726C228.738 143.137 228.883 143.594 228.976 144.098L227.31 144.336C227.235 144 227.142 143.701 227.03 143.44C226.918 143.179 226.769 142.959 226.582 142.782C226.405 142.595 226.185 142.455 225.924 142.362C225.663 142.259 225.35 142.208 224.986 142.208C224.538 142.208 224.141 142.297 223.796 142.474C223.451 142.651 223.157 142.908 222.914 143.244C222.681 143.571 222.503 143.967 222.382 144.434C222.261 144.901 222.2 145.423 222.2 146.002C222.2 146.59 222.261 147.117 222.382 147.584C222.513 148.051 222.699 148.452 222.942 148.788C223.185 149.115 223.474 149.367 223.81 149.544C224.155 149.712 224.547 149.796 224.986 149.796C225.378 149.796 225.709 149.745 225.98 149.642C226.26 149.539 226.493 149.395 226.68 149.208C226.867 149.021 227.011 148.797 227.114 148.536C227.226 148.265 227.305 147.962 227.352 147.626H229.144ZM235.093 151.252C234.374 151.252 233.725 151.135 233.147 150.902C232.577 150.659 232.087 150.314 231.677 149.866C231.266 149.418 230.949 148.872 230.725 148.228C230.51 147.575 230.403 146.837 230.403 146.016C230.403 145.195 230.515 144.457 230.739 143.804C230.963 143.151 231.28 142.6 231.691 142.152C232.101 141.695 232.596 141.349 233.175 141.116C233.753 140.873 234.393 140.752 235.093 140.752C235.802 140.752 236.446 140.873 237.025 141.116C237.603 141.349 238.093 141.69 238.495 142.138C238.896 142.586 239.204 143.137 239.419 143.79C239.643 144.434 239.755 145.167 239.755 145.988C239.755 146.819 239.647 147.561 239.433 148.214C239.218 148.858 238.91 149.409 238.509 149.866C238.107 150.314 237.617 150.659 237.039 150.902C236.469 151.135 235.821 151.252 235.093 151.252ZM235.079 149.796C236.04 149.796 236.768 149.46 237.263 148.788C237.757 148.107 238.005 147.178 238.005 146.002C238.005 145.414 237.939 144.887 237.809 144.42C237.687 143.953 237.505 143.557 237.263 143.23C237.02 142.903 236.717 142.651 236.353 142.474C235.989 142.297 235.564 142.208 235.079 142.208C234.593 142.208 234.169 142.297 233.805 142.474C233.441 142.651 233.133 142.903 232.881 143.23C232.638 143.557 232.456 143.953 232.335 144.42C232.213 144.887 232.153 145.414 232.153 146.002C232.153 147.178 232.395 148.107 232.881 148.788C233.375 149.46 234.108 149.796 235.079 149.796ZM241.553 141.004H243.121L247.713 148.228V141.004H249.365V151H247.797L243.191 143.804V151H241.553V141.004ZM255.847 151.252C255.128 151.252 254.479 151.135 253.901 150.902C253.331 150.659 252.841 150.314 252.431 149.866C252.02 149.418 251.703 148.872 251.479 148.228C251.264 147.575 251.157 146.837 251.157 146.016C251.157 145.195 251.269 144.457 251.493 143.804C251.717 143.151 252.034 142.6 252.445 142.152C252.855 141.695 253.35 141.349 253.929 141.116C254.507 140.873 255.147 140.752 255.847 140.752C256.556 140.752 257.2 140.873 257.779 141.116C258.357 141.349 258.847 141.69 259.249 142.138C259.65 142.586 259.958 143.137 260.173 143.79C260.397 144.434 260.509 145.167 260.509 145.988C260.509 146.819 260.401 147.561 260.187 148.214C259.972 148.858 259.664 149.409 259.263 149.866C258.861 150.314 258.371 150.659 257.793 150.902C257.223 151.135 256.575 151.252 255.847 151.252ZM255.833 149.796C256.794 149.796 257.522 149.46 258.017 148.788C258.511 148.107 258.759 147.178 258.759 146.002C258.759 145.414 258.693 144.887 258.563 144.42C258.441 143.953 258.259 143.557 258.017 143.23C257.774 142.903 257.471 142.651 257.107 142.474C256.743 142.297 256.318 142.208 255.833 142.208C255.347 142.208 254.923 142.297 254.559 142.474C254.195 142.651 253.887 142.903 253.635 143.23C253.392 143.557 253.21 143.953 253.089 144.42C252.967 144.887 252.907 145.414 252.907 146.002C252.907 147.178 253.149 148.107 253.635 148.788C254.129 149.46 254.862 149.796 255.833 149.796ZM258.143 138.232L256.057 140.178H254.531L256.253 138.232H258.143ZM262.307 141.004H264.365L267.207 148.956L270.133 141.004H272.121V151H270.567V143.734L267.823 151H266.479L263.833 143.748V151H262.307V141.004ZM274.243 141.004H275.937V151H274.243V141.004ZM286.429 147.626C286.373 148.149 286.247 148.629 286.051 149.068C285.855 149.507 285.584 149.889 285.239 150.216C284.894 150.543 284.474 150.799 283.979 150.986C283.484 151.163 282.91 151.252 282.257 151.252C281.538 151.252 280.894 151.131 280.325 150.888C279.765 150.645 279.289 150.3 278.897 149.852C278.514 149.395 278.22 148.844 278.015 148.2C277.819 147.547 277.721 146.819 277.721 146.016C277.721 145.195 277.828 144.457 278.043 143.804C278.267 143.151 278.58 142.6 278.981 142.152C279.382 141.695 279.863 141.349 280.423 141.116C280.983 140.873 281.599 140.752 282.271 140.752C282.896 140.752 283.438 140.831 283.895 140.99C284.352 141.149 284.74 141.377 285.057 141.676C285.384 141.965 285.64 142.315 285.827 142.726C286.023 143.137 286.168 143.594 286.261 144.098L284.595 144.336C284.52 144 284.427 143.701 284.315 143.44C284.203 143.179 284.054 142.959 283.867 142.782C283.69 142.595 283.47 142.455 283.209 142.362C282.948 142.259 282.635 142.208 282.271 142.208C281.823 142.208 281.426 142.297 281.081 142.474C280.736 142.651 280.442 142.908 280.199 143.244C279.966 143.571 279.788 143.967 279.667 144.434C279.546 144.901 279.485 145.423 279.485 146.002C279.485 146.59 279.546 147.117 279.667 147.584C279.798 148.051 279.984 148.452 280.227 148.788C280.47 149.115 280.759 149.367 281.095 149.544C281.44 149.712 281.832 149.796 282.271 149.796C282.663 149.796 282.994 149.745 283.265 149.642C283.545 149.539 283.778 149.395 283.965 149.208C284.152 149.021 284.296 148.797 284.399 148.536C284.511 148.265 284.59 147.962 284.637 147.626H286.429ZM292.378 151.252C291.659 151.252 291.011 151.135 290.432 150.902C289.863 150.659 289.373 150.314 288.962 149.866C288.551 149.418 288.234 148.872 288.01 148.228C287.795 147.575 287.688 146.837 287.688 146.016C287.688 145.195 287.8 144.457 288.024 143.804C288.248 143.151 288.565 142.6 288.976 142.152C289.387 141.695 289.881 141.349 290.46 141.116C291.039 140.873 291.678 140.752 292.378 140.752C293.087 140.752 293.731 140.873 294.31 141.116C294.889 141.349 295.379 141.69 295.78 142.138C296.181 142.586 296.489 143.137 296.704 143.79C296.928 144.434 297.04 145.167 297.04 145.988C297.04 146.819 296.933 147.561 296.718 148.214C296.503 148.858 296.195 149.409 295.794 149.866C295.393 150.314 294.903 150.659 294.324 150.902C293.755 151.135 293.106 151.252 292.378 151.252ZM292.364 149.796C293.325 149.796 294.053 149.46 294.548 148.788C295.043 148.107 295.29 147.178 295.29 146.002C295.29 145.414 295.225 144.887 295.094 144.42C294.973 143.953 294.791 143.557 294.548 143.23C294.305 142.903 294.002 142.651 293.638 142.474C293.274 142.297 292.849 142.208 292.364 142.208C291.879 142.208 291.454 142.297 291.09 142.474C290.726 142.651 290.418 142.903 290.166 143.23C289.923 143.557 289.741 143.953 289.62 144.42C289.499 144.887 289.438 145.414 289.438 146.002C289.438 147.178 289.681 148.107 290.166 148.788C290.661 149.46 291.393 149.796 292.364 149.796ZM299.944 147.948C300.019 148.601 300.252 149.077 300.644 149.376C301.046 149.675 301.638 149.824 302.422 149.824C302.805 149.824 303.127 149.782 303.388 149.698C303.65 149.614 303.86 149.502 304.018 149.362C304.177 149.222 304.289 149.059 304.354 148.872C304.42 148.676 304.452 148.471 304.452 148.256C304.452 148.097 304.429 147.943 304.382 147.794C304.336 147.635 304.252 147.491 304.13 147.36C304.009 147.229 303.846 147.117 303.64 147.024C303.435 146.921 303.174 146.842 302.856 146.786L301.582 146.548C301.078 146.455 300.63 146.338 300.238 146.198C299.846 146.058 299.515 145.876 299.244 145.652C298.983 145.419 298.782 145.139 298.642 144.812C298.512 144.476 298.446 144.07 298.446 143.594C298.446 143.118 298.54 142.703 298.726 142.348C298.922 141.993 299.188 141.699 299.524 141.466C299.86 141.223 300.257 141.046 300.714 140.934C301.181 140.813 301.685 140.752 302.226 140.752C302.917 140.752 303.496 140.831 303.962 140.99C304.429 141.149 304.807 141.359 305.096 141.62C305.386 141.872 305.605 142.166 305.754 142.502C305.904 142.838 306.006 143.188 306.062 143.552L304.466 143.804C304.336 143.244 304.107 142.829 303.78 142.558C303.463 142.287 302.954 142.152 302.254 142.152C301.853 142.152 301.517 142.189 301.246 142.264C300.985 142.329 300.77 142.427 300.602 142.558C300.444 142.679 300.327 142.824 300.252 142.992C300.187 143.151 300.154 143.319 300.154 143.496C300.154 143.935 300.271 144.261 300.504 144.476C300.747 144.691 301.167 144.859 301.764 144.98L303.15 145.246C304.205 145.442 304.98 145.778 305.474 146.254C305.969 146.721 306.216 147.397 306.216 148.284C306.216 148.704 306.137 149.096 305.978 149.46C305.829 149.815 305.596 150.127 305.278 150.398C304.961 150.659 304.564 150.865 304.088 151.014C303.622 151.173 303.076 151.252 302.45 151.252C301.172 151.252 300.168 150.986 299.44 150.454C298.712 149.913 298.311 149.077 298.236 147.948H299.944Z" fill="#F2F2F0"></path>
<g clip-path="url(#clip1_2003_2099)">
<path d="M498.889 79.7667L510.867 80.4556L510.111 28.4556L501.889 27.9778L508.233 28.3445L508.422 25.0778L506.645 24.9778L505.578 18.1445L502.467 17.9667H502.333L499.222 17.7778L497.367 24.4445L495.589 24.3445L495.4 27.6111L493.522 27.5L486.767 79.0667L486.311 79.0445L473.656 22.5L470.289 23.2556L470.5 24.1778L464.978 25.4111C463.811 25.6778 463.078 26.8334 463.345 27.9889L466.378 41.5222C466.645 42.6889 467.8 43.4222 468.956 43.1556L474.478 41.9222L476.067 49.0111L475.245 54.4445L482.933 88.7334L488.245 87.5445L487.422 83.8667L498.5 84.5111H498.633L512.122 85.3L512.4 80.5445L498.911 79.7667H498.889Z" fill="#08CC84"></path>
<path d="M469.41 19.8586L477.098 18.1361L481.077 35.8957L473.39 37.6182C472.23 37.8782 471.064 37.1487 470.802 35.9778L467.77 22.4466C467.51 21.2865 468.239 20.121 469.41 19.8586Z" fill="black" stroke="#FF7F4D" stroke-width="2.22222" stroke-linejoin="round"></path>
<path d="M514.556 22.9113L506.334 22.4335L506.211 22.4224L497.989 21.9446L491.222 73.5113L503.211 74.2113H503.334L515.311 74.9113L514.556 22.9113Z" fill="black" stroke="#FF7F4D" stroke-width="2.22222" stroke-linejoin="round"></path>
<path d="M506.522 19.1556H506.4L500.056 18.7889L499.867 22.0556L506.211 22.4223L506.334 22.4334L512.678 22.8001L512.867 19.5334L506.522 19.1556Z" fill="black" stroke="#FF7F4D" stroke-width="2.22222" stroke-linejoin="round"></path>
<path d="M510.022 12.589L506.922 12.4113L506.789 12.4002L503.678 12.2224L501.833 18.889L506.4 19.1557H506.522L511.089 19.4224L510.022 12.589Z" fill="black" stroke="#FF7F4D" stroke-width="2.22222" stroke-linejoin="round"></path>
<path d="M503.334 74.2113H503.211L489.711 73.4225L489.434 78.178L502.934 78.9558L503.056 78.9669L516.556 79.7447L516.834 75.0002L503.334 74.2113Z" fill="black" stroke="#FF7F4D" stroke-width="2.22222" stroke-linejoin="round"></path>
<path d="M492.678 82.0002L487.367 83.1891L479.678 48.9002L480.5 43.4669L474.723 17.7002L478.1 16.9447L492.678 82.0002Z" fill="black" stroke="#FF7F4D" stroke-width="2.22222" stroke-linejoin="round"></path>
<path d="M468.234 25.4446L474.134 24.1224" stroke="#FF7F4D" stroke-width="2.22222" stroke-linejoin="round"></path>
<path d="M469.3 30.1891L475.2 28.8669" stroke="#FF7F4D" stroke-width="2.22222" stroke-linejoin="round"></path>
<path d="M470.267 34.4781L476.156 33.1559" stroke="#FF7F4D" stroke-width="2.22222" stroke-linejoin="round"></path>
</g>
<path d="M430.505 130.626C430.449 131.149 430.323 131.629 430.127 132.068C429.931 132.507 429.661 132.889 429.315 133.216C428.97 133.543 428.55 133.799 428.055 133.986C427.561 134.163 426.987 134.252 426.333 134.252C425.615 134.252 424.971 134.131 424.401 133.888C423.841 133.645 423.365 133.3 422.973 132.852C422.591 132.395 422.297 131.844 422.091 131.2C421.895 130.547 421.797 129.819 421.797 129.016C421.797 128.195 421.905 127.457 422.119 126.804C422.343 126.151 422.656 125.6 423.057 125.152C423.459 124.695 423.939 124.349 424.499 124.116C425.059 123.873 425.675 123.752 426.347 123.752C426.973 123.752 427.514 123.831 427.971 123.99C428.429 124.149 428.816 124.377 429.133 124.676C429.46 124.965 429.717 125.315 429.903 125.726C430.099 126.137 430.244 126.594 430.337 127.098L428.671 127.336C428.597 127 428.503 126.701 428.391 126.44C428.279 126.179 428.13 125.959 427.943 125.782C427.766 125.595 427.547 125.455 427.285 125.362C427.024 125.259 426.711 125.208 426.347 125.208C425.899 125.208 425.503 125.297 425.157 125.474C424.812 125.651 424.518 125.908 424.275 126.244C424.042 126.571 423.865 126.967 423.743 127.434C423.622 127.901 423.561 128.423 423.561 129.002C423.561 129.59 423.622 130.117 423.743 130.584C423.874 131.051 424.061 131.452 424.303 131.788C424.546 132.115 424.835 132.367 425.171 132.544C425.517 132.712 425.909 132.796 426.347 132.796C426.739 132.796 427.071 132.745 427.341 132.642C427.621 132.539 427.855 132.395 428.041 132.208C428.228 132.021 428.373 131.797 428.475 131.536C428.587 131.265 428.667 130.962 428.713 130.626H430.505ZM432.1 124.004H438.75V125.46H433.794V128.12H438.47V129.59H433.794V132.544H439.016L438.82 134H432.1V124.004ZM440.618 124.004H444.076C444.832 124.004 445.452 124.088 445.938 124.256C446.432 124.424 446.82 124.648 447.1 124.928C447.38 125.208 447.576 125.535 447.688 125.908C447.8 126.272 447.856 126.655 447.856 127.056C447.856 127.485 447.8 127.896 447.688 128.288C447.576 128.68 447.375 129.025 447.086 129.324C446.806 129.613 446.423 129.847 445.938 130.024C445.452 130.192 444.841 130.276 444.104 130.276H442.284V134H440.618V124.004ZM444.062 128.862C444.491 128.862 444.841 128.82 445.112 128.736C445.392 128.652 445.611 128.535 445.77 128.386C445.928 128.227 446.036 128.041 446.092 127.826C446.157 127.611 446.19 127.369 446.19 127.098C446.19 126.818 446.157 126.575 446.092 126.37C446.026 126.155 445.91 125.978 445.742 125.838C445.583 125.698 445.364 125.591 445.084 125.516C444.813 125.441 444.468 125.404 444.048 125.404H442.284V128.862H444.062ZM449.477 124.004H451.171V134H449.477V124.004ZM454.986 124.004V132.53H459.942L459.732 134H453.292V124.004H454.986ZM463.011 124.004V132.53H467.967L467.757 134H461.317V124.004H463.011ZM473.067 134.252C472.349 134.252 471.7 134.135 471.121 133.902C470.552 133.659 470.062 133.314 469.651 132.866C469.241 132.418 468.923 131.872 468.699 131.228C468.485 130.575 468.377 129.837 468.377 129.016C468.377 128.195 468.489 127.457 468.713 126.804C468.937 126.151 469.255 125.6 469.665 125.152C470.076 124.695 470.571 124.349 471.149 124.116C471.728 123.873 472.367 123.752 473.067 123.752C473.777 123.752 474.421 123.873 474.999 124.116C475.578 124.349 476.068 124.69 476.469 125.138C476.871 125.586 477.179 126.137 477.393 126.79C477.617 127.434 477.729 128.167 477.729 128.988C477.729 129.819 477.622 130.561 477.407 131.214C477.193 131.858 476.885 132.409 476.483 132.866C476.082 133.314 475.592 133.659 475.013 133.902C474.444 134.135 473.795 134.252 473.067 134.252ZM473.053 132.796C474.015 132.796 474.743 132.46 475.237 131.788C475.732 131.107 475.979 130.178 475.979 129.002C475.979 128.414 475.914 127.887 475.783 127.42C475.662 126.953 475.48 126.557 475.237 126.23C474.995 125.903 474.691 125.651 474.327 125.474C473.963 125.297 473.539 125.208 473.053 125.208C472.568 125.208 472.143 125.297 471.779 125.474C471.415 125.651 471.107 125.903 470.855 126.23C470.613 126.557 470.431 126.953 470.309 127.42C470.188 127.887 470.127 128.414 470.127 129.002C470.127 130.178 470.37 131.107 470.855 131.788C471.35 132.46 472.083 132.796 473.053 132.796ZM485.221 129.842L481.749 124.004H483.639L486.047 128.344L488.511 124.004H490.303L486.901 129.842V134H485.221V129.842ZM494.649 124.004H498.107C498.863 124.004 499.484 124.088 499.969 124.256C500.464 124.424 500.851 124.648 501.131 124.928C501.411 125.208 501.607 125.535 501.719 125.908C501.831 126.272 501.887 126.655 501.887 127.056C501.887 127.485 501.831 127.896 501.719 128.288C501.607 128.68 501.406 129.025 501.117 129.324C500.837 129.613 500.454 129.847 499.969 130.024C499.484 130.192 498.872 130.276 498.135 130.276H496.315V134H494.649V124.004ZM498.093 128.862C498.522 128.862 498.872 128.82 499.143 128.736C499.423 128.652 499.642 128.535 499.801 128.386C499.96 128.227 500.067 128.041 500.123 127.826C500.188 127.611 500.221 127.369 500.221 127.098C500.221 126.818 500.188 126.575 500.123 126.37C500.058 126.155 499.941 125.978 499.773 125.838C499.614 125.698 499.395 125.591 499.115 125.516C498.844 125.441 498.499 125.404 498.079 125.404H496.315V128.862H498.093ZM505.217 124.004H506.897L510.705 134H508.899L507.961 131.452H504.083L503.159 134H501.409L505.217 124.004ZM507.499 130.038L506.015 125.922L504.545 130.038H507.499ZM512.749 130.948C512.824 131.601 513.057 132.077 513.449 132.376C513.85 132.675 514.443 132.824 515.227 132.824C515.61 132.824 515.932 132.782 516.193 132.698C516.454 132.614 516.664 132.502 516.823 132.362C516.982 132.222 517.094 132.059 517.159 131.872C517.224 131.676 517.257 131.471 517.257 131.256C517.257 131.097 517.234 130.943 517.187 130.794C517.14 130.635 517.056 130.491 516.935 130.36C516.814 130.229 516.65 130.117 516.445 130.024C516.24 129.921 515.978 129.842 515.661 129.786L514.387 129.548C513.883 129.455 513.435 129.338 513.043 129.198C512.651 129.058 512.32 128.876 512.049 128.652C511.788 128.419 511.587 128.139 511.447 127.812C511.316 127.476 511.251 127.07 511.251 126.594C511.251 126.118 511.344 125.703 511.531 125.348C511.727 124.993 511.993 124.699 512.329 124.466C512.665 124.223 513.062 124.046 513.519 123.934C513.986 123.813 514.49 123.752 515.031 123.752C515.722 123.752 516.3 123.831 516.767 123.99C517.234 124.149 517.612 124.359 517.901 124.62C518.19 124.872 518.41 125.166 518.559 125.502C518.708 125.838 518.811 126.188 518.867 126.552L517.271 126.804C517.14 126.244 516.912 125.829 516.585 125.558C516.268 125.287 515.759 125.152 515.059 125.152C514.658 125.152 514.322 125.189 514.051 125.264C513.79 125.329 513.575 125.427 513.407 125.558C513.248 125.679 513.132 125.824 513.057 125.992C512.992 126.151 512.959 126.319 512.959 126.496C512.959 126.935 513.076 127.261 513.309 127.476C513.552 127.691 513.972 127.859 514.569 127.98L515.955 128.246C517.01 128.442 517.784 128.778 518.279 129.254C518.774 129.721 519.021 130.397 519.021 131.284C519.021 131.704 518.942 132.096 518.783 132.46C518.634 132.815 518.4 133.127 518.083 133.398C517.766 133.659 517.369 133.865 516.893 134.014C516.426 134.173 515.88 134.252 515.255 134.252C513.976 134.252 512.973 133.986 512.245 133.454C511.517 132.913 511.116 132.077 511.041 130.948H512.749ZM522.882 125.474H519.718V124.004H527.726V125.474H524.576V134H522.882V125.474ZM530.633 124.004H532.313L536.121 134H534.315L533.377 131.452H529.499L528.575 134H526.825L530.633 124.004ZM532.915 130.038L531.431 125.922L529.961 130.038H532.915ZM543.782 132.558C544.37 132.558 544.869 132.474 545.28 132.306C545.7 132.138 546.04 131.895 546.302 131.578C546.572 131.261 546.768 130.883 546.89 130.444C547.011 130.005 547.072 129.511 547.072 128.96C547.072 127.859 546.838 127 546.372 126.384C545.905 125.759 545.14 125.446 544.076 125.446H542.144V132.558H543.782ZM544.062 124.004C544.799 124.004 545.462 124.107 546.05 124.312C546.638 124.508 547.137 124.811 547.548 125.222C547.958 125.633 548.271 126.151 548.486 126.776C548.71 127.392 548.822 128.115 548.822 128.946C548.822 129.777 548.705 130.509 548.472 131.144C548.238 131.769 547.902 132.297 547.464 132.726C547.025 133.146 546.488 133.463 545.854 133.678C545.228 133.893 544.519 134 543.726 134H540.45V124.004H544.062ZM550.608 124.004H557.258V125.46H552.302V128.12H556.978V129.59H552.302V132.544H557.524L557.328 134H550.608V124.004ZM432.67 149.558C433.258 149.558 433.758 149.474 434.168 149.306C434.588 149.138 434.929 148.895 435.19 148.578C435.461 148.261 435.657 147.883 435.778 147.444C435.9 147.005 435.96 146.511 435.96 145.96C435.96 144.859 435.727 144 435.26 143.384C434.794 142.759 434.028 142.446 432.964 142.446H431.032V149.558H432.67ZM432.95 141.004C433.688 141.004 434.35 141.107 434.938 141.312C435.526 141.508 436.026 141.811 436.436 142.222C436.847 142.633 437.16 143.151 437.374 143.776C437.598 144.392 437.71 145.115 437.71 145.946C437.71 146.777 437.594 147.509 437.36 148.144C437.127 148.769 436.791 149.297 436.352 149.726C435.914 150.146 435.377 150.463 434.742 150.678C434.117 150.893 433.408 151 432.614 151H429.338V141.004H432.95ZM439.497 141.004H441.191V151H439.497V141.004ZM443.311 141.004H449.961V142.46H445.005V145.12H449.681V146.59H445.005V149.544H450.227L450.031 151H443.311V141.004ZM451.829 141.004H453.397L457.989 148.228V141.004H459.641V151H458.073L453.467 143.804V151H451.829V141.004ZM464.134 142.474H460.97V141.004H468.978V142.474H465.828V151H464.134V142.474ZM470.313 141.004H476.963V142.46H472.007V145.12H476.683V146.59H472.007V149.544H477.229L477.033 151H470.313V141.004ZM479.8 147.948C479.875 148.601 480.108 149.077 480.5 149.376C480.901 149.675 481.494 149.824 482.278 149.824C482.661 149.824 482.983 149.782 483.244 149.698C483.505 149.614 483.715 149.502 483.874 149.362C484.033 149.222 484.145 149.059 484.21 148.872C484.275 148.676 484.308 148.471 484.308 148.256C484.308 148.097 484.285 147.943 484.238 147.794C484.191 147.635 484.107 147.491 483.986 147.36C483.865 147.229 483.701 147.117 483.496 147.024C483.291 146.921 483.029 146.842 482.712 146.786L481.438 146.548C480.934 146.455 480.486 146.338 480.094 146.198C479.702 146.058 479.371 145.876 479.1 145.652C478.839 145.419 478.638 145.139 478.498 144.812C478.367 144.476 478.302 144.07 478.302 143.594C478.302 143.118 478.395 142.703 478.582 142.348C478.778 141.993 479.044 141.699 479.38 141.466C479.716 141.223 480.113 141.046 480.57 140.934C481.037 140.813 481.541 140.752 482.082 140.752C482.773 140.752 483.351 140.831 483.818 140.99C484.285 141.149 484.663 141.359 484.952 141.62C485.241 141.872 485.461 142.166 485.61 142.502C485.759 142.838 485.862 143.188 485.918 143.552L484.322 143.804C484.191 143.244 483.963 142.829 483.636 142.558C483.319 142.287 482.81 142.152 482.11 142.152C481.709 142.152 481.373 142.189 481.102 142.264C480.841 142.329 480.626 142.427 480.458 142.558C480.299 142.679 480.183 142.824 480.108 142.992C480.043 143.151 480.01 143.319 480.01 143.496C480.01 143.935 480.127 144.261 480.36 144.476C480.603 144.691 481.023 144.859 481.62 144.98L483.006 145.246C484.061 145.442 484.835 145.778 485.33 146.254C485.825 146.721 486.072 147.397 486.072 148.284C486.072 148.704 485.993 149.096 485.834 149.46C485.685 149.815 485.451 150.127 485.134 150.398C484.817 150.659 484.42 150.865 483.944 151.014C483.477 151.173 482.931 151.252 482.306 151.252C481.027 151.252 480.024 150.986 479.296 150.454C478.568 149.913 478.167 149.077 478.092 147.948H479.8ZM486.874 151L490.08 140.724H491.676L488.47 151H486.874ZM492.844 141.004H494.538V145.05H499.032V141.004H500.726V151H499.032V146.618H494.538V151H492.844V141.004ZM502.852 141.004H504.546V151H502.852V141.004ZM507.773 147.948C507.847 148.601 508.081 149.077 508.473 149.376C508.874 149.675 509.467 149.824 510.251 149.824C510.633 149.824 510.955 149.782 511.217 149.698C511.478 149.614 511.688 149.502 511.847 149.362C512.005 149.222 512.117 149.059 512.183 148.872C512.248 148.676 512.281 148.471 512.281 148.256C512.281 148.097 512.257 147.943 512.211 147.794C512.164 147.635 512.08 147.491 511.959 147.36C511.837 147.229 511.674 147.117 511.469 147.024C511.263 146.921 511.002 146.842 510.685 146.786L509.411 146.548C508.907 146.455 508.459 146.338 508.067 146.198C507.675 146.058 507.343 145.876 507.073 145.652C506.811 145.419 506.611 145.139 506.471 144.812C506.34 144.476 506.275 144.07 506.275 143.594C506.275 143.118 506.368 142.703 506.555 142.348C506.751 141.993 507.017 141.699 507.353 141.466C507.689 141.223 508.085 141.046 508.543 140.934C509.009 140.813 509.513 140.752 510.055 140.752C510.745 140.752 511.324 140.831 511.791 140.99C512.257 141.149 512.635 141.359 512.925 141.62C513.214 141.872 513.433 142.166 513.583 142.502C513.732 142.838 513.835 143.188 513.891 143.552L512.295 143.804C512.164 143.244 511.935 142.829 511.609 142.558C511.291 142.287 510.783 142.152 510.083 142.152C509.681 142.152 509.345 142.189 509.075 142.264C508.813 142.329 508.599 142.427 508.431 142.558C508.272 142.679 508.155 142.824 508.081 142.992C508.015 143.151 507.983 143.319 507.983 143.496C507.983 143.935 508.099 144.261 508.333 144.476C508.575 144.691 508.995 144.859 509.593 144.98L510.979 145.246C512.033 145.442 512.808 145.778 513.303 146.254C513.797 146.721 514.045 147.397 514.045 148.284C514.045 148.704 513.965 149.096 513.807 149.46C513.657 149.815 513.424 150.127 513.107 150.398C512.789 150.659 512.393 150.865 511.917 151.014C511.45 151.173 510.904 151.252 510.279 151.252C509 151.252 507.997 150.986 507.269 150.454C506.541 149.913 506.139 149.077 506.065 147.948H507.773ZM519.894 151.252C519.175 151.252 518.526 151.135 517.948 150.902C517.378 150.659 516.888 150.314 516.478 149.866C516.067 149.418 515.75 148.872 515.526 148.228C515.311 147.575 515.204 146.837 515.204 146.016C515.204 145.195 515.316 144.457 515.54 143.804C515.764 143.151 516.081 142.6 516.492 142.152C516.902 141.695 517.397 141.349 517.976 141.116C518.554 140.873 519.194 140.752 519.894 140.752C520.603 140.752 521.247 140.873 521.826 141.116C522.404 141.349 522.894 141.69 523.296 142.138C523.697 142.586 524.005 143.137 524.22 143.79C524.444 144.434 524.556 145.167 524.556 145.988C524.556 146.819 524.448 147.561 524.234 148.214C524.019 148.858 523.711 149.409 523.31 149.866C522.908 150.314 522.418 150.659 521.84 150.902C521.27 151.135 520.622 151.252 519.894 151.252ZM519.88 149.796C520.841 149.796 521.569 149.46 522.064 148.788C522.558 148.107 522.806 147.178 522.806 146.002C522.806 145.414 522.74 144.887 522.61 144.42C522.488 143.953 522.306 143.557 522.064 143.23C521.821 142.903 521.518 142.651 521.154 142.474C520.79 142.297 520.365 142.208 519.88 142.208C519.394 142.208 518.97 142.297 518.606 142.474C518.242 142.651 517.934 142.903 517.682 143.23C517.439 143.557 517.257 143.953 517.136 144.42C517.014 144.887 516.954 145.414 516.954 146.002C516.954 147.178 517.196 148.107 517.682 148.788C518.176 149.46 518.909 149.796 519.88 149.796ZM522.19 138.232L520.104 140.178H518.578L520.3 138.232H522.19ZM526.354 141.004H529.812C530.568 141.004 531.189 141.088 531.674 141.256C532.169 141.424 532.556 141.648 532.836 141.928C533.116 142.208 533.312 142.535 533.424 142.908C533.536 143.272 533.592 143.655 533.592 144.056C533.592 144.485 533.536 144.896 533.424 145.288C533.312 145.68 533.111 146.025 532.822 146.324C532.542 146.613 532.159 146.847 531.674 147.024C531.189 147.192 530.577 147.276 529.84 147.276H528.02V151H526.354V141.004ZM529.798 145.862C530.227 145.862 530.577 145.82 530.848 145.736C531.128 145.652 531.347 145.535 531.506 145.386C531.665 145.227 531.772 145.041 531.828 144.826C531.893 144.611 531.926 144.369 531.926 144.098C531.926 143.818 531.893 143.575 531.828 143.37C531.763 143.155 531.646 142.978 531.478 142.838C531.319 142.698 531.1 142.591 530.82 142.516C530.549 142.441 530.204 142.404 529.784 142.404H528.02V145.862H529.798ZM539.431 151.252C538.712 151.252 538.063 151.135 537.485 150.902C536.915 150.659 536.425 150.314 536.015 149.866C535.604 149.418 535.287 148.872 535.063 148.228C534.848 147.575 534.741 146.837 534.741 146.016C534.741 145.195 534.853 144.457 535.077 143.804C535.301 143.151 535.618 142.6 536.029 142.152C536.439 141.695 536.934 141.349 537.513 141.116C538.091 140.873 538.731 140.752 539.431 140.752C540.14 140.752 540.784 140.873 541.363 141.116C541.941 141.349 542.431 141.69 542.833 142.138C543.234 142.586 543.542 143.137 543.757 143.79C543.981 144.434 544.093 145.167 544.093 145.988C544.093 146.819 543.985 147.561 543.771 148.214C543.556 148.858 543.248 149.409 542.847 149.866C542.445 150.314 541.955 150.659 541.377 150.902C540.807 151.135 540.159 151.252 539.431 151.252ZM539.417 149.796C540.378 149.796 541.106 149.46 541.601 148.788C542.095 148.107 542.343 147.178 542.343 146.002C542.343 145.414 542.277 144.887 542.147 144.42C542.025 143.953 541.843 143.557 541.601 143.23C541.358 142.903 541.055 142.651 540.691 142.474C540.327 142.297 539.902 142.208 539.417 142.208C538.931 142.208 538.507 142.297 538.143 142.474C537.779 142.651 537.471 142.903 537.219 143.23C536.976 143.557 536.794 143.953 536.673 144.42C536.551 144.887 536.491 145.414 536.491 146.002C536.491 147.178 536.733 148.107 537.219 148.788C537.713 149.46 538.446 149.796 539.417 149.796ZM546.997 147.948C547.072 148.601 547.305 149.077 547.697 149.376C548.098 149.675 548.691 149.824 549.475 149.824C549.858 149.824 550.18 149.782 550.441 149.698C550.702 149.614 550.912 149.502 551.071 149.362C551.23 149.222 551.342 149.059 551.407 148.872C551.472 148.676 551.505 148.471 551.505 148.256C551.505 148.097 551.482 147.943 551.435 147.794C551.388 147.635 551.304 147.491 551.183 147.36C551.062 147.229 550.898 147.117 550.693 147.024C550.488 146.921 550.226 146.842 549.909 146.786L548.635 146.548C548.131 146.455 547.683 146.338 547.291 146.198C546.899 146.058 546.568 145.876 546.297 145.652C546.036 145.419 545.835 145.139 545.695 144.812C545.564 144.476 545.499 144.07 545.499 143.594C545.499 143.118 545.592 142.703 545.779 142.348C545.975 141.993 546.241 141.699 546.577 141.466C546.913 141.223 547.31 141.046 547.767 140.934C548.234 140.813 548.738 140.752 549.279 140.752C549.97 140.752 550.548 140.831 551.015 140.99C551.482 141.149 551.86 141.359 552.149 141.62C552.438 141.872 552.658 142.166 552.807 142.502C552.956 142.838 553.059 143.188 553.115 143.552L551.519 143.804C551.388 143.244 551.16 142.829 550.833 142.558C550.516 142.287 550.007 142.152 549.307 142.152C548.906 142.152 548.57 142.189 548.299 142.264C548.038 142.329 547.823 142.427 547.655 142.558C547.496 142.679 547.38 142.824 547.305 142.992C547.24 143.151 547.207 143.319 547.207 143.496C547.207 143.935 547.324 144.261 547.557 144.476C547.8 144.691 548.22 144.859 548.817 144.98L550.203 145.246C551.258 145.442 552.032 145.778 552.527 146.254C553.022 146.721 553.269 147.397 553.269 148.284C553.269 148.704 553.19 149.096 553.031 149.46C552.882 149.815 552.648 150.127 552.331 150.398C552.014 150.659 551.617 150.865 551.141 151.014C550.674 151.173 550.128 151.252 549.503 151.252C548.224 151.252 547.221 150.986 546.493 150.454C545.765 149.913 545.364 149.077 545.289 147.948H546.997Z" fill="#F2F2F0"></path>
<defs>
<clipPath id="clip0_2003_2099">
<rect width="74.3556" height="82.2778" fill="white" transform="translate(222.389 8.88889)"></rect>
</clipPath>
<clipPath id="clip1_2003_2099">
<rect width="54.6667" height="77.6333" fill="white" transform="translate(463.278 11.1111)"></rect>
</clipPath>
</defs>
</svg>