<svg xmlns="http://www.w3.org/2000/svg" width="100%" viewBox="0 0 2012 250" fill="none" class="eb-deco_top"><path d="M2012 0H0V196.499C0.137814 196.5 0.275562 196.5 0.413239 196.499C1.0638 196.498 1.74701 196.528 2.43305 196.559C4.15752 196.636 5.90045 196.714 7.18668 196.278C10.4771 195.171 13.8759 195.194 17.2617 195.218C19.1634 195.231 21.061 195.244 22.933 195.057C24.5321 194.903 25.8011 195.332 27.0312 195.749C28.1075 196.113 29.154 196.467 30.3658 196.411C31.9871 196.348 33.5857 196.108 35.186 195.868C36.5065 195.67 37.829 195.472 39.1656 195.372C40.5836 195.301 42.3693 195.441 43.4757 195.949C46.0369 197.092 47.6649 196.198 49.4028 195.244L49.4257 195.232C51.2272 194.26 52.7999 193.73 55.4746 194.537C60.1678 195.952 64.8443 195.936 69.1216 193.416C70.6482 192.512 73.0894 191.813 75.1585 191.732C75.5414 191.718 75.9067 191.744 76.248 191.769C77.2366 191.84 78.0245 191.897 78.4572 190.913C78.7304 190.274 79.599 190.105 79.8181 190.518C81.0308 192.857 82.8573 192.386 85.0563 191.818C85.6177 191.673 86.2033 191.522 86.8093 191.41C87.2068 191.336 87.6069 191.258 88.0101 191.179C90.9583 190.601 94.0713 189.992 97.5258 191.086C99.5386 191.719 102.685 191.463 105.31 190.754C106.996 190.301 108.931 190.008 110.78 189.981C111.253 189.977 111.725 189.976 112.197 189.976C115.507 189.973 118.761 189.969 121.825 188.77C122.993 188.305 124.823 188.481 126.13 189.138C127.692 189.929 128.86 189.464 129.804 188.611C130.108 188.339 130.37 188.041 130.631 187.746C131.124 187.186 131.61 186.635 132.353 186.275C138.689 183.256 145.127 180.364 151.589 177.477C152.805 176.918 154.702 176.098 155.605 176.352C157.728 176.958 159.243 176.804 160.464 175.754C161.364 174.974 162.453 175.15 163.473 175.315C164.208 175.433 164.907 175.546 165.474 175.293C167.022 174.616 168.68 174.027 170.339 173.436C174.57 171.931 178.805 170.424 181.219 167.477C181.634 166.968 182.452 166.592 183.277 166.212C183.732 166.002 184.189 165.792 184.583 165.557C185.994 164.705 186.985 163.759 187.366 162.521C188.889 157.696 194.34 154.686 200.505 152.2C202.843 151.27 204.831 150.391 206.114 148.836C207.898 146.666 211.005 146.012 214.79 146.263C215.623 146.324 216.48 146.305 217.332 146.285C218.413 146.26 219.489 146.235 220.503 146.376C223.124 146.748 225.221 146.1 227.313 145.454C228.253 145.164 229.192 144.873 230.177 144.676C231.319 142.437 234.01 142.349 236.792 142.259C237.396 142.239 238.006 142.219 238.604 142.177C240.105 142.069 241.566 141.707 243.03 141.345C243.701 141.179 244.373 141.012 245.049 140.87C245.479 140.782 245.936 140.652 246.393 140.522C247.412 140.232 248.433 139.941 249.167 140.106C254.506 141.302 258.078 139.611 260.762 137.253C262.308 135.912 263.609 135.321 266.184 135.301C266.846 135.298 267.515 135.321 268.187 135.344C270.52 135.422 272.88 135.501 275.052 134.537C278.562 132.971 282.388 131.73 286.212 130.489C291.123 128.896 296.03 127.303 300.263 125.027C301.481 124.384 302.361 124.642 303.32 124.924C303.612 125.01 303.911 125.098 304.23 125.163C305.101 125.332 306.725 125.151 307.311 124.737C310.26 122.697 314.102 121.777 317.964 120.852C319.372 120.514 320.783 120.176 322.155 119.783C324.656 119.046 327.031 118.41 329.757 118.527C333.092 118.704 335.641 117.873 337.891 116.405C339.107 115.613 340.646 115.698 341.982 116.335C342.735 116.685 343.454 117.067 344.173 117.449C344.892 117.831 345.612 118.213 346.364 118.563C346.938 118.831 347.552 119.069 348.164 119.307C349.157 119.692 350.146 120.076 350.949 120.577C351.845 121.137 352.721 120.966 353.618 120.791C354.408 120.636 355.213 120.479 356.062 120.815C359.967 122.374 360.183 122.316 362.476 121.691L362.652 121.643C365.197 120.942 365.904 120.918 369.333 122.18C370.23 122.509 371.023 122.353 371.749 122.21C372.343 122.093 372.891 121.985 373.413 122.16C374.184 122.418 374.863 122.782 375.541 123.144C376.306 123.554 377.07 123.963 377.963 124.218C379.25 124.611 381.346 124.873 382.369 124.479C385.95 123.066 389.355 123.997 392.258 124.79L392.26 124.791L392.261 124.791C392.52 124.862 392.776 124.932 393.027 124.999C397.017 126.075 400.127 126.33 403.543 124.526C404.635 123.94 406.194 123.355 407.515 123.366C408.835 123.382 410.164 123.349 411.492 123.316C415.476 123.216 419.461 123.116 423.23 124.37C425.306 125.069 428.051 125.217 429.865 124.533C435.054 122.581 440.183 123.211 445.245 124.138C445.762 124.23 446.417 124.154 447.081 124.076C448.566 123.904 450.103 123.725 450.284 125.397C452.332 126.233 454.373 127.067 456.414 127.901L456.454 127.918C458.478 128.745 460.502 129.573 462.533 130.401C466.736 130.222 469.206 131.904 471.67 133.582C471.772 133.651 471.874 133.721 471.976 133.79C473.057 134.526 474.375 134.899 475.98 134.921C476.033 134.922 476.087 134.924 476.14 134.925L476.322 134.928C476.983 134.94 477.641 134.952 478.257 135.068C479.184 135.231 480.151 135.362 481.119 135.492C483.545 135.818 485.974 136.145 487.769 136.993C489.325 137.728 490.946 137.478 492.504 137.237C494.19 136.977 495.802 136.728 497.178 137.752C498.414 137.738 499.606 138.017 500.741 138.283C501.733 138.515 502.681 138.737 503.576 138.744C504.735 138.745 505.899 138.007 507.08 137.259C507.67 136.884 508.266 136.507 508.867 136.218C509.389 135.971 510.637 135.732 510.637 135.732C512.798 138.394 514.361 137.31 515.918 136.231C516.941 135.522 517.962 134.815 519.148 135.173C519.312 135.225 519.527 135.204 519.751 135.183C519.922 135.167 520.1 135.15 520.266 135.164C520.597 135.183 520.938 135.193 521.278 135.202C523.176 135.256 525.087 135.309 525.566 137.001C525.735 137.636 526.512 137.759 527.247 137.378C529.62 136.171 532.166 135.469 535.288 134.975C537.927 134.554 539.375 134.463 541.051 135.67C541.477 135.973 542.592 136.326 542.878 136.209C544.183 135.659 545.678 135.462 547.181 135.265C549.012 135.025 550.854 134.783 552.378 133.899C554.413 132.694 555.924 132.902 556.545 134.184C557.421 135.991 559.383 137.229 561.347 138.469C562.009 138.887 562.673 139.306 563.294 139.747C565.133 141.041 566.315 140.631 567.065 139.138C567.132 138.997 567.308 138.881 567.484 138.764C567.572 138.706 567.66 138.648 567.734 138.587C569.197 139.564 571.147 139.63 573.099 139.696C574.973 139.76 576.849 139.824 578.295 140.695C578.649 140.909 578.999 141.126 579.349 141.343C581.416 142.624 583.473 143.899 586.24 144.63C588.398 148.203 592.172 149.205 597.769 147.396C597.926 147.348 598.275 147.494 598.567 147.616C598.638 147.645 598.706 147.674 598.766 147.697C601.877 148.992 604.529 148.392 606.901 146.847C609.085 145.441 611.962 145.463 614.412 145.882C614.58 145.911 614.749 145.94 614.919 145.969L614.944 145.974C618.363 146.559 622.156 147.208 623.494 149.605C624.17 150.829 625.782 151.326 627.371 151.816C628.822 152.263 630.255 152.705 630.939 153.688C633.152 153.818 634.906 153.14 636.62 152.477C637.088 152.296 637.554 152.116 638.025 151.954C639.833 151.325 641.626 151.6 643.41 151.874C645.209 152.15 646.999 152.425 648.788 151.77C649.099 151.658 650.307 152.059 650.524 152.367C650.849 152.823 651.08 153.311 651.31 153.798C651.61 154.433 651.909 155.066 652.416 155.621C653.332 156.631 654.718 157.513 656.096 158.315L656.258 158.17C657.275 158.748 657.086 159.421 656.893 160.111C656.714 160.749 656.531 161.403 657.293 162.01C657.59 162.253 657.849 162.506 658.103 162.756C658.825 163.464 659.518 164.144 660.998 164.476C663.667 165.117 665.126 166.487 666.59 167.861C667.814 169.011 669.041 170.163 670.982 170.893C670.724 174.088 674.319 175.236 677.871 176.371C678.097 176.443 678.323 176.516 678.547 176.588C678.794 176.668 679.04 176.748 679.283 176.83C679.865 177.012 681.194 177.103 681.417 176.919C682.965 175.507 684.726 175.866 686.432 176.214C687.497 176.431 688.541 176.644 689.499 176.42C690.853 176.11 691.681 176.376 692.549 176.654C692.857 176.753 693.17 176.853 693.513 176.93C694.704 177.212 695.651 176.858 696.601 176.503C697.281 176.249 697.963 175.994 698.738 175.973C699.419 175.944 700.254 176.157 700.74 176.421C702.31 177.292 704.148 177.315 706.091 177.335L706.128 177.336C707.21 177.371 708.778 177.422 709.25 177.835C711.801 180.172 715.643 181.243 719.475 182.31C721.11 182.766 722.744 183.221 724.274 183.773C724.474 183.846 724.675 183.918 724.874 183.99C727.635 184.985 730.238 185.923 731.306 188.075C731.901 189.272 733.733 189.763 735.593 190.261C735.912 190.347 736.232 190.432 736.546 190.522C736.838 190.603 737.136 190.681 737.436 190.759C739.126 191.2 740.895 191.661 741.999 192.835C743.319 194.233 744.735 195.598 746.151 196.963L746.152 196.964C748.404 199.135 750.654 201.305 752.514 203.603C753.997 205.441 755.804 205.95 758.571 205.999C760.12 206.034 761.417 206.273 762.735 206.88C763.756 207.345 764.762 207.826 765.769 208.307C770.402 210.521 775.033 212.734 781.129 213.417C782.024 213.526 782.855 214.007 783.609 214.442L783.613 214.445L783.622 214.45C783.716 214.504 783.808 214.558 783.9 214.61C784.358 214.882 784.803 215.165 785.248 215.448L785.249 215.449C786.914 216.509 788.578 217.568 790.966 218.063C792.193 220.576 795.483 220.472 798.518 220.377C798.828 220.367 799.134 220.357 799.435 220.35C800.793 220.329 802.133 220.017 803.483 219.703C804.283 219.517 805.086 219.33 805.897 219.203C807.354 218.958 808.926 218.895 810.095 219.702C811.651 220.752 813.482 221.5 815.503 222.213C816.304 222.497 816.846 222.95 817.418 223.427C818.116 224.01 818.858 224.63 820.169 225.024C825.889 226.721 831.246 228.882 835.821 231.751C838.461 233.407 841.949 234.527 845.875 234.732C848.207 234.865 850.213 235.185 852.2 236.046C854.001 236.813 856.248 237.446 858.402 237.565C860.962 237.724 862.596 238.428 864.171 239.507C866.068 240.798 868.065 242.043 870.049 243.281L870.527 243.58C876.277 247.205 876.569 247.251 883.803 248.388L884.809 248.547C886.197 248.755 887.062 248.555 888.033 248.33L888.034 248.33C888.292 248.27 888.558 248.209 888.843 248.153C891.045 247.712 893.301 247.724 895.578 248.105C905.903 249.874 908.293 249.865 918.743 248.183C921.382 247.762 924.064 247.61 926.455 248.639C928.132 249.379 930.214 249.82 931.804 249.215L948.118 246.849C949.626 245.915 950.829 245.873 952.999 246.385C953.106 246.411 953.214 246.437 953.322 246.464C953.55 246.519 953.78 246.577 954.012 246.635C957.333 247.462 961.004 248.377 964.205 245.964C964.283 245.914 964.563 245.987 964.897 246.074C965.336 246.189 965.868 246.328 966.166 246.247C967.926 245.79 969.706 246.082 971.492 246.375C973.678 246.734 975.871 247.094 978.042 246.08C978.098 246.061 978.476 246.333 978.93 246.661C979.616 247.154 980.476 247.773 980.663 247.706C983.109 246.855 985.073 247.367 987.192 247.919C987.513 248.002 987.836 248.087 988.166 248.167C989.371 248.463 991.26 248.263 992.516 247.87C994.468 247.269 994.928 247.762 995.696 248.739C996.686 249.999 998.798 250.187 1000.6 249.682C1001.36 249.473 1002.04 249.083 1002.69 248.704C1003.52 248.227 1004.32 247.766 1005.22 247.707C1005.74 247.67 1006.26 247.668 1006.77 247.667C1008.32 247.663 1009.79 247.659 1011.02 246.643C1012 245.826 1013.63 245.62 1015.14 246.062C1015.97 246.301 1016.78 246.627 1017.59 246.951C1019.12 247.565 1020.64 248.169 1022.15 248.152C1024.01 248.136 1025.87 247.572 1027.73 247.008C1028.65 246.728 1029.57 246.448 1030.5 246.233C1031.54 245.999 1032.71 245.743 1033.79 245.803C1036.63 245.973 1039.04 245.188 1041.35 244.407C1043.81 243.584 1045.95 243.802 1048.58 244.211C1053.45 244.965 1058.43 244.523 1062.96 242.968L1062.97 242.965C1064.7 242.37 1066.17 241.871 1067.97 242.845C1068.4 243.099 1069.46 242.999 1070.14 242.866C1070.84 242.74 1071.45 242.396 1072.01 242.085L1072.04 242.07C1074.08 240.935 1076.52 240.153 1078.96 239.37C1082.28 238.304 1085.6 237.237 1087.94 235.276C1088.48 234.827 1089.16 234.927 1089.94 235.283C1094.28 237.346 1098.59 237.923 1102.76 235.043C1106.64 235.003 1110.26 234.281 1113.62 233.191C1116.86 232.153 1119.88 231.428 1123.18 233.025C1123.67 233.265 1124.87 233.352 1125.3 233.163C1127.79 231.97 1130.55 232.025 1133.31 232.079C1134.35 232.1 1135.4 232.121 1136.43 232.074C1140.39 231.897 1143.7 230.875 1146.51 229.116C1148.12 228.1 1149.62 227.086 1150.62 225.752C1151.43 224.688 1152.99 223.869 1155.11 223.774C1157.1 223.701 1158.92 223.355 1160.09 222.294C1163.1 219.516 1167.54 219.291 1172.28 219.445L1172.56 219.453C1174.74 219.518 1176.96 219.585 1179.13 219.449C1180.11 219.382 1181.58 218.959 1181.9 218.46C1182.98 216.78 1184.97 216.553 1187.43 216.585C1187.91 216.594 1188.4 216.61 1188.89 216.626L1188.89 216.626C1190.71 216.686 1192.56 216.747 1194.24 216.449C1195.91 216.159 1196.15 215.268 1196.4 214.365C1196.56 213.821 1196.71 213.272 1197.17 212.849C1197.59 212.482 1198.09 212.138 1198.58 211.794C1199.38 211.244 1200.18 210.692 1200.63 210.042C1201.97 208.11 1204.14 206.883 1207.26 206.438C1209.78 206.077 1211.98 205.281 1214.18 204.487C1216.54 203.635 1218.9 202.784 1221.64 202.472C1222.34 202.394 1223.36 202.129 1223.53 201.805C1224.24 200.483 1225.79 199.575 1227.32 198.676C1228.58 197.936 1229.83 197.202 1230.59 196.249C1232.28 194.161 1234.43 192.799 1238.3 192.575C1238.92 192.56 1239.82 192.163 1240.05 191.801C1241.81 189.07 1245.65 188.231 1249.51 187.39L1250.01 187.281C1250.18 187.242 1250.36 187.203 1250.53 187.164C1250.63 187.143 1250.72 187.122 1250.82 187.1C1251.1 187.036 1251.42 186.981 1251.74 186.926C1252.57 186.782 1253.41 186.634 1253.83 186.295C1256.4 184.207 1259.87 182.924 1263.35 181.638L1263.36 181.638C1264.39 181.257 1265.42 180.876 1266.43 180.474C1267.72 179.943 1268.9 179.287 1270.08 178.633C1270.61 178.337 1271.14 178.041 1271.68 177.758C1273.19 178.504 1274.6 178.166 1276.01 177.827C1276.67 177.668 1277.33 177.51 1278 177.462C1279.5 177.352 1280.91 177.007 1282.33 176.662C1284.48 176.14 1286.62 175.619 1289.02 175.908C1293.57 176.46 1297.33 175.225 1300.66 173.662C1303.45 172.34 1306.41 171.29 1309.6 170.524C1311.29 170.111 1312.65 169.43 1314.02 168.744C1315.3 168.103 1316.59 167.457 1318.17 167.02C1321.24 166.177 1323.03 166.317 1325.1 167.717C1325.16 167.758 1325.22 167.8 1325.28 167.844C1325.92 168.294 1326.69 168.838 1327.88 168.417C1329.01 168.011 1330.19 167.683 1331.38 167.355C1333.6 166.74 1335.83 166.123 1337.71 164.987C1341.79 162.502 1347.9 161.56 1352.09 162.213C1361.19 163.631 1362.06 163.592 1370.63 161.255C1371.02 161.151 1371.44 161.086 1371.86 161.021C1372.18 160.972 1372.49 160.923 1372.8 160.858C1374.17 160.546 1375.55 160.245 1376.93 159.944C1382.34 158.769 1387.75 157.591 1392.61 155.745C1395.73 154.575 1398.48 153.764 1402.06 153.762C1406.84 153.744 1413.1 152.447 1417.89 150.664L1417.99 150.625L1418.11 150.58C1419 150.238 1419.73 149.959 1420.76 150.502C1422.36 151.354 1424.55 151.429 1426.12 150.875C1430.94 149.202 1435.39 149.603 1440.28 150.749C1443.4 151.502 1446.95 151.649 1450.28 150.578C1451.29 150.258 1452.46 150.002 1453.55 150.012C1460.23 150.082 1466.46 149.506 1471.48 146.347C1472.18 145.906 1473.6 145.81 1474.7 145.746C1476.99 145.634 1479.28 145.578 1481.58 145.651C1486.73 145.82 1491.41 145.103 1495.32 142.942C1497.19 141.907 1499.23 141.507 1501.63 141.577C1507.67 141.775 1513.07 140.466 1518.57 139.134L1519.1 139.005C1523.57 137.93 1526.82 136.296 1529.31 133.764C1531.69 131.364 1534.74 129.452 1539.81 128.953C1543.48 128.58 1546.63 127.391 1548.76 125.065C1549.77 123.965 1551.29 123.102 1552.83 122.231C1554.7 121.175 1556.59 120.106 1557.61 118.586C1557.84 118.248 1558.81 117.843 1559.41 117.847C1560.67 117.862 1561.89 117.517 1563.12 117.172C1565.36 116.542 1567.61 115.908 1570.09 117.438C1570.69 117.804 1572.31 117.415 1572.93 116.699C1575 114.331 1577.52 112.585 1582.29 112.02C1586.13 111.557 1589.23 109.681 1589.55 107.104C1589.83 104.78 1591.42 103.266 1593.97 101.63C1595.15 100.866 1596.16 100 1597.18 99.1345C1599.28 97.3388 1601.39 95.5439 1605 94.6551C1606.95 92.2639 1610.04 90.4888 1613.13 88.7123C1615.65 87.2602 1618.18 85.8072 1620.08 84.0162C1620.67 83.4732 1621.58 82.6891 1622.39 82.6631C1625.29 82.5864 1626.49 81.4261 1627.78 80.1645L1628 79.9589L1628.11 79.845L1628.2 79.7612C1628.79 79.2096 1629.89 78.8513 1630.96 78.5035L1631.25 78.4097L1631.39 78.3613C1631.56 78.3068 1631.72 78.2521 1631.88 78.1963C1636.82 76.4221 1642.08 76.2256 1647.23 77.433C1651.75 78.4964 1655.73 78.4542 1660.36 77.3636C1661.28 77.1547 1662.2 76.9523 1663.12 76.7495C1665.73 76.1775 1668.35 75.6026 1670.89 74.8688C1672.22 74.4673 1673.83 74.256 1675.27 74.2944C1675.9 74.3043 1676.58 74.5101 1677.22 74.7071C1677.98 74.9393 1678.7 75.1594 1679.26 75.0325C1679.55 74.9678 1679.83 74.9003 1680.11 74.8332C1681.57 74.4794 1683 74.1366 1684.63 74.262C1687.27 76.7233 1687.37 76.7207 1691.03 75.697C1692.75 75.2001 1695.03 75.218 1698.11 75.6221C1699.34 75.7891 1700.65 75.8053 1701.93 75.8212L1701.93 75.8213C1702.17 75.8242 1702.4 75.8271 1702.63 75.8309C1703.98 75.8471 1704.72 76.3513 1705.06 77.0498C1705.76 78.444 1707.54 78.5004 1709.35 78.5579L1709.62 78.5666C1711.56 78.6361 1713.51 78.5821 1714.82 77.5238C1715.34 77.1094 1715.76 76.6478 1716.18 76.1849L1716.18 76.1842L1716.18 76.1832L1716.19 76.182L1716.19 76.1812C1716.51 75.8309 1716.83 75.4801 1717.19 75.1487C1718.04 74.3534 1719.97 74.3432 1721.03 75.153C1721.58 75.576 1722.07 76.019 1722.55 76.4615C1722.91 76.7854 1723.26 77.1091 1723.64 77.4245C1725.51 78.9337 1728.45 79.2303 1730.12 77.6837C1731.7 76.1946 1732.76 75.6525 1735.4 76.6328C1735.65 76.7297 1735.92 76.8312 1736.18 76.9346C1738.21 77.7179 1740.53 78.6096 1742.47 78.4262C1742.69 78.4044 1742.91 78.3817 1743.13 78.3595C1745.08 78.1568 1746.7 77.9884 1748.49 78.7642C1750.79 79.7466 1753.2 79.5339 1755.78 79.0468C1756.86 78.8482 1757.67 79.4185 1757.94 80.1554C1758.49 80.194 1759.04 80.2151 1759.6 80.2363C1760.94 80.2876 1762.29 80.3389 1763.47 80.6408C1766.24 81.3427 1768.89 82.196 1771.54 83.048C1772.25 83.2778 1772.96 83.5075 1773.68 83.7342C1774.44 83.9735 1775.25 84.1732 1776.05 84.3726C1778.63 85.0135 1781.2 85.6513 1782.45 87.5942C1783.17 88.7441 1785.45 88.9158 1787.41 88.9414L1787.47 88.942C1790.5 88.9776 1793.39 89.0113 1796.12 90.1663C1798.83 91.2923 1801.58 92.325 1805.43 90.7989C1806.28 90.4607 1807.35 90.7406 1808.5 91.0461C1810.13 91.4744 1811.95 91.953 1813.65 90.8496C1815.52 91.369 1817.4 91.8652 1819.29 92.3608C1823.26 93.4064 1827.23 94.4496 1831.02 95.7036C1837.68 97.9249 1841.64 99.0449 1847.73 99.2154C1850.43 99.3028 1852.96 99.4806 1855.32 100.449C1856.13 100.761 1857.87 100.866 1858.59 100.535C1860.83 99.5395 1863.43 99.4551 1866.03 99.3709C1868.79 99.2813 1871.54 99.1921 1873.83 98.0048C1874.93 98.0105 1876.04 97.9602 1877.15 97.91C1880.23 97.7706 1883.3 97.6313 1886.14 98.6868C1887.74 99.2829 1889.41 99.3526 1891.12 99.4238L1891.39 99.4349L1891.6 99.4442C1898.2 99.7557 1904.26 98.5441 1910.22 96.9724C1910.98 96.7738 1911.72 96.5378 1912.46 96.3014C1914.75 95.5697 1917.06 94.8335 1919.87 95.1875C1921.31 94.7953 1922.83 94.5187 1924.34 94.2423C1927.85 93.6049 1931.34 92.9684 1933.83 90.9185C1935.18 89.7887 1937.12 89.0236 1939.1 88.2469C1939.41 88.1227 1939.73 87.9981 1940.04 87.8718C1940.5 87.6903 1941.17 87.6007 1941.88 87.5069C1943.7 87.2658 1945.72 86.9966 1944.77 85.064C1945.69 83.7675 1947.24 83.8719 1948.79 83.9762C1949.76 84.0414 1950.73 84.1066 1951.54 83.829C1953.23 83.2468 1954.83 82.5931 1955.47 81.3606C1956.78 78.8648 1959.6 77.0511 1962.42 75.2428L1962.42 75.242C1963.77 74.3754 1965.11 73.51 1966.29 72.5714C1968.34 70.954 1971.71 71.0865 1972.84 72.8718C1974.17 74.9597 1976.16 76.6257 1978.76 77.9878C1983.62 80.516 1987.1 83.7404 1990.55 86.9386L1990.84 87.2119C1990.98 87.3455 1991.12 87.4776 1991.26 87.6075C1992.57 88.8703 1993.67 89.9267 1996.53 90.0963C1997.81 90.1756 1999.45 90.959 2000.04 91.6882C2001.4 93.3436 2003.66 94.3783 2005.93 95.4106C2007.58 96.163 2009.22 96.9141 2010.51 97.9033C2010.83 98.1546 2011.43 98.345 2012 98.4319V0Z" fill="currentColor"></path></svg>