<svg xmlns="http://www.w3.org/2000/svg" width="100%" viewBox="0 0 2012 294" fill="none" class="eb-deco"><path d="M2002.93 0C2003.67 0.0927734 2004.4 0.191528 2005.14 0.290283L2005.14 0.290649L2005.14 0.291016C2007.42 0.596069 2009.69 0.900635 2012 1.02783V294H0V192.697C1.58081 192.038 3.29045 191.622 5.13834 191.528C8.4236 191.351 11.4498 190.666 14.456 189.986C16.4035 189.545 18.3425 189.107 20.3381 188.809C21.6974 188.601 23.04 188.25 24.3891 187.897C27.5491 187.07 30.7449 186.234 34.2747 187.208C34.5466 187.269 35.1291 187.218 35.286 187.097C39.0808 183.95 43.0743 184.897 47.0664 186.545C49.4688 187.524 52.184 187.224 54.8004 186.902C55.6021 186.807 56.3949 186.547 57.1772 186.29C58.165 185.966 59.1358 185.648 60.0864 185.673C62.0215 185.729 63.6865 185.227 65.3538 184.724C67.131 184.187 68.9108 183.65 71.0229 183.788C73.1358 183.918 75.3057 183.794 77.4823 183.669C78.7614 183.595 80.0428 183.522 81.3162 183.5C83.7616 183.477 85.867 183.118 87.4026 181.826C89.6124 179.959 92.3949 178.896 96.1377 178.644C96.5461 178.623 96.8851 178.194 97.2439 177.741C97.4621 177.465 97.6876 177.18 97.9405 176.972C98.4165 176.585 98.2107 176.461 98.0871 176.433C98.1612 176.45 98.315 176.458 98.653 176.456C99.0706 176.446 99.7211 176.903 99.8524 177.244C99.9552 177.494 99.9835 177.771 100.012 178.05C100.081 178.727 100.151 179.411 101.296 179.722C101.906 179.889 102.525 180.102 103.152 180.318L103.153 180.319L103.154 180.319C105.265 181.047 107.465 181.805 109.726 180.911C111.019 180.414 112.288 180.435 113.536 180.455C114.757 180.476 115.958 180.496 117.141 180.029C119.132 179.255 121.734 179.112 123.769 179.646C124.06 179.721 124.352 179.802 124.646 179.882C126.532 180.4 128.461 180.929 130.239 180.317C132.238 179.622 134.425 179.33 136.602 179.04C139.268 178.685 141.921 178.331 144.194 177.24C144.315 177.185 144.439 177.129 144.565 177.072C145.706 176.554 147.003 175.965 147.44 175.268C149.182 172.361 152.297 171.087 157.125 171.208C159.548 171.284 161.366 170.471 163.222 169.486C167.518 167.229 172.507 166.167 178.085 166.301C180.742 166.377 183.423 166.226 186.086 166.044C187.092 165.958 188.164 165.575 189.009 165.167C194.201 162.619 194.726 162.477 200.553 162.77C203.27 162.911 205.619 162.223 207.966 161.536C209.387 161.12 210.808 160.704 212.309 160.473C214.002 158.529 216.922 157.674 219.853 156.817C222.128 156.151 224.41 155.483 226.128 154.302C227.368 153.441 229.011 153.45 230.663 153.46C231.346 153.464 232.03 153.467 232.688 153.41C233.306 153.352 233.999 153.353 234.698 153.355C236.487 153.358 238.314 153.362 239.023 152.364C240.231 150.656 241.618 150.919 243.154 151.21L243.156 151.211C243.553 151.286 243.961 151.364 244.377 151.409C245.899 151.568 247.339 151.398 248.531 150.601C256.264 145.169 261.549 143.134 271.414 142.438C274.316 142.232 276.483 141.367 278.68 140.484C279.608 140.109 280.42 139.636 281.234 139.162C282.849 138.222 284.467 137.279 286.992 137.103C288.023 137.022 289.688 135.734 289.719 135.014C289.861 132.528 291.94 131.592 295.507 131.431C298.505 129.208 302.622 128.405 306.699 127.61L306.702 127.609L306.705 127.609C307.708 127.413 308.707 127.218 309.688 127.003C311.172 126.683 312.258 125.974 313.334 125.271C314.868 124.27 316.381 123.282 318.998 123.456C319.956 122.72 321.369 122.563 322.736 122.411C324.055 122.264 325.331 122.122 326.115 121.469L326.317 121.3C327.685 120.151 328.76 119.249 331.318 119.104C333.361 118.991 334.585 118.093 335.812 117.192C336.369 116.784 336.926 116.375 337.561 116.038C344.115 112.627 351.158 111.895 358.708 114.003C359.02 114.089 359.334 114.17 359.648 114.249C359.85 114.3 360.052 114.351 360.254 114.401C360.77 114.53 361.287 114.658 361.8 114.8C363.978 115.392 365.939 115.442 368.235 114.58C370.124 113.866 372.273 113.394 374.391 112.929L374.394 112.928L374.403 112.926L374.409 112.925C374.798 112.839 375.185 112.754 375.569 112.668C376.553 112.447 377.876 112.224 378.735 112.443C382.183 113.311 385.902 113.516 389.617 113.721H389.618C393.951 113.959 398.28 114.198 402.169 115.489C409.255 115.727 412.618 118.558 414.499 122.328C415.216 123.761 416.335 124.791 418.764 125.075L418.801 124.998C419.027 124.528 419.262 124.041 420.285 124.196C420.567 124.24 420.741 124.508 420.92 124.784C420.953 124.836 420.987 124.888 421.022 124.939C421.049 124.978 421.076 125.017 421.105 125.055C421.537 125.104 422.006 125.128 422.475 125.152C423.544 125.207 424.612 125.261 425.236 125.617C426.415 126.293 427.832 126.718 429.225 127.135C430.467 127.508 431.691 127.875 432.71 128.409C434.265 129.225 435.388 130.347 436.507 131.466C436.942 131.901 437.377 132.336 437.837 132.752C438.129 133.011 438.377 133.309 438.623 133.606C439.071 134.145 439.516 134.681 440.221 134.973C440.664 135.153 441.365 135.091 442.076 135.028H442.077C442.738 134.969 443.409 134.91 443.891 135.043C446.275 135.759 447.685 137.114 448.973 138.545C451.6 141.418 455.369 143.483 460.491 144.605C463.871 145.363 466.75 146.611 469.631 147.861L469.633 147.862C471.788 148.796 473.944 149.731 476.312 150.462C477.486 152.259 480.08 152.936 482.619 153.599C483.131 153.732 483.641 153.865 484.136 154.007C486.575 154.709 488.543 155.54 490.217 156.875C492.812 158.963 497.949 160.945 501.257 161.012C507.898 161.15 512.628 163.327 516.337 166.235C517.616 167.233 519.006 168.173 520.396 169.113L520.4 169.115L520.402 169.116C522.204 170.335 524.007 171.553 525.565 172.898C526.065 173.336 526.542 173.785 527.018 174.234C528.177 175.327 529.333 176.418 530.805 177.318C531.914 177.997 533.312 178.477 534.714 178.958C535.593 179.259 536.473 179.561 537.285 179.913C538.465 180.437 539.896 181.121 540.29 181.91C541.325 184.011 543.844 184.005 546.614 183.925H546.616C547.764 183.897 548.911 183.869 550.054 183.865L550.065 183.816C552.629 184.884 558.353 186.219 560.859 186.157C561.296 186.146 561.734 186.139 562.174 186.134C562.562 186.13 562.951 186.126 563.34 186.123C565.984 186.101 568.636 186.078 571.127 185.629C573.483 185.197 575.34 185.249 577.499 185.578C581.484 186.189 585.125 185.276 588.718 184.375C589.764 184.112 590.806 183.851 591.851 183.628C594.358 183.1 595.974 182.839 597.684 184.131C598.888 185.034 600.667 184.985 602.403 184.938H602.408C602.515 184.935 602.621 184.932 602.727 184.929L602.958 184.923C613.99 184.696 623.153 187.711 632.317 190.725C632.731 191.802 633.765 191.765 634.893 191.725C635.373 191.708 635.87 191.69 636.343 191.758C637.065 191.855 637.805 191.943 638.55 192.032C642.276 192.479 646.146 192.942 648.746 194.564C650.271 195.521 652.175 195.777 654.044 196.028C655.8 196.264 657.527 196.496 658.88 197.302C659.292 197.55 660.756 197.619 660.954 197.43C661.994 196.532 663.637 196.294 665.202 196.067C666.689 195.852 668.106 195.647 668.87 194.895C670.906 192.891 673.97 192.391 676.947 191.905C677.865 191.756 678.775 191.607 679.644 191.416C680.781 191.162 682.037 191.279 683.374 191.403C684.833 191.539 686.387 191.684 687.989 191.366C689.531 191.053 690.765 191.986 691.938 192.873C692.167 193.046 692.393 193.218 692.62 193.378C692.787 193.496 692.955 193.609 693.123 193.711C693.748 194.088 694.176 194.634 694.582 195.154C694.665 195.261 694.748 195.367 694.831 195.47C695.295 196.067 695.77 196.147 696.529 195.772C698.842 194.603 700.85 195.027 702.452 196.217C704.963 198.104 708.028 198.791 712.157 199.016C715.379 199.208 718.477 200.186 721.504 201.142L721.508 201.143C722.186 201.357 722.861 201.57 723.533 201.773C725.675 202.409 727.735 202.715 730.079 202.565C731.656 202.478 733.025 202.161 733.637 201.052C734.026 200.361 734.835 199.763 736.043 200.397L736.095 200.425C738.05 201.455 739.966 202.464 742.832 202.308C743.849 204.951 743.956 205.053 747.524 204.191C747.605 204.172 747.686 204.153 747.765 204.134C747.877 204.106 747.987 204.079 748.096 204.052L748.136 204.042C749.34 203.742 750.384 203.482 751.709 203.935C752.651 204.25 754.203 204.624 754.83 204.375C759.477 202.405 763.412 203.495 767.482 204.796C768.74 205.208 770.3 205.428 771.745 205.466C772.312 205.469 772.879 205.469 773.445 205.468C777.385 205.461 781.288 205.454 784.863 206.823C786.362 207.401 788.094 207.665 789.836 207.93C792.395 208.32 794.976 208.714 796.872 210.112C797.761 210.778 799.378 210.284 800.396 209.214C802.133 207.371 802.925 207.315 804.793 209.057C806 210.195 807.544 210.25 809.249 210.31L809.495 210.319C809.801 211.037 810.611 211.478 811.704 211.463C821.648 211.226 831.574 210.958 841.529 210.672C843.614 209.489 845.697 209.811 847.778 210.132C848.873 210.301 849.967 210.47 851.061 210.42C854.444 210.27 857.656 210.185 861.051 211.023C865.231 212.064 870.012 211.578 874.337 210.237C876.655 209.51 877.86 210.04 878.635 211.33C879 211.905 879.587 212.063 880.335 211.737C882.112 210.993 883.744 210.892 885.55 211.634C886.249 211.92 887.035 212.124 887.818 212.328C888.767 212.575 889.713 212.821 890.493 213.209C895.111 215.542 900.382 216.464 906.348 215.906C910.621 215.488 913.758 216.321 916.205 218.375C917.585 219.516 919.25 219.499 921.002 218.516C922.464 218.692 923.927 218.864 925.39 219.035L927.338 219.263C929.218 219.483 931.095 219.702 932.966 219.926C933.52 219.99 934.072 220.111 934.622 220.232L934.624 220.233C935.504 220.426 936.377 220.618 937.234 220.571C942.491 220.303 947.471 220.971 952.438 221.638L952.44 221.638C953.625 221.797 954.81 221.956 955.998 222.103C957.767 222.318 958.63 222.173 959.786 221.42C961.455 220.34 963.204 219.486 965.791 220.455C967.806 221.193 970.175 221.282 972.273 220.377C974.14 219.575 975.612 219.723 977.494 220.249C981.309 221.296 981.673 221.259 986.636 220.759C987.049 220.718 987.494 220.673 987.975 220.625C988.085 220.614 988.195 220.604 988.307 220.596C988.459 220.584 988.613 220.573 988.767 220.564C988.948 220.554 989.129 220.544 989.309 220.535C991.406 220.428 993.299 220.332 991.78 218.129L993.85 217.581C994.56 217.393 995.29 217.23 996.018 217.068L996.019 217.067C997.471 216.743 998.914 216.421 1000.17 215.908C1001.01 215.558 1001.82 215.187 1002.62 214.817C1005.12 213.669 1007.59 212.532 1010.9 212.056C1012.57 211.825 1014.12 211.287 1015.68 210.741C1017.47 210.118 1019.28 209.484 1021.36 209.286C1022.77 209.135 1024.63 208.591 1025.33 207.892C1027.39 205.808 1030.61 205.049 1033.82 204.293C1035.52 203.893 1037.21 203.494 1038.73 202.899C1040.04 202.386 1041.37 201.9 1042.71 201.414L1042.72 201.411C1047.95 199.504 1053.17 197.607 1056.43 194.12C1057.22 193.259 1058.72 192.945 1060.27 192.643C1065.72 191.606 1070.95 190.366 1074.41 187.116C1075.33 186.269 1077.01 185.687 1078.63 185.126C1079.09 184.967 1079.54 184.811 1079.97 184.65C1081.24 184.183 1082.74 183.636 1084.12 183.609C1085.39 183.57 1086.66 183.472 1087.93 183.374C1091.58 183.093 1095.24 182.812 1098.72 183.921C1098.82 183.952 1098.94 183.995 1099.06 184.039L1099.06 184.04L1099.06 184.04C1099.33 184.141 1099.61 184.243 1099.72 184.198C1102.75 182.85 1106.07 182.783 1109.39 182.716H1109.39C1111.39 182.676 1113.38 182.636 1115.31 182.316C1116.42 182.137 1117.4 181.508 1118.31 180.92C1118.51 180.793 1118.7 180.669 1118.9 180.551C1122.57 178.285 1126.68 176.869 1131.93 176.36C1136.87 175.882 1141.59 174.163 1143.7 171.13C1145.12 169.086 1147.23 168.782 1149.98 168.696C1150.9 168.67 1151.81 168.642 1152.73 168.614C1156.01 168.514 1159.29 168.414 1162.59 168.381C1165.06 168.364 1167.04 167.873 1168.71 166.689C1170.5 165.404 1172.38 165.358 1174.78 166.104C1177.6 166.969 1180.78 166.799 1183.52 165.675C1184.99 165.064 1186.52 164.988 1188.04 164.911C1188.22 164.902 1188.39 164.894 1188.56 164.884C1189.1 164.855 1189.64 164.818 1190.17 164.75C1190.77 164.67 1191.36 164.493 1191.95 164.316L1191.95 164.316C1193.36 163.892 1194.77 163.468 1196.33 164.366C1196.54 164.49 1197.16 164.474 1197.45 164.357C1200.25 163.158 1203.35 162.987 1206.46 162.816C1208.25 162.717 1210.04 162.619 1211.77 162.322C1212.33 162.241 1212.73 161.604 1213.11 161.195C1213.7 160.523 1214.36 160.021 1215.6 160.612C1216.5 161.02 1217.36 161.472 1218.28 161.886C1219.29 162.347 1220.48 162.355 1221.4 161.859C1221.85 161.609 1222.26 161.227 1222.65 160.862C1223.21 160.337 1223.74 159.847 1224.29 159.834C1225.4 159.812 1226.39 159.481 1227.37 159.155C1228.74 158.698 1230.08 158.251 1231.66 158.682C1232.59 158.942 1233.2 159.001 1233.45 158.38C1234.04 156.879 1235.55 155.815 1237.64 155.063C1241.6 153.639 1244.95 151.873 1248.22 149.802C1251.64 147.61 1256.16 146 1260.47 144.474L1260.85 144.338C1263.16 143.518 1265.26 142.771 1266.01 141.069C1269.2 139.724 1271.84 138.022 1274.47 136.325C1276.39 135.091 1278.3 133.859 1280.41 132.77C1283.29 131.286 1286.91 130.073 1290.71 131.78C1292.03 131.458 1293.41 131.381 1294.77 131.304C1295.81 131.245 1296.85 131.187 1297.86 131.021C1300.04 130.679 1302.2 130.202 1304.31 129.69C1304.44 129.657 1304.57 129.624 1304.69 129.591C1305.54 129.369 1306.23 129.191 1307.32 129.481C1310.61 130.322 1313.83 130.059 1317.15 128.908C1317.75 128.694 1318.6 128.925 1319.44 129.153C1320.53 129.45 1321.6 129.741 1322.04 129.016C1323.32 126.861 1325.96 126.707 1328.57 126.554C1330.54 126.438 1332.49 126.324 1333.84 125.353C1334.18 125.117 1335.97 125.467 1336.92 125.757C1338.69 126.31 1340.81 126.811 1342.32 126.085C1344.86 124.856 1347.58 124.753 1350.33 124.649C1350.96 124.625 1351.59 124.602 1352.21 124.565C1354.78 124.405 1357.21 123.864 1359.64 123.322C1361.84 122.83 1364.05 122.338 1366.36 122.129C1367.74 121.997 1369.68 121.341 1370.15 120.641C1370.82 119.649 1372.04 119.028 1373.24 118.417C1374.06 117.999 1374.87 117.586 1375.5 117.062C1375.64 116.942 1375.78 116.821 1375.93 116.699C1376.12 116.546 1376.31 116.391 1376.51 116.235L1376.52 116.223C1378.12 114.936 1379.82 113.562 1380.04 112.188C1380.39 110.015 1382.53 109.628 1384.64 109.246C1385.67 109.06 1386.69 108.875 1387.49 108.484C1389.93 107.318 1392.51 106.235 1395.13 105.212C1397.66 104.222 1400.32 103.389 1403.34 104.353C1403.52 104.392 1404.57 103.874 1404.61 103.572C1404.63 103.439 1404.59 103.303 1404.52 103.166C1404.49 103.099 1404.45 103.032 1404.41 102.965C1404.17 102.555 1403.93 102.15 1404.98 101.812C1405.66 101.584 1406.34 101.37 1407.03 101.155C1409.44 100.4 1411.84 99.6488 1413.74 98.3767C1415.51 97.215 1417.76 97.0431 1420.09 96.943C1421.66 96.8799 1423.17 96.6217 1423.75 95.532C1424.33 94.4917 1425.53 93.8784 1427.14 93.8512C1433.22 93.7085 1438.25 91.7723 1442.6 89.4229C1445.75 87.7117 1449.42 86.8315 1453.06 85.9552L1453.07 85.9541C1455.06 85.4761 1457.04 84.9993 1458.94 84.3889C1461.33 84.8203 1463.2 84.033 1465.09 83.2371C1466.98 82.4456 1468.88 81.6456 1471.33 82.0269C1471.86 82.1123 1472.6 81.6479 1473.4 81.1519C1473.7 80.9636 1474.01 80.7709 1474.32 80.6018C1474.52 80.4922 1474.72 80.3925 1474.91 80.3105C1478.15 78.9591 1481.41 77.6133 1485.53 77.8873C1486.91 77.981 1488.1 77.6477 1489.28 77.3152C1489.81 77.1666 1490.34 77.0182 1490.89 76.9081C1492.52 76.5811 1493.6 75.8369 1494.69 75.0856C1496.05 74.1483 1497.42 73.2 1499.91 73.0367C1503.04 72.8309 1506.16 71.2981 1508.56 69.6292C1510.02 68.6385 1511.91 68.5621 1513.77 68.4868L1513.81 68.4854C1514.03 68.4766 1514.24 68.4678 1514.46 68.4575C1514.64 68.4486 1514.83 68.4386 1515.01 68.4265L1515.08 68.4225C1517.34 68.2885 1519.2 68.1777 1520.49 66.4609C1522.02 64.4294 1524.92 63.2612 1527.84 62.0864C1529.52 61.4111 1531.2 60.7336 1532.63 59.8888C1533.34 59.4749 1534.55 59.399 1535.73 59.3251C1536.16 59.2982 1536.59 59.2716 1536.99 59.2291C1537.14 59.2135 1537.3 59.1992 1537.45 59.1851C1538.8 59.0598 1540.11 58.9396 1540.71 57.9089C1542.04 55.6638 1544.09 53.7084 1547.39 52.3186C1548.99 49.1205 1553.09 48.7682 1557.48 48.6608C1559.59 48.6152 1560.77 47.9965 1561.69 46.671C1562.53 45.4581 1564.01 43.9716 1566.91 45.1666C1567.21 45.015 1567.52 44.8654 1567.83 44.717C1568.41 44.4431 1568.99 44.1735 1569.57 43.9038C1572.94 42.3392 1576.31 40.7744 1578.35 38.3597C1578.82 37.8051 1579.11 37.1827 1579.39 36.5642C1579.74 35.7968 1580.09 35.0353 1580.79 34.4158C1581.2 34.05 1581.77 33.7623 1582.35 33.4663C1583.19 33.0411 1584.05 32.599 1584.55 31.8839C1585.43 30.6519 1586.61 29.4368 1589.78 30.0966C1590.38 30.2303 1590.73 29.8036 1591.16 29.2893C1591.68 28.6748 1592.29 27.9353 1593.55 27.8778C1595.94 27.764 1597.98 27.1056 1599.82 26.194C1603.42 24.3815 1607.45 24.4117 1611.48 24.4421C1612.37 24.4487 1613.25 24.4553 1614.13 24.4426C1617.1 25.8787 1619.9 25.1401 1622.68 24.4081C1623.74 24.1293 1624.79 23.8513 1625.85 23.6948C1628.02 23.3773 1630.12 22.5762 1632.07 21.7911C1634.55 20.7653 1637.44 20.4244 1639.72 20.9891C1642.13 21.5815 1643.79 21.3813 1645.99 20.7314C1647.57 20.2668 1649.14 20.6582 1650.73 21.0547C1650.96 21.1104 1651.18 21.1661 1651.41 21.2196C1652 21.3528 1652.58 21.5674 1653.17 21.7834C1654.53 22.286 1655.91 22.796 1657.52 22.3051C1659.5 21.7097 1661.08 21.6221 1662.8 22.2928C1665.14 21.5193 1667.64 21.3617 1670.14 21.2046H1670.14C1671.74 21.1041 1673.33 21.0038 1674.88 20.7432C1675.23 20.6892 1675.49 20.3748 1675.75 20.0593L1675.8 20.0011C1675.83 19.9661 1675.86 19.9313 1675.89 19.897C1675.94 19.8397 1675.99 19.7839 1676.04 19.7313C1677.46 19.566 1678.89 19.4857 1680.33 19.4054C1683.35 19.2358 1686.38 19.0658 1689.36 18.0963C1691.1 17.5276 1693.33 17.5602 1695.55 17.5928C1696.53 17.6069 1697.5 17.6211 1698.43 17.5852C1699.22 17.5557 1700.01 17.5509 1700.8 17.5461C1703.8 17.5282 1706.79 17.5103 1709.48 16.141C1709.94 15.9083 1712.05 16.2501 1712.32 16.649C1713.42 18.2448 1715.46 18.4159 1717.86 18.4615C1720.16 18.4896 1722.19 17.9819 1724.23 17.472L1724.23 17.4709C1725.01 17.2756 1725.79 17.0801 1726.59 16.9142C1727.4 16.7466 1728.21 16.6238 1729.02 16.5013C1731.04 16.1959 1733.04 15.8926 1734.99 14.9017C1737.22 13.7728 1740.1 13.1263 1742.94 12.4911C1743.72 12.316 1744.49 12.1418 1745.25 11.9586C1746.19 11.7268 1747.65 11.7953 1748.49 12.1128C1750.52 12.8804 1752.73 12.9861 1755.03 12.9546C1756.74 12.9495 1757.92 12.5642 1758.52 11.5048C1759.33 10.0775 1761.3 9.86938 1763.22 9.98828C1764.07 10.0356 1764.91 10.1836 1765.73 10.3312C1766.7 10.5024 1767.66 10.6731 1768.64 10.6852C1769.33 10.6962 1770.04 10.4996 1770.75 10.3021C1771.44 10.1072 1772.15 9.91125 1772.84 9.91248C1782.73 9.79321 1783.21 9.74463 1788.43 4.86609C1789.88 3.50317 1791.17 3.3241 1793 4.04736C1794.06 4.4812 1794.83 4.18848 1795.61 3.88782C1795.76 3.83069 1795.91 3.77332 1796.06 3.72058C1797.13 3.33789 1798.34 3.19165 1799.21 3.69885C1801.99 5.28381 1804.17 5.90051 1807.32 3.41418C1809.13 1.97058 1812.6 2.38684 1815.39 2.72253L1815.42 2.72583C1815.63 2.75171 1815.84 2.77698 1816.05 2.8009C1816.37 2.83728 1816.67 2.87622 1816.97 2.91394C1818.64 3.12854 1820.03 3.3064 1822.16 2.76819C1825.1 2.02625 1828.76 1.93665 1832.14 2.84961C1836.39 4.01147 1841.12 3.8772 1845.42 2.55518C1847.98 1.75476 1850.5 1.51489 1853.14 1.43176C1854.87 1.38342 1856.6 1.3429 1858.33 1.30237L1858.35 1.302C1861.96 1.21704 1865.57 1.13232 1869.19 0.977417C1871.97 0.8479 1874.36 1.28101 1876.84 1.91479C1877.13 1.98926 1877.43 2.06848 1877.73 2.14832C1880.04 2.77148 1882.49 3.42957 1885.16 2.1167C1885.62 1.88403 1886.87 1.87817 1887.34 2.11255C1890.64 3.6051 1893.73 2.79187 1896.86 1.67651C1897.85 1.32178 1897.94 1.34314 1900.92 2.09778L1901.68 2.28992C1904.9 3.08984 1908.49 3.29688 1911.55 2.24463C1914.63 1.16772 1917.19 0.859253 1920.05 1.99377C1920.1 2.01306 1920.15 2.03003 1920.2 2.04541C1920.24 2.05774 1920.29 2.06897 1920.33 2.07922C1920.51 2.12 1920.69 2.14648 1920.88 2.17334C1920.96 2.1842 1921.04 2.19519 1921.12 2.20728C1922.18 2.35913 1923.12 2.00635 1924.07 1.64905C1925.38 1.15503 1926.72 0.652466 1928.45 1.4624C1930.16 2.26672 1932.31 2.11523 1934.42 1.9668C1934.81 1.93958 1935.19 1.91248 1935.57 1.89136C1935.8 1.87878 1936.03 1.86841 1936.25 1.86133C1937.21 1.82361 1938.18 1.82373 1939.14 1.82385C1942.34 1.8241 1945.54 1.82434 1948.48 0.449341C1949.26 0.104614 1950.82 0.115723 1951.84 0.318115C1952.05 0.358398 1952.25 0.404175 1952.46 0.453247C1952.78 0.528442 1953.09 0.61145 1953.4 0.694214C1955.26 1.18542 1957.06 1.66455 1959.21 0.438721C1959.44 0.310059 1961.01 0.972412 1961.86 1.36963C1961.96 1.41821 1962.06 1.47119 1962.17 1.52588L1962.25 1.56775L1962.36 1.63013C1963.06 2.00208 1963.76 2.38049 1964.7 2.00684C1968.11 0.665649 1971.12 1.10962 1974.6 1.62329L1975.08 1.69312L1975.5 1.75452C1981.33 2.61975 1987.59 2.04871 1993.62 1.32336C1994.08 1.26868 1994.49 0.779297 1994.82 0.380249L1994.83 0.373291C1994.87 0.320557 1994.91 0.269531 1994.95 0.221191C1995.02 0.138672 1995.09 0.0653076 1995.17 0H2002.93Z" fill="currentColor"></path></svg>