<svg xmlns:xlink="http://www.w3.org/1999/xlink" xmlns="http://www.w3.org/2000/svg" width="2540" viewBox="0 0 1920 371" fill="none" class="num-deco_bottom" height="491"><g clip-path="url(#clip0_37_387)" fill="none"><path d="M205.78 260.63C216.79 260.74 227.1 264.97 235.35 273.47C243.16 281.51 247.01 291.56 247.06 302.68C247.12 313.96 243.06 323.94 235.12 332.09C226.87 340.56 216.59 345.08 204.89 345C193.41 344.93 183.1 340.9 174.94 332.4C166.78 323.89 162.44 313.77 162.64 301.93C162.83 290.42 167.28 280.48 175.41 272.55C183.47 264.69 193.4 260.57 205.79 260.62" fill="#00D989"></path><path d="M311.49 260.69C323.13 260.49 333.11 264.83 341.18 272.86C349.46 281.09 354.04 291.39 353.56 303.2C352.58 327.19 335.3 344.27 311 345.15C299.15 344.15 288.56 340.27 280.34 331.31C272.95 323.25 269.58 313.52 269.12 302.73C268.91 297.7 270.62 292.97 271.94 288.19C272.94 284.56 274.9 281.38 276.97 278.39C279.52 274.7 282.6 271.37 286.33 268.7C290.86 265.45 296.07 263.71 301.17 261.74C304.48 260.47 307.99 260.69 311.48 260.68" fill="#00D989"></path><path d="M44.88 165.26C49.28 164.63 54.02 165.55 58.6 167.13C66.36 169.8 72.86 174.23 77.97 180.83C80.85 184.54 83.34 188.41 84.74 192.81C87.19 200.51 87.84 208.24 85.85 216.35C84.18 223.14 81.15 228.84 76.91 234.28C73.63 238.49 69.49 241.24 65.03 243.83C63.46 244.74 61.54 244.48 60.08 246.02C58.94 247.22 56.84 247.27 55.06 247.59C49.93 248.51 44.88 249.86 39.58 248.35C37.78 247.84 35.81 247.92 33.91 247.56C30.56 246.93 27.53 245.46 24.68 243.96C22.29 242.7 19.96 240.97 17.74 239.2C13.64 235.93 10.58 231.86 7.97 227.49C5.76 223.79 4.11 219.67 3.46 215.39C2.97 212.13 2.17 208.86 2.53 205.47C3 201.02 3.51 196.67 5.49 192.51C7.19 188.93 8.89 185.48 11.28 182.23C15.19 176.91 16.71 175.38 21.3 172C24.16 169.89 27.41 168.84 30.43 167.21C32.94 165.86 35.75 165.47 38.55 165.28C40.48 165.15 42.43 165.25 44.88 165.25" fill="#00D989"></path><path d="M259.44 165.22C262.6 165.15 266.46 165.48 270.37 166.6C274.91 167.9 278.97 170.01 282.73 172.61C287.28 175.76 291.14 179.82 293.98 184.56C296.59 188.92 298.55 193.57 299.43 198.76C300.17 203.15 300.22 207.49 299.94 211.81C299.69 215.69 298.78 219.54 297.08 223.2C294.51 228.75 291.38 233.87 286.71 237.87C283.32 240.78 279.83 243.55 275.54 245.21C273.3 246.07 271.12 247.04 268.77 247.53C263.54 248.63 258.32 249.89 252.92 248.36C251.71 248.02 250.36 248.19 249.09 248.01C245.65 247.52 242.52 246.03 239.4 244.64C233.28 241.91 228.45 237.58 224.48 232.21C221.32 227.95 218.77 223.38 217.53 218.21C216.12 212.34 215.36 206.41 216.82 200.4C217.18 198.91 217.12 197.39 217.44 195.86C218.84 189.09 222.38 183.47 226.91 178.57C230.77 174.39 235.18 170.82 240.77 168.7C249.4 165.43 249.56 165.15 259.44 165.19" fill="#00D989"></path><path d="M322.71 206.56C322.06 199.65 324.39 193.38 327.29 187.42C330.05 181.75 334.31 177.09 339.31 173.16C342.89 170.35 346.96 168.45 351.17 166.97C355.72 165.37 360.5 164.8 365.36 165.15C367.16 165.28 368.98 165.22 370.79 165.24C371.64 165.25 372.18 165.46 372.34 166.5C372.77 169.25 373.69 171.97 373.77 174.72C373.85 177.33 374.16 179.94 374.13 182.57C374.1 185 374.08 187.46 373.81 189.85C373.22 195.02 371.96 200.05 370.01 204.95C368 209.99 365.14 214.48 362.1 218.88C360.8 220.77 358.98 222.31 357.4 224.01C356.7 224.77 355.83 225.43 355.35 226.31C354.91 227.11 354.5 227.88 354.85 229.13C355.56 231.68 355.79 234.4 355.92 237.06C356.03 239.51 355.66 241.97 355.69 244.42C355.7 245.13 355.19 245.55 355.25 246.21C355.33 247.22 354.64 247.74 353.8 247.44C352.02 246.8 350 247.05 348.4 245.74C346.51 244.19 344.02 243.83 341.92 242.51C335.52 238.48 330.75 232.99 327.37 226.43C324.2 220.28 322.08 213.68 322.7 206.56" fill="#00D989"></path><path d="M98.9598 260.63C109.97 260.74 120.28 264.97 128.53 273.47C136.34 281.51 140.19 291.56 140.24 302.68C140.3 313.96 136.24 323.94 128.3 332.09C120.05 340.56 109.77 345.08 98.0698 345C86.5898 344.93 76.2798 340.9 68.1198 332.4C59.9598 323.89 55.6198 313.77 55.8198 301.93C56.0098 290.42 60.4598 280.48 68.5898 272.55C76.6498 264.69 86.5798 260.57 98.9698 260.62" fill="#00D989"></path><path d="M-9.01004 260.63C1.99996 260.74 12.31 264.97 20.56 273.47C28.37 281.51 32.22 291.56 32.27 302.68C32.32 313.96 28.26 323.94 20.33 332.09C12.08 340.56 1.79996 345.08 -9.91004 345C-21.39 344.93 -31.71 340.9 -39.86 332.4C-48.02 323.89 -52.36 313.77 -52.17 301.93C-51.98 290.42 -47.53 280.48 -39.4 272.55C-31.34 264.69 -21.41 260.57 -9.02004 260.62" fill="#00D989"></path><path d="M1215.48 312.46C1217.09 321.41 1220.62 329.9 1222.74 338.7H1226.59C1225.23 330.87 1223.9 323.03 1222.56 315.19C1221.64 309.82 1220.77 304.44 1219.79 299.08C1217.92 288.84 1218.74 278.47 1218.53 268.14C1218.31 257.4 1219.3 246.85 1220.4 236.21C1221.94 221.36 1227.26 207.29 1232.26 193.17C1233.15 190.67 1235.65 188.62 1237.3 186.3C1240.77 181.43 1244.59 176.86 1247.35 171.46C1251.48 163.38 1258.27 157.48 1268.98 157.17C1271.56 157.09 1274.2 156.51 1276.72 155.86C1280.99 154.75 1284.53 155.23 1288.11 157.79C1293.91 161.93 1300.2 164.73 1308.4 163.27C1311.3 162.75 1315.22 162.96 1318.04 163.71C1325.24 165.62 1331.18 163.28 1336.89 160.02C1344.48 155.68 1352.09 151.27 1356.92 143.89C1359.02 140.69 1361.9 138.04 1365.04 135.43C1372.55 129.22 1379.18 122.24 1382.86 113.3C1384.89 108.36 1389.63 104.85 1393.89 101.78C1407.1 92.2698 1418.37 80.8798 1430.86 70.6898C1438.08 64.7998 1445.49 59.2998 1453.43 54.2998C1455.8 52.8098 1458.16 52.0498 1460.68 51.9098C1472.35 51.2898 1482.9 46.3298 1494.03 43.6898C1501.93 41.8198 1508.97 36.5998 1516.45 32.9898C1527.23 27.7798 1537.39 21.5398 1547.78 15.7698C1559.02 9.52984 1570.56 9.05984 1582.5 8.93984C1591.92 8.83984 1601.32 9.46984 1610.73 9.52984C1620.18 9.59984 1629.66 9.24984 1639.11 9.32984C1645.07 9.37984 1651.02 9.19984 1656.82 7.84984C1665.99 5.70984 1674.99 6.51984 1684.12 7.28984C1699.33 8.57984 1714.41 10.1498 1729.13 13.8798C1737.37 15.9698 1744.79 19.2898 1751.74 23.5098C1760.93 29.0998 1769.91 34.9798 1778.93 40.7998C1787.21 46.1498 1795.62 51.3298 1803.88 56.6998C1811.97 61.9698 1820.66 66.5898 1828.18 72.4498C1840.76 82.2398 1854.95 90.0598 1867.64 99.5798C1876.51 106.24 1883.84 114.7 1890.13 123.6C1896.75 132.97 1903.4 142.43 1908.67 152.48C1916.43 167.24 1923.09 182.43 1928.52 198.24C1935.1 217.42 1936.67 237.34 1940.01 256.97C1941.24 264.16 1940.17 272.23 1940.26 279.8C1940.37 289.88 1939.34 299.78 1937.93 309.68C1936.54 319.44 1934.58 329.12 1932.04 338.69H1938.85C1939.59 335.64 1940.28 332.57 1940.9 329.48C1944.96 309.09 1948.96 288.64 1946.49 267.91C1949.9 257.37 1942.55 247.6 1944.93 237.13C1940.61 234.5 1944.27 229.94 1942.03 226.35C1939.81 222.79 1940.21 217.8 1939.66 214.57C1937.93 206.58 1936.39 199.83 1933.95 193.09C1928.84 179 1922.65 165.41 1915.96 151.99C1905.84 131.67 1892.09 113.5 1875.9 97.0598C1867.7 88.7298 1858.51 80.9698 1846.45 76.9198C1844.44 76.2398 1842.14 75.0898 1841.09 73.5198C1838.45 69.5698 1834.05 67.7398 1830.28 65.1798C1809.39 50.9598 1787.12 38.5798 1765.38 25.4798C1761.7 23.2598 1758.28 20.6498 1754.49 18.5998C1745.75 13.8798 1736.85 8.86984 1726.88 7.06984C1714.52 4.83984 1702.09 2.54984 1689.35 1.83984C1675.16 1.04984 1660.82 -0.740158 1646.79 2.01984C1633.85 4.56984 1621.1 3.83984 1608.42 3.48984C1594.66 3.11984 1580.85 3.96984 1567.12 3.06984C1564.32 2.88984 1561.15 3.81984 1558.48 4.93984C1551.82 7.72984 1544.77 9.99984 1538.91 14.1098C1527.38 22.2098 1513.65 26.6898 1501.76 34.2598C1498.71 36.1998 1495.16 38.4798 1490.77 38.9198C1479.32 40.0598 1468.97 46.0198 1457.33 46.6198C1455.38 46.7198 1454.03 48.0998 1452.4 48.8098C1442.83 52.9998 1435.66 60.0898 1427.84 66.2598C1415.74 75.7998 1404.57 86.3298 1392.6 96.0298C1387.96 99.7898 1384.12 103.86 1381.69 108.89C1379.37 113.69 1376.03 117.61 1372.1 121.38C1366.43 126.82 1360.68 132.17 1355.78 138.32C1348.09 147.97 1338.21 154.73 1324.75 156.55C1319.52 157.26 1314.44 156.3 1309.45 157.06C1303.11 158.03 1297.29 156.48 1292.65 153.75C1285.53 149.55 1278.75 148.3 1270 148.6C1259.55 148.96 1252.81 152.75 1247.06 159.85C1244.35 163.19 1241.97 166.77 1239.07 169.96C1226.61 183.65 1222.18 200.3 1217.83 216.72C1212.46 236.97 1212.35 257.69 1212.33 278.27C1212.33 284 1213.68 289.8 1215.22 295.36C1216.8 301.05 1214.46 306.65 1215.5 312.43" fill="#00D989"></path><path d="M1240.77 311.65C1242.48 320.66 1243.67 329.74 1245.74 338.71H1251.8C1250.64 326.69 1245.29 315.23 1247.46 302.74C1247.85 300.47 1246.87 298.05 1246.58 295.69C1244.39 277.67 1245.93 259.74 1251.03 242.09C1254.31 230.74 1256.69 219.13 1263.31 208.55C1268.69 199.94 1283.55 191.31 1293.49 192.64C1294.87 192.82 1296.22 193.62 1297.39 194.38C1302.8 197.9 1308.9 198.39 1315.2 196.95C1323.81 194.99 1332.86 195.23 1341.01 190.72C1349.45 186.04 1356.89 180.61 1362.66 173.28C1366.6 168.26 1370.2 162.98 1375.67 159.12C1380.51 155.7 1383.63 151.4 1386.21 146.21C1389.78 139.03 1395.78 133 1402.75 128.25C1410.92 122.69 1417.39 115.65 1424.32 109.01C1434.94 98.84 1446.95 90.24 1459.23 81.91C1460.1 81.32 1461.22 80.74 1462.24 80.68C1474.27 80.09 1484.95 74.02 1496.77 72.68C1500.59 72.25 1503.76 70.82 1506.96 68.85C1512.16 65.65 1517.67 62.86 1523.1 59.98C1533.31 54.56 1543.58 49.23 1553.76 43.77C1557.33 41.85 1569.45 39.06 1574.08 38.46C1588.68 36.56 1603.23 37.74 1617.79 37.54C1628.41 37.39 1639.01 38.11 1649.68 37.38C1651.8 37.23 1654.34 37.84 1656.17 36.96C1665.58 32.46 1675.44 34.28 1684.78 35.08C1700.68 36.44 1716.61 38.45 1731.76 43.26C1742.9 46.8 1753.28 51.33 1761.23 59.65C1765.28 63.88 1770.82 66.73 1775.5 70.42C1781.52 75.16 1787.2 80.43 1793.91 84.5C1804.87 91.15 1814.02 99.73 1823.58 107.85C1841.31 122.92 1856.11 140.49 1872.5 156.72C1880.06 164.2 1884.53 173.91 1888.9 183.27C1897.04 200.71 1903.88 218.62 1905.27 237.98C1906.13 243.01 1907.25 248.02 1907.81 253.09C1910.12 274.03 1909.89 294.92 1904.18 315.74C1902.02 323.63 1899 331.22 1895.71 338.74H1908.11C1908.81 336.84 1909.45 334.92 1910 332.96C1912.73 323.19 1914.69 313.35 1915.88 303.41C1917.95 286.08 1919.27 268.74 1916.24 251.52C1915.41 246.83 1914.63 242.13 1913.54 235.74C1910.92 226.36 1910.09 214.99 1906.32 203.93C1901.79 190.62 1896.06 177.91 1889.83 165.4C1883.52 152.75 1875.22 141.11 1863.65 131.82C1857.95 127.24 1852.24 122.69 1847.15 117.51C1830.58 100.68 1811.11 86.76 1791.56 73.07C1781.42 65.96 1772.37 57.57 1761.27 51.59C1760.34 51.09 1759.4 50.41 1758.82 49.6C1756.1 45.8 1751.61 44.45 1747.63 42.18C1738.79 37.13 1728.99 35.01 1719.1 32.94C1701.09 29.16 1683.01 26.23 1664.12 27.53C1658.23 27.94 1653.18 30.9 1647.39 30.73C1634.36 30.34 1621.35 29.77 1608.31 29.64C1598.13 29.54 1587.9 29.6 1577.75 30.41C1573.97 30.71 1570.03 28.69 1566.99 30.23C1561.1 33.2 1554.06 33.72 1548.81 37.45C1536.44 46.26 1521.92 51.65 1509.09 59.72C1505.59 61.92 1501.78 64.29 1497.11 64.81C1485.67 66.07 1475.31 71.9 1463.68 72.61C1462.34 72.69 1461.04 73.71 1459.73 74.3C1448.23 79.5 1439.16 87.63 1429.84 95.44C1420.25 103.48 1411.52 112.32 1401.39 119.92C1393.91 125.54 1387.79 132.57 1384.07 141.11C1382.6 144.49 1379.67 147.27 1376.5 149.93C1369.93 155.46 1363.68 161.42 1358.1 167.78C1351.86 174.91 1344.77 180.51 1335.42 183.77C1332.37 184.84 1329.68 187.95 1326.34 187.02C1321.02 185.55 1316.05 186.94 1311.02 187.89C1307.15 188.61 1304.1 187.65 1300.5 186.59C1296.18 185.32 1293.22 181.36 1288.81 181.49C1277.52 181.83 1266.62 186.24 1260.94 194.54C1251.5 208.33 1245.55 223.94 1242.19 239.94C1239.64 252.08 1238.24 264.28 1238.85 276.74C1239.42 288.39 1238.59 300.19 1240.77 311.68" fill="#00D989"></path><path d="M1269.26 332.11C1269.64 334.31 1270.04 336.5 1270.45 338.7H1276.57C1275.48 333.84 1274.64 328.94 1274.38 323.93C1273.85 313.98 1273.29 304.01 1273.1 294.02C1272.91 284.23 1273.61 274.68 1275.67 265.16C1277.99 254.48 1281.76 244.46 1291.58 236.73C1295.86 233.36 1299.75 232.01 1304.58 233.09C1314.76 235.38 1323.58 230.32 1332.95 228.31C1345.9 225.54 1354.1 216.27 1363.52 208.72C1368.04 205.1 1369.48 199.55 1373.78 195.54C1381.89 187.97 1389.79 180.1 1394.11 169.94C1395.94 165.64 1400.28 162.8 1403.94 160.18C1418.67 149.61 1430.69 136.5 1444.5 125.1C1448.91 121.46 1452.86 117.38 1457.9 114.32C1463.57 110.87 1469.28 108.03 1476.11 107.18C1486.78 105.85 1496.61 101.31 1507.25 99.3596C1513.67 98.1796 1519.36 93.1696 1525.42 89.9396C1536.9 83.8096 1548.79 78.3096 1559.56 71.0896C1561.19 69.9996 1562.9 69.6396 1564.71 69.2796C1581.78 65.8096 1598.88 64.9096 1616.24 65.7596C1630.4 66.4496 1644.7 65.4796 1658.92 65.5796C1663.62 65.6096 1667.17 60.2396 1672.24 63.2196C1696.08 62.4596 1718.39 67.7696 1740.22 75.2996C1749.76 78.5896 1756.46 85.0396 1763.75 90.9596C1775.12 100.18 1784.88 110.82 1794.8 121.23C1806.41 133.4 1818.9 144.92 1828.72 158.52C1840.23 174.45 1850.52 190.8 1857.33 209.15C1861.67 220.84 1866.33 232.3 1867.49 244.19C1872.46 265.9 1870.5 287.29 1867.08 308.56C1865.43 318.83 1862.44 328.85 1858.8 338.72H1870.53C1872.79 331.3 1875.62 324 1877.23 316.43C1881.81 295 1886.18 273.53 1881.95 251.87C1881.28 248.45 1884 244.71 1881.98 242.19C1878.86 238.29 1879.03 233.88 1878.42 229.65C1877.26 221.58 1873.75 214.41 1870.49 207.04C1865.48 195.74 1859.33 185.03 1852.86 174.45C1841.32 155.59 1827.32 138.21 1810.72 123.13C1795.63 109.42 1781.02 95.2196 1765.06 82.2396C1752.61 72.1096 1739.14 64.1896 1723.14 59.7396C1714.09 57.2196 1704.55 56.8596 1695.31 55.3096C1682.48 53.1496 1669.91 53.0796 1657.13 55.9496C1654.22 56.5996 1651.12 57.5596 1648.28 57.2796C1634.57 55.9296 1620.61 57.8796 1607.05 56.0596C1598.93 54.9696 1591.05 56.8096 1583.03 56.6696C1573.7 56.5096 1563.62 58.1996 1555.26 63.3096C1541.72 71.5896 1527.01 78.0096 1513.58 86.3396C1505.84 91.1396 1496.52 90.3196 1488.75 94.7796C1485.17 96.8396 1480.08 96.9596 1475.63 97.3396C1465.46 98.1996 1457.51 103.31 1450.17 109.1C1447.72 111.03 1445.27 113.31 1442.83 115.37C1429.48 126.7 1417.55 139.36 1403.29 149.9C1398.92 153.13 1393.73 156.9 1391.44 162.09C1387.69 170.57 1381.68 177.5 1374.28 183.39C1370.5 186.39 1367.26 189.68 1364.77 193.48C1357.73 204.18 1347.8 211.96 1335.21 215.88C1324.09 219.35 1312.5 223.3 1300.59 218.84C1297.87 217.82 1295.54 218.39 1292.66 219.74C1282.45 224.55 1275.33 231.44 1272.06 241.56C1268.51 252.56 1265.88 263.5 1265.59 275.11C1265.23 289.5 1264.19 303.83 1266.82 318.03C1267.69 322.72 1268.44 327.42 1269.24 332.12" fill="#00D989"></path><path d="M1290.82 338.7H1299.58C1299.42 337.82 1299.25 336.95 1299.07 336.08C1296.02 321.07 1298.21 306.12 1301.48 291.28C1303.12 283.87 1306.96 277.29 1316.39 275.55C1317.13 275.41 1318.02 275.45 1318.56 275.06C1332.92 264.86 1349.88 258.08 1362.96 246.22C1364.03 245.25 1364.83 244.04 1365.74 242.94C1372.99 234.15 1379.39 224.83 1387.83 216.77C1392.12 212.67 1395.43 207.58 1398.16 202.13C1401.07 196.33 1405.84 191.32 1411.53 186.98C1420.37 180.24 1428.53 172.78 1436.47 165.07C1446.61 155.23 1456.45 144.83 1470.08 138.52C1472.11 137.58 1474.01 136.68 1476.2 136.26C1487.08 134.13 1498.1 132.99 1508.66 128.94C1513.41 127.12 1518.16 125.36 1522.71 123.12C1537.64 115.76 1551.73 107.05 1566.69 99.6899C1574.07 96.0599 1581.79 94.5299 1589.2 94.6099C1600.44 94.7399 1611.68 93.7899 1622.95 94.2599C1631.59 94.6199 1640.29 95.4399 1649.11 94.9899C1653.05 94.7899 1657.21 95.0399 1661.07 94.1499C1674.26 91.1299 1687.12 91.2799 1700.4 93.4099C1716.37 95.9799 1731.51 99.8199 1745.49 107.23C1755.01 112.27 1763.02 118.78 1769.55 126.7C1787.57 148.57 1803.4 171.71 1816.35 196.55C1820.85 205.19 1823.85 214.3 1827.72 223.11C1833.44 236.14 1834.68 250 1836.41 263.65C1838.33 278.75 1837.23 294.17 1834.33 309.39C1832.47 319.16 1830.58 328.92 1828.68 338.69H1838.34C1842.53 325.54 1846.33 312.41 1848.18 298.76C1850.18 283.99 1849.88 269.39 1848.22 254.89C1847.08 244.94 1845.36 235.04 1841.61 225.37C1839.37 219.59 1837.82 213.03 1835.24 207.46C1828.38 192.68 1820.51 178.19 1810.38 165.04C1796.41 146.9 1782.98 128.32 1766.79 111.78C1759.11 103.93 1750.55 96.7699 1739.2 92.7599C1729.06 89.1699 1719.03 85.6399 1708.22 83.7899C1691.31 80.8899 1674.5 78.8699 1657.17 82.8399C1645.96 85.4099 1634.42 84.3699 1623.41 83.2499C1609.14 81.7999 1595.04 83.6999 1580.89 83.6599C1569.76 83.6299 1560.16 89.1299 1551.67 95.0999C1540.09 103.24 1526.53 107.93 1514.48 115.22C1509.17 118.43 1502.49 120.54 1495.65 121C1491.2 121.3 1486.75 122.26 1482.37 123.22C1471.43 125.61 1461.07 129.84 1453.35 137.31C1448.7 141.81 1443.52 145.68 1438.76 149.99C1427.4 160.26 1416.67 171.15 1404.22 180.42C1400.48 183.21 1397.78 187.22 1395.8 191.35C1392.6 198.03 1388.12 203.9 1382.18 208.77C1378.82 211.52 1375.33 214.74 1373.39 217.91C1364.7 232.2 1352.3 242.53 1336.27 248.88C1328.54 251.94 1321.76 257.72 1312.95 257.82C1303.98 257.93 1299.21 263.14 1296.14 269.49C1294.44 273.01 1292.8 276.76 1291.74 280.77C1287.33 297.44 1287.76 313.94 1289.59 330.52C1289.89 333.25 1290.36 335.97 1290.86 338.67" fill="#00D989"></path><path d="M1325.42 338.7C1325.74 337.21 1326.09 335.72 1326.46 334.24C1329.74 321.18 1336.47 309.11 1347.21 299.6C1357.49 290.5 1367.38 281.15 1375.03 270.14C1380.23 262.66 1385.7 255.47 1391.85 248.59C1396.58 243.31 1400.71 237.62 1403.99 231.29C1406.82 225.83 1411.4 221.1 1416.86 217.1C1426.45 210.07 1434.36 201.39 1442.96 193.39C1452.79 184.24 1461.06 173.6 1473.98 167.3C1477.81 165.43 1481.5 164.15 1485.45 163.78C1509.29 161.57 1529.62 151.07 1549.65 139.85C1559.38 134.4 1569.19 129.07 1579.68 124.96C1581.38 124.29 1583.36 123.82 1585.16 123.89C1597.59 124.4 1609.92 121.56 1622.36 122.2C1631.75 122.68 1641.21 122.47 1650.58 123.07C1660.69 123.73 1670.47 121.73 1680.28 119.94C1688.53 118.43 1696.21 120.58 1704.02 121.87C1719.67 124.46 1733.84 130.45 1747.48 137.42C1753.55 140.52 1758.16 145.4 1762.57 150.15C1774.77 163.29 1783.16 178.67 1790.53 194.44C1796.91 208.1 1802.02 222.16 1805.25 236.97C1806.87 244.38 1810.63 251.72 1810.62 259.35C1810.61 270.4 1812.12 281.31 1812.59 292.28C1813.21 307.04 1811.66 321.56 1810.29 336.16C1810.21 337 1810.12 337.84 1810.03 338.69H1817.65C1818.61 330.98 1819.33 323.24 1820.08 315.49C1820.91 306.84 1821.19 298.22 1820.88 289.57C1820.61 281.94 1821.88 274.1 1820.56 266.69C1818.14 253.12 1817.19 239.32 1812.01 226.12C1808.87 218.12 1806.34 209.83 1802.98 201.8C1794.01 180.44 1782.14 160.7 1767.62 142.17C1759.14 131.35 1748.18 123.18 1735.3 118.02C1711.78 108.61 1687.07 103.43 1660.6 109.17C1656.37 110.09 1652.13 110.77 1647.45 110.3C1638.51 109.41 1629.18 110.82 1620.31 109.69C1613.82 108.86 1607.82 111.03 1601.66 110.62C1588 109.7 1575.16 112.07 1563.22 118.69C1556.26 122.55 1549.14 126.21 1542.56 130.57C1535.57 135.19 1526.99 136.26 1519.84 140.96C1515.16 144.03 1508.83 146.44 1502.29 146.85C1497.1 147.17 1491.89 148.24 1486.8 149.45C1480.07 151.05 1473.27 152.87 1467.55 156.76C1457.67 163.49 1448.87 171.36 1440.7 179.77C1432.53 188.18 1424.19 196.44 1414.62 203.53C1408.34 208.18 1403.9 213.84 1400.39 220.45C1396.77 227.27 1391.85 233.55 1385.97 238.92C1381.1 243.37 1377.09 248.12 1374.28 253.8C1373.37 255.65 1372.4 257.69 1370.84 259.05C1360.61 267.95 1351.48 277.81 1339.56 285.22C1329.95 291.2 1324.33 301.11 1316.74 309.12C1315.18 310.77 1315.02 313.55 1314.28 315.82C1311.82 323.41 1311.66 331.06 1312.15 338.69H1325.43L1325.42 338.7Z" fill="#00D989"></path><path d="M1358.95 338.7C1359.94 337.21 1360.99 335.77 1361.96 334.36C1366.72 327.38 1370.01 319.6 1375.97 313.25C1378.4 310.66 1380.16 307.71 1381.41 304.34C1383.58 298.5 1387.64 293.48 1391.54 288.39C1398.02 279.95 1405.24 271.99 1410.12 262.52C1415.16 252.73 1424.78 246.02 1432.91 238.55C1441.9 230.29 1449.36 220.85 1458.47 212.77C1465.63 206.42 1471.38 198.68 1481.24 194.99C1483.92 193.99 1486.5 192.6 1489.41 192.07C1491.62 191.67 1493.84 191.3 1496.05 190.92C1519.57 186.89 1519.63 187 1539.76 176.86C1550.09 171.66 1560.33 166.26 1570.24 160.42C1576.25 156.88 1583.4 156.1 1589.2 152.39C1595.91 154.34 1602.69 150.18 1608.83 151.27C1616.3 152.61 1623.41 150.52 1630.68 150.69C1639.69 150.9 1648.79 151.8 1657.97 151.37C1663.46 151.12 1669.01 151.03 1674.34 149.92C1683.55 147.99 1692.5 147.82 1701.68 149.41C1717.4 152.14 1731.69 157.98 1744.4 166.16C1759.77 176.04 1769.73 190.34 1776.56 206.29C1779.96 214.24 1782.8 222.47 1785.88 230.52C1789.59 240.2 1790.37 250.22 1792.49 258.51C1793.38 263.7 1794.02 267.39 1794.64 271.09C1796.98 284.98 1796.32 298.97 1795.68 313.04C1795.28 321.68 1794.62 330.2 1793.05 338.73H1801.32C1804.4 320.51 1805.83 302.29 1803.22 283.97C1803.08 282.96 1802.77 281.92 1802.92 280.93C1805.13 266.71 1800.85 253.14 1797.35 239.95C1794.34 228.58 1790.63 217.12 1785.67 206.07C1778.77 190.7 1771.22 175.89 1759.74 163.08C1755.4 158.24 1750.58 153.55 1744.53 150.45C1731.87 143.95 1718.65 138.51 1704.27 135.58C1693.57 133.4 1682.88 132.39 1671.72 134.19C1664.15 135.41 1656.77 137.06 1648.69 136.76C1633.88 136.2 1618.86 135.06 1603.94 137.67C1601.73 138.06 1599.5 137.45 1597.45 137.52C1589.36 137.79 1581.1 138.18 1573.71 142.01C1562.8 147.67 1552.03 153.56 1541.22 159.39C1535.49 162.48 1529.69 165.47 1524.19 168.87C1522.17 170.12 1520.17 170.82 1518 170.98C1504.91 171.92 1493.18 178.47 1480.15 179.56C1477.72 179.76 1476.21 181.29 1474.37 182.45C1463.2 189.49 1454.21 198.56 1445.47 207.92C1437.96 215.96 1430.32 223.94 1421.44 230.72C1414.44 236.06 1408.26 241.65 1405.1 249.71C1402.3 256.85 1397.63 262.9 1391.24 268.07C1387.64 270.98 1384.38 274.9 1382.63 278.92C1379.91 285.16 1375.32 290.12 1371.26 295.46C1364.57 304.28 1357.59 312.92 1350.84 321.72C1348.93 324.21 1347.39 326.93 1345.84 329.65C1344.13 332.64 1342.79 335.67 1341.73 338.72H1358.93L1358.95 338.7Z" fill="#00D989"></path><path d="M1390.96 338.7C1392.48 335.4 1394.15 332.16 1396.03 329.01C1403.49 316.47 1411.97 304.45 1418.36 291.35C1420.74 286.47 1425.29 282.59 1430 278.91C1435.89 274.3 1441.15 268.8 1445.79 263.09C1454.1 252.86 1461.99 242.33 1471.5 232.98C1477.93 226.65 1485.55 221.83 1495 220.13C1501.26 219 1507.55 218 1513.81 216.89C1522.16 215.42 1530.95 215.11 1537.47 208.8C1553.37 203.18 1567.27 194.08 1581.93 186.33C1589.47 182.34 1597.35 181.54 1605.41 181.49C1607.54 181.48 1609.76 181.93 1611.91 181.42C1627.91 177.67 1644.05 178.91 1659.99 179.84C1666.89 180.24 1673.33 179.44 1679.7 178C1695 174.57 1708.6 177.35 1722.06 183.7C1743.29 193.7 1757.12 209.39 1767.16 228.77C1770.12 234.48 1771.38 240.63 1774.09 246.39C1776.78 252.1 1776.62 258.99 1777.86 266.21C1781.47 282.55 1781.17 299.74 1777.71 317.23C1776.18 324.96 1773.55 332.09 1769.95 338.72H1784.78C1789.61 319.1 1791.13 299.02 1788.52 279.24C1785.84 258.92 1782.79 238.62 1774.17 219.48C1769.45 209.01 1764.29 198.84 1756.31 190.43C1745.57 179.11 1732.05 170.75 1716.76 165C1705.25 160.67 1693.02 159.64 1680.52 160.34C1670.87 165.85 1660.69 162.96 1650.61 163.05C1633.84 163.21 1617 161.41 1600.27 165.2C1598.82 165.53 1597.06 166.17 1595.87 165.75C1588.2 163.03 1582.33 168.14 1576.54 170.74C1564.68 176.08 1553.76 183.23 1542.19 189.18C1528.87 196.03 1515.01 201.66 1499.68 203.21C1495.97 203.59 1492.25 204.24 1488.62 205.11C1481.72 206.77 1475.58 209.74 1470.78 214.84C1462.73 223.4 1454.58 231.9 1446.49 240.39C1439.96 247.24 1434.74 255.3 1425.87 260.54C1420.38 263.78 1415.27 268.75 1413 274.58C1409.15 284.48 1402.27 292.58 1395.79 300.98C1394.26 302.96 1392.12 304.78 1391.34 306.97C1387.32 318.25 1380.27 328.22 1374.3 338.7H1390.95H1390.96Z" fill="#00D989"></path><path d="M1986.4 170.37L1988.36 219.2C1988.15 219.16 1987.96 219.14 1987.82 219.17C1986.07 219.66 1984.28 219.31 1982.52 219.49C1978.61 219.89 1974.71 220.66 1970.56 220C1968.93 219.74 1966.74 219.79 1964.92 220.48C1963.19 221.13 1961.15 220.98 1959.22 221.04C1956.86 221.12 1955.05 221.04 1954.66 219.17C1954.46 218.23 1952.45 217.44 1951.25 216.58C1949.19 215.12 1946.55 215.09 1943.76 215.75C1941.96 216.17 1940.29 216.79 1938.48 217.21C1937.3 217.48 1935.98 217.34 1934.8 216.93L1935.35 230.72C1935.14 230.68 1934.95 230.66 1934.82 230.7C1933.07 231.19 1931.28 230.84 1929.52 231.02C1925.61 231.42 1921.7 232.19 1917.56 231.53C1915.92 231.27 1913.74 231.32 1911.92 232C1910.19 232.65 1908.15 232.5 1906.22 232.56C1903.86 232.64 1902.06 232.56 1901.66 230.7C1901.46 229.76 1899.45 228.97 1898.25 228.11C1896.19 226.65 1893.55 226.62 1890.76 227.28C1888.96 227.7 1887.29 228.32 1885.48 228.74C1883.67 229.16 1881.48 228.67 1880.08 227.59C1879.23 226.93 1878.34 226.24 1876.91 226.21C1874.09 226.14 1872.47 225.1 1870.76 224.05C1869.07 223.01 1867.33 221.99 1865.58 220.98C1864.75 220.5 1863.68 220.25 1862.62 220.66C1861.57 221.07 1860.78 221.25 1859.82 220.62C1857.97 219.41 1855.58 218.84 1852.92 218.27C1849.9 217.63 1846.99 217.56 1843.99 217.68C1841.41 217.79 1839.84 217.29 1838.68 216C1837.77 214.97 1836.01 214.54 1834.71 215.05C1832.7 215.83 1830.61 216.16 1828.37 215.97C1825.39 215.72 1824.37 217.69 1821.8 217.84C1820.69 217.91 1819.06 218.03 1819 217.35C1818.85 215.39 1817.04 214.91 1814.13 215.02C1813.64 215.04 1812.75 214.88 1812.71 214.74C1812.16 212.76 1807.72 213.76 1806.62 211.98C1806.07 211.1 1804.14 212.6 1803.06 212.14C1800.85 211.19 1798.43 211.28 1795.91 211.41C1794.58 211.48 1794.09 210.91 1793.67 210.28C1793.29 209.72 1792.59 209.9 1791.75 210.03C1790.29 210.25 1788.76 209.8 1787.22 210.39C1786.4 210.71 1784.81 210.86 1784.13 210.27C1781.96 208.41 1777.46 208.98 1775.14 207.3C1774.43 206.79 1773.68 207.41 1772.96 207.56C1771.26 207.9 1769.7 208.02 1768.74 206.89C1768.39 206.47 1768.07 206.07 1766.99 206.46C1765.13 207.13 1762.7 206.87 1760.96 207.98C1758.81 209.34 1755.86 209.02 1753.11 208.77C1751.86 208.65 1752.39 207.03 1750.3 207.59C1748.65 208.03 1747.91 207.05 1746.63 206.88C1746.12 206.81 1745.68 206.16 1745.53 205.73C1745.21 204.84 1744.53 204.25 1742.86 204.27C1739.28 204.32 1735.65 203.94 1732.17 204.79C1731.18 205.03 1730.88 204.8 1730.33 204.41C1729.34 203.71 1727.92 203.18 1727.09 202.43C1726.41 201.82 1725.6 201.4 1724.51 201.49C1721.56 201.74 1718.79 200.83 1715.84 201.25C1715.41 201.31 1714.51 200.9 1714.43 200.97C1712.21 202.72 1709.51 202.66 1706.55 201.87C1706.39 201.83 1706.05 201.97 1705.83 202.06C1704.03 202.79 1702.21 202.78 1700.33 202.24C1697.93 201.55 1695.63 201.69 1693.26 202.5C1691.1 203.24 1688.83 203.98 1686.2 203.76C1683.55 203.54 1681.59 204.94 1679.02 204.81C1678.48 204.78 1677.87 204.76 1677.44 204.6C1676.33 204.18 1675.35 204.23 1674.67 204.89C1673.1 206.39 1669.92 205.57 1667.99 206.57C1667.83 206.65 1667.04 206.42 1666.67 206.25C1665.82 205.85 1665.02 205.41 1664.25 204.95C1661.34 203.22 1657.15 203.53 1653.62 202.8C1651.78 202.42 1650.31 203.08 1649.16 203.58C1647.21 204.42 1646.1 203.14 1644.59 203.34C1643 203.54 1641.45 203.89 1639.86 204.14C1639.66 204.17 1639.34 204.05 1639.15 203.95C1637.54 203.15 1635.95 202.05 1634.4 204.06C1634.32 204.17 1633.96 204.23 1633.71 204.28C1631.61 204.72 1629.58 203.31 1627.44 204.28C1627.27 204.36 1626.84 204.35 1626.63 204.28C1625.7 203.97 1624.75 203.65 1623.9 203.27C1622.16 202.5 1620.41 202.42 1618.56 203.17C1618.33 203.26 1618.09 203.36 1617.9 203.48C1616.2 204.57 1614.34 205.02 1612.01 204.2C1611.63 204.06 1610.94 203.98 1610.58 204.08C1607.13 205.12 1603.5 204.69 1599.93 204.74C1598.27 204.77 1596.31 204.53 1595.02 204.96C1591.31 206.2 1587.37 205.55 1583.61 205.97C1581.44 206.21 1580.07 205.03 1578.19 205.13C1576.05 205.25 1573.96 205.76 1571.82 205.94C1570.8 206.03 1569.49 205.92 1568.69 205.6C1566.8 204.84 1565.63 205.48 1564.37 206.15C1563.07 206.84 1561.93 207.22 1559.98 206.7C1556.55 205.79 1553.15 205.85 1550.08 207.61C1548.97 208.25 1547.23 208.75 1545.72 208.83C1544.65 208.88 1543.75 208.51 1543.34 209.42C1543.15 209.86 1542.51 209.98 1542.35 209.71C1542.01 209.11 1541.6 208.81 1541.15 208.66C1540.9 208.7 1540.68 208.72 1540.5 208.67C1540.3 208.62 1540.12 208.6 1539.93 208.57C1539.13 208.67 1538.23 208.98 1537.25 209.17C1537.04 209.21 1536.82 209.26 1536.6 209.3C1536.24 209.47 1535.86 209.55 1535.47 209.52C1534.52 209.7 1533.53 209.81 1532.51 209.84C1528.71 211.34 1524.24 212.37 1522.01 215.01C1521.55 215.55 1520.39 215.9 1519.59 216.36C1518.57 216.95 1517.88 217.61 1517.61 218.46C1516.57 221.75 1512.64 223.86 1508.2 225.64C1506.53 226.31 1505.1 226.92 1504.17 228C1502.9 229.49 1500.65 229.98 1497.9 229.85C1496.53 229.78 1495.08 229.99 1493.75 229.85C1490.98 229.54 1489.04 230.65 1486.74 231.12C1485.78 233 1483.09 232.71 1480.66 232.92C1479.07 233.05 1477.55 233.55 1475.99 233.88C1474.99 234.09 1473.8 234.6 1473.02 234.45C1469.12 233.69 1466.54 234.89 1464.63 236.52C1463.54 237.45 1462.59 237.88 1460.72 237.92C1458.56 237.96 1456.31 237.66 1454.29 238.54C1453.15 239.04 1451.95 239.47 1450.74 239.9C1449.7 240.82 1448.22 241.28 1446.41 241.37C1442.8 242.53 1439.2 243.69 1436.09 245.32C1434.96 245.91 1434.21 245.45 1433.21 245.28C1432.57 245.17 1431.39 245.32 1430.97 245.61C1428.08 247.55 1423.95 248.11 1420.25 249.16C1418.44 249.68 1416.73 250.15 1414.75 250.09C1412.33 250.02 1410.48 250.61 1408.87 251.63C1408 252.19 1406.89 252.15 1405.9 251.73C1404.81 251.26 1403.8 250.72 1402.7 250.26C1402.41 250.14 1402.09 250.04 1401.79 249.93C1401.62 249.99 1401.44 250.01 1401.28 250.08C1395.51 252.61 1388.51 254 1383.09 256.85C1381.96 257.44 1381.21 256.99 1380.21 256.81C1379.57 256.69 1378.39 256.85 1377.97 257.13C1375.08 259.08 1370.96 259.62 1367.25 260.68C1365.44 261.2 1363.73 261.67 1361.75 261.61C1359.33 261.54 1357.48 262.13 1355.87 263.16C1355 263.71 1353.89 263.68 1352.9 263.26C1351.81 262.79 1350.8 262.25 1349.7 261.79C1348.61 261.33 1347.3 261 1346.34 260.47C1345.1 259.78 1343.94 260.84 1342.61 260.37C1339.68 259.33 1339.59 259.39 1337.81 259.88C1335.98 260.38 1335.46 260.41 1332.95 259.59C1331.76 259.2 1330.83 259.91 1329.99 259.66C1328.79 259.3 1327.87 258.61 1326.65 258.3C1325.71 258.06 1324.17 257.89 1323.44 258.17C1320.62 259.26 1317.93 258.46 1315.69 257.94C1312.77 257.25 1310.53 257.12 1308.06 258.38C1307.27 258.78 1306.15 259.21 1305.19 259.22C1301.36 259.25 1297.43 259.79 1293.76 258.71C1292.23 258.26 1290.25 258.18 1288.93 258.67C1285.2 260.06 1281.47 259.68 1277.77 259.11C1276.56 258.92 1274.32 259.95 1274.1 258.3C1271.11 257.21 1268.13 256.11 1265.14 255.02C1261.95 255.2 1260.12 253.98 1258.23 252.82C1257.43 252.33 1256.46 252.1 1255.3 252.09C1254.75 252.09 1254.17 252.11 1253.64 252.02C1251.29 251.66 1248.54 251.59 1246.71 250.81C1244.35 249.8 1241.82 251.72 1239.87 250.4C1238.17 250.43 1236.6 249.77 1235.2 249.78C1233.94 249.8 1232.68 250.94 1231.39 251.56C1231.02 251.73 1230.13 251.92 1230.12 251.91C1227.46 248.95 1226.13 252.97 1223.95 252.39C1223.73 252.33 1223.4 252.42 1223.13 252.41C1221.54 252.34 1219.69 252.57 1219.25 251.22C1219.11 250.8 1218.54 250.72 1218.02 250.98C1216.32 251.84 1214.47 252.35 1212.21 252.72C1210.31 253.03 1209.25 253.11 1208.02 252.3C1207.71 252.1 1206.9 251.86 1206.69 251.95C1204.61 252.81 1201.82 252.49 1199.83 253.63C1198.36 254.47 1197.26 254.35 1196.8 253.49C1195.92 251.84 1193.64 250.93 1191.82 249.77C1190.47 248.91 1189.62 249.21 1189.09 250.23C1189.01 250.37 1188.77 250.49 1188.61 250.62C1186.49 249.35 1183.07 250.49 1180.9 249.3C1179.11 248.32 1177.44 247.25 1175.09 246.71C1173.48 244.29 1170.72 243.66 1166.67 244.95C1166.53 244.99 1166.17 244.83 1165.95 244.75C1163.66 243.88 1161.74 244.33 1160.05 245.41C1158.49 246.4 1156.4 246.42 1154.61 246.15C1152.02 245.77 1149.02 245.42 1147.96 243.71C1146.99 242.13 1143.56 242.4 1142.49 241C1140.44 240.91 1138.94 241.72 1137.37 242.26C1134.75 243.16 1132.12 241.57 1129.55 242.51C1129.33 242.59 1128.45 242.33 1128.28 242.12C1127.73 241.41 1127.54 240.58 1126.86 239.92C1126.17 239.25 1125.16 238.66 1124.15 238.13C1122.72 237.39 1124.51 236.37 1123.35 235.52C1122.52 234.91 1122.09 234.19 1120.64 233.89C1117.06 233.15 1116.41 230.66 1113.3 229.62C1113.45 227.16 1110.06 226.53 1107.18 225.67C1106.75 225.54 1105.78 225.5 1105.63 225.63C1103.84 227.22 1101.57 225.63 1099.77 226.06C1098.44 226.37 1097.8 225.95 1096.84 225.76C1095.34 225.46 1094.39 226.41 1093.05 226.47C1092.57 226.49 1091.95 226.37 1091.59 226.19C1090.44 225.61 1089.11 225.62 1087.7 225.62C1086.91 225.62 1085.75 225.6 1085.41 225.31C1082.72 223.08 1078.16 222.64 1074.42 221.43C1072.25 220.73 1070.12 220.14 1069.26 218.58C1068.74 217.63 1066.98 217.36 1065.42 216.97C1064.01 216.62 1062.39 216.37 1061.44 215.45C1058.91 213.01 1055.9 210.74 1053.65 208.22C1052.55 206.99 1051.23 206.65 1049.21 206.65C1048.07 206.65 1047.13 206.49 1046.17 206.09C1041.98 204.38 1038.12 202.32 1032.72 201.84C1031.98 201.77 1031.3 201.37 1030.7 201.06C1029.09 200.21 1027.73 199.18 1025.52 198.79C1024.5 196.91 1021.69 197.24 1019.33 197.32C1017.76 197.37 1016.23 197.92 1014.65 198.18C1013.58 198.35 1012.45 198.42 1011.59 197.89C1010.46 197.18 1009.1 196.7 1007.63 196.23C1006.32 195.81 1005.94 194.81 1004.2 194.36C1000.02 193.26 996.1 191.85 992.74 189.95C990.79 188.85 988.25 188.12 985.4 188.03C983.7 187.97 982.24 187.77 980.78 187.21C979.47 186.7 977.82 186.3 976.25 186.24C974.38 186.16 973.2 185.69 972.03 184.98C970.52 184.05 968.93 183.17 967.36 182.28C962.93 179.77 962.9 179.84 956.91 179.05C955.63 178.88 954.95 179.16 953.98 179.36C952.39 179.69 950.74 179.7 949.09 179.46C941.58 178.36 939.84 178.4 932.26 179.66C930.36 179.98 928.4 180.12 926.66 179.44C925.43 178.96 923.92 178.68 922.77 179.11C920.19 180.09 917.45 179.98 914.69 179.99C913.22 179.99 911.95 180.3 910.94 180.91C909.86 181.57 908.98 181.62 907.4 181.29C904.79 180.74 901.8 179.85 899.26 181.7C899.13 181.8 898.2 181.44 897.82 181.53C895 182.26 892.05 180.47 889.2 181.77C889.1 181.82 887.49 180.62 887.27 180.7C885.23 181.4 883.62 180.86 881.8 180.47C880.91 180.28 879.56 180.44 878.65 180.72C877.25 181.15 876.9 180.82 876.33 180.17C873.9 177.34 789.8 193.67 783.42 194.72C743.91 201.22 706.62 237.3 664.19 233.11C660.88 232.78 658.17 233.67 655.76 234.78C653.75 235.71 651.61 236.46 649.31 237.02C646.94 237.6 645.49 238.85 643.13 239.5C640.9 240.12 639.6 240.04 638.08 239.11C637.58 238.81 636.97 238.33 636.04 238.67C633.71 239.51 631.02 239.89 628.95 241.12C626 242.86 621.59 243.58 618.53 243.18C611.89 242.31 611.27 242.35 605.07 244.04C604.58 244.18 604.01 244.22 603.5 244.34C598.64 245.46 593.57 246.4 589.17 248.04C586.92 248.88 584.94 249.46 582.33 249.5C578.87 249.56 574.33 250.51 570.87 251.78C570.15 252.05 569.61 252.32 568.78 251.93C567.6 251.38 566 251.34 564.87 251.73C561.39 252.94 558.14 252.71 554.58 251.98C552.3 251.51 549.72 251.45 547.32 252.21C546.61 252.44 545.75 252.63 544.96 252.63C544.5 252.63 544.05 252.66 543.59 252.67C543.45 252.8 543.29 252.9 543.15 253.04C541.46 254.7 539.27 256.03 535.59 256.44C532.95 256.73 530.66 257.58 529.14 259.19C527.55 260.88 524.12 261.81 522.8 263.71C522.63 263.95 521.94 264.23 521.5 264.23C518.92 264.23 516.57 266.19 513.73 264.63C513.3 264.39 512.12 264.68 511.68 265.17C510.21 266.81 508.4 268.03 504.94 268.47C502.17 268.82 499.93 270.14 499.74 271.9C499.57 273.49 498.42 274.54 496.6 275.68C493.98 277.32 492.53 279.59 488.66 280.56C486.13 283.56 480.86 285.22 477.84 287.99C477.42 288.37 476.77 288.92 476.19 288.95C473.84 289.05 473.06 290.03 472 290.99C471.45 291.49 470.28 291.77 469.35 292.11C465.79 293.39 461.96 293.57 458.2 292.8C454.91 292.13 452.01 292.2 448.66 293C446.13 293.6 443.52 294.11 441.04 294.83C440.08 295.11 438.92 295.28 437.86 295.26C436.87 295.24 435.7 294.62 434.96 294.79C433.76 295.07 432.64 295.37 431.35 295.36C429.06 296.69 426.57 297.93 424.82 299.53C424.4 299.91 423.75 300.46 423.17 300.49C420.82 300.59 420.04 301.57 418.98 302.54C418.43 303.04 417.26 303.32 416.33 303.65C412.77 304.92 408.94 305.11 405.18 304.34C401.88 303.67 398.98 303.74 395.64 304.54C393.11 305.14 390.5 305.65 388.03 306.37C387.07 306.65 385.91 306.82 384.85 306.8C383.85 306.79 382.69 306.16 381.95 306.33C380.66 306.63 379.47 306.99 378.06 306.92C376.11 305.26 376.05 305.25 373.39 306C372.13 306.35 370.48 306.37 368.24 306.13C367.17 306.02 366.05 306.05 364.95 306.04C363.97 306.04 363.43 305.7 363.17 305.23C362.62 304.24 361.22 304.27 359.84 304.24C358.43 304.22 357.02 304.27 356.08 305.01C355.43 305.52 355 306.13 354.39 306.66C353.76 307.21 352.38 307.23 351.59 306.69C350.89 306.21 350.32 305.67 349.66 305.17C348.3 304.15 346.14 303.98 344.95 305.06C343.82 306.08 343.07 306.47 341.14 305.83C339.52 305.29 337.57 304.53 335.97 304.69C334.32 304.85 333.03 305.08 331.58 304.52C329.9 303.87 328.14 304.05 326.28 304.41C325.49 304.56 324.9 304.17 324.69 303.68C323.34 303.6 321.89 303.68 320.67 303.4C318.11 302.83 315.68 302.08 313.21 301.4C310.86 300.74 308.01 300.57 306.8 298.86C306.25 298.09 304.6 297.99 303.17 298C300.96 298.01 298.85 298 296.83 297.25C294.85 296.51 292.83 295.83 290.05 296.91C288.57 297.49 286.18 295.65 284.08 296.97C279.84 295.94 275.47 295.07 271.4 293.86C266.54 292.42 263.64 291.7 259.22 291.65C257.24 291.63 255.41 291.52 253.68 290.89C253.09 290.67 251.82 290.64 251.31 290.86C247.99 292.32 243.47 291.15 240.28 292.76C238.41 292.78 236.49 292.97 234.63 292.92C234.45 293.08 234.29 293.26 234.18 293.47C232.81 296.02 229.04 297.56 226.43 299.59C224.97 300.72 222.51 300.66 221.67 299.46C220.69 298.06 219.22 296.93 217.31 296.04C215.95 295.4 214.77 294.69 213.65 293.94C211.49 294.54 209.49 295.49 206.86 295.21C203.42 296.14 199.32 296.23 196.77 298.27C195.64 299.17 193.93 299.77 192.3 300.42C191.13 300.88 187.92 300.57 188.9 302.38C187.85 303.82 185.52 302.77 184 303.29C182.78 303.71 181.63 304.17 181.18 305.01C179.81 307.56 176.04 309.1 173.43 311.13C171.97 312.26 169.52 312.2 168.67 311C167.69 309.6 166.21 308.47 164.31 307.58C160.64 305.86 158.02 303.63 155.4 301.42C154.28 300.47 153.52 299.61 151.23 299.52C150.3 299.48 149.1 298.97 148.66 298.47C146.92 296.54 143.22 295.91 140.97 294.34C140.66 294.13 140.01 293.97 139.51 293.97C136.77 293.94 134 293.67 131.36 294.49C129.64 295.02 127.79 295.43 126.12 296.01C124.58 296.54 123.39 296.61 121.6 296.23C119.64 295.81 117.2 295.79 115.11 296.43C112.6 297.21 110.52 295.56 108.05 296.21C106.56 296.61 105.02 297.05 103.44 297.2C95.5599 297.98 93.4399 298.47 85.9299 301.62C85.4099 301.84 85.1599 302.02 84.5399 301.78C84.0899 301.61 83.5699 301.46 83.0499 301.4C80.6799 301.15 80.1099 301.44 79.3199 303.15C79.1599 303.5 79.3199 304.42 78.0999 303.79C75.8799 302.63 73.7399 301.87 70.7299 302.95C70.4299 303.06 69.4999 302.91 69.3499 302.74C68.1899 301.39 64.6399 302.6 63.6599 300.91C63.3399 300.35 61.5099 300.39 60.6499 300.71C57.7699 301.79 55.9799 300.79 54.6899 299.66C53.6799 298.77 52.8999 298.61 51.4799 299.17C50.6899 299.48 50.0099 299.44 49.3399 299.07C48.3499 298.52 47.3399 297.78 45.8899 297.91C41.9399 298.27 38.1999 296.49 34.0899 297.86C32.7999 298.29 30.8599 298.18 29.4899 297.37C28.3399 296.69 27.0199 296.05 25.2299 296.04C22.6399 296.03 23.0499 294.33 21.3999 293.81C20.9199 293.66 20.4599 293.32 20.0099 293.33C16.4099 293.46 14.7199 291.86 12.5199 290.7C11.1099 289.96 9.76989 288.85 8.11989 288.67C5.39989 288.37 3.92989 287.31 1.95988 286.48C-1.49012 285.03 -3.33011 282.87 -5.89011 281.03C-7.67011 279.75 -7.58011 279.7 -10.6001 279.86C-12.1201 279.94 -13.1801 279.72 -13.8601 278.83C-14.3501 278.18 -15.4501 278.03 -16.5901 278.49C-17.0501 278.67 -17.4401 278.91 -17.9001 279.1C-21.0501 280.4 -22.6701 280.35 -25.0601 278.88C-25.4401 278.65 -26.0001 278.45 -26.1501 278.17C-26.9201 276.72 -28.5101 276.17 -31.1401 276.34C-32.7901 276.45 -34.3901 276.16 -35.9401 275.75C-36.8601 275.51 -38.4301 275.32 -39.0601 275.6C-40.9301 276.44 -41.8401 275.71 -43.2901 275.26C-46.3901 274.31 -49.6901 273.56 -52.9901 272.79L-54.6201 362.11L1989.24 399.46L1993.44 169.74C1991.66 170.23 1989.84 170.5 1987.89 170.35C1987.31 170.31 1986.85 170.4 1986.38 170.47" fill="#FFD978"></path><path d="M1969.84 197.16L1971.31 246.01C1971.1 245.97 1970.91 245.95 1970.77 245.98C1969.02 246.45 1967.23 246.09 1965.46 246.25C1961.55 246.61 1957.63 247.33 1953.49 246.63C1951.86 246.35 1949.68 246.38 1947.85 247.05C1946.12 247.68 1944.08 247.51 1942.15 247.55C1939.79 247.6 1937.99 247.51 1937.61 245.64C1937.42 244.7 1935.42 243.88 1934.23 243.02C1932.19 241.54 1929.55 241.48 1926.75 242.11C1924.94 242.52 1923.27 243.12 1921.46 243.52C1920.28 243.78 1918.96 243.63 1917.78 243.2L1918.19 257C1917.98 256.96 1917.79 256.93 1917.65 256.97C1915.9 257.44 1914.11 257.07 1912.34 257.24C1908.43 257.6 1904.51 258.33 1900.38 257.63C1898.75 257.35 1896.56 257.38 1894.74 258.05C1893.01 258.68 1890.97 258.51 1889.04 258.55C1886.68 258.6 1884.87 258.51 1884.5 256.64C1884.31 255.69 1882.31 254.88 1881.12 254.02C1879.08 252.54 1876.44 252.48 1873.64 253.11C1871.83 253.52 1870.15 254.12 1868.35 254.52C1866.54 254.92 1864.35 254.41 1862.96 253.31C1862.12 252.65 1861.24 251.95 1859.8 251.89C1856.98 251.79 1855.37 250.73 1853.67 249.67C1851.99 248.61 1850.26 247.58 1848.52 246.55C1847.69 246.06 1846.63 245.8 1845.56 246.2C1844.5 246.6 1843.71 246.77 1842.76 246.13C1840.92 244.9 1838.54 244.3 1835.89 243.71C1832.88 243.04 1829.97 242.94 1826.97 243.03C1824.39 243.11 1822.82 242.6 1821.68 241.29C1820.78 240.25 1819.02 239.8 1817.72 240.29C1815.7 241.05 1813.61 241.36 1811.37 241.15C1808.39 240.87 1807.35 242.83 1804.79 242.95C1803.68 243 1802.05 243.11 1802 242.43C1801.87 240.47 1800.07 239.97 1797.16 240.05C1796.67 240.06 1795.78 239.9 1795.74 239.75C1795.21 237.76 1790.76 238.71 1789.68 236.93C1789.14 236.04 1787.2 237.53 1786.12 237.05C1783.92 236.08 1781.5 236.15 1778.98 236.25C1777.65 236.31 1777.16 235.73 1776.75 235.1C1776.38 234.54 1775.67 234.71 1774.83 234.83C1773.37 235.04 1771.84 234.57 1770.3 235.15C1769.47 235.46 1767.88 235.59 1767.21 235C1765.06 233.11 1760.55 233.64 1758.25 231.94C1757.54 231.42 1756.79 232.03 1756.07 232.17C1754.37 232.5 1752.8 232.59 1751.86 231.46C1751.51 231.04 1751.2 230.63 1750.11 231.01C1748.24 231.67 1745.82 231.38 1744.07 232.47C1741.91 233.81 1738.96 233.46 1736.21 233.18C1734.96 233.05 1735.5 231.44 1733.41 231.97C1731.76 232.39 1731.03 231.4 1729.75 231.22C1729.24 231.15 1728.81 230.49 1728.66 230.06C1728.35 229.17 1727.67 228.57 1726 228.58C1722.43 228.58 1718.79 228.18 1715.31 228.99C1714.32 229.22 1714.02 228.99 1713.47 228.59C1712.49 227.88 1711.08 227.34 1710.25 226.58C1709.57 225.96 1708.77 225.54 1707.68 225.62C1704.73 225.84 1701.97 224.9 1699.01 225.29C1698.58 225.34 1697.68 224.93 1697.6 224.99C1695.36 226.72 1692.66 226.63 1689.71 225.81C1689.56 225.77 1689.21 225.91 1688.98 225.99C1687.17 226.7 1685.36 226.68 1683.48 226.12C1681.09 225.4 1678.79 225.52 1676.41 226.31C1674.24 227.03 1671.96 227.75 1669.34 227.5C1666.69 227.25 1664.72 228.63 1662.15 228.48C1661.61 228.45 1660.99 228.42 1660.57 228.25C1659.47 227.82 1658.49 227.86 1657.8 228.51C1656.21 229.99 1653.04 229.14 1651.11 230.12C1650.95 230.2 1650.16 229.96 1649.79 229.78C1648.94 229.37 1648.15 228.92 1647.39 228.46C1644.5 226.7 1640.31 226.97 1636.79 226.2C1634.96 225.8 1633.47 226.45 1632.32 226.94C1630.37 227.76 1629.26 226.47 1627.75 226.65C1626.15 226.84 1624.6 227.17 1623.02 227.4C1622.82 227.43 1622.5 227.3 1622.31 227.2C1620.71 226.38 1619.13 225.27 1617.56 227.26C1617.47 227.37 1617.11 227.42 1616.86 227.47C1614.76 227.89 1612.74 226.46 1610.59 227.41C1610.42 227.49 1609.99 227.47 1609.78 227.4C1608.85 227.08 1607.91 226.75 1607.06 226.37C1605.33 225.58 1603.58 225.49 1601.72 226.22C1601.49 226.31 1601.25 226.4 1601.06 226.52C1599.35 227.59 1597.48 228.03 1595.16 227.18C1594.78 227.04 1594.09 226.94 1593.73 227.05C1590.27 228.06 1586.64 227.58 1583.07 227.61C1581.41 227.62 1579.45 227.36 1578.15 227.78C1574.43 228.99 1570.5 228.29 1566.73 228.67C1564.55 228.89 1563.2 227.69 1561.31 227.78C1559.17 227.88 1557.08 228.37 1554.93 228.53C1553.91 228.61 1552.6 228.49 1551.8 228.15C1549.92 227.37 1548.74 228 1547.47 228.66C1546.16 229.34 1545.02 229.7 1543.08 229.16C1539.66 228.22 1536.26 228.24 1533.17 229.97C1532.06 230.6 1530.31 231.08 1528.79 231.14C1527.72 231.18 1526.83 230.8 1526.41 231.71C1526.21 232.14 1525.57 232.26 1525.42 231.99C1525.08 231.39 1524.68 231.08 1524.24 230.93C1523.99 230.97 1523.77 230.98 1523.59 230.93C1523.39 230.88 1523.21 230.86 1523.02 230.82C1522.22 230.91 1521.32 231.21 1520.34 231.39C1520.13 231.43 1519.91 231.47 1519.69 231.51C1519.33 231.68 1518.95 231.75 1518.55 231.72C1517.59 231.89 1516.6 231.99 1515.58 232.01C1511.76 233.47 1507.29 234.46 1505.03 237.08C1504.56 237.62 1503.4 237.95 1502.6 238.4C1501.58 238.98 1500.88 239.63 1500.6 240.48C1499.52 243.76 1495.58 245.83 1491.11 247.56C1489.43 248.21 1487.99 248.81 1487.06 249.88C1485.77 251.36 1483.52 251.82 1480.77 251.66C1479.4 251.58 1477.94 251.77 1476.62 251.61C1473.85 251.27 1471.91 252.36 1469.59 252.81C1468.61 254.68 1465.93 254.37 1463.49 254.55C1461.89 254.66 1460.37 255.15 1458.81 255.47C1457.81 255.67 1456.61 256.17 1455.83 256.01C1451.94 255.21 1449.35 256.38 1447.42 258C1446.32 258.92 1445.37 259.34 1443.5 259.36C1441.34 259.38 1439.09 259.05 1437.06 259.92C1435.92 260.4 1434.71 260.82 1433.5 261.24C1432.45 262.16 1430.97 262.6 1429.16 262.67C1425.54 263.79 1421.92 264.92 1418.81 266.51C1417.68 267.09 1416.93 266.63 1415.93 266.44C1415.29 266.32 1414.11 266.46 1413.69 266.74C1410.78 268.65 1406.65 269.16 1402.94 270.18C1401.13 270.68 1399.41 271.13 1397.43 271.06C1395.01 270.97 1393.16 271.53 1391.54 272.54C1390.67 273.09 1389.55 273.04 1388.57 272.61C1387.48 272.13 1386.48 271.58 1385.38 271.1C1385.09 270.98 1384.78 270.87 1384.47 270.76C1384.3 270.82 1384.12 270.84 1383.95 270.91C1378.15 273.38 1371.14 274.7 1365.69 277.49C1364.56 278.07 1363.81 277.61 1362.81 277.42C1362.17 277.3 1360.99 277.44 1360.57 277.72C1357.66 279.64 1353.53 280.14 1349.82 281.17C1348.01 281.67 1346.29 282.13 1344.31 282.05C1341.89 281.96 1340.04 282.52 1338.42 283.54C1337.55 284.09 1336.43 284.04 1335.45 283.61C1334.36 283.13 1333.36 282.58 1332.26 282.1C1331.17 281.63 1329.87 281.29 1328.92 280.75C1327.69 280.04 1326.52 281.09 1325.2 280.61C1322.28 279.54 1322.19 279.6 1320.4 280.07C1318.56 280.55 1318.05 280.58 1315.54 279.73C1314.35 279.33 1313.42 280.03 1312.58 279.76C1311.38 279.39 1310.48 278.69 1309.26 278.36C1308.32 278.11 1306.78 277.93 1306.05 278.2C1303.22 279.26 1300.53 278.43 1298.3 277.89C1295.39 277.18 1293.15 277.02 1290.67 278.25C1289.87 278.65 1288.75 279.06 1287.79 279.06C1283.96 279.05 1280.02 279.55 1276.37 278.44C1274.84 277.97 1272.86 277.87 1271.54 278.35C1267.8 279.7 1264.07 279.29 1260.37 278.67C1259.17 278.47 1256.91 279.47 1256.71 277.82C1253.73 276.7 1250.76 275.58 1247.78 274.45C1244.59 274.6 1242.77 273.35 1240.89 272.18C1240.09 271.68 1239.13 271.44 1237.97 271.42C1237.41 271.42 1236.84 271.42 1236.31 271.34C1233.96 270.96 1231.22 270.86 1229.39 270.06C1227.03 269.03 1224.49 270.92 1222.55 269.58C1220.85 269.58 1219.29 268.91 1217.89 268.92C1216.63 268.92 1215.36 270.06 1214.06 270.66C1213.69 270.83 1212.8 271.01 1212.79 270.99C1210.16 268.01 1208.79 272.01 1206.61 271.41C1206.39 271.35 1206.06 271.44 1205.79 271.42C1204.2 271.34 1202.35 271.55 1201.92 270.19C1201.79 269.77 1201.21 269.68 1200.69 269.94C1198.98 270.79 1197.13 271.27 1194.87 271.62C1192.97 271.91 1191.91 271.98 1190.68 271.16C1190.38 270.95 1189.56 270.71 1189.35 270.8C1187.26 271.64 1184.47 271.29 1182.47 272.41C1180.99 273.24 1179.89 273.11 1179.44 272.23C1178.58 270.58 1176.31 269.64 1174.5 268.46C1173.16 267.58 1172.3 267.88 1171.76 268.89C1171.68 269.03 1171.44 269.15 1171.28 269.27C1169.18 267.98 1165.75 269.09 1163.58 267.88C1161.8 266.89 1160.14 265.8 1157.79 265.23C1156.21 262.8 1153.45 262.14 1149.39 263.39C1149.25 263.43 1148.89 263.27 1148.67 263.18C1146.39 262.29 1144.47 262.72 1142.76 263.78C1141.19 264.75 1139.1 264.75 1137.31 264.47C1134.72 264.07 1131.72 263.69 1130.69 261.96C1129.73 260.37 1126.3 260.61 1125.25 259.19C1123.2 259.08 1121.7 259.87 1120.11 260.4C1117.48 261.28 1114.87 259.66 1112.29 260.57C1112.07 260.65 1111.19 260.38 1111.03 260.17C1110.48 259.45 1110.3 258.62 1109.63 257.95C1108.95 257.27 1107.95 256.67 1106.93 256.13C1105.51 255.37 1107.31 254.37 1106.15 253.51C1105.32 252.89 1104.91 252.17 1103.45 251.85C1099.88 251.07 1099.25 248.58 1096.15 247.51C1096.32 245.05 1092.94 244.39 1090.07 243.5C1089.64 243.36 1088.67 243.31 1088.52 243.44C1086.71 245.01 1084.46 243.4 1082.66 243.81C1081.33 244.11 1080.69 243.69 1079.73 243.48C1078.23 243.16 1077.28 244.11 1075.93 244.16C1075.45 244.18 1074.84 244.05 1074.47 243.86C1073.33 243.27 1072 243.26 1070.59 243.25C1069.8 243.25 1068.64 243.21 1068.3 242.92C1065.63 240.66 1061.07 240.18 1057.35 238.93C1055.19 238.21 1053.06 237.6 1052.21 236.02C1051.7 235.07 1049.94 234.77 1048.38 234.37C1046.98 234.01 1045.36 233.74 1044.41 232.81C1041.91 230.35 1038.92 228.04 1036.69 225.5C1035.6 224.25 1034.29 223.9 1032.27 223.88C1031.13 223.87 1030.19 223.7 1029.23 223.29C1025.06 221.54 1021.22 219.44 1015.82 218.91C1015.08 218.84 1014.4 218.43 1013.8 218.11C1012.2 217.24 1010.85 216.2 1008.64 215.79C1007.64 213.9 1004.82 214.2 1002.46 214.25C1000.89 214.29 999.35 214.82 997.77 215.06C996.7 215.22 995.56 215.28 994.71 214.73C993.58 214.01 992.23 213.52 990.77 213.03C989.46 212.6 989.09 211.6 987.36 211.12C983.19 209.98 979.29 208.53 975.95 206.59C974.01 205.47 971.47 204.72 968.62 204.59C966.92 204.51 965.46 204.3 964.01 203.72C962.7 203.2 961.05 202.78 959.49 202.7C957.63 202.61 956.44 202.12 955.29 201.39C953.79 200.45 952.21 199.55 950.64 198.64C946.24 196.08 946.2 196.16 940.22 195.3C938.94 195.12 938.26 195.39 937.28 195.58C935.68 195.89 934.04 195.89 932.39 195.63C924.89 194.45 923.15 194.48 915.56 195.66C913.65 195.96 911.69 196.08 909.96 195.39C908.73 194.9 907.23 194.6 906.07 195.02C903.48 195.97 900.75 195.84 897.98 195.82C896.51 195.82 895.24 196.1 894.22 196.7C893.13 197.34 892.26 197.38 890.68 197.04C888.07 196.47 885.09 195.55 882.54 197.37C882.41 197.47 881.48 197.1 881.11 197.19C878.28 197.89 875.35 196.08 872.49 197.35C872.39 197.39 870.79 196.18 870.57 196.26C868.53 196.94 866.92 196.39 865.11 195.98C864.23 195.78 862.87 195.93 861.95 196.19C860.54 196.6 860.2 196.28 859.64 195.62C857.23 192.77 772.97 208.24 766.58 209.23C727.01 215.33 689.35 251.03 646.97 246.41C643.66 246.05 640.94 246.91 638.53 247.99C636.51 248.9 634.36 249.63 632.05 250.16C629.68 250.71 628.21 251.95 625.85 252.58C623.61 253.18 622.31 253.08 620.8 252.14C620.31 251.83 619.7 251.35 618.77 251.68C616.43 252.49 613.74 252.85 611.66 254.06C608.7 255.77 604.28 256.44 601.22 256.01C594.59 255.07 593.97 255.11 587.75 256.74C587.25 256.87 586.69 256.91 586.18 257.02C581.3 258.09 576.23 258.98 571.82 260.58C569.56 261.4 567.58 261.96 564.96 261.97C561.49 261.99 556.95 262.9 553.48 264.13C552.75 264.39 552.21 264.65 551.39 264.25C550.21 263.68 548.61 263.63 547.48 264.01C543.99 265.18 540.74 264.92 537.19 264.15C534.92 263.66 532.34 263.57 529.93 264.31C529.21 264.53 528.35 264.71 527.57 264.71C527.11 264.71 526.66 264.73 526.2 264.74C526.06 264.86 525.9 264.97 525.76 265.1C524.05 266.75 521.85 268.05 518.17 268.42C515.52 268.68 513.23 269.51 511.7 271.1C510.1 272.77 506.65 273.67 505.32 275.56C505.15 275.8 504.45 276.07 504.01 276.07C501.43 276.04 499.06 277.98 496.24 276.39C495.81 276.14 494.63 276.43 494.19 276.91C492.7 278.54 490.88 279.74 487.41 280.14C484.63 280.46 482.38 281.76 482.18 283.52C481.99 285.11 480.83 286.14 479 287.27C476.37 288.89 474.9 291.14 471.02 292.07C468.46 295.04 463.18 296.65 460.13 299.39C459.71 299.77 459.05 300.31 458.47 300.33C456.12 300.41 455.33 301.38 454.25 302.33C453.7 302.82 452.53 303.09 451.59 303.42C448.02 304.66 444.18 304.81 440.44 304C437.15 303.29 434.25 303.34 430.9 304.1C428.36 304.67 425.75 305.16 423.27 305.85C422.31 306.12 421.14 306.28 420.09 306.25C419.09 306.22 417.94 305.59 417.19 305.75C415.99 306.02 414.86 306.3 413.58 306.28C411.28 307.59 408.78 308.8 407.01 310.38C406.59 310.76 405.93 311.3 405.35 311.32C403 311.4 402.21 312.37 401.14 313.32C400.59 313.81 399.42 314.08 398.48 314.41C394.91 315.65 391.07 315.8 387.33 314.99C384.04 314.28 381.14 314.33 377.79 315.09C375.25 315.66 372.64 316.15 370.16 316.84C369.2 317.11 368.03 317.27 366.98 317.24C365.98 317.22 364.83 316.58 364.08 316.75C362.79 317.04 361.6 317.38 360.18 317.3C358.25 315.62 358.18 315.62 355.53 316.33C354.27 316.67 352.62 316.67 350.38 316.41C349.31 316.29 348.19 316.3 347.09 316.29C346.11 316.27 345.57 315.93 345.31 315.46C344.77 314.47 343.37 314.48 341.99 314.44C340.58 314.4 339.17 314.44 338.23 315.17C337.57 315.68 337.14 316.28 336.52 316.8C335.89 317.34 334.5 317.35 333.72 316.8C333.03 316.32 332.46 315.77 331.81 315.27C330.46 314.24 328.3 314.05 327.11 315.11C325.97 316.12 325.22 316.5 323.3 315.84C321.69 315.29 319.74 314.5 318.14 314.65C316.49 314.8 315.19 315.01 313.75 314.44C312.08 313.77 310.32 313.93 308.45 314.28C307.66 314.42 307.07 314.02 306.87 313.53C305.52 313.44 304.07 313.49 302.86 313.21C300.31 312.62 297.89 311.84 295.43 311.13C293.08 310.45 290.24 310.25 289.04 308.52C288.5 307.74 286.85 307.63 285.42 307.62C283.21 307.61 281.1 307.58 279.09 306.81C277.11 306.05 275.1 305.35 272.32 306.41C270.83 306.98 268.46 305.11 266.35 306.41C262.12 305.34 257.76 304.42 253.7 303.17C248.85 301.68 245.97 300.94 241.54 300.84C239.56 300.8 237.73 300.67 236.01 300.03C235.42 299.81 234.16 299.76 233.64 299.98C230.3 301.41 225.8 300.19 222.59 301.77C220.72 301.77 218.8 301.94 216.94 301.87C216.76 302.03 216.6 302.21 216.49 302.41C215.1 304.94 211.31 306.45 208.68 308.45C207.21 309.57 204.76 309.48 203.92 308.27C202.95 306.86 201.49 305.72 199.59 304.8C198.24 304.15 197.07 303.42 195.95 302.66C193.78 303.24 191.77 304.17 189.14 303.86C185.7 304.75 181.59 304.8 179.02 306.82C177.88 307.71 176.17 308.29 174.53 308.92C173.36 309.37 170.14 309.02 171.11 310.84C170.04 312.27 167.73 311.19 166.2 311.7C164.98 312.11 163.82 312.56 163.36 313.39C161.97 315.92 158.18 317.43 155.55 319.43C154.08 320.55 151.63 320.46 150.79 319.25C149.82 317.84 148.36 316.7 146.46 315.79C142.8 314.03 140.21 311.78 137.62 309.54C136.51 308.58 135.76 307.71 133.46 307.6C132.53 307.55 131.34 307.03 130.9 306.53C129.18 304.59 125.49 303.91 123.25 302.32C122.94 302.1 122.3 301.94 121.8 301.93C119.06 301.87 116.29 301.58 113.65 302.36C111.92 302.88 110.07 303.26 108.4 303.83C106.86 304.35 105.66 304.4 103.87 304C101.92 303.56 99.48 303.51 97.38 304.13C94.86 304.88 92.8 303.21 90.32 303.84C88.82 304.22 87.28 304.64 85.7 304.78C77.81 305.48 75.6899 305.94 68.1499 309.02C67.6299 309.24 67.3799 309.41 66.7599 309.17C66.31 309 65.8 308.84 65.27 308.78C62.9 308.5 62.33 308.78 61.52 310.49C61.35 310.84 61.51 311.76 60.3 311.12C58.09 309.94 55.96 309.16 52.94 310.21C52.64 310.32 51.71 310.16 51.56 309.99C50.41 308.63 46.85 309.81 45.89 308.1C45.58 307.54 43.75 307.55 42.88 307.87C39.99 308.92 38.21 307.9 36.93 306.76C35.93 305.86 35.15 305.69 33.72 306.24C32.93 306.54 32.25 306.5 31.58 306.12C30.6 305.56 29.59 304.81 28.14 304.92C24.19 305.24 20.46 303.42 16.34 304.75C15.04 305.17 13.1 305.03 11.74 304.21C10.59 303.52 9.28996 302.87 7.49996 302.84C4.90997 302.8 5.32996 301.11 3.68996 300.57C3.20996 300.41 2.75996 300.07 2.30996 300.08C-1.29004 300.17 -2.96004 298.55 -5.15004 297.37C-6.55004 296.61 -7.88004 295.49 -9.53004 295.29C-12.25 294.97 -13.71 293.89 -15.67 293.04C-19.1 291.56 -20.92 289.37 -23.47 287.51C-25.24 286.21 -25.15 286.16 -28.17 286.29C-29.69 286.35 -30.75 286.12 -31.42 285.23C-31.91 284.58 -33 284.41 -34.14 284.86C-34.6 285.04 -35 285.28 -35.46 285.46C-38.62 286.73 -40.24 286.66 -42.62 285.17C-43 284.94 -43.55 284.73 -43.7 284.45C-44.45 282.99 -46.04 282.43 -48.67 282.57C-50.32 282.66 -51.92 282.36 -53.47 281.93C-54.39 281.68 -55.95 281.47 -56.59 281.75C-58.47 282.57 -59.37 281.83 -60.82 281.37C-63.91 280.38 -67.2 279.6 -70.5 278.8L-73.04 368.1L1970.34 426.11L1976.86 196.44C1975.08 196.91 1973.25 197.16 1971.31 197C1970.73 196.95 1970.27 197.03 1969.8 197.11" fill="black"></path><path d="M378.76 316.53C378.41 316.56 377.97 316.47 377.71 316.64C375.02 318.45 372.11 319.75 369.13 321C366.62 322.06 364.1 323.21 361.87 324.86C360.54 325.84 359.04 326.54 357.49 327.18C355.4 328.05 353.45 329.25 351.35 330.12C349.59 330.85 347.93 331.74 346.3 332.7C344.66 333.66 342.78 334.2 341.3 335.48C340.49 336.18 339.34 336.16 338.4 336.78C336.94 337.75 335.06 338.09 333.6 339.07C332.19 340.01 330.77 340.75 329.17 341.29C328.06 341.67 327.05 342.37 326.01 342.96C325.6 343.2 325.27 343.6 324.84 343.79C323.21 344.52 321.53 345.13 319.93 345.91C318.44 346.63 317.08 347.62 315.58 348.31C313.75 349.15 311.73 349.49 309.9 350.35C309.58 350.5 309.18 350.5 308.9 350.69C307.09 351.89 305.06 351.92 303.02 351.83C301.62 351.77 300.49 351.23 299.87 349.87C299.72 349.54 299.58 349.21 299.39 348.91C298.02 346.71 298.93 344.71 300.17 342.95C301.19 341.5 302.61 340.34 303.58 338.8C304.01 338.11 304.68 337.49 305.38 337.07C306.63 336.31 307.78 335.52 308.36 334.09C308.48 333.79 308.8 333.49 309.1 333.34C310.96 332.38 312.25 330.79 313.67 329.33C314.25 328.73 314.82 328.05 315.54 327.65C316.83 326.92 317.74 325.81 318.8 324.85C322.45 321.58 326.15 318.36 329.71 315C330.73 314.03 331.78 313.11 332.83 312.17C334.62 310.57 336.66 309.34 338.48 307.81C339.3 307.12 340.11 306.39 340.83 305.6C341.11 305.29 341.14 304.74 341.29 304.3C342.29 304.4 342.96 303.67 343.74 303.27C344 303.14 343.98 302.48 344.09 302.06C344.3 301.96 344.84 302.11 344.48 301.56C344.37 301.74 344.26 301.93 344.15 302.11C343.53 302.39 342.87 302.61 342.32 302.98C341.87 303.28 341.56 303.77 341.18 304.18C339.51 304.09 338.19 304.89 336.99 305.92C336.35 306.47 335.77 307 334.86 307.17C334.33 307.27 333.83 307.73 333.38 308.11C332.74 308.66 332.12 309.13 331.24 309.34C330.08 309.61 329.03 310.23 328.2 311.15C327.89 311.5 327.46 311.88 327.04 311.97C325.06 312.35 323.63 313.62 322.14 314.82C320.84 315.88 319.25 316.44 317.78 317.21C315.46 318.43 313.41 320.12 310.96 321.13C310.52 321.31 310.07 321.53 309.71 321.84C307.13 324.01 304.14 325.51 301.21 327.12C300.69 327.41 300.19 327.73 299.68 328.04C298.27 328.9 297.05 330.02 295.37 330.49C294.38 330.76 293.49 331.52 292.66 332.19C290.42 334 287.82 335.23 285.39 336.73C283.78 337.72 282.16 338.67 280.42 339.45C278.58 340.29 276.88 341.43 275.09 342.38C273.4 343.28 271.67 344.1 269.96 344.95C268.36 345.74 266.74 346.47 265.04 347.07C263.72 347.53 262.46 347.52 261.15 347.44C260.24 347.39 259.5 346.13 259.83 345.25C260.21 344.24 260.67 343.26 261.48 342.5C262.61 341.44 263.54 340.14 265.03 339.51C267.87 336.55 271.59 334.75 274.79 332.25C277.41 330.21 280.2 328.37 282.86 326.35C284.27 325.28 285.93 324.53 287.46 323.61C289.2 322.57 291 321.62 292.52 320.23C292.79 319.99 293.04 319.7 293.36 319.56C296 318.4 298.28 316.62 300.76 315.19C302.83 314 304.91 312.84 306.96 311.6C307.47 311.29 308.05 311.06 308.47 310.66C309.44 309.73 310.58 309.13 311.77 308.53C313.46 307.67 315.3 307.01 316.6 305.5C316.89 305.16 317.4 304.96 317.84 304.81C321.38 303.6 324.3 301.27 327.51 299.47C331.57 297.2 335.55 294.8 339.7 292.69C343.63 290.7 347.44 288.47 351.17 286.1C353.28 284.75 355.52 283.59 357.68 282.32C359.63 281.17 361.57 279.99 363.5 278.82C363.7 278.7 363.88 278.48 364.1 278.43C366.96 277.73 369.17 275.85 371.58 274.34C371.78 274.21 372 274.1 372.22 274.01C374.57 273.12 376.77 272.02 378.75 270.42C380.17 269.27 381.9 269.5 383.57 269.89C384.26 270.05 384.94 270.29 385.61 270.51C387.01 270.96 387.74 272.05 388.02 273.37C388.41 275.21 388.07 276.97 386.78 278.41C386.15 279.12 385.37 279.71 384.64 280.32C384.37 280.55 383.9 280.64 383.76 280.91C382.98 282.49 381.46 283.27 380.19 284.33C377.81 286.31 375.51 288.39 372.96 290.16C371.69 291.05 370.66 292.22 369.4 293.16C367.11 294.88 365.22 297.15 362.86 298.73C359.95 300.68 358.02 303.74 354.9 305.38C354.59 305.54 354.37 305.86 354.11 306.11C353.16 307.03 352.16 307.9 351.29 308.89C350.51 309.78 349.42 310.24 348.69 311.3C348 312.31 346.47 312.7 345.56 313.62C343.55 315.65 341.25 317.35 339.31 319.44C337.93 320.93 336.43 322.27 334.76 323.47C333.22 324.57 332.01 326.13 330.66 327.49C330.6 327.55 330.6 327.76 330.62 327.77C330.83 327.86 331.04 327.93 331.26 327.97C331.36 327.99 331.48 327.91 331.59 327.86C334.41 326.29 337.23 324.71 340.04 323.14C340.45 322.91 340.81 322.51 341.25 322.4C343.49 321.88 345.39 320.68 347.36 319.57C349.02 318.64 350.85 318.03 352.58 317.22C355.17 316.01 357.91 315.09 360.17 313.24C360.53 312.94 360.98 312.73 361.42 312.53C362.72 311.93 364 311.24 365.35 310.78C366.63 310.35 367.49 309.26 368.75 308.85C371.26 308.04 373.36 306.33 375.78 305.41C377.91 304.6 379.92 303.59 381.97 302.63C383.04 302.12 383.94 301.11 385.05 300.84C386.33 300.53 387.07 299.62 388.06 299C389.27 298.25 390.58 297.65 391.9 297.11C394.33 296.11 396.76 295.15 398.75 293.33C399.35 292.78 400.18 292.48 400.91 292.07C402.37 291.26 403.83 290.45 405.29 289.64C405.5 289.52 405.67 289.31 405.89 289.25C409.22 288.41 411.73 286.09 414.61 284.46C415.44 283.99 416.18 283.37 417.02 282.94C418.63 282.13 420.1 281.21 421.48 280C422.9 278.76 424.64 277.88 426.29 276.93C427.87 276.03 429.52 276.7 431.05 277.11C432.42 277.47 433.71 278.2 434.25 279.75C434.68 280.98 435.59 281.99 435.71 283.38C435.93 285.92 434.52 287.69 432.93 289.3C432.02 290.22 430.93 291.16 429.74 291.57C428.11 292.13 426.83 293.17 425.35 293.93C423.14 295.07 420.69 295.71 418.65 297.22C418.28 297.49 417.76 297.55 417.33 297.74C416.02 298.32 414.61 298.76 413.46 299.56C412.16 300.47 410.94 301.33 409.28 301.4C408.85 301.42 408.4 301.73 408.02 301.99C406.13 303.24 404.24 304.49 402.18 305.47C401.01 306.03 399.9 306.77 398.87 307.58C396.99 309.05 395.19 310.64 393.35 312.17C392.71 312.7 392.03 313.19 391.39 313.72C388.26 316.31 384.84 318.55 382.02 321.51C381.91 321.63 381.86 321.99 381.93 322.05C382.09 322.19 382.36 322.28 382.57 322.26C382.91 322.22 383.31 322.15 383.57 321.95C386.06 319.99 389.12 319.24 391.94 317.97C392.26 317.82 392.71 317.84 392.93 317.62C395.09 315.43 398.4 315.23 400.6 313.15C403.02 312.7 404.88 311.13 406.99 310.04C408.04 309.5 409.14 308.94 410.28 308.7C411.61 308.41 412.78 307.83 413.89 307.17C415.43 306.26 417.06 305.59 418.68 304.87C419.98 304.3 421.28 303.77 422.51 302.98C423.78 302.17 425.2 301.53 426.8 301.27C428.31 301.03 429.67 300.15 430.95 299.25C431.73 298.71 432.56 298.1 433.45 297.89C436.14 297.25 438.55 295.91 440.98 294.74C443.54 293.51 446.24 292.54 448.64 290.98C449.64 290.33 450.76 289.96 451.92 289.62C453.15 289.25 454.35 288.79 455.44 287.96C456.34 287.27 457.61 287.04 458.73 286.68C459.24 286.52 459.89 286.68 460.32 286.44C462.08 285.41 464.05 284.89 465.85 283.95C468.04 282.81 470.13 281.46 472.55 280.75C474.03 280.32 475.41 279.59 476.83 278.98C478.14 278.42 479.35 277.69 480.78 277.35C482.64 276.9 484.22 275.83 485.8 274.77C486.99 273.98 488.22 273.15 489.55 272.71C490.93 272.26 492.22 271.68 493.48 271.02C495.7 269.86 498.01 268.89 500.35 268C501.67 267.49 502.89 266.83 504.08 265.99C505.5 264.99 507.26 264.4 508.94 263.85C512.94 262.55 516.65 260.71 520.18 258.45C520.97 257.95 521.92 257.69 522.79 257.32C524.42 256.62 526.21 256.29 527.73 255.3C528.03 255.11 528.41 255.04 528.7 254.85C529.71 254.2 531.03 254.66 532.05 253.74C532.8 253.06 533.93 252.77 534.94 252.43C536.06 252.05 537.24 251.88 538.36 251.5C539.6 251.08 540.82 250.59 541.99 250C544.15 248.9 546.24 248.1 548.34 248.04C549.48 248.01 550.44 247.62 551.41 247.18C553.03 246.46 554.49 245.43 556.31 245.06C557.92 244.73 559.41 243.89 561 243.41C562.6 242.92 564.1 242.21 565.63 241.55C566.83 241.03 568.03 240.35 569.29 240.19C570.79 240 571.97 239.22 573.3 238.73C574.53 238.28 575.78 237.91 577.03 237.53C577.6 237.36 578.18 237.2 578.76 237.13C580.78 236.92 582.19 237.65 583 239.64C583.4 240.61 583.52 241.37 583.09 242.35C582.05 244.75 580.52 246.6 578.17 247.84C576.7 248.61 575.37 249.65 574.03 250.64C573.44 251.07 572.89 251.45 572.14 251.58C571.57 251.68 571.03 252 570.5 252.27C568.7 253.21 566.89 254.13 565.12 255.13C563.47 256.07 561.56 256.46 560.08 257.78C559.49 258.3 558.58 258.46 557.8 258.77C556.02 259.48 554.22 260.13 552.87 261.6C552.12 262.42 551.08 262.76 550.04 263.08C547.96 263.71 546.06 264.71 544.27 265.91C542.87 266.84 541.38 267.55 539.82 268.17C538.38 268.73 536.97 269.41 535.66 270.21C533.82 271.33 532.08 272.59 529.76 272.49C529.22 272.47 528.67 272.92 528.11 273.12C527.33 273.4 526.55 273.75 525.75 273.87C524.99 273.98 524.39 274.26 523.87 274.79C522.75 275.93 521.47 276.72 519.8 276.85C519.12 276.91 518.43 277.24 517.8 277.56C514.08 279.47 510.21 281 506.22 282.23C504.94 282.63 503.88 283.35 502.72 283.92C501.55 284.5 500.3 284.9 499.1 285.44C497.58 286.12 496.06 286.8 494.35 286.83C493.48 286.84 492.67 287.1 492 287.6C490.06 289.05 487.7 289.57 485.55 290.54C483.27 291.57 481.03 292.72 478.76 293.78C477.79 294.23 476.78 294.58 475.78 294.96C473.89 295.68 472.03 296.47 470.2 297.35C467.96 298.42 465.68 299.47 463.19 299.91C462.62 300.01 462 300.24 461.56 300.6C459.76 302.06 457.58 302.73 455.49 303.58C452.96 304.61 450.45 305.69 447.92 306.72C446.71 307.22 445.48 307.67 444.26 308.14C443.27 308.53 442.19 308.68 441.38 309.51C440.98 309.92 440.38 310.2 439.81 310.36C437.6 310.99 435.6 312 433.73 313.35C432.98 313.89 432.03 314.12 431.07 314.34C429.24 314.76 427.34 315.15 425.83 316.47C425.49 316.77 425.01 316.93 424.58 317.13C423.06 317.83 421.54 318.51 420.03 319.2C419.59 319.4 419.18 319.8 418.74 319.81C416.7 319.87 415.25 321.22 413.56 322.03C412.06 322.75 410.44 323.28 409.01 324.05C407.63 324.8 406.23 325.35 404.78 325.84C404.67 325.88 404.5 325.84 404.43 325.92C402.52 327.77 399.92 327.93 397.58 328.74C396.91 328.98 396.26 329.28 395.6 329.57C393.31 330.58 391.03 331.61 388.73 332.61C388.3 332.8 387.83 332.92 387.37 333.01C385.61 333.36 383.95 333.98 382.33 334.76C380.4 335.69 378.46 336.59 376.24 336.67C375.44 336.7 374.61 337.03 373.86 337.37C371.57 338.4 369.17 338.23 366.79 337.98C365.89 337.89 364.96 337.41 364.19 336.9C363.28 336.29 362.71 335.39 362.74 334.16C362.77 332.93 362.99 331.88 363.76 330.82C364.97 329.15 366.19 327.58 367.97 326.49C368.27 326.31 368.56 326.08 368.82 325.83C371.64 323.05 374.51 320.33 377.59 317.84C378.03 317.49 378.27 316.9 378.61 316.43C378.79 316.3 379.39 316.46 378.96 315.92C378.86 316.1 378.75 316.29 378.65 316.47" fill="#FF7F4D"></path></g></svg>