<svg xmlns:xlink="http://www.w3.org/1999/xlink" xmlns="http://www.w3.org/2000/svg" width="1920" viewBox="0 0 1920 257" fill="none" class="rr-sumate_deco" height="257"><path d="M2035.49 0.776489L2037.55 49.6065C2037.33 49.5665 2037.13 49.5465 2036.98 49.5765C2035.15 50.0665 2033.27 49.7165 2031.43 49.8965C2027.33 50.2965 2023.24 51.0665 2018.89 50.4065C2017.18 50.1465 2014.89 50.1965 2012.98 50.8865C2011.17 51.5365 2009.03 51.3865 2007.01 51.4465C2004.53 51.5265 2002.64 51.4465 2002.23 49.5765C2002.02 48.6365 1999.91 47.8465 1998.66 46.9865C1996.5 45.5265 1993.73 45.4965 1990.81 46.1565C1988.92 46.5765 1987.17 47.1965 1985.27 47.6165C1984.04 47.8865 1982.65 47.7465 1981.42 47.3365L1981.99 61.1265C1981.77 61.0865 1981.57 61.0665 1981.44 61.1065C1979.6 61.5965 1977.73 61.2465 1975.88 61.4265C1971.78 61.8265 1967.69 62.5965 1963.35 61.9365C1961.63 61.6765 1959.34 61.7265 1957.44 62.4065C1955.62 63.0565 1953.49 62.9065 1951.46 62.9665C1948.99 63.0465 1947.1 62.9665 1946.68 61.1065C1946.47 60.1665 1944.37 59.3765 1943.11 58.5165C1940.95 57.0565 1938.18 57.0265 1935.26 57.6865C1933.37 58.1065 1931.62 58.7265 1929.73 59.1465C1927.83 59.5665 1925.53 59.0765 1924.07 57.9965C1923.18 57.3365 1922.24 56.6465 1920.74 56.6165C1917.79 56.5465 1916.09 55.5065 1914.3 54.4565C1912.53 53.4165 1910.7 52.3965 1908.87 51.3865C1908 50.9065 1906.88 50.6565 1905.77 51.0665C1904.67 51.4765 1903.84 51.6565 1902.83 51.0265C1900.89 49.8165 1898.39 49.2465 1895.6 48.6765C1892.44 48.0365 1889.39 47.9665 1886.24 48.0865C1883.54 48.1965 1881.89 47.6965 1880.68 46.4065C1879.72 45.3765 1877.88 44.9465 1876.52 45.4565C1874.41 46.2365 1872.22 46.5665 1869.87 46.3765C1866.75 46.1265 1865.68 48.0965 1862.99 48.2465C1861.82 48.3165 1860.12 48.4365 1860.05 47.7565C1859.9 45.7965 1858 45.3165 1854.95 45.4265C1854.44 45.4465 1853.5 45.2865 1853.46 45.1465C1852.88 43.1665 1848.23 44.1665 1847.08 42.3865C1846.5 41.5065 1844.48 43.0065 1843.35 42.5465C1841.03 41.5965 1838.49 41.6865 1835.85 41.8165C1834.46 41.8865 1833.95 41.3165 1833.51 40.6865C1833.11 40.1265 1832.37 40.3065 1831.49 40.4365C1829.96 40.6565 1828.36 40.2065 1826.75 40.7965C1825.89 41.1165 1824.22 41.2665 1823.51 40.6765C1821.23 38.8165 1816.52 39.3865 1814.09 37.7065C1813.34 37.1965 1812.56 37.8165 1811.8 37.9665C1810.02 38.3065 1808.38 38.4265 1807.38 37.2965C1807.01 36.8765 1806.68 36.4765 1805.54 36.8665C1803.6 37.5365 1801.05 37.2765 1799.22 38.3865C1796.97 39.7465 1793.88 39.4265 1791 39.1765C1789.69 39.0565 1790.24 37.4365 1788.05 37.9965C1786.32 38.4365 1785.55 37.4565 1784.21 37.2865C1783.67 37.2165 1783.21 36.5665 1783.05 36.1365C1782.72 35.2465 1782.01 34.6565 1780.26 34.6765C1776.5 34.7265 1772.7 34.3465 1769.05 35.1965C1768.01 35.4365 1767.7 35.2065 1767.12 34.8165C1766.09 34.1165 1764.6 33.5865 1763.73 32.8365C1763.02 32.2265 1762.17 31.8065 1761.02 31.8965C1757.93 32.1465 1755.03 31.2365 1751.94 31.6565C1751.49 31.7165 1750.54 31.3065 1750.46 31.3765C1748.13 33.1265 1745.3 33.0665 1742.2 32.2765C1742.03 32.2365 1741.68 32.3765 1741.45 32.4665C1739.56 33.1965 1737.65 33.1865 1735.68 32.6465C1733.17 31.9565 1730.76 32.0965 1728.27 32.9065C1726.01 33.6465 1723.63 34.3865 1720.87 34.1665C1718.1 33.9465 1716.04 35.3465 1713.35 35.2165C1712.78 35.1865 1712.14 35.1665 1711.69 35.0065C1710.53 34.5865 1709.5 34.6365 1708.79 35.2965C1707.14 36.7965 1703.81 35.9765 1701.79 36.9765C1701.62 37.0565 1700.79 36.8265 1700.41 36.6565C1699.51 36.2565 1698.68 35.8165 1697.87 35.3565C1694.82 33.6265 1690.43 33.9365 1686.73 33.2065C1684.8 32.8265 1683.26 33.4865 1682.05 33.9865C1680.01 34.8265 1678.85 33.5465 1677.26 33.7465C1675.6 33.9465 1673.97 34.2965 1672.31 34.5465C1672.1 34.5765 1671.76 34.4565 1671.56 34.3565C1669.88 33.5565 1668.21 32.4565 1666.59 34.4665C1666.5 34.5765 1666.12 34.6365 1665.86 34.6865C1663.66 35.1265 1661.53 33.7165 1659.29 34.6865C1659.11 34.7665 1658.66 34.7565 1658.44 34.6865C1657.47 34.3765 1656.47 34.0565 1655.58 33.6765C1653.76 32.9065 1651.92 32.8265 1649.98 33.5765C1649.74 33.6665 1649.49 33.7665 1649.29 33.8865C1647.51 34.9765 1645.56 35.4265 1643.12 34.6065C1642.72 34.4665 1642 34.3865 1641.62 34.4865C1638.01 35.5265 1634.2 35.0965 1630.46 35.1465C1628.72 35.1765 1626.67 34.9365 1625.31 35.3665C1621.43 36.6065 1617.3 35.9565 1613.36 36.3765C1611.08 36.6165 1609.65 35.4365 1607.68 35.5365C1605.43 35.6565 1603.24 36.1665 1601 36.3465C1599.93 36.4365 1598.56 36.3265 1597.72 36.0065C1595.74 35.2465 1594.51 35.8865 1593.19 36.5565C1591.83 37.2465 1590.63 37.6265 1588.59 37.1065C1585 36.1965 1581.43 36.2565 1578.22 38.0165C1577.05 38.6565 1575.23 39.1565 1573.65 39.2365C1572.52 39.2865 1571.58 38.9165 1571.15 39.8265C1570.95 40.2665 1570.28 40.3865 1570.11 40.1165C1569.76 39.5165 1569.33 39.2165 1568.86 39.0665C1568.59 39.1065 1568.36 39.1265 1568.18 39.0765C1567.97 39.0265 1567.78 39.0065 1567.58 38.9765C1566.74 39.0765 1565.8 39.3865 1564.77 39.5765C1564.55 39.6165 1564.32 39.6665 1564.09 39.7065C1563.71 39.8765 1563.31 39.9565 1562.9 39.9265C1561.91 40.1065 1560.87 40.2165 1559.8 40.2465C1555.82 41.7465 1551.13 42.7765 1548.8 45.4165C1548.31 45.9565 1547.1 46.3065 1546.26 46.7665C1545.19 47.3565 1544.47 48.0165 1544.19 48.8665C1543.1 52.1565 1538.98 54.2665 1534.32 56.0465C1532.57 56.7165 1531.07 57.3265 1530.1 58.4065C1528.77 59.8965 1526.41 60.3865 1523.53 60.2565C1522.09 60.1865 1520.57 60.3965 1519.18 60.2565C1516.28 59.9465 1514.24 61.0565 1511.83 61.5265C1510.83 63.4065 1508.01 63.1165 1505.46 63.3265C1503.79 63.4565 1502.2 63.9565 1500.57 64.2865C1499.52 64.4965 1498.27 65.0065 1497.45 64.8565C1493.37 64.0965 1490.66 65.2965 1488.66 66.9265C1487.52 67.8565 1486.52 68.2865 1484.56 68.3265C1482.3 68.3665 1479.94 68.0665 1477.82 68.9465C1476.63 69.4465 1475.37 69.8765 1474.1 70.3065C1473.01 71.2265 1471.46 71.6865 1469.57 71.7765C1465.78 72.9365 1462.01 74.0965 1458.75 75.7265C1457.57 76.3165 1456.78 75.8565 1455.73 75.6865C1455.06 75.5765 1453.82 75.7265 1453.38 76.0165C1450.35 77.9565 1446.03 78.5165 1442.15 79.5665C1440.25 80.0865 1438.46 80.5565 1436.38 80.4965C1433.85 80.4265 1431.91 81.0165 1430.22 82.0365C1429.31 82.5965 1428.15 82.5565 1427.11 82.1365C1425.97 81.6665 1424.91 81.1265 1423.76 80.6665C1423.45 80.5465 1423.12 80.4465 1422.8 80.3365C1422.62 80.3965 1422.44 80.4165 1422.27 80.4865C1416.22 83.0165 1408.88 84.4065 1403.2 87.2565C1402.02 87.8465 1401.23 87.3965 1400.19 87.2165C1399.51 87.0965 1398.28 87.2565 1397.84 87.5365C1394.81 89.4865 1390.49 90.0265 1386.6 91.0865C1384.71 91.6065 1382.91 92.0765 1380.84 92.0165C1378.3 91.9465 1376.36 92.5365 1374.68 93.5665C1373.76 94.1165 1372.6 94.0865 1371.56 93.6665C1370.42 93.1965 1369.36 92.6565 1368.21 92.1965C1367.07 91.7365 1365.69 91.4065 1364.69 90.8765C1363.39 90.1865 1362.17 91.2465 1360.78 90.7765C1357.71 89.7365 1357.61 89.7965 1355.75 90.2865C1353.83 90.7865 1353.29 90.8165 1350.66 89.9965C1349.41 89.6065 1348.43 90.3165 1347.55 90.0665C1346.3 89.7065 1345.33 89.0165 1344.05 88.7065C1343.07 88.4665 1341.45 88.2965 1340.69 88.5765C1337.73 89.6665 1334.91 88.8665 1332.57 88.3465C1329.51 87.6565 1327.16 87.5265 1324.57 88.7865C1323.74 89.1865 1322.57 89.6165 1321.56 89.6265C1317.55 89.6565 1313.43 90.1965 1309.58 89.1165C1307.98 88.6665 1305.9 88.5865 1304.52 89.0765C1300.61 90.4665 1296.7 90.0865 1292.82 89.5165C1291.56 89.3265 1289.21 90.3565 1288.98 88.7065C1285.84 87.6165 1282.72 86.5165 1279.59 85.4265C1276.24 85.6065 1274.33 84.3865 1272.35 83.2265C1271.51 82.7365 1270.49 82.5065 1269.28 82.4965C1268.7 82.4965 1268.09 82.5165 1267.54 82.4265C1265.07 82.0665 1262.19 81.9965 1260.27 81.2165C1257.8 80.2065 1255.15 82.1265 1253.1 80.8065C1251.32 80.8365 1249.68 80.1765 1248.21 80.1865C1246.89 80.2065 1245.57 81.3465 1244.22 81.9665C1243.83 82.1365 1242.9 82.3265 1242.89 82.3165C1240.1 79.3565 1238.7 83.3765 1236.42 82.7965C1236.19 82.7365 1235.84 82.8265 1235.56 82.8165C1233.89 82.7465 1231.95 82.9765 1231.49 81.6265C1231.35 81.2065 1230.75 81.1265 1230.2 81.3865C1228.42 82.2465 1226.48 82.7565 1224.12 83.1265C1222.12 83.4365 1221.01 83.5165 1219.72 82.7065C1219.4 82.5065 1218.55 82.2665 1218.33 82.3565C1216.15 83.2165 1213.23 82.8965 1211.14 84.0365C1209.6 84.8765 1208.45 84.7565 1207.97 83.8965C1207.04 82.2465 1204.65 81.3365 1202.75 80.1765C1201.33 79.3165 1200.44 79.6165 1199.89 80.6365C1199.8 80.7765 1199.55 80.8965 1199.38 81.0265C1197.16 79.7565 1193.58 80.8965 1191.3 79.7065C1189.43 78.7265 1187.68 77.6565 1185.21 77.1165C1183.53 74.6965 1180.63 74.0665 1176.39 75.3565C1176.24 75.3965 1175.86 75.2365 1175.63 75.1565C1173.23 74.2865 1171.22 74.7365 1169.45 75.8165C1167.82 76.8065 1165.62 76.8265 1163.75 76.5565C1161.03 76.1765 1157.89 75.8265 1156.78 74.1165C1155.76 72.5365 1152.17 72.8065 1151.05 71.4065C1148.9 71.3165 1147.33 72.1265 1145.68 72.6665C1142.93 73.5665 1140.18 71.9765 1137.49 72.9165C1137.25 72.9965 1136.33 72.7365 1136.15 72.5265C1135.58 71.8165 1135.38 70.9865 1134.67 70.3265C1133.94 69.6565 1132.88 69.0665 1131.83 68.5365C1130.33 67.7965 1132.2 66.7765 1130.99 65.9265C1130.12 65.3165 1129.67 64.5965 1128.15 64.2965C1124.4 63.5565 1123.71 61.0665 1120.45 60.0265C1120.61 57.5665 1117.06 56.9365 1114.04 56.0765C1113.59 55.9465 1112.57 55.9065 1112.42 56.0365C1110.54 57.6265 1108.16 56.0365 1106.27 56.4665C1104.88 56.7765 1104.21 56.3565 1103.2 56.1665C1101.63 55.8665 1100.64 56.8165 1099.23 56.8765C1098.73 56.8965 1098.08 56.7765 1097.7 56.5965C1096.5 56.0165 1095.1 56.0265 1093.62 56.0265C1092.8 56.0265 1091.58 56.0065 1091.22 55.7165C1088.41 53.4865 1083.63 53.0465 1079.71 51.8365C1077.43 51.1365 1075.2 50.5465 1074.3 48.9865C1073.75 48.0365 1071.91 47.7665 1070.27 47.3765C1068.8 47.0265 1067.1 46.7765 1066.1 45.8565C1063.45 43.4165 1060.3 41.1465 1057.94 38.6265C1056.79 37.3965 1055.4 37.0565 1053.29 37.0565C1052.09 37.0565 1051.11 36.8965 1050.1 36.4965C1045.71 34.7865 1041.66 32.7265 1036 32.2465C1035.23 32.1765 1034.52 31.7765 1033.89 31.4665C1032.2 30.6165 1030.77 29.5865 1028.46 29.1965C1027.39 27.3165 1024.44 27.6465 1021.97 27.7265C1020.33 27.7765 1018.72 28.3265 1017.07 28.5865C1015.94 28.7565 1014.76 28.8265 1013.86 28.2965C1012.67 27.5865 1011.25 27.1065 1009.71 26.6365C1008.34 26.2165 1007.94 25.2165 1006.11 24.7665C1001.73 23.6665 997.625 22.2565 994.103 20.3565C992.06 19.2565 989.398 18.5265 986.411 18.4365C984.629 18.3765 983.099 18.1765 981.569 17.6165C980.196 17.1065 978.467 16.7065 976.821 16.6465C974.861 16.5665 973.625 16.0965 972.399 15.3865C970.816 14.4565 969.15 13.5765 967.504 12.6865C962.861 10.1765 962.83 10.2465 956.552 9.45648C955.211 9.28648 954.498 9.56648 953.482 9.76648C951.815 10.0965 950.086 10.1065 948.357 9.86649C940.486 8.76649 938.662 8.80648 930.718 10.0665C928.727 10.3865 926.673 10.5265 924.849 9.84648C923.56 9.36648 921.978 9.08648 920.772 9.51648C918.069 10.4965 915.197 10.3865 912.304 10.3965C910.764 10.3965 909.433 10.7065 908.374 11.3165C907.242 11.9765 906.32 12.0265 904.664 11.6965C901.929 11.1465 898.795 10.2565 896.133 12.1065C895.997 12.2065 895.022 11.8465 894.624 11.9365C891.669 12.6665 888.577 10.8765 885.59 12.1765C885.485 12.2265 883.798 11.0265 883.567 11.1065C881.429 11.8065 879.742 11.2665 877.834 10.8765C876.902 10.6865 875.487 10.8465 874.533 11.1265C873.066 11.5565 872.699 11.2265 872.102 10.5765C869.555 7.74648 781.415 24.0765 774.729 25.1265C733.321 31.6265 694.24 67.7065 649.772 63.5165C646.303 63.1865 643.462 64.0765 640.937 65.1865C638.83 66.1165 636.587 66.8665 634.177 67.4265C631.693 68.0065 630.173 69.2565 627.7 69.9065C625.363 70.5265 624 70.4465 622.407 69.5165C621.883 69.2165 621.244 68.7365 620.269 69.0765C617.827 69.9165 615.008 70.2965 612.839 71.5265C609.747 73.2665 605.125 73.9865 601.918 73.5865C594.959 72.7165 594.31 72.7565 587.812 74.4465C587.298 74.5865 586.701 74.6265 586.166 74.7465C581.073 75.8665 575.759 76.8065 571.148 78.4465C568.79 79.2865 566.715 79.8665 563.979 79.9065C560.353 79.9665 555.595 80.9165 551.969 82.1865C551.214 82.4565 550.648 82.7265 549.779 82.3365C548.542 81.7865 546.865 81.7465 545.681 82.1365C542.034 83.3465 538.628 83.1165 534.896 82.3865C532.507 81.9165 529.803 81.8565 527.288 82.6165C526.544 82.8465 525.642 83.0365 524.814 83.0365C524.332 83.0365 523.861 83.0665 523.379 83.0765C523.232 83.2065 523.064 83.3065 522.917 83.4465C521.146 85.1065 518.851 86.4365 514.994 86.8465C512.227 87.1365 509.827 87.9865 508.234 89.5965C506.568 91.2865 502.973 92.2165 501.59 94.1165C501.412 94.3565 500.689 94.6365 500.227 94.6365C497.523 94.6365 495.061 96.5965 492.084 95.0365C491.634 94.7965 490.397 95.0865 489.936 95.5765C488.395 97.2165 486.498 98.4365 482.872 98.8765C479.969 99.2265 477.621 100.546 477.422 102.306C477.244 103.896 476.039 104.946 474.131 106.086C471.385 107.726 469.866 109.996 465.81 110.966C463.158 113.966 457.635 115.626 454.47 118.396C454.03 118.776 453.349 119.326 452.741 119.356C450.278 119.456 449.461 120.436 448.35 121.396C447.773 121.896 446.547 122.176 445.572 122.516C441.841 123.796 437.827 123.976 433.887 123.206C430.439 122.536 427.399 122.606 423.889 123.406C421.237 124.006 418.502 124.516 415.903 125.236C414.896 125.516 413.681 125.686 412.57 125.666C411.532 125.646 410.306 125.026 409.531 125.196C408.273 125.476 407.099 125.776 405.747 125.766C403.347 127.096 400.738 128.336 398.903 129.936C398.463 130.316 397.782 130.866 397.174 130.896C394.711 130.996 393.894 131.976 392.783 132.946C392.207 133.446 390.98 133.726 390.006 134.056C386.275 135.326 382.261 135.516 378.32 134.746C374.862 134.076 371.822 134.146 368.322 134.946C365.67 135.546 362.935 136.056 360.346 136.776C359.34 137.056 358.124 137.226 357.013 137.206C355.965 137.196 354.75 136.566 353.974 136.736C352.622 137.036 351.375 137.396 349.897 137.326C347.854 135.666 347.791 135.656 345.003 136.406C343.682 136.757 341.953 136.776 339.606 136.536C338.484 136.426 337.31 136.456 336.158 136.446C335.131 136.446 334.565 136.106 334.292 135.636C333.716 134.646 332.248 134.676 330.802 134.646C329.324 134.626 327.847 134.676 326.862 135.416C326.18 135.926 325.73 136.536 325.09 137.066C324.43 137.616 322.984 137.636 322.156 137.096C321.422 136.617 320.825 136.076 320.133 135.576C318.708 134.556 316.444 134.386 315.197 135.466C314.013 136.486 313.227 136.876 311.204 136.236C309.506 135.696 307.462 134.936 305.786 135.096C304.056 135.257 302.704 135.486 301.185 134.926C299.424 134.276 297.579 134.456 295.63 134.816C294.802 134.966 294.184 134.576 293.964 134.086C292.549 134.006 291.029 134.086 289.751 133.806C287.068 133.236 284.521 132.486 281.932 131.806C279.469 131.146 276.482 130.976 275.214 129.266C274.638 128.496 272.909 128.396 271.41 128.406C269.094 128.416 266.882 128.406 264.765 127.656C262.69 126.916 260.573 126.236 257.66 127.316C256.109 127.896 253.604 126.056 251.403 127.376C246.959 126.346 242.379 125.476 238.114 124.266C233.02 122.826 229.981 122.106 225.349 122.056C223.274 122.036 221.356 121.926 219.543 121.296C218.924 121.076 217.593 121.046 217.059 121.266C213.579 122.726 208.842 121.556 205.499 123.166C203.539 123.186 201.527 123.376 199.578 123.326C199.389 123.486 199.221 123.666 199.106 123.876C197.67 126.426 193.719 127.966 190.984 129.996C189.454 131.126 186.876 131.066 185.995 129.866C184.968 128.466 183.427 127.336 181.426 126.446C180 125.806 178.764 125.096 177.59 124.346C175.326 124.946 173.23 125.896 170.474 125.616C166.868 126.546 162.572 126.636 159.899 128.676C158.715 129.576 156.923 130.176 155.214 130.826C153.988 131.286 150.624 130.976 151.651 132.786C150.551 134.226 148.109 133.176 146.516 133.696C145.237 134.116 144.032 134.576 143.56 135.416C142.124 137.966 138.173 139.506 135.438 141.536C133.908 142.666 131.34 142.606 130.449 141.406C129.422 140.007 127.871 138.876 125.88 137.986C122.034 136.266 119.288 134.036 116.542 131.826C115.368 130.876 114.572 130.016 112.172 129.926C111.197 129.886 109.939 129.376 109.478 128.876C107.655 126.946 103.777 126.316 101.419 124.746C101.094 124.536 100.413 124.376 99.8886 124.376C97.017 124.346 94.1139 124.076 91.3471 124.896C89.5445 125.426 87.6056 125.836 85.8554 126.416C84.2414 126.946 82.9943 127.016 81.1183 126.636C79.0642 126.216 76.5069 126.196 74.3166 126.836C71.686 127.616 69.5061 125.966 66.9174 126.616C65.3559 127.016 63.7419 127.456 62.086 127.606C53.8275 128.386 51.6056 128.876 43.7349 132.026C43.1899 132.246 42.9279 132.426 42.2781 132.186C41.8065 132.016 41.2615 131.866 40.7166 131.806C38.2327 131.556 37.6353 131.846 36.8074 133.556C36.6397 133.906 36.8074 134.826 35.5288 134.196C33.2021 133.036 30.9594 132.276 27.8048 133.356C27.4904 133.466 26.5157 133.316 26.3585 133.146C25.1428 131.796 21.4222 133.006 20.3952 131.316C20.0598 130.756 18.1419 130.796 17.2406 131.116C14.2222 132.196 12.3463 131.196 10.9943 130.066C9.93578 129.176 9.11832 129.016 7.6301 129.576C6.80215 129.886 6.08949 129.846 5.3873 129.476C4.34975 128.926 3.29124 128.186 1.77158 128.316C-2.36816 128.676 -6.2878 126.896 -10.5952 128.266C-11.9472 128.696 -13.9804 128.586 -15.4162 127.776C-16.6214 127.096 -18.0048 126.456 -19.8808 126.446C-22.5952 126.436 -22.1655 124.736 -23.8948 124.216C-24.3978 124.066 -24.8799 123.726 -25.3516 123.736C-29.1245 123.866 -30.8957 122.266 -33.2013 121.106C-34.6791 120.366 -36.0834 119.256 -37.8127 119.076C-40.6633 118.776 -42.204 117.716 -44.2686 116.886C-47.8843 115.436 -49.8127 113.276 -52.4957 111.436C-54.3612 110.156 -54.2668 110.106 -57.4319 110.266C-59.0249 110.346 -60.1358 110.126 -60.8485 109.236C-61.362 108.586 -62.5149 108.436 -63.7096 108.896C-64.1917 109.076 -64.6005 109.316 -65.0826 109.506C-68.3839 110.806 -70.0817 110.756 -72.5865 109.286C-72.9847 109.056 -73.5716 108.856 -73.7289 108.576C-74.5358 107.126 -76.2022 106.576 -78.9585 106.746C-80.6878 106.856 -82.3647 106.566 -83.9891 106.156C-84.9533 105.916 -86.5987 105.726 -87.259 106.006C-89.2188 106.846 -90.1725 106.116 -91.6922 105.666C-94.9411 104.716 -98.3996 103.966 -101.858 103.196L-103.566 192.516L2038.47 229.866L2042.87 0.146484C2041.01 0.636484 2039.1 0.906485 2037.06 0.756485C2036.45 0.716485 2035.97 0.80648 2035.47 0.87648" fill="#00D989"></path><path d="M2018.14 27.5662L2019.68 76.4162C2019.46 76.3762 2019.26 76.3562 2019.11 76.3862C2017.28 76.8562 2015.4 76.4962 2013.55 76.6562C2009.45 77.0162 2005.34 77.7362 2001 77.0362C1999.29 76.7562 1997.01 76.7862 1995.09 77.4562C1993.28 78.0862 1991.14 77.9162 1989.12 77.9562C1986.65 78.0062 1984.76 77.9162 1984.36 76.0462C1984.16 75.1062 1982.07 74.2862 1980.82 73.4262C1978.68 71.9462 1975.91 71.8862 1972.98 72.5162C1971.08 72.9262 1969.33 73.5262 1967.43 73.9262C1966.2 74.1862 1964.81 74.0362 1963.58 73.6062L1964.01 87.4062C1963.79 87.3662 1963.59 87.3362 1963.44 87.3762C1961.61 87.8462 1959.73 87.4762 1957.88 87.6462C1953.78 88.0062 1949.67 88.7361 1945.34 88.0361C1943.63 87.7561 1941.34 87.7862 1939.43 88.4562C1937.62 89.0862 1935.48 88.9162 1933.46 88.9562C1930.98 89.0062 1929.09 88.9162 1928.7 87.0462C1928.5 86.0962 1926.4 85.2862 1925.16 84.4262C1923.02 82.9462 1920.25 82.8862 1917.32 83.5162C1915.42 83.9262 1913.66 84.5262 1911.77 84.9262C1909.88 85.3262 1907.58 84.8162 1906.12 83.7162C1905.24 83.0562 1904.32 82.3562 1902.81 82.2962C1899.86 82.1962 1898.17 81.1362 1896.39 80.0762C1894.63 79.0162 1892.81 77.9862 1890.99 76.9562C1890.12 76.4662 1889.01 76.2062 1887.89 76.6062C1886.78 77.0062 1885.95 77.1762 1884.95 76.5362C1883.03 75.3062 1880.53 74.7062 1877.75 74.1162C1874.6 73.4462 1871.55 73.3462 1868.41 73.4362C1865.7 73.5162 1864.06 73.0062 1862.86 71.6962C1861.92 70.6562 1860.07 70.2062 1858.71 70.6962C1856.59 71.4562 1854.4 71.7662 1852.06 71.5562C1848.93 71.2762 1847.84 73.2362 1845.16 73.3562C1844 73.4062 1842.29 73.5162 1842.24 72.8362C1842.1 70.8762 1840.21 70.3762 1837.16 70.4562C1836.65 70.4662 1835.72 70.3062 1835.68 70.1562C1835.12 68.1662 1830.46 69.1162 1829.32 67.3362C1828.76 66.4462 1826.73 67.9362 1825.59 67.4562C1823.29 66.4862 1820.75 66.5562 1818.11 66.6562C1816.72 66.7162 1816.2 66.1362 1815.77 65.5062C1815.39 64.9462 1814.64 65.1162 1813.76 65.2362C1812.23 65.4462 1810.63 64.9762 1809.01 65.5562C1808.14 65.8662 1806.48 65.9962 1805.78 65.4062C1803.52 63.5162 1798.8 64.0462 1796.38 62.3462C1795.64 61.8262 1794.85 62.4362 1794.1 62.5762C1792.32 62.9062 1790.67 62.9962 1789.69 61.8662C1789.32 61.4462 1789 61.0362 1787.85 61.4162C1785.89 62.0762 1783.36 61.7862 1781.52 62.8762C1779.26 64.2162 1776.17 63.8662 1773.29 63.5862C1771.98 63.4562 1772.54 61.8462 1770.35 62.3762C1768.62 62.7962 1767.86 61.8062 1766.52 61.6262C1765.98 61.5562 1765.53 60.8962 1765.37 60.4662C1765.05 59.5762 1764.34 58.9762 1762.59 58.9862C1758.84 58.9862 1755.03 58.5862 1751.38 59.3962C1750.34 59.6262 1750.03 59.3962 1749.45 58.9962C1748.43 58.2862 1746.95 57.7462 1746.08 56.9862C1745.37 56.3662 1744.53 55.9462 1743.39 56.0262C1740.29 56.2462 1737.4 55.3062 1734.3 55.6962C1733.85 55.7462 1732.91 55.3362 1732.82 55.3962C1730.47 57.1262 1727.64 57.0362 1724.55 56.2162C1724.4 56.1762 1724.03 56.3162 1723.79 56.3962C1721.89 57.1062 1719.99 57.0862 1718.02 56.5262C1715.52 55.8062 1713.11 55.9262 1710.61 56.7162C1708.34 57.4362 1705.95 58.1562 1703.2 57.9062C1700.43 57.6562 1698.36 59.0362 1695.67 58.8862C1695.1 58.8562 1694.45 58.8262 1694.01 58.6562C1692.86 58.2262 1691.83 58.2662 1691.11 58.9162C1689.44 60.3962 1686.12 59.5462 1684.1 60.5262C1683.93 60.6062 1683.1 60.3662 1682.71 60.1862C1681.82 59.7762 1681 59.3262 1680.2 58.8662C1677.17 57.1062 1672.78 57.3762 1669.09 56.6062C1667.17 56.2062 1665.61 56.8562 1664.41 57.3462C1662.36 58.1662 1661.2 56.8762 1659.62 57.0562C1657.94 57.2462 1656.31 57.5762 1654.66 57.8062C1654.45 57.8362 1654.11 57.7062 1653.92 57.6062C1652.24 56.7862 1650.58 55.6762 1648.94 57.6662C1648.84 57.7762 1648.47 57.8262 1648.2 57.8762C1646 58.2962 1643.89 56.8662 1641.63 57.8162C1641.45 57.8962 1641 57.8762 1640.78 57.8062C1639.81 57.4862 1638.82 57.1562 1637.93 56.7762C1636.12 55.9862 1634.29 55.8962 1632.34 56.6262C1632.09 56.7162 1631.84 56.8062 1631.64 56.9262C1629.85 57.9962 1627.89 58.4362 1625.46 57.5862C1625.06 57.4462 1624.34 57.3462 1623.96 57.4562C1620.34 58.4662 1616.53 57.9862 1612.79 58.0162C1611.05 58.0262 1609 57.7662 1607.63 58.1862C1603.73 59.3962 1599.62 58.6962 1595.67 59.0762C1593.38 59.2962 1591.97 58.0962 1589.98 58.1862C1587.74 58.2862 1585.55 58.7762 1583.3 58.9362C1582.23 59.0162 1580.86 58.8962 1580.02 58.5562C1578.05 57.7762 1576.81 58.4062 1575.48 59.0662C1574.11 59.7462 1572.91 60.1062 1570.88 59.5662C1567.29 58.6262 1563.73 58.6462 1560.49 60.3762C1559.33 61.0062 1557.5 61.4862 1555.9 61.5462C1554.78 61.5862 1553.85 61.2062 1553.41 62.1162C1553.2 62.5462 1552.53 62.6662 1552.37 62.3962C1552.01 61.7962 1551.6 61.4862 1551.13 61.3362C1550.87 61.3762 1550.64 61.3862 1550.45 61.3362C1550.24 61.2862 1550.05 61.2662 1549.86 61.2262C1549.02 61.3162 1548.07 61.6162 1547.05 61.7962C1546.83 61.8362 1546.6 61.8762 1546.37 61.9162C1545.99 62.0862 1545.59 62.1562 1545.17 62.1262C1544.16 62.2962 1543.13 62.3962 1542.06 62.4162C1538.05 63.8762 1533.37 64.8662 1531 67.4862C1530.51 68.0262 1529.29 68.3562 1528.45 68.8062C1527.39 69.3862 1526.65 70.0362 1526.36 70.8862C1525.23 74.1661 1521.1 76.2362 1516.41 77.9662C1514.65 78.6162 1513.14 79.2162 1512.17 80.2862C1510.82 81.7662 1508.46 82.2262 1505.58 82.0662C1504.14 81.9862 1502.61 82.1762 1501.23 82.0162C1498.32 81.6762 1496.29 82.7662 1493.86 83.2162C1492.83 85.0862 1490.02 84.7762 1487.47 84.9562C1485.79 85.0662 1484.2 85.5562 1482.56 85.8762C1481.51 86.0762 1480.26 86.5762 1479.44 86.4162C1475.36 85.6162 1472.65 86.7862 1470.62 88.4062C1469.47 89.3262 1468.48 89.7462 1466.52 89.7662C1464.25 89.7861 1461.89 89.4561 1459.77 90.3261C1458.57 90.8062 1457.3 91.2262 1456.04 91.6462C1454.94 92.5662 1453.38 93.0061 1451.49 93.0761C1447.69 94.1962 1443.9 95.3261 1440.64 96.9161C1439.46 97.4961 1438.67 97.0362 1437.62 96.8462C1436.95 96.7262 1435.71 96.8662 1435.27 97.1462C1432.22 99.0562 1427.9 99.5662 1424.01 100.586C1422.11 101.086 1420.31 101.536 1418.23 101.466C1415.7 101.376 1413.76 101.936 1412.06 102.946C1411.15 103.496 1409.97 103.446 1408.95 103.016C1407.8 102.536 1406.76 101.986 1405.6 101.506C1405.3 101.386 1404.98 101.276 1404.65 101.166C1404.47 101.226 1404.28 101.246 1404.11 101.316C1398.03 103.786 1390.68 105.106 1384.97 107.896C1383.78 108.476 1383 108.016 1381.95 107.826C1381.28 107.706 1380.04 107.846 1379.6 108.126C1376.55 110.046 1372.22 110.546 1368.34 111.576C1366.44 112.076 1364.64 112.536 1362.56 112.456C1360.03 112.366 1358.09 112.926 1356.39 113.946C1355.48 114.496 1354.3 114.446 1353.28 114.016C1352.13 113.536 1351.09 112.986 1349.93 112.506C1348.79 112.036 1347.43 111.696 1346.43 111.156C1345.14 110.446 1343.92 111.496 1342.53 111.016C1339.47 109.946 1339.38 110.006 1337.5 110.476C1335.57 110.956 1335.04 110.986 1332.41 110.136C1331.16 109.736 1330.19 110.436 1329.31 110.166C1328.05 109.796 1327.11 109.096 1325.83 108.766C1324.84 108.516 1323.23 108.336 1322.46 108.606C1319.5 109.666 1316.68 108.836 1314.34 108.296C1311.29 107.586 1308.94 107.426 1306.34 108.656C1305.51 109.056 1304.33 109.466 1303.33 109.466C1299.31 109.456 1295.18 109.956 1291.36 108.846C1289.75 108.376 1287.68 108.276 1286.3 108.756C1282.38 110.106 1278.47 109.696 1274.59 109.076C1273.33 108.876 1270.96 109.876 1270.75 108.226C1267.63 107.106 1264.52 105.986 1261.39 104.856C1258.05 105.006 1256.14 103.756 1254.17 102.586C1253.34 102.086 1252.33 101.846 1251.11 101.826C1250.53 101.826 1249.93 101.826 1249.37 101.746C1246.91 101.366 1244.04 101.266 1242.12 100.466C1239.65 99.4362 1236.99 101.326 1234.95 99.9862C1233.17 99.9862 1231.54 99.3161 1230.07 99.3261C1228.75 99.3261 1227.42 100.466 1226.05 101.066C1225.67 101.236 1224.73 101.416 1224.72 101.396C1221.97 98.4162 1220.53 102.416 1218.25 101.816C1218.02 101.756 1217.67 101.846 1217.39 101.826C1215.72 101.746 1213.78 101.956 1213.33 100.596C1213.2 100.176 1212.59 100.086 1212.04 100.346C1210.25 101.196 1208.31 101.676 1205.94 102.026C1203.95 102.316 1202.84 102.386 1201.55 101.566C1201.24 101.356 1200.38 101.116 1200.16 101.206C1197.97 102.046 1195.04 101.696 1192.95 102.816C1191.4 103.646 1190.24 103.516 1189.77 102.636C1188.87 100.986 1186.49 100.046 1184.59 98.8662C1183.19 97.9862 1182.29 98.2861 1181.72 99.2962C1181.64 99.4361 1181.39 99.5562 1181.22 99.6762C1179.02 98.3862 1175.42 99.4961 1173.15 98.2861C1171.28 97.2961 1169.54 96.2061 1167.08 95.6361C1165.43 93.2061 1162.53 92.5462 1158.28 93.7962C1158.13 93.8362 1157.75 93.6762 1157.52 93.5862C1155.13 92.6962 1153.12 93.1262 1151.33 94.1862C1149.68 95.1562 1147.49 95.1562 1145.62 94.8762C1142.9 94.4762 1139.76 94.0962 1138.68 92.3662C1137.67 90.7762 1134.08 91.0162 1132.98 89.5962C1130.83 89.4862 1129.26 90.2762 1127.59 90.8062C1124.84 91.6862 1122.1 90.0661 1119.4 90.9761C1119.17 91.0561 1118.24 90.7861 1118.08 90.5761C1117.5 89.8561 1117.31 89.0261 1116.61 88.3562C1115.9 87.6762 1114.85 87.0762 1113.78 86.5362C1112.29 85.7762 1114.18 84.7762 1112.96 83.9162C1112.09 83.2962 1111.66 82.5762 1110.13 82.2562C1106.39 81.4762 1105.73 78.9862 1102.48 77.9162C1102.66 75.4562 1099.12 74.7962 1096.11 73.9062C1095.66 73.7662 1094.64 73.7162 1094.48 73.8462C1092.59 75.4162 1090.23 73.8062 1088.34 74.2162C1086.95 74.5162 1086.28 74.0961 1085.27 73.8862C1083.7 73.5662 1082.7 74.5162 1081.29 74.5662C1080.79 74.5862 1080.15 74.4562 1079.76 74.2662C1078.56 73.6762 1077.17 73.6662 1075.69 73.6562C1074.87 73.6562 1073.65 73.6162 1073.29 73.3262C1070.49 71.0662 1065.72 70.5862 1061.82 69.3362C1059.55 68.6162 1057.32 68.0062 1056.43 66.4262C1055.9 65.4762 1054.05 65.1762 1052.42 64.7762C1050.95 64.4162 1049.25 64.1462 1048.26 63.2162C1045.64 60.7562 1042.5 58.4462 1040.16 55.9062C1039.02 54.6562 1037.65 54.3062 1035.53 54.2862C1034.34 54.2762 1033.35 54.1062 1032.35 53.6962C1027.98 51.9462 1023.95 49.8462 1018.29 49.3162C1017.52 49.2462 1016.8 48.8362 1016.18 48.5162C1014.5 47.6462 1013.08 46.6062 1010.77 46.1962C1009.72 44.3062 1006.76 44.6062 1004.29 44.6562C1002.65 44.6962 1001.03 45.2262 999.375 45.4662C998.254 45.6262 997.059 45.6861 996.168 45.1362C994.984 44.4162 993.569 43.9262 992.039 43.4362C990.666 43.0062 990.278 42.0062 988.465 41.5262C984.095 40.3862 980.007 38.9362 976.507 36.9962C974.474 35.8762 971.812 35.1262 968.825 34.9962C967.043 34.9162 965.513 34.7062 963.994 34.1262C962.621 33.6062 960.891 33.1862 959.256 33.1062C957.307 33.0162 956.06 32.5262 954.855 31.7962C953.283 30.8562 951.627 29.9562 949.981 29.0462C945.37 26.4862 945.328 26.5662 939.061 25.7062C937.719 25.5262 937.007 25.7962 935.979 25.9862C934.303 26.2962 932.584 26.2962 930.855 26.0362C922.994 24.8562 921.171 24.8862 913.216 26.0662C911.214 26.3662 909.16 26.4862 907.347 25.7962C906.058 25.3062 904.486 25.0062 903.27 25.4262C900.556 26.3762 897.695 26.2462 894.792 26.2262C893.251 26.2262 891.92 26.5062 890.851 27.1062C889.709 27.7462 888.797 27.7862 887.141 27.4462C884.406 26.8762 881.283 25.9562 878.61 27.7762C878.474 27.8762 877.499 27.5062 877.111 27.5962C874.145 28.2962 871.075 26.4862 868.077 27.7562C867.973 27.7962 866.296 26.5862 866.065 26.6662C863.927 27.3462 862.24 26.7961 860.343 26.3862C859.421 26.1861 857.995 26.3362 857.031 26.5962C855.553 27.0062 855.197 26.6862 854.61 26.0262C852.084 23.1762 763.777 38.6462 757.08 39.6362C715.609 45.7362 676.14 81.4362 631.724 76.8162C628.255 76.4562 625.405 77.3162 622.879 78.3962C620.762 79.3062 618.509 80.0362 616.088 80.5662C613.604 81.1162 612.063 82.3562 609.59 82.9862C607.242 83.5862 605.88 83.4862 604.297 82.5462C603.784 82.2362 603.145 81.7562 602.17 82.0862C599.718 82.8962 596.898 83.2562 594.718 84.4662C591.616 86.1762 586.984 86.8462 583.777 86.4162C576.828 85.4762 576.179 85.5162 569.66 87.1462C569.136 87.2762 568.549 87.3162 568.014 87.4262C562.9 88.4962 557.586 89.3862 552.965 90.9862C550.596 91.8062 548.521 92.3662 545.775 92.3762C542.138 92.3962 537.38 93.3061 533.744 94.5361C532.979 94.7961 532.413 95.0562 531.553 94.6562C530.317 94.0862 528.64 94.0361 527.456 94.4161C523.798 95.5861 520.392 95.3262 516.671 94.5562C514.292 94.0662 511.588 93.9762 509.062 94.7162C508.308 94.9362 507.407 95.1162 506.589 95.1162C506.107 95.1162 505.635 95.1362 505.153 95.1462C505.007 95.2662 504.839 95.3761 504.692 95.5061C502.9 97.1561 500.594 98.4561 496.738 98.8261C493.96 99.0862 491.56 99.9161 489.957 101.506C488.28 103.176 484.664 104.076 483.27 105.966C483.092 106.206 482.359 106.476 481.897 106.476C479.193 106.446 476.71 108.386 473.754 106.796C473.304 106.546 472.067 106.836 471.606 107.316C470.044 108.946 468.137 110.146 464.5 110.546C461.586 110.866 459.228 112.166 459.019 113.926C458.82 115.516 457.604 116.546 455.686 117.676C452.93 119.296 451.389 121.546 447.323 122.476C444.64 125.446 439.106 127.056 435.91 129.796C435.469 130.176 434.778 130.716 434.17 130.736C431.707 130.816 430.879 131.786 429.747 132.736C429.171 133.226 427.945 133.496 426.959 133.826C423.218 135.066 419.193 135.216 415.274 134.406C411.826 133.696 408.787 133.746 405.276 134.506C402.614 135.076 399.878 135.566 397.279 136.256C396.273 136.526 395.047 136.686 393.946 136.656C392.898 136.626 391.693 135.996 390.907 136.156C389.649 136.426 388.465 136.706 387.124 136.686C384.713 137.996 382.093 139.206 380.238 140.786C379.798 141.166 379.106 141.706 378.498 141.726C376.035 141.806 375.208 142.776 374.086 143.726C373.51 144.216 372.284 144.486 371.298 144.816C367.557 146.056 363.532 146.206 359.613 145.396C356.165 144.686 353.125 144.736 349.615 145.496C346.952 146.066 344.217 146.556 341.618 147.246C340.612 147.516 339.386 147.676 338.285 147.646C337.237 147.626 336.032 146.986 335.246 147.156C333.894 147.446 332.647 147.786 331.159 147.706C329.136 146.026 329.063 146.026 326.285 146.736C324.965 147.076 323.235 147.076 320.888 146.816C319.766 146.696 318.593 146.706 317.44 146.696C316.413 146.676 315.847 146.336 315.574 145.866C315.008 144.876 313.541 144.886 312.095 144.846C310.617 144.806 309.139 144.846 308.154 145.576C307.463 146.086 307.012 146.686 306.362 147.206C305.702 147.746 304.245 147.756 303.428 147.206C302.704 146.726 302.107 146.176 301.426 145.676C300.011 144.646 297.747 144.456 296.5 145.516C295.305 146.526 294.519 146.906 292.507 146.246C290.82 145.696 288.776 144.906 287.099 145.056C285.37 145.206 284.008 145.416 282.498 144.846C280.748 144.176 278.904 144.336 276.944 144.686C276.116 144.826 275.497 144.426 275.288 143.936C273.873 143.846 272.353 143.896 271.085 143.616C268.413 143.026 265.876 142.246 263.298 141.536C260.835 140.856 257.859 140.656 256.601 138.926C256.035 138.146 254.306 138.036 252.808 138.026C250.491 138.016 248.28 137.986 246.173 137.216C244.098 136.456 241.992 135.756 239.078 136.816C237.517 137.386 235.033 135.516 232.822 136.816C228.388 135.746 223.819 134.826 219.564 133.576C214.481 132.086 211.463 131.346 206.82 131.246C204.745 131.206 202.827 131.076 201.024 130.436C200.406 130.216 199.085 130.166 198.54 130.386C195.04 131.816 190.324 130.596 186.959 132.176C185 132.176 182.987 132.346 181.038 132.276C180.849 132.436 180.682 132.616 180.566 132.816C179.11 135.346 175.138 136.856 172.381 138.856C170.841 139.976 168.273 139.886 167.393 138.676C166.376 137.266 164.846 136.126 162.855 135.206C161.44 134.556 160.214 133.826 159.04 133.066C156.766 133.646 154.659 134.576 151.903 134.266C148.297 135.156 143.99 135.206 141.297 137.226C140.102 138.116 138.31 138.696 136.591 139.326C135.365 139.776 131.99 139.426 133.007 141.246C131.885 142.676 129.464 141.596 127.861 142.106C126.582 142.516 125.366 142.966 124.884 143.796C123.428 146.326 119.456 147.836 116.699 149.836C115.159 150.956 112.591 150.866 111.711 149.656C110.694 148.246 109.164 147.106 107.173 146.196C103.337 144.436 100.622 142.186 97.9079 139.946C96.7446 138.986 95.9586 138.116 93.5481 138.006C92.5734 137.956 91.3263 137.436 90.8651 136.936C89.0625 134.996 85.1953 134.316 82.8477 132.726C82.5228 132.506 81.852 132.346 81.328 132.336C78.4564 132.276 75.5533 131.986 72.7865 132.766C70.9734 133.286 69.0346 133.666 67.2843 134.236C65.6704 134.756 64.4127 134.806 62.5367 134.406C60.4931 133.966 57.9359 133.916 55.735 134.536C53.094 135.286 50.935 133.616 48.3359 134.246C46.7638 134.626 45.1499 135.046 43.494 135.186C35.225 135.886 33.0031 136.346 25.1009 139.426C24.556 139.646 24.294 139.816 23.6442 139.576C23.1726 139.406 22.6381 139.246 22.0826 139.186C19.5988 138.906 19.0014 139.186 18.1525 140.896C17.9743 141.246 18.142 142.166 16.8739 141.526C14.5577 140.346 12.3254 139.566 9.16035 140.616C8.84593 140.726 7.87126 140.566 7.71405 140.396C6.50882 139.036 2.77781 140.216 1.7717 138.506C1.44681 137.946 -0.4711 137.956 -1.38289 138.276C-4.41171 139.326 -6.27721 138.306 -7.61869 137.166C-8.66673 136.266 -9.48419 136.096 -10.9829 136.646C-11.8108 136.946 -12.5235 136.906 -13.2257 136.526C-14.2528 135.966 -15.3113 135.216 -16.8309 135.326C-20.9707 135.646 -24.8798 133.826 -29.1977 135.156C-30.5602 135.576 -32.5934 135.436 -34.0187 134.616C-35.2239 133.926 -36.5864 133.276 -38.4624 133.246C-41.1768 133.206 -40.7366 131.516 -42.4554 130.976C-42.9584 130.816 -43.43 130.476 -43.9017 130.486C-47.6746 130.576 -49.4248 128.956 -51.72 127.776C-53.1873 127.016 -54.5811 125.896 -56.3104 125.696C-59.161 125.376 -60.6912 124.296 -62.7453 123.446C-66.3401 121.966 -68.2475 119.776 -70.92 117.916C-72.775 116.616 -72.6807 116.566 -75.8458 116.696C-77.4388 116.756 -78.5497 116.526 -79.2519 115.636C-79.7654 114.986 -80.9078 114.816 -82.1025 115.266C-82.5846 115.446 -83.0038 115.686 -83.4859 115.866C-86.7977 117.136 -88.4955 117.066 -90.9899 115.576C-91.3881 115.346 -91.9645 115.136 -92.1217 114.856C-92.9078 113.396 -94.5742 112.836 -97.3305 112.976C-99.0597 113.066 -100.737 112.766 -102.361 112.336C-103.325 112.086 -104.96 111.876 -105.631 112.156C-107.601 112.976 -108.544 112.236 -110.064 111.776C-113.303 110.786 -116.751 110.006 -120.209 109.206L-122.871 198.506L2018.66 256.516L2025.5 26.8462C2023.63 27.3162 2021.71 27.5662 2019.68 27.4062C2019.07 27.3562 2018.59 27.4362 2018.1 27.5162" fill="black"></path><path d="M202.468 151.041C202.202 151.064 201.867 150.996 201.67 151.124C199.625 152.48 197.413 153.454 195.148 154.391C193.24 155.185 191.324 156.047 189.629 157.283C188.618 158.018 187.477 158.542 186.299 159.022C184.71 159.674 183.228 160.573 181.632 161.225C180.294 161.772 179.032 162.439 177.793 163.158C176.546 163.878 175.117 164.282 173.992 165.241C173.376 165.766 172.502 165.751 171.787 166.215C170.678 166.942 169.249 167.197 168.139 167.931C167.067 168.636 165.987 169.19 164.771 169.595C163.927 169.88 163.16 170.404 162.369 170.846C162.057 171.026 161.806 171.326 161.48 171.468C160.24 172.015 158.963 172.473 157.747 173.057C156.614 173.597 155.581 174.338 154.44 174.856C153.049 175.485 151.514 175.74 150.123 176.384C149.879 176.497 149.575 176.497 149.362 176.639C147.987 177.538 146.443 177.561 144.893 177.493C143.828 177.448 142.969 177.044 142.498 176.024C142.384 175.777 142.278 175.53 142.133 175.305C141.092 173.657 141.784 172.158 142.726 170.839C143.502 169.752 144.581 168.883 145.318 167.729C145.645 167.212 146.155 166.748 146.687 166.433C147.637 165.863 148.511 165.271 148.952 164.2C149.043 163.975 149.286 163.75 149.514 163.638C150.928 162.918 151.909 161.727 152.988 160.633C153.429 160.183 153.863 159.674 154.41 159.374C155.391 158.827 156.082 157.995 156.888 157.276C159.663 154.825 162.475 152.412 165.182 149.895C165.957 149.168 166.755 148.478 167.553 147.774C168.914 146.575 170.465 145.653 171.848 144.507C172.472 143.99 173.087 143.443 173.635 142.851C173.848 142.618 173.87 142.206 173.984 141.877C174.745 141.951 175.254 141.404 175.847 141.105C176.044 141.007 176.029 140.513 176.113 140.198C176.273 140.123 176.683 140.235 176.409 139.823C176.326 139.958 176.242 140.101 176.158 140.235C175.687 140.445 175.185 140.61 174.767 140.887C174.425 141.112 174.19 141.479 173.901 141.787C172.631 141.719 171.628 142.319 170.716 143.091C170.229 143.503 169.788 143.9 169.096 144.027C168.694 144.102 168.314 144.447 167.971 144.732C167.485 145.144 167.014 145.496 166.345 145.653C165.463 145.856 164.665 146.32 164.034 147.01C163.798 147.272 163.471 147.557 163.152 147.624C161.647 147.909 160.56 148.861 159.427 149.76C158.439 150.554 157.23 150.974 156.113 151.551C154.349 152.465 152.791 153.731 150.928 154.488C150.594 154.623 150.252 154.788 149.978 155.02C148.017 156.646 145.744 157.77 143.517 158.977C143.121 159.194 142.741 159.434 142.354 159.666C141.282 160.311 140.354 161.15 139.077 161.502C138.325 161.704 137.648 162.274 137.017 162.776C135.314 164.132 133.338 165.054 131.491 166.178C130.267 166.92 129.035 167.632 127.713 168.216C126.314 168.846 125.022 169.7 123.661 170.412C122.376 171.086 121.061 171.701 119.761 172.338C118.545 172.93 117.314 173.477 116.021 173.926C115.018 174.271 114.06 174.264 113.064 174.204C112.372 174.166 111.81 173.222 112.061 172.562C112.35 171.806 112.699 171.071 113.315 170.502C114.174 169.707 114.881 168.733 116.014 168.261C118.173 166.043 121 164.694 123.433 162.821C125.425 161.292 127.546 159.913 129.568 158.4C130.639 157.598 131.901 157.036 133.064 156.347C134.387 155.567 135.755 154.855 136.911 153.814C137.116 153.634 137.306 153.417 137.549 153.312C139.556 152.442 141.289 151.109 143.175 150.037C144.748 149.145 146.329 148.276 147.888 147.347C148.275 147.115 148.716 146.942 149.036 146.642C149.773 145.946 150.64 145.496 151.544 145.046C152.829 144.402 154.228 143.907 155.216 142.776C155.436 142.521 155.824 142.371 156.158 142.259C158.849 141.352 161.069 139.606 163.509 138.257C166.596 136.556 169.621 134.758 172.776 133.177C175.763 131.685 178.659 130.014 181.495 128.238C183.099 127.227 184.802 126.357 186.444 125.406C187.926 124.544 189.401 123.66 190.868 122.783C191.02 122.693 191.157 122.528 191.324 122.491C193.498 121.966 195.178 120.558 197.01 119.426C197.162 119.329 197.329 119.246 197.496 119.179C199.283 118.512 200.955 117.688 202.46 116.489C203.54 115.627 204.855 115.799 206.124 116.091C206.649 116.211 207.166 116.391 207.675 116.556C208.739 116.893 209.294 117.71 209.507 118.699C209.804 120.078 209.545 121.397 208.565 122.476C208.086 123.008 207.493 123.45 206.938 123.907C206.733 124.079 206.375 124.147 206.269 124.349C205.676 125.533 204.52 126.118 203.555 126.912C201.746 128.396 199.997 129.954 198.059 131.281C197.094 131.948 196.311 132.824 195.353 133.529C193.612 134.818 192.175 136.519 190.381 137.703C188.169 139.164 186.702 141.457 184.33 142.686C184.095 142.806 183.927 143.046 183.73 143.233C183.008 143.922 182.247 144.574 181.586 145.316C180.993 145.983 180.165 146.328 179.61 147.122C179.085 147.879 177.922 148.171 177.23 148.861C175.702 150.382 173.954 151.656 172.479 153.222C171.43 154.338 170.29 155.342 169.02 156.242C167.85 157.066 166.93 158.235 165.904 159.254C165.858 159.299 165.858 159.456 165.873 159.464C166.033 159.531 166.193 159.584 166.36 159.614C166.436 159.629 166.527 159.569 166.611 159.531C168.754 158.355 170.898 157.171 173.034 155.994C173.346 155.822 173.62 155.522 173.954 155.44C175.657 155.05 177.101 154.151 178.599 153.319C179.861 152.622 181.252 152.165 182.567 151.558C184.536 150.651 186.618 149.962 188.336 148.576C188.61 148.351 188.952 148.194 189.287 148.044C190.275 147.594 191.248 147.077 192.274 146.732C193.247 146.41 193.901 145.593 194.859 145.286C196.767 144.679 198.363 143.398 200.203 142.708C201.822 142.101 203.35 141.345 204.908 140.625C205.722 140.243 206.406 139.486 207.249 139.284C208.223 139.052 208.785 138.37 209.538 137.905C210.457 137.343 211.453 136.893 212.457 136.489C214.304 135.739 216.151 135.02 217.664 133.656C218.12 133.244 218.751 133.019 219.306 132.712C220.416 132.105 221.526 131.498 222.635 130.891C222.795 130.801 222.924 130.644 223.091 130.599C225.623 129.969 227.531 128.231 229.72 127.009C230.351 126.657 230.914 126.193 231.552 125.87C232.776 125.263 233.894 124.574 234.943 123.667C236.022 122.738 237.345 122.079 238.599 121.367C239.8 120.692 241.054 121.194 242.217 121.502C243.259 121.771 244.239 122.319 244.65 123.48C244.977 124.402 245.669 125.159 245.76 126.2C245.927 128.103 244.855 129.43 243.646 130.636C242.955 131.326 242.126 132.03 241.222 132.337C239.982 132.757 239.009 133.536 237.884 134.106C236.204 134.96 234.342 135.44 232.791 136.571C232.51 136.773 232.115 136.818 231.788 136.961C230.792 137.395 229.72 137.725 228.846 138.325C227.858 139.007 226.93 139.651 225.668 139.703C225.342 139.718 224.999 139.951 224.711 140.146C223.274 141.082 221.837 142.019 220.271 142.753C219.382 143.173 218.538 143.727 217.755 144.334C216.326 145.436 214.958 146.627 213.559 147.774C213.072 148.171 212.556 148.538 212.069 148.935C209.69 150.876 207.09 152.555 204.946 154.773C204.863 154.863 204.825 155.133 204.878 155.178C204.999 155.282 205.205 155.35 205.364 155.335C205.623 155.305 205.927 155.252 206.124 155.103C208.017 153.634 210.343 153.072 212.487 152.12C212.73 152.008 213.072 152.023 213.24 151.858C214.882 150.217 217.398 150.067 219.07 148.508C220.91 148.171 222.324 146.995 223.928 146.178C224.726 145.773 225.562 145.354 226.429 145.174C227.44 144.956 228.329 144.522 229.173 144.027C230.344 143.345 231.583 142.843 232.814 142.304C233.802 141.877 234.791 141.479 235.726 140.887C236.691 140.28 237.77 139.801 238.987 139.606C240.135 139.426 241.168 138.767 242.141 138.092C242.734 137.688 243.365 137.231 244.042 137.073C246.087 136.594 247.919 135.59 249.766 134.713C251.712 133.791 253.764 133.064 255.589 131.895C256.349 131.408 257.2 131.131 258.082 130.876C259.017 130.599 259.929 130.254 260.758 129.632C261.442 129.115 262.408 128.943 263.259 128.673C263.647 128.553 264.141 128.673 264.468 128.493C265.806 127.721 267.303 127.332 268.671 126.627C270.336 125.773 271.925 124.761 273.764 124.229C274.89 123.907 275.939 123.36 277.018 122.903C278.014 122.483 278.934 121.936 280.021 121.682C281.435 121.344 282.636 120.543 283.837 119.748C284.741 119.156 285.676 118.534 286.687 118.205C287.736 117.867 288.717 117.433 289.675 116.938C291.362 116.069 293.118 115.342 294.897 114.675C295.901 114.293 296.828 113.798 297.733 113.169C298.812 112.42 300.15 111.977 301.427 111.565C304.468 110.591 307.288 109.212 309.971 107.519C310.572 107.144 311.294 106.949 311.955 106.672C313.195 106.147 314.555 105.9 315.711 105.158C315.939 105.016 316.228 104.964 316.448 104.821C317.216 104.334 318.219 104.679 318.995 103.989C319.565 103.48 320.424 103.262 321.192 103.008C322.043 102.723 322.94 102.596 323.791 102.311C324.734 101.996 325.661 101.629 326.551 101.187C328.193 100.363 329.782 99.763 331.378 99.7181C332.245 99.6956 332.974 99.4033 333.712 99.0736C334.943 98.5341 336.053 97.7623 337.436 97.485C338.66 97.2377 339.793 96.6083 341.002 96.2486C342.218 95.8814 343.358 95.3493 344.521 94.8548C345.433 94.4651 346.346 93.9556 347.303 93.8357C348.444 93.6933 349.341 93.1088 350.352 92.7416C351.287 92.4044 352.237 92.1271 353.187 91.8424C353.621 91.715 354.061 91.5951 354.502 91.5426C356.038 91.3853 357.11 91.9323 357.725 93.4235C358.029 94.1504 358.121 94.7199 357.794 95.4543C357.003 97.2527 355.84 98.639 354.054 99.5682C352.936 100.145 351.925 100.925 350.907 101.666C350.458 101.989 350.04 102.273 349.47 102.371C349.037 102.446 348.626 102.685 348.223 102.888C346.855 103.592 345.479 104.282 344.134 105.031C342.879 105.735 341.427 106.028 340.302 107.017C339.854 107.406 339.162 107.526 338.569 107.759C337.216 108.291 335.848 108.778 334.821 109.879C334.251 110.494 333.461 110.749 332.67 110.988C331.089 111.46 329.645 112.21 328.284 113.109C327.22 113.806 326.087 114.338 324.901 114.802C323.807 115.222 322.735 115.732 321.739 116.331C320.34 117.17 319.018 118.115 317.254 118.04C316.843 118.025 316.425 118.362 316 118.512C315.407 118.722 314.814 118.984 314.206 119.074C313.628 119.156 313.172 119.366 312.776 119.763C311.925 120.617 310.952 121.209 309.683 121.307C309.166 121.352 308.641 121.599 308.162 121.839C305.334 123.27 302.393 124.417 299.359 125.338C298.386 125.638 297.581 126.178 296.699 126.605C295.809 127.039 294.859 127.339 293.947 127.744C292.792 128.253 291.636 128.763 290.336 128.785C289.675 128.793 289.059 128.988 288.55 129.362C287.075 130.449 285.281 130.839 283.647 131.565C281.914 132.337 280.211 133.199 278.485 133.993C277.748 134.331 276.98 134.593 276.22 134.878C274.783 135.417 273.369 136.009 271.978 136.669C270.275 137.47 268.542 138.257 266.649 138.587C266.216 138.662 265.745 138.834 265.41 139.104C264.042 140.198 262.385 140.7 260.796 141.337C258.873 142.109 256.965 142.918 255.041 143.69C254.122 144.065 253.187 144.402 252.259 144.754C251.507 145.046 250.686 145.159 250.07 145.781C249.766 146.088 249.31 146.298 248.876 146.418C247.197 146.89 245.676 147.647 244.255 148.658C243.685 149.063 242.962 149.235 242.233 149.4C240.841 149.715 239.397 150.007 238.249 150.996C237.991 151.221 237.626 151.341 237.299 151.491C236.144 152.015 234.988 152.525 233.84 153.042C233.506 153.192 233.194 153.492 232.86 153.499C231.309 153.544 230.207 154.556 228.922 155.163C227.782 155.702 226.55 156.099 225.463 156.676C224.414 157.238 223.35 157.65 222.248 158.018C222.164 158.048 222.035 158.018 221.982 158.078C220.53 159.464 218.553 159.584 216.774 160.191C216.265 160.371 215.771 160.595 215.269 160.813C213.529 161.569 211.795 162.341 210.047 163.091C209.72 163.233 209.363 163.323 209.013 163.39C207.675 163.653 206.413 164.117 205.182 164.702C203.715 165.399 202.24 166.073 200.552 166.133C199.944 166.156 199.313 166.403 198.743 166.658C197.002 167.429 195.178 167.302 193.369 167.115C192.685 167.047 191.978 166.688 191.392 166.305C190.701 165.848 190.267 165.174 190.29 164.252C190.313 163.33 190.48 162.544 191.065 161.749C191.985 160.498 192.913 159.321 194.266 158.505C194.494 158.37 194.714 158.197 194.912 158.01C197.056 155.927 199.237 153.889 201.579 152.023C201.913 151.761 202.096 151.318 202.354 150.966C202.491 150.869 202.947 150.989 202.62 150.584C202.544 150.719 202.46 150.861 202.384 150.996" fill="#9E4CFF"></path></svg>