<svg xmlns:xlink="http://www.w3.org/1999/xlink" xmlns="http://www.w3.org/2000/svg" width="2858" viewBox="0 0 1920 145" fill="none" class="bslider-deco_top" height="216"><g clip-path="url(#clip0_2007_2888)" fill="none"><path fill-rule="evenodd" clip-rule="evenodd" d="M1920 2H0V106.779C1.36861 107.893 2.82509 108.969 4.81974 109.807C5.32585 110.021 5.79896 110.249 6.26874 110.476C7.62755 111.132 8.95854 111.774 10.9797 111.997C12.185 112.129 13.2248 112.756 14.2473 113.374C14.6247 113.601 14.9997 113.828 15.3797 114.027C15.8328 114.266 16.2643 114.524 16.6953 114.781C18.3569 115.773 20.0112 116.761 22.8698 116.657C23.1551 116.651 23.4445 116.785 23.7404 116.923C23.9112 117.002 24.0841 117.082 24.2598 117.137C24.9336 117.35 25.2639 117.759 25.5952 118.169C26.0752 118.764 26.5575 119.361 28.0898 119.367C29.8798 119.377 31.1997 120.017 32.3497 120.697C33.7197 121.507 35.6598 121.617 36.9498 121.187C39.3996 120.371 41.7179 120.673 44.0276 120.975C45.5929 121.179 47.1542 121.383 48.7497 121.237C50.0013 121.125 50.9251 121.661 51.7911 122.164C51.9284 122.243 52.0643 122.322 52.1997 122.397C52.8697 122.767 53.5497 122.807 54.3397 122.497C55.7597 121.937 56.5397 122.097 57.5497 122.987C58.8397 124.117 60.6297 125.117 63.5098 124.037C64.3698 123.717 66.1997 123.677 66.5197 124.237C67.0396 125.134 68.2824 125.214 69.5081 125.294C70.5933 125.364 71.665 125.433 72.2097 126.067C72.3597 126.237 73.2897 126.387 73.5897 126.277C76.5997 125.197 78.7397 125.957 80.9597 127.117C81.9303 127.618 82.0275 127.139 82.1072 126.745C82.1277 126.644 82.147 126.549 82.1797 126.477C82.9697 124.767 83.5397 124.477 85.9097 124.727C86.4297 124.787 86.9498 124.937 87.3997 125.107C87.9457 125.319 88.2047 125.204 88.6138 125.024C88.6693 124.999 88.7276 124.974 88.7897 124.947C96.2998 121.797 98.4197 121.307 106.3 120.527C107.752 120.389 109.17 120.007 110.547 119.635C110.668 119.602 110.789 119.57 110.91 119.537C112.11 119.221 113.218 119.449 114.328 119.676C115.503 119.917 116.679 120.158 117.97 119.757C120.06 119.117 122.5 119.137 124.46 119.557C126.25 119.937 127.44 119.867 128.98 119.337C129.957 118.998 130.995 118.717 132.033 118.436C132.77 118.237 133.506 118.037 134.22 117.817C136.383 117.145 138.634 117.205 140.885 117.265C141.38 117.279 141.875 117.292 142.37 117.297C142.87 117.297 143.52 117.457 143.83 117.667C144.779 118.33 145.986 118.825 147.195 119.32C148.852 120 150.514 120.681 151.52 121.797C151.96 122.297 153.16 122.807 154.09 122.847C156.16 122.929 156.98 123.64 157.946 124.477C158.048 124.566 158.152 124.656 158.26 124.747L158.371 124.841C160.954 127.02 163.552 129.212 167.17 130.907C169.07 131.797 170.55 132.927 171.53 134.327C172.38 135.527 174.83 135.587 176.29 134.457C177.141 133.795 178.116 133.185 179.09 132.575C181.104 131.315 183.117 130.056 184.04 128.337C184.49 127.497 185.64 127.037 186.86 126.617C187.448 126.416 188.156 126.45 188.866 126.484C189.99 126.537 191.116 126.59 191.76 125.707C191.055 124.405 192.518 124.2 193.831 124.017C194.343 123.945 194.831 123.876 195.16 123.747C195.378 123.66 195.597 123.574 195.816 123.489C197.236 122.932 198.651 122.377 199.63 121.597C201.413 120.171 203.954 119.698 206.497 119.224C207.591 119.021 208.685 118.817 209.72 118.537C211.774 118.756 213.444 118.224 215.106 117.695C215.572 117.547 216.037 117.399 216.51 117.267C217.63 118.017 218.81 118.727 220.17 119.367C222.08 120.257 223.55 121.387 224.53 122.787C225.37 123.987 227.83 124.047 229.29 122.917C230.141 122.255 231.116 121.645 232.09 121.035C234.104 119.775 236.117 118.516 237.04 116.797C237.15 116.587 237.31 116.407 237.49 116.247C238.58 116.277 239.69 116.224 240.799 116.171C241.582 116.133 242.365 116.096 243.14 116.087C244.78 115.26 246.771 115.167 248.771 115.073C250.66 114.985 252.557 114.897 254.17 114.187C254.68 113.967 255.95 113.997 256.54 114.217C258.27 114.847 260.1 114.957 262.08 114.977C266.5 115.027 269.4 115.747 274.26 117.187C277.039 118.014 279.959 118.681 282.881 119.35C284.238 119.66 285.595 119.971 286.94 120.297C288.165 119.527 289.488 119.832 290.672 120.105C291.518 120.3 292.293 120.479 292.91 120.237C295.69 119.157 297.71 119.837 299.69 120.577C301.71 121.327 303.82 121.337 306.03 121.327C307.46 121.317 309.11 121.417 309.66 122.187C310.579 123.487 312.447 123.897 314.322 124.309C314.913 124.439 315.506 124.569 316.07 124.727C316.743 124.913 317.414 125.103 318.085 125.294C319.875 125.803 321.668 126.313 323.53 126.727C324.374 126.921 325.329 126.942 326.285 126.964C326.71 126.973 327.134 126.983 327.55 127.007C327.76 127.497 328.35 127.887 329.14 127.737C331 127.377 332.76 127.197 334.44 127.847C335.719 128.341 336.874 128.221 338.261 128.075C338.446 128.056 338.635 128.036 338.83 128.017C340.24 127.876 341.923 128.45 343.412 128.958C343.612 129.026 343.808 129.093 344 129.157C345.93 129.797 346.68 129.407 347.81 128.387C349 127.307 351.16 127.477 352.52 128.497C352.788 128.7 353.041 128.91 353.294 129.119C353.664 129.426 354.034 129.732 354.45 130.017C355.24 130.557 356.62 130.537 357.25 129.987C357.523 129.75 357.761 129.496 357.998 129.242C358.29 128.93 358.581 128.619 358.94 128.337C359.88 127.597 361.29 127.547 362.7 127.567C362.776 127.569 362.852 127.57 362.928 127.572C364.231 127.597 365.51 127.622 366.03 128.557C366.29 129.027 366.83 129.367 367.81 129.367C368.054 129.37 368.3 129.37 368.545 129.37C369.405 129.371 370.268 129.372 371.1 129.457C373.34 129.697 374.99 129.677 376.25 129.327C378.91 128.577 378.97 128.587 380.92 130.247C382.121 130.307 383.162 130.055 384.241 129.793C384.429 129.748 384.618 129.702 384.81 129.657C385.212 129.565 385.738 129.709 386.294 129.861C386.763 129.989 387.253 130.123 387.71 130.127C388.77 130.147 389.93 129.977 390.89 129.697C392.597 129.2 394.37 128.803 396.138 128.407C396.929 128.23 397.718 128.053 398.5 127.867C401.84 127.067 404.74 126.997 408.04 127.667C411.8 128.437 415.63 128.247 419.19 126.977C419.406 126.901 419.636 126.826 419.867 126.752C420.631 126.505 421.418 126.251 421.84 125.867C421.95 125.766 422.057 125.665 422.163 125.565C423.079 124.703 423.924 123.907 426.03 123.817C426.61 123.787 427.26 123.237 427.68 122.857C429.068 121.588 430.921 120.546 432.771 119.505C433.254 119.234 433.736 118.962 434.21 118.687C435.371 118.696 436.394 118.454 437.462 118.202C437.581 118.174 437.7 118.145 437.82 118.117C438.227 118.024 438.764 118.169 439.329 118.322C439.792 118.448 440.274 118.578 440.72 118.587C441.78 118.607 442.94 118.437 443.9 118.157C445.609 117.661 447.379 117.265 449.143 116.87C449.938 116.692 450.733 116.514 451.52 116.327C454.87 115.527 457.77 115.457 461.06 116.127C464.82 116.897 468.65 116.717 472.21 115.437C472.439 115.353 472.684 115.273 472.929 115.192C473.68 114.946 474.445 114.694 474.86 114.317C474.973 114.214 475.084 114.111 475.193 114.009C476.105 113.157 476.952 112.367 479.05 112.277C479.63 112.247 480.28 111.697 480.7 111.317C482.065 110.066 483.889 109.04 485.712 108.016C487.923 106.773 490.133 105.532 491.52 103.887C494.128 103.234 495.637 101.99 497.145 100.746C497.875 100.144 498.605 99.5421 499.46 99.0073C501.28 97.8673 502.43 96.8173 502.6 95.2273C502.79 93.4673 505.03 92.1473 507.8 91.7973C511.26 91.3573 513.07 90.1373 514.54 88.4973C514.98 88.0073 516.16 87.7173 516.59 87.9573C518.418 88.9615 520.043 88.5072 521.657 88.0559C522.55 87.8062 523.44 87.5573 524.36 87.5573C524.8 87.5573 525.49 87.2773 525.66 87.0373C526.38 86.0001 527.73 85.252 529.065 84.5115C530.176 83.8955 531.278 83.2848 532 82.5173C533.52 80.9073 535.81 80.0573 538.45 79.7673C542.13 79.3573 544.32 78.0273 546.01 76.3673C546.087 76.2904 546.17 76.2256 546.252 76.1612C546.32 76.1084 546.387 76.0559 546.45 75.9973C546.635 75.9933 546.818 75.9861 547.001 75.9788C547.273 75.9681 547.544 75.9573 547.82 75.9573C548.61 75.9573 549.47 75.7673 550.18 75.5373C552.58 74.7773 555.16 74.8373 557.44 75.3073C561 76.0373 564.25 76.2673 567.73 75.0573C568.86 74.6673 570.46 74.7073 571.64 75.2573C572.402 75.6153 572.919 75.4172 573.556 75.1734C573.613 75.1516 573.671 75.1295 573.73 75.1073C577.19 73.8373 581.73 72.8873 585.19 72.8273C587.8 72.7873 589.78 72.2073 592.03 71.3673C595.503 70.0729 599.393 69.2145 603.268 68.3595C604.302 68.1313 605.336 67.9033 606.36 67.6673C606.586 67.6142 606.823 67.5768 607.06 67.5394C607.359 67.4923 607.657 67.4453 607.93 67.3673C614.13 65.6773 614.75 65.6373 621.39 66.5073C624.45 66.9073 628.86 66.1873 631.81 64.4473C633.147 63.6526 634.743 63.2128 636.334 62.7744C637.205 62.5343 638.075 62.2946 638.9 61.9973C639.738 61.6909 640.316 62.0506 640.788 62.3442C640.84 62.3763 640.89 62.4077 640.94 62.4373C642.46 63.3673 643.76 63.4473 645.99 62.8273C647.129 62.5136 648.056 62.06 648.977 61.6095C649.964 61.1267 650.944 60.6473 652.17 60.3473C654.47 59.7873 656.61 59.0373 658.62 58.1073C661.03 56.9973 663.74 56.1073 667.05 56.4373C691.765 58.8779 714.736 47.6553 737.417 36.5741C753.675 28.6313 769.784 20.7612 786.28 18.0473C787.365 17.8688 790.697 17.2483 795.493 16.3554C818.901 11.9974 877.173 1.14857 879.19 3.49732C879.76 4.14732 880.11 4.47732 881.51 4.04732C882.42 3.76732 883.77 3.60732 884.66 3.79732C884.894 3.84757 885.125 3.90031 885.354 3.95258C886.902 4.30589 888.353 4.63712 890.13 4.02732C890.258 3.98076 890.857 4.36774 891.355 4.68955C891.712 4.9207 892.018 5.11822 892.06 5.09732C893.631 4.38041 895.234 4.60322 896.827 4.8249C898.124 5.0052 899.415 5.18475 900.68 4.85732C900.884 4.80888 901.248 4.89078 901.561 4.96117C901.829 5.02157 902.06 5.0735 902.12 5.02732C904.435 3.34113 907.124 3.93118 909.558 4.46535C909.795 4.51725 910.029 4.56861 910.26 4.61732C911.84 4.94732 912.72 4.89732 913.8 4.23732C914.81 3.62732 916.08 3.31732 917.55 3.31732C917.824 3.31632 918.097 3.31651 918.37 3.3167C920.852 3.31841 923.306 3.32011 925.63 2.43732C926.78 2.00732 928.29 2.28732 929.52 2.76732C931.26 3.44732 933.22 3.30732 935.12 2.98732C942.7 1.72732 944.44 1.68732 951.95 2.78732C953.6 3.02732 955.25 3.01732 956.84 2.68732C957.034 2.64717 957.218 2.6038 957.396 2.56149C958.107 2.39304 958.747 2.24144 959.77 2.37732L960.41 2.46153C965.768 3.16567 965.953 3.19005 970.22 5.60732C970.506 5.76958 970.793 5.93151 971.08 6.09348C972.367 6.81986 973.655 7.54687 974.89 8.30732C976.06 9.01732 977.24 9.48732 979.11 9.56732C980.68 9.62732 982.33 10.0273 983.64 10.5373C985.1 11.0973 986.56 11.2973 988.26 11.3573C991.11 11.4473 993.65 12.1773 995.6 13.2773C998.96 15.1773 1002.88 16.5873 1007.06 17.6873C1008.02 17.9356 1008.57 18.3513 1009.08 18.7447C1009.5 19.0642 1009.9 19.369 1010.49 19.5573C1011.96 20.0273 1013.32 20.5073 1014.45 21.2173C1015.31 21.7473 1016.44 21.6773 1017.51 21.5073C1018.1 21.4106 1018.68 21.2737 1019.26 21.1374C1020.23 20.9073 1021.2 20.6787 1022.19 20.6473C1022.42 20.6395 1022.65 20.6293 1022.89 20.6191C1025.08 20.524 1027.46 20.4207 1028.38 22.1173C1030.1 22.4204 1031.3 23.11 1032.51 23.8013C1032.85 23.9995 1033.2 24.1979 1033.56 24.3873C1033.63 24.4236 1033.7 24.4611 1033.77 24.4991C1034.32 24.7864 1034.93 25.1055 1035.58 25.1673C1040.01 25.561 1043.4 27.0172 1046.79 28.4716C1047.53 28.7907 1048.28 29.1097 1049.03 29.4173C1049.99 29.8173 1050.93 29.9773 1052.07 29.9773C1054.09 29.9773 1055.41 30.3173 1056.51 31.5473C1057.88 33.0794 1059.53 34.5191 1061.18 35.9608C1062.24 36.8904 1063.31 37.8208 1064.3 38.7773C1065.1 39.5569 1066.39 39.8554 1067.62 40.1413C1067.84 40.1928 1068.06 40.2439 1068.28 40.2973C1068.51 40.3545 1068.74 40.4092 1068.97 40.4637C1070.33 40.7812 1071.68 41.0967 1072.12 41.9073C1072.92 43.3644 1074.83 43.9753 1076.85 44.6199C1076.99 44.6655 1077.14 44.7111 1077.28 44.7573C1078.41 45.1223 1079.61 45.4172 1080.81 45.7123C1083.6 46.3956 1086.39 47.0799 1088.27 48.6373C1088.61 48.9273 1089.77 48.9473 1090.56 48.9473L1090.63 48.9473C1092.01 48.9471 1093.32 48.947 1094.45 49.5173C1094.81 49.6973 1095.43 49.8173 1095.91 49.7973C1096.47 49.7724 1096.96 49.5936 1097.45 49.4148C1098.13 49.1635 1098.82 48.912 1099.7 49.0873C1099.95 49.1362 1100.17 49.2003 1100.39 49.2633C1101.03 49.4451 1101.64 49.6175 1102.63 49.3873C1103.32 49.2218 1104.09 49.3556 1104.86 49.4921C1106.11 49.7102 1107.39 49.9353 1108.49 48.9573C1108.64 48.8273 1109.61 48.8673 1110.04 48.9973C1110.38 49.0977 1110.72 49.195 1111.06 49.2924C1113.66 50.0294 1116.29 50.7745 1116.16 52.9473C1117.57 53.4206 1118.48 54.1941 1119.39 54.9663C1120.47 55.8911 1121.55 56.8141 1123.5 57.2173C1124.57 57.4394 1125.09 57.8918 1125.62 58.3593C1125.81 58.5232 1125.99 58.689 1126.21 58.8473C1126.77 59.2555 1126.64 59.7028 1126.52 60.1395C1126.39 60.6123 1126.27 61.0726 1127.01 61.4573C1128.02 61.9873 1129.03 62.5773 1129.72 63.2473C1130.11 63.6287 1130.34 64.0669 1130.57 64.5059C1130.74 64.8266 1130.91 65.1476 1131.14 65.4473C1131.31 65.6573 1132.19 65.9173 1132.41 65.8373C1133.7 65.3642 1135.01 65.532 1136.33 65.7007C1137.62 65.8671 1138.93 66.0343 1140.23 65.5873C1140.56 65.4735 1140.89 65.3476 1141.22 65.2207C1142.46 64.7458 1143.73 64.2563 1145.35 64.3273C1145.86 64.9973 1146.91 65.2848 1147.98 65.5757C1149.14 65.8926 1150.31 66.2135 1150.82 67.0373C1151.82 68.659 1154.57 69.0575 1157.07 69.4185C1157.2 69.4381 1157.34 69.4577 1157.47 69.4773C1159.26 69.7473 1161.35 69.7273 1162.91 68.7373C1164.6 67.6573 1166.52 67.2073 1168.81 68.0773C1168.85 68.0921 1168.9 68.1095 1168.94 68.1279C1169.15 68.2095 1169.42 68.3099 1169.53 68.2773C1173.58 66.9873 1176.34 67.6173 1177.95 70.0373C1179.95 70.4978 1181.46 71.3437 1182.97 72.1905C1183.24 72.3368 1183.5 72.483 1183.76 72.6273C1184.83 73.2123 1186.2 73.2342 1187.56 73.2562C1188.98 73.2789 1190.39 73.3016 1191.47 73.9473C1191.52 73.904 1191.59 73.8618 1191.65 73.8196C1191.77 73.7351 1191.9 73.6507 1191.95 73.5573C1192.48 72.5373 1193.33 72.2373 1194.68 73.0973C1195.13 73.3871 1195.62 73.6614 1196.1 73.9354C1197.55 74.7582 1199 75.5796 1199.66 76.8173C1200.12 77.6773 1201.22 77.7973 1202.69 76.9573C1203.79 76.3288 1205.13 76.1441 1206.46 75.9607C1207.54 75.8115 1208.62 75.6632 1209.55 75.2773C1209.76 75.1873 1210.57 75.4273 1210.88 75.6273C1212.11 76.4373 1213.17 76.3573 1215.07 76.0473C1217.33 75.6773 1219.18 75.1673 1220.88 74.3073C1221.4 74.0473 1221.97 74.1273 1222.11 74.5473C1222.48 75.682 1223.85 75.7005 1225.22 75.7191C1225.48 75.7226 1225.74 75.7261 1225.99 75.7373C1226.1 75.7413 1226.22 75.7291 1226.33 75.717C1226.51 75.6991 1226.68 75.6815 1226.81 75.7173C1227.67 75.9472 1228.4 75.4543 1229.14 74.9599C1230.25 74.207 1231.37 73.4507 1232.98 75.2373C1232.99 75.2473 1233.88 75.0573 1234.25 74.8873C1234.67 74.686 1235.08 74.4298 1235.5 74.175C1236.36 73.6451 1237.21 73.1208 1238.06 73.1073C1238.72 73.1026 1239.41 73.2458 1240.14 73.3958C1240.96 73.5651 1241.83 73.7432 1242.73 73.7273C1243.74 74.4139 1244.92 74.2239 1246.14 74.0256C1247.27 73.8427 1248.44 73.6526 1249.57 74.1373C1250.87 74.6898 1252.62 74.8861 1254.37 75.0815C1255.09 75.162 1255.81 75.2423 1256.5 75.3473C1256.95 75.4235 1257.43 75.4209 1257.91 75.4183C1257.99 75.4178 1258.08 75.4173 1258.16 75.4173C1259.32 75.4273 1260.29 75.6573 1261.09 76.1473L1261.32 76.292C1263.13 77.4062 1264.94 78.5198 1268 78.3473C1269.49 78.8922 1270.99 79.4395 1272.48 79.9869C1273.97 80.5345 1275.46 81.0822 1276.96 81.6273C1277.11 82.7655 1278.22 82.6284 1279.3 82.4963C1279.78 82.4368 1280.25 82.3784 1280.63 82.4373C1284.33 83.0073 1288.06 83.3873 1291.79 81.9973C1293.11 81.5073 1295.09 81.5873 1296.62 82.0373C1299.41 82.859 1302.35 82.743 1305.29 82.6272C1306.21 82.5908 1307.13 82.5545 1308.05 82.5473C1309.01 82.5373 1310.13 82.1073 1310.92 81.7073C1313.39 80.4473 1315.63 80.5773 1318.55 81.2673C1318.73 81.3102 1318.92 81.355 1319.11 81.4005C1321.23 81.9064 1323.71 82.4974 1326.3 81.4973C1327.03 81.2173 1328.57 81.3873 1329.51 81.6273C1330.16 81.7917 1330.72 82.0628 1331.28 82.335C1331.78 82.5762 1332.29 82.8182 1332.85 82.9873C1333.23 83.0997 1333.62 83.0181 1334.05 82.9297C1334.58 82.8213 1335.15 82.7026 1335.81 82.9173C1338.32 83.7373 1338.84 83.7073 1340.67 83.2073L1340.77 83.1803C1342.45 82.7155 1342.59 82.6768 1345.47 83.6973C1346.09 83.918 1346.68 83.8013 1347.26 83.6869C1347.91 83.5577 1348.54 83.4314 1349.2 83.7973C1349.78 84.1201 1350.5 84.3687 1351.21 84.6177C1351.67 84.7775 1352.13 84.9375 1352.56 85.1173C1353.14 85.362 1353.7 85.6293 1354.26 85.8967C1354.76 86.132 1355.25 86.3673 1355.76 86.5873C1356.75 87.0073 1357.86 87.0373 1358.73 86.4873C1360.34 85.4573 1362.19 84.8673 1364.61 84.9373C1366.59 84.9973 1368.3 84.5273 1370.11 84.0073C1371.1 83.7252 1372.11 83.48 1373.13 83.2352C1375.93 82.56 1378.71 81.8884 1380.83 80.4573C1381.25 80.1773 1382.43 80.0173 1383.07 80.1373C1383.3 80.1782 1383.51 80.2329 1383.72 80.2863C1384.43 80.468 1385.08 80.6334 1385.95 80.1773C1388.99 78.5764 1392.54 77.4362 1396.08 76.2958C1398.85 75.406 1401.61 74.5162 1404.14 73.4073C1404.23 73.3678 1404.33 73.3443 1404.42 73.3205C1404.5 73.302 1404.58 73.2835 1404.65 73.2573C1404.76 73.2966 1404.87 73.3347 1404.98 73.3728C1405.17 73.4414 1405.37 73.5102 1405.56 73.5873C1406.14 73.832 1406.7 74.0993 1407.26 74.3667C1407.76 74.602 1408.25 74.8373 1408.76 75.0573C1409.75 75.4773 1410.86 75.5173 1411.73 74.9573C1413.34 73.9373 1415.19 73.3473 1417.61 73.4173C1419.59 73.4773 1421.3 73.0073 1423.11 72.4873C1424.08 72.213 1425.07 71.9722 1426.07 71.7314C1428.88 71.0506 1431.69 70.3705 1433.83 68.9373C1434.25 68.6473 1435.43 68.4973 1436.07 68.6073C1436.31 68.6474 1436.53 68.7035 1436.74 68.7582C1437.44 68.9358 1438.09 69.0983 1438.95 68.6473C1442.06 67.0173 1445.66 65.8573 1449.27 64.6973C1451.08 64.6073 1452.56 64.1473 1453.6 63.2273C1454.81 62.7973 1456.01 62.3673 1457.15 61.8673C1458.72 61.184 1460.43 61.2122 1462.12 61.2402C1462.61 61.2482 1463.1 61.2563 1463.58 61.2473C1465.45 61.2073 1466.4 60.7773 1467.49 59.8473C1469.4 58.2173 1471.98 57.0173 1475.88 57.7773C1476.42 57.8806 1477.15 57.6711 1477.88 57.4619C1478.21 57.3673 1478.54 57.2727 1478.85 57.2073C1479.34 57.1026 1479.84 56.9809 1480.33 56.8592C1481.38 56.5973 1482.43 56.3361 1483.52 56.2473C1483.97 56.2084 1484.43 56.1866 1484.88 56.1651C1486.89 56.0703 1488.82 55.9789 1489.6 54.4473C1490.31 54.3019 1490.99 54.0951 1491.67 53.8882C1493.18 53.4263 1494.7 52.9632 1496.61 53.1773C1497.35 53.255 1498.12 53.2249 1498.9 53.1947C1499.52 53.1705 1500.15 53.1462 1500.76 53.1773C1503.51 53.3073 1505.76 52.8173 1507.03 51.3273C1507.96 50.2473 1509.39 49.6373 1511.06 48.9673C1515.5 47.1873 1519.43 45.0773 1520.47 41.7873C1520.74 40.9373 1521.43 40.2773 1522.45 39.6873C1522.73 39.5263 1523.05 39.3788 1523.38 39.2319C1523.98 38.9591 1524.57 38.6883 1524.87 38.3373C1526.59 36.2976 1529.65 35.2189 1532.71 34.142C1533.61 33.8251 1534.51 33.5084 1535.37 33.1673C1536.39 33.1373 1537.38 33.0273 1538.33 32.8473C1538.72 32.8773 1539.1 32.7973 1539.46 32.6273C1539.54 32.6131 1539.62 32.5977 1539.69 32.5819C1539.83 32.5531 1539.97 32.5231 1540.11 32.4973C1540.53 32.4152 1540.94 32.3106 1541.33 32.2103C1541.85 32.0785 1542.34 31.9541 1542.79 31.8973C1542.98 31.9273 1543.16 31.9473 1543.36 31.9973C1543.54 32.0473 1543.76 32.0273 1544.01 31.9873C1544.46 32.1373 1544.87 32.4373 1545.21 33.0373C1545.37 33.3073 1546.01 33.1873 1546.2 32.7473C1546.51 32.0696 1547.08 32.1018 1547.8 32.1418C1548.04 32.1555 1548.31 32.1701 1548.58 32.1573C1550.09 32.0773 1551.83 31.5773 1552.94 30.9373C1556.01 29.1773 1559.41 29.1173 1562.84 30.0273C1564.79 30.5473 1565.93 30.1673 1567.23 29.4773L1567.27 29.4573C1568.51 28.7947 1569.68 28.1749 1571.55 28.9273C1572.35 29.2473 1573.66 29.3573 1574.68 29.2673C1575.66 29.1847 1576.63 29.0324 1577.61 28.8803C1578.75 28.7012 1579.89 28.5222 1581.05 28.4573C1581.92 28.411 1582.68 28.6394 1583.46 28.8741C1584.37 29.1459 1585.31 29.4261 1586.47 29.2973C1587.83 29.1455 1589.21 29.1335 1590.6 29.1215C1593.05 29.1003 1595.51 29.079 1597.88 28.2873C1598.8 27.9806 1600.06 28.0148 1601.31 28.0487C1601.81 28.0623 1602.31 28.0759 1602.79 28.0673C1603.67 28.055 1604.55 28.0718 1605.43 28.0886C1608.14 28.1399 1610.84 28.1913 1613.44 27.4073C1613.8 27.3073 1614.49 27.3873 1614.87 27.5273C1617.2 28.3473 1619.06 27.8973 1620.76 26.8073C1620.95 26.6873 1621.19 26.5873 1621.42 26.4973C1623.27 25.7473 1625.02 25.8273 1626.76 26.5973C1627.61 26.9773 1628.56 27.2973 1629.49 27.6073C1629.7 27.6773 1630.13 27.6873 1630.3 27.6073C1631.5 27.0612 1632.67 27.2695 1633.84 27.4773C1634.75 27.6386 1635.65 27.7996 1636.57 27.6073L1636.65 27.5921C1636.89 27.545 1637.19 27.4864 1637.26 27.3873C1638.67 25.5608 1640.11 26.3024 1641.57 27.0534C1641.72 27.1288 1641.86 27.2043 1642.01 27.2773C1642.2 27.3773 1642.52 27.4973 1642.72 27.4673C1643.36 27.3659 1644 27.2481 1644.64 27.1305C1645.57 26.9581 1646.5 26.7862 1647.45 26.6673C1648.06 26.5867 1648.6 26.7465 1649.16 26.911C1649.99 27.1547 1650.86 27.4088 1652.02 26.9073L1652.08 26.8817C1653.22 26.3852 1654.67 25.7538 1656.48 26.1273C1657.67 26.3739 1658.94 26.5018 1660.21 26.6298C1662.69 26.8807 1665.18 27.1317 1667.11 28.2773C1667.88 28.7373 1668.68 29.1773 1669.53 29.5773C1669.9 29.7473 1670.69 29.9773 1670.85 29.8973C1671.7 29.4578 1672.79 29.3699 1673.88 29.282C1675.26 29.17 1676.65 29.0581 1677.53 28.2173C1678.21 27.5573 1679.19 27.5073 1680.3 27.9273C1680.69 28.0739 1681.24 28.103 1681.74 28.1299L1681.88 28.1373C1683.12 28.2002 1684.22 27.9047 1685.33 27.6079C1686.51 27.2915 1687.69 26.9738 1689.06 27.0873C1691.69 27.3073 1693.96 26.5673 1696.12 25.8273C1698.49 25.0173 1700.79 24.8773 1703.19 25.5673C1705.07 26.1073 1706.89 26.1173 1708.69 25.3873L1708.7 25.385C1708.92 25.295 1709.25 25.1577 1709.41 25.1973C1712.37 25.9873 1715.07 26.0473 1717.29 24.2973C1717.32 24.2684 1717.5 24.3212 1717.72 24.389C1718.03 24.4856 1718.45 24.6126 1718.7 24.5773C1720.27 24.3532 1721.8 24.5078 1723.32 24.6628C1724.66 24.7982 1725.99 24.9339 1727.37 24.8173C1728.46 24.7273 1729.27 25.1473 1729.95 25.7573C1730.42 26.1867 1731.09 26.5439 1731.76 26.9022C1732.26 27.1698 1732.77 27.438 1733.19 27.7373L1733.22 27.7581C1733.75 28.1354 1734.06 28.353 1735.03 28.1173C1737.61 27.4875 1740.27 27.533 1742.93 27.5785C1743.86 27.5944 1744.79 27.6103 1745.72 27.5973C1747.39 27.5773 1748.07 28.1673 1748.39 29.0573C1748.54 29.4873 1748.98 30.1373 1749.49 30.2073C1749.96 30.2694 1750.35 30.4396 1750.75 30.6091C1751.43 30.9038 1752.11 31.1966 1753.16 30.9173C1754.4 30.5845 1754.72 31.0217 1755.03 31.4563C1755.25 31.7531 1755.46 32.0486 1755.97 32.0973L1756.23 32.1208C1758.9 32.3656 1761.74 32.6249 1763.82 31.3073C1764.85 30.6499 1766.12 30.4731 1767.38 30.2989C1768.24 30.1791 1769.09 30.0605 1769.85 29.7873C1770.92 29.4009 1771.24 29.79 1771.59 30.2057L1771.6 30.2173C1772.56 31.3473 1774.12 31.2273 1775.82 30.8873C1776.03 30.8436 1776.24 30.76 1776.45 30.6761C1776.97 30.4719 1777.5 30.2659 1778 30.6273C1779.12 31.4356 1780.74 31.7231 1782.36 32.011C1784.11 32.3214 1785.86 32.6323 1786.99 33.5973C1787.67 34.1873 1789.26 34.0373 1790.08 33.7173C1791.02 33.358 1791.95 33.3844 1792.87 33.4103C1793.46 33.4269 1794.04 33.4433 1794.61 33.3573C1794.69 33.3449 1794.77 33.332 1794.85 33.3193C1795.58 33.1996 1796.19 33.1009 1796.53 33.6073C1796.95 34.2373 1797.44 34.8073 1798.77 34.7373C1801.29 34.6073 1803.71 34.5173 1805.92 35.4673C1806.42 35.6811 1807.11 35.4716 1807.75 35.2743C1808.5 35.0471 1809.19 34.8363 1809.48 35.3073C1810.01 36.1601 1811.3 36.3748 1812.57 36.5848C1813.94 36.8131 1815.28 37.0359 1815.57 38.0673C1815.61 38.2073 1816.5 38.3673 1816.99 38.3473C1819.9 38.2373 1821.71 38.7173 1821.86 40.6773C1821.92 41.3412 1823.47 41.2426 1824.58 41.1724L1824.66 41.1673C1825.81 41.1002 1826.65 40.6681 1827.49 40.2339C1828.54 39.6983 1829.58 39.1592 1831.23 39.2973C1833.47 39.4873 1835.56 39.1573 1837.57 38.3773C1838.87 37.8673 1840.63 38.2973 1841.54 39.3273C1842.7 40.6173 1844.27 41.1173 1846.85 41.0073C1849.85 40.8873 1852.76 40.9573 1855.78 41.5973C1858.44 42.1673 1860.83 42.7373 1862.68 43.9473C1863.64 44.5773 1864.43 44.3973 1865.48 43.9873C1866.54 43.5773 1867.61 43.8273 1868.44 44.3073C1870.19 45.3173 1871.93 46.3373 1873.62 47.3773L1873.75 47.4587C1875.41 48.4804 1877.02 49.4691 1879.77 49.5373C1881.2 49.5673 1882.09 50.2573 1882.94 50.9173C1884.34 51.9973 1886.53 52.4873 1888.34 52.0673C1889.25 51.856 1890.13 51.5941 1891 51.3325C1891.86 51.0741 1892.73 50.816 1893.62 50.6073C1896.41 49.9473 1899.05 49.9773 1901.11 51.4373C1901.48 51.7042 1901.93 51.9643 1902.38 52.2243C1903.38 52.8021 1904.38 53.379 1904.52 54.0273C1904.92 55.8873 1906.72 55.9673 1909.08 55.8873C1909.48 55.8748 1909.89 55.8714 1910.3 55.868C1911.85 55.8551 1913.41 55.842 1914.78 55.3273C1916.45 54.7038 1918.42 54.61 1920 54.7991V2Z" fill="black"></path><rect y="-17" width="1920" height="19" fill="black"></rect><path fill-rule="evenodd" clip-rule="evenodd" d="M1990.72 41.564L1989.56 41.6173L1989.54 41.7173L1989.72 41.69C1990 41.6463 1990.28 41.6022 1990.6 41.5904C1989.65 41.7941 1988.69 41.7806 1987.73 41.767C1987.04 41.7573 1986.36 41.7477 1985.68 41.8173C1984.89 41.8984 1984.09 41.9946 1983.3 42.0911C1980.18 42.4707 1977.03 42.8535 1973.72 42.3273C1972.09 42.0673 1969.9 42.1173 1968.08 42.8073C1966.71 43.322 1965.14 43.3351 1963.59 43.348C1963.19 43.3514 1962.78 43.3548 1962.38 43.3673C1960.02 43.4473 1958.21 43.3673 1957.82 41.4973C1957.68 40.849 1956.68 40.272 1955.68 39.6942C1955.23 39.4343 1954.78 39.1742 1954.41 38.9073C1952.35 37.4473 1949.71 37.4173 1946.92 38.0773C1946.02 38.286 1945.16 38.5441 1944.3 38.8024C1943.42 39.064 1942.55 39.326 1941.64 39.5373C1940.46 39.8073 1939.14 39.6673 1937.96 39.2573L1938.51 53.0473C1938.3 53.0073 1938.11 52.9873 1937.98 53.0273C1936.91 53.3277 1935.82 53.3124 1934.73 53.297C1934.04 53.2873 1933.36 53.2777 1932.68 53.3473C1931.89 53.4283 1931.1 53.5244 1930.3 53.6207C1927.18 54.0004 1924.02 54.3837 1920.72 53.8573C1919.08 53.5973 1916.9 53.6473 1915.08 54.3273C1913.71 54.842 1912.14 54.8551 1910.59 54.868C1910.19 54.8714 1909.78 54.8748 1909.38 54.8873C1907.02 54.9673 1905.22 54.8873 1904.82 53.0273C1904.68 52.379 1903.68 51.802 1902.68 51.2242C1902.23 50.9643 1901.78 50.7042 1901.41 50.4373C1899.35 48.9773 1896.71 48.9473 1893.92 49.6073C1893.02 49.816 1892.16 50.0741 1891.3 50.3324C1890.42 50.594 1889.55 50.856 1888.64 51.0673C1886.83 51.4873 1884.64 50.9973 1883.24 49.9173C1882.39 49.2573 1881.5 48.5673 1880.07 48.5373C1877.32 48.4691 1875.71 47.4804 1874.05 46.4587L1873.92 46.3773C1872.23 45.3373 1870.49 44.3173 1868.74 43.3073C1867.91 42.8273 1866.84 42.5773 1865.78 42.9873C1864.73 43.3973 1863.94 43.5773 1862.98 42.9473C1861.13 41.7373 1858.74 41.1673 1856.08 40.5973C1853.06 39.9573 1850.15 39.8873 1847.15 40.0073C1844.57 40.1173 1843 39.6173 1841.84 38.3273C1840.93 37.2973 1839.17 36.8673 1837.87 37.3773C1835.86 38.1573 1833.77 38.4873 1831.53 38.2973C1829.88 38.1592 1828.83 38.6982 1827.79 39.2338C1826.95 39.6681 1826.11 40.1001 1824.96 40.1673L1824.88 40.1723C1823.77 40.2425 1822.22 40.3412 1822.16 39.6773C1822.01 37.7173 1820.2 37.2373 1817.29 37.3473C1816.8 37.3673 1815.91 37.2073 1815.87 37.0673C1815.58 36.0359 1814.24 35.8131 1812.86 35.5847C1811.6 35.3747 1810.31 35.16 1809.78 34.3073C1809.48 33.8363 1808.79 34.0471 1808.05 34.2743C1807.41 34.4715 1806.72 34.6811 1806.22 34.4673C1804.01 33.5173 1801.59 33.6073 1799.07 33.7373C1797.74 33.8073 1797.25 33.2373 1796.83 32.6073C1796.48 32.1009 1795.88 32.1996 1795.15 32.3193C1795.07 32.3319 1794.99 32.3448 1794.91 32.3573C1794.34 32.4433 1793.76 32.4269 1793.17 32.4103C1792.25 32.3844 1791.32 32.358 1790.38 32.7173C1789.56 33.0373 1787.97 33.1873 1787.29 32.5973C1786.16 31.6322 1784.41 31.3213 1782.66 31.0109C1781.04 30.7231 1779.41 30.4356 1778.3 29.6273C1777.8 29.2659 1777.27 29.4719 1776.75 29.676C1776.54 29.76 1776.33 29.8436 1776.12 29.8873C1774.42 30.2273 1772.86 30.3473 1771.9 29.2173L1771.89 29.2056C1771.54 28.79 1771.22 28.4009 1770.15 28.7873C1769.39 29.0605 1768.54 29.1791 1767.67 29.2989C1766.42 29.473 1765.15 29.6499 1764.12 30.3073C1762.04 31.6249 1759.2 31.3656 1756.53 31.1208L1756.27 31.0973C1755.76 31.0486 1755.55 30.753 1755.33 30.4563C1755.02 30.0216 1754.7 29.5845 1753.46 29.9173C1752.41 30.1966 1751.73 29.9037 1751.05 29.6091C1750.65 29.4395 1750.26 29.2694 1749.79 29.2073C1749.28 29.1373 1748.84 28.4873 1748.69 28.0573C1748.37 27.1673 1747.69 26.5773 1746.02 26.5973C1745.09 26.6102 1744.16 26.5943 1743.23 26.5784C1740.57 26.533 1737.91 26.4875 1735.33 27.1173C1734.36 27.353 1734.05 27.1354 1733.52 26.7581L1733.49 26.7373C1733.07 26.438 1732.56 26.1698 1732.06 25.9022C1731.39 25.5439 1730.72 25.1866 1730.25 24.7573C1729.57 24.1473 1728.76 23.7273 1727.67 23.8173C1726.29 23.9339 1724.96 23.7982 1723.62 23.6628C1722.1 23.5078 1720.57 23.3532 1719 23.5773C1718.75 23.6125 1718.33 23.4856 1718.02 23.389C1717.79 23.3212 1717.62 23.2684 1717.59 23.2973C1715.37 25.0473 1712.67 24.9873 1709.71 24.1973C1709.55 24.1573 1709.21 24.2973 1708.99 24.3873C1707.19 25.1173 1705.37 25.1073 1703.49 24.5673C1701.09 23.8773 1698.79 24.0173 1696.42 24.8273C1694.26 25.5673 1691.99 26.3073 1689.36 26.0873C1687.99 25.9738 1686.81 26.2915 1685.63 26.6078C1684.52 26.9046 1683.42 27.2002 1682.18 27.1373L1682.04 27.1298C1681.54 27.1029 1680.99 27.0738 1680.6 26.9273C1679.49 26.5073 1678.51 26.5573 1677.83 27.2173C1676.95 28.0581 1675.56 28.1699 1674.17 28.282C1673.09 28.3699 1672 28.4578 1671.15 28.8973C1670.99 28.9773 1670.2 28.7473 1669.83 28.5773C1668.98 28.1773 1668.18 27.7373 1667.41 27.2773C1665.48 26.1317 1662.99 25.8806 1660.51 25.6298C1659.24 25.5018 1657.97 25.3739 1656.78 25.1273C1654.97 24.7537 1653.52 25.3852 1652.38 25.8817L1652.32 25.9073C1651.15 26.4088 1650.29 26.1546 1649.46 25.9109C1648.9 25.7464 1648.36 25.5867 1647.75 25.6673C1646.8 25.7862 1645.87 25.9581 1644.94 26.1304C1644.3 26.2481 1643.66 26.3659 1643.02 26.4673C1642.82 26.4973 1642.5 26.3773 1642.31 26.2773C1642.16 26.2043 1642.01 26.1288 1641.87 26.0533C1640.41 25.3024 1638.97 24.5607 1637.56 26.3873C1637.49 26.4864 1637.19 26.5449 1636.95 26.5921L1636.87 26.6073C1635.95 26.7996 1635.05 26.6386 1634.14 26.4773C1632.97 26.2695 1631.8 26.0612 1630.6 26.6073C1630.43 26.6873 1630 26.6773 1629.79 26.6073C1628.86 26.2973 1627.91 25.9773 1627.06 25.5973C1625.32 24.8273 1623.57 24.7473 1621.72 25.4973C1621.49 25.5873 1621.25 25.6873 1621.06 25.8073C1619.36 26.8973 1617.5 27.3473 1615.17 26.5273C1614.79 26.3873 1614.1 26.3073 1613.74 26.4073C1611.14 27.1913 1608.43 27.1399 1605.73 27.0885C1604.85 27.0718 1603.97 27.055 1603.09 27.0673C1602.61 27.0759 1602.11 27.0623 1601.61 27.0487C1600.36 27.0148 1599.1 26.9805 1598.18 27.2873C1595.81 28.0789 1593.35 28.1002 1590.9 28.1214C1589.51 28.1335 1588.13 28.1454 1586.77 28.2973C1585.6 28.4261 1584.67 28.1459 1583.76 27.874C1582.98 27.6394 1582.22 27.411 1581.35 27.4573C1580.19 27.5222 1579.05 27.7011 1577.9 27.8803C1576.93 28.0324 1575.96 28.1846 1574.98 28.2673C1573.96 28.3573 1572.65 28.2473 1571.85 27.9273C1569.98 27.1749 1568.81 27.7947 1567.57 28.4573L1567.53 28.4773C1566.23 29.1673 1565.09 29.5473 1563.14 29.0273C1559.71 28.1173 1556.31 28.1773 1553.24 29.9373C1552.13 30.5773 1550.39 31.0773 1548.88 31.1573C1548.61 31.1701 1548.34 31.1554 1548.1 31.1417C1547.38 31.1018 1546.8 31.0696 1546.5 31.7473C1546.31 32.1873 1545.67 32.3073 1545.51 32.0373C1545.17 31.4373 1544.76 31.1373 1544.31 30.9873C1544.06 31.0273 1543.84 31.0473 1543.66 30.9973C1543.51 30.9593 1543.37 30.9386 1543.22 30.9177C1543.18 30.9111 1543.13 30.9045 1543.09 30.8973C1542.63 30.9541 1542.15 31.0785 1541.63 31.2102C1541.24 31.3106 1540.83 31.4151 1540.41 31.4973C1540.32 31.515 1540.22 31.5346 1540.12 31.5545C1540 31.5795 1539.88 31.605 1539.76 31.6273C1539.4 31.7973 1539.02 31.8773 1538.63 31.8473C1537.68 32.0273 1536.69 32.1373 1535.67 32.1673C1534.8 32.5083 1533.91 32.8251 1533.01 33.142C1529.95 34.2189 1526.89 35.2975 1525.17 37.3373C1524.87 37.6883 1524.27 37.959 1523.68 38.2319C1523.35 38.3788 1523.03 38.5263 1522.75 38.6873C1521.73 39.2773 1521.04 39.9373 1520.77 40.7873C1519.73 44.0773 1515.8 46.1873 1511.36 47.9673C1509.69 48.6373 1508.26 49.2473 1507.33 50.3273C1506.06 51.8173 1503.81 52.3073 1501.06 52.1773C1500.45 52.1461 1499.82 52.1704 1499.2 52.1947C1498.42 52.2249 1497.65 52.255 1496.91 52.1773C1495 51.9632 1493.48 52.4263 1491.97 52.8881C1491.29 53.0951 1490.61 53.3018 1489.9 53.4473C1489.12 54.9789 1487.19 55.0702 1485.18 55.1651C1484.73 55.1866 1484.27 55.2084 1483.82 55.2473C1482.73 55.3361 1481.68 55.5973 1480.62 55.8592C1480.13 55.9808 1479.64 56.1026 1479.15 56.2073C1478.84 56.2727 1478.51 56.3673 1478.18 56.4619C1477.45 56.671 1476.72 56.8806 1476.18 56.7773C1472.28 56.0173 1469.7 57.2173 1467.79 58.8473C1466.7 59.7773 1465.75 60.2073 1463.88 60.2473C1463.4 60.2562 1462.91 60.2482 1462.42 60.2401C1460.72 60.2121 1459.02 60.184 1457.45 60.8673C1456.31 61.3673 1455.11 61.7973 1453.9 62.2273C1452.86 63.1473 1451.38 63.6073 1449.57 63.6973C1445.96 64.8573 1442.36 66.0173 1439.25 67.6473C1438.38 68.0983 1437.74 67.9358 1437.04 67.7582C1436.83 67.7035 1436.6 67.6473 1436.37 67.6073C1435.73 67.4973 1434.55 67.6473 1434.13 67.9373C1431.99 69.3705 1429.18 70.0505 1426.37 70.7314C1425.37 70.9721 1424.38 71.213 1423.41 71.4873C1421.6 72.0073 1419.89 72.4773 1417.91 72.4173C1415.49 72.3473 1413.64 72.9373 1412.03 73.9573C1411.16 74.5173 1410.05 74.4773 1409.06 74.0573C1408.55 73.8373 1408.06 73.602 1407.56 73.3667C1407 73.0993 1406.44 72.832 1405.86 72.5873C1405.67 72.5102 1405.47 72.4413 1405.28 72.3728C1405.17 72.3347 1405.06 72.2966 1404.95 72.2573C1404.87 72.2835 1404.8 72.302 1404.72 72.3204C1404.63 72.3442 1404.53 72.3678 1404.44 72.4073C1401.91 73.5161 1399.14 74.406 1396.38 75.2957C1392.84 76.4361 1389.29 77.5764 1386.25 79.1773C1385.37 79.6334 1384.73 79.468 1384.02 79.2863C1383.81 79.2329 1383.6 79.1782 1383.37 79.1373C1382.73 79.0173 1381.55 79.1773 1381.13 79.4573C1379.01 80.8883 1376.22 81.56 1373.43 82.2351C1372.41 82.4799 1371.4 82.7252 1370.41 83.0073C1368.6 83.5273 1366.89 83.9973 1364.91 83.9373C1362.49 83.8673 1360.64 84.4573 1359.03 85.4873C1358.16 86.0373 1357.05 86.0073 1356.06 85.5873C1355.55 85.3673 1355.06 85.132 1354.56 84.8967C1354 84.6293 1353.44 84.362 1352.86 84.1173C1352.43 83.9375 1351.97 83.7775 1351.51 83.6177C1350.8 83.3687 1350.08 83.1201 1349.5 82.7973C1348.84 82.4314 1348.21 82.5576 1347.56 82.6869C1346.98 82.8013 1346.39 82.918 1345.77 82.6973C1342.89 81.6767 1342.75 81.7154 1341.07 82.1803L1340.97 82.2073C1339.14 82.7073 1338.62 82.7373 1336.11 81.9173C1335.45 81.7025 1334.88 81.8213 1334.35 81.9297C1333.92 82.0181 1333.53 82.0996 1333.15 81.9873C1332.58 81.8181 1332.08 81.5761 1331.58 81.3349C1331.02 81.0628 1330.46 80.7916 1329.81 80.6273C1328.87 80.3873 1327.33 80.2173 1326.6 80.4973C1324.01 81.4974 1321.53 80.9064 1319.41 80.4004C1319.22 80.355 1319.03 80.3102 1318.85 80.2673C1315.93 79.5773 1313.69 79.4473 1311.22 80.7073C1310.43 81.1073 1309.31 81.5373 1308.35 81.5473C1307.43 81.5545 1306.51 81.5908 1305.59 81.6272C1302.65 81.7429 1299.71 81.859 1296.92 81.0373C1295.39 80.5873 1293.41 80.5073 1292.09 80.9973C1288.36 82.3873 1284.63 82.0073 1280.93 81.4373C1280.55 81.3784 1280.08 81.4368 1279.6 81.4962C1278.52 81.6284 1277.41 81.7655 1277.26 80.6273C1275.76 80.0821 1274.27 79.5345 1272.78 78.9868C1271.29 78.4395 1269.79 77.8921 1268.3 77.3473C1265.24 77.5198 1263.43 76.4062 1261.62 75.292L1261.39 75.1473C1260.59 74.6573 1259.62 74.4273 1258.46 74.4173C1258.37 74.4173 1258.29 74.4178 1258.2 74.4182C1257.73 74.4208 1257.25 74.4235 1256.8 74.3473C1256.11 74.2423 1255.39 74.162 1254.67 74.0815C1252.92 73.8861 1251.16 73.6898 1249.87 73.1373C1248.74 72.6526 1247.56 72.8427 1246.44 73.0256C1245.21 73.2239 1244.04 73.4139 1243.03 72.7273C1242.13 72.7432 1241.26 72.5651 1240.44 72.3958C1239.71 72.2457 1239.02 72.1026 1238.36 72.1073C1237.51 72.1208 1236.66 72.645 1235.8 73.175C1235.38 73.4298 1234.97 73.686 1234.55 73.8873C1234.18 74.0573 1233.29 74.2473 1233.28 74.2373C1231.67 72.4507 1230.55 73.207 1229.44 73.9598C1228.7 74.4543 1227.97 74.9472 1227.11 74.7173C1226.98 74.6815 1226.81 74.6991 1226.63 74.717C1226.52 74.7291 1226.4 74.7413 1226.29 74.7373C1226.03 74.7261 1225.77 74.7226 1225.51 74.7191C1224.14 74.7005 1222.78 74.6819 1222.41 73.5473C1222.27 73.1273 1221.7 73.0473 1221.18 73.3073C1219.48 74.1673 1217.63 74.6773 1215.37 75.0473C1213.47 75.3573 1212.41 75.4373 1211.18 74.6273C1210.87 74.4273 1210.06 74.1873 1209.85 74.2773C1208.92 74.6631 1207.84 74.8115 1206.76 74.9607C1205.43 75.144 1204.09 75.3288 1202.99 75.9573C1201.52 76.7973 1200.42 76.6773 1199.96 75.8173C1199.3 74.5795 1197.85 73.7582 1196.4 72.9354C1195.92 72.6613 1195.43 72.3871 1194.98 72.0973C1193.63 71.2373 1192.78 71.5373 1192.25 72.5573C1192.2 72.6506 1192.07 72.7351 1191.95 72.8196C1191.88 72.8618 1191.82 72.904 1191.77 72.9473C1190.69 72.3016 1189.28 72.2789 1187.86 72.2562C1186.49 72.2342 1185.13 72.2122 1184.06 71.6273C1183.79 71.483 1183.53 71.3367 1183.27 71.1905C1181.76 70.3437 1180.25 69.4978 1178.25 69.0373C1176.64 66.6173 1173.88 65.9873 1169.83 67.2773C1169.71 67.3099 1169.45 67.2095 1169.24 67.1279C1169.19 67.1095 1169.15 67.092 1169.11 67.0773C1166.82 66.2073 1164.9 66.6573 1163.21 67.7373C1161.65 68.7273 1159.56 68.7473 1157.77 68.4773C1157.63 68.4577 1157.5 68.4381 1157.36 68.4184C1154.87 68.0575 1152.12 67.6589 1151.12 66.0373C1150.61 65.2134 1149.44 64.8926 1148.28 64.5757C1147.21 64.2848 1146.16 63.9973 1145.65 63.3273C1144.03 63.2563 1142.76 63.7457 1141.52 64.2207C1141.19 64.3476 1140.86 64.4734 1140.53 64.5873C1139.23 65.0343 1137.92 64.8671 1136.63 64.7007C1135.31 64.532 1134 64.3641 1132.71 64.8373C1132.49 64.9173 1131.61 64.6573 1131.44 64.4473C1131.21 64.1476 1131.04 63.8265 1130.87 63.5059C1130.64 63.0669 1130.41 62.6287 1130.02 62.2473C1129.33 61.5773 1128.32 60.9873 1127.31 60.4573C1126.57 60.0726 1126.69 59.6123 1126.82 59.1395C1126.94 58.7028 1127.07 58.2554 1126.51 57.8473C1126.29 57.6889 1126.1 57.5232 1125.92 57.3593C1125.39 56.8918 1124.87 56.4394 1123.8 56.2173C1121.85 55.814 1120.77 54.8911 1119.68 53.9663C1118.78 53.1941 1117.87 52.4205 1116.46 51.9473C1116.59 49.7745 1113.96 49.0294 1111.36 48.2924C1111.02 48.195 1110.67 48.0977 1110.34 47.9973C1109.91 47.8673 1108.94 47.8273 1108.79 47.9573C1107.69 48.9352 1106.41 48.7102 1105.16 48.4921C1104.38 48.3556 1103.62 48.2218 1102.93 48.3873C1101.94 48.6175 1101.33 48.4451 1100.69 48.2633C1100.47 48.2003 1100.25 48.1362 1100 48.0873C1099.12 47.912 1098.43 48.1634 1097.75 48.4147C1097.26 48.5936 1096.77 48.7723 1096.21 48.7973C1095.73 48.8173 1095.11 48.6973 1094.75 48.5173C1093.62 47.947 1092.31 47.9471 1090.93 47.9473L1090.86 47.9473C1090.07 47.9473 1088.91 47.9273 1088.57 47.6373C1086.69 46.0799 1083.9 45.3955 1081.11 44.7122C1079.91 44.4171 1078.71 44.1222 1077.58 43.7573C1077.44 43.7111 1077.29 43.6654 1077.15 43.6199C1075.13 42.9752 1073.22 42.3644 1072.42 40.9073C1071.97 40.0966 1070.63 39.7811 1069.27 39.4637C1069.04 39.4091 1068.81 39.3545 1068.58 39.2973C1068.36 39.2439 1068.14 39.1928 1067.92 39.1412C1066.69 38.8553 1065.4 38.5568 1064.6 37.7773C1063.61 36.8207 1062.54 35.8903 1061.48 34.9607C1059.83 33.5191 1058.18 32.0794 1056.81 30.5473C1055.71 29.3173 1054.39 28.9773 1052.37 28.9773C1051.23 28.9773 1050.29 28.8173 1049.33 28.4173C1048.57 28.1096 1047.83 27.7907 1047.09 27.4716C1043.7 26.0172 1040.31 24.5609 1035.88 24.1673C1035.23 24.1055 1034.62 23.7863 1034.07 23.4991C1034 23.461 1033.93 23.4235 1033.86 23.3873C1033.5 23.1979 1033.15 22.9995 1032.81 22.8013C1031.6 22.11 1030.4 21.4204 1028.68 21.1173C1027.76 19.4207 1025.38 19.5239 1023.19 19.619C1022.95 19.6293 1022.72 19.6395 1022.49 19.6473C1021.5 19.6787 1020.53 19.9073 1019.56 20.1374C1018.98 20.2737 1018.4 20.4106 1017.81 20.5073C1016.74 20.6773 1015.61 20.7473 1014.75 20.2173C1013.62 19.5073 1012.26 19.0273 1010.79 18.5573C1010.2 18.369 1009.8 18.0642 1009.38 17.7446C1008.86 17.3513 1008.32 16.9356 1007.36 16.6873C1003.18 15.5873 999.259 14.1773 995.899 12.2773C993.949 11.1773 991.408 10.4473 988.558 10.3573C986.859 10.2973 985.398 10.0973 983.938 9.53729C982.628 9.02729 980.979 8.62729 979.409 8.56729C977.539 8.48729 976.359 8.01729 975.188 7.30729C973.954 6.54685 972.666 5.81984 971.379 5.09345C971.092 4.93149 970.805 4.76955 970.519 4.60729C966.252 2.19002 966.067 2.16564 960.709 1.4615L960.069 1.37729C959.045 1.24141 958.406 1.39301 957.695 1.56147C957.516 1.60377 957.333 1.64714 957.139 1.68729C955.549 2.01729 953.899 2.02729 952.249 1.78729C944.739 0.687289 942.999 0.727289 935.419 1.98729C933.519 2.30729 931.559 2.44729 929.819 1.76729C928.589 1.28729 927.079 1.00729 925.929 1.43729C923.604 2.32008 921.151 2.31839 918.669 2.31667C918.396 2.31649 918.122 2.3163 917.849 2.31729C916.379 2.31729 915.109 2.62729 914.099 3.23729C913.019 3.89729 912.139 3.94729 910.559 3.61729C910.327 3.56859 910.093 3.51722 909.857 3.46532C907.423 2.93116 904.734 2.3411 902.419 4.02729C902.359 4.07347 902.128 4.02155 901.86 3.96114C901.547 3.89075 901.183 3.80885 900.979 3.85729C899.714 4.18472 898.423 4.00517 897.126 3.82487C895.532 3.60319 893.93 3.38038 892.359 4.09729C892.317 4.11819 892.011 3.92067 891.653 3.68953C891.155 3.36772 890.557 2.98073 890.429 3.02729C888.651 3.63709 887.201 3.30587 885.653 2.95255C885.424 2.90029 885.193 2.84754 884.959 2.79729C884.069 2.60729 882.719 2.76729 881.809 3.04729C880.409 3.47729 880.059 3.14729 879.489 2.49729C877.472 0.148544 819.2 10.9974 795.792 15.3554C790.996 16.2483 787.664 16.8687 786.579 17.0473C770.083 19.7611 753.974 27.6313 737.716 35.5741C715.034 46.6553 692.063 57.8779 667.349 55.4373C664.039 55.1073 661.329 55.9973 658.919 57.1073C656.909 58.0373 654.769 58.7873 652.469 59.3473C651.243 59.6473 650.263 60.1266 649.276 60.6094C648.355 61.06 647.428 61.5135 646.289 61.8273C644.059 62.4473 642.759 62.3673 641.239 61.4373C641.189 61.4077 641.139 61.3763 641.087 61.3442C640.615 61.0505 640.037 60.6908 639.199 60.9973C638.374 61.2946 637.504 61.5342 636.633 61.7744C635.042 62.2127 633.446 62.6526 632.109 63.4473C629.159 65.1873 624.749 65.9073 621.689 65.5073C615.049 64.6373 614.429 64.6773 608.229 66.3673C607.955 66.4453 607.658 66.4923 607.359 66.5393C607.122 66.5767 606.884 66.6142 606.659 66.6673C605.635 66.9033 604.601 67.1313 603.567 67.3595C599.692 68.2145 595.802 69.0728 592.329 70.3673C590.079 71.2073 588.099 71.7873 585.489 71.8273C582.029 71.8873 577.489 72.8373 574.029 74.1073C573.969 74.1294 573.912 74.1516 573.855 74.1734C573.218 74.4172 572.7 74.6153 571.939 74.2573C570.759 73.7073 569.159 73.6673 568.029 74.0573C564.549 75.2673 561.299 75.0373 557.739 74.3073C555.459 73.8373 552.879 73.7773 550.479 74.5373C549.769 74.7673 548.909 74.9573 548.119 74.9573C547.843 74.9573 547.572 74.968 547.299 74.9788C547.117 74.986 546.933 74.9933 546.749 74.9973C546.685 75.0559 546.618 75.1084 546.551 75.1612C546.468 75.2255 546.385 75.2904 546.309 75.3673C544.619 77.0273 542.429 78.3573 538.749 78.7673C536.109 79.0573 533.819 79.9073 532.299 81.5173C531.577 82.2847 530.475 82.8955 529.364 83.5115C528.028 84.252 526.679 85.0001 525.959 86.0373C525.789 86.2773 525.099 86.5573 524.659 86.5573C523.739 86.5573 522.849 86.8061 521.956 87.0559C520.342 87.5071 518.717 87.9614 516.889 86.9573C516.459 86.7173 515.279 87.0073 514.839 87.4973C513.369 89.1373 511.559 90.3573 508.099 90.7973C505.329 91.1473 503.089 92.4673 502.899 94.2273C502.729 95.8173 501.579 96.8673 499.759 98.0073C499.436 98.2094 499.13 98.4212 498.836 98.6389C499.061 98.6257 499.259 98.6519 499.389 98.7273C501.202 99.7498 502.83 99.3125 504.446 98.878C505.344 98.6369 506.238 98.3966 507.159 98.4073C507.599 98.4073 508.299 98.1373 508.469 97.8973C509.196 96.8638 510.557 96.1263 511.903 95.3971C513.019 94.7928 514.124 94.1941 514.849 93.4373C516.379 91.8473 518.669 91.0173 521.319 90.7573C524.999 90.3873 527.199 89.0873 528.909 87.4373C528.99 87.3617 529.079 87.2928 529.166 87.2248C529.228 87.1759 529.29 87.1275 529.349 87.0773C529.504 87.0739 529.658 87.0694 529.811 87.0649C530.113 87.0561 530.414 87.0473 530.719 87.0473C531.499 87.0473 532.359 86.8673 533.079 86.6473C535.489 85.9073 538.069 85.9973 540.339 86.4873C543.889 87.2573 547.139 87.5173 550.629 86.3473C551.759 85.9673 553.359 86.0173 554.539 86.5873C555.291 86.954 555.807 86.766 556.45 86.5318C556.509 86.5106 556.568 86.4889 556.629 86.4673C560.099 85.2373 564.639 84.3273 568.109 84.3073C570.729 84.2973 572.709 83.7373 574.969 82.9173C578.471 81.6466 582.39 80.8237 586.299 80.0029C587.312 79.7901 588.325 79.5775 589.329 79.3573C589.553 79.309 589.786 79.2742 590.02 79.2394C590.319 79.1948 590.618 79.1502 590.899 79.0773C597.119 77.4473 597.739 77.4073 604.369 78.3473C607.429 78.7773 611.849 78.1073 614.809 76.3973C616.163 75.6098 617.775 75.1823 619.381 74.7565C620.242 74.5281 621.102 74.3001 621.919 74.0173C622.772 73.7147 623.355 74.0932 623.824 74.3971C623.867 74.4246 623.908 74.4516 623.949 74.4773C625.459 75.4173 626.759 75.5173 628.999 74.9173C630.132 74.6147 631.061 74.1714 631.982 73.7313C632.979 73.2553 633.967 72.7831 635.199 72.4973C637.509 71.9673 639.659 71.2373 641.679 70.3273C644.089 69.2473 646.809 68.3873 650.119 68.7473C674.805 71.4385 697.89 60.4487 720.684 49.5976C737.021 41.8202 753.208 34.1141 769.729 31.5673C770.801 31.4012 774.067 30.8272 778.77 30.0005C802.095 25.9009 860.783 15.5856 862.789 17.9573C863.349 18.6173 863.689 18.9373 865.099 18.5273C866.019 18.2673 867.379 18.1173 868.259 18.3173C868.482 18.368 868.703 18.4207 868.922 18.4731C870.473 18.8444 871.931 19.1933 873.719 18.5973C873.849 18.5499 874.465 18.9562 874.966 19.2864C875.309 19.5129 875.598 19.7036 875.639 19.6873C877.216 18.9868 878.815 19.2234 880.407 19.4589C881.701 19.6504 882.99 19.8412 884.259 19.5273C884.458 19.4789 884.819 19.5636 885.13 19.6366C885.398 19.6994 885.629 19.7535 885.689 19.7073C888.006 18.0536 890.678 18.662 893.105 19.2146C893.349 19.2702 893.59 19.3252 893.829 19.3773C895.409 19.7173 896.279 19.6773 897.369 19.0373C898.389 18.4373 899.659 18.1573 901.129 18.1573C901.386 18.1592 901.643 18.162 901.9 18.1648C904.405 18.1921 906.869 18.2191 909.219 17.3573C910.379 16.9373 911.879 17.2373 913.109 17.7273C914.839 18.4173 916.799 18.2973 918.709 17.9973C926.299 16.8173 928.039 16.7873 935.539 17.9673C937.189 18.2273 938.829 18.2273 940.429 17.9173C940.626 17.8791 940.811 17.8376 940.991 17.7972C941.707 17.6369 942.346 17.4935 943.369 17.6373L944.1 17.7422C949.36 18.4953 949.576 18.5262 953.789 20.9773C954.031 21.1177 954.273 21.2578 954.516 21.3978C955.844 22.1659 957.17 22.9323 958.439 23.7273C959.589 24.4573 960.779 24.9473 962.639 25.0373C964.199 25.1173 965.849 25.5373 967.159 26.0573C968.609 26.6373 970.069 26.8473 971.769 26.9273C974.619 27.0573 977.159 27.8073 979.099 28.9273C982.439 30.8673 986.339 32.3173 990.509 33.4573C991.457 33.7204 991.997 34.1396 992.506 34.5355C992.927 34.8621 993.327 35.173 993.919 35.3673C995.379 35.8573 996.729 36.3473 997.859 37.0673C998.709 37.6173 999.849 37.5573 1000.92 37.3973C1001.51 37.3071 1002.1 37.176 1002.69 37.0454C1003.66 36.8282 1004.63 36.6123 1005.61 36.5873C1005.84 36.5823 1006.08 36.5749 1006.32 36.5674C1008.51 36.4993 1010.89 36.4253 1011.79 38.1273C1013.52 38.4478 1014.72 39.1534 1015.93 39.8618C1016.26 40.0595 1016.6 40.2575 1016.95 40.4473C1017.02 40.4829 1017.08 40.5196 1017.15 40.5568C1017.7 40.8543 1018.31 41.1851 1018.97 41.2473C1023.4 41.6819 1026.78 43.1723 1030.15 44.6596C1030.89 44.9861 1031.63 45.3124 1032.38 45.6273C1033.34 46.0373 1034.28 46.2073 1035.42 46.2173C1037.44 46.2373 1038.75 46.5873 1039.84 47.8373C1041.19 49.3799 1042.83 50.8376 1044.46 52.2957C1045.52 53.2384 1046.58 54.1813 1047.56 55.1473C1048.37 55.9393 1049.66 56.2526 1050.89 56.5505C1051.11 56.6025 1051.32 56.6539 1051.53 56.7073C1051.74 56.7612 1051.95 56.8133 1052.17 56.8654C1053.54 57.2 1054.92 57.5354 1055.36 58.3573C1056.15 59.8314 1058.06 60.4612 1060.07 61.1236C1060.21 61.1713 1060.35 61.219 1060.5 61.2673C1061.63 61.6463 1062.83 61.9545 1064.04 62.263C1066.81 62.972 1069.59 63.6825 1071.45 65.2573C1071.79 65.5473 1072.95 65.5873 1073.74 65.5873C1075.15 65.5973 1076.48 65.6073 1077.62 66.1973C1077.99 66.3873 1078.6 66.5173 1079.08 66.4973C1079.64 66.4765 1080.13 66.3003 1080.62 66.1244C1081.31 65.877 1082 65.6303 1082.88 65.8173C1083.12 65.8694 1083.34 65.9344 1083.55 65.9981C1084.2 66.1914 1084.81 66.3729 1085.81 66.1473C1086.5 65.9896 1087.26 66.1307 1088.03 66.2748C1089.27 66.5054 1090.56 66.7435 1091.67 65.7773C1091.82 65.6473 1092.79 65.6973 1093.22 65.8373C1093.56 65.9422 1093.9 66.0439 1094.25 66.1458C1096.84 66.9079 1099.45 67.6773 1099.3 69.8473C1100.71 70.3346 1101.61 71.1164 1102.51 71.8971C1103.58 72.8306 1104.65 73.7625 1106.6 74.1873C1107.68 74.4234 1108.18 74.8773 1108.71 75.3482C1108.89 75.5154 1109.08 75.6848 1109.3 75.8473C1109.86 76.2609 1109.73 76.7069 1109.61 77.143C1109.47 77.6137 1109.34 78.0728 1110.08 78.4673C1111.1 79.0073 1112.1 79.6073 1112.78 80.2873C1113.16 80.6711 1113.39 81.1075 1113.61 81.5456C1113.78 81.8722 1113.94 82.1998 1114.18 82.5073C1114.34 82.7173 1115.22 82.9873 1115.44 82.9073C1116.73 82.4502 1118.04 82.6314 1119.35 82.8135C1120.65 82.994 1121.95 83.1753 1123.26 82.7373C1123.59 82.6261 1123.92 82.5034 1124.25 82.3799C1125.5 81.9153 1126.78 81.4404 1128.4 81.5273C1128.9 82.2088 1129.95 82.5079 1131.02 82.8105C1132.17 83.1384 1133.34 83.4704 1133.84 84.2973C1134.82 85.9448 1137.59 86.368 1140.09 86.7501L1140.46 86.8073C1142.25 87.0873 1144.34 87.0873 1145.91 86.1173C1147.62 85.0573 1149.54 84.6273 1151.82 85.5173L1151.89 85.5458C1152.11 85.637 1152.41 85.7634 1152.54 85.7273C1156.6 84.4773 1159.36 85.1373 1160.94 87.5673C1162.92 88.0486 1164.42 88.9005 1165.9 89.75C1166.18 89.9066 1166.45 90.0632 1166.73 90.2173C1167.8 90.812 1169.17 90.8463 1170.53 90.8805C1171.95 90.916 1173.36 90.9513 1174.43 91.6073C1174.48 91.5718 1174.53 91.5364 1174.59 91.5004C1174.72 91.4146 1174.85 91.3259 1174.91 91.2273C1175.45 90.2173 1176.31 89.9173 1177.65 90.7973C1178.1 91.0912 1178.58 91.3702 1179.06 91.649C1180.5 92.4896 1181.94 93.3283 1182.59 94.5673C1183.04 95.4473 1184.14 95.5773 1185.62 94.7473C1186.72 94.13 1188.06 93.9593 1189.4 93.7897C1190.48 93.6516 1191.56 93.5143 1192.5 93.1373C1192.71 93.0473 1193.53 93.2873 1193.83 93.4973C1195.06 94.3173 1196.12 94.2473 1198.02 93.9573C1200.28 93.6073 1202.13 93.1273 1203.84 92.2773C1204.36 92.0173 1204.94 92.1073 1205.07 92.5273C1205.43 93.6753 1206.81 93.7046 1208.18 93.734C1208.44 93.7394 1208.69 93.7448 1208.94 93.7573C1209.05 93.7659 1209.18 93.7543 1209.3 93.743C1209.47 93.7278 1209.63 93.713 1209.76 93.7473C1210.62 93.9853 1211.36 93.4996 1212.1 93.0129C1213.22 92.2724 1214.35 91.5292 1215.94 93.3273C1215.95 93.3473 1216.84 93.1673 1217.21 92.9973C1217.64 92.7994 1218.06 92.5428 1218.49 92.2876C1219.35 91.7693 1220.19 91.2573 1221.04 91.2573C1221.71 91.2525 1222.42 91.4043 1223.16 91.5635C1223.97 91.736 1224.81 91.9173 1225.7 91.9173C1226.71 92.6147 1227.88 92.4372 1229.11 92.2518C1230.23 92.081 1231.41 91.9033 1232.54 92.3973C1233.84 92.9671 1235.61 93.1818 1237.36 93.3955C1238.07 93.4818 1238.78 93.568 1239.46 93.6773C1239.99 93.7573 1240.56 93.7573 1241.12 93.7573C1242.28 93.7773 1243.24 94.0173 1244.04 94.5173C1244.13 94.5752 1244.22 94.6334 1244.32 94.6915C1246.1 95.8077 1247.9 96.9299 1250.93 96.7873C1253.91 97.9173 1256.88 99.0373 1259.86 100.157C1260 101.298 1261.12 101.172 1262.2 101.052C1262.68 100.998 1263.15 100.946 1263.52 101.007C1267.22 101.627 1270.95 102.037 1274.69 100.687C1276.01 100.207 1277.99 100.307 1279.52 100.777C1282.29 101.62 1285.23 101.535 1288.16 101.449C1289.09 101.422 1290.02 101.395 1290.94 101.397C1291.9 101.397 1293.02 100.987 1293.82 100.587C1296.3 99.3573 1298.54 99.5173 1301.45 100.227C1301.64 100.272 1301.82 100.32 1302.02 100.368C1304.13 100.893 1306.61 101.509 1309.2 100.537C1309.93 100.267 1311.47 100.447 1312.41 100.697C1313.05 100.87 1313.6 101.146 1314.15 101.421C1314.66 101.671 1315.16 101.921 1315.73 102.097C1316.11 102.22 1316.51 102.143 1316.94 102.059C1317.46 101.959 1318.04 101.849 1318.69 102.067C1321.2 102.917 1321.71 102.887 1323.55 102.407L1323.65 102.38C1325.34 101.935 1325.49 101.898 1328.35 102.947C1328.97 103.172 1329.55 103.061 1330.13 102.953C1330.78 102.83 1331.41 102.71 1332.07 103.087C1332.65 103.418 1333.37 103.674 1334.08 103.931C1334.53 104.093 1334.99 104.256 1335.41 104.437C1335.97 104.682 1336.51 104.946 1337.04 105.209C1337.55 105.461 1338.07 105.712 1338.6 105.947C1339.58 106.377 1340.7 106.427 1341.57 105.877C1343.19 104.857 1345.04 104.297 1347.46 104.387C1349.44 104.467 1351.16 104.007 1352.97 103.507C1353.97 103.23 1355 102.991 1356.02 102.753C1358.81 102.105 1361.59 101.46 1363.72 100.057C1364.14 99.7773 1365.32 99.6373 1365.96 99.7573C1366.19 99.8006 1366.4 99.8579 1366.61 99.9137C1367.32 100.103 1367.97 100.275 1368.84 99.8273C1371.9 98.2605 1375.45 97.1572 1379.01 96.0536C1381.78 95.192 1384.56 94.3302 1387.1 93.2473C1387.19 93.2086 1387.29 93.1852 1387.39 93.1619C1387.46 93.143 1387.54 93.1241 1387.62 93.0973C1387.93 93.2073 1388.24 93.3173 1388.53 93.4373C1389.09 93.6824 1389.63 93.9457 1390.16 94.2086C1390.67 94.4606 1391.19 94.7124 1391.72 94.9473C1392.7 95.3773 1393.82 95.4273 1394.69 94.8773C1396.31 93.8673 1398.16 93.3073 1400.58 93.3973C1402.56 93.4673 1404.28 93.0173 1406.09 92.5173C1407.07 92.2468 1408.09 92.0122 1409.1 91.7778C1411.9 91.1283 1414.7 90.4808 1416.84 89.0773C1417.26 88.7973 1418.44 88.6573 1419.08 88.7773C1419.31 88.8206 1419.52 88.8779 1419.73 88.9337C1420.44 89.1229 1421.09 89.2952 1421.96 88.8473C1425.07 87.2573 1428.69 86.1273 1432.31 85.0073C1434.12 84.9373 1435.6 84.4973 1436.65 83.5773C1437.86 83.1573 1439.07 82.7373 1440.21 82.2573C1441.78 81.5835 1443.49 81.6295 1445.18 81.6752C1445.67 81.6885 1446.16 81.7018 1446.65 81.6973C1448.52 81.6773 1449.47 81.2573 1450.57 80.3373C1452.5 78.7173 1455.09 77.5473 1458.98 78.3473C1459.52 78.4577 1460.25 78.2541 1460.99 78.0515C1461.32 77.9603 1461.65 77.8694 1461.96 77.8073C1462.44 77.708 1462.92 77.5923 1463.4 77.4767C1464.47 77.2198 1465.54 76.9632 1466.64 76.8873C1467.08 76.8546 1467.53 76.838 1467.98 76.8216C1470 76.7479 1471.94 76.677 1472.74 75.1473C1473.46 75.0079 1474.14 74.807 1474.82 74.6062C1476.34 74.1591 1477.86 73.7127 1479.77 73.9473C1480.51 74.0376 1481.3 74.0165 1482.09 73.9953C1482.71 73.9789 1483.32 73.9624 1483.92 73.9973C1486.67 74.1573 1488.92 73.6973 1490.21 72.2173C1491.14 71.1473 1492.58 70.5473 1494.26 69.8973C1498.73 68.1673 1502.67 66.0973 1503.75 62.8173C1504.03 61.9673 1504.73 61.3173 1505.75 60.7373C1506.03 60.5791 1506.36 60.4358 1506.68 60.293C1507.28 60.0294 1507.87 59.7675 1508.18 59.4173C1509.93 57.3866 1513.01 56.3351 1516.09 55.285C1516.98 54.9803 1517.87 54.6757 1518.73 54.3473C1519.75 54.3273 1520.74 54.2273 1521.7 54.0573C1522.1 54.0873 1522.48 54.0173 1522.84 53.8473L1523.2 53.7819C1523.3 53.7637 1523.39 53.7455 1523.49 53.7273C1523.91 53.65 1524.32 53.5506 1524.71 53.4552C1525.22 53.3284 1525.71 53.2087 1526.17 53.1573C1526.25 53.1736 1526.32 53.1866 1526.4 53.1997C1526.51 53.2186 1526.62 53.2377 1526.74 53.2673C1526.92 53.3173 1527.14 53.3073 1527.39 53.2673C1527.83 53.4173 1528.23 53.7273 1528.57 54.3273C1528.72 54.5973 1529.36 54.4773 1529.56 54.0473C1529.87 53.3697 1530.44 53.4074 1531.16 53.4543C1531.4 53.4704 1531.67 53.4875 1531.94 53.4773C1533.46 53.4173 1535.21 52.9373 1536.32 52.3073C1539.41 50.5773 1542.81 50.5573 1546.23 51.4973C1548.17 52.0373 1549.31 51.6773 1550.62 50.9973L1550.65 50.9787C1551.91 50.3256 1553.09 49.7146 1554.95 50.4873C1555.75 50.8273 1557.06 50.9473 1558.08 50.8673C1559.07 50.7937 1560.05 50.6501 1561.02 50.5069C1562.16 50.3389 1563.3 50.1713 1564.46 50.1173C1565.34 50.0755 1566.1 50.3124 1566.88 50.5559C1567.78 50.8362 1568.71 51.125 1569.88 51.0073C1571.24 50.8701 1572.62 50.8737 1574.01 50.8774C1576.46 50.8838 1578.92 50.8903 1581.3 50.1173C1582.23 49.8162 1583.5 49.8646 1584.76 49.9124C1585.25 49.9313 1585.75 49.9501 1586.22 49.9473C1587.13 49.9397 1588.04 49.9652 1588.96 49.9907C1591.63 50.0652 1594.3 50.1398 1596.88 49.3873C1597.24 49.2773 1597.93 49.3773 1598.31 49.5173C1600.63 50.3673 1602.5 49.9273 1604.21 48.8573C1604.38 48.7462 1604.6 48.6608 1604.82 48.5773L1604.87 48.5573C1606.73 47.8273 1608.48 47.9173 1610.21 48.7073C1611.06 49.0873 1612 49.4173 1612.93 49.7373C1613.14 49.8073 1613.57 49.8273 1613.74 49.7473C1614.95 49.2123 1616.12 49.4321 1617.29 49.6513C1618.19 49.8212 1619.09 49.9908 1620.01 49.8073C1620.05 49.7995 1620.09 49.7916 1620.13 49.7835C1620.37 49.7401 1620.63 49.69 1620.71 49.5973C1622.14 47.7835 1623.58 48.5451 1625.03 49.3151C1625.18 49.3899 1625.32 49.4647 1625.46 49.5373C1625.65 49.6373 1625.97 49.7673 1626.17 49.7373C1626.82 49.642 1627.47 49.5295 1628.12 49.417C1629.04 49.2579 1629.96 49.0986 1630.9 48.9873C1631.51 48.9149 1632.05 49.0803 1632.61 49.2506C1633.44 49.5037 1634.3 49.7675 1635.47 49.2773L1635.51 49.2589C1636.66 48.7713 1638.13 48.1423 1639.94 48.5373C1641.13 48.7982 1642.4 48.9397 1643.67 49.0813C1646.15 49.3574 1648.63 49.6337 1650.54 50.7973C1651.3 51.2573 1652.09 51.7073 1652.94 52.1173C1653.31 52.2973 1654.1 52.5373 1654.26 52.4573C1655.11 52.0262 1656.2 51.9492 1657.29 51.8723C1658.67 51.7743 1660.06 51.6763 1660.95 50.8473C1661.64 50.1973 1662.62 50.1573 1663.72 50.5873C1664.13 50.7525 1664.72 50.7855 1665.25 50.8147L1665.3 50.8173C1666.54 50.8897 1667.64 50.6056 1668.75 50.3204C1669.93 50.0148 1671.12 49.708 1672.49 49.8373C1675.11 50.0873 1677.39 49.3673 1679.56 48.6473C1681.94 47.8573 1684.24 47.7373 1686.63 48.4573C1688.51 49.0173 1690.32 49.0373 1692.13 48.3273L1692.23 48.292C1692.45 48.2126 1692.73 48.1127 1692.86 48.1473C1695.81 48.9673 1698.51 49.0573 1700.75 47.3273C1700.78 47.3031 1700.95 47.3555 1701.16 47.4233C1701.48 47.5234 1701.9 47.6571 1702.16 47.6273C1703.74 47.4191 1705.26 47.5899 1706.79 47.7609C1708.12 47.9103 1709.45 48.0599 1710.83 47.9573C1711.92 47.8773 1712.72 48.2973 1713.4 48.9173C1713.87 49.3506 1714.53 49.7123 1715.2 50.0748C1715.7 50.3482 1716.2 50.6221 1716.62 50.9273L1716.64 50.942C1717.18 51.3329 1717.48 51.5545 1718.46 51.3273C1721.08 50.7184 1723.78 50.7933 1726.48 50.868C1727.37 50.8927 1728.26 50.9173 1729.15 50.9173C1730.82 50.9073 1731.5 51.5073 1731.81 52.3973C1731.96 52.8273 1732.39 53.4873 1732.9 53.5573C1733.37 53.6234 1733.76 53.7985 1734.16 53.973C1734.84 54.274 1735.51 54.5732 1736.56 54.3073C1737.8 53.9927 1738.11 54.4321 1738.43 54.8685C1738.64 55.1672 1738.85 55.4645 1739.36 55.5173L1739.61 55.5425C1742.28 55.8167 1745.12 56.1073 1747.22 54.8073C1748.25 54.1647 1749.52 54.0017 1750.76 53.841C1751.63 53.7291 1752.49 53.6182 1753.26 53.3473C1754.33 52.9755 1754.65 53.36 1754.99 53.7702L1755.01 53.7973C1755.95 54.9273 1757.52 54.8373 1759.22 54.5073C1759.43 54.4665 1759.64 54.3858 1759.85 54.3047C1760.37 54.1077 1760.9 53.9089 1761.4 54.2773C1762.5 55.0936 1764.12 55.3958 1765.73 55.6986C1767.49 56.0263 1769.24 56.3549 1770.36 57.3373C1771.03 57.9273 1772.62 57.7973 1773.45 57.4873C1774.39 57.1347 1775.32 57.1702 1776.23 57.205C1776.82 57.2275 1777.41 57.2496 1777.98 57.1673C1778.06 57.1562 1778.13 57.1446 1778.21 57.1332C1778.95 57.022 1779.56 56.9294 1779.9 57.4373C1780.31 58.0673 1780.8 58.6473 1782.13 58.5873C1784.65 58.4873 1787.07 58.4173 1789.27 59.3873C1789.77 59.611 1790.46 59.4069 1791.11 59.2151C1791.85 58.9955 1792.54 58.7921 1792.83 59.2673C1793.34 60.118 1794.63 60.3452 1795.89 60.5677C1797.27 60.8108 1798.61 61.0484 1798.89 62.0873C1798.93 62.2373 1799.82 62.3973 1800.31 62.3873C1803.22 62.3073 1805.02 62.8073 1805.15 64.7673C1805.2 65.415 1806.68 65.346 1807.78 65.2948L1807.94 65.2873C1809.08 65.2336 1809.93 64.8114 1810.77 64.3864C1811.82 63.8617 1812.87 63.3326 1814.52 63.4873C1816.76 63.6973 1818.85 63.3873 1820.87 62.6273C1822.17 62.1373 1823.93 62.5873 1824.83 63.6273C1825.97 64.9373 1827.54 65.4473 1830.12 65.3673C1833.12 65.2773 1836.03 65.3773 1839.04 66.0473C1841.69 66.6373 1844.07 67.2373 1845.91 68.4673C1846.86 69.1073 1847.65 68.9373 1848.71 68.5373C1849.78 68.1373 1850.84 68.3973 1851.67 68.8873C1853.41 69.9173 1855.14 70.9473 1856.82 72.0073L1856.98 72.108C1858.62 73.1335 1860.22 74.1305 1862.95 74.2273C1864.38 74.2868 1865.26 74.9765 1866.09 75.632L1866.11 75.6473C1867.5 76.7473 1869.69 77.2573 1871.5 76.8573C1872.41 76.6542 1873.3 76.3996 1874.18 76.1445C1875.04 75.897 1875.9 75.6492 1876.79 75.4473C1879.59 74.8173 1882.23 74.8773 1884.27 76.3573C1884.63 76.6189 1885.07 76.8758 1885.51 77.1335C1886.51 77.723 1887.52 78.3162 1887.65 78.9773C1888.02 80.8473 1889.83 80.9373 1892.19 80.8873C1892.59 80.879 1893 80.8798 1893.4 80.8805C1894.95 80.8834 1896.52 80.8863 1897.89 80.3873C1899.71 79.7173 1901.9 79.6873 1903.53 79.9673C1906.82 80.5256 1909.98 80.1743 1913.11 79.8265C1913.91 79.7382 1914.7 79.6502 1915.49 79.5773C1916.18 79.5108 1916.88 79.527 1917.57 79.5431C1918.65 79.5683 1919.73 79.5934 1920.8 79.3073C1920.94 79.2673 1921.13 79.2973 1921.34 79.3373L1920.93 65.5373C1922.11 65.9673 1923.43 66.1173 1924.61 65.8573C1925.53 65.6531 1926.42 65.3967 1927.31 65.1401C1928.16 64.8941 1929.01 64.648 1929.9 64.4473C1932.7 63.8173 1935.34 63.8773 1937.38 65.3573C1937.74 65.6184 1938.18 65.8759 1938.61 66.1341C1939.62 66.7263 1940.63 67.3227 1940.76 67.9773C1941.14 69.8473 1942.94 69.9373 1945.3 69.8873C1945.7 69.879 1946.11 69.8798 1946.51 69.8805C1948.06 69.8834 1949.63 69.8863 1951 69.3873C1952.83 68.7173 1955.01 68.6873 1956.64 68.9673C1959.95 69.528 1963.13 69.1777 1966.27 68.831C1967.05 68.7449 1967.83 68.659 1968.61 68.5873C1969.29 68.5257 1969.98 68.5412 1970.66 68.5567C1971.67 68.5796 1972.67 68.6024 1973.67 68.3797L1972.99 68.4073L1972.95 68.3573L1972.96 68.3547C1973.43 68.2756 1973.89 68.1979 1974.46 68.2473C1976.4 68.4073 1978.23 68.1573 1980.01 67.6873L1974.46 221.46L1992.4 221.787L1996.6 40.9873C1994.82 41.4773 1993 41.7473 1991.05 41.5973C1990.89 41.5864 1990.74 41.5852 1990.6 41.5904C1990.64 41.582 1990.68 41.5732 1990.72 41.564ZM-50 104.354C-48.5504 104.737 -47.0574 104.991 -45.5211 104.907C-42.8911 104.767 -41.3011 105.327 -40.5511 106.787C-40.4432 106.989 -40.1283 107.154 -39.8187 107.316C-39.6978 107.38 -39.5778 107.443 -39.4711 107.507C-37.0911 108.997 -35.4711 109.067 -32.3111 107.797C-32.0811 107.707 -31.8661 107.602 -31.6511 107.497C-31.4361 107.392 -31.2211 107.287 -30.9911 107.197C-29.8511 106.747 -28.7611 106.917 -28.2711 107.567C-27.6011 108.457 -26.5411 108.687 -25.0211 108.627C-22.1432 108.503 -22.0895 108.543 -20.5591 109.672C-20.4835 109.728 -20.4044 109.786 -20.3211 109.847C-19.5209 110.431 -18.7926 111.047 -18.0638 111.664C-16.4703 113.012 -14.8748 114.362 -12.5211 115.377C-12.0182 115.595 -11.5482 115.829 -11.0814 116.06C-9.72893 116.731 -8.4032 117.389 -6.38112 117.627C-5.16854 117.774 -4.12877 118.418 -3.10704 119.051C-2.73848 119.279 -2.37226 119.506 -2.00112 119.707C-1.54611 119.952 -1.11354 120.217 -0.681452 120.481C0.966135 121.487 2.60684 122.489 5.45888 122.417C5.74821 122.411 6.03755 122.549 6.33486 122.691C6.49995 122.77 6.6675 122.85 6.83887 122.907C7.50742 123.127 7.83364 123.539 8.16099 123.951C8.63665 124.551 9.1147 125.154 10.6489 125.177C12.4389 125.207 13.7389 125.857 14.8889 126.547C16.2489 127.367 18.1889 127.507 19.4889 127.087C21.9451 126.294 24.2627 126.621 26.5709 126.946C28.1345 127.167 29.6937 127.387 31.2889 127.257C32.5459 127.162 33.4723 127.713 34.3351 128.226C34.4676 128.305 34.5985 128.383 34.7289 128.457C35.3989 128.837 36.0789 128.877 36.8689 128.577C38.2989 128.027 39.0789 128.197 40.0789 129.097C41.3589 130.237 43.1389 131.257 46.0289 130.207C46.8989 129.887 48.7289 129.877 49.0389 130.437C49.549 131.346 50.7932 131.439 52.0199 131.53C53.1018 131.61 54.17 131.69 54.7089 132.327C54.8589 132.497 55.7889 132.657 56.0889 132.547C59.1089 131.497 61.2389 132.277 63.4489 133.457C64.4051 133.963 64.5057 133.495 64.5898 133.103C64.6121 132.999 64.6332 132.901 64.6689 132.827C65.4789 131.117 66.0489 130.837 68.4189 131.117C68.9489 131.177 69.4589 131.337 69.9089 131.507C70.463 131.722 70.7216 131.609 71.1415 131.425C71.1914 131.403 71.2436 131.381 71.2989 131.357C78.8389 128.277 80.9589 127.817 88.8489 127.117C90.2818 126.99 91.6818 126.633 93.0488 126.284C93.1892 126.248 93.3292 126.213 93.4689 126.177C94.6764 125.871 95.7843 126.109 96.8943 126.348C98.064 126.6 99.2359 126.852 100.529 126.467C102.629 125.847 105.069 125.897 107.019 126.337C108.809 126.737 110.009 126.687 111.549 126.167C112.518 125.836 113.548 125.57 114.58 125.302C115.326 125.109 116.073 124.916 116.799 124.697C118.972 124.055 121.233 124.138 123.493 124.221C123.979 124.239 124.464 124.257 124.949 124.267C125.449 124.277 126.089 124.437 126.399 124.657C127.342 125.327 128.543 125.835 129.746 126.344C131.398 127.044 133.053 127.744 134.049 128.867C134.489 129.367 135.679 129.887 136.609 129.937C138.686 130.037 139.499 130.756 140.455 131.602C140.557 131.692 140.661 131.784 140.769 131.877L140.823 131.925C143.395 134.149 145.975 136.38 149.609 138.127C151.509 139.037 152.969 140.177 153.939 141.587C154.779 142.797 157.229 142.887 158.699 141.767C159.554 141.117 160.533 140.518 161.511 139.919C163.541 138.677 165.571 137.434 166.509 135.727C166.969 134.897 168.129 134.447 169.349 134.037C169.942 133.839 170.653 133.881 171.363 133.922C171.777 133.946 172.191 133.97 172.582 133.947C172.273 133.795 172.013 133.588 171.829 133.327C170.849 131.927 169.369 130.797 167.469 129.907C163.85 128.212 161.253 126.02 158.67 123.841L158.559 123.747C158.451 123.656 158.347 123.566 158.245 123.477C157.279 122.64 156.459 121.929 154.389 121.847C153.459 121.807 152.259 121.297 151.819 120.797C150.812 119.681 149.151 119 147.494 118.32C146.285 117.824 145.078 117.329 144.129 116.667C143.819 116.457 143.169 116.297 142.669 116.297C142.174 116.292 141.679 116.279 141.183 116.265C138.933 116.205 136.682 116.145 134.519 116.817C133.805 117.037 133.068 117.237 132.332 117.436C131.294 117.717 130.255 117.998 129.279 118.337C127.739 118.867 126.549 118.937 124.759 118.557C122.799 118.137 120.359 118.117 118.269 118.757C116.978 119.158 115.801 118.917 114.627 118.676C113.517 118.449 112.409 118.221 111.209 118.537C111.088 118.57 110.967 118.602 110.846 118.635C109.469 119.007 108.051 119.389 106.599 119.527C98.7186 120.307 96.5986 120.797 89.0886 123.947C89.0264 123.974 88.9682 123.999 88.9126 124.024C88.5035 124.204 88.2445 124.319 87.6986 124.107C87.2486 123.937 86.7286 123.787 86.2086 123.727C83.8386 123.477 83.2686 123.767 82.4786 125.477C82.4459 125.549 82.4265 125.644 82.406 125.745C82.3263 126.139 82.2291 126.618 81.2586 126.117C79.0386 124.957 76.8986 124.197 73.8886 125.277C73.5886 125.387 72.6586 125.237 72.5086 125.067C71.9638 124.433 70.8921 124.364 69.8069 124.294C68.5812 124.214 67.3384 124.134 66.8186 123.237C66.4986 122.677 64.6686 122.717 63.8086 123.037C60.9286 124.117 59.1386 123.117 57.8486 121.987C56.8386 121.097 56.0586 120.937 54.6386 121.497C53.8486 121.807 53.1686 121.767 52.4986 121.397C52.3631 121.322 52.2272 121.243 52.0899 121.164C51.2239 120.661 50.3001 120.125 49.0486 120.237C47.453 120.383 45.8917 120.179 44.3265 119.975C42.0167 119.673 39.6984 119.371 37.2486 120.187C35.9586 120.617 34.0186 120.507 32.6486 119.697C31.4986 119.017 30.1786 118.377 28.3886 118.367C26.8563 118.361 26.374 117.764 25.894 117.169C25.5627 116.759 25.2324 116.35 24.5586 116.137C24.3829 116.082 24.21 116.002 24.0392 115.923C23.7433 115.785 23.4539 115.651 23.1686 115.657C20.31 115.761 18.6557 114.773 16.9941 113.781C16.5631 113.524 16.1317 113.266 15.6786 113.027C15.2985 112.828 14.9235 112.601 14.5461 112.374C13.5236 111.756 12.4838 111.129 11.2786 110.997C9.25735 110.774 7.92637 110.132 6.56756 109.476C6.09778 109.249 5.62467 109.021 5.11856 108.807C2.73665 107.806 1.12217 106.467 -0.491667 105.128C-1.21534 104.527 -1.93888 103.927 -2.73144 103.357C-2.81478 103.297 -2.89401 103.24 -2.96966 103.185C-4.50983 102.073 -4.56283 102.035 -7.44144 102.187C-8.96144 102.267 -10.0214 102.047 -10.7014 101.157C-11.1914 100.507 -12.2914 100.357 -13.4314 100.817C-13.6742 100.912 -13.8975 101.024 -14.1218 101.136C-14.3226 101.237 -14.5242 101.338 -14.7414 101.427C-17.8914 102.727 -19.5114 102.677 -21.9014 101.207C-22.0141 101.139 -22.1425 101.074 -22.2714 101.008C-22.5774 100.852 -22.8859 100.694 -22.9914 100.497C-23.7614 99.0473 -25.3514 98.4973 -27.9814 98.6673C-29.6314 98.7773 -31.2314 98.4873 -32.7814 98.0773C-33.7014 97.8373 -35.2714 97.6473 -35.9014 97.9273C-37.397 98.5991 -38.2786 98.2667 -39.3134 97.8764C-39.5725 97.7787 -39.8411 97.6774 -40.1314 97.5873C-42.9988 96.7086 -46.0373 96.001 -49.0886 95.2904C-49.3362 95.2327 -49.5838 95.1751 -49.8314 95.1173L-50 104.354ZM183.744 128.218C185.323 127.505 187.202 127.175 189.078 126.846C190.169 126.655 191.259 126.464 192.289 126.197C194.345 126.44 196.022 125.924 197.693 125.41C198.16 125.267 198.625 125.124 199.099 124.997C200.219 125.757 201.389 126.487 202.739 127.137C204.639 128.057 206.099 129.197 207.069 130.607C207.909 131.817 210.359 131.907 211.829 130.787C212.684 130.137 213.663 129.538 214.641 128.939C216.671 127.697 218.701 126.454 219.639 124.747C219.749 124.547 219.909 124.367 220.089 124.207C221.178 124.248 222.289 124.207 223.397 124.166C224.181 124.136 224.964 124.107 225.739 124.107C227.389 123.295 229.379 123.223 231.378 123.15C233.268 123.081 235.166 123.012 236.789 122.317C237.309 122.097 238.569 122.147 239.159 122.367C240.879 123.007 242.709 123.137 244.689 123.177C249.119 123.277 251.999 124.017 256.849 125.507C259.647 126.369 262.588 127.074 265.531 127.779C266.858 128.097 268.185 128.415 269.499 128.747C270.728 127.99 272.045 128.308 273.225 128.594C274.071 128.798 274.847 128.985 275.469 128.747C278.249 127.687 280.259 128.387 282.239 129.147C284.249 129.917 286.359 129.947 288.569 129.957C289.999 129.967 291.649 130.077 292.189 130.857C293.104 132.177 294.974 132.606 296.853 133.038C297.437 133.172 298.022 133.306 298.579 133.467C299.228 133.655 299.874 133.847 300.52 134.039C302.324 134.576 304.131 135.113 306.009 135.547C306.859 135.744 307.827 135.778 308.795 135.812C309.206 135.826 309.617 135.841 310.019 135.867C310.219 136.357 310.809 136.757 311.599 136.617C313.469 136.267 315.229 136.107 316.899 136.777C318.186 137.287 319.362 137.173 320.776 137.036C320.944 137.02 321.114 137.003 321.289 136.987C322.683 136.857 324.343 137.44 325.812 137.956C326.029 138.032 326.242 138.107 326.449 138.177C328.369 138.837 329.119 138.457 330.259 137.447C331.449 136.387 333.609 136.577 334.959 137.607C335.223 137.811 335.475 138.023 335.726 138.234C336.093 138.543 336.46 138.853 336.869 139.137C337.649 139.687 339.039 139.677 339.669 139.137C339.953 138.899 340.196 138.645 340.441 138.39C340.73 138.087 341.021 137.784 341.379 137.507C342.319 136.777 343.729 136.737 345.139 136.777C345.204 136.779 345.269 136.781 345.334 136.783C346.649 136.819 347.944 136.854 348.459 137.797C348.719 138.267 349.259 138.607 350.239 138.627C350.386 138.629 350.533 138.63 350.681 138.631C351.638 138.637 352.602 138.643 353.529 138.747C355.769 139.007 357.419 139.007 358.679 138.667C361.329 137.957 361.399 137.957 363.329 139.637C364.559 139.707 365.616 139.461 366.715 139.205C366.885 139.166 367.056 139.126 367.229 139.087C367.639 138.994 368.169 139.144 368.728 139.301C369.192 139.432 369.676 139.568 370.129 139.577C371.179 139.607 372.349 139.447 373.309 139.177C375.059 138.69 376.875 138.303 378.684 137.917C379.438 137.756 380.192 137.595 380.939 137.427C384.289 136.667 387.189 136.617 390.479 137.327C394.219 138.137 398.059 137.987 401.629 136.747C401.856 136.667 402.097 136.591 402.339 136.514C403.099 136.274 403.872 136.029 404.289 135.657C404.403 135.556 404.514 135.455 404.623 135.354C405.545 134.511 406.399 133.729 408.499 133.657C409.079 133.637 409.739 133.097 410.159 132.717C411.55 131.475 413.392 130.462 415.234 129.449C415.735 129.173 416.237 128.898 416.729 128.617C417.917 128.636 418.976 128.396 420.081 128.146C420.167 128.126 420.253 128.107 420.339 128.087C420.75 128 421.282 128.149 421.843 128.308C422.305 128.438 422.787 128.574 423.239 128.587C424.289 128.617 425.459 128.457 426.419 128.187C428.169 127.7 429.984 127.313 431.794 126.927C432.548 126.766 433.302 126.605 434.049 126.437C437.399 125.677 440.299 125.627 443.589 126.337C447.329 127.147 451.169 126.997 454.739 125.757C454.966 125.677 455.207 125.601 455.449 125.524C456.209 125.284 456.982 125.039 457.399 124.667C457.517 124.563 457.632 124.459 457.745 124.356C458.67 123.516 459.526 122.739 461.619 122.667C462.199 122.647 462.859 122.107 463.279 121.727C464.658 120.489 466.492 119.481 468.325 118.474C470.547 117.254 472.766 116.035 474.169 114.407C476.791 113.779 478.312 112.547 479.835 111.315C480.566 110.724 481.296 110.132 482.149 109.607C483 109.082 483.705 108.578 484.237 108.03C483.043 108.736 481.917 109.475 480.999 110.317C480.579 110.697 479.929 111.247 479.349 111.277C477.25 111.367 476.404 112.157 475.492 113.009C475.382 113.111 475.272 113.214 475.159 113.317C474.744 113.694 473.978 113.946 473.228 114.192C472.982 114.273 472.738 114.353 472.509 114.437C468.949 115.717 465.119 115.897 461.359 115.127C458.069 114.457 455.169 114.527 451.819 115.327C451.032 115.514 450.237 115.692 449.441 115.87C447.678 116.265 445.907 116.661 444.199 117.157C443.239 117.437 442.079 117.607 441.019 117.587C440.573 117.578 440.091 117.448 439.628 117.322C439.063 117.169 438.526 117.024 438.119 117.117C437.999 117.145 437.879 117.174 437.761 117.202C436.693 117.454 435.67 117.696 434.509 117.687C434.035 117.962 433.552 118.234 433.07 118.505C431.22 119.546 429.367 120.588 427.979 121.857C427.559 122.237 426.909 122.787 426.329 122.817C424.223 122.907 423.378 123.703 422.462 124.565C422.356 124.665 422.249 124.766 422.139 124.867C421.717 125.251 420.93 125.505 420.166 125.752C419.935 125.826 419.705 125.9 419.489 125.977C415.929 127.247 412.099 127.437 408.339 126.667C405.039 125.997 402.139 126.067 398.799 126.867C398.017 127.053 397.227 127.229 396.437 127.407C394.669 127.803 392.895 128.2 391.189 128.697C390.229 128.977 389.069 129.147 388.009 129.127C387.552 129.123 387.062 128.989 386.593 128.861C386.036 128.709 385.511 128.565 385.109 128.657C384.917 128.702 384.728 128.748 384.54 128.793C383.461 129.055 382.419 129.307 381.219 129.247C379.269 127.587 379.209 127.577 376.549 128.327C375.289 128.677 373.639 128.697 371.399 128.457C370.566 128.372 369.704 128.371 368.844 128.37C368.599 128.37 368.353 128.37 368.109 128.367C367.129 128.367 366.589 128.027 366.329 127.557C365.809 126.622 364.53 126.597 363.227 126.572C363.151 126.57 363.075 126.569 362.999 126.567C361.589 126.547 360.179 126.597 359.239 127.337C358.88 127.619 358.588 127.93 358.297 128.242C358.059 128.496 357.822 128.75 357.549 128.987C356.919 129.537 355.539 129.557 354.749 129.017C354.333 128.732 353.963 128.426 353.592 128.119C353.339 127.91 353.086 127.7 352.819 127.497C351.459 126.477 349.299 126.307 348.109 127.387C346.979 128.407 346.229 128.797 344.299 128.157C344.107 128.093 343.911 128.026 343.711 127.958C342.222 127.45 340.539 126.876 339.129 127.017C338.934 127.036 338.745 127.056 338.56 127.075C337.173 127.221 336.018 127.341 334.739 126.847C333.059 126.197 331.299 126.377 329.439 126.737C328.649 126.887 328.059 126.497 327.849 126.007C327.433 125.983 327.009 125.973 326.584 125.964C325.628 125.942 324.673 125.921 323.829 125.727C321.967 125.313 320.174 124.803 318.384 124.294C317.713 124.103 317.042 123.913 316.369 123.727C315.805 123.569 315.212 123.439 314.62 123.309C312.745 122.897 310.878 122.487 309.959 121.187C309.409 120.417 307.759 120.317 306.329 120.327C304.119 120.337 302.009 120.327 299.989 119.577C298.009 118.837 295.989 118.157 293.209 119.237C292.592 119.479 291.817 119.3 290.971 119.105C289.787 118.832 288.463 118.527 287.239 119.297C285.894 118.971 284.537 118.66 283.18 118.35C280.257 117.681 277.338 117.014 274.559 116.187C269.699 114.747 266.799 114.027 262.379 113.977C260.399 113.957 258.569 113.847 256.839 113.217C256.249 112.997 254.979 112.967 254.469 113.187C252.855 113.897 250.959 113.985 249.069 114.073C247.07 114.167 245.079 114.26 243.439 115.087C242.664 115.096 241.881 115.133 241.098 115.17C239.989 115.223 238.878 115.277 237.789 115.247C237.609 115.407 237.449 115.587 237.339 115.797C236.415 117.516 234.403 118.775 232.389 120.035C231.415 120.645 230.44 121.255 229.589 121.917C228.129 123.047 225.669 122.987 224.829 121.787C223.849 120.387 222.379 119.257 220.469 118.367C219.109 117.727 217.929 117.017 216.809 116.267C216.336 116.399 215.871 116.547 215.405 116.695C213.743 117.224 212.073 117.756 210.019 117.537C208.984 117.817 207.89 118.021 206.796 118.224C204.253 118.698 201.712 119.171 199.929 120.597C198.95 121.377 197.535 121.932 196.115 122.489C195.896 122.574 195.676 122.66 195.459 122.747C195.13 122.876 194.641 122.945 194.13 123.016C192.817 123.2 191.354 123.405 192.059 124.707C191.415 125.59 190.289 125.537 189.164 125.484C188.455 125.45 187.746 125.416 187.159 125.617C185.939 126.037 184.789 126.497 184.339 127.337C184.173 127.645 183.973 127.938 183.744 128.218ZM1990.72 41.564L1991.52 41.5273C1991.31 41.4873 1991.12 41.4673 1990.98 41.4973C1990.89 41.5215 1990.81 41.5437 1990.72 41.564Z" fill="#FFFFFF"></path></g></svg>