<svg xmlns="http://www.w3.org/2000/svg" width="100%" viewBox="0 0 1920 189" fill="none"><g clip-path="url(#clip0_2039_431)"><path d="M-120.733 213.37L-122.787 164.54C-122.567 164.58 -122.368 164.6 -122.221 164.57C-120.387 164.08 -118.511 164.43 -116.667 164.25C-112.569 163.85 -108.482 163.08 -104.132 163.74C-102.424 164 -100.129 163.95 -98.2213 163.26C-96.4082 162.61 -94.2701 162.76 -92.2474 162.7C-89.7741 162.62 -87.8772 162.7 -87.4685 164.57C-87.2588 165.51 -85.1523 166.3 -83.8946 167.16C-81.7357 168.62 -78.9689 168.65 -76.0448 167.99C-74.1584 167.57 -72.4081 166.95 -70.5112 166.53C-69.2745 166.26 -67.8912 166.4 -66.6545 166.81L-67.2308 153.02C-67.0108 153.06 -66.8116 153.08 -66.6753 153.04C-64.8413 152.55 -62.9654 152.9 -61.1208 152.72C-57.023 152.32 -52.9252 151.55 -48.5864 152.21C-46.8676 152.47 -44.5829 152.42 -42.6755 151.74C-40.8624 151.09 -38.7243 151.24 -36.7016 151.18C-34.2282 151.1 -32.3418 151.18 -31.9226 153.04C-31.713 153.98 -29.6064 154.77 -28.3488 155.63C-26.1898 157.09 -23.423 157.12 -20.499 156.46C-18.6125 156.04 -16.8623 155.42 -14.9653 155C-13.0684 154.58 -10.7732 155.07 -9.30593 156.15C-8.4151 156.81 -7.48243 157.5 -5.98374 157.53C-3.02828 157.6 -1.33044 158.64 0.4617 159.69C2.23288 160.73 4.05652 161.75 5.89058 162.76C6.76045 163.24 7.8818 163.49 8.99272 163.08C10.0932 162.67 10.9212 162.49 11.9273 163.12C13.8661 164.33 16.3708 164.9 19.1586 165.47C22.3237 166.11 25.3735 166.18 28.5176 166.06C31.2215 165.95 32.8669 166.45 34.0826 167.74C35.0363 168.77 36.881 169.2 38.2434 168.69C40.35 167.91 42.5403 167.58 44.8879 167.77C48.0111 168.02 49.08 166.05 51.7734 165.9C52.9368 165.83 54.6451 165.71 54.708 166.39C54.8652 168.35 56.7621 168.83 59.8119 168.72C60.3255 168.7 61.2583 168.86 61.3002 169C61.8766 170.98 66.5298 169.98 67.6827 171.76C68.2591 172.64 70.2817 171.14 71.4136 171.6C73.7298 172.55 76.266 172.46 78.9071 172.33C80.301 172.26 80.8145 172.83 81.2547 173.46C81.6529 174.02 82.3866 173.84 83.2669 173.71C84.7971 173.49 86.4006 173.94 88.0146 173.35C88.874 173.03 90.5403 172.88 91.253 173.47C93.5272 175.33 98.2434 174.76 100.675 176.44C101.419 176.95 102.205 176.33 102.96 176.18C104.741 175.84 106.376 175.72 107.382 176.85C107.749 177.27 108.084 177.67 109.216 177.28C111.166 176.61 113.712 176.87 115.536 175.76C117.789 174.4 120.881 174.72 123.763 174.97C125.073 175.09 124.518 176.71 126.708 176.15C128.437 175.71 129.213 176.69 130.554 176.86C131.089 176.93 131.55 177.58 131.707 178.01C132.042 178.9 132.755 179.49 134.505 179.47C138.257 179.42 142.062 179.8 145.709 178.95C146.746 178.71 147.061 178.94 147.637 179.33C148.675 180.03 150.163 180.56 151.033 181.31C151.746 181.92 152.594 182.34 153.737 182.25C156.829 182 159.732 182.91 162.823 182.49C163.274 182.43 164.217 182.84 164.301 182.77C166.628 181.02 169.457 181.08 172.559 181.87C172.727 181.91 173.084 181.77 173.314 181.68C175.201 180.95 177.108 180.96 179.078 181.5C181.594 182.19 184.004 182.05 186.488 181.24C188.752 180.5 191.131 179.76 193.887 179.98C196.664 180.2 198.718 178.8 201.412 178.93C201.978 178.96 202.617 178.98 203.068 179.14C204.231 179.56 205.258 179.51 205.971 178.85C207.616 177.35 210.949 178.17 212.972 177.17C213.139 177.09 213.967 177.32 214.355 177.49C215.246 177.89 216.084 178.33 216.891 178.79C219.941 180.52 224.332 180.21 228.032 180.94C229.96 181.32 231.501 180.66 232.706 180.16C234.75 179.32 235.913 180.6 237.496 180.4C239.162 180.2 240.787 179.85 242.453 179.6C242.663 179.57 242.998 179.69 243.197 179.79C244.884 180.59 246.551 181.69 248.175 179.68C248.259 179.57 248.636 179.51 248.898 179.46C251.099 179.02 253.227 180.43 255.47 179.46C255.648 179.38 256.098 179.39 256.318 179.46C257.293 179.77 258.289 180.09 259.18 180.47C261.003 181.24 262.837 181.32 264.776 180.57C265.017 180.48 265.269 180.38 265.468 180.26C267.249 179.17 269.199 178.72 271.641 179.54C272.039 179.68 272.762 179.76 273.139 179.66C276.755 178.62 280.559 179.05 284.301 179C286.041 178.97 288.095 179.21 289.447 178.78C293.335 177.54 297.464 178.19 301.405 177.77C303.679 177.53 305.115 178.71 307.085 178.61C309.328 178.49 311.519 177.98 313.761 177.8C314.83 177.71 316.203 177.82 317.042 178.14C319.022 178.9 320.249 178.26 321.569 177.59C322.932 176.9 324.126 176.52 326.17 177.04C329.765 177.95 333.328 177.89 336.546 176.13C337.709 175.49 339.532 174.99 341.115 174.91C342.236 174.86 343.18 175.23 343.609 174.32C343.808 173.88 344.479 173.76 344.647 174.03C345.003 174.63 345.433 174.93 345.904 175.08C346.166 175.04 346.397 175.02 346.586 175.07C346.795 175.12 346.984 175.14 347.183 175.17C348.021 175.07 348.965 174.76 349.992 174.57C350.212 174.53 350.443 174.48 350.673 174.44C351.05 174.27 351.449 174.19 351.857 174.22C352.853 174.04 353.891 173.93 354.96 173.9C358.942 172.4 363.627 171.37 365.964 168.73C366.446 168.19 367.662 167.84 368.5 167.38C369.569 166.79 370.292 166.13 370.575 165.28C371.665 161.99 375.784 159.88 380.437 158.1C382.188 157.43 383.686 156.82 384.661 155.74C385.992 154.25 388.35 153.76 391.232 153.89C392.668 153.96 394.187 153.75 395.581 153.89C398.484 154.2 400.518 153.09 402.928 152.62C403.934 150.74 406.753 151.03 409.3 150.82C410.966 150.69 412.56 150.19 414.194 149.86C415.242 149.65 416.49 149.14 417.307 149.29C421.394 150.05 424.098 148.85 426.1 147.22C427.242 146.29 428.238 145.86 430.198 145.82C432.462 145.78 434.82 146.08 436.937 145.2C438.132 144.7 439.389 144.27 440.657 143.84C441.747 142.92 443.298 142.46 445.195 142.37C448.979 141.21 452.752 140.05 456.011 138.42C457.195 137.83 457.981 138.29 459.029 138.46C459.7 138.57 460.937 138.42 461.377 138.13C464.406 136.19 468.734 135.63 472.612 134.58C474.509 134.06 476.301 133.59 478.376 133.65C480.912 133.72 482.851 133.13 484.539 132.11C485.45 131.55 486.614 131.59 487.651 132.01C488.794 132.48 489.852 133.02 491.005 133.48C491.309 133.6 491.644 133.7 491.959 133.81C492.137 133.75 492.325 133.73 492.493 133.66C498.54 131.13 505.877 129.74 511.557 126.89C512.741 126.3 513.527 126.75 514.575 126.93C515.246 127.05 516.483 126.89 516.923 126.61C519.952 124.66 524.27 124.12 528.158 123.06C530.055 122.54 531.847 122.07 533.922 122.13C536.458 122.2 538.397 121.61 540.084 120.58C540.996 120.03 542.159 120.06 543.197 120.48C544.339 120.95 545.398 121.49 546.551 121.95C547.693 122.41 549.066 122.74 550.072 123.27C551.372 123.96 552.587 122.9 553.981 123.37C557.052 124.41 557.146 124.35 559.012 123.86C560.93 123.36 561.475 123.33 564.105 124.15C565.353 124.54 566.327 123.83 567.208 124.08C568.465 124.44 569.429 125.13 570.708 125.44C571.693 125.68 573.307 125.85 574.072 125.57C577.028 124.48 579.847 125.28 582.195 125.8C585.255 126.49 587.602 126.62 590.191 125.36C591.019 124.96 592.193 124.53 593.199 124.52C597.213 124.49 601.332 123.95 605.178 125.03C606.781 125.48 608.856 125.56 610.24 125.07C614.149 123.68 618.058 124.06 621.936 124.63C623.204 124.82 625.552 123.79 625.782 125.44C628.916 126.53 632.039 127.63 635.173 128.72C638.516 128.54 640.434 129.76 642.415 130.92C643.253 131.41 644.27 131.64 645.485 131.65C646.062 131.65 646.67 131.63 647.225 131.72C649.688 132.08 652.57 132.15 654.488 132.93C656.961 133.94 659.613 132.02 661.656 133.34C663.438 133.31 665.084 133.97 666.551 133.96C667.871 133.94 669.192 132.8 670.544 132.18C670.932 132.01 671.864 131.82 671.875 131.83C674.663 134.79 676.057 130.77 678.341 131.35C678.572 131.41 678.918 131.32 679.201 131.33C680.867 131.4 682.806 131.17 683.267 132.52C683.414 132.94 684.011 133.02 684.556 132.76C686.338 131.9 688.277 131.39 690.645 131.02C692.636 130.71 693.747 130.63 695.036 131.44C695.361 131.64 696.21 131.88 696.43 131.79C698.61 130.93 701.534 131.25 703.62 130.11C705.16 129.27 706.313 129.39 706.795 130.25C707.718 131.9 710.107 132.81 712.015 133.97C713.429 134.83 714.32 134.53 714.876 133.51C714.96 133.37 715.211 133.25 715.379 133.12C717.601 134.39 721.185 133.25 723.459 134.44C725.335 135.42 727.085 136.49 729.548 137.03C731.236 139.45 734.128 140.08 738.373 138.79C738.519 138.75 738.897 138.91 739.127 138.99C741.527 139.86 743.539 139.41 745.311 138.33C746.945 137.34 749.136 137.32 751.012 137.59C753.726 137.97 756.87 138.32 757.981 140.03C758.998 141.61 762.593 141.34 763.714 142.74C765.863 142.83 767.435 142.02 769.08 141.48C771.826 140.58 774.582 142.17 777.276 141.23C777.506 141.15 778.428 141.41 778.607 141.62C779.183 142.33 779.382 143.16 780.095 143.82C780.818 144.49 781.877 145.08 782.935 145.61C784.434 146.35 782.558 147.37 783.774 148.22C784.643 148.83 785.094 149.55 786.614 149.85C790.366 150.59 791.047 153.08 794.306 154.12C794.149 156.58 797.702 157.21 800.72 158.07C801.171 158.2 802.187 158.24 802.345 158.11C804.221 156.52 806.6 158.11 808.486 157.68C809.88 157.37 810.551 157.79 811.557 157.98C813.129 158.28 814.125 157.33 815.529 157.27C816.032 157.25 816.682 157.37 817.059 157.55C818.264 158.13 819.658 158.12 821.136 158.12C821.964 158.12 823.18 158.14 823.536 158.43C826.355 160.66 831.134 161.1 835.054 162.31C837.328 163.01 839.56 163.6 840.462 165.16C841.007 166.11 842.851 166.38 844.486 166.77C845.964 167.12 847.662 167.37 848.657 168.29C851.309 170.73 854.463 173 856.821 175.52C857.974 176.75 859.358 177.09 861.475 177.09C862.67 177.09 863.655 177.25 864.661 177.65C869.052 179.36 873.098 181.42 878.757 181.9C879.532 181.97 880.245 182.37 880.874 182.68C882.561 183.53 883.987 184.56 886.303 184.95C887.372 186.83 890.317 186.5 892.79 186.42C894.436 186.37 896.039 185.82 897.695 185.56C898.816 185.39 900.001 185.32 900.902 185.85C902.086 186.56 903.511 187.04 905.052 187.51C906.425 187.93 906.823 188.93 908.647 189.38C913.028 190.48 917.136 191.89 920.657 193.79C922.701 194.89 925.363 195.62 928.35 195.71C930.132 195.77 931.662 195.97 933.192 196.53C934.565 197.04 936.294 197.44 937.939 197.5C939.899 197.58 941.136 198.05 942.362 198.76C943.945 199.69 945.611 200.57 947.256 201.46C951.899 203.97 951.931 203.9 958.208 204.69C959.55 204.86 960.263 204.58 961.279 204.38C962.946 204.05 964.675 204.04 966.404 204.28C974.275 205.38 976.098 205.34 984.042 204.08C986.034 203.76 988.088 203.62 989.911 204.3C991.201 204.78 992.783 205.06 993.988 204.63C996.692 203.65 999.564 203.76 1002.46 203.75C1004 203.75 1005.33 203.44 1006.39 202.83C1007.52 202.17 1008.44 202.12 1010.1 202.45C1012.83 203 1015.97 203.89 1018.63 202.04C1018.76 201.94 1019.74 202.3 1020.14 202.21C1023.09 201.48 1026.18 203.27 1029.17 201.97C1029.28 201.92 1030.96 203.12 1031.19 203.04C1033.33 202.34 1035.02 202.88 1036.93 203.27C1037.86 203.46 1039.27 203.3 1040.23 203.02C1041.69 202.59 1042.06 202.92 1042.66 203.57C1045.21 206.4 1133.35 190.07 1140.03 189.02C1181.44 182.52 1220.52 146.44 1264.99 150.63C1268.46 150.96 1271.3 150.07 1273.82 148.96C1275.93 148.03 1278.17 147.28 1280.58 146.72C1283.07 146.14 1284.59 144.89 1287.06 144.24C1289.4 143.62 1290.76 143.7 1292.35 144.63C1292.88 144.93 1293.52 145.41 1294.49 145.07C1296.93 144.23 1299.75 143.85 1301.92 142.62C1305.01 140.88 1309.64 140.16 1312.84 140.56C1319.8 141.43 1320.45 141.39 1326.95 139.7C1327.46 139.56 1328.06 139.52 1328.59 139.4C1333.69 138.28 1339 137.34 1343.61 135.7C1345.97 134.86 1348.05 134.28 1350.78 134.24C1354.41 134.18 1359.17 133.23 1362.79 131.96C1363.55 131.69 1364.11 131.42 1364.98 131.81C1366.22 132.36 1367.9 132.4 1369.08 132.01C1372.73 130.8 1376.13 131.03 1379.86 131.76C1382.25 132.23 1384.96 132.29 1387.47 131.53C1388.22 131.3 1389.12 131.11 1389.95 131.11C1390.43 131.11 1390.9 131.08 1391.38 131.07C1391.53 130.94 1391.7 130.84 1391.84 130.7C1393.61 129.04 1395.91 127.71 1399.77 127.3C1402.53 127.01 1404.93 126.16 1406.53 124.55C1408.19 122.86 1411.79 121.93 1413.17 120.03C1413.35 119.79 1414.07 119.51 1414.53 119.51C1417.24 119.51 1419.7 117.55 1422.68 119.11C1423.13 119.35 1424.36 119.06 1424.83 118.57C1426.37 116.93 1428.26 115.71 1431.89 115.27C1434.79 114.92 1437.14 113.6 1437.34 111.84C1437.52 110.25 1438.72 109.2 1440.63 108.06C1443.38 106.42 1444.89 104.15 1448.95 103.18C1451.6 100.18 1457.13 98.5202 1460.29 95.7502C1460.73 95.3702 1461.41 94.8202 1462.02 94.7902C1464.48 94.6902 1465.3 93.7102 1466.41 92.7502C1466.99 92.2502 1468.21 91.9702 1469.19 91.6302C1472.92 90.3502 1476.93 90.1702 1480.87 90.9402C1484.32 91.6102 1487.36 91.5402 1490.87 90.7402C1493.52 90.1402 1496.26 89.6302 1498.86 88.9102C1499.86 88.6302 1501.08 88.4602 1502.19 88.4802C1503.23 88.5002 1504.45 89.1202 1505.23 88.9502C1506.49 88.6702 1507.66 88.3702 1509.01 88.3802C1511.41 87.0502 1514.02 85.8102 1515.86 84.2102C1516.3 83.8302 1516.98 83.2802 1517.59 83.2502C1520.05 83.1502 1520.87 82.1702 1521.98 81.2002C1522.55 80.7002 1523.78 80.4202 1524.76 80.0902C1528.49 78.8202 1532.5 78.6302 1536.44 79.4002C1539.9 80.0702 1542.94 80.0002 1546.44 79.2002C1549.09 78.6002 1551.83 78.0902 1554.41 77.3702C1555.42 77.0902 1556.64 76.9202 1557.75 76.9402C1558.8 76.9502 1560.01 77.5802 1560.79 77.4102C1562.14 77.1102 1563.39 76.7502 1564.86 76.8202C1566.91 78.4802 1566.97 78.4902 1569.76 77.7402C1571.08 77.3902 1572.81 77.3702 1575.16 77.6102C1576.28 77.7202 1577.45 77.6902 1578.6 77.7002C1579.63 77.7002 1580.2 78.0402 1580.47 78.5102C1581.05 79.5002 1582.51 79.4702 1583.96 79.5002C1585.44 79.5202 1586.91 79.4702 1587.9 78.7302C1588.58 78.2202 1589.03 77.6102 1589.67 77.0802C1590.33 76.5302 1591.78 76.5102 1592.6 77.0502C1593.34 77.5302 1593.94 78.0702 1594.63 78.5702C1596.05 79.5902 1598.32 79.7602 1599.56 78.6802C1600.75 77.6602 1601.53 77.2702 1603.56 77.9102C1605.25 78.4502 1607.3 79.2102 1608.98 79.0502C1610.7 78.8902 1612.06 78.6602 1613.58 79.2202C1615.34 79.8702 1617.18 79.6902 1619.13 79.3302C1619.96 79.1802 1620.58 79.5702 1620.8 80.0602C1622.21 80.1402 1623.73 80.0602 1625.01 80.3402C1627.69 80.9102 1630.24 81.6602 1632.83 82.3402C1635.29 83.0002 1638.28 83.1702 1639.55 84.8802C1640.12 85.6502 1641.85 85.7502 1643.35 85.7402C1645.67 85.7302 1647.88 85.7402 1650 86.4902C1652.07 87.2302 1654.19 87.9102 1657.1 86.8302C1658.65 86.2502 1661.16 88.0902 1663.36 86.7702C1667.8 87.8002 1672.38 88.6702 1676.65 89.8802C1681.74 91.3202 1684.78 92.0402 1689.41 92.0902C1691.49 92.1102 1693.4 92.2202 1695.22 92.8502C1695.84 93.0702 1697.17 93.1002 1697.7 92.8802C1701.18 91.4202 1705.92 92.5902 1709.26 90.9802C1711.22 90.9602 1713.23 90.7702 1715.18 90.8202C1715.37 90.6602 1715.54 90.4802 1715.65 90.2702C1717.09 87.7202 1721.04 86.1802 1723.78 84.1502C1725.31 83.0202 1727.89 83.0802 1728.77 84.2802C1729.79 85.6802 1731.33 86.8102 1733.34 87.7002C1734.76 88.3402 1736 89.0502 1737.17 89.8002C1739.43 89.2002 1741.53 88.2502 1744.29 88.5302C1747.89 87.6002 1752.19 87.5102 1754.86 85.4702C1756.05 84.5702 1757.84 83.9702 1759.55 83.3202C1760.77 82.8602 1764.14 83.1702 1763.11 81.3602C1764.21 79.9202 1766.65 80.9702 1768.25 80.4502C1769.52 80.0302 1770.73 79.5702 1771.2 78.7302C1772.64 76.1802 1776.59 74.6402 1779.32 72.6102C1780.85 71.4802 1783.42 71.5402 1784.31 72.7402C1785.34 74.1402 1786.89 75.2702 1788.88 76.1602C1792.73 77.8802 1795.47 80.1102 1798.22 82.3202C1799.39 83.2702 1800.19 84.1302 1802.59 84.2202C1803.56 84.2602 1804.82 84.7702 1805.28 85.2702C1807.11 87.2002 1810.98 87.8302 1813.34 89.4002C1813.67 89.6102 1814.35 89.7702 1814.87 89.7702C1817.74 89.8002 1820.65 90.0702 1823.41 89.2502C1825.22 88.7202 1827.16 88.3102 1828.91 87.7302C1830.52 87.2002 1831.77 87.1302 1833.64 87.5102C1835.7 87.9302 1838.25 87.9502 1840.44 87.3102C1843.07 86.5302 1845.25 88.1802 1847.84 87.5302C1849.4 87.1302 1851.02 86.6902 1852.67 86.5402C1860.93 85.7602 1863.16 85.2702 1871.03 82.1202C1871.57 81.9002 1871.83 81.7202 1872.48 81.9602C1872.95 82.1302 1873.5 82.2802 1874.04 82.3402C1876.53 82.5902 1877.13 82.3002 1877.95 80.5902C1878.12 80.2402 1877.95 79.3202 1879.23 79.9502C1881.56 81.1102 1883.8 81.8702 1886.96 80.7902C1887.27 80.6802 1888.25 80.8302 1888.4 81.0002C1889.62 82.3502 1893.34 81.1403 1894.37 82.8303C1894.7 83.3903 1896.62 83.3502 1897.52 83.0302C1900.54 81.9502 1902.41 82.9503 1903.77 84.0803C1904.82 84.9703 1905.64 85.1302 1907.13 84.5702C1907.96 84.2602 1908.67 84.3002 1909.37 84.6702C1910.41 85.2202 1911.47 85.9603 1912.99 85.8303C1917.13 85.4703 1921.05 87.2502 1925.36 85.8802C1926.71 85.4502 1928.74 85.5602 1930.18 86.3702C1931.38 87.0502 1932.77 87.6902 1934.64 87.7002C1937.36 87.7102 1936.93 89.4102 1938.66 89.9302C1939.16 90.0802 1939.64 90.4202 1940.11 90.4102C1943.89 90.2802 1945.66 91.8802 1947.96 93.0402C1949.44 93.7802 1950.84 94.8902 1952.57 95.0702C1955.42 95.3702 1956.96 96.4302 1959.03 97.2602C1962.65 98.7102 1964.57 100.87 1967.26 102.71C1969.12 103.99 1969.03 104.04 1972.19 103.88C1973.79 103.8 1974.9 104.02 1975.61 104.91C1976.12 105.56 1977.28 105.71 1978.47 105.25C1978.95 105.07 1979.36 104.83 1979.84 104.64C1983.14 103.34 1984.84 103.39 1987.35 104.86C1987.75 105.09 1988.33 105.29 1988.49 105.57C1989.3 107.02 1990.96 107.57 1993.72 107.4C1995.45 107.29 1997.13 107.58 1998.75 107.99C1999.71 108.23 2001.36 108.42 2002.02 108.14C2003.98 107.3 2004.93 108.03 2006.45 108.48C2009.7 109.43 2013.16 110.18 2016.62 110.95L2018.33 21.6302L-123.709 -15.7199L-128.111 214C-126.246 213.51 -124.338 213.24 -122.295 213.39C-121.687 213.43 -121.205 213.34 -120.712 213.27" fill="#00D989"></path><path d="M-103.378 186.58L-104.918 137.73C-104.698 137.77 -104.499 137.79 -104.353 137.76C-102.518 137.29 -100.642 137.65 -98.7873 137.49C-94.6895 137.13 -90.5813 136.41 -86.2424 137.11C-84.5341 137.39 -82.2494 137.36 -80.3315 136.69C-78.5184 136.06 -76.3804 136.23 -74.3577 136.19C-71.8843 136.14 -69.9979 136.23 -69.5996 138.1C-69.4005 139.04 -67.3043 139.86 -66.0571 140.72C-63.9191 142.2 -61.1525 142.26 -58.218 141.63C-56.3211 141.22 -54.5708 140.62 -52.6738 140.22C-51.4371 139.96 -50.0538 140.11 -48.8171 140.54L-49.2466 126.74C-49.0265 126.78 -48.8276 126.81 -48.6809 126.77C-46.8468 126.3 -44.9707 126.67 -43.1157 126.5C-39.0179 126.14 -34.9097 125.41 -30.5813 126.11C-28.873 126.39 -26.5778 126.36 -24.6704 125.69C-22.8573 125.06 -20.7192 125.23 -18.6965 125.19C-16.2232 125.14 -14.3262 125.23 -13.9385 127.1C-13.7393 128.05 -11.6432 128.86 -10.396 129.72C-8.258 131.2 -5.49126 131.26 -2.55676 130.63C-0.659814 130.22 1.10085 129.62 2.98731 129.22C4.88425 128.82 7.17947 129.33 8.63624 130.43C9.51659 131.09 10.4388 131.79 11.948 131.85C14.9035 131.95 16.5908 133.01 18.3724 134.07C20.1331 135.13 21.9462 136.16 23.7698 137.19C24.6396 137.68 25.7506 137.94 26.872 137.54C27.9829 137.14 28.8109 136.97 29.8065 137.61C31.7349 138.84 34.2292 139.44 37.0065 140.03C40.1611 140.7 43.2109 140.8 46.355 140.71C49.0589 140.63 50.7043 141.14 51.8991 142.45C52.8423 143.49 54.6869 143.94 56.0493 143.45C58.1664 142.69 60.3568 142.38 62.7043 142.59C65.8275 142.87 66.9174 140.91 69.6003 140.79C70.7637 140.74 72.472 140.63 72.5244 141.31C72.6607 143.27 74.5471 143.77 77.5969 143.69C78.1105 143.68 79.0432 143.84 79.0851 143.99C79.6405 145.98 84.3043 145.03 85.4362 146.81C86.0021 147.7 88.0354 146.21 89.1672 146.69C91.4729 147.66 94.0092 147.59 96.6503 147.49C98.0442 147.43 98.5576 148.01 98.9873 148.64C99.3751 149.2 100.119 149.03 101 148.91C102.53 148.7 104.133 149.17 105.747 148.59C106.617 148.28 108.283 148.15 108.986 148.74C111.239 150.63 115.965 150.1 118.376 151.8C119.12 152.32 119.906 151.71 120.661 151.57C122.442 151.24 124.088 151.15 125.073 152.28C125.44 152.7 125.765 153.11 126.907 152.73C128.867 152.07 131.403 152.36 133.237 151.27C135.501 149.93 138.593 150.28 141.475 150.56C142.785 150.69 142.219 152.3 144.409 151.77C146.138 151.35 146.904 152.34 148.245 152.52C148.779 152.59 149.23 153.25 149.387 153.68C149.712 154.57 150.425 155.17 152.175 155.16C155.917 155.16 159.731 155.56 163.379 154.75C164.416 154.52 164.731 154.75 165.307 155.15C166.334 155.86 167.812 156.4 168.682 157.16C169.394 157.78 170.233 158.2 171.375 158.12C174.467 157.9 177.359 158.84 180.462 158.45C180.912 158.4 181.855 158.81 181.939 158.75C184.287 157.02 187.117 157.11 190.208 157.93C190.365 157.97 190.732 157.83 190.973 157.75C192.87 157.04 194.767 157.06 196.738 157.62C199.242 158.34 201.653 158.22 204.147 157.43C206.421 156.71 208.811 155.99 211.557 156.24C214.334 156.49 216.399 155.11 219.092 155.26C219.658 155.29 220.308 155.32 220.748 155.49C221.901 155.92 222.928 155.88 223.651 155.23C225.317 153.75 228.64 154.6 230.662 153.62C230.83 153.54 231.658 153.78 232.046 153.96C232.937 154.37 233.765 154.82 234.561 155.28C237.59 157.04 241.981 156.77 245.67 157.54C247.588 157.94 249.15 157.29 250.355 156.8C252.399 155.98 253.562 157.27 255.145 157.09C256.821 156.9 258.446 156.57 260.102 156.34C260.311 156.31 260.647 156.44 260.846 156.54C262.523 157.36 264.179 158.47 265.824 156.48C265.918 156.37 266.296 156.32 266.558 156.27C268.758 155.85 270.876 157.28 273.129 156.33C273.307 156.25 273.758 156.27 273.978 156.34C274.952 156.66 275.937 156.99 276.828 157.37C278.641 158.16 280.476 158.25 282.425 157.52C282.666 157.43 282.917 157.34 283.116 157.22C284.909 156.15 286.868 155.71 289.3 156.56C289.698 156.7 290.421 156.8 290.799 156.69C294.425 155.68 298.229 156.16 301.971 156.13C303.71 156.12 305.765 156.38 307.127 155.96C311.026 154.75 315.144 155.45 319.096 155.07C321.38 154.85 322.795 156.05 324.776 155.96C327.019 155.86 329.209 155.37 331.462 155.21C332.531 155.13 333.904 155.25 334.743 155.59C336.713 156.37 337.95 155.74 339.281 155.08C340.654 154.4 341.849 154.04 343.882 154.58C347.466 155.52 351.029 155.5 354.268 153.77C355.431 153.14 357.265 152.66 358.858 152.6C359.979 152.56 360.912 152.94 361.352 152.03C361.562 151.6 362.233 151.48 362.39 151.75C362.746 152.35 363.165 152.66 363.627 152.81C363.889 152.77 364.119 152.76 364.308 152.81C364.517 152.86 364.706 152.88 364.905 152.92C365.744 152.83 366.687 152.53 367.714 152.35C367.934 152.31 368.165 152.27 368.395 152.23C368.773 152.06 369.171 151.99 369.59 152.02C370.596 151.85 371.634 151.75 372.703 151.73C376.706 150.27 381.391 149.28 383.759 146.66C384.252 146.12 385.468 145.79 386.306 145.34C387.375 144.76 388.109 144.11 388.402 143.26C389.534 139.98 393.663 137.91 398.348 136.18C400.109 135.53 401.618 134.93 402.593 133.86C403.944 132.38 406.303 131.92 409.185 132.08C410.621 132.16 412.151 131.97 413.534 132.13C416.437 132.47 418.47 131.38 420.902 130.93C421.929 129.06 424.737 129.37 427.295 129.19C428.972 129.08 430.565 128.59 432.199 128.27C433.248 128.07 434.505 127.57 435.323 127.73C439.4 128.53 442.114 127.36 444.137 125.74C445.289 124.82 446.285 124.4 448.245 124.38C450.509 124.36 452.867 124.69 454.994 123.82C456.189 123.34 457.457 122.92 458.725 122.5C459.826 121.58 461.377 121.14 463.274 121.07C467.068 119.95 470.861 118.82 474.121 117.23C475.305 116.65 476.091 117.11 477.139 117.3C477.81 117.42 479.047 117.28 479.487 117C482.537 115.09 486.865 114.58 490.753 113.56C492.65 113.06 494.453 112.61 496.528 112.68C499.064 112.77 501.003 112.21 502.701 111.2C503.613 110.65 504.787 110.7 505.814 111.13C506.956 111.61 508.004 112.16 509.157 112.64C509.461 112.76 509.786 112.87 510.11 112.98C510.289 112.92 510.477 112.9 510.656 112.83C516.734 110.36 524.081 109.04 529.793 106.25C530.977 105.67 531.763 106.13 532.811 106.32C533.482 106.44 534.718 106.3 535.159 106.02C538.208 104.1 542.537 103.6 546.425 102.57C548.322 102.07 550.124 101.61 552.199 101.69C554.736 101.78 556.675 101.22 558.372 100.2C559.284 99.65 560.458 99.7 561.485 100.13C562.627 100.61 563.676 101.16 564.828 101.64C565.971 102.11 567.333 102.45 568.329 102.99C569.618 103.7 570.844 102.65 572.228 103.13C575.288 104.2 575.382 104.14 577.258 103.67C579.186 103.19 579.721 103.16 582.351 104.01C583.599 104.41 584.573 103.71 585.454 103.98C586.711 104.35 587.655 105.05 588.933 105.38C589.918 105.63 591.532 105.81 592.297 105.54C595.263 104.48 598.082 105.31 600.42 105.85C603.469 106.56 605.817 106.72 608.416 105.49C609.254 105.09 610.428 104.68 611.434 104.68C615.448 104.69 619.578 104.19 623.403 105.3C625.007 105.77 627.082 105.87 628.465 105.39C632.385 104.04 636.294 104.45 640.172 105.07C641.429 105.27 643.798 104.27 644.007 105.92C647.131 107.04 650.243 108.16 653.366 109.29C656.71 109.14 658.617 110.39 660.587 111.56C661.426 112.06 662.432 112.3 663.648 112.32C664.234 112.32 664.832 112.32 665.387 112.4C667.85 112.78 670.722 112.88 672.64 113.68C675.113 114.71 677.775 112.82 679.808 114.16C681.59 114.16 683.225 114.83 684.692 114.82C686.013 114.82 687.344 113.68 688.706 113.08C689.094 112.91 690.027 112.73 690.037 112.75C692.793 115.73 694.229 111.73 696.514 112.33C696.744 112.39 697.09 112.3 697.373 112.32C699.04 112.4 700.979 112.19 701.429 113.55C701.565 113.97 702.173 114.06 702.718 113.8C704.511 112.95 706.449 112.47 708.818 112.12C710.809 111.83 711.92 111.76 713.209 112.58C713.524 112.79 714.383 113.03 714.603 112.94C716.793 112.1 719.717 112.45 721.813 111.33C723.365 110.5 724.518 110.63 724.989 111.51C725.89 113.16 728.269 114.1 730.166 115.28C731.571 116.16 732.472 115.86 733.038 114.85C733.122 114.71 733.373 114.59 733.541 114.47C735.742 115.76 739.337 114.65 741.611 115.86C743.476 116.85 745.216 117.94 747.679 118.51C749.335 120.94 752.227 121.6 756.482 120.35C756.629 120.31 757.006 120.47 757.237 120.56C759.627 121.45 761.639 121.02 763.431 119.96C765.076 118.99 767.267 118.99 769.143 119.27C771.857 119.67 775.001 120.05 776.081 121.78C777.087 123.37 780.682 123.13 781.782 124.55C783.931 124.66 785.503 123.87 787.169 123.34C789.925 122.46 792.661 124.08 795.365 123.17C795.595 123.09 796.517 123.36 796.685 123.57C797.261 124.29 797.45 125.12 798.152 125.79C798.865 126.47 799.913 127.07 800.982 127.61C802.47 128.37 800.584 129.37 801.799 130.23C802.669 130.85 803.099 131.57 804.629 131.89C808.371 132.67 809.031 135.16 812.28 136.23C812.102 138.69 815.644 139.35 818.652 140.24C819.103 140.38 820.119 140.43 820.276 140.3C822.173 138.73 824.531 140.34 826.418 139.93C827.812 139.63 828.483 140.05 829.489 140.26C831.061 140.58 832.056 139.63 833.471 139.58C833.974 139.56 834.614 139.69 835.001 139.88C836.196 140.47 837.59 140.48 839.068 140.49C839.896 140.49 841.111 140.53 841.468 140.82C844.266 143.08 849.045 143.56 852.944 144.81C855.207 145.53 857.44 146.14 858.331 147.72C858.865 148.67 860.71 148.97 862.344 149.37C863.812 149.73 865.509 150 866.505 150.93C869.125 153.39 872.259 155.7 874.596 158.24C875.738 159.49 877.111 159.84 879.228 159.86C880.423 159.87 881.408 160.04 882.414 160.45C886.785 162.2 890.809 164.3 896.469 164.83C897.244 164.9 897.957 165.31 898.585 165.63C900.262 166.5 901.677 167.54 903.993 167.95C905.041 169.84 907.997 169.54 910.47 169.49C912.116 169.45 913.73 168.92 915.385 168.68C916.507 168.52 917.702 168.46 918.593 169.01C919.777 169.73 921.192 170.22 922.722 170.71C924.095 171.14 924.483 172.14 926.296 172.62C930.666 173.76 934.753 175.21 938.254 177.15C940.287 178.27 942.949 179.02 945.936 179.15C947.717 179.23 949.248 179.44 950.767 180.02C952.14 180.54 953.869 180.96 955.504 181.04C957.454 181.13 958.701 181.62 959.906 182.35C961.478 183.29 963.134 184.19 964.779 185.1C969.391 187.66 969.433 187.58 975.7 188.44C977.042 188.62 977.754 188.35 978.781 188.16C980.458 187.85 982.177 187.85 983.906 188.11C991.766 189.29 993.59 189.26 1001.54 188.08C1003.55 187.78 1005.6 187.66 1007.41 188.35C1008.7 188.84 1010.27 189.14 1011.49 188.72C1014.2 187.77 1017.07 187.9 1019.97 187.92C1021.51 187.92 1022.84 187.64 1023.91 187.04C1025.05 186.4 1025.96 186.36 1027.62 186.7C1030.36 187.27 1033.48 188.19 1036.15 186.37C1036.29 186.27 1037.26 186.64 1037.65 186.55C1040.62 185.85 1043.69 187.66 1046.68 186.39C1046.79 186.35 1048.47 187.56 1048.7 187.48C1050.83 186.8 1052.52 187.35 1054.42 187.76C1055.34 187.96 1056.77 187.81 1057.73 187.55C1059.21 187.14 1059.56 187.46 1060.15 188.12C1062.68 190.97 1150.98 175.5 1157.68 174.51C1199.15 168.41 1238.62 132.71 1283.04 137.33C1286.51 137.69 1289.36 136.83 1291.88 135.75C1294 134.84 1296.25 134.11 1298.67 133.58C1301.16 133.03 1302.7 131.79 1305.17 131.16C1307.52 130.56 1308.88 130.66 1310.46 131.6C1310.98 131.91 1311.62 132.39 1312.59 132.06C1315.04 131.25 1317.86 130.89 1320.04 129.68C1323.14 127.97 1327.78 127.3 1330.98 127.73C1337.93 128.67 1338.58 128.63 1345.1 127C1345.62 126.87 1346.21 126.83 1346.75 126.72C1351.86 125.65 1357.17 124.76 1361.8 123.16C1364.16 122.34 1366.24 121.78 1368.99 121.77C1372.62 121.75 1377.38 120.84 1381.02 119.61C1381.78 119.35 1382.35 119.09 1383.21 119.49C1384.44 120.06 1386.12 120.11 1387.31 119.73C1390.96 118.56 1394.37 118.82 1398.09 119.59C1400.47 120.08 1403.17 120.17 1405.7 119.43C1406.45 119.21 1407.35 119.03 1408.17 119.03C1408.65 119.03 1409.13 119.01 1409.61 119C1409.75 118.88 1409.92 118.77 1410.07 118.64C1411.86 116.99 1414.17 115.69 1418.02 115.32C1420.8 115.06 1423.2 114.23 1424.8 112.64C1426.48 110.97 1430.1 110.07 1431.49 108.18C1431.67 107.94 1432.4 107.67 1432.86 107.67C1435.57 107.7 1438.05 105.76 1441.01 107.35C1441.46 107.6 1442.69 107.31 1443.16 106.83C1444.72 105.2 1446.62 104 1450.26 103.6C1453.17 103.28 1455.53 101.98 1455.74 100.22C1455.94 98.63 1457.16 97.6 1459.07 96.47C1461.83 94.85 1463.37 92.6 1467.44 91.67C1470.12 88.7 1475.65 87.09 1478.85 84.35C1479.29 83.97 1479.98 83.43 1480.59 83.41C1483.05 83.33 1483.88 82.36 1485.01 81.41C1485.59 80.92 1486.82 80.65 1487.8 80.32C1491.54 79.08 1495.57 78.93 1499.49 79.74C1502.93 80.45 1505.97 80.4001 1509.49 79.6401C1512.15 79.0701 1514.88 78.5801 1517.48 77.8901C1518.49 77.6201 1519.71 77.46 1520.81 77.49C1521.86 77.52 1523.07 78.15 1523.85 77.99C1525.11 77.72 1526.3 77.44 1527.64 77.46C1530.05 76.15 1532.67 74.9401 1534.52 73.3601C1534.96 72.9801 1535.65 72.4401 1536.26 72.4201C1538.73 72.3401 1539.55 71.3701 1540.67 70.4201C1541.25 69.9301 1542.48 69.6601 1543.46 69.3301C1547.2 68.0901 1551.23 67.94 1555.15 68.75C1558.6 69.46 1561.64 69.41 1565.15 68.65C1567.81 68.08 1570.54 67.59 1573.14 66.9C1574.15 66.63 1575.38 66.47 1576.48 66.5C1577.52 66.52 1578.73 67.16 1579.51 66.99C1580.87 66.7 1582.11 66.36 1583.6 66.44C1585.62 68.12 1585.7 68.12 1588.48 67.4101C1589.8 67.0701 1591.53 67.0701 1593.87 67.3301C1594.99 67.4501 1596.17 67.4401 1597.32 67.4501C1598.35 67.4701 1598.91 67.81 1599.19 68.28C1599.75 69.27 1601.22 69.26 1602.67 69.3C1604.14 69.34 1605.62 69.3001 1606.61 68.5701C1607.3 68.0601 1607.75 67.4601 1608.4 66.9401C1609.06 66.4001 1610.52 66.3901 1611.33 66.9401C1612.06 67.4201 1612.65 67.97 1613.33 68.47C1614.75 69.5 1617.01 69.6901 1618.26 68.6301C1619.46 67.6201 1620.24 67.24 1622.25 67.9C1623.94 68.45 1625.98 69.24 1627.66 69.09C1629.39 68.94 1630.75 68.73 1632.26 69.3C1634.01 69.97 1635.86 69.81 1637.82 69.46C1638.64 69.32 1639.26 69.72 1639.47 70.21C1640.89 70.3 1642.41 70.25 1643.68 70.53C1646.35 71.1201 1648.88 71.9001 1651.46 72.6101C1653.93 73.2901 1656.9 73.4901 1658.16 75.2201C1658.73 76.0001 1660.45 76.11 1661.95 76.12C1664.27 76.13 1666.48 76.16 1668.59 76.93C1670.66 77.69 1672.77 78.3901 1675.68 77.3301C1677.24 76.7601 1679.73 78.6301 1681.94 77.3301C1686.37 78.4001 1690.94 79.3201 1695.2 80.5701C1700.28 82.0601 1703.3 82.8 1707.94 82.9001C1710.02 82.9401 1711.93 83.07 1713.74 83.71C1714.35 83.93 1715.68 83.9801 1716.22 83.7601C1719.72 82.3301 1724.44 83.5501 1727.8 81.9701C1729.76 81.9701 1731.77 81.8001 1733.72 81.8701C1733.91 81.7101 1734.08 81.5301 1734.19 81.3301C1735.65 78.8001 1739.62 77.2901 1742.38 75.2901C1743.92 74.1701 1746.49 74.2601 1747.37 75.4701C1748.38 76.8801 1749.91 78.0201 1751.91 78.9401C1753.32 79.5901 1754.55 80.3201 1755.72 81.0801C1758 80.5001 1760.1 79.5701 1762.86 79.8801C1766.46 78.9901 1770.77 78.9401 1773.46 76.9201C1774.66 76.0301 1776.45 75.4501 1778.17 74.8201C1779.4 74.3701 1782.77 74.7201 1781.75 72.9001C1782.88 71.4701 1785.3 72.5501 1786.9 72.0401C1788.18 71.6301 1789.39 71.1801 1789.88 70.3501C1791.33 67.8201 1795.31 66.3101 1798.06 64.3101C1799.6 63.1901 1802.17 63.2801 1803.05 64.4901C1804.07 65.9001 1805.6 67.0401 1807.59 67.9501C1811.42 69.7101 1814.14 71.9601 1816.85 74.2001C1818.02 75.1601 1818.8 76.0301 1821.21 76.1401C1822.19 76.1901 1823.43 76.7101 1823.9 77.2101C1825.7 79.1501 1829.57 79.8301 1831.91 81.4201C1832.24 81.6401 1832.91 81.8001 1833.43 81.8101C1836.3 81.8701 1839.21 82.1601 1841.97 81.3801C1843.79 80.8601 1845.73 80.4801 1847.48 79.9101C1849.09 79.3901 1850.35 79.3401 1852.22 79.7401C1854.27 80.1801 1856.82 80.2301 1859.03 79.6101C1861.67 78.8601 1863.83 80.5301 1866.42 79.9001C1868 79.5201 1869.61 79.1001 1871.27 78.9601C1879.54 78.2601 1881.76 77.8001 1889.66 74.7201C1890.2 74.5001 1890.47 74.3301 1891.12 74.5701C1891.59 74.7401 1892.12 74.9001 1892.68 74.9601C1895.16 75.2401 1895.76 74.9601 1896.61 73.2501C1896.79 72.9001 1896.62 71.9801 1897.89 72.6201C1900.2 73.8001 1902.44 74.5801 1905.6 73.5301C1905.91 73.4201 1906.89 73.5801 1907.05 73.7501C1908.25 75.1101 1911.98 73.9301 1912.99 75.6401C1913.31 76.2001 1915.23 76.1901 1916.14 75.8701C1919.17 74.8201 1921.04 75.8401 1922.38 76.9801C1923.43 77.8801 1924.24 78.0501 1925.74 77.5001C1926.57 77.2001 1927.28 77.2401 1927.99 77.6201C1929.01 78.1801 1930.07 78.9301 1931.59 78.8201C1935.73 78.5001 1939.64 80.3201 1943.96 78.9901C1945.32 78.5701 1947.35 78.7101 1948.78 79.5301C1949.98 80.2201 1951.35 80.8701 1953.22 80.9001C1955.94 80.9401 1955.5 82.6301 1957.22 83.1701C1957.72 83.3301 1958.19 83.6701 1958.66 83.6601C1962.44 83.5701 1964.19 85.1901 1966.48 86.3701C1967.95 87.1301 1969.34 88.2501 1971.07 88.4501C1973.92 88.7701 1975.45 89.8501 1977.51 90.7001C1981.1 92.1801 1983.01 94.3701 1985.68 96.2301C1987.54 97.5301 1987.44 97.5801 1990.61 97.4501C1992.2 97.3901 1993.31 97.6201 1994.01 98.5101C1994.53 99.1601 1995.67 99.3301 1996.86 98.8801C1997.35 98.7001 1997.76 98.4601 1998.25 98.2801C2001.56 97.0101 2003.26 97.0801 2005.75 98.5701C2006.15 98.8001 2006.73 99.0101 2006.88 99.2901C2007.67 100.75 2009.33 101.31 2012.09 101.17C2013.82 101.08 2015.5 101.38 2017.12 101.81C2018.09 102.06 2019.72 102.27 2020.39 101.99C2022.36 101.17 2023.31 101.91 2024.82 102.37C2028.06 103.36 2031.51 104.14 2034.97 104.94L2037.63 -19L-103.902 -42.3701L-110.735 187.3C-108.87 186.83 -106.952 186.58 -104.918 186.74C-104.311 186.79 -103.829 186.71 -103.336 186.63" fill="black"></path><path d="M1586.61 111.887C1586.87 109.407 1587.58 107.047 1589.21 104.817C1591.13 102.177 1593.65 100.017 1595.21 97.0868C1595.65 96.2568 1596.46 95.4768 1597.29 95.0068C1598.95 94.0668 1599.72 92.4268 1600.85 91.0768C1601.79 89.9568 1602.96 88.7668 1603.27 87.4368C1603.64 85.8668 1601.61 85.1668 1600.97 83.8868C1598.84 79.6268 1595.77 75.9468 1593.72 71.6368C1592.76 69.6068 1592.45 67.5968 1592.65 65.4468C1592.73 64.5568 1593.3 63.9368 1594.09 63.5868C1594.88 63.2268 1595.78 63.2468 1596.42 63.8168C1597.4 64.6868 1598.37 65.6268 1599.1 66.6968C1601.58 70.3568 1603.76 74.2068 1606.86 77.4368C1607.63 78.2368 1607.95 79.4468 1608.54 80.4268C1608.64 80.5968 1609.16 80.7468 1609.25 80.6668C1610.64 79.2868 1612.02 77.8868 1613.34 76.4368C1613.88 75.8368 1614.22 75.0468 1614.76 74.4468C1618.29 70.5568 1621.77 66.6168 1625.42 62.8368C1627.45 60.7368 1629.25 58.4268 1631.45 56.4368C1633.47 54.6068 1634.85 52.0768 1636.56 49.8868C1636.95 49.3868 1637.54 49.0368 1638.03 48.6068C1638.65 48.0768 1639.45 47.6668 1639.85 47.0068C1641.06 44.9768 1642.53 43.2868 1644.69 42.2568C1644.83 42.1868 1644.97 42.0768 1645.07 41.9468C1647.04 39.5468 1649.01 37.1568 1650.97 34.7468C1651.59 33.9868 1652.13 33.1668 1652.82 32.4668C1656.62 28.5968 1660.55 24.8668 1663.87 20.5368C1665.46 18.4568 1667.54 16.7568 1669.32 14.8268C1672.44 11.4568 1676.09 8.57676 1678.68 4.70676C1679.31 3.76676 1680.37 3.11676 1681.06 2.20676C1682.82 -0.123235 1685.19 -0.223225 1687.73 0.186775C1688.72 0.346775 1689.74 1.90676 1689.38 2.87676C1688.93 4.07676 1688.36 5.27677 1687.63 6.32677C1686.98 7.25677 1686.04 7.99677 1685.22 8.80677C1681.93 12.0368 1679.11 15.6468 1676.37 19.3368C1676.17 19.5968 1675.98 19.8668 1675.76 20.1168C1672.61 23.6768 1669.55 27.3268 1666.26 30.7468C1664.31 32.7668 1662.63 34.9668 1660.97 37.2068C1660.29 38.1268 1659.75 39.2168 1658.89 39.9068C1657.09 41.3468 1655.73 43.1568 1654.17 44.7968C1653.02 45.9968 1651.93 47.1768 1651.3 48.7468C1651.06 49.3468 1650.74 49.9568 1650.32 50.4368C1647.85 53.2868 1645.32 56.0768 1642.85 58.9368C1640.28 61.9068 1637.73 64.8968 1635.23 67.9268C1631.41 72.5468 1627.64 77.2068 1623.84 81.8468C1623.32 82.4768 1622.74 83.0668 1622.16 83.6468C1620.28 85.4968 1618.61 87.5068 1617.13 89.6868C1616.23 91.0068 1616.11 91.1068 1617.02 92.2168C1618.67 94.2068 1619.53 96.3968 1619.35 99.0068C1619.22 100.837 1618.05 102.587 1616.13 102.817C1612.47 103.237 1609.24 104.877 1605.97 106.257C1602.85 107.577 1599.77 109.277 1597.26 111.677C1595.56 113.307 1593.54 114.367 1591.48 115.367C1590.79 115.707 1589.89 115.727 1589.09 115.707C1587.91 115.677 1586.91 114.667 1586.76 113.537C1586.7 113.047 1586.67 112.557 1586.62 111.917M1611.27 97.5768C1610.96 97.2968 1610.85 97.1168 1610.71 97.0968C1610.04 96.9968 1609.46 97.5868 1609.56 98.2568C1609.58 98.3968 1609.83 98.6168 1609.83 98.6168C1610.3 98.2968 1610.76 97.9468 1611.26 97.5768" fill="white"></path><path d="M1481.36 61.3367C1482.81 61.1867 1483.67 61.9367 1484.35 63.2567C1485.41 65.3067 1486.03 67.5067 1486.75 69.6667C1487.58 72.1467 1488.38 74.6267 1489.56 76.9567C1489.48 79.7467 1491.39 81.8167 1492.21 84.2667C1493.14 87.0367 1494.42 89.6968 1494.81 92.6468C1494.9 93.3668 1495.49 94.0967 1496.02 94.6667C1496.23 94.8967 1496.9 94.8067 1497.32 94.7067C1497.6 94.6367 1497.87 94.3267 1498.04 94.0567C1502.08 87.7267 1506.57 81.6867 1510.67 75.4067C1513.08 71.7167 1515.71 68.1667 1518.07 64.4367C1519.72 61.8267 1521.78 59.4667 1523.64 56.9867C1526.1 53.7167 1528.69 50.5367 1530.95 47.1467C1532.81 44.3667 1535.3 42.2367 1537.57 39.8767C1539.02 38.3667 1541.04 38.1067 1542.94 37.7967C1544.23 37.5867 1544.91 38.7967 1545.6 39.7067C1545.74 39.8867 1545.7 40.3767 1545.55 40.5667C1543.78 42.7167 1541.95 44.8167 1540.18 46.9667C1538.62 48.8667 1536.86 50.6567 1535.66 52.7667C1534.19 55.3667 1531.73 57.1367 1530.37 59.8067C1529.12 62.2667 1527.57 64.5867 1526.06 66.9067C1522.76 71.9767 1519.3 76.9467 1516.1 82.0767C1512.63 87.6167 1509.4 93.3067 1506.03 98.9167C1504.85 100.877 1503.64 102.827 1502.34 104.697C1501.49 105.907 1501.29 107.127 1501.93 108.387C1503.26 111.037 1504.09 113.807 1504.76 116.707C1505.27 118.887 1506.67 120.837 1506.76 123.187C1507.8 124.647 1507.46 126.347 1507.63 127.957C1507.8 129.547 1507.04 130.827 1506.29 132.087C1505.36 133.647 1502.98 133.997 1501.54 132.827C1499.49 131.157 1498.25 129.037 1498.9 126.377C1499.16 125.337 1499.21 124.537 1498.71 123.677C1497.56 121.697 1497.49 119.257 1495.95 117.447C1495.51 116.927 1494.66 116.917 1494.41 117.607C1493.61 119.777 1492.21 121.537 1490.91 123.407C1489.53 125.407 1488.72 127.777 1487.27 129.797C1485.94 131.647 1484.95 133.747 1483.72 135.677C1482.49 137.607 1481.23 139.527 1479.84 141.337C1478.65 142.887 1477.32 144.347 1475.94 145.737C1475.14 146.547 1473.75 146.407 1472.77 145.657C1471.52 144.687 1470.84 143.507 1471.03 141.837C1471.27 139.697 1471.94 137.697 1472.92 135.807C1474.42 132.917 1475.4 129.787 1477.19 127.037C1478.88 124.437 1480.51 121.777 1482.01 119.067C1484.15 115.207 1486.89 111.727 1489.08 107.907C1489.64 106.937 1490.16 105.827 1490.25 104.737C1490.34 103.677 1490.01 102.517 1489.61 101.497C1488.05 97.5567 1486.38 93.6567 1484.75 89.7467C1483.93 87.7967 1483.27 85.8167 1482.82 83.7267C1482.38 81.6767 1481.5 79.7167 1480.73 77.7567C1478.98 73.3267 1477.61 68.8267 1477.92 63.9867C1478.03 62.2467 1478.97 61.3867 1480.8 61.3167C1480.96 61.3167 1481.13 61.3167 1481.36 61.3167" fill="white"></path><path d="M1528.39 116.587C1528.42 116.457 1528.49 115.417 1528.95 114.607C1530.79 111.347 1531.95 107.677 1534.64 104.897C1535.3 104.217 1535.6 103.197 1536.1 102.357C1536.51 101.657 1536.86 100.867 1537.43 100.327C1540.23 97.7168 1541.89 94.2768 1544.11 91.2468C1545.19 89.7868 1545.07 89.4168 1543.56 87.9968C1541.42 85.9668 1539.2 84.0268 1537.06 81.9868C1535.73 80.7168 1535.02 79.0468 1534.56 77.3068C1534.47 76.9568 1534.81 76.3168 1535.14 76.0668C1535.91 75.4768 1536.77 74.9668 1537.66 74.5868C1538.04 74.4168 1538.66 74.4868 1539.05 74.6868C1541.09 75.7168 1543.14 76.6868 1544.82 78.3568C1546.2 79.7268 1547.88 80.8068 1549.44 81.9868C1549.91 82.3468 1550.82 82.1568 1551.19 81.6368C1551.94 80.5768 1552.6 79.4368 1553.41 78.4268C1555.15 76.2568 1556.6 73.8468 1558.82 72.0868C1561.42 67.7368 1565.52 64.5468 1568.08 60.1568C1568.41 59.5968 1568.82 59.0668 1569.28 58.5968C1572.35 55.4168 1574.74 51.6568 1577.71 48.4168C1580.93 44.9068 1583.9 41.2468 1586.67 37.3968C1587.34 36.4668 1588.24 35.7068 1589.02 34.8668C1590.47 33.3168 1592.06 31.9068 1593.14 29.9968C1593.76 28.8868 1594.9 28.0568 1595.8 27.1068C1596.59 26.2668 1597.61 25.5468 1598.12 24.5668C1599.24 22.4068 1601.17 21.2168 1603 19.8368C1603.85 19.1968 1604.69 18.8868 1605.7 18.8568C1607.04 18.8168 1608.39 18.8268 1609.1 20.2468C1609.76 21.5568 1609.44 23.1568 1608.33 24.2968C1607.18 25.4768 1606.1 26.7468 1604.79 27.7368C1602.4 29.5468 1600.76 32.0068 1598.85 34.2068C1596.82 36.5368 1595.08 39.1268 1593.21 41.6068C1591.44 43.9568 1589.66 46.2968 1587.9 48.6468C1585.85 51.3968 1583.84 54.1768 1581.77 56.8968C1579.3 60.1468 1577.14 63.6468 1574.2 66.5368C1573.73 66.9968 1573.32 67.5068 1572.94 68.0468C1570.97 70.8568 1569.08 73.7168 1567.06 76.4768C1565.32 78.8468 1564.37 81.7568 1562.1 83.7468C1561.52 85.5768 1559.81 86.4968 1558.73 87.9368C1558.1 88.7768 1557.57 89.6968 1558.17 90.6268C1559.36 92.4468 1559.02 94.4168 1558.98 96.3668C1558.96 97.4568 1558.35 98.2668 1557.42 98.7168C1554.61 100.077 1552 101.687 1549.46 103.537C1547.57 104.917 1545.9 106.467 1544.44 108.197C1541.92 111.197 1539.65 114.407 1537.28 117.527C1536.59 118.437 1535.95 119.387 1535.18 120.227C1533.97 121.537 1531.91 122.127 1530.77 121.427C1529.31 120.537 1528.22 119.327 1528.39 116.607" fill="white"></path></g></svg>