<svg xmlns="http://www.w3.org/2000/svg" width="100%" viewBox="0 0 1920 191" fill="none" className="sust-deco_bottom"><g clip-path="url(#clip0_2007_2897)"><path fill-rule="evenodd" clip-rule="evenodd" d="M0 165.887V191H959.371C956.02 190.62 955.313 190.307 951.66 188.367C951.394 188.226 951.128 188.085 950.862 187.944C949.527 187.237 948.194 186.531 946.91 185.797C945.73 185.117 944.53 184.677 942.66 184.657C941.1 184.637 939.44 184.287 938.11 183.817C936.64 183.297 935.17 183.137 933.47 183.127C930.62 183.117 928.05 182.467 926.07 181.417C922.66 179.617 918.7 178.317 914.49 177.337C913.528 177.112 912.971 176.711 912.445 176.333C912.014 176.023 911.604 175.728 911.01 175.557C909.52 175.137 908.15 174.697 907 174.017C906.13 173.497 904.99 173.597 903.93 173.807C903.357 173.92 902.791 174.069 902.227 174.218C901.245 174.476 900.267 174.734 899.27 174.797C899.032 174.811 898.79 174.828 898.545 174.845C896.365 174.997 894.011 175.161 893.04 173.497C891.292 173.246 890.06 172.584 888.824 171.919C888.483 171.735 888.142 171.552 887.79 171.377C887.724 171.345 887.657 171.311 887.589 171.277C887.028 170.997 886.4 170.683 885.74 170.647C881.298 170.385 877.871 169.028 874.444 167.672C873.69 167.373 872.935 167.074 872.17 166.787C871.2 166.417 870.25 166.287 869.11 166.317C867.09 166.367 865.77 166.067 864.63 164.867C863.205 163.356 861.496 161.946 859.787 160.536C858.715 159.652 857.643 158.767 856.64 157.857C855.802 157.096 854.514 156.835 853.277 156.585C853.052 156.54 852.828 156.495 852.61 156.447C852.383 156.396 852.151 156.348 851.919 156.3C850.553 156.016 849.19 155.732 848.72 154.937C847.88 153.5 845.952 152.943 843.919 152.354C843.773 152.312 843.627 152.27 843.48 152.227C842.335 151.89 841.117 151.627 839.898 151.363C837.102 150.759 834.302 150.154 832.38 148.657C832.03 148.387 830.87 148.397 830.08 148.417L830.067 148.417C828.672 148.457 827.336 148.495 826.18 147.957C825.81 147.787 825.19 147.687 824.71 147.717C824.154 147.759 823.67 147.952 823.186 148.145C822.504 148.417 821.823 148.689 820.94 148.537C820.695 148.494 820.47 148.436 820.249 148.38C819.598 148.213 818.986 148.056 818 148.317C817.311 148.502 816.544 148.389 815.763 148.273C814.514 148.089 813.226 147.899 812.15 148.907C812.01 149.037 811.04 149.027 810.6 148.907C810.242 148.81 809.876 148.716 809.51 148.623C806.911 147.959 804.3 147.292 804.37 145.127C802.94 144.695 802.012 143.947 801.086 143.2C799.977 142.307 798.871 141.416 796.91 141.067C795.829 140.876 795.305 140.442 794.766 139.995C794.572 139.834 794.375 139.671 794.15 139.517C793.578 139.123 793.688 138.671 793.795 138.23C793.91 137.754 794.023 137.291 793.27 136.927C792.23 136.427 791.21 135.867 790.5 135.217C790.101 134.847 789.86 134.418 789.617 133.985C789.439 133.67 789.261 133.353 789.02 133.057C788.84 132.847 787.96 132.617 787.74 132.707C786.464 133.215 785.155 133.083 783.839 132.951C782.535 132.821 781.224 132.689 779.93 133.177C779.596 133.303 779.266 133.44 778.935 133.578C777.711 134.089 776.461 134.611 774.84 134.587C774.313 133.931 773.253 133.674 772.18 133.413C771.013 133.131 769.831 132.844 769.3 132.037C768.25 130.433 765.457 130.114 762.944 129.828C762.825 129.814 762.707 129.801 762.59 129.787C760.8 129.577 758.71 129.657 757.18 130.687C755.52 131.817 753.61 132.317 751.3 131.517C751.263 131.504 751.223 131.49 751.182 131.475C750.961 131.394 750.688 131.295 750.57 131.337C746.57 132.737 743.79 132.187 742.11 129.817C740.067 129.405 738.524 128.595 736.983 127.785C736.73 127.652 736.476 127.519 736.22 127.387C735.133 126.831 733.761 126.849 732.392 126.866C730.976 126.884 729.563 126.902 728.47 126.287C728.421 126.327 728.364 126.366 728.307 126.405C728.179 126.494 728.049 126.583 728 126.687C727.5 127.717 726.66 128.037 725.28 127.217C724.816 126.939 724.324 126.677 723.832 126.415C722.36 125.633 720.889 124.851 720.2 123.637C719.72 122.787 718.62 122.697 717.17 123.577C716.092 124.231 714.758 124.453 713.433 124.674C712.35 124.854 711.273 125.033 710.35 125.447C710.14 125.537 709.32 125.327 709.01 125.137C707.75 124.357 706.7 124.467 704.81 124.837C702.57 125.267 700.74 125.827 699.06 126.737C698.55 127.017 697.97 126.957 697.82 126.537C697.415 125.407 696.049 125.429 694.672 125.452C694.416 125.456 694.16 125.46 693.91 125.457C693.794 125.453 693.667 125.469 693.542 125.484C693.377 125.505 693.216 125.526 693.09 125.497C692.218 125.295 691.501 125.809 690.781 126.324C689.685 127.108 688.584 127.896 686.93 126.157C686.92 126.137 686.03 126.357 685.67 126.537C685.253 126.752 684.842 127.023 684.433 127.291C683.59 127.846 682.759 128.393 681.91 128.427C681.242 128.456 680.53 128.332 679.785 128.202C678.969 128.06 678.113 127.911 677.23 127.947C676.195 127.292 675.031 127.516 673.815 127.749C672.693 127.964 671.527 128.188 670.38 127.737C669.059 127.216 667.28 127.067 665.511 126.919C664.802 126.859 664.095 126.8 663.42 126.717C663.002 126.662 662.553 126.675 662.112 126.688C661.994 126.692 661.876 126.695 661.76 126.697C660.59 126.727 659.63 126.527 658.81 126.057C658.727 126.01 658.645 125.962 658.562 125.915C656.726 124.859 654.883 123.799 651.84 124.057C649.427 123.258 647.021 122.453 644.611 121.646C644.004 121.443 643.397 121.24 642.79 121.037C642.61 119.903 641.494 120.074 640.422 120.238C639.943 120.312 639.474 120.383 639.1 120.337C635.39 119.867 631.65 119.597 627.96 121.087C626.66 121.617 624.67 121.597 623.13 121.187C620.337 120.455 617.424 120.651 614.516 120.848C613.572 120.912 612.629 120.975 611.69 121.007C610.73 121.047 609.62 121.497 608.84 121.927C606.41 123.257 604.16 123.177 601.23 122.577C601.032 122.538 600.831 122.496 600.626 122.453C598.503 122.013 596.025 121.5 593.48 122.567C592.76 122.867 591.22 122.747 590.27 122.527C589.625 122.379 589.059 122.125 588.489 121.87C587.981 121.642 587.471 121.413 586.9 121.257C586.518 121.154 586.123 121.247 585.695 121.347C585.172 121.47 584.6 121.605 583.94 121.407C581.4 120.647 580.89 120.697 579.07 121.247L578.972 121.277C577.296 121.789 577.164 121.829 574.26 120.897C573.63 120.69 573.046 120.824 572.474 120.955C571.829 121.102 571.198 121.247 570.53 120.897C569.931 120.582 569.203 120.351 568.473 120.12C568.019 119.976 567.565 119.832 567.14 119.667C566.561 119.443 566.006 119.197 565.451 118.95C564.941 118.724 564.431 118.498 563.9 118.287C562.91 117.887 561.79 117.887 560.94 118.467C559.36 119.537 557.53 120.177 555.11 120.177C553.13 120.177 551.43 120.697 549.64 121.267C548.656 121.581 547.64 121.858 546.625 122.135C543.858 122.89 541.101 123.642 539.03 125.127C538.61 125.427 537.45 125.617 536.8 125.517C536.568 125.483 536.35 125.434 536.137 125.386C535.423 125.225 534.775 125.079 533.92 125.557C530.918 127.243 527.408 128.484 523.897 129.725C521.162 130.692 518.426 131.659 515.93 132.837C515.829 132.887 515.721 132.918 515.612 132.949C515.548 132.967 515.483 132.985 515.42 133.007C515.11 132.907 514.79 132.807 514.5 132.697C513.921 132.473 513.366 132.227 512.81 131.98C512.301 131.754 511.791 131.528 511.26 131.317C510.27 130.917 509.15 130.917 508.3 131.497C506.72 132.567 504.89 133.207 502.47 133.207C500.49 133.207 498.79 133.727 497 134.297C496.031 134.603 495.033 134.875 494.035 135.147C491.254 135.905 488.48 136.66 486.39 138.147C485.97 138.447 484.81 138.637 484.16 138.537C483.928 138.503 483.71 138.453 483.497 138.406C482.783 138.245 482.135 138.099 481.28 138.577C478.247 140.288 474.689 141.543 471.138 142.796L471.08 142.817C469.28 142.957 467.81 143.457 466.8 144.407L466.669 144.458C465.522 144.901 464.369 145.347 463.29 145.857C461.745 146.587 460.038 146.605 458.341 146.624C457.852 146.629 457.363 146.635 456.88 146.657C455.02 146.747 454.09 147.197 453.02 148.167C451.15 149.857 448.6 151.127 444.69 150.477C444.141 150.387 443.404 150.62 442.672 150.851C442.352 150.953 442.032 151.054 441.73 151.127C441.248 151.245 440.77 151.379 440.294 151.513C439.238 151.808 438.185 152.103 437.09 152.227C436.649 152.276 436.199 152.309 435.754 152.342C433.742 152.491 431.805 152.634 431.06 154.197C430.354 154.364 429.685 154.589 429.017 154.814C427.515 155.32 426.013 155.826 424.09 155.667C423.344 155.605 422.563 155.657 421.778 155.709C421.163 155.749 420.546 155.79 419.94 155.777C417.18 155.717 414.95 156.267 413.72 157.797C412.83 158.897 411.41 159.557 409.76 160.267C405.37 162.167 401.5 164.387 400.55 167.707C400.31 168.557 399.63 169.247 398.63 169.857C398.359 170.022 398.045 170.175 397.731 170.328C397.133 170.62 396.539 170.91 396.25 171.277C394.58 173.365 391.552 174.532 388.527 175.698C387.64 176.04 386.753 176.382 385.9 176.747C384.88 176.797 383.9 176.937 382.95 177.147C382.55 177.137 382.17 177.227 381.82 177.407C381.61 177.457 381.39 177.507 381.18 177.557C380.743 177.651 380.326 177.77 379.927 177.885C379.431 178.027 378.963 178.161 378.52 178.227C378.33 178.207 378.15 178.187 377.95 178.147C377.78 178.107 377.56 178.127 377.31 178.177C376.86 178.037 376.45 177.747 376.09 177.157C375.93 176.887 375.29 177.037 375.11 177.477C374.83 178.163 374.261 178.147 373.553 178.128C373.301 178.121 373.031 178.113 372.75 178.137C371.24 178.257 369.51 178.807 368.42 179.477C365.4 181.327 362 181.477 358.55 180.667C356.58 180.197 355.46 180.607 354.18 181.337L354.107 181.378C352.885 182.063 351.743 182.703 349.87 182.007C349.05 181.707 347.74 181.637 346.73 181.757C345.746 181.867 344.777 182.048 343.809 182.227C342.672 182.439 341.536 182.65 340.38 182.747C339.51 182.817 338.743 182.61 337.954 182.397C337.039 182.15 336.096 181.896 334.93 182.057C333.581 182.244 332.205 182.294 330.825 182.344C328.369 182.433 325.9 182.523 323.55 183.387C322.642 183.721 321.386 183.722 320.14 183.723C319.63 183.723 319.122 183.724 318.64 183.747C317.748 183.787 316.851 183.796 315.954 183.806C313.264 183.834 310.575 183.862 308.01 184.717C307.66 184.827 306.97 184.767 306.58 184.637C304.23 183.877 302.37 184.377 300.71 185.517C300.53 185.647 300.29 185.747 300.06 185.847C298.23 186.647 296.48 186.617 294.72 185.897C293.947 185.577 293.11 185.32 292.274 185.064C292.169 185.031 292.064 184.999 291.96 184.967C291.75 184.907 291.32 184.907 291.15 184.987C289.955 185.573 288.779 185.397 287.606 185.221C286.698 185.085 285.792 184.949 284.88 185.167C284.848 185.175 284.814 185.183 284.779 185.191C284.542 185.246 284.26 185.311 284.19 185.407C282.832 187.276 281.366 186.569 279.882 185.853C279.738 185.784 279.594 185.714 279.45 185.647C279.25 185.547 278.93 185.437 278.73 185.477C278.08 185.597 277.435 185.734 276.79 185.872C275.877 186.066 274.962 186.261 274.03 186.407C273.421 186.504 272.871 186.36 272.306 186.212C271.468 185.994 270.596 185.766 269.45 186.297L269.353 186.342C268.228 186.866 266.808 187.528 265.01 187.207C263.814 186.994 262.545 186.902 261.275 186.81C258.785 186.63 256.29 186.45 254.33 185.357C253.56 184.917 252.74 184.507 251.88 184.127C251.51 183.957 250.71 183.747 250.55 183.837C249.717 184.304 248.629 184.424 247.542 184.543C246.163 184.695 244.786 184.846 243.93 185.707C243.27 186.377 242.29 186.457 241.17 186.067C240.754 185.919 240.143 185.907 239.607 185.897L239.59 185.897C238.341 185.868 237.25 186.195 236.154 186.523C234.986 186.873 233.813 187.225 232.44 187.147C229.81 186.997 227.56 187.807 225.42 188.607C223.07 189.487 220.78 189.687 218.36 189.067C216.47 188.577 214.65 188.627 212.87 189.407C212.84 189.419 212.808 189.433 212.775 189.447C212.561 189.537 212.288 189.652 212.15 189.617C209.17 188.917 206.47 188.937 204.3 190.747C204.267 190.776 204.09 190.728 203.864 190.667C203.544 190.58 203.126 190.466 202.88 190.507C201.305 190.774 199.775 190.662 198.244 190.55C196.908 190.451 195.57 190.353 194.2 190.507C193.11 190.637 192.29 190.237 191.59 189.647C191.103 189.234 190.434 188.901 189.761 188.566C189.246 188.31 188.728 188.052 188.29 187.757L188.273 187.746C187.724 187.373 187.41 187.16 186.44 187.427C183.879 188.125 181.208 188.156 178.541 188.187C177.615 188.198 176.69 188.208 175.77 188.247C174.11 188.317 173.41 187.747 173.06 186.867C172.89 186.447 172.43 185.797 171.92 185.747C171.451 185.699 171.05 185.539 170.65 185.379C169.96 185.102 169.272 184.827 168.24 185.137C167.012 185.505 166.685 185.078 166.359 184.652C166.136 184.361 165.913 184.07 165.4 184.037C165.306 184.031 165.212 184.025 165.117 184.019C162.449 183.853 159.618 183.676 157.58 185.047C156.571 185.732 155.311 185.942 154.07 186.15C153.208 186.295 152.354 186.438 151.6 186.737C150.553 187.148 150.224 186.783 149.863 186.383L149.84 186.357C148.86 185.257 147.3 185.417 145.61 185.807C145.404 185.856 145.197 185.945 144.988 186.035C144.477 186.253 143.958 186.475 143.44 186.127C142.301 185.353 140.675 185.113 139.046 184.873C137.286 184.613 135.523 184.352 134.37 183.417C133.67 182.857 132.09 183.047 131.27 183.387C130.344 183.771 129.406 183.772 128.487 183.774C127.898 183.775 127.316 183.776 126.75 183.877C126.675 183.891 126.601 183.906 126.528 183.92C125.787 184.067 125.175 184.188 124.82 183.687C124.39 183.067 123.88 182.507 122.55 182.617C120.04 182.827 117.63 182.977 115.39 182.097C114.884 181.897 114.205 182.127 113.566 182.343C112.829 182.592 112.145 182.823 111.84 182.357C111.294 181.524 109.999 181.347 108.729 181.173C107.348 180.984 105.998 180.799 105.68 179.777C105.63 179.637 104.74 179.507 104.25 179.537C101.35 179.717 99.53 179.287 99.32 177.337C99.252 176.676 97.7015 176.818 96.6046 176.918L96.51 176.927C95.3649 177.025 94.5399 177.48 93.7101 177.937C92.685 178.502 91.6525 179.071 90 178.977C87.76 178.847 85.68 179.247 83.69 180.077C82.4 180.617 80.63 180.237 79.69 179.237C78.5 177.977 76.92 177.527 74.34 177.707C71.35 177.917 68.43 177.937 65.4 177.377C62.73 176.877 60.33 176.377 58.44 175.217C57.47 174.617 56.68 174.817 55.64 175.257C54.59 175.707 53.52 175.487 52.67 175.027C50.9 174.067 49.13 173.097 47.41 172.107C47.3674 172.083 47.3248 172.058 47.2823 172.034C45.5885 171.059 43.9509 170.117 41.2 170.117C39.7841 170.127 38.8903 169.479 38.0337 168.859L37.99 168.827C36.56 167.777 34.36 167.357 32.56 167.827C31.6343 168.069 30.7483 168.361 29.8625 168.653C29.0259 168.928 28.1895 169.204 27.32 169.437C24.55 170.177 21.91 170.217 19.81 168.817C19.4336 168.564 18.9801 168.32 18.5261 168.075C17.5087 167.527 16.489 166.977 16.33 166.327C15.88 164.467 14.08 164.447 11.72 164.587C11.3027 164.613 10.8802 164.629 10.457 164.644C8.92319 164.701 7.38024 164.758 6.04 165.307C4.24 166.037 2.06 166.147 0.419998 165.937C0.279684 165.919 0.139689 165.902 0 165.887ZM964.75 191H973.051C972.142 190.912 971.141 190.801 970.01 190.667C968.35 190.477 966.7 190.537 965.12 190.907C964.992 190.937 964.869 190.969 964.75 191ZM980.939 191C982.554 190.798 984.384 190.465 986.82 189.987C988.71 189.617 990.67 189.417 992.43 190.047C993.68 190.487 995.19 190.727 996.33 190.267C998.627 189.321 1001.08 189.252 1003.56 189.181C1003.83 189.174 1004.11 189.166 1004.38 189.157C1005.85 189.107 1007.11 188.777 1008.1 188.137C1009.16 187.447 1010.03 187.377 1011.62 187.657C1011.86 187.701 1012.11 187.747 1012.36 187.794C1014.8 188.254 1017.49 188.759 1019.74 187.017C1019.8 186.971 1020.03 187.016 1020.3 187.069C1020.61 187.13 1020.98 187.201 1021.18 187.147C1022.44 186.784 1023.73 186.925 1025.03 187.068C1026.63 187.242 1028.24 187.418 1029.79 186.657C1029.83 186.636 1030.14 186.825 1030.51 187.047C1031.01 187.354 1031.62 187.724 1031.75 187.677C1033.52 187.013 1034.98 187.303 1036.54 187.614C1036.76 187.659 1036.99 187.704 1037.22 187.747C1038.11 187.917 1039.46 187.707 1040.37 187.407C1041.76 186.937 1042.12 187.257 1042.7 187.887C1044.78 190.179 1102.8 177.665 1126.04 172.651C1130.79 171.627 1134.09 170.916 1135.16 170.707C1151.57 167.526 1167.45 159.201 1183.48 150.8C1205.84 139.081 1228.48 127.211 1253.25 128.947C1256.57 129.177 1259.25 128.217 1261.62 127.047C1263.61 126.057 1265.72 125.247 1268.01 124.627C1269.23 124.294 1270.21 123.784 1271.18 123.271C1272.09 122.798 1272.99 122.322 1274.11 121.977C1276.32 121.297 1277.63 121.337 1279.17 122.227C1279.22 122.255 1279.27 122.284 1279.32 122.314C1279.8 122.598 1280.39 122.943 1281.22 122.617C1282.03 122.302 1282.88 122.041 1283.73 121.78C1285.32 121.294 1286.91 120.806 1288.24 119.967C1291.14 118.137 1295.52 117.297 1298.59 117.617C1305.25 118.297 1305.87 118.237 1312.02 116.377C1312.3 116.292 1312.6 116.236 1312.9 116.18C1313.13 116.137 1313.36 116.094 1313.58 116.037C1314.6 115.771 1315.63 115.513 1316.66 115.255C1320.5 114.29 1324.36 113.324 1327.79 111.927C1330.01 111.027 1331.98 110.387 1334.59 110.267C1338.05 110.117 1342.56 109.037 1345.98 107.657C1346.04 107.634 1346.09 107.61 1346.15 107.587C1346.79 107.326 1347.3 107.117 1348.06 107.457C1349.26 107.977 1350.86 107.967 1351.98 107.547C1355.42 106.247 1358.68 106.377 1362.26 107.007C1364.55 107.417 1367.13 107.407 1369.51 106.567C1370.22 106.317 1371.07 106.107 1371.86 106.077C1372.12 106.071 1372.39 106.052 1372.65 106.033C1372.84 106.019 1373.03 106.006 1373.22 105.997C1373.28 105.945 1373.34 105.896 1373.39 105.848C1373.48 105.774 1373.57 105.701 1373.65 105.617C1375.29 103.907 1377.45 102.517 1381.11 102.007C1383.75 101.647 1386.01 100.727 1387.47 99.0771C1388.17 98.2926 1389.25 97.6521 1390.34 97.0054C1391.66 96.2259 1392.99 95.4374 1393.68 94.3771C1393.84 94.1371 1394.53 93.8371 1394.97 93.8171C1395.89 93.7921 1396.78 93.5173 1397.66 93.2417C1399.26 92.7451 1400.87 92.2455 1402.72 93.1971C1403.16 93.4271 1404.33 93.0971 1404.75 92.5971C1406.17 90.9171 1407.94 89.6471 1411.39 89.1071C1414.15 88.6771 1416.35 87.2871 1416.49 85.5271C1416.62 83.9271 1417.73 82.8571 1419.52 81.6571C1420.36 81.0975 1421.07 80.4754 1421.78 79.8536C1423.25 78.5642 1424.72 77.2757 1427.31 76.5471C1428.65 74.8625 1430.82 73.5573 1433 72.2515C1434.79 71.1776 1436.58 70.1032 1437.91 68.8171C1438.32 68.4271 1438.95 67.8571 1439.53 67.8171C1441.63 67.6652 1442.45 66.8504 1443.34 65.9723C1443.44 65.8678 1443.55 65.7624 1443.66 65.6571C1444.07 65.263 1444.85 64.9825 1445.62 64.7092C1445.85 64.6288 1446.07 64.549 1446.28 64.4671C1449.8 63.0871 1453.63 62.7971 1457.4 63.4571C1460.71 64.0371 1463.61 63.8771 1466.93 62.9871C1467.69 62.785 1468.46 62.5902 1469.22 62.3952C1471 61.9439 1472.77 61.4918 1474.49 60.9471C1475.44 60.6471 1476.6 60.4371 1477.65 60.4271C1478.1 60.4226 1478.58 60.5389 1479.05 60.6504C1479.62 60.7875 1480.16 60.9174 1480.57 60.8071C1480.69 60.7758 1480.81 60.7443 1480.93 60.713C1481.99 60.4336 1483.01 60.1641 1484.16 60.1371C1484.65 59.8334 1485.15 59.5344 1485.64 59.2356C1487.44 58.1566 1489.23 57.0792 1490.57 55.7871C1490.98 55.3971 1491.61 54.8271 1492.19 54.7871C1494.3 54.6346 1495.12 53.8148 1496.01 52.9261C1496.11 52.8237 1496.21 52.7204 1496.32 52.6171C1496.73 52.223 1497.52 51.9424 1498.28 51.6691C1498.51 51.5887 1498.73 51.5089 1498.94 51.4271C1502.46 50.0471 1506.29 49.7571 1510.06 50.4171C1513.37 50.9971 1516.27 50.8371 1519.59 49.9471C1520.35 49.745 1521.12 49.5502 1521.88 49.3553C1523.66 48.9039 1525.43 48.4518 1527.15 47.9071C1528.1 47.6071 1529.26 47.3971 1530.31 47.3871C1530.76 47.3826 1531.24 47.4989 1531.71 47.6104C1532.28 47.7475 1532.82 47.8774 1533.23 47.7671C1533.41 47.7201 1533.58 47.6722 1533.76 47.6246C1534.84 47.3274 1535.88 47.0413 1537.1 47.0671C1539.09 48.6671 1539.16 48.6771 1541.79 47.8571C1543.04 47.4671 1544.69 47.4071 1546.93 47.5871C1547.76 47.6494 1548.63 47.6268 1549.49 47.6044C1549.73 47.598 1549.98 47.5916 1550.22 47.5871C1551.2 47.5671 1551.75 47.8871 1552.03 48.3471C1552.58 49.264 1553.86 49.2516 1555.16 49.2391L1555.39 49.2371C1556.8 49.2171 1558.21 49.1271 1559.12 48.3671C1559.47 48.0748 1559.76 47.7552 1560.04 47.4351C1560.27 47.1746 1560.5 46.9138 1560.77 46.6671C1561.38 46.0971 1562.77 46.0371 1563.57 46.5571C1564 46.8331 1564.38 47.1306 1564.76 47.4282C1565.02 47.6266 1565.27 47.8251 1565.54 48.0171C1566.93 48.9971 1569.09 49.1071 1570.25 47.9971C1571.35 46.9471 1572.08 46.5371 1574.03 47.1271C1574.23 47.1879 1574.44 47.2521 1574.65 47.3175C1576.15 47.7793 1577.84 48.3023 1579.23 48.1271C1579.42 48.1026 1579.61 48.0773 1579.79 48.0525C1581.17 47.8649 1582.33 47.7077 1583.63 48.1671C1585.32 48.7671 1587.08 48.5371 1588.93 48.1271C1589.72 47.9571 1590.32 48.3271 1590.54 48.8171C1590.95 48.8294 1591.38 48.8275 1591.8 48.8257C1592.76 48.8216 1593.71 48.8175 1594.56 48.9771C1596.51 49.3487 1598.39 49.8297 1600.27 50.3109C1600.87 50.4641 1601.47 50.6174 1602.07 50.7671C1602.63 50.9076 1603.23 51.0197 1603.82 51.1317C1605.71 51.4901 1607.59 51.8471 1608.55 53.1271C1609.12 53.8771 1610.77 53.9271 1612.2 53.8871C1614.41 53.8171 1616.52 53.7571 1618.56 54.4571C1620.56 55.1371 1622.6 55.7671 1625.34 54.5971C1625.95 54.3388 1626.73 54.4952 1627.58 54.6659C1628.77 54.9051 1630.1 55.1723 1631.3 54.3671C1632.57 54.6345 1633.85 54.8895 1635.13 55.1445C1638.15 55.7478 1641.18 56.3509 1644.06 57.1171C1648.96 58.4171 1651.87 59.0571 1656.3 58.9771C1658.28 58.9371 1660.12 58.9971 1661.86 59.5771C1662.46 59.7771 1663.72 59.7771 1664.23 59.5371C1665.82 58.7846 1667.71 58.6425 1669.6 58.501C1671.6 58.3511 1673.58 58.2018 1675.2 57.3271C1675.98 57.2978 1676.77 57.2371 1677.56 57.1763C1678.66 57.0917 1679.76 57.0071 1680.84 57.0071C1681.02 56.8371 1681.17 56.6571 1681.27 56.4471C1682.15 54.701 1684.14 53.3763 1686.12 52.0545C1687.07 51.4233 1688.02 50.7926 1688.84 50.1171C1690.27 48.9471 1692.72 48.9371 1693.6 50.1171C1694.62 51.4871 1696.13 52.5771 1698.06 53.4171C1699.43 54.0171 1700.63 54.6971 1701.77 55.4171C1702.24 55.2728 1702.7 55.1118 1703.16 54.9504C1704.81 54.3738 1706.47 53.793 1708.53 53.9571C1709.55 53.653 1710.62 53.4209 1711.7 53.1887C1714.24 52.6421 1716.78 52.0951 1718.53 50.6071C1719.5 49.7852 1720.94 49.182 1722.37 48.5766C1722.56 48.497 1722.75 48.4173 1722.94 48.3371C1723.26 48.2003 1723.75 48.1188 1724.26 48.0335C1725.57 47.8132 1727.03 47.5672 1726.28 46.2771C1726.9 45.3776 1728.02 45.3992 1729.14 45.4208C1729.86 45.4346 1730.57 45.4483 1731.15 45.2271C1732.36 44.7771 1733.49 44.2771 1733.92 43.4271C1734.79 41.6811 1736.78 40.3565 1738.77 39.0348C1739.72 38.4034 1740.67 37.7727 1741.49 37.0971C1742.92 35.9271 1745.37 35.9171 1746.25 37.0971C1747.27 38.4671 1748.78 39.5471 1750.71 40.3971C1754.35 41.9728 1757 44.0753 1759.62 46.1609L1759.79 46.2971C1759.9 46.3868 1760.01 46.4758 1760.12 46.5633C1761.11 47.3731 1761.94 48.0591 1764.02 48.0771C1764.95 48.0871 1766.16 48.5671 1766.62 49.0471C1767.66 50.1372 1769.34 50.7735 1771.03 51.4081C1772.25 51.8679 1773.46 52.3269 1774.43 52.9571C1774.75 53.1671 1775.39 53.2971 1775.9 53.2871C1776.4 53.278 1776.9 53.2768 1777.4 53.2757C1779.65 53.2705 1781.89 53.2653 1784.03 52.5371C1784.73 52.299 1785.45 52.0811 1786.18 51.8633C1787.21 51.5507 1788.25 51.2385 1789.22 50.8671C1790.74 50.2871 1791.93 50.1871 1793.74 50.5171C1795.71 50.8771 1798.15 50.8371 1800.22 50.1371C1801.49 49.7003 1802.68 49.9079 1803.86 50.1151C1804.97 50.3112 1806.09 50.5071 1807.28 50.1571L1807.63 50.0522C1809 49.643 1810.41 49.2213 1811.86 49.0371C1819.72 48.0371 1821.82 47.4871 1829.24 44.1271C1829.29 44.1028 1829.34 44.0791 1829.39 44.0564C1829.8 43.8548 1830.06 43.7294 1830.63 43.9271C1831.08 44.0871 1831.6 44.2171 1832.13 44.2571C1834.51 44.4471 1835.07 44.1371 1835.81 42.4071C1835.84 42.3334 1835.86 42.2368 1835.87 42.1348C1835.94 41.738 1836.02 41.2598 1837.01 41.7371C1839.27 42.8271 1841.42 43.5271 1844.4 42.3671C1844.69 42.2471 1845.63 42.3671 1845.79 42.5371C1846.35 43.1505 1847.42 43.1894 1848.5 43.2289C1849.73 43.2737 1850.98 43.3191 1851.52 44.2071C1851.86 44.7571 1853.68 44.6671 1854.54 44.3171C1857.39 43.1571 1859.2 44.1071 1860.52 45.2071C1861.56 46.0671 1862.34 46.2071 1863.74 45.6071C1864.52 45.2771 1865.2 45.2871 1865.88 45.6471C1866.03 45.7221 1866.17 45.8013 1866.32 45.8813C1867.2 46.3561 1868.13 46.8612 1869.36 46.7071C1870.95 46.5172 1872.52 46.6767 1874.09 46.8366C1876.41 47.0724 1878.73 47.3091 1881.16 46.4271C1882.44 45.9571 1884.38 46.0171 1885.78 46.7871C1886.95 47.4371 1888.28 48.0371 1890.07 47.9971C1891.6 47.9616 1892.1 48.5442 1892.6 49.1237C1892.94 49.525 1893.29 49.9248 1893.97 50.1171C1894.14 50.167 1894.31 50.2409 1894.48 50.3142C1894.78 50.4465 1895.08 50.5764 1895.37 50.5571C1898.23 50.3743 1899.91 51.3159 1901.6 52.2623C1902.04 52.5067 1902.47 52.7514 1902.93 52.9771C1903.32 53.1666 1903.7 53.3832 1904.08 53.6011C1905.12 54.1883 1906.18 54.785 1907.38 54.8871C1909.41 55.0504 1910.75 55.6542 1912.13 56.2695C1912.61 56.4833 1913.09 56.6985 1913.6 56.8971C1916.01 57.8302 1917.66 59.1263 1919.32 60.4223C1919.54 60.6003 1919.77 60.7783 1920 60.9553V191H980.939Z" fill="black"></path><path fill-rule="evenodd" clip-rule="evenodd" d="M-54.3835 0L-76 0.217011L-69.99 180.277C-69.78 180.307 -69.59 180.327 -69.46 180.287C-68.3994 179.956 -67.3087 179.941 -66.2202 179.925C-65.5332 179.916 -64.8471 179.906 -64.17 179.817C-63.3815 179.714 -62.5938 179.596 -61.8045 179.477C-58.6896 179.01 -55.5489 178.538 -52.23 178.977C-50.59 179.187 -48.41 179.077 -46.61 178.337C-45.2697 177.788 -43.7267 177.731 -42.1928 177.674C-41.7697 177.659 -41.3473 177.643 -40.93 177.617C-38.57 177.477 -36.77 177.497 -36.32 179.357C-36.161 180.007 -35.1413 180.557 -34.1239 181.105C-33.6699 181.35 -33.2164 181.594 -32.84 181.847C-30.74 183.247 -28.1 183.207 -25.33 182.467C-24.4605 182.234 -23.6241 181.958 -22.7875 181.683C-21.9017 181.391 -21.0157 181.099 -20.09 180.857C-18.92 180.547 -17.59 180.657 -16.4 181.027L-17.34 167.257C-17.13 167.287 -16.94 167.307 -16.81 167.257C-15.7494 166.926 -14.6587 166.911 -13.5701 166.895C-12.8832 166.886 -12.1971 166.876 -11.52 166.787C-10.7273 166.683 -9.93539 166.564 -9.14181 166.445C-6.03113 165.978 -2.89444 165.507 0.419998 165.937C2.06 166.147 4.24 166.037 6.04 165.307C7.38024 164.758 8.92319 164.701 10.457 164.644C10.8802 164.629 11.3027 164.613 11.72 164.587C14.08 164.447 15.88 164.467 16.33 166.327C16.489 166.977 17.5087 167.527 18.5261 168.075C18.9801 168.32 19.4336 168.564 19.81 168.817C21.91 170.217 24.55 170.177 27.32 169.437C28.1895 169.204 29.0259 168.928 29.8625 168.653C30.7483 168.361 31.6343 168.069 32.56 167.827C34.36 167.357 36.56 167.777 37.99 168.827L38.0337 168.859C38.8903 169.479 39.7841 170.127 41.2 170.117C43.9509 170.117 45.5885 171.059 47.2823 172.034C47.3248 172.058 47.3674 172.082 47.41 172.107C49.13 173.097 50.9 174.067 52.67 175.027C53.52 175.487 54.59 175.707 55.64 175.257C56.68 174.817 57.47 174.617 58.44 175.217C60.33 176.377 62.73 176.877 65.4 177.377C68.43 177.937 71.35 177.917 74.34 177.707C76.92 177.527 78.5 177.977 79.69 179.237C80.63 180.237 82.4 180.617 83.69 180.077C85.68 179.247 87.76 178.847 90 178.977C91.6525 179.071 92.685 178.502 93.7101 177.937C94.5399 177.48 95.3649 177.025 96.51 176.927L96.6046 176.918C97.7016 176.818 99.252 176.676 99.32 177.337C99.53 179.287 101.35 179.717 104.25 179.537C104.74 179.507 105.63 179.637 105.68 179.777C105.998 180.799 107.348 180.983 108.729 181.173C109.999 181.346 111.294 181.524 111.84 182.357C112.145 182.823 112.829 182.592 113.566 182.343C114.205 182.127 114.884 181.897 115.39 182.097C117.63 182.977 120.04 182.827 122.55 182.617C123.88 182.507 124.39 183.067 124.82 183.687C125.175 184.188 125.787 184.067 126.528 183.92C126.601 183.906 126.675 183.891 126.75 183.877C127.316 183.775 127.898 183.775 128.487 183.774C129.406 183.772 130.344 183.771 131.27 183.387C132.09 183.047 133.67 182.857 134.37 183.417C135.523 184.352 137.286 184.612 139.046 184.872C140.675 185.113 142.301 185.353 143.44 186.127C143.958 186.475 144.477 186.253 144.988 186.034C145.197 185.945 145.404 185.856 145.61 185.807C147.3 185.417 148.86 185.257 149.84 186.357L149.863 186.383C150.224 186.783 150.553 187.148 151.6 186.737C152.354 186.438 153.208 186.295 154.07 186.15C155.311 185.942 156.571 185.731 157.58 185.047C159.618 183.676 162.449 183.852 165.117 184.019C165.212 184.025 165.306 184.031 165.4 184.037C165.913 184.07 166.136 184.36 166.359 184.652C166.685 185.078 167.012 185.505 168.24 185.137C169.272 184.827 169.96 185.102 170.65 185.379C171.05 185.539 171.451 185.699 171.92 185.747C172.43 185.797 172.89 186.447 173.06 186.867C173.41 187.747 174.11 188.317 175.77 188.247C176.69 188.208 177.615 188.198 178.541 188.187C181.208 188.156 183.879 188.125 186.44 187.427C187.41 187.16 187.724 187.373 188.273 187.745L188.29 187.757C188.728 188.052 189.245 188.309 189.761 188.566C190.434 188.901 191.103 189.234 191.59 189.647C192.29 190.237 193.11 190.637 194.2 190.507C195.57 190.353 196.908 190.451 198.244 190.549C199.775 190.662 201.305 190.774 202.88 190.507C203.126 190.466 203.544 190.58 203.864 190.667C204.09 190.728 204.267 190.776 204.3 190.747C206.47 188.937 209.17 188.917 212.15 189.617C212.288 189.652 212.561 189.537 212.775 189.447C212.808 189.433 212.84 189.419 212.87 189.407C214.65 188.627 216.47 188.577 218.36 189.067C220.78 189.687 223.07 189.487 225.42 188.607C227.56 187.807 229.81 186.997 232.44 187.147C233.813 187.224 234.986 186.873 236.154 186.523C237.25 186.195 238.341 185.868 239.59 185.897L239.607 185.897C240.143 185.907 240.754 185.919 241.17 186.067C242.29 186.457 243.27 186.377 243.93 185.707C244.786 184.846 246.163 184.695 247.542 184.543C248.629 184.424 249.717 184.304 250.55 183.837C250.71 183.747 251.51 183.957 251.88 184.127C252.74 184.507 253.56 184.917 254.33 185.357C256.29 186.45 258.785 186.63 261.275 186.81C262.545 186.902 263.814 186.994 265.01 187.207C266.808 187.528 268.228 186.866 269.353 186.342L269.45 186.297C270.596 185.766 271.468 185.993 272.306 186.212C272.871 186.36 273.421 186.504 274.03 186.407C274.962 186.26 275.877 186.066 276.79 185.871C277.435 185.734 278.08 185.597 278.73 185.477C278.93 185.437 279.25 185.547 279.45 185.647C279.594 185.714 279.738 185.784 279.882 185.853C281.366 186.569 282.832 187.276 284.19 185.407C284.26 185.311 284.542 185.246 284.779 185.191C284.814 185.183 284.848 185.175 284.88 185.167C285.792 184.949 286.698 185.085 287.606 185.221C288.779 185.397 289.955 185.573 291.15 184.987C291.32 184.907 291.75 184.907 291.96 184.967C292.064 184.999 292.169 185.031 292.274 185.063C293.11 185.32 293.947 185.577 294.72 185.897C296.48 186.617 298.23 186.647 300.06 185.847L300.11 185.825C300.325 185.732 300.543 185.638 300.71 185.517C302.37 184.377 304.23 183.877 306.58 184.637C306.97 184.767 307.66 184.827 308.01 184.717C310.575 183.862 313.264 183.834 315.954 183.806C316.851 183.796 317.748 183.787 318.64 183.747C319.122 183.724 319.63 183.723 320.14 183.723C321.386 183.722 322.642 183.721 323.55 183.387C325.9 182.523 328.369 182.433 330.825 182.344C332.205 182.294 333.581 182.244 334.93 182.057C336.096 181.896 337.039 182.15 337.954 182.397C338.743 182.61 339.51 182.816 340.38 182.747C341.536 182.65 342.672 182.439 343.809 182.227C344.777 182.047 345.746 181.867 346.73 181.757C347.74 181.637 349.05 181.707 349.87 182.007C351.743 182.703 352.885 182.063 354.107 181.378L354.18 181.337C355.46 180.607 356.58 180.197 358.55 180.667C362 181.477 365.4 181.327 368.42 179.477C369.51 178.807 371.24 178.257 372.75 178.137C373.031 178.113 373.301 178.121 373.553 178.128C374.261 178.147 374.83 178.163 375.11 177.477C375.29 177.037 375.93 176.887 376.09 177.157C376.45 177.747 376.86 178.037 377.31 178.177C377.56 178.127 377.78 178.107 377.95 178.147C378.15 178.187 378.33 178.207 378.52 178.227C378.963 178.16 379.431 178.026 379.927 177.884C380.326 177.77 380.743 177.651 381.18 177.557C381.302 177.528 381.428 177.499 381.553 177.47C381.642 177.449 381.732 177.428 381.82 177.407C382.17 177.227 382.55 177.137 382.95 177.147C383.9 176.937 384.88 176.797 385.9 176.747C386.753 176.382 387.64 176.04 388.527 175.698C391.552 174.532 394.58 173.365 396.25 171.277C396.539 170.909 397.133 170.619 397.731 170.328C398.045 170.175 398.359 170.022 398.63 169.857C399.63 169.247 400.31 168.557 400.55 167.707C401.5 164.387 405.37 162.167 409.76 160.267C411.41 159.557 412.83 158.897 413.72 157.797C414.95 156.267 417.18 155.717 419.94 155.777C420.546 155.79 421.163 155.749 421.778 155.709C422.563 155.657 423.344 155.605 424.09 155.667C426.013 155.826 427.515 155.32 429.017 154.814C429.685 154.589 430.354 154.363 431.06 154.197C431.805 152.634 433.742 152.491 435.754 152.342C436.199 152.309 436.649 152.276 437.09 152.227C438.185 152.103 439.238 151.808 440.294 151.512C440.77 151.379 441.248 151.245 441.73 151.127C442.032 151.054 442.352 150.953 442.672 150.851C443.404 150.62 444.141 150.387 444.69 150.477C448.6 151.127 451.15 149.857 453.02 148.167C454.09 147.197 455.02 146.747 456.88 146.657C457.363 146.635 457.852 146.629 458.341 146.624C460.038 146.605 461.745 146.587 463.29 145.857C464.369 145.347 465.521 144.901 466.668 144.458L466.8 144.407C467.81 143.457 469.28 142.957 471.08 142.817L471.138 142.796C474.689 141.543 478.247 140.288 481.28 138.577C482.135 138.099 482.783 138.245 483.497 138.406C483.71 138.453 483.928 138.503 484.16 138.537C484.81 138.637 485.97 138.447 486.39 138.147C488.48 136.66 491.254 135.905 494.035 135.147C495.033 134.875 496.031 134.603 497 134.297C498.79 133.727 500.49 133.207 502.47 133.207C504.89 133.207 506.72 132.567 508.3 131.497C509.15 130.917 510.27 130.917 511.26 131.317C511.791 131.527 512.301 131.754 512.81 131.98C513.366 132.226 513.921 132.473 514.5 132.697C514.749 132.791 515.02 132.879 515.288 132.965L515.42 133.007C515.483 132.985 515.548 132.967 515.612 132.949C515.721 132.918 515.829 132.887 515.93 132.837C518.426 131.659 521.162 130.692 523.897 129.725C527.408 128.484 530.918 127.243 533.92 125.557C534.775 125.079 535.423 125.225 536.137 125.386C536.35 125.433 536.568 125.483 536.8 125.517C537.45 125.617 538.61 125.427 539.03 125.127C541.101 123.641 543.858 122.89 546.625 122.135C547.64 121.858 548.656 121.581 549.64 121.267C551.43 120.697 553.13 120.177 555.11 120.177C557.53 120.177 559.36 119.537 560.94 118.467C561.79 117.887 562.91 117.887 563.9 118.287C564.431 118.497 564.941 118.724 565.451 118.95C566.006 119.196 566.561 119.443 567.14 119.667C567.565 119.832 568.019 119.976 568.473 120.12C569.203 120.351 569.931 120.582 570.53 120.897C571.198 121.247 571.829 121.102 572.474 120.955C573.046 120.824 573.63 120.69 574.26 120.897C577.164 121.829 577.296 121.789 578.972 121.277L579.07 121.247C580.89 120.697 581.4 120.647 583.94 121.407C584.6 121.605 585.172 121.47 585.695 121.347C586.123 121.246 586.518 121.153 586.9 121.257C587.471 121.413 587.981 121.642 588.489 121.87C589.059 122.125 589.625 122.379 590.27 122.527C591.22 122.747 592.76 122.867 593.48 122.567C596.025 121.5 598.503 122.013 600.626 122.453C600.831 122.496 601.032 122.537 601.23 122.577C604.16 123.177 606.41 123.257 608.84 121.927C609.62 121.497 610.73 121.047 611.69 121.007C612.629 120.975 613.572 120.911 614.516 120.848C617.424 120.651 620.337 120.455 623.13 121.187C624.67 121.597 626.66 121.617 627.96 121.087C631.65 119.597 635.39 119.867 639.1 120.337C639.474 120.383 639.943 120.311 640.422 120.238C641.494 120.074 642.61 119.903 642.79 121.037L644.611 121.646C647.021 122.453 649.427 123.258 651.84 124.057C654.883 123.799 656.726 124.859 658.562 125.915C658.645 125.962 658.727 126.01 658.81 126.057C659.63 126.527 660.59 126.727 661.76 126.697C661.876 126.695 661.994 126.691 662.112 126.688C662.553 126.675 663.002 126.662 663.42 126.717C664.095 126.8 664.802 126.859 665.511 126.919C667.28 127.067 669.059 127.216 670.38 127.737C671.527 128.188 672.693 127.964 673.815 127.749C675.031 127.515 676.195 127.292 677.23 127.947C678.113 127.91 678.969 128.06 679.785 128.202C680.53 128.332 681.242 128.456 681.91 128.427C682.759 128.393 683.59 127.846 684.433 127.291C684.842 127.023 685.253 126.752 685.67 126.537C686.03 126.357 686.92 126.137 686.93 126.157C688.584 127.896 689.685 127.108 690.781 126.324C691.501 125.809 692.218 125.295 693.09 125.497C693.216 125.526 693.377 125.505 693.542 125.484C693.667 125.469 693.794 125.453 693.91 125.457C694.16 125.46 694.416 125.456 694.672 125.452C696.049 125.429 697.415 125.407 697.82 126.537C697.97 126.957 698.55 127.017 699.06 126.737C700.74 125.827 702.57 125.267 704.81 124.837C706.7 124.467 707.75 124.357 709.01 125.137C709.32 125.327 710.14 125.537 710.35 125.447C711.273 125.033 712.35 124.854 713.433 124.674C714.758 124.453 716.092 124.231 717.17 123.577C718.62 122.697 719.72 122.787 720.2 123.637C720.889 124.851 722.36 125.633 723.832 126.415C724.324 126.677 724.816 126.939 725.28 127.217C726.66 128.037 727.5 127.717 728 126.687C728.049 126.583 728.179 126.493 728.307 126.405C728.364 126.366 728.421 126.327 728.47 126.287C729.563 126.902 730.976 126.884 732.392 126.866C733.761 126.849 735.133 126.831 736.22 127.387C736.476 127.519 736.73 127.652 736.984 127.785C738.524 128.595 740.067 129.405 742.11 129.817C743.79 132.187 746.57 132.737 750.57 131.337C750.688 131.295 750.961 131.394 751.182 131.475C751.223 131.49 751.263 131.504 751.3 131.517C753.61 132.317 755.52 131.817 757.18 130.687C758.71 129.657 760.8 129.577 762.59 129.787C762.707 129.8 762.825 129.814 762.944 129.827C765.457 130.114 768.25 130.433 769.3 132.037C769.831 132.844 771.013 133.131 772.18 133.413C773.253 133.673 774.313 133.93 774.84 134.587C776.461 134.611 777.711 134.089 778.935 133.578C779.266 133.44 779.596 133.303 779.93 133.177C781.224 132.689 782.535 132.821 783.839 132.951C785.155 133.083 786.464 133.214 787.74 132.707C787.96 132.617 788.84 132.847 789.02 133.057C789.261 133.353 789.439 133.67 789.617 133.985C789.86 134.417 790.101 134.847 790.5 135.217C791.21 135.867 792.23 136.427 793.27 136.927C794.023 137.29 793.91 137.754 793.795 138.23C793.688 138.671 793.578 139.123 794.15 139.517C794.375 139.671 794.572 139.833 794.766 139.995C795.305 140.442 795.829 140.876 796.91 141.067C798.871 141.416 799.977 142.307 801.086 143.2C802.012 143.947 802.94 144.694 804.37 145.127C804.3 147.292 806.911 147.959 809.51 148.622C809.876 148.716 810.242 148.809 810.6 148.907C811.04 149.027 812.01 149.037 812.15 148.907C813.226 147.898 814.514 148.089 815.763 148.273C816.544 148.389 817.311 148.502 818 148.317C818.986 148.055 819.598 148.213 820.249 148.38C820.47 148.436 820.695 148.494 820.94 148.537C821.823 148.689 822.504 148.417 823.186 148.145C823.67 147.952 824.154 147.759 824.71 147.717C825.19 147.687 825.81 147.787 826.18 147.957C827.336 148.495 828.672 148.457 830.067 148.417L830.08 148.417C830.87 148.397 832.03 148.387 832.38 148.657C834.302 150.154 837.102 150.759 839.898 151.363C841.117 151.627 842.335 151.89 843.48 152.227C843.627 152.27 843.773 152.312 843.919 152.354C845.952 152.942 847.88 153.5 848.72 154.937C849.19 155.732 850.553 156.016 851.919 156.3C852.151 156.348 852.383 156.396 852.61 156.447C852.828 156.495 853.052 156.54 853.277 156.585C854.514 156.835 855.802 157.095 856.64 157.857C857.643 158.767 858.715 159.652 859.787 160.536C861.496 161.946 863.205 163.356 864.63 164.867C865.77 166.067 867.09 166.367 869.11 166.317C870.25 166.287 871.2 166.417 872.17 166.787C872.935 167.074 873.69 167.373 874.444 167.671C877.871 169.028 881.298 170.385 885.74 170.647C886.4 170.683 887.028 170.997 887.589 171.277C887.657 171.311 887.724 171.344 887.79 171.377C888.142 171.552 888.483 171.735 888.824 171.919C890.06 172.583 891.292 173.246 893.04 173.497C894.011 175.16 896.365 174.997 898.545 174.845C898.79 174.828 899.032 174.811 899.27 174.797C900.267 174.733 901.245 174.476 902.227 174.218C902.791 174.069 903.357 173.92 903.93 173.807C904.99 173.597 906.13 173.497 907 174.017C908.15 174.697 909.52 175.137 911.01 175.557C911.604 175.728 912.014 176.023 912.445 176.333C912.971 176.711 913.528 177.112 914.49 177.337C918.7 178.317 922.66 179.617 926.07 181.417C928.05 182.467 930.62 183.117 933.47 183.127C935.17 183.137 936.64 183.297 938.11 183.817C939.44 184.287 941.1 184.637 942.66 184.657C944.53 184.677 945.73 185.117 946.91 185.797C948.194 186.531 949.527 187.237 950.862 187.944C951.128 188.085 951.394 188.226 951.66 188.367C955.974 190.658 956.18 190.679 961.485 191.224L962.2 191.297C963.232 191.402 963.868 191.233 964.584 191.044C964.756 190.998 964.932 190.951 965.12 190.907C966.7 190.537 968.35 190.477 970.01 190.667C977.55 191.557 979.28 191.467 986.82 189.987C988.71 189.617 990.67 189.417 992.43 190.047C993.68 190.487 995.19 190.727 996.33 190.267C998.627 189.321 1001.08 189.252 1003.56 189.181C1003.83 189.174 1004.11 189.166 1004.38 189.157C1005.85 189.107 1007.11 188.777 1008.1 188.137C1009.16 187.447 1010.03 187.377 1011.62 187.657C1011.86 187.7 1012.11 187.747 1012.36 187.794C1014.8 188.254 1017.49 188.759 1019.74 187.017C1019.8 186.971 1020.03 187.016 1020.3 187.068C1020.61 187.13 1020.98 187.201 1021.18 187.147C1022.44 186.784 1023.73 186.925 1025.03 187.068C1026.63 187.242 1028.24 187.418 1029.79 186.657C1029.83 186.636 1030.14 186.825 1030.51 187.047C1031.01 187.354 1031.62 187.723 1031.75 187.677C1033.52 187.013 1034.98 187.303 1036.54 187.614C1036.76 187.659 1036.99 187.704 1037.22 187.747C1038.11 187.917 1039.46 187.707 1040.37 187.407C1041.76 186.937 1042.12 187.257 1042.7 187.887C1044.78 190.179 1102.8 177.665 1126.04 172.65C1130.79 171.627 1134.09 170.916 1135.16 170.707C1151.57 167.525 1167.45 159.201 1183.48 150.8C1205.84 139.08 1228.48 127.211 1253.25 128.947C1256.57 129.177 1259.25 128.217 1261.62 127.047C1263.61 126.057 1265.72 125.247 1268.01 124.627C1269.23 124.294 1270.21 123.784 1271.18 123.271C1272.09 122.798 1272.99 122.322 1274.11 121.977C1276.32 121.297 1277.63 121.337 1279.17 122.227C1279.22 122.255 1279.27 122.284 1279.32 122.314C1279.8 122.597 1280.39 122.943 1281.22 122.617C1282.03 122.302 1282.88 122.041 1283.73 121.78C1285.32 121.294 1286.91 120.806 1288.24 119.967C1291.14 118.137 1295.52 117.297 1298.59 117.617C1305.25 118.297 1305.87 118.237 1312.02 116.377C1312.3 116.292 1312.6 116.236 1312.9 116.18C1313.13 116.137 1313.36 116.093 1313.58 116.037C1314.6 115.771 1315.63 115.513 1316.66 115.255C1320.5 114.29 1324.36 113.323 1327.79 111.927C1330.01 111.027 1331.98 110.387 1334.59 110.267C1338.05 110.117 1342.56 109.037 1345.98 107.657C1346.04 107.634 1346.09 107.61 1346.15 107.587C1346.79 107.326 1347.3 107.117 1348.06 107.457C1349.26 107.977 1350.86 107.967 1351.98 107.547C1355.42 106.247 1358.68 106.377 1362.26 107.007C1364.55 107.417 1367.13 107.407 1369.51 106.567C1370.22 106.317 1371.07 106.107 1371.86 106.077C1372.12 106.071 1372.39 106.052 1372.65 106.033C1372.84 106.019 1373.03 106.005 1373.22 105.997C1373.27 105.947 1373.33 105.9 1373.39 105.852C1373.48 105.778 1373.57 105.703 1373.65 105.617C1375.29 103.907 1377.45 102.517 1381.11 102.007C1383.75 101.647 1386.01 100.727 1387.47 99.077C1388.17 98.2925 1389.25 97.652 1390.34 97.0053C1391.66 96.2258 1392.99 95.4373 1393.68 94.377C1393.84 94.137 1394.53 93.837 1394.97 93.817C1395.89 93.792 1396.78 93.5172 1397.66 93.2415C1399.26 92.7449 1400.87 92.2453 1402.72 93.197C1403.16 93.427 1404.33 93.097 1404.75 92.597C1406.17 90.917 1407.94 89.647 1411.39 89.107C1414.15 88.677 1416.35 87.287 1416.49 85.527C1416.62 83.927 1417.73 82.8569 1419.52 81.657C1419.94 81.3762 1420.33 81.0797 1420.7 80.7754C1420.36 80.845 1420.05 80.8443 1419.86 80.747C1418.02 79.775 1416.41 80.2574 1414.8 80.7379C1413.91 81.0038 1413.02 81.2692 1412.1 81.287C1411.66 81.287 1410.97 81.587 1410.81 81.837C1410.11 82.8906 1408.77 83.664 1407.45 84.429C1406.35 85.0654 1405.26 85.6959 1404.56 86.477C1403.08 88.107 1400.8 89.007 1398.17 89.347C1394.51 89.817 1392.34 91.187 1390.68 92.877C1390.61 92.9486 1390.53 93.0141 1390.45 93.0802C1390.38 93.1342 1390.31 93.1886 1390.25 93.247C1390.06 93.2551 1389.88 93.2665 1389.7 93.2778C1389.43 93.2945 1389.16 93.3111 1388.89 93.317C1388.1 93.337 1387.25 93.537 1386.54 93.777C1384.15 94.587 1381.57 94.567 1379.29 94.147C1375.72 93.477 1372.46 93.317 1369.01 94.587C1367.89 94.997 1366.29 94.997 1365.09 94.457C1364.33 94.1078 1363.81 94.3161 1363.18 94.5694C1363.12 94.5917 1363.07 94.6144 1363.01 94.637C1359.57 95.977 1355.06 97.007 1351.59 97.127C1348.98 97.217 1347.01 97.837 1344.78 98.717C1341.33 100.077 1337.45 101.005 1333.59 101.932C1332.56 102.178 1331.54 102.423 1330.52 102.677C1330.29 102.735 1330.06 102.777 1329.82 102.819C1329.52 102.871 1329.23 102.924 1328.95 103.007C1322.78 104.807 1322.17 104.867 1315.51 104.117C1312.44 103.767 1308.05 104.567 1305.13 106.367C1303.8 107.184 1302.21 107.656 1300.62 108.126C1299.76 108.382 1298.9 108.637 1298.08 108.947C1297.23 109.269 1296.64 108.905 1296.16 108.612C1296.12 108.586 1296.08 108.561 1296.04 108.537C1294.5 107.637 1293.2 107.577 1290.98 108.237C1289.85 108.569 1288.94 109.039 1288.03 109.505C1287.05 110.007 1286.07 110.506 1284.85 110.827C1282.56 111.427 1280.43 112.217 1278.44 113.187C1276.06 114.337 1273.37 115.277 1270.05 115.007C1245.3 113.021 1222.54 124.66 1200.06 136.152C1183.95 144.39 1167.98 152.553 1151.54 155.567C1150.47 155.764 1147.21 156.432 1142.52 157.395C1119.3 162.157 1060.97 174.119 1058.91 171.807C1058.33 171.167 1057.98 170.847 1056.58 171.297C1055.68 171.587 1054.32 171.777 1053.43 171.597C1053.21 171.553 1052.98 171.507 1052.76 171.461C1051.2 171.133 1049.73 170.827 1047.96 171.467C1047.83 171.514 1047.2 171.126 1046.69 170.81C1046.34 170.593 1046.05 170.411 1046.01 170.427C1044.45 171.171 1042.85 170.979 1041.25 170.788C1039.95 170.632 1038.66 170.477 1037.4 170.827C1037.19 170.887 1036.82 170.809 1036.5 170.743C1036.24 170.688 1036.02 170.642 1035.96 170.687C1033.69 172.413 1031.01 171.878 1028.56 171.391C1028.31 171.341 1028.07 171.293 1027.83 171.247C1026.25 170.947 1025.37 171.017 1024.3 171.687C1023.3 172.317 1022.04 172.637 1020.57 172.667C1020.3 172.673 1020.03 172.678 1019.75 172.682C1017.27 172.726 1014.82 172.769 1012.51 173.697C1011.37 174.157 1009.85 173.897 1008.61 173.437C1006.85 172.797 1004.9 172.967 1003 173.327C995.45 174.727 993.71 174.797 986.18 173.837C984.53 173.627 982.88 173.667 981.29 174.027C981.105 174.069 980.931 174.113 980.761 174.156C980.042 174.339 979.404 174.5 978.36 174.387L977.723 174.315C972.352 173.709 972.165 173.688 967.85 171.347L967.496 171.156C966.023 170.359 964.547 169.561 963.13 168.737C961.95 168.047 960.76 167.597 958.89 167.547C957.33 167.517 955.67 167.147 954.35 166.657C952.88 166.117 951.41 165.947 949.71 165.917C946.86 165.877 944.3 165.197 942.33 164.127C938.94 162.287 934.99 160.947 930.79 159.927C929.834 159.691 929.28 159.286 928.757 158.904C928.328 158.591 927.921 158.293 927.33 158.117C925.85 157.677 924.49 157.227 923.34 156.537C922.47 156.017 921.34 156.107 920.27 156.297C919.693 156.403 919.122 156.548 918.553 156.692C917.571 156.939 916.593 157.186 915.6 157.237C915.367 157.249 915.13 157.263 914.891 157.278C912.705 157.41 910.335 157.554 909.38 155.877C907.653 155.605 906.434 154.939 905.211 154.271C904.862 154.08 904.512 153.889 904.15 153.707L904.058 153.66C903.479 153.359 902.812 153.014 902.11 152.957C897.677 152.646 894.258 151.253 890.845 149.864C890.094 149.557 889.342 149.251 888.58 148.957C887.61 148.577 886.67 148.437 885.53 148.457C883.51 148.497 882.19 148.177 881.06 146.967C879.665 145.456 877.984 144.042 876.302 142.626C875.223 141.719 874.144 140.811 873.14 139.877C872.321 139.117 871.056 138.845 869.84 138.584C869.6 138.532 869.362 138.481 869.13 138.427C868.913 138.377 868.693 138.33 868.473 138.282C867.097 137.985 865.725 137.689 865.26 136.887C864.427 135.437 862.502 134.862 860.464 134.254C860.323 134.212 860.182 134.17 860.04 134.127C858.907 133.783 857.7 133.512 856.492 133.24C853.693 132.609 850.887 131.977 848.98 130.447C848.63 130.167 847.47 130.167 846.68 130.177L846.668 130.177C845.262 130.207 843.937 130.235 842.78 129.677C842.41 129.497 841.8 129.387 841.32 129.417C840.766 129.454 840.282 129.642 839.799 129.829C839.112 130.095 838.426 130.361 837.54 130.197C837.298 130.152 837.076 130.092 836.857 130.033C836.21 129.858 835.597 129.693 834.61 129.947C833.921 130.124 833.157 130.003 832.377 129.88C831.13 129.684 829.843 129.48 828.76 130.477C828.61 130.607 827.64 130.587 827.21 130.467C826.865 130.37 826.512 130.277 826.159 130.184C823.557 129.496 820.932 128.802 821.02 126.627C819.598 126.177 818.677 125.422 817.759 124.668C816.657 123.764 815.559 122.863 813.6 122.497C812.522 122.29 812 121.849 811.463 121.395C811.272 121.234 811.08 121.071 810.86 120.917C810.293 120.518 810.407 120.068 810.519 119.629C810.64 119.154 810.758 118.691 810.01 118.317C808.98 117.807 807.96 117.237 807.26 116.577C806.873 116.207 806.638 115.782 806.402 115.355C806.224 115.032 806.045 114.708 805.8 114.407C805.63 114.197 804.74 113.957 804.53 114.037C803.249 114.529 801.94 114.386 800.624 114.241C799.322 114.098 798.013 113.954 796.72 114.427C796.402 114.544 796.089 114.671 795.773 114.799C794.528 115.303 793.255 115.819 791.62 115.787C791.098 115.126 790.039 114.857 788.968 114.585C787.802 114.29 786.621 113.99 786.1 113.177C785.071 111.567 782.292 111.219 779.783 110.904C779.658 110.888 779.533 110.873 779.41 110.857C777.61 110.627 775.53 110.687 773.99 111.707C772.31 112.817 770.4 113.297 768.1 112.477C768.061 112.463 768.018 112.448 767.972 112.431C767.753 112.351 767.486 112.254 767.37 112.287C763.35 113.647 760.58 113.067 758.92 110.677C756.872 110.236 755.331 109.407 753.789 108.577C753.547 108.446 753.304 108.316 753.06 108.187C751.978 107.622 750.609 107.624 749.242 107.627C747.829 107.63 746.418 107.632 745.33 107.007C745.281 107.047 745.224 107.086 745.167 107.125C745.039 107.214 744.908 107.303 744.86 107.407C744.35 108.437 743.5 108.747 742.13 107.917C741.667 107.632 741.174 107.364 740.682 107.097C739.22 106.301 737.761 105.507 737.08 104.287C736.6 103.427 735.5 103.327 734.05 104.197C732.967 104.84 731.633 105.048 730.309 105.255C729.225 105.424 728.147 105.592 727.22 105.997C727.01 106.087 726.19 105.867 725.88 105.667C724.63 104.877 723.58 104.977 721.68 105.327C719.43 105.737 717.59 106.277 715.91 107.167C715.39 107.437 714.82 107.377 714.68 106.957C714.294 105.824 712.936 105.832 711.563 105.84C711.3 105.842 711.037 105.843 710.78 105.837C710.673 105.837 710.557 105.851 710.442 105.865C710.266 105.886 710.093 105.907 709.96 105.877C709.086 105.663 708.362 106.17 707.637 106.679C706.537 107.451 705.434 108.225 703.8 106.477C703.78 106.457 702.9 106.667 702.54 106.847C702.113 107.059 701.693 107.329 701.276 107.596C700.432 108.138 699.603 108.67 698.76 108.697C698.099 108.716 697.398 108.586 696.664 108.449C695.842 108.296 694.978 108.135 694.08 108.167C693.054 107.495 691.887 107.708 690.666 107.93C689.543 108.134 688.375 108.347 687.23 107.887C685.927 107.356 684.169 107.191 682.416 107.026C681.692 106.958 680.969 106.89 680.28 106.797C679.872 106.743 679.441 106.748 679.009 106.754C678.879 106.755 678.749 106.757 678.62 106.757C677.46 106.777 676.49 106.557 675.68 106.087C675.586 106.032 675.493 105.977 675.4 105.922C673.586 104.853 671.764 103.779 668.73 104.017C668.107 103.802 667.485 103.587 666.863 103.372C664.479 102.547 662.097 101.724 659.71 100.907C659.537 99.7712 658.414 99.9304 657.341 100.083C656.865 100.15 656.399 100.216 656.03 100.167C652.32 99.657 648.58 99.357 644.88 100.807C643.57 101.317 641.59 101.277 640.05 100.857C637.263 100.094 634.346 100.261 631.439 100.427C630.497 100.481 629.555 100.535 628.62 100.557C627.66 100.577 626.55 101.027 625.76 101.447C623.32 102.757 621.07 102.657 618.14 102.027C617.957 101.988 617.771 101.947 617.581 101.906C615.448 101.437 612.953 100.89 610.39 101.937C609.66 102.227 608.12 102.097 607.18 101.867C606.54 101.711 605.985 101.455 605.429 101.199C604.915 100.962 604.401 100.725 603.82 100.567C603.437 100.459 603.041 100.548 602.613 100.644C602.09 100.762 601.519 100.89 600.86 100.687C598.33 99.907 597.82 99.947 595.99 100.487L595.888 100.517C594.206 101.009 594.072 101.048 591.18 100.087C590.557 99.8811 589.974 100.008 589.402 100.133C588.751 100.275 588.115 100.413 587.45 100.057C586.855 99.738 586.132 99.5018 585.408 99.2653C584.952 99.1162 584.495 98.9671 584.07 98.797C583.479 98.5629 582.914 98.3062 582.349 98.0494C581.852 97.8235 581.355 97.5976 580.84 97.387C579.85 96.987 578.73 96.967 577.88 97.537C576.29 98.597 574.45 99.217 572.03 99.187C570.04 99.167 568.34 99.677 566.55 100.217C565.567 100.519 564.552 100.785 563.54 101.05C560.763 101.777 557.996 102.501 555.9 103.967C555.48 104.257 554.31 104.437 553.66 104.337C553.431 104.3 553.215 104.249 553.004 104.199C552.293 104.031 551.644 103.877 550.78 104.347C547.756 106.008 544.225 107.216 540.693 108.424C537.953 109.361 535.213 110.298 532.71 111.447C532.613 111.495 532.509 111.522 532.404 111.548C532.336 111.566 532.267 111.583 532.2 111.607L532.109 111.578C531.828 111.487 531.542 111.395 531.28 111.287C530.712 111.057 530.168 110.811 529.624 110.565C529.105 110.331 528.587 110.097 528.05 109.877C527.06 109.467 525.94 109.457 525.08 110.027C523.49 111.087 521.65 111.697 519.23 111.677C517.24 111.657 515.54 112.157 513.75 112.717C512.786 113.01 511.792 113.27 510.799 113.53C508.002 114.261 505.211 114.991 503.1 116.467C502.68 116.767 501.51 116.937 500.86 116.837C500.629 116.8 500.412 116.748 500.199 116.698C499.49 116.529 498.842 116.375 497.98 116.837C494.927 118.508 491.359 119.733 487.799 120.957L487.74 120.977C485.93 121.097 484.46 121.577 483.44 122.527C482.24 122.977 481.04 123.427 479.92 123.947C478.367 124.661 476.658 124.664 474.961 124.667C474.471 124.668 473.983 124.669 473.5 124.687C471.63 124.757 470.7 125.207 469.62 126.157C467.74 127.827 465.18 129.067 461.27 128.387C460.721 128.29 459.984 128.516 459.253 128.74C458.932 128.839 458.612 128.937 458.31 129.007C457.82 129.121 457.335 129.251 456.849 129.382C455.798 129.665 454.748 129.948 453.66 130.057C453.214 130.103 452.759 130.132 452.308 130.161C450.302 130.291 448.369 130.416 447.61 131.967C446.903 132.127 446.233 132.345 445.563 132.564C444.054 133.056 442.545 133.547 440.62 133.367C439.87 133.299 439.082 133.343 438.291 133.387C437.68 133.421 437.067 133.454 436.47 133.437C433.71 133.357 431.48 133.887 430.23 135.397C429.33 136.487 427.91 137.137 426.25 137.827C421.84 139.677 417.95 141.867 416.97 145.177C416.72 146.027 416.03 146.707 415.03 147.307C414.757 147.47 414.44 147.62 414.125 147.77C413.528 148.054 412.934 148.337 412.64 148.697C410.953 150.771 407.907 151.91 404.869 153.047C403.981 153.38 403.093 153.712 402.24 154.067C401.22 154.117 400.23 154.247 399.28 154.437C398.89 154.417 398.51 154.497 398.15 154.677C397.94 154.727 397.72 154.777 397.51 154.817C397.084 154.908 396.676 155.02 396.284 155.128C395.774 155.267 395.292 155.399 394.84 155.467C394.777 155.457 394.716 155.449 394.654 155.441C394.532 155.426 394.41 155.41 394.27 155.377C394.1 155.337 393.87 155.357 393.63 155.407C393.18 155.267 392.77 154.967 392.42 154.377C392.26 154.107 391.62 154.247 391.44 154.687C391.15 155.37 390.579 155.348 389.867 155.319C389.62 155.309 389.355 155.299 389.08 155.317C387.57 155.427 385.83 155.957 384.74 156.607C381.7 158.427 378.3 158.547 374.86 157.697C372.9 157.217 371.77 157.607 370.48 158.327L370.458 158.339C369.217 159.035 368.059 159.683 366.17 158.957C365.36 158.647 364.05 158.567 363.03 158.667C362.047 158.768 361.076 158.939 360.106 159.109C358.966 159.31 357.827 159.511 356.67 159.597C355.797 159.662 355.03 159.447 354.241 159.226C353.331 158.97 352.392 158.707 351.23 158.857C349.87 159.034 348.485 159.071 347.097 159.109C344.648 159.175 342.189 159.241 339.84 160.077C338.927 160.405 337.664 160.392 336.412 160.38C335.908 160.375 335.406 160.37 334.93 160.387C334.047 160.417 333.159 160.417 332.271 160.417C329.572 160.418 326.871 160.419 324.29 161.247C323.93 161.357 323.24 161.287 322.86 161.157C320.52 160.377 318.66 160.857 316.98 161.977C316.815 162.087 316.601 162.18 316.39 162.271L316.33 162.297C314.49 163.087 312.73 163.037 310.98 162.297C310.12 161.937 309.17 161.637 308.23 161.347C308.02 161.277 307.59 161.277 307.42 161.357C306.226 161.926 305.052 161.74 303.88 161.555C302.971 161.411 302.063 161.267 301.15 161.477C301.105 161.488 301.057 161.498 301.008 161.509C300.78 161.56 300.526 161.617 300.46 161.707C299.081 163.57 297.61 162.839 296.131 162.104C295.991 162.034 295.85 161.965 295.71 161.897C295.51 161.797 295.19 161.687 294.99 161.717C294.339 161.832 293.696 161.963 293.052 162.093C292.133 162.28 291.215 162.466 290.28 162.607C289.674 162.695 289.127 162.545 288.565 162.39C287.727 162.16 286.855 161.92 285.7 162.447L285.634 162.477C284.504 162.993 283.064 163.65 281.25 163.307C280.051 163.08 278.777 162.975 277.503 162.869C275.016 162.664 272.527 162.458 270.59 161.347C269.82 160.907 269.01 160.477 268.15 160.097C267.78 159.927 266.98 159.717 266.82 159.797C265.982 160.249 264.898 160.356 263.815 160.463C262.429 160.601 261.044 160.738 260.18 161.597C259.51 162.257 258.53 162.337 257.41 161.937C257.014 161.799 256.465 161.779 255.958 161.762C255.915 161.76 255.872 161.759 255.83 161.757C254.577 161.713 253.48 162.03 252.379 162.348C251.211 162.686 250.039 163.024 248.67 162.937C246.04 162.767 243.78 163.547 241.64 164.327C239.29 165.177 236.99 165.367 234.58 164.717C232.69 164.207 230.87 164.237 229.09 164.997C229.072 165.004 229.053 165.012 229.033 165.02C228.815 165.111 228.517 165.234 228.37 165.197C225.4 164.457 222.7 164.457 220.51 166.247C220.477 166.276 220.306 166.226 220.085 166.161C219.766 166.069 219.344 165.946 219.09 165.987C217.515 166.238 215.989 166.11 214.46 165.982C213.124 165.869 211.785 165.757 210.41 165.897C209.32 166.007 208.5 165.607 207.81 165.007C207.329 164.589 206.663 164.25 205.994 163.91C205.48 163.649 204.964 163.387 204.53 163.087L204.523 163.082C203.967 162.695 203.656 162.478 202.68 162.737C200.106 163.414 197.432 163.416 194.762 163.418C193.843 163.418 192.924 163.419 192.01 163.447C190.34 163.497 189.65 162.917 189.31 162.037C189.15 161.607 188.7 160.957 188.19 160.907C187.72 160.856 187.321 160.693 186.922 160.53C186.234 160.249 185.548 159.969 184.51 160.267C183.283 160.623 182.959 160.192 182.636 159.763C182.414 159.468 182.193 159.174 181.68 159.137C181.59 159.13 181.499 159.124 181.408 159.117C178.736 158.921 175.9 158.713 173.85 160.067C172.835 160.74 171.572 160.939 170.327 161.135C169.463 161.271 168.608 161.406 167.85 161.697C166.792 162.098 166.464 161.723 166.112 161.323L166.09 161.297C165.11 160.187 163.55 160.327 161.86 160.707C161.652 160.754 161.442 160.842 161.231 160.93C160.719 161.144 160.199 161.361 159.69 161.007C158.557 160.224 156.932 159.967 155.306 159.71C153.545 159.432 151.783 159.153 150.64 158.207C149.95 157.637 148.36 157.807 147.54 158.137C146.615 158.514 145.679 158.506 144.761 158.499C144.171 158.494 143.588 158.489 143.02 158.587C142.929 158.602 142.839 158.618 142.751 158.634C142.031 158.762 141.437 158.867 141.09 158.377C140.66 157.757 140.16 157.197 138.83 157.287C136.31 157.467 133.9 157.597 131.67 156.687C131.165 156.483 130.486 156.704 129.845 156.913C129.104 157.155 128.416 157.379 128.11 156.907C127.57 156.071 126.28 155.881 125.014 155.694C123.631 155.491 122.278 155.291 121.97 154.257C121.93 154.117 121.03 153.977 120.55 153.997C117.64 154.157 115.83 153.707 115.64 151.757C115.572 151.093 114.014 151.221 112.916 151.311L112.84 151.317C111.696 151.406 110.865 151.853 110.031 152.302C108.998 152.858 107.958 153.418 106.31 153.307C104.07 153.157 101.99 153.527 99.9899 154.347C98.6999 154.877 96.9299 154.477 95.9999 153.467C94.8199 152.187 93.2399 151.727 90.6599 151.877C87.6699 152.057 84.7499 152.047 81.7299 151.457C79.0599 150.937 76.6599 150.407 74.7899 149.227C73.8199 148.617 73.0299 148.807 71.9899 149.237C70.9299 149.667 69.8599 149.437 69.0199 148.977C67.2499 147.997 65.4999 147.017 63.7899 146.007L63.6607 145.931C61.9774 144.937 60.3496 143.977 57.5999 143.957C56.1602 143.947 55.2603 143.277 54.4005 142.637L54.3999 142.637C52.9799 141.577 50.7799 141.127 48.9799 141.587C48.0549 141.818 47.167 142.102 46.2793 142.386C45.4395 142.655 44.6001 142.923 43.7299 143.147C40.9399 143.857 38.3099 143.877 36.2199 142.457C35.8467 142.203 35.3987 141.957 34.9502 141.71C33.9326 141.15 32.9126 140.589 32.7599 139.937C32.3299 138.077 30.5299 138.037 28.1699 138.157C27.7528 138.179 27.3305 138.19 26.9075 138.201C25.3731 138.243 23.8282 138.284 22.4799 138.817C20.6699 139.527 18.4899 139.627 16.8499 139.397C13.5023 138.93 10.3296 139.377 7.18573 139.819C6.42278 139.926 5.66153 140.033 4.8999 140.127C4.22195 140.208 3.53807 140.212 2.85397 140.215C1.76208 140.221 0.669655 140.227 -0.400101 140.547C-0.530098 140.587 -0.730103 140.567 -0.940102 140.537L-0.130096 154.317C-1.3201 153.927 -2.6401 153.807 -3.8201 154.107C-4.7343 154.337 -5.6172 154.619 -6.50076 154.901C-7.34722 155.171 -8.1943 155.442 -9.0701 155.667C-11.8501 156.377 -14.4901 156.397 -16.5801 154.977C-16.9521 154.724 -17.3984 154.478 -17.8452 154.232C-18.8637 153.672 -19.8841 153.11 -20.0301 152.457C-20.4601 150.597 -22.2601 150.557 -24.6201 150.677C-25.0372 150.699 -25.4595 150.71 -25.8825 150.721C-27.4169 150.763 -28.9618 150.804 -30.3101 151.337C-32.1201 152.057 -34.3001 152.147 -35.9401 151.917C-39.269 151.453 -42.4249 151.892 -45.5515 152.326C-46.3321 152.435 -47.1109 152.543 -47.8901 152.637C-48.568 152.718 -49.2519 152.722 -49.936 152.725C-51.0279 152.731 -52.1203 152.737 -53.1901 153.057C-53.3301 153.097 -53.5201 153.077 -53.7301 153.047L-54.3835 0ZM1434.44 71.3773C1435.73 70.5819 1436.94 69.7559 1437.91 68.817C1438.32 68.427 1438.95 67.857 1439.53 67.817C1441.63 67.6651 1442.45 66.8503 1443.34 65.9722C1443.44 65.8677 1443.55 65.7623 1443.66 65.657C1444.07 65.2629 1444.85 64.9823 1445.62 64.7091C1445.85 64.6287 1446.07 64.5489 1446.28 64.467C1449.8 63.087 1453.63 62.797 1457.4 63.457C1460.71 64.037 1463.61 63.877 1466.93 62.987C1467.69 62.7849 1468.46 62.59 1469.22 62.3951C1471 61.9437 1472.77 61.4917 1474.49 60.947C1475.44 60.647 1476.6 60.437 1477.65 60.427C1478.1 60.4225 1478.58 60.5387 1479.05 60.6503C1479.62 60.7873 1480.16 60.9173 1480.57 60.807C1480.69 60.7757 1480.81 60.7442 1480.93 60.7129C1481.99 60.4334 1483.01 60.164 1484.16 60.137C1484.65 59.8333 1485.15 59.5343 1485.64 59.2355C1487.44 58.1565 1489.23 57.079 1490.57 55.787C1490.98 55.397 1491.61 54.827 1492.19 54.787C1494.3 54.6345 1495.12 53.8147 1496.01 52.9259C1496.11 52.8236 1496.21 52.7203 1496.32 52.617C1496.73 52.2229 1497.52 51.9423 1498.28 51.669C1498.51 51.5886 1498.73 51.5088 1498.94 51.427C1502.46 50.047 1506.29 49.757 1510.06 50.417C1513.37 50.997 1516.27 50.837 1519.59 49.947C1520.35 49.7449 1521.12 49.5501 1521.88 49.3552C1523.66 48.9038 1525.43 48.4517 1527.15 47.907C1528.1 47.607 1529.26 47.397 1530.31 47.387C1530.76 47.3825 1531.24 47.4988 1531.71 47.6103C1532.28 47.7474 1532.82 47.8773 1533.23 47.767C1533.41 47.72 1533.58 47.6721 1533.76 47.6245C1534.84 47.3272 1535.88 47.0411 1537.1 47.067C1539.09 48.667 1539.16 48.677 1541.79 47.857C1543.04 47.467 1544.69 47.407 1546.93 47.587C1547.76 47.6493 1548.63 47.6267 1549.49 47.6042C1549.73 47.5978 1549.98 47.5914 1550.22 47.587C1551.2 47.567 1551.75 47.887 1552.03 48.347C1552.58 49.2638 1553.86 49.2515 1555.16 49.239L1555.39 49.237C1556.8 49.217 1558.21 49.127 1559.12 48.367C1559.47 48.0747 1559.76 47.7551 1560.04 47.435C1560.27 47.1745 1560.5 46.9137 1560.77 46.667C1561.38 46.097 1562.77 46.037 1563.57 46.557C1564 46.8329 1564.38 47.1305 1564.76 47.4281C1565.02 47.6265 1565.27 47.825 1565.54 48.017C1566.93 48.997 1569.09 49.107 1570.25 47.997C1571.35 46.947 1572.08 46.537 1574.03 47.127C1574.23 47.1878 1574.44 47.252 1574.65 47.3174C1576.15 47.7791 1577.84 48.3022 1579.23 48.127C1579.42 48.1025 1579.61 48.0772 1579.79 48.0524C1581.17 47.8648 1582.33 47.7076 1583.63 48.167C1585.32 48.767 1587.08 48.537 1588.93 48.127C1589.72 47.957 1590.32 48.327 1590.54 48.817C1590.95 48.8292 1591.38 48.8274 1591.8 48.8256C1592.76 48.8215 1593.71 48.8174 1594.56 48.977C1596.51 49.3486 1598.39 49.8296 1600.27 50.3108C1600.87 50.464 1601.47 50.6173 1602.07 50.767C1602.63 50.9075 1603.23 51.0196 1603.82 51.1316C1605.71 51.49 1607.59 51.847 1608.55 53.127C1609.12 53.877 1610.77 53.927 1612.2 53.887C1614.41 53.817 1616.52 53.757 1618.56 54.457C1620.56 55.137 1622.6 55.767 1625.34 54.597C1625.95 54.3387 1626.73 54.4951 1627.58 54.6658C1628.77 54.905 1630.1 55.1722 1631.3 54.367C1632.57 54.6344 1633.85 54.8894 1635.13 55.1444C1638.15 55.7477 1641.18 56.3508 1644.06 57.117C1648.96 58.417 1651.87 59.057 1656.3 58.977C1658.28 58.937 1660.12 58.997 1661.86 59.577C1662.46 59.777 1663.72 59.777 1664.23 59.537C1665.82 58.7844 1667.71 58.6424 1669.6 58.5009C1671.6 58.351 1673.58 58.2017 1675.2 57.327C1675.98 57.2977 1676.77 57.237 1677.56 57.1762C1678.66 57.0916 1679.76 57.007 1680.84 57.007C1681.02 56.837 1681.17 56.657 1681.27 56.447C1682.15 54.7009 1684.14 53.3762 1686.12 52.0544C1687.07 51.4231 1688.02 50.7925 1688.84 50.117C1690.27 48.947 1692.72 48.937 1693.6 50.117C1694.62 51.487 1696.13 52.577 1698.06 53.417C1699.43 54.017 1700.63 54.697 1701.77 55.417C1702.24 55.2727 1702.7 55.1117 1703.16 54.9503C1704.81 54.3737 1706.47 53.7929 1708.53 53.957C1709.55 53.6529 1710.62 53.4208 1711.7 53.1886C1714.24 52.642 1716.78 52.0949 1718.53 50.607C1719.5 49.785 1720.94 49.1819 1722.37 48.5765C1722.56 48.4968 1722.75 48.4172 1722.94 48.337C1723.26 48.2002 1723.75 48.1187 1724.26 48.0334C1725.57 47.8131 1727.03 47.5671 1726.28 46.277C1726.9 45.3774 1728.02 45.3991 1729.14 45.4207C1729.86 45.4344 1730.57 45.4481 1731.15 45.227C1732.36 44.777 1733.49 44.277 1733.92 43.427C1734.13 42.9986 1734.42 42.5956 1734.75 42.2117C1733.15 43.0308 1731.2 43.4283 1729.26 43.8248C1728.18 44.0451 1727.11 44.2651 1726.09 44.557C1724.04 44.3786 1722.39 44.9341 1720.75 45.4864C1720.28 45.6462 1719.8 45.8057 1719.32 45.947C1718.19 45.217 1716.99 44.527 1715.63 43.917C1713.7 43.057 1712.21 41.957 1711.2 40.577C1710.34 39.387 1707.88 39.377 1706.44 40.537C1705.61 41.2081 1704.65 41.832 1703.69 42.4563C1701.7 43.7574 1699.7 45.0603 1698.81 46.797C1698.7 47.007 1698.55 47.187 1698.37 47.357C1697.29 47.3454 1696.19 47.4183 1695.09 47.4913C1694.3 47.5437 1693.51 47.5961 1692.73 47.617C1691.1 48.4759 1689.11 48.6047 1687.12 48.7341C1685.23 48.8562 1683.34 48.9788 1681.74 49.717C1681.23 49.957 1679.96 49.937 1679.37 49.737C1677.63 49.137 1675.8 49.067 1673.82 49.077C1669.4 49.107 1666.49 48.447 1661.6 47.097C1658.78 46.3183 1655.82 45.6964 1652.86 45.0741C1651.52 44.7933 1650.18 44.5124 1648.86 44.217C1647.66 45.0027 1646.33 44.7249 1645.14 44.4755C1644.29 44.2964 1643.51 44.132 1642.89 44.387C1640.14 45.527 1638.11 44.877 1636.11 44.177C1634.08 43.457 1631.97 43.497 1629.75 43.547C1628.32 43.577 1626.67 43.517 1626.1 42.747C1625.15 41.4575 1623.28 41.0828 1621.41 40.7065C1620.81 40.5867 1620.21 40.4667 1619.64 40.317C1618.99 40.1491 1618.34 39.9764 1617.69 39.8036C1615.87 39.3176 1614.04 38.8306 1612.15 38.447C1611.3 38.272 1610.33 38.2685 1609.36 38.265C1608.95 38.2635 1608.53 38.262 1608.13 38.247C1607.91 37.757 1607.32 37.377 1606.53 37.547C1604.68 37.947 1602.92 38.157 1601.23 37.537C1599.95 37.0626 1598.8 37.2057 1597.42 37.3762C1597.23 37.3998 1597.04 37.4239 1596.84 37.447C1595.43 37.6146 1593.73 37.0665 1592.24 36.5848C1592.04 36.5204 1591.84 36.4572 1591.65 36.397C1589.71 35.787 1588.97 36.187 1587.86 37.237C1586.7 38.337 1584.53 38.207 1583.15 37.217C1582.87 37.0165 1582.61 36.8054 1582.34 36.5941C1581.97 36.2997 1581.6 36.0048 1581.19 35.737C1580.4 35.217 1579.01 35.257 1578.39 35.817C1578.13 36.0575 1577.9 36.3095 1577.67 36.5604C1577.38 36.8833 1577.09 37.2044 1576.73 37.497C1575.81 38.247 1574.4 38.327 1572.99 38.327L1572.8 38.3272C1571.48 38.3294 1570.18 38.3316 1569.64 37.397C1569.37 36.937 1568.82 36.607 1567.84 36.627C1567.6 36.6292 1567.35 36.6334 1567.11 36.6376C1566.25 36.6523 1565.38 36.667 1564.55 36.597C1562.31 36.397 1560.66 36.447 1559.41 36.817C1556.77 37.607 1556.71 37.607 1554.73 35.977C1553.5 35.9337 1552.45 36.2127 1551.36 36.5025C1551.19 36.5475 1551.02 36.5927 1550.85 36.637C1550.45 36.7406 1549.92 36.6065 1549.35 36.4646C1548.88 36.3462 1548.39 36.2224 1547.94 36.227C1546.89 36.227 1545.73 36.427 1544.77 36.717C1543.03 37.251 1541.24 37.6862 1539.45 38.1198C1538.7 38.3033 1537.94 38.4866 1537.19 38.677C1533.86 39.527 1530.96 39.657 1527.66 39.047C1523.89 38.347 1520.06 38.607 1516.53 39.947C1516.32 40.0269 1516.09 40.1047 1515.87 40.1831C1515.1 40.4484 1514.32 40.7211 1513.9 41.107C1513.79 41.2112 1513.68 41.3154 1513.58 41.4186C1512.67 42.296 1511.84 43.1017 1509.74 43.227C1509.16 43.267 1508.52 43.827 1508.11 44.217C1506.77 45.488 1504.97 46.5461 1503.17 47.6048C1502.67 47.9039 1502.16 48.203 1501.66 48.507C1500.51 48.5159 1499.5 48.7718 1498.44 49.04C1498.32 49.0723 1498.19 49.1048 1498.06 49.137C1497.66 49.2406 1497.13 49.1065 1496.56 48.9646C1496.09 48.8462 1495.6 48.7224 1495.15 48.727C1494.1 48.727 1492.94 48.927 1491.98 49.217C1490.24 49.751 1488.45 50.1862 1486.66 50.6198C1485.91 50.8034 1485.15 50.9867 1484.4 51.177C1481.07 52.027 1478.17 52.157 1474.87 51.547C1471.1 50.847 1467.27 51.107 1463.74 52.447C1463.53 52.5269 1463.3 52.6047 1463.08 52.6831C1462.31 52.9484 1461.53 53.2211 1461.11 53.607C1460.99 53.7161 1460.88 53.8254 1460.77 53.9338C1459.87 54.799 1459.04 55.6026 1456.95 55.727C1456.37 55.767 1455.73 56.327 1455.32 56.717C1453.98 57.988 1452.18 59.0436 1450.38 60.0991C1448.19 61.3855 1446 62.6716 1444.64 64.347C1442.05 65.0479 1440.56 66.3211 1439.07 67.5942C1438.35 68.2101 1437.63 68.826 1436.79 69.377C1435.77 70.0378 1434.97 70.6668 1434.44 71.3773ZM1745.03 36.3349C1745.54 36.4713 1745.97 36.725 1746.25 37.097C1747.27 38.467 1748.78 39.547 1750.71 40.397C1754.35 41.9727 1757 44.0752 1759.62 46.1608L1759.79 46.297C1759.9 46.3867 1760.01 46.4756 1760.12 46.5631C1761.11 47.373 1761.94 48.0589 1764.02 48.077C1764.95 48.087 1766.16 48.567 1766.62 49.047C1767.66 50.1371 1769.34 50.7733 1771.03 51.408C1772.25 51.8678 1773.46 52.3268 1774.43 52.957C1774.75 53.167 1775.39 53.297 1775.9 53.287C1776.4 53.2779 1776.9 53.2767 1777.4 53.2756C1779.65 53.2703 1781.89 53.2651 1784.03 52.537C1784.73 52.2988 1785.45 52.081 1786.18 51.8632C1787.21 51.5506 1788.25 51.2383 1789.22 50.867C1790.74 50.287 1791.93 50.187 1793.74 50.517C1795.71 50.877 1798.15 50.837 1800.22 50.137C1801.49 49.7002 1802.68 49.9077 1803.86 50.115C1804.97 50.3111 1806.09 50.5069 1807.28 50.157L1807.63 50.052C1809 49.6428 1810.41 49.2211 1811.86 49.037C1819.72 48.037 1821.82 47.487 1829.24 44.127C1829.29 44.1027 1829.34 44.079 1829.39 44.0563C1829.8 43.8546 1830.06 43.7292 1830.63 43.927C1831.08 44.087 1831.6 44.217 1832.13 44.257C1834.51 44.447 1835.07 44.137 1835.81 42.407C1835.84 42.3333 1835.86 42.2367 1835.87 42.1347C1835.94 41.7379 1836.02 41.2597 1837.01 41.737C1839.27 42.827 1841.42 43.527 1844.4 42.367C1844.69 42.247 1845.63 42.367 1845.79 42.537C1846.35 43.1504 1847.42 43.1893 1848.5 43.2288C1849.73 43.2736 1850.98 43.319 1851.52 44.207C1851.86 44.757 1853.68 44.667 1854.54 44.317C1857.39 43.157 1859.2 44.107 1860.52 45.207C1861.56 46.067 1862.34 46.207 1863.74 45.607C1864.52 45.277 1865.2 45.287 1865.88 45.647C1866.03 45.722 1866.17 45.8012 1866.32 45.8812C1867.2 46.356 1868.13 46.861 1869.36 46.707C1870.95 46.5171 1872.52 46.6766 1874.09 46.8365C1876.41 47.0723 1878.73 47.3089 1881.16 46.427C1882.44 45.957 1884.38 46.017 1885.78 46.787C1886.95 47.437 1888.28 48.037 1890.07 47.997C1891.6 47.9615 1892.1 48.5441 1892.6 49.1236C1892.94 49.5249 1893.29 49.9247 1893.97 50.117C1894.14 50.1668 1894.31 50.2408 1894.48 50.314C1894.78 50.4464 1895.08 50.5763 1895.37 50.557C1898.23 50.3742 1899.91 51.3158 1901.6 52.2622C1902.04 52.5066 1902.47 52.7512 1902.93 52.977C1903.32 53.1665 1903.7 53.3831 1904.08 53.601C1905.12 54.1882 1906.18 54.7849 1907.38 54.887C1909.41 55.0503 1910.75 55.6541 1912.13 56.2694C1912.61 56.4832 1913.09 56.6984 1913.6 56.897C1916.01 57.8301 1917.66 59.1262 1919.32 60.4222C1920.06 61.0013 1920.79 61.5803 1921.6 62.127L1921.86 62.3032C1923.42 63.3622 1923.48 63.4044 1926.34 63.167C1927.85 63.047 1928.93 63.237 1929.63 64.107C1930.14 64.737 1931.24 64.867 1932.36 64.377C1932.58 64.277 1932.8 64.1645 1933.01 64.052C1933.22 63.9395 1933.43 63.827 1933.65 63.727C1936.76 62.337 1938.38 62.337 1940.81 63.737C1940.92 63.8002 1941.05 63.8609 1941.17 63.9218C1941.49 64.0728 1941.8 64.2245 1941.91 64.417C1942.72 65.847 1944.33 66.347 1946.95 66.097C1948.6 65.947 1950.2 66.187 1951.77 66.547C1952.7 66.767 1954.27 66.907 1954.89 66.607C1956.37 65.8938 1957.26 66.2016 1958.31 66.563C1958.57 66.6526 1958.84 66.7455 1959.13 66.827C1961.95 67.6127 1964.93 68.2189 1967.93 68.8299L1968.9 69.027L1968.8 59.4612C1967.37 59.135 1965.9 58.9291 1964.4 59.057C1961.77 59.277 1960.17 58.757 1959.38 57.327C1959.27 57.1356 1958.96 56.9793 1958.64 56.8261C1958.52 56.7633 1958.39 56.701 1958.28 56.637C1955.86 55.217 1954.24 55.197 1951.12 56.557C1950.91 56.6484 1950.72 56.7503 1950.53 56.8522C1950.3 56.9731 1950.07 57.0939 1949.82 57.197C1948.7 57.677 1947.6 57.547 1947.09 56.907C1946.4 56.027 1945.33 55.827 1943.81 55.937C1940.94 56.1372 1940.89 56.1011 1939.32 55.0142L1939.08 54.847C1938.28 54.2922 1937.54 53.7048 1936.81 53.1169C1935.17 51.8078 1933.52 50.4962 1931.13 49.537C1930.62 49.3345 1930.15 49.1163 1929.68 48.8995C1928.3 48.2703 1926.96 47.653 1924.93 47.467C1923.73 47.3576 1922.67 46.7482 1921.64 46.1509C1921.26 45.9292 1920.87 45.7092 1920.49 45.517C1920.03 45.2862 1919.6 45.0363 1919.16 44.7866C1917.48 43.8247 1915.81 42.8662 1912.95 43.017C1912.66 43.0297 1912.37 42.9014 1912.08 42.7702C1911.91 42.6946 1911.74 42.6182 1911.56 42.567C1910.88 42.367 1910.54 41.9638 1910.2 41.5593C1909.71 40.9727 1909.21 40.3833 1907.68 40.407C1905.89 40.427 1904.56 39.817 1903.4 39.157C1902.01 38.377 1900.07 38.297 1898.79 38.747C1896.36 39.6037 1894.04 39.3455 1891.73 39.0884C1890.15 38.9133 1888.59 38.7388 1886.99 38.917C1885.75 39.0541 1884.82 38.5379 1883.95 38.0539C1883.81 37.973 1883.66 37.8929 1883.52 37.817C1882.84 37.457 1882.16 37.437 1881.38 37.757C1879.97 38.337 1879.19 38.197 1878.16 37.327C1876.85 36.217 1875.04 35.247 1872.19 36.387C1871.33 36.727 1869.5 36.797 1869.17 36.247C1868.64 35.3615 1867.4 35.3026 1866.17 35.2444C1865.08 35.1928 1864.01 35.1418 1863.45 34.517C1863.3 34.347 1862.36 34.217 1862.06 34.337C1859.07 35.477 1856.92 34.747 1854.68 33.637C1853.7 33.1535 1853.62 33.625 1853.54 34.0206C1853.52 34.1241 1853.5 34.2224 1853.47 34.297C1852.71 36.017 1852.15 36.317 1849.77 36.107C1849.24 36.057 1848.72 35.917 1848.27 35.757C1847.73 35.5589 1847.47 35.6725 1847.08 35.8484C1847.02 35.8767 1846.95 35.9066 1846.88 35.937C1839.43 39.227 1837.32 39.747 1829.45 40.677C1828.04 40.8381 1826.66 41.2316 1825.33 41.6135C1825.17 41.6583 1825.02 41.7029 1824.86 41.747C1823.66 42.0824 1822.55 41.8768 1821.44 41.671C1820.26 41.4534 1819.08 41.2355 1817.8 41.657C1815.72 42.337 1813.28 42.357 1811.32 41.977C1809.52 41.627 1808.33 41.717 1806.8 42.277C1805.85 42.6247 1804.85 42.9171 1803.84 43.2098C1803.08 43.4307 1802.33 43.6519 1801.59 43.897C1799.46 44.5954 1797.23 44.5816 1795 44.5678C1794.48 44.5646 1793.96 44.5614 1793.45 44.567C1792.95 44.567 1792.3 44.427 1791.99 44.217C1791.03 43.5703 1789.81 43.0951 1788.59 42.6192C1786.92 41.9693 1785.25 41.3181 1784.22 40.227C1783.76 39.737 1782.56 39.247 1781.63 39.227C1779.55 39.1818 1778.72 38.4906 1777.74 37.671C1777.63 37.5842 1777.53 37.496 1777.42 37.407L1777.35 37.3521C1774.72 35.2101 1772.08 33.053 1768.4 31.417C1766.48 30.557 1764.98 29.457 1763.98 28.077C1763.12 26.897 1760.66 26.877 1759.22 28.037C1758.39 28.7083 1757.43 29.3313 1756.47 29.9546C1754.48 31.2533 1752.48 32.5537 1751.59 34.297C1751.15 35.147 1750.01 35.627 1748.8 36.067C1748.22 36.2799 1747.51 36.2591 1746.79 36.2382C1746.18 36.2202 1745.57 36.2022 1745.03 36.3349Z" fill="dark"></path></g></svg>